%TF.GenerationSoftware,KiCad,Pcbnew,7.0.6*%
%TF.CreationDate,2023-11-12T21:40:01+01:00*%
%TF.ProjectId,Julkort,4a756c6b-6f72-4742-9e6b-696361645f70,rev?*%
%TF.SameCoordinates,Original*%
%TF.FileFunction,Copper,L1,Top*%
%TF.FilePolarity,Positive*%
%FSLAX46Y46*%
G04 Gerber Fmt 4.6, Leading zero omitted, Abs format (unit mm)*
G04 Created by KiCad (PCBNEW 7.0.6) date 2023-11-12 21:40:01*
%MOMM*%
%LPD*%
G01*
G04 APERTURE LIST*
G04 Aperture macros list*
%AMRoundRect*
0 Rectangle with rounded corners*
0 $1 Rounding radius*
0 $2 $3 $4 $5 $6 $7 $8 $9 X,Y pos of 4 corners*
0 Add a 4 corners polygon primitive as box body*
4,1,4,$2,$3,$4,$5,$6,$7,$8,$9,$2,$3,0*
0 Add four circle primitives for the rounded corners*
1,1,$1+$1,$2,$3*
1,1,$1+$1,$4,$5*
1,1,$1+$1,$6,$7*
1,1,$1+$1,$8,$9*
0 Add four rect primitives between the rounded corners*
20,1,$1+$1,$2,$3,$4,$5,0*
20,1,$1+$1,$4,$5,$6,$7,0*
20,1,$1+$1,$6,$7,$8,$9,0*
20,1,$1+$1,$8,$9,$2,$3,0*%
%AMFreePoly0*
4,1,9,3.862500,-0.866500,0.737500,-0.866500,0.737500,-0.450000,-0.737500,-0.450000,-0.737500,0.450000,0.737500,0.450000,0.737500,0.866500,3.862500,0.866500,3.862500,-0.866500,3.862500,-0.866500,$1*%
G04 Aperture macros list end*
%TA.AperFunction,SMDPad,CuDef*%
%ADD10R,0.550000X0.550000*%
%TD*%
%TA.AperFunction,SMDPad,CuDef*%
%ADD11RoundRect,0.200000X0.200000X0.275000X-0.200000X0.275000X-0.200000X-0.275000X0.200000X-0.275000X0*%
%TD*%
%TA.AperFunction,SMDPad,CuDef*%
%ADD12R,0.900000X1.300000*%
%TD*%
%TA.AperFunction,SMDPad,CuDef*%
%ADD13FreePoly0,270.000000*%
%TD*%
%TA.AperFunction,SMDPad,CuDef*%
%ADD14R,1.200000X0.900000*%
%TD*%
%TA.AperFunction,SMDPad,CuDef*%
%ADD15R,0.900000X0.800000*%
%TD*%
%TA.AperFunction,SMDPad,CuDef*%
%ADD16RoundRect,0.062500X-0.350000X-0.062500X0.350000X-0.062500X0.350000X0.062500X-0.350000X0.062500X0*%
%TD*%
%TA.AperFunction,SMDPad,CuDef*%
%ADD17RoundRect,0.062500X-0.062500X-0.350000X0.062500X-0.350000X0.062500X0.350000X-0.062500X0.350000X0*%
%TD*%
%TA.AperFunction,ComponentPad*%
%ADD18C,0.500000*%
%TD*%
%TA.AperFunction,SMDPad,CuDef*%
%ADD19R,2.500000X2.500000*%
%TD*%
%TA.AperFunction,SMDPad,CuDef*%
%ADD20R,1.000000X0.750000*%
%TD*%
%TA.AperFunction,ViaPad*%
%ADD21C,0.800000*%
%TD*%
%TA.AperFunction,Conductor*%
%ADD22C,0.250000*%
%TD*%
G04 APERTURE END LIST*
D10*
%TO.P,D14,1,DIN*%
%TO.N,Net-(D13-DOUT)*%
X148545075Y-87094201D03*
%TO.P,D14,2,VDD*%
%TO.N,+6V*%
X149495075Y-87094201D03*
%TO.P,D14,3,DOUT*%
%TO.N,Net-(D14-DOUT)*%
X149495075Y-86144201D03*
%TO.P,D14,4,GND*%
%TO.N,GND*%
X148545075Y-86144201D03*
%TD*%
%TO.P,D12,1,DIN*%
%TO.N,Net-(D11-DOUT)*%
X144063947Y-101264957D03*
%TO.P,D12,2,VDD*%
%TO.N,+6V*%
X145013947Y-101264957D03*
%TO.P,D12,3,DOUT*%
%TO.N,Net-(D12-DOUT)*%
X145013947Y-100314957D03*
%TO.P,D12,4,GND*%
%TO.N,GND*%
X144063947Y-100314957D03*
%TD*%
D11*
%TO.P,R1,1*%
%TO.N,Net-(U1-AREF{slash}PA0)*%
X164269654Y-117873176D03*
%TO.P,R1,2*%
%TO.N,Net-(D1-DIN)*%
X162619654Y-117873176D03*
%TD*%
D12*
%TO.P,U2,1,OUT*%
%TO.N,+6V*%
X165054247Y-130104485D03*
D13*
%TO.P,U2,2,GND*%
%TO.N,GND*%
X163554247Y-130191985D03*
D12*
%TO.P,U2,3,IN*%
%TO.N,Net-(U2-IN)*%
X162054247Y-130104485D03*
%TD*%
D14*
%TO.P,J1,1,NO*%
%TO.N,GND*%
X81374644Y-127889317D03*
%TO.P,J1,2,COM*%
%TO.N,Net-(J1-COM)*%
X81357246Y-130844155D03*
%TO.P,J1,3,NC*%
%TO.N,unconnected-(J1-NC-Pad3)*%
X81374644Y-132389317D03*
D15*
%TO.P,J1,MP1,MP1*%
%TO.N,unconnected-(J1-PadMP1)*%
X80324644Y-126339317D03*
%TO.P,J1,MP2,MP2*%
%TO.N,unconnected-(J1-PadMP2)*%
X80324644Y-133939317D03*
%TO.P,J1,MP3,MP3*%
%TO.N,unconnected-(J1-PadMP3)*%
X78124644Y-133939317D03*
%TO.P,J1,MP4,MP4*%
%TO.N,unconnected-(J1-PadMP4)*%
X78124644Y-126339317D03*
%TD*%
D10*
%TO.P,D9,1,DIN*%
%TO.N,Net-(D8-DOUT)*%
X113655595Y-93955523D03*
%TO.P,D9,2,VDD*%
%TO.N,+6V*%
X114605595Y-93955523D03*
%TO.P,D9,3,DOUT*%
%TO.N,Net-(D10-DIN)*%
X114605595Y-93005523D03*
%TO.P,D9,4,GND*%
%TO.N,GND*%
X113655595Y-93005523D03*
%TD*%
%TO.P,D2,1,DIN*%
%TO.N,Net-(D1-DOUT)*%
X149178278Y-75573155D03*
%TO.P,D2,2,VDD*%
%TO.N,+6V*%
X150128278Y-75573155D03*
%TO.P,D2,3,DOUT*%
%TO.N,Net-(D2-DOUT)*%
X150128278Y-74623155D03*
%TO.P,D2,4,GND*%
%TO.N,GND*%
X149178278Y-74623155D03*
%TD*%
%TO.P,D15,1,DIN*%
%TO.N,Net-(D14-DOUT)*%
X150389617Y-93081466D03*
%TO.P,D15,2,VDD*%
%TO.N,+6V*%
X151339617Y-93081466D03*
%TO.P,D15,3,DOUT*%
%TO.N,Net-(D15-DOUT)*%
X151339617Y-92131466D03*
%TO.P,D15,4,GND*%
%TO.N,GND*%
X150389617Y-92131466D03*
%TD*%
%TO.P,D8,1,DIN*%
%TO.N,Net-(D7-DOUT)*%
X101460621Y-85721700D03*
%TO.P,D8,2,VDD*%
%TO.N,+6V*%
X102410621Y-85721700D03*
%TO.P,D8,3,DOUT*%
%TO.N,Net-(D8-DOUT)*%
X102410621Y-84771700D03*
%TO.P,D8,4,GND*%
%TO.N,GND*%
X101460621Y-84771700D03*
%TD*%
D16*
%TO.P,U1,1,PA4*%
%TO.N,Net-(U1-PA4)*%
X161572910Y-122922699D03*
%TO.P,U1,2,PA3*%
%TO.N,unconnected-(U1-PA3-Pad2)*%
X161572910Y-123422699D03*
%TO.P,U1,3,PA2*%
%TO.N,unconnected-(U1-PA2-Pad3)*%
X161572910Y-123922699D03*
%TO.P,U1,4,PA1*%
%TO.N,Net-(S1-NO_1)*%
X161572910Y-124422699D03*
%TO.P,U1,5,AREF/PA0*%
%TO.N,Net-(U1-AREF{slash}PA0)*%
X161572910Y-124922699D03*
D17*
%TO.P,U1,6,NC*%
%TO.N,unconnected-(U1-NC-Pad6)*%
X162510410Y-125860199D03*
%TO.P,U1,7,NC*%
%TO.N,unconnected-(U1-NC-Pad7)*%
X163010410Y-125860199D03*
%TO.P,U1,8,GND*%
%TO.N,GND*%
X163510410Y-125860199D03*
%TO.P,U1,9,VCC*%
%TO.N,+6V*%
X164010410Y-125860199D03*
%TO.P,U1,10,NC*%
%TO.N,unconnected-(U1-NC-Pad10)*%
X164510410Y-125860199D03*
D16*
%TO.P,U1,11,XTAL1/PB0*%
%TO.N,unconnected-(U1-XTAL1{slash}PB0-Pad11)*%
X165447910Y-124922699D03*
%TO.P,U1,12,XTAL2/PB1*%
%TO.N,unconnected-(U1-XTAL2{slash}PB1-Pad12)*%
X165447910Y-124422699D03*
%TO.P,U1,13,~{RESET}/PB3*%
%TO.N,Net-(U1-~{RESET}{slash}PB3)*%
X165447910Y-123922699D03*
%TO.P,U1,14,PB2*%
%TO.N,unconnected-(U1-PB2-Pad14)*%
X165447910Y-123422699D03*
%TO.P,U1,15,PA7*%
%TO.N,unconnected-(U1-PA7-Pad15)*%
X165447910Y-122922699D03*
D17*
%TO.P,U1,16,PA6*%
%TO.N,Net-(U1-PA6)*%
X164510410Y-121985199D03*
%TO.P,U1,17,NC*%
%TO.N,unconnected-(U1-NC-Pad17)*%
X164010410Y-121985199D03*
%TO.P,U1,18,NC*%
%TO.N,unconnected-(U1-NC-Pad18)*%
X163510410Y-121985199D03*
%TO.P,U1,19,NC*%
%TO.N,unconnected-(U1-NC-Pad19)*%
X163010410Y-121985199D03*
%TO.P,U1,20,PA5*%
%TO.N,Net-(U1-PA5)*%
X162510410Y-121985199D03*
D18*
%TO.P,U1,21,GND*%
%TO.N,GND*%
X162510410Y-122922699D03*
X162510410Y-124922699D03*
D19*
X163510410Y-123922699D03*
D18*
X164510410Y-122922699D03*
X164510410Y-124922699D03*
%TD*%
D10*
%TO.P,D3,1,DIN*%
%TO.N,Net-(D2-DOUT)*%
X133595128Y-81352600D03*
%TO.P,D3,2,VDD*%
%TO.N,+6V*%
X134545128Y-81352600D03*
%TO.P,D3,3,DOUT*%
%TO.N,Net-(D3-DOUT)*%
X134545128Y-80402600D03*
%TO.P,D3,4,GND*%
%TO.N,GND*%
X133595128Y-80402600D03*
%TD*%
%TO.P,D5,1,DIN*%
%TO.N,Net-(D4-DOUT)*%
X94018551Y-76135598D03*
%TO.P,D5,2,VDD*%
%TO.N,+6V*%
X94968551Y-76135598D03*
%TO.P,D5,3,DOUT*%
%TO.N,Net-(D5-DOUT)*%
X94968551Y-75185598D03*
%TO.P,D5,4,GND*%
%TO.N,GND*%
X94018551Y-75185598D03*
%TD*%
%TO.P,D10,1,DIN*%
%TO.N,Net-(D10-DIN)*%
X125554939Y-101446800D03*
%TO.P,D10,2,VDD*%
%TO.N,+6V*%
X126504939Y-101446800D03*
%TO.P,D10,3,DOUT*%
%TO.N,Net-(D10-DOUT)*%
X126504939Y-100496800D03*
%TO.P,D10,4,GND*%
%TO.N,GND*%
X125554939Y-100496800D03*
%TD*%
%TO.P,D1,1,DIN*%
%TO.N,Net-(D1-DIN)*%
X165018092Y-76186875D03*
%TO.P,D1,2,VDD*%
%TO.N,+6V*%
X165968092Y-76186875D03*
%TO.P,D1,3,DOUT*%
%TO.N,Net-(D1-DOUT)*%
X165968092Y-75236875D03*
%TO.P,D1,4,GND*%
%TO.N,GND*%
X165018092Y-75236875D03*
%TD*%
D20*
%TO.P,S1,A1,COM_1*%
%TO.N,GND*%
X77499405Y-117249277D03*
%TO.P,S1,B1,COM_2*%
X83499405Y-117249277D03*
%TO.P,S1,C1,NO_1*%
%TO.N,Net-(S1-NO_1)*%
X77499405Y-120999277D03*
%TO.P,S1,D1,NO_2*%
X83499405Y-120999277D03*
%TD*%
D10*
%TO.P,D7,1,DIN*%
%TO.N,Net-(D6-DOUT)*%
X84977863Y-92253432D03*
%TO.P,D7,2,VDD*%
%TO.N,+6V*%
X85927863Y-92253432D03*
%TO.P,D7,3,DOUT*%
%TO.N,Net-(D7-DOUT)*%
X85927863Y-91303432D03*
%TO.P,D7,4,GND*%
%TO.N,GND*%
X84977863Y-91303432D03*
%TD*%
%TO.P,D13,1,DIN*%
%TO.N,Net-(D12-DOUT)*%
X146580928Y-94068768D03*
%TO.P,D13,2,VDD*%
%TO.N,+6V*%
X147530928Y-94068768D03*
%TO.P,D13,3,DOUT*%
%TO.N,Net-(D13-DOUT)*%
X147530928Y-93118768D03*
%TO.P,D13,4,GND*%
%TO.N,GND*%
X146580928Y-93118768D03*
%TD*%
%TO.P,D4,1,DIN*%
%TO.N,Net-(D3-DOUT)*%
X117066637Y-78532412D03*
%TO.P,D4,2,VDD*%
%TO.N,+6V*%
X118016637Y-78532412D03*
%TO.P,D4,3,DOUT*%
%TO.N,Net-(D4-DOUT)*%
X118016637Y-77582412D03*
%TO.P,D4,4,GND*%
%TO.N,GND*%
X117066637Y-77582412D03*
%TD*%
%TO.P,D6,1,DIN*%
%TO.N,Net-(D5-DOUT)*%
X78673571Y-77735787D03*
%TO.P,D6,2,VDD*%
%TO.N,+6V*%
X79623571Y-77735787D03*
%TO.P,D6,3,DOUT*%
%TO.N,Net-(D6-DOUT)*%
X79623571Y-76785787D03*
%TO.P,D6,4,GND*%
%TO.N,GND*%
X78673571Y-76785787D03*
%TD*%
%TO.P,D16,1,DIN*%
%TO.N,Net-(D15-DOUT)*%
X152500158Y-99108820D03*
%TO.P,D16,2,VDD*%
%TO.N,+6V*%
X153450158Y-99108820D03*
%TO.P,D16,3,DOUT*%
%TO.N,unconnected-(D16-DOUT-Pad3)*%
X153450158Y-98158820D03*
%TO.P,D16,4,GND*%
%TO.N,GND*%
X152500158Y-98158820D03*
%TD*%
%TO.P,D11,1,DIN*%
%TO.N,Net-(D10-DOUT)*%
X135004275Y-101485766D03*
%TO.P,D11,2,VDD*%
%TO.N,+6V*%
X135954275Y-101485766D03*
%TO.P,D11,3,DOUT*%
%TO.N,Net-(D11-DOUT)*%
X135954275Y-100535766D03*
%TO.P,D11,4,GND*%
%TO.N,GND*%
X135004275Y-100535766D03*
%TD*%
D21*
%TO.N,GND*%
X84978455Y-89996121D03*
X113662829Y-91515766D03*
X77948335Y-76818736D03*
X82907011Y-126515432D03*
X85318686Y-117297336D03*
X148503053Y-84947808D03*
X152770079Y-96933257D03*
X132053110Y-80371702D03*
X145352150Y-93164194D03*
X134963616Y-99594783D03*
X165776691Y-133929622D03*
X92671121Y-76327900D03*
X147824793Y-75881451D03*
X143403227Y-99302873D03*
X163536387Y-128637625D03*
X163227298Y-76310729D03*
X125528080Y-99113991D03*
X99900167Y-84767511D03*
X151221584Y-91046592D03*
X115749121Y-78637418D03*
%TO.N,+6V*%
X167350514Y-74379704D03*
X128036054Y-101221300D03*
X144674382Y-102365773D03*
X164012858Y-126752856D03*
X81108509Y-75084343D03*
X149488244Y-88229639D03*
X146884223Y-95377123D03*
X120036420Y-77360628D03*
X87298702Y-92234806D03*
X154506508Y-99129015D03*
X148255428Y-91719722D03*
X150909156Y-94175144D03*
X97184287Y-75006410D03*
X135996029Y-102365773D03*
X135077424Y-78471169D03*
X115639653Y-93943333D03*
X151132381Y-74379704D03*
X103690078Y-86366682D03*
X165069063Y-128702569D03*
%TO.N,Net-(U1-PA4)*%
X159384469Y-122891353D03*
%TO.N,Net-(U1-~{RESET}{slash}PB3)*%
X166907251Y-123864346D03*
%TO.N,Net-(U1-PA6)*%
X164582306Y-120535681D03*
%TO.N,Net-(U2-IN)*%
X162016700Y-128663602D03*
%TO.N,Net-(J1-COM)*%
X82883291Y-129357416D03*
%TO.N,Net-(U1-PA5)*%
X162536251Y-120610560D03*
%TD*%
D22*
%TO.N,Net-(D1-DOUT)*%
X149178278Y-76138845D02*
X149178278Y-75573155D01*
X152082905Y-74636875D02*
X150546625Y-76173155D01*
X165968092Y-75052367D02*
X165552600Y-74636875D01*
X165968092Y-75236875D02*
X165968092Y-75052367D01*
X149212588Y-76173155D02*
X149178278Y-76138845D01*
X165552600Y-74636875D02*
X152082905Y-74636875D01*
X150546625Y-76173155D02*
X149212588Y-76173155D01*
%TO.N,GND*%
X133595128Y-80402600D02*
X132084008Y-80402600D01*
X83499405Y-117249277D02*
X85270627Y-117249277D01*
X149083089Y-74623155D02*
X147824793Y-75881451D01*
X152500158Y-97203178D02*
X152770079Y-96933257D01*
X113655595Y-93005523D02*
X113655595Y-91523000D01*
X149178278Y-74623155D02*
X149083089Y-74623155D01*
X99904356Y-84771700D02*
X99900167Y-84767511D01*
X144063947Y-99963593D02*
X143403227Y-99302873D01*
X148545075Y-84989830D02*
X148503053Y-84947808D01*
X93813423Y-75185598D02*
X92671121Y-76327900D01*
X78673571Y-76785787D02*
X77981284Y-76785787D01*
X77981284Y-76785787D02*
X77948335Y-76818736D01*
X81374644Y-127889317D02*
X81533126Y-127889317D01*
X152500158Y-98158820D02*
X152500158Y-97203178D01*
X145397576Y-93118768D02*
X145352150Y-93164194D01*
X132084008Y-80402600D02*
X132053110Y-80371702D01*
X81533126Y-127889317D02*
X82907011Y-126515432D01*
X113655595Y-91523000D02*
X113662829Y-91515766D01*
X135004275Y-99635442D02*
X134963616Y-99594783D01*
X163510410Y-125860199D02*
X163510410Y-123922699D01*
X77499405Y-117249277D02*
X83499405Y-117249277D01*
X84977863Y-89996713D02*
X84978455Y-89996121D01*
X150389617Y-91878559D02*
X151221584Y-91046592D01*
X150389617Y-92131466D02*
X150389617Y-91878559D01*
X164301152Y-75236875D02*
X163227298Y-76310729D01*
X84977863Y-91303432D02*
X84977863Y-89996713D01*
X163554247Y-131707178D02*
X163554247Y-130191985D01*
X135004275Y-100535766D02*
X135004275Y-99635442D01*
X94018551Y-75185598D02*
X93813423Y-75185598D01*
X165776691Y-133929622D02*
X163554247Y-131707178D01*
X144063947Y-100314957D02*
X144063947Y-99963593D01*
X165018092Y-75236875D02*
X164301152Y-75236875D01*
X146580928Y-93118768D02*
X145397576Y-93118768D01*
X85270627Y-117249277D02*
X85318686Y-117297336D01*
X101460621Y-84771700D02*
X99904356Y-84771700D01*
X163554247Y-128655485D02*
X163536387Y-128637625D01*
X125554939Y-99140850D02*
X125528080Y-99113991D01*
X125554939Y-100496800D02*
X125554939Y-99140850D01*
X163554247Y-130191985D02*
X163554247Y-128655485D01*
X148545075Y-86144201D02*
X148545075Y-84989830D01*
X117066637Y-77582412D02*
X116804127Y-77582412D01*
X116804127Y-77582412D02*
X115749121Y-78637418D01*
%TO.N,Net-(D2-DOUT)*%
X150378278Y-74623155D02*
X150128278Y-74623155D01*
X149684790Y-73929667D02*
X143412343Y-73929667D01*
X150128278Y-74623155D02*
X150128278Y-74373155D01*
X133879079Y-82161551D02*
X133595128Y-81877600D01*
X143412343Y-73929667D02*
X135180459Y-82161551D01*
X133595128Y-81877600D02*
X133595128Y-81352600D01*
X150128278Y-74373155D02*
X149684790Y-73929667D01*
X135180459Y-82161551D02*
X133879079Y-82161551D01*
%TO.N,Net-(D3-DOUT)*%
X133799940Y-79132412D02*
X117141637Y-79132412D01*
X117141637Y-79132412D02*
X117066637Y-79057412D01*
X134545128Y-79877600D02*
X133799940Y-79132412D01*
X117066637Y-79057412D02*
X117066637Y-78532412D01*
X134545128Y-80402600D02*
X134545128Y-79877600D01*
%TO.N,Net-(D4-DOUT)*%
X118016637Y-77057412D02*
X117694823Y-76735598D01*
X117694823Y-76735598D02*
X94153445Y-76735598D01*
X118016637Y-77582412D02*
X118016637Y-77057412D01*
X94153445Y-76735598D02*
X94018551Y-76600704D01*
X94018551Y-76600704D02*
X94018551Y-76135598D01*
X118266637Y-77582412D02*
X118016637Y-77582412D01*
%TO.N,Net-(D5-DOUT)*%
X94968551Y-74660598D02*
X94817145Y-74509192D01*
X94817145Y-74509192D02*
X84050166Y-74509192D01*
X80212418Y-78346940D02*
X78759724Y-78346940D01*
X78759724Y-78346940D02*
X78673571Y-78260787D01*
X84050166Y-74509192D02*
X80212418Y-78346940D01*
X78673571Y-78260787D02*
X78673571Y-77735787D01*
X94968551Y-75185598D02*
X94968551Y-74660598D01*
%TO.N,Net-(D6-DOUT)*%
X77174176Y-76568296D02*
X77174176Y-84699745D01*
X84727863Y-92253432D02*
X84977863Y-92253432D01*
X79098280Y-75735496D02*
X78006976Y-75735496D01*
X79623571Y-76785787D02*
X79623571Y-76260787D01*
X77174176Y-84699745D02*
X84727863Y-92253432D01*
X78006976Y-75735496D02*
X77174176Y-76568296D01*
X79623571Y-76260787D02*
X79098280Y-75735496D01*
%TO.N,Net-(D7-DOUT)*%
X95878889Y-91303432D02*
X101460621Y-85721700D01*
X85927863Y-91303432D02*
X95878889Y-91303432D01*
%TO.N,Net-(D8-DOUT)*%
X102410621Y-84771700D02*
X104221772Y-84771700D01*
X104221772Y-84771700D02*
X113405595Y-93955523D01*
X113405595Y-93955523D02*
X113655595Y-93955523D01*
%TO.N,Net-(D10-DIN)*%
X114605595Y-93005523D02*
X116863662Y-93005523D01*
X125304939Y-101446800D02*
X125554939Y-101446800D01*
X116863662Y-93005523D02*
X125304939Y-101446800D01*
%TO.N,Net-(D10-DOUT)*%
X126504939Y-100496800D02*
X133765309Y-100496800D01*
X134754275Y-101485766D02*
X135004275Y-101485766D01*
X133765309Y-100496800D02*
X134754275Y-101485766D01*
%TO.N,Net-(D11-DOUT)*%
X143084756Y-100535766D02*
X143813947Y-101264957D01*
X135954275Y-100535766D02*
X143084756Y-100535766D01*
X143813947Y-101264957D02*
X144063947Y-101264957D01*
%TO.N,Net-(D12-DOUT)*%
X145013947Y-100314957D02*
X145013947Y-95635749D01*
X145013947Y-95635749D02*
X146580928Y-94068768D01*
%TO.N,Net-(D13-DOUT)*%
X147530928Y-88108348D02*
X148545075Y-87094201D01*
X147530928Y-93118768D02*
X147530928Y-88108348D01*
%TO.N,Net-(D14-DOUT)*%
X150020075Y-86144201D02*
X150523524Y-86647650D01*
X149495075Y-86144201D02*
X150020075Y-86144201D01*
X149864617Y-93081466D02*
X150389617Y-93081466D01*
X150523524Y-90797559D02*
X149789617Y-91531466D01*
X149789617Y-93006466D02*
X149864617Y-93081466D01*
X150523524Y-86647650D02*
X150523524Y-90797559D01*
X149789617Y-91531466D02*
X149789617Y-93006466D01*
%TO.N,Net-(D15-DOUT)*%
X151339617Y-92131466D02*
X151589617Y-92131466D01*
X151900158Y-97558820D02*
X151900158Y-98847921D01*
X151940142Y-97518836D02*
X151900158Y-97558820D01*
X152161057Y-99108820D02*
X152500158Y-99108820D01*
X151900158Y-98847921D02*
X152161057Y-99108820D01*
X151589617Y-92131466D02*
X151940142Y-92481991D01*
X151940142Y-92481991D02*
X151940142Y-97518836D01*
%TO.N,+6V*%
X145013947Y-101264957D02*
X145013947Y-102026208D01*
X103045096Y-85721700D02*
X103690078Y-86366682D01*
X145013947Y-102026208D02*
X144674382Y-102365773D01*
X81108509Y-76775849D02*
X81108509Y-75084343D01*
X114605595Y-93955523D02*
X115627463Y-93955523D01*
X79623571Y-77735787D02*
X80148571Y-77735787D01*
X165054247Y-128717385D02*
X165069063Y-128702569D01*
X164010410Y-125860199D02*
X164010410Y-126750408D01*
X151339617Y-93744683D02*
X150909156Y-94175144D01*
X147530928Y-94068768D02*
X147530928Y-94730418D01*
X126504939Y-101446800D02*
X127810554Y-101446800D01*
X164010410Y-126750408D02*
X164012858Y-126752856D01*
X85927863Y-92253432D02*
X87280076Y-92253432D01*
X127810554Y-101446800D02*
X128036054Y-101221300D01*
X153450158Y-99108820D02*
X154486313Y-99108820D01*
X149495075Y-87094201D02*
X149495075Y-88222808D01*
X118016637Y-78532412D02*
X118864636Y-78532412D01*
X87280076Y-92253432D02*
X87298702Y-92234806D01*
X96055099Y-76135598D02*
X97184287Y-75006410D01*
X147780928Y-94068768D02*
X147530928Y-94068768D01*
X154486313Y-99108820D02*
X154506508Y-99129015D01*
X135249085Y-80898643D02*
X135249085Y-78642830D01*
X102410621Y-85721700D02*
X103045096Y-85721700D01*
X80148571Y-77735787D02*
X81108509Y-76775849D01*
X150378278Y-75573155D02*
X151132381Y-74819052D01*
X135954275Y-102324019D02*
X135996029Y-102365773D01*
X166493092Y-76186875D02*
X167350514Y-75329453D01*
X151132381Y-74819052D02*
X151132381Y-74379704D01*
X165054247Y-130104485D02*
X165054247Y-128717385D01*
X150128278Y-75573155D02*
X150378278Y-75573155D01*
X135249085Y-78642830D02*
X135077424Y-78471169D01*
X149495075Y-88222808D02*
X149488244Y-88229639D01*
X148255428Y-91719722D02*
X148255428Y-93594268D01*
X94968551Y-76135598D02*
X96055099Y-76135598D01*
X135954275Y-101485766D02*
X135954275Y-102324019D01*
X134545128Y-81352600D02*
X134795128Y-81352600D01*
X134795128Y-81352600D02*
X135249085Y-80898643D01*
X151339617Y-93081466D02*
X151339617Y-93744683D01*
X167350514Y-75329453D02*
X167350514Y-74379704D01*
X118864636Y-78532412D02*
X120036420Y-77360628D01*
X148255428Y-93594268D02*
X147780928Y-94068768D01*
X165968092Y-76186875D02*
X166493092Y-76186875D01*
X147530928Y-94730418D02*
X146884223Y-95377123D01*
X115627463Y-93955523D02*
X115639653Y-93943333D01*
%TO.N,Net-(U1-PA4)*%
X161541564Y-122891353D02*
X161572910Y-122922699D01*
X159384469Y-122891353D02*
X161541564Y-122891353D01*
%TO.N,Net-(U1-~{RESET}{slash}PB3)*%
X166848898Y-123922699D02*
X165447910Y-123922699D01*
X166907251Y-123864346D02*
X166848898Y-123922699D01*
%TO.N,Net-(U1-PA6)*%
X164582306Y-121913303D02*
X164510410Y-121985199D01*
X164582306Y-120535681D02*
X164582306Y-121913303D01*
%TO.N,Net-(D1-DIN)*%
X162619654Y-117873176D02*
X162619654Y-84454609D01*
X162619654Y-84454609D02*
X165018092Y-82056171D01*
X165018092Y-82056171D02*
X165018092Y-76186875D01*
%TO.N,Net-(U2-IN)*%
X162054247Y-130104485D02*
X162054247Y-128701149D01*
X162054247Y-128701149D02*
X162016700Y-128663602D01*
%TO.N,Net-(J1-COM)*%
X82843985Y-129357416D02*
X81357246Y-130844155D01*
X82851390Y-129389317D02*
X82883291Y-129357416D01*
X82883291Y-129357416D02*
X82843985Y-129357416D01*
%TO.N,Net-(U1-AREF{slash}PA0)*%
X166599977Y-127574844D02*
X162810501Y-127574844D01*
X161572910Y-126337253D02*
X161572910Y-124922699D01*
X162810501Y-127574844D02*
X161572910Y-126337253D01*
X164269654Y-117873176D02*
X167827417Y-121430939D01*
X167827417Y-126347404D02*
X166599977Y-127574844D01*
X167827417Y-121430939D02*
X167827417Y-126347404D01*
%TO.N,Net-(S1-NO_1)*%
X77499405Y-120999277D02*
X83499405Y-120999277D01*
X88096206Y-126838130D02*
X83499405Y-122241329D01*
X83499405Y-122241329D02*
X83499405Y-120999277D01*
X161012402Y-124422699D02*
X158596971Y-126838130D01*
X161572910Y-124422699D02*
X161012402Y-124422699D01*
X158596971Y-126838130D02*
X88096206Y-126838130D01*
%TO.N,Net-(U1-PA5)*%
X162510410Y-120636401D02*
X162536251Y-120610560D01*
X162510410Y-121985199D02*
X162510410Y-120636401D01*
%TD*%
M02*
