M48
; DRILL file {KiCad 7.0.6} date Sun Nov  5 20:30:37 2023
; FORMAT={-:-/ absolute / inch / decimal}
; #@! TF.CreationDate,2023-11-05T20:30:37+01:00
; #@! TF.GenerationSoftware,Kicad,Pcbnew,7.0.6
; #@! TF.FileFunction,Plated,1,2,PTH
FMAT,2
INCH
; #@! TA.AperFunction,Plated,PTH,ComponentDrill
T1C0.0079
; #@! TA.AperFunction,Plated,PTH,ViaDrill
T2C0.0157
%
G90
G05
T1
X6.398Y-4.8395
X6.398Y-4.9182
X6.4768Y-4.8395
X6.4768Y-4.9182
T2
X3.0767Y-3.1316
X3.1573Y-2.9561
X3.2608Y-3.6386
X3.2631Y-5.0928
X3.2662Y-5.214
X3.359Y-4.618
X3.461Y-3.5857
X3.6827Y-3.0626
X3.8262Y-2.953
X3.8936Y-3.3602
X4.1077Y-3.3749
X4.4026Y-3.7059
X4.5885Y-3.654
X4.5893Y-3.1646
X4.7258Y-3.0457
X4.8524Y-3.9984
X5.0664Y-3.9485
X5.2398Y-4.0022
X5.2405Y-3.2704
X5.318Y-3.0894
X5.4231Y-3.9524
X5.5872Y-3.993
X5.7472Y-3.7518
X5.7828Y-3.9431
X5.8118Y-3.49
X5.8319Y-3.611
X5.8526Y-3.0518
X5.9025Y-3.7253
X5.9807Y-3.5757
X5.9823Y-3.9639
X5.9892Y-2.9283
X6.0889Y-3.8372
X6.275Y-4.8382
X6.3786Y-5.0655
X6.3991Y-4.7484
X6.4384Y-5.0645
X6.4572Y-4.9903
X6.474Y-3.0641
X6.4796Y-4.7455
X6.4988Y-5.067
X6.5266Y-5.2728
X6.5712Y-4.8765
X6.6205Y-2.9552
T0
M30
