%TF.GenerationSoftware,KiCad,Pcbnew,7.0.6*%
%TF.CreationDate,2023-11-05T20:30:34+01:00*%
%TF.ProjectId,Julkort,4a756c6b-6f72-4742-9e6b-696361645f70,rev?*%
%TF.SameCoordinates,Original*%
%TF.FileFunction,Paste,Top*%
%TF.FilePolarity,Positive*%
%FSLAX46Y46*%
G04 Gerber Fmt 4.6, Leading zero omitted, Abs format (unit mm)*
G04 Created by KiCad (PCBNEW 7.0.6) date 2023-11-05 20:30:34*
%MOMM*%
%LPD*%
G01*
G04 APERTURE LIST*
G04 Aperture macros list*
%AMRoundRect*
0 Rectangle with rounded corners*
0 $1 Rounding radius*
0 $2 $3 $4 $5 $6 $7 $8 $9 X,Y pos of 4 corners*
0 Add a 4 corners polygon primitive as box body*
4,1,4,$2,$3,$4,$5,$6,$7,$8,$9,$2,$3,0*
0 Add four circle primitives for the rounded corners*
1,1,$1+$1,$2,$3*
1,1,$1+$1,$4,$5*
1,1,$1+$1,$6,$7*
1,1,$1+$1,$8,$9*
0 Add four rect primitives between the rounded corners*
20,1,$1+$1,$2,$3,$4,$5,0*
20,1,$1+$1,$4,$5,$6,$7,0*
20,1,$1+$1,$6,$7,$8,$9,0*
20,1,$1+$1,$8,$9,$2,$3,0*%
%AMFreePoly0*
4,1,9,3.862500,-0.866500,0.737500,-0.866500,0.737500,-0.450000,-0.737500,-0.450000,-0.737500,0.450000,0.737500,0.450000,0.737500,0.866500,3.862500,0.866500,3.862500,-0.866500,3.862500,-0.866500,$1*%
G04 Aperture macros list end*
%ADD10R,1.000000X0.600000*%
%ADD11RoundRect,0.200000X0.200000X0.275000X-0.200000X0.275000X-0.200000X-0.275000X0.200000X-0.275000X0*%
%ADD12R,0.900000X1.300000*%
%ADD13FreePoly0,270.000000*%
%ADD14R,1.200000X0.900000*%
%ADD15R,0.900000X0.800000*%
%ADD16RoundRect,0.249999X-0.290001X-0.290001X0.290001X-0.290001X0.290001X0.290001X-0.290001X0.290001X0*%
%ADD17RoundRect,0.062500X-0.350000X-0.062500X0.350000X-0.062500X0.350000X0.062500X-0.350000X0.062500X0*%
%ADD18RoundRect,0.062500X-0.062500X-0.350000X0.062500X-0.350000X0.062500X0.350000X-0.062500X0.350000X0*%
%ADD19R,1.000000X0.750000*%
G04 APERTURE END LIST*
D10*
%TO.C,D14*%
X148020075Y-85969201D03*
X148020075Y-87269201D03*
X150020075Y-87269201D03*
X150020075Y-85969201D03*
%TD*%
%TO.C,D12*%
X143538947Y-100139957D03*
X143538947Y-101439957D03*
X145538947Y-101439957D03*
X145538947Y-100139957D03*
%TD*%
D11*
%TO.C,R1*%
X164269654Y-117873176D03*
X162619654Y-117873176D03*
%TD*%
D12*
%TO.C,U2*%
X165054247Y-130104485D03*
D13*
X163554247Y-130191985D03*
D12*
X162054247Y-130104485D03*
%TD*%
D14*
%TO.C,J1*%
X81374644Y-132389317D03*
X81374644Y-129389317D03*
X81374644Y-127889317D03*
D15*
X80324644Y-126339317D03*
X80324644Y-133939317D03*
X78124644Y-133939317D03*
X78124644Y-126339317D03*
%TD*%
D10*
%TO.C,D9*%
X113130595Y-92830523D03*
X113130595Y-94130523D03*
X115130595Y-94130523D03*
X115130595Y-92830523D03*
%TD*%
%TO.C,D2*%
X148653278Y-74448155D03*
X148653278Y-75748155D03*
X150653278Y-75748155D03*
X150653278Y-74448155D03*
%TD*%
%TO.C,D15*%
X149864617Y-91956466D03*
X149864617Y-93256466D03*
X151864617Y-93256466D03*
X151864617Y-91956466D03*
%TD*%
%TO.C,D8*%
X100935621Y-84596700D03*
X100935621Y-85896700D03*
X102935621Y-85896700D03*
X102935621Y-84596700D03*
%TD*%
D16*
%TO.C,U1*%
X162885410Y-123297699D03*
X162885410Y-124547699D03*
X164135410Y-123297699D03*
X164135410Y-124547699D03*
D17*
X161572910Y-122922699D03*
X161572910Y-123422699D03*
X161572910Y-123922699D03*
X161572910Y-124422699D03*
X161572910Y-124922699D03*
D18*
X162510410Y-125860199D03*
X163010410Y-125860199D03*
X163510410Y-125860199D03*
X164010410Y-125860199D03*
X164510410Y-125860199D03*
D17*
X165447910Y-124922699D03*
X165447910Y-124422699D03*
X165447910Y-123922699D03*
X165447910Y-123422699D03*
X165447910Y-122922699D03*
D18*
X164510410Y-121985199D03*
X164010410Y-121985199D03*
X163510410Y-121985199D03*
X163010410Y-121985199D03*
X162510410Y-121985199D03*
%TD*%
D10*
%TO.C,D3*%
X133070128Y-80227600D03*
X133070128Y-81527600D03*
X135070128Y-81527600D03*
X135070128Y-80227600D03*
%TD*%
%TO.C,D5*%
X93493551Y-75010598D03*
X93493551Y-76310598D03*
X95493551Y-76310598D03*
X95493551Y-75010598D03*
%TD*%
%TO.C,D10*%
X125029939Y-100321800D03*
X125029939Y-101621800D03*
X127029939Y-101621800D03*
X127029939Y-100321800D03*
%TD*%
%TO.C,D1*%
X164493092Y-75061875D03*
X164493092Y-76361875D03*
X166493092Y-76361875D03*
X166493092Y-75061875D03*
%TD*%
D19*
%TO.C,S1*%
X77499405Y-117249277D03*
X83499405Y-117249277D03*
X77499405Y-120999277D03*
X83499405Y-120999277D03*
%TD*%
D10*
%TO.C,D7*%
X84452863Y-91128432D03*
X84452863Y-92428432D03*
X86452863Y-92428432D03*
X86452863Y-91128432D03*
%TD*%
%TO.C,D13*%
X146055928Y-92943768D03*
X146055928Y-94243768D03*
X148055928Y-94243768D03*
X148055928Y-92943768D03*
%TD*%
%TO.C,D4*%
X116541637Y-77407412D03*
X116541637Y-78707412D03*
X118541637Y-78707412D03*
X118541637Y-77407412D03*
%TD*%
%TO.C,D6*%
X78148571Y-76610787D03*
X78148571Y-77910787D03*
X80148571Y-77910787D03*
X80148571Y-76610787D03*
%TD*%
%TO.C,D16*%
X151975158Y-97983820D03*
X151975158Y-99283820D03*
X153975158Y-99283820D03*
X153975158Y-97983820D03*
%TD*%
%TO.C,D11*%
X134479275Y-100360766D03*
X134479275Y-101660766D03*
X136479275Y-101660766D03*
X136479275Y-100360766D03*
%TD*%
M02*
