%TF.GenerationSoftware,KiCad,Pcbnew,7.0.6*%
%TF.CreationDate,2023-11-05T20:30:34+01:00*%
%TF.ProjectId,Julkort,4a756c6b-6f72-4742-9e6b-696361645f70,rev?*%
%TF.SameCoordinates,Original*%
%TF.FileFunction,Legend,Bot*%
%TF.FilePolarity,Positive*%
%FSLAX46Y46*%
G04 Gerber Fmt 4.6, Leading zero omitted, Abs format (unit mm)*
G04 Created by KiCad (PCBNEW 7.0.6) date 2023-11-05 20:30:34*
%MOMM*%
%LPD*%
G01*
G04 APERTURE LIST*
%ADD10C,0.254000*%
%ADD11C,0.150000*%
%ADD12C,0.100000*%
%ADD13C,0.200000*%
%ADD14C,0.120000*%
G04 APERTURE END LIST*
D10*
X138938546Y-115275245D02*
X137668546Y-115275245D01*
X138273308Y-115275245D02*
X138273308Y-116000960D01*
X138938546Y-116000960D02*
X137668546Y-116000960D01*
X137789498Y-116545245D02*
X137729022Y-116605721D01*
X137729022Y-116605721D02*
X137668546Y-116726674D01*
X137668546Y-116726674D02*
X137668546Y-117029055D01*
X137668546Y-117029055D02*
X137729022Y-117150007D01*
X137729022Y-117150007D02*
X137789498Y-117210483D01*
X137789498Y-117210483D02*
X137910450Y-117270960D01*
X137910450Y-117270960D02*
X138031403Y-117270960D01*
X138031403Y-117270960D02*
X138212831Y-117210483D01*
X138212831Y-117210483D02*
X138938546Y-116484769D01*
X138938546Y-116484769D02*
X138938546Y-117270960D01*
X104263084Y-115474196D02*
X102993084Y-115474196D01*
X103597846Y-115474196D02*
X103597846Y-116199911D01*
X104263084Y-116199911D02*
X102993084Y-116199911D01*
X104263084Y-117469911D02*
X104263084Y-116744196D01*
X104263084Y-117107053D02*
X102993084Y-117107053D01*
X102993084Y-117107053D02*
X103174512Y-116986101D01*
X103174512Y-116986101D02*
X103295465Y-116865149D01*
X103295465Y-116865149D02*
X103355941Y-116744196D01*
D11*
X163403502Y-112956181D02*
X162832074Y-112956181D01*
X163117788Y-113956181D02*
X163117788Y-112956181D01*
X162498740Y-113956181D02*
X162498740Y-112956181D01*
X162498740Y-112956181D02*
X162117788Y-112956181D01*
X162117788Y-112956181D02*
X162022550Y-113003800D01*
X162022550Y-113003800D02*
X161974931Y-113051419D01*
X161974931Y-113051419D02*
X161927312Y-113146657D01*
X161927312Y-113146657D02*
X161927312Y-113289514D01*
X161927312Y-113289514D02*
X161974931Y-113384752D01*
X161974931Y-113384752D02*
X162022550Y-113432371D01*
X162022550Y-113432371D02*
X162117788Y-113479990D01*
X162117788Y-113479990D02*
X162498740Y-113479990D01*
X161546359Y-113051419D02*
X161498740Y-113003800D01*
X161498740Y-113003800D02*
X161403502Y-112956181D01*
X161403502Y-112956181D02*
X161165407Y-112956181D01*
X161165407Y-112956181D02*
X161070169Y-113003800D01*
X161070169Y-113003800D02*
X161022550Y-113051419D01*
X161022550Y-113051419D02*
X160974931Y-113146657D01*
X160974931Y-113146657D02*
X160974931Y-113241895D01*
X160974931Y-113241895D02*
X161022550Y-113384752D01*
X161022550Y-113384752D02*
X161593978Y-113956181D01*
X161593978Y-113956181D02*
X160974931Y-113956181D01*
X166430026Y-112925454D02*
X165858598Y-112925454D01*
X166144312Y-113925454D02*
X166144312Y-112925454D01*
X165525264Y-113925454D02*
X165525264Y-112925454D01*
X165525264Y-112925454D02*
X165144312Y-112925454D01*
X165144312Y-112925454D02*
X165049074Y-112973073D01*
X165049074Y-112973073D02*
X165001455Y-113020692D01*
X165001455Y-113020692D02*
X164953836Y-113115930D01*
X164953836Y-113115930D02*
X164953836Y-113258787D01*
X164953836Y-113258787D02*
X165001455Y-113354025D01*
X165001455Y-113354025D02*
X165049074Y-113401644D01*
X165049074Y-113401644D02*
X165144312Y-113449263D01*
X165144312Y-113449263D02*
X165525264Y-113449263D01*
X164620502Y-112925454D02*
X164001455Y-112925454D01*
X164001455Y-112925454D02*
X164334788Y-113306406D01*
X164334788Y-113306406D02*
X164191931Y-113306406D01*
X164191931Y-113306406D02*
X164096693Y-113354025D01*
X164096693Y-113354025D02*
X164049074Y-113401644D01*
X164049074Y-113401644D02*
X164001455Y-113496882D01*
X164001455Y-113496882D02*
X164001455Y-113734977D01*
X164001455Y-113734977D02*
X164049074Y-113830215D01*
X164049074Y-113830215D02*
X164096693Y-113877835D01*
X164096693Y-113877835D02*
X164191931Y-113925454D01*
X164191931Y-113925454D02*
X164477645Y-113925454D01*
X164477645Y-113925454D02*
X164572883Y-113877835D01*
X164572883Y-113877835D02*
X164620502Y-113830215D01*
X160469155Y-112940818D02*
X159897727Y-112940818D01*
X160183441Y-113940818D02*
X160183441Y-112940818D01*
X159564393Y-113940818D02*
X159564393Y-112940818D01*
X159564393Y-112940818D02*
X159183441Y-112940818D01*
X159183441Y-112940818D02*
X159088203Y-112988437D01*
X159088203Y-112988437D02*
X159040584Y-113036056D01*
X159040584Y-113036056D02*
X158992965Y-113131294D01*
X158992965Y-113131294D02*
X158992965Y-113274151D01*
X158992965Y-113274151D02*
X159040584Y-113369389D01*
X159040584Y-113369389D02*
X159088203Y-113417008D01*
X159088203Y-113417008D02*
X159183441Y-113464627D01*
X159183441Y-113464627D02*
X159564393Y-113464627D01*
X158040584Y-113940818D02*
X158612012Y-113940818D01*
X158326298Y-113940818D02*
X158326298Y-112940818D01*
X158326298Y-112940818D02*
X158421536Y-113083675D01*
X158421536Y-113083675D02*
X158516774Y-113178913D01*
X158516774Y-113178913D02*
X158612012Y-113226532D01*
X166698180Y-133375230D02*
X166793418Y-133327611D01*
X166793418Y-133327611D02*
X166936275Y-133327611D01*
X166936275Y-133327611D02*
X167079132Y-133375230D01*
X167079132Y-133375230D02*
X167174370Y-133470468D01*
X167174370Y-133470468D02*
X167221989Y-133565706D01*
X167221989Y-133565706D02*
X167269608Y-133756182D01*
X167269608Y-133756182D02*
X167269608Y-133899039D01*
X167269608Y-133899039D02*
X167221989Y-134089515D01*
X167221989Y-134089515D02*
X167174370Y-134184753D01*
X167174370Y-134184753D02*
X167079132Y-134279992D01*
X167079132Y-134279992D02*
X166936275Y-134327611D01*
X166936275Y-134327611D02*
X166841037Y-134327611D01*
X166841037Y-134327611D02*
X166698180Y-134279992D01*
X166698180Y-134279992D02*
X166650561Y-134232372D01*
X166650561Y-134232372D02*
X166650561Y-133899039D01*
X166650561Y-133899039D02*
X166841037Y-133899039D01*
X166221989Y-134327611D02*
X166221989Y-133327611D01*
X166221989Y-133327611D02*
X165650561Y-134327611D01*
X165650561Y-134327611D02*
X165650561Y-133327611D01*
X165174370Y-134327611D02*
X165174370Y-133327611D01*
X165174370Y-133327611D02*
X164936275Y-133327611D01*
X164936275Y-133327611D02*
X164793418Y-133375230D01*
X164793418Y-133375230D02*
X164698180Y-133470468D01*
X164698180Y-133470468D02*
X164650561Y-133565706D01*
X164650561Y-133565706D02*
X164602942Y-133756182D01*
X164602942Y-133756182D02*
X164602942Y-133899039D01*
X164602942Y-133899039D02*
X164650561Y-134089515D01*
X164650561Y-134089515D02*
X164698180Y-134184753D01*
X164698180Y-134184753D02*
X164793418Y-134279992D01*
X164793418Y-134279992D02*
X164936275Y-134327611D01*
X164936275Y-134327611D02*
X165174370Y-134327611D01*
X167315697Y-130700526D02*
X166982364Y-131700526D01*
X166982364Y-131700526D02*
X166649031Y-130700526D01*
X165744269Y-131605287D02*
X165791888Y-131652907D01*
X165791888Y-131652907D02*
X165934745Y-131700526D01*
X165934745Y-131700526D02*
X166029983Y-131700526D01*
X166029983Y-131700526D02*
X166172840Y-131652907D01*
X166172840Y-131652907D02*
X166268078Y-131557668D01*
X166268078Y-131557668D02*
X166315697Y-131462430D01*
X166315697Y-131462430D02*
X166363316Y-131271954D01*
X166363316Y-131271954D02*
X166363316Y-131129097D01*
X166363316Y-131129097D02*
X166315697Y-130938621D01*
X166315697Y-130938621D02*
X166268078Y-130843383D01*
X166268078Y-130843383D02*
X166172840Y-130748145D01*
X166172840Y-130748145D02*
X166029983Y-130700526D01*
X166029983Y-130700526D02*
X165934745Y-130700526D01*
X165934745Y-130700526D02*
X165791888Y-130748145D01*
X165791888Y-130748145D02*
X165744269Y-130795764D01*
X164744269Y-131605287D02*
X164791888Y-131652907D01*
X164791888Y-131652907D02*
X164934745Y-131700526D01*
X164934745Y-131700526D02*
X165029983Y-131700526D01*
X165029983Y-131700526D02*
X165172840Y-131652907D01*
X165172840Y-131652907D02*
X165268078Y-131557668D01*
X165268078Y-131557668D02*
X165315697Y-131462430D01*
X165315697Y-131462430D02*
X165363316Y-131271954D01*
X165363316Y-131271954D02*
X165363316Y-131129097D01*
X165363316Y-131129097D02*
X165315697Y-130938621D01*
X165315697Y-130938621D02*
X165268078Y-130843383D01*
X165268078Y-130843383D02*
X165172840Y-130748145D01*
X165172840Y-130748145D02*
X165029983Y-130700526D01*
X165029983Y-130700526D02*
X164934745Y-130700526D01*
X164934745Y-130700526D02*
X164791888Y-130748145D01*
X164791888Y-130748145D02*
X164744269Y-130795764D01*
X169195379Y-112894728D02*
X168623951Y-112894728D01*
X168909665Y-113894728D02*
X168909665Y-112894728D01*
X168290617Y-113894728D02*
X168290617Y-112894728D01*
X168290617Y-112894728D02*
X167909665Y-112894728D01*
X167909665Y-112894728D02*
X167814427Y-112942347D01*
X167814427Y-112942347D02*
X167766808Y-112989966D01*
X167766808Y-112989966D02*
X167719189Y-113085204D01*
X167719189Y-113085204D02*
X167719189Y-113228061D01*
X167719189Y-113228061D02*
X167766808Y-113323299D01*
X167766808Y-113323299D02*
X167814427Y-113370918D01*
X167814427Y-113370918D02*
X167909665Y-113418537D01*
X167909665Y-113418537D02*
X168290617Y-113418537D01*
X166862046Y-113228061D02*
X166862046Y-113894728D01*
X167100141Y-112847109D02*
X167338236Y-113561394D01*
X167338236Y-113561394D02*
X166719189Y-113561394D01*
D12*
%TO.C,H2*%
X138364228Y-103942865D02*
X138364228Y-103942865D01*
X138364228Y-104042865D02*
X138364228Y-104042865D01*
D13*
X133364228Y-105692865D02*
X130764228Y-109242865D01*
X135164228Y-105692865D02*
X133364228Y-105692865D01*
X142364228Y-105692865D02*
X141564228Y-105692865D01*
X130764228Y-109242865D02*
X130764228Y-123242865D01*
X145964228Y-110242865D02*
X142364228Y-105692865D01*
X145364228Y-111242865D02*
X145964228Y-110242865D01*
X145364228Y-121242865D02*
X145364228Y-121242865D01*
X145964228Y-122242865D02*
X145364228Y-121242865D01*
X130764228Y-123242865D02*
X133364228Y-126792865D01*
X133364228Y-126792865D02*
X135164228Y-126792865D01*
X141564228Y-126792865D02*
X142364228Y-126792865D01*
X142364228Y-126792865D02*
X145964228Y-122242865D01*
D12*
X138364228Y-103942865D02*
G75*
G03*
X138364228Y-104042865I0J-50000D01*
G01*
X138364228Y-104042865D02*
G75*
G03*
X138364228Y-103942865I0J50000D01*
G01*
D13*
X145361916Y-111246720D02*
G75*
G03*
X145364228Y-121242865I8335811J-4996145D01*
G01*
D12*
%TO.C,H1*%
X103688766Y-128741816D02*
X103688766Y-128741816D01*
X103688766Y-128641816D02*
X103688766Y-128641816D01*
D13*
X108688766Y-126991816D02*
X111288766Y-123441816D01*
X106888766Y-126991816D02*
X108688766Y-126991816D01*
X99688766Y-126991816D02*
X100488766Y-126991816D01*
X111288766Y-123441816D02*
X111288766Y-109441816D01*
X96088766Y-122441816D02*
X99688766Y-126991816D01*
X96688766Y-121441816D02*
X96088766Y-122441816D01*
X96688766Y-111441816D02*
X96688766Y-111441816D01*
X96088766Y-110441816D02*
X96688766Y-111441816D01*
X111288766Y-109441816D02*
X108688766Y-105891816D01*
X108688766Y-105891816D02*
X106888766Y-105891816D01*
X100488766Y-105891816D02*
X99688766Y-105891816D01*
X99688766Y-105891816D02*
X96088766Y-110441816D01*
D12*
X103688766Y-128741816D02*
G75*
G03*
X103688766Y-128641816I0J50000D01*
G01*
X103688766Y-128641816D02*
G75*
G03*
X103688766Y-128741816I0J-50000D01*
G01*
D13*
X96691078Y-121437961D02*
G75*
G03*
X96688766Y-111441816I-8335811J4996145D01*
G01*
D14*
%TO.C,TP2*%
X163063832Y-115229697D02*
G75*
G03*
X163063832Y-115229697I-950000J0D01*
G01*
%TO.C,TP3*%
X165941990Y-115209818D02*
G75*
G03*
X165941990Y-115209818I-950000J0D01*
G01*
%TO.C,TP1*%
X160431769Y-115179092D02*
G75*
G03*
X160431769Y-115179092I-950000J0D01*
G01*
%TO.C,GND*%
X169673366Y-133881067D02*
G75*
G03*
X169673366Y-133881067I-950000J0D01*
G01*
%TO.C,VCC*%
X169693850Y-131234067D02*
G75*
G03*
X169693850Y-131234067I-950000J0D01*
G01*
%TO.C,TP4*%
X168502501Y-115168850D02*
G75*
G03*
X168502501Y-115168850I-950000J0D01*
G01*
%TD*%
M02*
