%TF.GenerationSoftware,KiCad,Pcbnew,7.0.6*%
%TF.CreationDate,2023-11-05T20:30:34+01:00*%
%TF.ProjectId,Julkort,4a756c6b-6f72-4742-9e6b-696361645f70,rev?*%
%TF.SameCoordinates,Original*%
%TF.FileFunction,Legend,Top*%
%TF.FilePolarity,Positive*%
%FSLAX46Y46*%
G04 Gerber Fmt 4.6, Leading zero omitted, Abs format (unit mm)*
G04 Created by KiCad (PCBNEW 7.0.6) date 2023-11-05 20:30:34*
%MOMM*%
%LPD*%
G01*
G04 APERTURE LIST*
%ADD10C,0.150000*%
%ADD11C,0.120000*%
%ADD12C,0.254000*%
%ADD13C,0.100000*%
%ADD14C,0.200000*%
G04 APERTURE END LIST*
D10*
G36*
X95913876Y-133239200D02*
G01*
X95913876Y-132511356D01*
X91943708Y-132511356D01*
X91867566Y-132509487D01*
X91796648Y-132503907D01*
X91730909Y-132494652D01*
X91670309Y-132481760D01*
X91614803Y-132465270D01*
X91564350Y-132445217D01*
X91518905Y-132421640D01*
X91460035Y-132379750D01*
X91412194Y-132330141D01*
X91375236Y-132272942D01*
X91349018Y-132208278D01*
X91333393Y-132136276D01*
X91328790Y-132084262D01*
X91328216Y-132057064D01*
X91328216Y-129498620D01*
X91330513Y-129445017D01*
X91337433Y-129394600D01*
X91356573Y-129325030D01*
X91386355Y-129262840D01*
X91426925Y-129208157D01*
X91478426Y-129161107D01*
X91541004Y-129121818D01*
X91588948Y-129099998D01*
X91641922Y-129081722D01*
X91699970Y-129067026D01*
X91763134Y-129055948D01*
X91831457Y-129048526D01*
X91904982Y-129044797D01*
X91943708Y-129044329D01*
X95913876Y-129044329D01*
X95913876Y-128315264D01*
X91943708Y-128315264D01*
X91840743Y-128316673D01*
X91741786Y-128320867D01*
X91646789Y-128327800D01*
X91555703Y-128337422D01*
X91468481Y-128349687D01*
X91385074Y-128364546D01*
X91305432Y-128381951D01*
X91229508Y-128401855D01*
X91157253Y-128424210D01*
X91088618Y-128448968D01*
X91023556Y-128476081D01*
X90962017Y-128505501D01*
X90903953Y-128537181D01*
X90849315Y-128571072D01*
X90798055Y-128607126D01*
X90750124Y-128645297D01*
X90705474Y-128685535D01*
X90664057Y-128727794D01*
X90625823Y-128772025D01*
X90590725Y-128818180D01*
X90558713Y-128866211D01*
X90529739Y-128916072D01*
X90503756Y-128967713D01*
X90480713Y-129021087D01*
X90460563Y-129076147D01*
X90443257Y-129132843D01*
X90428746Y-129191129D01*
X90416983Y-129250957D01*
X90407918Y-129312278D01*
X90401504Y-129375046D01*
X90397690Y-129439211D01*
X90396430Y-129504726D01*
X90396430Y-132049737D01*
X90397690Y-132115360D01*
X90401504Y-132179619D01*
X90407918Y-132242467D01*
X90416983Y-132303857D01*
X90428746Y-132363741D01*
X90443257Y-132422073D01*
X90460563Y-132478806D01*
X90480713Y-132533891D01*
X90503756Y-132587282D01*
X90529739Y-132638932D01*
X90558713Y-132688794D01*
X90590725Y-132736820D01*
X90625823Y-132782963D01*
X90664057Y-132827177D01*
X90705474Y-132869413D01*
X90750124Y-132909624D01*
X90798055Y-132947764D01*
X90849315Y-132983786D01*
X90903953Y-133017642D01*
X90962017Y-133049284D01*
X91023556Y-133078666D01*
X91088618Y-133105741D01*
X91157253Y-133130461D01*
X91229508Y-133152780D01*
X91305432Y-133172649D01*
X91385074Y-133190022D01*
X91468481Y-133204852D01*
X91555703Y-133217091D01*
X91646789Y-133226693D01*
X91741786Y-133233610D01*
X91840743Y-133237794D01*
X91943708Y-133239200D01*
X95913876Y-133239200D01*
G37*
G36*
X97757909Y-133239200D02*
G01*
X97757909Y-132329395D01*
X96658817Y-132329395D01*
X96658817Y-133239200D01*
X97757909Y-133239200D01*
G37*
G36*
X105443011Y-133239200D02*
G01*
X102187253Y-128315264D01*
X101508258Y-128315264D01*
X98232962Y-133239200D01*
X99268551Y-133239200D01*
X101851420Y-129273917D01*
X104392766Y-133239200D01*
X105443011Y-133239200D01*
G37*
G36*
X106960980Y-133239200D02*
G01*
X106960980Y-132329395D01*
X105861887Y-132329395D01*
X105861887Y-133239200D01*
X106960980Y-133239200D01*
G37*
G36*
X112105955Y-133239200D02*
G01*
X112208921Y-133237794D01*
X112307878Y-133233609D01*
X112402875Y-133226692D01*
X112493960Y-133217089D01*
X112581183Y-133204847D01*
X112664590Y-133190014D01*
X112744232Y-133172636D01*
X112820156Y-133152760D01*
X112892411Y-133130434D01*
X112961045Y-133105704D01*
X113026108Y-133078617D01*
X113087647Y-133049220D01*
X113145711Y-133017560D01*
X113200349Y-132983684D01*
X113251609Y-132947639D01*
X113299540Y-132909472D01*
X113344190Y-132869230D01*
X113385607Y-132826959D01*
X113423841Y-132782708D01*
X113458939Y-132736522D01*
X113490951Y-132688449D01*
X113519924Y-132638536D01*
X113545908Y-132586829D01*
X113568951Y-132533376D01*
X113589101Y-132478223D01*
X113606407Y-132421418D01*
X113620917Y-132363008D01*
X113632681Y-132303039D01*
X113641746Y-132241558D01*
X113648160Y-132178613D01*
X113651974Y-132114249D01*
X113653234Y-132048516D01*
X113653234Y-131436687D01*
X113651974Y-131370950D01*
X113648160Y-131306577D01*
X113641746Y-131243615D01*
X113632681Y-131182112D01*
X113620917Y-131122115D01*
X113606407Y-131063672D01*
X113589101Y-131006830D01*
X113568951Y-130951636D01*
X113545908Y-130898139D01*
X113519924Y-130846384D01*
X113490951Y-130796420D01*
X113458939Y-130748295D01*
X113423841Y-130702054D01*
X113385607Y-130657747D01*
X113344190Y-130615420D01*
X113299540Y-130575121D01*
X113251609Y-130536896D01*
X113200349Y-130500795D01*
X113145711Y-130466863D01*
X113087647Y-130435149D01*
X113026108Y-130405699D01*
X112961045Y-130378561D01*
X112892411Y-130353783D01*
X112820156Y-130331412D01*
X112744232Y-130311495D01*
X112664590Y-130294080D01*
X112581183Y-130279215D01*
X112493960Y-130266945D01*
X112402875Y-130257320D01*
X112307878Y-130250386D01*
X112208921Y-130246191D01*
X112105955Y-130244782D01*
X109208014Y-130244782D01*
X109131858Y-130242928D01*
X109060901Y-130237391D01*
X108995102Y-130228207D01*
X108934424Y-130215416D01*
X108878826Y-130199054D01*
X108828269Y-130179159D01*
X108782714Y-130155768D01*
X108723673Y-130114210D01*
X108675665Y-130064999D01*
X108638556Y-130008261D01*
X108612215Y-129944123D01*
X108596507Y-129872712D01*
X108591878Y-129821126D01*
X108591301Y-129794154D01*
X108591301Y-129494957D01*
X108593612Y-129441797D01*
X108600570Y-129391795D01*
X108619807Y-129322794D01*
X108649723Y-129261109D01*
X108690450Y-129206866D01*
X108742121Y-129160191D01*
X108804869Y-129121213D01*
X108852920Y-129099565D01*
X108905992Y-129081432D01*
X108964126Y-129066851D01*
X109027359Y-129055859D01*
X109095732Y-129048493D01*
X109169284Y-129044793D01*
X109208014Y-129044329D01*
X113379682Y-129044329D01*
X113379682Y-128315264D01*
X109208014Y-128315264D01*
X109105048Y-128316672D01*
X109006091Y-128320866D01*
X108911094Y-128327798D01*
X108820009Y-128337417D01*
X108732787Y-128349677D01*
X108649379Y-128364530D01*
X108569738Y-128381926D01*
X108493814Y-128401817D01*
X108421559Y-128424156D01*
X108352924Y-128448894D01*
X108287862Y-128475982D01*
X108226322Y-128505372D01*
X108168258Y-128537017D01*
X108113620Y-128570867D01*
X108062360Y-128606875D01*
X108014430Y-128644992D01*
X107969780Y-128685169D01*
X107928363Y-128727359D01*
X107890129Y-128771513D01*
X107855030Y-128817583D01*
X107823019Y-128865521D01*
X107794045Y-128915278D01*
X107768061Y-128966806D01*
X107745018Y-129020057D01*
X107724868Y-129074982D01*
X107707562Y-129131533D01*
X107693052Y-129189662D01*
X107681289Y-129249321D01*
X107672224Y-129310461D01*
X107665809Y-129373033D01*
X107661996Y-129436990D01*
X107660736Y-129502284D01*
X107660736Y-129786827D01*
X107661996Y-129852117D01*
X107665809Y-129916064D01*
X107672224Y-129978620D01*
X107681289Y-130039737D01*
X107693052Y-130099368D01*
X107707562Y-130157465D01*
X107724868Y-130213979D01*
X107745018Y-130268863D01*
X107768061Y-130322069D01*
X107794045Y-130373549D01*
X107823019Y-130423256D01*
X107855030Y-130471141D01*
X107890129Y-130517157D01*
X107928363Y-130561255D01*
X107969780Y-130603388D01*
X108014430Y-130643509D01*
X108062360Y-130681568D01*
X108113620Y-130717519D01*
X108168258Y-130751314D01*
X108226322Y-130782904D01*
X108287862Y-130812241D01*
X108352924Y-130839279D01*
X108421559Y-130863969D01*
X108493814Y-130886263D01*
X108569738Y-130906114D01*
X108649379Y-130923473D01*
X108732787Y-130938292D01*
X108820009Y-130950525D01*
X108911094Y-130960122D01*
X109006091Y-130967037D01*
X109105048Y-130971221D01*
X109208014Y-130972626D01*
X112105955Y-130972626D01*
X112182098Y-130974522D01*
X112253016Y-130980180D01*
X112318754Y-130989555D01*
X112379355Y-131002603D01*
X112434860Y-131019279D01*
X112485314Y-131039537D01*
X112530759Y-131063335D01*
X112589629Y-131105567D01*
X112637470Y-131155510D01*
X112674427Y-131213011D01*
X112700646Y-131277921D01*
X112716271Y-131350087D01*
X112720874Y-131402156D01*
X112721447Y-131429360D01*
X112721447Y-132054622D01*
X112719150Y-132108454D01*
X112712231Y-132159098D01*
X112693091Y-132229000D01*
X112663309Y-132291509D01*
X112622739Y-132346491D01*
X112571238Y-132393814D01*
X112508660Y-132433344D01*
X112460716Y-132455303D01*
X112407742Y-132473700D01*
X112349694Y-132488496D01*
X112286530Y-132499652D01*
X112218207Y-132507128D01*
X112144682Y-132510884D01*
X112105955Y-132511356D01*
X107821936Y-132511356D01*
X107821936Y-133239200D01*
X112105955Y-133239200D01*
G37*
G36*
X115314085Y-133239200D02*
G01*
X115314085Y-132329395D01*
X114214992Y-132329395D01*
X114214992Y-133239200D01*
X115314085Y-133239200D01*
G37*
G36*
X121311468Y-133239200D02*
G01*
X121311468Y-132511356D01*
X117175216Y-132511356D01*
X117175216Y-130998271D01*
X121101420Y-130998271D01*
X121101420Y-130269206D01*
X117175216Y-130269206D01*
X117175216Y-129044329D01*
X121311468Y-129044329D01*
X121311468Y-128315264D01*
X116243429Y-128315264D01*
X116243429Y-133239200D01*
X121311468Y-133239200D01*
G37*
G36*
X130611015Y-133239200D02*
G01*
X130611015Y-132511356D01*
X126445453Y-132511356D01*
X126445453Y-131429360D01*
X126447750Y-131375729D01*
X126454669Y-131325235D01*
X126473810Y-131255471D01*
X126503592Y-131193014D01*
X126544161Y-131138015D01*
X126595662Y-131090626D01*
X126658240Y-131050997D01*
X126706184Y-131028963D01*
X126759159Y-131010490D01*
X126817206Y-130995623D01*
X126880370Y-130984406D01*
X126948693Y-130976883D01*
X127022218Y-130973101D01*
X127060945Y-130972626D01*
X129063736Y-130972626D01*
X129166702Y-130971221D01*
X129265659Y-130967037D01*
X129360656Y-130960122D01*
X129451741Y-130950525D01*
X129538964Y-130938292D01*
X129622371Y-130923473D01*
X129702013Y-130906114D01*
X129777937Y-130886263D01*
X129850192Y-130863969D01*
X129918826Y-130839279D01*
X129983889Y-130812241D01*
X130045428Y-130782904D01*
X130103492Y-130751314D01*
X130158130Y-130717519D01*
X130209390Y-130681568D01*
X130257321Y-130643509D01*
X130301970Y-130603388D01*
X130343388Y-130561255D01*
X130381622Y-130517157D01*
X130416720Y-130471141D01*
X130448732Y-130423256D01*
X130477705Y-130373549D01*
X130503689Y-130322069D01*
X130526732Y-130268863D01*
X130546882Y-130213979D01*
X130564188Y-130157465D01*
X130578698Y-130099368D01*
X130590462Y-130039737D01*
X130599526Y-129978620D01*
X130605941Y-129916064D01*
X130609754Y-129852117D01*
X130611015Y-129786827D01*
X130611015Y-129502284D01*
X130609754Y-129436990D01*
X130605941Y-129373033D01*
X130599526Y-129310461D01*
X130590462Y-129249321D01*
X130578698Y-129189662D01*
X130564188Y-129131533D01*
X130546882Y-129074982D01*
X130526732Y-129020057D01*
X130503689Y-128966806D01*
X130477705Y-128915278D01*
X130448732Y-128865521D01*
X130416720Y-128817583D01*
X130381622Y-128771513D01*
X130343388Y-128727359D01*
X130301970Y-128685169D01*
X130257321Y-128644992D01*
X130209390Y-128606875D01*
X130158130Y-128570867D01*
X130103492Y-128537017D01*
X130045428Y-128505372D01*
X129983889Y-128475982D01*
X129918826Y-128448894D01*
X129850192Y-128424156D01*
X129777937Y-128401817D01*
X129702013Y-128381926D01*
X129622371Y-128364530D01*
X129538964Y-128349677D01*
X129451741Y-128337417D01*
X129360656Y-128327798D01*
X129265659Y-128320866D01*
X129166702Y-128316672D01*
X129063736Y-128315264D01*
X125779891Y-128315264D01*
X125779891Y-129044329D01*
X129063736Y-129044329D01*
X129139879Y-129046183D01*
X129210797Y-129051720D01*
X129276535Y-129060904D01*
X129337136Y-129073695D01*
X129392641Y-129090057D01*
X129443095Y-129109952D01*
X129488540Y-129133343D01*
X129547410Y-129174901D01*
X129595251Y-129224112D01*
X129632208Y-129280850D01*
X129658427Y-129344988D01*
X129674052Y-129416399D01*
X129678655Y-129467985D01*
X129679228Y-129494957D01*
X129679228Y-129794154D01*
X129676931Y-129847314D01*
X129670012Y-129897316D01*
X129650872Y-129966317D01*
X129621089Y-130028002D01*
X129580520Y-130082245D01*
X129529019Y-130128919D01*
X129466441Y-130167898D01*
X129418497Y-130189545D01*
X129365523Y-130207679D01*
X129307475Y-130222260D01*
X129244311Y-130233252D01*
X129175988Y-130240617D01*
X129102463Y-130244318D01*
X129063736Y-130244782D01*
X127060945Y-130244782D01*
X126957979Y-130246191D01*
X126859022Y-130250386D01*
X126764025Y-130257320D01*
X126672940Y-130266945D01*
X126585718Y-130279215D01*
X126502310Y-130294080D01*
X126422669Y-130311495D01*
X126346745Y-130331412D01*
X126274490Y-130353783D01*
X126205855Y-130378561D01*
X126140792Y-130405699D01*
X126079253Y-130435149D01*
X126021189Y-130466863D01*
X125966551Y-130500795D01*
X125915291Y-130536896D01*
X125867361Y-130575121D01*
X125822711Y-130615420D01*
X125781293Y-130657747D01*
X125743060Y-130702054D01*
X125707961Y-130748295D01*
X125675950Y-130796420D01*
X125646976Y-130846384D01*
X125620992Y-130898139D01*
X125597949Y-130951636D01*
X125577799Y-131006830D01*
X125560493Y-131063672D01*
X125545983Y-131122115D01*
X125534220Y-131182112D01*
X125525155Y-131243615D01*
X125518740Y-131306577D01*
X125514927Y-131370950D01*
X125513667Y-131436687D01*
X125513667Y-133239200D01*
X130611015Y-133239200D01*
G37*
G36*
X134687428Y-133239200D02*
G01*
X134799028Y-133237739D01*
X134905602Y-133233413D01*
X135007247Y-133226302D01*
X135104060Y-133216490D01*
X135196139Y-133204058D01*
X135283581Y-133189088D01*
X135366483Y-133171663D01*
X135444943Y-133151864D01*
X135519058Y-133129773D01*
X135588925Y-133105473D01*
X135654641Y-133079045D01*
X135716303Y-133050572D01*
X135774010Y-133020136D01*
X135827857Y-132987818D01*
X135877944Y-132953701D01*
X135924365Y-132917868D01*
X135967220Y-132880399D01*
X136006605Y-132841377D01*
X136042617Y-132800884D01*
X136075355Y-132759002D01*
X136104914Y-132715814D01*
X136131392Y-132671401D01*
X136154888Y-132625845D01*
X136175497Y-132579229D01*
X136193317Y-132531634D01*
X136208445Y-132483142D01*
X136220979Y-132433837D01*
X136231016Y-132383799D01*
X136238654Y-132333110D01*
X136243989Y-132281854D01*
X136247118Y-132230111D01*
X136248140Y-132177964D01*
X136248140Y-131376848D01*
X136244991Y-131290826D01*
X136235713Y-131210338D01*
X136220560Y-131135224D01*
X136199787Y-131065324D01*
X136173647Y-131000475D01*
X136142395Y-130940517D01*
X136106284Y-130885288D01*
X136065568Y-130834629D01*
X136020502Y-130788377D01*
X135971339Y-130746372D01*
X135918334Y-130708453D01*
X135861740Y-130674459D01*
X135801812Y-130644228D01*
X135738803Y-130617601D01*
X135672967Y-130594415D01*
X135604560Y-130574510D01*
X135668632Y-130558330D01*
X135729763Y-130536493D01*
X135787788Y-130509206D01*
X135842544Y-130476679D01*
X135893865Y-130439123D01*
X135941586Y-130396745D01*
X135985544Y-130349755D01*
X136025573Y-130298363D01*
X136061510Y-130242778D01*
X136093189Y-130183209D01*
X136120445Y-130119865D01*
X136143115Y-130052956D01*
X136161034Y-129982691D01*
X136174037Y-129909280D01*
X136181959Y-129832931D01*
X136184637Y-129753854D01*
X136184637Y-129381384D01*
X136183402Y-129320305D01*
X136179666Y-129260736D01*
X136173382Y-129202704D01*
X136164503Y-129146238D01*
X136152983Y-129091366D01*
X136138776Y-129038116D01*
X136121833Y-128986516D01*
X136102109Y-128936595D01*
X136079557Y-128888380D01*
X136054130Y-128841900D01*
X136025781Y-128797183D01*
X135994463Y-128754257D01*
X135960131Y-128713150D01*
X135922736Y-128673891D01*
X135882233Y-128636508D01*
X135838575Y-128601028D01*
X135791714Y-128567480D01*
X135741605Y-128535893D01*
X135688200Y-128506293D01*
X135631453Y-128478711D01*
X135571316Y-128453173D01*
X135507744Y-128429708D01*
X135440690Y-128408344D01*
X135370106Y-128389109D01*
X135295946Y-128372032D01*
X135218163Y-128357140D01*
X135136711Y-128344462D01*
X135051543Y-128334026D01*
X134962612Y-128325860D01*
X134869871Y-128319992D01*
X134773274Y-128316450D01*
X134672773Y-128315264D01*
X131382822Y-128315264D01*
X131382822Y-129044329D01*
X134672773Y-129044329D01*
X134750947Y-129045657D01*
X134822572Y-129049690D01*
X134887858Y-129056500D01*
X134947012Y-129066158D01*
X135000241Y-129078735D01*
X135047753Y-129094303D01*
X135108754Y-129123420D01*
X135158059Y-129159669D01*
X135196368Y-129203292D01*
X135224381Y-129254530D01*
X135242798Y-129313625D01*
X135252319Y-129380818D01*
X135254071Y-129430232D01*
X135254071Y-129858878D01*
X135252319Y-129908292D01*
X135242798Y-129975486D01*
X135224381Y-130034581D01*
X135196368Y-130085819D01*
X135158059Y-130129442D01*
X135108754Y-130165691D01*
X135047753Y-130194808D01*
X135000241Y-130210376D01*
X134947012Y-130222953D01*
X134887858Y-130232611D01*
X134822572Y-130239420D01*
X134750947Y-130243454D01*
X134672773Y-130244782D01*
X131592871Y-130244782D01*
X131592871Y-130972626D01*
X134687428Y-130972626D01*
X134755685Y-130973962D01*
X134821094Y-130978052D01*
X134883440Y-130985015D01*
X134942509Y-130994970D01*
X134998086Y-131008038D01*
X135049957Y-131024339D01*
X135097906Y-131043992D01*
X135141720Y-131067117D01*
X135199215Y-131108578D01*
X135246198Y-131158525D01*
X135281942Y-131217363D01*
X135305725Y-131285498D01*
X135314576Y-131336284D01*
X135317574Y-131391502D01*
X135317574Y-132003331D01*
X135314576Y-132074442D01*
X135305725Y-132139112D01*
X135291235Y-132197596D01*
X135271321Y-132250150D01*
X135246198Y-132297029D01*
X135216080Y-132338490D01*
X135181182Y-132374788D01*
X135141720Y-132406179D01*
X135097906Y-132432919D01*
X135049957Y-132455263D01*
X134998086Y-132473469D01*
X134942509Y-132487790D01*
X134883440Y-132498484D01*
X134821094Y-132505805D01*
X134755685Y-132510011D01*
X134687428Y-132511356D01*
X131382822Y-132511356D01*
X131382822Y-133239200D01*
X134687428Y-133239200D01*
G37*
G36*
X137331357Y-133551830D02*
G01*
X140047337Y-128002633D01*
X139431845Y-128002633D01*
X136715865Y-133551830D01*
X137331357Y-133551830D01*
G37*
G36*
X145534253Y-133239200D02*
G01*
X145534253Y-132511356D01*
X141368691Y-132511356D01*
X141368691Y-131429360D01*
X141370988Y-131375729D01*
X141377907Y-131325235D01*
X141397048Y-131255471D01*
X141426830Y-131193014D01*
X141467399Y-131138015D01*
X141518900Y-131090626D01*
X141581478Y-131050997D01*
X141629422Y-131028963D01*
X141682397Y-131010490D01*
X141740444Y-130995623D01*
X141803608Y-130984406D01*
X141871931Y-130976883D01*
X141945456Y-130973101D01*
X141984183Y-130972626D01*
X143986974Y-130972626D01*
X144089940Y-130971221D01*
X144188897Y-130967037D01*
X144283894Y-130960122D01*
X144374979Y-130950525D01*
X144462202Y-130938292D01*
X144545609Y-130923473D01*
X144625251Y-130906114D01*
X144701175Y-130886263D01*
X144773430Y-130863969D01*
X144842064Y-130839279D01*
X144907127Y-130812241D01*
X144968666Y-130782904D01*
X145026730Y-130751314D01*
X145081368Y-130717519D01*
X145132628Y-130681568D01*
X145180559Y-130643509D01*
X145225208Y-130603388D01*
X145266626Y-130561255D01*
X145304860Y-130517157D01*
X145339958Y-130471141D01*
X145371970Y-130423256D01*
X145400943Y-130373549D01*
X145426927Y-130322069D01*
X145449970Y-130268863D01*
X145470120Y-130213979D01*
X145487426Y-130157465D01*
X145501936Y-130099368D01*
X145513700Y-130039737D01*
X145522764Y-129978620D01*
X145529179Y-129916064D01*
X145532992Y-129852117D01*
X145534253Y-129786827D01*
X145534253Y-129502284D01*
X145532992Y-129436990D01*
X145529179Y-129373033D01*
X145522764Y-129310461D01*
X145513700Y-129249321D01*
X145501936Y-129189662D01*
X145487426Y-129131533D01*
X145470120Y-129074982D01*
X145449970Y-129020057D01*
X145426927Y-128966806D01*
X145400943Y-128915278D01*
X145371970Y-128865521D01*
X145339958Y-128817583D01*
X145304860Y-128771513D01*
X145266626Y-128727359D01*
X145225208Y-128685169D01*
X145180559Y-128644992D01*
X145132628Y-128606875D01*
X145081368Y-128570867D01*
X145026730Y-128537017D01*
X144968666Y-128505372D01*
X144907127Y-128475982D01*
X144842064Y-128448894D01*
X144773430Y-128424156D01*
X144701175Y-128401817D01*
X144625251Y-128381926D01*
X144545609Y-128364530D01*
X144462202Y-128349677D01*
X144374979Y-128337417D01*
X144283894Y-128327798D01*
X144188897Y-128320866D01*
X144089940Y-128316672D01*
X143986974Y-128315264D01*
X140703129Y-128315264D01*
X140703129Y-129044329D01*
X143986974Y-129044329D01*
X144063117Y-129046183D01*
X144134035Y-129051720D01*
X144199773Y-129060904D01*
X144260374Y-129073695D01*
X144315879Y-129090057D01*
X144366333Y-129109952D01*
X144411778Y-129133343D01*
X144470648Y-129174901D01*
X144518489Y-129224112D01*
X144555446Y-129280850D01*
X144581665Y-129344988D01*
X144597290Y-129416399D01*
X144601893Y-129467985D01*
X144602466Y-129494957D01*
X144602466Y-129794154D01*
X144600169Y-129847314D01*
X144593250Y-129897316D01*
X144574110Y-129966317D01*
X144544327Y-130028002D01*
X144503758Y-130082245D01*
X144452257Y-130128919D01*
X144389679Y-130167898D01*
X144341735Y-130189545D01*
X144288761Y-130207679D01*
X144230713Y-130222260D01*
X144167549Y-130233252D01*
X144099226Y-130240617D01*
X144025701Y-130244318D01*
X143986974Y-130244782D01*
X141984183Y-130244782D01*
X141881217Y-130246191D01*
X141782260Y-130250386D01*
X141687263Y-130257320D01*
X141596178Y-130266945D01*
X141508956Y-130279215D01*
X141425548Y-130294080D01*
X141345907Y-130311495D01*
X141269983Y-130331412D01*
X141197728Y-130353783D01*
X141129093Y-130378561D01*
X141064030Y-130405699D01*
X141002491Y-130435149D01*
X140944427Y-130466863D01*
X140889789Y-130500795D01*
X140838529Y-130536896D01*
X140790599Y-130575121D01*
X140745949Y-130615420D01*
X140704531Y-130657747D01*
X140666298Y-130702054D01*
X140631199Y-130748295D01*
X140599187Y-130796420D01*
X140570214Y-130846384D01*
X140544230Y-130898139D01*
X140521187Y-130951636D01*
X140501037Y-131006830D01*
X140483731Y-131063672D01*
X140469221Y-131122115D01*
X140457458Y-131182112D01*
X140448393Y-131243615D01*
X140441978Y-131306577D01*
X140438165Y-131370950D01*
X140436905Y-131436687D01*
X140436905Y-133239200D01*
X145534253Y-133239200D01*
G37*
G36*
X151416842Y-133239200D02*
G01*
X151416842Y-132405110D01*
X151934637Y-132405110D01*
X151934637Y-131676045D01*
X151416842Y-131676045D01*
X151416842Y-128315264D01*
X150485055Y-128315264D01*
X150485055Y-131676045D01*
X147146256Y-131676045D01*
X149652187Y-128315264D01*
X148644685Y-128315264D01*
X146039835Y-131816485D01*
X146039835Y-132405110D01*
X150485055Y-132405110D01*
X150485055Y-133239200D01*
X151416842Y-133239200D01*
G37*
G36*
X90893499Y-123962459D02*
G01*
X90796300Y-123961444D01*
X90700036Y-123958399D01*
X90604707Y-123953323D01*
X90510313Y-123946217D01*
X90416854Y-123937081D01*
X90324330Y-123925915D01*
X90232740Y-123912718D01*
X90142086Y-123897491D01*
X90052367Y-123880234D01*
X89963583Y-123860946D01*
X89875734Y-123839628D01*
X89788820Y-123816280D01*
X89702840Y-123790902D01*
X89617796Y-123763493D01*
X89533687Y-123734054D01*
X89450513Y-123702585D01*
X89368688Y-123669266D01*
X89288198Y-123634277D01*
X89209044Y-123597619D01*
X89131226Y-123559291D01*
X89054744Y-123519293D01*
X88979597Y-123477626D01*
X88905786Y-123434289D01*
X88833311Y-123389282D01*
X88762171Y-123342606D01*
X88692368Y-123294261D01*
X88623899Y-123244245D01*
X88556767Y-123192560D01*
X88490970Y-123139205D01*
X88426509Y-123084181D01*
X88363384Y-123027487D01*
X88301594Y-122969124D01*
X88241534Y-122909298D01*
X88183171Y-122848216D01*
X88126504Y-122785879D01*
X88071533Y-122722286D01*
X88018258Y-122657437D01*
X87966680Y-122591333D01*
X87916798Y-122523974D01*
X87868613Y-122455359D01*
X87822124Y-122385488D01*
X87777331Y-122314362D01*
X87734234Y-122241980D01*
X87692834Y-122168343D01*
X87653131Y-122093450D01*
X87615123Y-122017302D01*
X87578812Y-121939898D01*
X87544197Y-121861238D01*
X87511486Y-121781270D01*
X87480885Y-121700366D01*
X87452394Y-121618528D01*
X87426014Y-121535754D01*
X87401745Y-121452046D01*
X87379585Y-121367402D01*
X87359536Y-121281824D01*
X87341598Y-121195310D01*
X87325770Y-121107862D01*
X87312052Y-121019478D01*
X87300445Y-120930160D01*
X87290948Y-120839906D01*
X87283562Y-120748718D01*
X87278286Y-120656594D01*
X87275120Y-120563536D01*
X87274065Y-120469542D01*
X87275120Y-120375549D01*
X87278286Y-120282491D01*
X87283562Y-120190367D01*
X87290948Y-120099179D01*
X87300445Y-120008925D01*
X87312052Y-119919607D01*
X87325770Y-119831223D01*
X87341598Y-119743775D01*
X87359536Y-119657261D01*
X87379585Y-119571683D01*
X87401745Y-119487039D01*
X87426014Y-119403331D01*
X87452394Y-119320557D01*
X87480885Y-119238719D01*
X87511486Y-119157815D01*
X87544197Y-119077847D01*
X87578825Y-118998987D01*
X87615177Y-118921409D01*
X87653251Y-118845114D01*
X87693048Y-118770101D01*
X87734568Y-118696370D01*
X87777812Y-118623921D01*
X87822778Y-118552755D01*
X87869468Y-118482871D01*
X87917880Y-118414269D01*
X87968016Y-118346950D01*
X88019875Y-118280913D01*
X88073456Y-118216158D01*
X88128761Y-118152685D01*
X88185789Y-118090495D01*
X88244540Y-118029587D01*
X88305014Y-117969961D01*
X88367217Y-117911598D01*
X88430730Y-117854904D01*
X88495552Y-117799879D01*
X88561682Y-117746525D01*
X88629122Y-117694840D01*
X88697871Y-117644824D01*
X88767928Y-117596479D01*
X88839295Y-117549802D01*
X88911971Y-117504796D01*
X88985955Y-117461459D01*
X89061249Y-117419792D01*
X89137851Y-117379794D01*
X89215763Y-117341466D01*
X89294983Y-117304808D01*
X89375513Y-117269819D01*
X89457351Y-117236500D01*
X89540546Y-117205031D01*
X89624715Y-117175592D01*
X89709859Y-117148183D01*
X89795979Y-117122805D01*
X89883073Y-117099457D01*
X89971143Y-117078139D01*
X90060188Y-117058851D01*
X90150207Y-117041594D01*
X90241202Y-117026367D01*
X90333172Y-117013170D01*
X90426117Y-117002004D01*
X90520037Y-116992868D01*
X90614932Y-116985762D01*
X90710802Y-116980686D01*
X90807647Y-116977641D01*
X90905467Y-116976625D01*
X91002226Y-116977601D01*
X91098022Y-116980526D01*
X91192857Y-116985401D01*
X91286730Y-116992226D01*
X91379642Y-117001002D01*
X91471592Y-117011728D01*
X91562580Y-117024404D01*
X91652606Y-117039030D01*
X91741671Y-117055606D01*
X91829774Y-117074132D01*
X91916915Y-117094608D01*
X92003095Y-117117035D01*
X92088313Y-117141411D01*
X92172569Y-117167738D01*
X92255863Y-117196015D01*
X92338196Y-117226242D01*
X92419300Y-117258198D01*
X92498908Y-117292092D01*
X92577020Y-117327922D01*
X92653636Y-117365689D01*
X92728755Y-117405393D01*
X92802379Y-117447033D01*
X92874507Y-117490611D01*
X92945139Y-117536125D01*
X93014275Y-117583576D01*
X93081915Y-117632963D01*
X93148059Y-117684288D01*
X93212707Y-117737549D01*
X93275859Y-117792747D01*
X93337515Y-117849881D01*
X93397676Y-117908953D01*
X93456340Y-117969961D01*
X93004979Y-118429870D01*
X92949961Y-118377170D01*
X92894329Y-118326353D01*
X92838083Y-118277420D01*
X92781222Y-118230370D01*
X92723747Y-118185203D01*
X92665657Y-118141920D01*
X92606953Y-118100519D01*
X92547634Y-118061003D01*
X92487701Y-118023369D01*
X92427154Y-117987619D01*
X92365992Y-117953752D01*
X92304216Y-117921769D01*
X92241825Y-117891669D01*
X92178820Y-117863452D01*
X92115200Y-117837119D01*
X92050966Y-117812669D01*
X91986091Y-117789688D01*
X91920548Y-117768190D01*
X91854337Y-117748174D01*
X91787459Y-117729641D01*
X91719912Y-117712591D01*
X91651698Y-117697024D01*
X91582816Y-117682939D01*
X91513266Y-117670336D01*
X91443048Y-117659217D01*
X91372162Y-117649579D01*
X91300608Y-117641425D01*
X91228387Y-117634753D01*
X91155498Y-117629564D01*
X91081940Y-117625857D01*
X91007715Y-117623633D01*
X90932823Y-117622892D01*
X90854116Y-117623734D01*
X90776145Y-117626258D01*
X90698908Y-117630465D01*
X90622405Y-117636356D01*
X90546637Y-117643929D01*
X90471604Y-117653186D01*
X90397306Y-117664125D01*
X90323742Y-117676748D01*
X90250913Y-117691053D01*
X90178818Y-117707041D01*
X90107458Y-117724713D01*
X90036833Y-117744067D01*
X89966942Y-117765104D01*
X89897786Y-117787825D01*
X89829365Y-117812228D01*
X89761678Y-117838314D01*
X89695120Y-117865696D01*
X89629657Y-117894414D01*
X89565290Y-117924467D01*
X89502017Y-117955856D01*
X89439840Y-117988581D01*
X89378759Y-118022641D01*
X89318772Y-118058037D01*
X89259881Y-118094769D01*
X89202085Y-118132837D01*
X89145385Y-118172240D01*
X89089779Y-118212979D01*
X89035269Y-118255054D01*
X88981855Y-118298464D01*
X88929535Y-118343210D01*
X88878311Y-118389292D01*
X88828182Y-118436709D01*
X88779302Y-118485315D01*
X88731824Y-118534964D01*
X88685749Y-118585653D01*
X88619266Y-118663642D01*
X88555939Y-118743974D01*
X88495767Y-118826651D01*
X88438751Y-118911672D01*
X88384890Y-118999037D01*
X88350737Y-119058583D01*
X88317985Y-119119170D01*
X88286636Y-119180799D01*
X88256690Y-119243471D01*
X88228146Y-119307184D01*
X88214400Y-119339431D01*
X88188106Y-119404553D01*
X88163509Y-119470410D01*
X88140609Y-119537001D01*
X88119404Y-119604327D01*
X88099896Y-119672388D01*
X88082085Y-119741184D01*
X88065970Y-119810714D01*
X88051551Y-119880978D01*
X88038828Y-119951978D01*
X88027802Y-120023711D01*
X88018472Y-120096180D01*
X88010838Y-120169383D01*
X88004901Y-120243321D01*
X88000660Y-120317994D01*
X87998116Y-120393401D01*
X87997268Y-120469542D01*
X87998116Y-120545063D01*
X88000660Y-120619889D01*
X88004901Y-120694021D01*
X88010838Y-120767458D01*
X88018472Y-120840200D01*
X88027802Y-120912248D01*
X88038828Y-120983601D01*
X88051551Y-121054260D01*
X88065970Y-121124224D01*
X88082085Y-121193494D01*
X88099896Y-121262068D01*
X88119404Y-121329949D01*
X88140609Y-121397135D01*
X88163509Y-121463626D01*
X88188106Y-121529423D01*
X88214400Y-121594525D01*
X88242242Y-121658772D01*
X88271488Y-121722004D01*
X88302135Y-121784222D01*
X88334185Y-121845423D01*
X88367638Y-121905610D01*
X88402493Y-121964782D01*
X88438751Y-122022938D01*
X88476411Y-122080080D01*
X88535531Y-122163888D01*
X88597807Y-122245413D01*
X88641077Y-122298494D01*
X88685749Y-122350560D01*
X88731824Y-122401610D01*
X88779302Y-122451646D01*
X88828182Y-122500666D01*
X88878304Y-122548290D01*
X88929508Y-122594566D01*
X88981794Y-122639492D01*
X89035162Y-122683070D01*
X89089612Y-122725298D01*
X89145144Y-122766177D01*
X89201758Y-122805707D01*
X89259454Y-122843888D01*
X89318231Y-122880720D01*
X89378091Y-122916203D01*
X89439032Y-122950337D01*
X89501056Y-122983122D01*
X89564161Y-123014558D01*
X89628348Y-123044644D01*
X89693617Y-123073382D01*
X89759968Y-123100771D01*
X89827241Y-123126650D01*
X89895275Y-123150859D01*
X89964070Y-123173399D01*
X90033627Y-123194270D01*
X90103945Y-123213471D01*
X90175025Y-123231002D01*
X90246866Y-123246863D01*
X90319468Y-123261055D01*
X90392831Y-123273577D01*
X90466956Y-123284430D01*
X90541842Y-123293613D01*
X90617490Y-123301126D01*
X90693899Y-123306970D01*
X90771069Y-123311144D01*
X90849000Y-123313648D01*
X90927693Y-123314483D01*
X90999928Y-123313782D01*
X91071736Y-123311678D01*
X91143116Y-123308172D01*
X91214068Y-123303263D01*
X91284593Y-123296952D01*
X91354691Y-123289238D01*
X91424361Y-123280122D01*
X91493604Y-123269604D01*
X91562420Y-123257682D01*
X91630808Y-123244359D01*
X91698768Y-123229633D01*
X91766301Y-123213504D01*
X91833407Y-123195973D01*
X91900085Y-123177039D01*
X91966336Y-123156703D01*
X92032160Y-123134965D01*
X92097649Y-123111597D01*
X92162471Y-123086372D01*
X92226625Y-123059290D01*
X92290111Y-123030352D01*
X92352929Y-122999558D01*
X92415079Y-122966906D01*
X92476561Y-122932399D01*
X92537376Y-122896034D01*
X92597523Y-122857813D01*
X92657001Y-122817735D01*
X92715812Y-122775801D01*
X92773956Y-122732010D01*
X92831431Y-122686362D01*
X92888238Y-122638858D01*
X92944378Y-122589497D01*
X92999850Y-122538279D01*
X93410178Y-123085383D01*
X93349009Y-123139039D01*
X93286465Y-123191011D01*
X93222545Y-123241300D01*
X93157249Y-123289906D01*
X93090577Y-123336829D01*
X93022530Y-123382070D01*
X92953107Y-123425627D01*
X92882308Y-123467501D01*
X92810133Y-123507693D01*
X92736583Y-123546201D01*
X92661656Y-123583026D01*
X92585354Y-123618169D01*
X92507677Y-123651628D01*
X92428623Y-123683404D01*
X92348194Y-123713498D01*
X92266388Y-123741908D01*
X92183688Y-123768615D01*
X92100574Y-123793600D01*
X92017046Y-123816861D01*
X91933104Y-123838399D01*
X91848748Y-123858214D01*
X91763977Y-123876307D01*
X91678793Y-123892676D01*
X91593194Y-123907322D01*
X91507182Y-123920245D01*
X91420755Y-123931444D01*
X91333914Y-123940921D01*
X91246659Y-123948675D01*
X91158990Y-123954706D01*
X91070908Y-123959013D01*
X90982411Y-123961598D01*
X90893499Y-123962459D01*
G37*
G36*
X92719459Y-123001608D02*
G01*
X92719459Y-120466123D01*
X93410178Y-120466123D01*
X93410178Y-123085383D01*
X92719459Y-123001608D01*
G37*
G36*
X97504702Y-118704738D02*
G01*
X97597260Y-118708685D01*
X97688548Y-118715263D01*
X97778568Y-118724473D01*
X97867319Y-118736314D01*
X97954801Y-118750786D01*
X98041014Y-118767890D01*
X98125958Y-118787625D01*
X98209633Y-118809991D01*
X98292039Y-118834989D01*
X98373176Y-118862618D01*
X98453045Y-118892879D01*
X98531644Y-118925770D01*
X98608975Y-118961293D01*
X98685036Y-118999448D01*
X98759829Y-119040233D01*
X98833199Y-119083103D01*
X98904566Y-119127936D01*
X98973929Y-119174732D01*
X99041288Y-119223492D01*
X99106644Y-119274215D01*
X99169997Y-119326902D01*
X99231345Y-119381552D01*
X99290691Y-119438166D01*
X99348032Y-119496743D01*
X99403371Y-119557284D01*
X99456705Y-119619788D01*
X99508036Y-119684256D01*
X99557364Y-119750687D01*
X99604688Y-119819082D01*
X99650008Y-119889440D01*
X99693325Y-119961762D01*
X99734318Y-120035793D01*
X99772666Y-120111280D01*
X99808369Y-120188223D01*
X99841428Y-120266622D01*
X99871842Y-120346477D01*
X99899611Y-120427788D01*
X99924736Y-120510555D01*
X99947215Y-120594778D01*
X99967051Y-120680457D01*
X99984241Y-120767591D01*
X99998787Y-120856182D01*
X100010688Y-120946228D01*
X100019944Y-121037730D01*
X100026556Y-121130689D01*
X100030523Y-121225103D01*
X100031846Y-121320973D01*
X100030523Y-121415634D01*
X100026556Y-121508987D01*
X100019944Y-121601030D01*
X100010688Y-121691764D01*
X99998787Y-121781189D01*
X99984241Y-121869306D01*
X99967051Y-121956113D01*
X99947215Y-122041612D01*
X99924736Y-122125801D01*
X99899611Y-122208681D01*
X99871842Y-122290253D01*
X99841428Y-122370515D01*
X99808369Y-122449468D01*
X99772666Y-122527113D01*
X99734318Y-122603448D01*
X99693325Y-122678475D01*
X99650208Y-122751631D01*
X99605062Y-122822784D01*
X99557885Y-122891933D01*
X99508677Y-122959079D01*
X99457440Y-123024221D01*
X99404172Y-123087360D01*
X99348874Y-123148495D01*
X99291545Y-123207627D01*
X99232187Y-123264755D01*
X99170798Y-123319879D01*
X99107379Y-123373000D01*
X99041929Y-123424118D01*
X98974450Y-123473231D01*
X98904940Y-123520342D01*
X98833399Y-123565448D01*
X98759829Y-123608552D01*
X98684635Y-123649337D01*
X98608227Y-123687492D01*
X98530602Y-123723015D01*
X98451762Y-123755906D01*
X98371707Y-123786167D01*
X98290436Y-123813796D01*
X98207950Y-123838793D01*
X98124248Y-123861160D01*
X98039331Y-123880895D01*
X97953198Y-123897998D01*
X97865849Y-123912471D01*
X97777286Y-123924312D01*
X97687506Y-123933521D01*
X97596512Y-123940100D01*
X97504301Y-123944047D01*
X97410876Y-123945362D01*
X97317263Y-123944047D01*
X97224919Y-123940100D01*
X97133844Y-123933521D01*
X97044038Y-123924312D01*
X96955501Y-123912471D01*
X96868233Y-123897998D01*
X96782234Y-123880895D01*
X96697503Y-123861160D01*
X96614042Y-123838793D01*
X96531849Y-123813796D01*
X96450926Y-123786167D01*
X96371271Y-123755906D01*
X96292885Y-123723015D01*
X96215769Y-123687492D01*
X96139921Y-123649337D01*
X96065342Y-123608552D01*
X95992573Y-123565442D01*
X95921727Y-123520315D01*
X95852805Y-123473171D01*
X95785806Y-123424011D01*
X95720730Y-123372833D01*
X95657578Y-123319639D01*
X95596350Y-123264428D01*
X95537044Y-123207199D01*
X95479663Y-123147954D01*
X95424204Y-123086692D01*
X95370669Y-123023413D01*
X95319058Y-122958118D01*
X95269370Y-122890805D01*
X95221605Y-122821475D01*
X95175763Y-122750129D01*
X95131846Y-122676765D01*
X95090439Y-122601745D01*
X95051703Y-122525430D01*
X95015639Y-122447819D01*
X94982247Y-122368912D01*
X94951526Y-122288710D01*
X94923476Y-122207212D01*
X94898098Y-122124418D01*
X94875391Y-122040329D01*
X94855355Y-121954944D01*
X94837991Y-121868264D01*
X94823298Y-121780288D01*
X94811277Y-121691016D01*
X94801927Y-121600449D01*
X94795248Y-121508586D01*
X94791241Y-121415427D01*
X94789906Y-121320973D01*
X95490883Y-121320973D01*
X95491878Y-121395011D01*
X95494863Y-121467954D01*
X95499838Y-121539801D01*
X95506804Y-121610553D01*
X95515760Y-121680210D01*
X95526706Y-121748772D01*
X95539642Y-121816238D01*
X95562778Y-121915384D01*
X95590392Y-122012066D01*
X95622484Y-122106283D01*
X95659054Y-122198036D01*
X95700102Y-122287324D01*
X95745628Y-122374148D01*
X95794940Y-122457631D01*
X95847348Y-122537538D01*
X95902852Y-122613868D01*
X95961451Y-122686623D01*
X96023145Y-122755800D01*
X96087935Y-122821402D01*
X96155821Y-122883427D01*
X96226802Y-122941875D01*
X96300878Y-122996748D01*
X96378050Y-123048044D01*
X96431218Y-123080254D01*
X96513328Y-123125169D01*
X96597452Y-123165666D01*
X96683590Y-123201745D01*
X96771742Y-123233406D01*
X96861907Y-123260649D01*
X96954085Y-123283475D01*
X97048277Y-123301882D01*
X97144483Y-123315872D01*
X97242702Y-123325444D01*
X97342935Y-123330598D01*
X97410876Y-123331580D01*
X97479444Y-123330598D01*
X97580568Y-123325444D01*
X97679619Y-123315872D01*
X97776596Y-123301882D01*
X97871499Y-123283475D01*
X97964329Y-123260649D01*
X98055085Y-123233406D01*
X98143767Y-123201745D01*
X98230376Y-123165666D01*
X98314911Y-123125169D01*
X98397372Y-123080254D01*
X98477174Y-123031342D01*
X98553730Y-122978854D01*
X98627040Y-122922790D01*
X98697104Y-122863149D01*
X98763923Y-122799932D01*
X98827496Y-122733138D01*
X98887823Y-122662769D01*
X98944904Y-122588822D01*
X98998739Y-122511300D01*
X99049329Y-122430201D01*
X99081252Y-122374148D01*
X99125862Y-122287324D01*
X99166083Y-122198036D01*
X99201916Y-122106283D01*
X99233362Y-122012066D01*
X99260420Y-121915384D01*
X99283090Y-121816238D01*
X99295766Y-121748772D01*
X99306492Y-121680210D01*
X99315268Y-121610553D01*
X99322093Y-121539801D01*
X99326968Y-121467954D01*
X99329894Y-121395011D01*
X99330869Y-121320973D01*
X99329894Y-121245927D01*
X99326968Y-121172096D01*
X99322093Y-121099480D01*
X99315268Y-121028080D01*
X99306492Y-120957896D01*
X99295766Y-120888926D01*
X99283090Y-120821173D01*
X99260420Y-120721822D01*
X99233362Y-120625205D01*
X99201916Y-120531324D01*
X99166083Y-120440177D01*
X99125862Y-120351765D01*
X99081252Y-120266088D01*
X99032826Y-120183246D01*
X98981155Y-120103981D01*
X98926237Y-120028291D01*
X98868074Y-119956178D01*
X98806665Y-119887642D01*
X98742011Y-119822681D01*
X98674110Y-119761298D01*
X98602964Y-119703490D01*
X98528572Y-119649259D01*
X98450934Y-119598604D01*
X98397372Y-119566821D01*
X98314941Y-119522212D01*
X98230496Y-119481990D01*
X98144038Y-119446157D01*
X98055566Y-119414711D01*
X97965080Y-119387653D01*
X97872581Y-119364983D01*
X97778069Y-119346700D01*
X97681542Y-119332806D01*
X97583003Y-119323299D01*
X97482449Y-119318180D01*
X97414295Y-119317205D01*
X97312109Y-119319399D01*
X97211996Y-119325980D01*
X97113957Y-119336950D01*
X97017992Y-119352307D01*
X96924100Y-119372052D01*
X96832282Y-119396185D01*
X96742538Y-119424705D01*
X96654868Y-119457614D01*
X96569271Y-119494910D01*
X96485748Y-119536594D01*
X96431218Y-119566821D01*
X96351982Y-119615092D01*
X96275842Y-119666939D01*
X96202797Y-119722362D01*
X96132848Y-119781362D01*
X96065995Y-119843938D01*
X96002236Y-119910090D01*
X95941574Y-119979819D01*
X95884007Y-120053124D01*
X95829535Y-120130005D01*
X95778159Y-120210463D01*
X95745628Y-120266088D01*
X95700102Y-120351765D01*
X95659054Y-120440177D01*
X95622484Y-120531324D01*
X95590392Y-120625205D01*
X95562778Y-120721822D01*
X95539642Y-120821173D01*
X95526706Y-120888926D01*
X95515760Y-120957896D01*
X95506804Y-121028080D01*
X95499838Y-121099480D01*
X95494863Y-121172096D01*
X95491878Y-121245927D01*
X95490883Y-121320973D01*
X94789906Y-121320973D01*
X94791248Y-121225510D01*
X94795275Y-121131463D01*
X94801987Y-121038832D01*
X94811384Y-120947617D01*
X94823465Y-120857818D01*
X94838231Y-120769434D01*
X94855682Y-120682467D01*
X94875818Y-120596915D01*
X94898638Y-120512779D01*
X94924144Y-120430059D01*
X94952334Y-120348755D01*
X94983209Y-120268866D01*
X95016768Y-120190394D01*
X95053012Y-120113337D01*
X95091941Y-120037696D01*
X95133555Y-119963471D01*
X95177466Y-119890943D01*
X95223288Y-119820391D01*
X95271019Y-119751816D01*
X95320661Y-119685218D01*
X95372212Y-119620596D01*
X95425674Y-119557952D01*
X95481045Y-119497284D01*
X95538327Y-119438593D01*
X95597518Y-119381879D01*
X95658620Y-119327142D01*
X95721632Y-119274382D01*
X95786554Y-119223599D01*
X95853386Y-119174792D01*
X95922128Y-119127962D01*
X95992780Y-119083109D01*
X96065342Y-119040233D01*
X96139720Y-118999448D01*
X96215395Y-118961293D01*
X96292364Y-118925770D01*
X96370630Y-118892879D01*
X96450191Y-118862618D01*
X96531048Y-118834989D01*
X96613200Y-118809991D01*
X96696648Y-118787625D01*
X96781392Y-118767890D01*
X96867431Y-118750786D01*
X96954766Y-118736314D01*
X97043397Y-118724473D01*
X97133323Y-118715263D01*
X97224545Y-118708685D01*
X97317062Y-118704738D01*
X97410876Y-118703422D01*
X97504702Y-118704738D01*
G37*
G36*
X106155991Y-123899201D02*
G01*
X105487498Y-123899201D01*
X105487498Y-122888280D01*
X105444301Y-122955787D01*
X105399021Y-123021590D01*
X105351978Y-123085190D01*
X105303171Y-123146585D01*
X105252601Y-123205777D01*
X105200268Y-123262765D01*
X105146172Y-123317549D01*
X105090313Y-123370129D01*
X105032691Y-123420505D01*
X104973306Y-123468677D01*
X104912157Y-123514645D01*
X104849246Y-123558409D01*
X104784571Y-123599970D01*
X104718133Y-123639326D01*
X104650473Y-123676385D01*
X104581704Y-123711053D01*
X104511827Y-123743331D01*
X104440841Y-123773217D01*
X104368747Y-123800712D01*
X104295543Y-123825817D01*
X104221231Y-123848531D01*
X104145811Y-123868853D01*
X104069282Y-123886785D01*
X103991644Y-123902326D01*
X103912898Y-123915476D01*
X103833043Y-123926235D01*
X103752079Y-123934603D01*
X103670007Y-123940581D01*
X103586826Y-123944167D01*
X103502536Y-123945362D01*
X103411228Y-123944073D01*
X103321095Y-123940207D01*
X103232137Y-123933762D01*
X103144354Y-123924739D01*
X103057747Y-123913139D01*
X102972316Y-123898960D01*
X102888060Y-123882204D01*
X102804979Y-123862869D01*
X102723074Y-123840957D01*
X102642344Y-123816467D01*
X102562789Y-123789399D01*
X102484410Y-123759753D01*
X102407206Y-123727529D01*
X102331178Y-123692728D01*
X102256325Y-123655348D01*
X102182648Y-123615390D01*
X102110740Y-123572915D01*
X102040770Y-123528409D01*
X101972736Y-123481873D01*
X101906638Y-123433307D01*
X101842478Y-123382711D01*
X101780254Y-123330084D01*
X101719967Y-123275427D01*
X101661617Y-123218740D01*
X101605204Y-123160022D01*
X101550727Y-123099275D01*
X101498187Y-123036497D01*
X101447584Y-122971688D01*
X101398918Y-122904850D01*
X101352188Y-122835981D01*
X101307395Y-122765082D01*
X101264539Y-122692152D01*
X101224168Y-122617480D01*
X101186401Y-122541351D01*
X101151238Y-122463767D01*
X101118680Y-122384727D01*
X101088727Y-122304231D01*
X101061379Y-122222279D01*
X101036635Y-122138871D01*
X101014496Y-122054007D01*
X100994961Y-121967687D01*
X100978031Y-121879911D01*
X100963705Y-121790680D01*
X100951985Y-121699992D01*
X100942869Y-121607849D01*
X100936357Y-121514249D01*
X100932450Y-121419194D01*
X100931148Y-121322683D01*
X101632125Y-121322683D01*
X101633120Y-121396514D01*
X101636105Y-121469263D01*
X101641081Y-121540930D01*
X101648046Y-121611515D01*
X101657002Y-121681018D01*
X101667948Y-121749440D01*
X101680885Y-121816779D01*
X101704021Y-121915760D01*
X101731635Y-122012306D01*
X101763727Y-122106418D01*
X101800296Y-122198096D01*
X101841344Y-122287339D01*
X101886870Y-122374148D01*
X101936182Y-122457631D01*
X101988590Y-122537538D01*
X102044094Y-122613868D01*
X102102693Y-122686623D01*
X102164387Y-122755800D01*
X102229177Y-122821402D01*
X102297063Y-122883427D01*
X102368044Y-122941875D01*
X102442120Y-122996748D01*
X102519292Y-123048044D01*
X102572460Y-123080254D01*
X102654570Y-123125169D01*
X102738695Y-123165666D01*
X102824832Y-123201745D01*
X102912984Y-123233406D01*
X103003149Y-123260649D01*
X103095327Y-123283475D01*
X103189519Y-123301882D01*
X103285725Y-123315872D01*
X103383944Y-123325444D01*
X103484177Y-123330598D01*
X103552118Y-123331580D01*
X103653708Y-123329371D01*
X103753315Y-123322744D01*
X103850938Y-123311700D01*
X103946578Y-123296237D01*
X104040234Y-123276357D01*
X104131906Y-123252059D01*
X104221595Y-123223343D01*
X104309301Y-123190209D01*
X104395023Y-123152658D01*
X104478762Y-123110688D01*
X104533485Y-123080254D01*
X104613302Y-123031342D01*
X104689903Y-122978854D01*
X104763288Y-122922790D01*
X104833458Y-122863149D01*
X104900411Y-122799932D01*
X104964150Y-122733138D01*
X105024672Y-122662769D01*
X105081979Y-122588822D01*
X105136070Y-122511300D01*
X105186945Y-122430201D01*
X105219075Y-122374148D01*
X105264295Y-122287339D01*
X105305068Y-122198096D01*
X105341392Y-122106418D01*
X105373269Y-122012306D01*
X105400697Y-121915760D01*
X105423678Y-121816779D01*
X105436528Y-121749440D01*
X105447400Y-121681018D01*
X105456296Y-121611515D01*
X105463215Y-121540930D01*
X105468157Y-121469263D01*
X105471122Y-121396514D01*
X105472111Y-121322683D01*
X105471122Y-121247429D01*
X105468157Y-121173405D01*
X105463215Y-121100609D01*
X105456296Y-121029042D01*
X105447400Y-120958704D01*
X105436528Y-120889594D01*
X105423678Y-120821714D01*
X105400697Y-120722197D01*
X105373269Y-120625446D01*
X105341392Y-120531459D01*
X105305068Y-120440237D01*
X105264295Y-120351780D01*
X105219075Y-120266088D01*
X105170344Y-120183246D01*
X105118397Y-120103981D01*
X105063234Y-120028291D01*
X105004855Y-119956178D01*
X104943261Y-119887642D01*
X104878451Y-119822681D01*
X104810425Y-119761298D01*
X104739184Y-119703490D01*
X104664727Y-119649259D01*
X104587054Y-119598604D01*
X104533485Y-119566821D01*
X104451069Y-119522212D01*
X104366670Y-119481990D01*
X104280286Y-119446157D01*
X104191919Y-119414711D01*
X104101569Y-119387653D01*
X104009235Y-119364983D01*
X103914918Y-119346700D01*
X103818617Y-119332806D01*
X103720333Y-119323299D01*
X103620065Y-119318180D01*
X103552118Y-119317205D01*
X103450543Y-119319399D01*
X103350981Y-119325980D01*
X103253433Y-119336950D01*
X103157898Y-119352307D01*
X103064377Y-119372052D01*
X102972870Y-119396185D01*
X102883376Y-119424705D01*
X102795896Y-119457614D01*
X102710429Y-119494910D01*
X102626976Y-119536594D01*
X102572460Y-119566821D01*
X102493224Y-119615092D01*
X102417084Y-119666939D01*
X102344039Y-119722362D01*
X102274090Y-119781362D01*
X102207237Y-119843938D01*
X102143479Y-119910090D01*
X102082816Y-119979819D01*
X102025249Y-120053124D01*
X101970777Y-120130005D01*
X101919401Y-120210463D01*
X101886870Y-120266088D01*
X101841344Y-120351780D01*
X101800296Y-120440237D01*
X101763727Y-120531459D01*
X101731635Y-120625446D01*
X101704021Y-120722197D01*
X101680885Y-120821714D01*
X101667948Y-120889594D01*
X101657002Y-120958704D01*
X101648046Y-121029042D01*
X101641081Y-121100609D01*
X101636105Y-121173405D01*
X101633120Y-121247429D01*
X101632125Y-121322683D01*
X100931148Y-121322683D01*
X100932450Y-121225570D01*
X100936357Y-121129994D01*
X100942869Y-121035954D01*
X100951985Y-120943450D01*
X100963705Y-120852482D01*
X100978031Y-120763050D01*
X100994961Y-120675154D01*
X101014496Y-120588794D01*
X101036635Y-120503970D01*
X101061379Y-120420682D01*
X101088727Y-120338931D01*
X101118680Y-120258715D01*
X101151238Y-120180035D01*
X101186401Y-120102892D01*
X101224168Y-120027284D01*
X101264539Y-119953213D01*
X101307395Y-119880704D01*
X101352188Y-119810213D01*
X101398918Y-119741738D01*
X101447584Y-119675280D01*
X101498187Y-119610839D01*
X101550727Y-119548415D01*
X101605204Y-119488008D01*
X101661617Y-119429617D01*
X101719967Y-119373244D01*
X101780254Y-119318888D01*
X101842478Y-119266548D01*
X101906638Y-119216226D01*
X101972736Y-119167920D01*
X102040770Y-119121631D01*
X102110740Y-119077359D01*
X102182648Y-119035104D01*
X102256325Y-118994940D01*
X102331178Y-118957366D01*
X102407206Y-118922384D01*
X102484410Y-118889993D01*
X102562789Y-118860194D01*
X102642344Y-118832986D01*
X102723074Y-118808369D01*
X102804979Y-118786343D01*
X102888060Y-118766908D01*
X102972316Y-118750065D01*
X103057747Y-118735813D01*
X103144354Y-118724153D01*
X103232137Y-118715083D01*
X103321095Y-118708605D01*
X103411228Y-118704718D01*
X103502536Y-118703422D01*
X103585377Y-118704618D01*
X103667202Y-118708204D01*
X103748012Y-118714182D01*
X103827807Y-118722550D01*
X103906587Y-118733309D01*
X103984351Y-118746459D01*
X104061101Y-118762000D01*
X104136835Y-118779931D01*
X104211554Y-118800254D01*
X104285258Y-118822968D01*
X104357947Y-118848072D01*
X104429621Y-118875568D01*
X104500280Y-118905454D01*
X104569923Y-118937731D01*
X104638552Y-118972400D01*
X104706165Y-119009459D01*
X104772623Y-119048788D01*
X104837358Y-119090269D01*
X104900370Y-119133899D01*
X104961658Y-119179681D01*
X105021224Y-119227612D01*
X105079067Y-119277695D01*
X105135186Y-119329927D01*
X105189583Y-119384310D01*
X105242256Y-119440844D01*
X105293207Y-119499528D01*
X105342434Y-119560363D01*
X105389938Y-119623348D01*
X105435720Y-119688483D01*
X105460143Y-119725782D01*
X105460143Y-116627847D01*
X106155991Y-116627847D01*
X106155991Y-123899201D01*
G37*
G36*
X109895104Y-125846549D02*
G01*
X109816432Y-125845293D01*
X109738560Y-125841526D01*
X109661490Y-125835249D01*
X109585221Y-125826460D01*
X109509754Y-125815160D01*
X109435088Y-125801349D01*
X109361224Y-125785026D01*
X109288161Y-125766193D01*
X109216621Y-125745089D01*
X109148179Y-125721099D01*
X109082837Y-125694225D01*
X109020593Y-125664466D01*
X108947146Y-125623209D01*
X108878541Y-125577445D01*
X108814778Y-125527172D01*
X108802606Y-125516577D01*
X109050513Y-124991699D01*
X109109547Y-125038752D01*
X109171888Y-125081178D01*
X109237534Y-125118975D01*
X109306487Y-125152143D01*
X109378745Y-125180684D01*
X109454309Y-125204596D01*
X109533179Y-125223881D01*
X109615355Y-125238537D01*
X109700836Y-125248564D01*
X109789624Y-125253964D01*
X109850652Y-125254993D01*
X109926532Y-125252814D01*
X109999015Y-125246277D01*
X110068103Y-125235383D01*
X110154937Y-125214078D01*
X110235734Y-125185027D01*
X110310493Y-125148228D01*
X110379215Y-125103682D01*
X110441900Y-125051390D01*
X110484951Y-125007086D01*
X110536643Y-124941503D01*
X110581442Y-124868707D01*
X110619349Y-124788699D01*
X110643257Y-124723959D01*
X110663287Y-124655162D01*
X110679441Y-124582307D01*
X110691718Y-124505396D01*
X110700118Y-124424427D01*
X110704641Y-124339401D01*
X110705502Y-124280464D01*
X110705502Y-118749584D01*
X111401350Y-118749584D01*
X111401350Y-124285593D01*
X111399827Y-124373582D01*
X111395259Y-124459314D01*
X111387646Y-124542789D01*
X111376987Y-124624006D01*
X111363283Y-124702967D01*
X111346533Y-124779669D01*
X111326738Y-124854115D01*
X111303897Y-124926303D01*
X111278011Y-124996233D01*
X111249080Y-125063907D01*
X111217103Y-125129323D01*
X111182081Y-125192482D01*
X111144014Y-125253383D01*
X111102901Y-125312027D01*
X111058742Y-125368414D01*
X111011539Y-125422543D01*
X110961697Y-125473888D01*
X110909197Y-125521919D01*
X110854039Y-125566639D01*
X110796223Y-125608046D01*
X110735749Y-125646140D01*
X110672617Y-125680922D01*
X110606827Y-125712391D01*
X110538379Y-125740547D01*
X110467273Y-125765391D01*
X110393509Y-125786923D01*
X110317086Y-125805142D01*
X110238006Y-125820048D01*
X110156268Y-125831642D01*
X110071871Y-125839924D01*
X109984817Y-125844892D01*
X109895104Y-125846549D01*
G37*
G36*
X111057700Y-117614344D02*
G01*
X110979261Y-117609234D01*
X110905510Y-117593907D01*
X110836448Y-117568362D01*
X110772074Y-117532599D01*
X110712388Y-117486617D01*
X110693534Y-117469019D01*
X110643566Y-117412479D01*
X110603935Y-117351851D01*
X110574643Y-117287136D01*
X110555690Y-117218334D01*
X110547074Y-117145445D01*
X110546500Y-117120240D01*
X110551669Y-117044947D01*
X110567177Y-116974221D01*
X110593023Y-116908064D01*
X110629207Y-116846475D01*
X110675729Y-116789453D01*
X110693534Y-116771461D01*
X110751657Y-116722655D01*
X110814469Y-116683946D01*
X110881969Y-116655335D01*
X110954157Y-116636823D01*
X111031033Y-116628408D01*
X111057700Y-116627847D01*
X111137181Y-116632655D01*
X111211493Y-116647081D01*
X111280636Y-116671123D01*
X111344609Y-116704783D01*
X111403414Y-116748060D01*
X111421866Y-116764623D01*
X111471254Y-116818438D01*
X111510424Y-116877303D01*
X111539375Y-116941216D01*
X111558108Y-117010178D01*
X111566623Y-117084190D01*
X111567191Y-117109982D01*
X111562142Y-117186097D01*
X111546995Y-117258005D01*
X111521750Y-117325705D01*
X111486408Y-117389197D01*
X111440967Y-117448483D01*
X111423576Y-117467309D01*
X111367477Y-117517278D01*
X111305607Y-117556908D01*
X111237967Y-117586200D01*
X111164557Y-117605154D01*
X111085376Y-117613769D01*
X111057700Y-117614344D01*
G37*
G36*
X115467017Y-123945362D02*
G01*
X115384771Y-123944414D01*
X115303874Y-123941569D01*
X115224326Y-123936827D01*
X115146127Y-123930189D01*
X115069278Y-123921654D01*
X114993777Y-123911222D01*
X114919625Y-123898893D01*
X114846823Y-123884668D01*
X114775369Y-123868546D01*
X114705265Y-123850527D01*
X114636510Y-123830612D01*
X114569103Y-123808800D01*
X114503046Y-123785091D01*
X114438338Y-123759486D01*
X114374979Y-123731984D01*
X114312969Y-123702585D01*
X114222904Y-123654870D01*
X114136716Y-123602768D01*
X114054405Y-123546278D01*
X113975971Y-123485400D01*
X113901414Y-123420134D01*
X113830734Y-123350480D01*
X113763930Y-123276439D01*
X113701003Y-123198010D01*
X113641954Y-123115193D01*
X113604741Y-123057544D01*
X113569251Y-122997945D01*
X113552153Y-122967414D01*
X113519648Y-122904910D01*
X113489241Y-122840496D01*
X113460931Y-122774171D01*
X113434718Y-122705937D01*
X113410601Y-122635792D01*
X113388582Y-122563738D01*
X113368660Y-122489773D01*
X113350835Y-122413899D01*
X113335108Y-122336114D01*
X113321477Y-122256419D01*
X113309943Y-122174815D01*
X113300506Y-122091300D01*
X113293166Y-122005875D01*
X113287924Y-121918540D01*
X113284778Y-121829295D01*
X113283730Y-121738140D01*
X113283730Y-118749584D01*
X113979578Y-118749584D01*
X113979578Y-121666332D01*
X113981167Y-121767131D01*
X113985936Y-121864791D01*
X113993883Y-121959312D01*
X114005009Y-122050694D01*
X114019315Y-122138938D01*
X114036799Y-122224042D01*
X114057462Y-122306007D01*
X114081305Y-122384834D01*
X114108326Y-122460521D01*
X114138526Y-122533070D01*
X114171905Y-122602480D01*
X114208464Y-122668751D01*
X114248201Y-122731883D01*
X114291117Y-122791876D01*
X114337212Y-122848730D01*
X114386486Y-122902445D01*
X114438659Y-122952962D01*
X114493449Y-123000219D01*
X114550858Y-123044217D01*
X114610884Y-123084956D01*
X114673529Y-123122436D01*
X114738791Y-123156656D01*
X114806672Y-123187618D01*
X114877170Y-123215321D01*
X114950286Y-123239764D01*
X115026021Y-123260948D01*
X115104373Y-123278873D01*
X115185343Y-123293539D01*
X115268932Y-123304946D01*
X115355138Y-123313094D01*
X115443962Y-123317983D01*
X115535405Y-123319612D01*
X115634801Y-123317659D01*
X115731673Y-123311798D01*
X115826020Y-123302031D01*
X115917843Y-123288357D01*
X116007141Y-123270776D01*
X116093915Y-123249287D01*
X116178165Y-123223892D01*
X116259890Y-123194590D01*
X116339090Y-123161381D01*
X116415766Y-123124266D01*
X116465481Y-123097351D01*
X116537940Y-123053934D01*
X116607213Y-123007031D01*
X116673300Y-122956642D01*
X116736202Y-122902766D01*
X116795918Y-122845404D01*
X116852448Y-122784556D01*
X116905792Y-122720222D01*
X116955951Y-122652402D01*
X117002925Y-122581095D01*
X117046712Y-122506303D01*
X117074134Y-122454504D01*
X117112633Y-122374232D01*
X117147344Y-122291134D01*
X117178269Y-122205212D01*
X117205407Y-122116464D01*
X117228759Y-122024892D01*
X117248324Y-121930494D01*
X117264101Y-121833272D01*
X117276093Y-121733224D01*
X117281983Y-121664957D01*
X117286191Y-121595433D01*
X117288715Y-121524654D01*
X117289557Y-121452620D01*
X117289557Y-118749584D01*
X117985405Y-118749584D01*
X117985405Y-123899201D01*
X117316912Y-123899201D01*
X117316912Y-122490408D01*
X117424623Y-122746863D01*
X117393207Y-122816219D01*
X117359654Y-122883665D01*
X117323964Y-122949202D01*
X117286137Y-123012828D01*
X117246173Y-123074544D01*
X117204072Y-123134350D01*
X117159833Y-123192246D01*
X117113458Y-123248232D01*
X117064945Y-123302308D01*
X117014295Y-123354474D01*
X116961508Y-123404730D01*
X116906584Y-123453076D01*
X116849523Y-123499511D01*
X116790324Y-123544037D01*
X116728989Y-123586653D01*
X116665516Y-123627358D01*
X116600528Y-123665867D01*
X116534217Y-123701890D01*
X116466583Y-123735430D01*
X116397628Y-123766485D01*
X116327350Y-123795056D01*
X116255749Y-123821142D01*
X116182826Y-123844744D01*
X116108581Y-123865861D01*
X116033014Y-123884494D01*
X115956124Y-123900643D01*
X115877912Y-123914307D01*
X115798378Y-123925487D01*
X115717521Y-123934183D01*
X115635342Y-123940394D01*
X115551840Y-123944120D01*
X115467017Y-123945362D01*
G37*
G36*
X119922495Y-123899201D02*
G01*
X119922495Y-116627847D01*
X120618342Y-116627847D01*
X120618342Y-123899201D01*
X119922495Y-123899201D01*
G37*
G36*
X127315030Y-118704738D02*
G01*
X127407588Y-118708685D01*
X127498876Y-118715263D01*
X127588896Y-118724473D01*
X127677647Y-118736314D01*
X127765129Y-118750786D01*
X127851342Y-118767890D01*
X127936286Y-118787625D01*
X128019961Y-118809991D01*
X128102367Y-118834989D01*
X128183504Y-118862618D01*
X128263373Y-118892879D01*
X128341972Y-118925770D01*
X128419302Y-118961293D01*
X128495364Y-118999448D01*
X128570157Y-119040233D01*
X128643527Y-119083103D01*
X128714894Y-119127936D01*
X128784257Y-119174732D01*
X128851616Y-119223492D01*
X128916972Y-119274215D01*
X128980324Y-119326902D01*
X129041673Y-119381552D01*
X129101019Y-119438166D01*
X129158360Y-119496743D01*
X129213699Y-119557284D01*
X129267033Y-119619788D01*
X129318364Y-119684256D01*
X129367692Y-119750687D01*
X129415016Y-119819082D01*
X129460336Y-119889440D01*
X129503653Y-119961762D01*
X129544646Y-120035793D01*
X129582994Y-120111280D01*
X129618697Y-120188223D01*
X129651756Y-120266622D01*
X129682170Y-120346477D01*
X129709939Y-120427788D01*
X129735064Y-120510555D01*
X129757543Y-120594778D01*
X129777379Y-120680457D01*
X129794569Y-120767591D01*
X129809115Y-120856182D01*
X129821016Y-120946228D01*
X129830272Y-121037730D01*
X129836884Y-121130689D01*
X129840851Y-121225103D01*
X129842174Y-121320973D01*
X129840851Y-121415634D01*
X129836884Y-121508987D01*
X129830272Y-121601030D01*
X129821016Y-121691764D01*
X129809115Y-121781189D01*
X129794569Y-121869306D01*
X129777379Y-121956113D01*
X129757543Y-122041612D01*
X129735064Y-122125801D01*
X129709939Y-122208681D01*
X129682170Y-122290253D01*
X129651756Y-122370515D01*
X129618697Y-122449468D01*
X129582994Y-122527113D01*
X129544646Y-122603448D01*
X129503653Y-122678475D01*
X129460536Y-122751631D01*
X129415390Y-122822784D01*
X129368213Y-122891933D01*
X129319005Y-122959079D01*
X129267768Y-123024221D01*
X129214500Y-123087360D01*
X129159202Y-123148495D01*
X129101873Y-123207627D01*
X129042515Y-123264755D01*
X128981126Y-123319879D01*
X128917707Y-123373000D01*
X128852257Y-123424118D01*
X128784778Y-123473231D01*
X128715268Y-123520342D01*
X128643727Y-123565448D01*
X128570157Y-123608552D01*
X128494963Y-123649337D01*
X128418554Y-123687492D01*
X128340930Y-123723015D01*
X128262090Y-123755906D01*
X128182035Y-123786167D01*
X128100764Y-123813796D01*
X128018278Y-123838793D01*
X127934576Y-123861160D01*
X127849659Y-123880895D01*
X127763526Y-123897998D01*
X127676177Y-123912471D01*
X127587614Y-123924312D01*
X127497834Y-123933521D01*
X127406840Y-123940100D01*
X127314629Y-123944047D01*
X127221204Y-123945362D01*
X127127591Y-123944047D01*
X127035247Y-123940100D01*
X126944172Y-123933521D01*
X126854366Y-123924312D01*
X126765829Y-123912471D01*
X126678561Y-123897998D01*
X126592562Y-123880895D01*
X126507831Y-123861160D01*
X126424370Y-123838793D01*
X126342177Y-123813796D01*
X126261254Y-123786167D01*
X126181599Y-123755906D01*
X126103213Y-123723015D01*
X126026097Y-123687492D01*
X125950249Y-123649337D01*
X125875670Y-123608552D01*
X125802901Y-123565442D01*
X125732055Y-123520315D01*
X125663133Y-123473171D01*
X125596134Y-123424011D01*
X125531058Y-123372833D01*
X125467906Y-123319639D01*
X125406678Y-123264428D01*
X125347372Y-123207199D01*
X125289991Y-123147954D01*
X125234532Y-123086692D01*
X125180997Y-123023413D01*
X125129386Y-122958118D01*
X125079698Y-122890805D01*
X125031933Y-122821475D01*
X124986091Y-122750129D01*
X124942174Y-122676765D01*
X124900767Y-122601745D01*
X124862031Y-122525430D01*
X124825967Y-122447819D01*
X124792575Y-122368912D01*
X124761854Y-122288710D01*
X124733804Y-122207212D01*
X124708426Y-122124418D01*
X124685719Y-122040329D01*
X124665683Y-121954944D01*
X124648319Y-121868264D01*
X124633626Y-121780288D01*
X124621605Y-121691016D01*
X124612255Y-121600449D01*
X124605576Y-121508586D01*
X124601569Y-121415427D01*
X124600234Y-121320973D01*
X125301211Y-121320973D01*
X125302206Y-121395011D01*
X125305191Y-121467954D01*
X125310166Y-121539801D01*
X125317132Y-121610553D01*
X125326088Y-121680210D01*
X125337034Y-121748772D01*
X125349970Y-121816238D01*
X125373106Y-121915384D01*
X125400720Y-122012066D01*
X125432812Y-122106283D01*
X125469382Y-122198036D01*
X125510430Y-122287324D01*
X125555956Y-122374148D01*
X125605268Y-122457631D01*
X125657676Y-122537538D01*
X125713180Y-122613868D01*
X125771779Y-122686623D01*
X125833473Y-122755800D01*
X125898263Y-122821402D01*
X125966149Y-122883427D01*
X126037129Y-122941875D01*
X126111206Y-122996748D01*
X126188378Y-123048044D01*
X126241545Y-123080254D01*
X126323656Y-123125169D01*
X126407780Y-123165666D01*
X126493918Y-123201745D01*
X126582070Y-123233406D01*
X126672235Y-123260649D01*
X126764413Y-123283475D01*
X126858605Y-123301882D01*
X126954811Y-123315872D01*
X127053030Y-123325444D01*
X127153263Y-123330598D01*
X127221204Y-123331580D01*
X127289772Y-123330598D01*
X127390896Y-123325444D01*
X127489947Y-123315872D01*
X127586924Y-123301882D01*
X127681827Y-123283475D01*
X127774657Y-123260649D01*
X127865413Y-123233406D01*
X127954095Y-123201745D01*
X128040704Y-123165666D01*
X128125239Y-123125169D01*
X128207700Y-123080254D01*
X128287502Y-123031342D01*
X128364058Y-122978854D01*
X128437368Y-122922790D01*
X128507432Y-122863149D01*
X128574251Y-122799932D01*
X128637824Y-122733138D01*
X128698151Y-122662769D01*
X128755232Y-122588822D01*
X128809067Y-122511300D01*
X128859657Y-122430201D01*
X128891580Y-122374148D01*
X128936190Y-122287324D01*
X128976411Y-122198036D01*
X129012244Y-122106283D01*
X129043690Y-122012066D01*
X129070748Y-121915384D01*
X129093418Y-121816238D01*
X129106094Y-121748772D01*
X129116820Y-121680210D01*
X129125596Y-121610553D01*
X129132421Y-121539801D01*
X129137296Y-121467954D01*
X129140222Y-121395011D01*
X129141197Y-121320973D01*
X129140222Y-121245927D01*
X129137296Y-121172096D01*
X129132421Y-121099480D01*
X129125596Y-121028080D01*
X129116820Y-120957896D01*
X129106094Y-120888926D01*
X129093418Y-120821173D01*
X129070748Y-120721822D01*
X129043690Y-120625205D01*
X129012244Y-120531324D01*
X128976411Y-120440177D01*
X128936190Y-120351765D01*
X128891580Y-120266088D01*
X128843154Y-120183246D01*
X128791483Y-120103981D01*
X128736565Y-120028291D01*
X128678402Y-119956178D01*
X128616993Y-119887642D01*
X128552339Y-119822681D01*
X128484438Y-119761298D01*
X128413292Y-119703490D01*
X128338900Y-119649259D01*
X128261262Y-119598604D01*
X128207700Y-119566821D01*
X128125269Y-119522212D01*
X128040824Y-119481990D01*
X127954366Y-119446157D01*
X127865894Y-119414711D01*
X127775408Y-119387653D01*
X127682909Y-119364983D01*
X127588397Y-119346700D01*
X127491870Y-119332806D01*
X127393331Y-119323299D01*
X127292777Y-119318180D01*
X127224623Y-119317205D01*
X127122437Y-119319399D01*
X127022324Y-119325980D01*
X126924285Y-119336950D01*
X126828320Y-119352307D01*
X126734428Y-119372052D01*
X126642610Y-119396185D01*
X126552866Y-119424705D01*
X126465196Y-119457614D01*
X126379599Y-119494910D01*
X126296076Y-119536594D01*
X126241545Y-119566821D01*
X126162310Y-119615092D01*
X126086170Y-119666939D01*
X126013125Y-119722362D01*
X125943176Y-119781362D01*
X125876323Y-119843938D01*
X125812564Y-119910090D01*
X125751902Y-119979819D01*
X125694335Y-120053124D01*
X125639863Y-120130005D01*
X125588487Y-120210463D01*
X125555956Y-120266088D01*
X125510430Y-120351765D01*
X125469382Y-120440177D01*
X125432812Y-120531324D01*
X125400720Y-120625205D01*
X125373106Y-120721822D01*
X125349970Y-120821173D01*
X125337034Y-120888926D01*
X125326088Y-120957896D01*
X125317132Y-121028080D01*
X125310166Y-121099480D01*
X125305191Y-121172096D01*
X125302206Y-121245927D01*
X125301211Y-121320973D01*
X124600234Y-121320973D01*
X124601576Y-121225510D01*
X124605603Y-121131463D01*
X124612315Y-121038832D01*
X124621712Y-120947617D01*
X124633793Y-120857818D01*
X124648559Y-120769434D01*
X124666010Y-120682467D01*
X124686146Y-120596915D01*
X124708966Y-120512779D01*
X124734472Y-120430059D01*
X124762662Y-120348755D01*
X124793537Y-120268866D01*
X124827096Y-120190394D01*
X124863340Y-120113337D01*
X124902269Y-120037696D01*
X124943883Y-119963471D01*
X124987794Y-119890943D01*
X125033616Y-119820391D01*
X125081347Y-119751816D01*
X125130989Y-119685218D01*
X125182540Y-119620596D01*
X125236002Y-119557952D01*
X125291373Y-119497284D01*
X125348655Y-119438593D01*
X125407846Y-119381879D01*
X125468948Y-119327142D01*
X125531960Y-119274382D01*
X125596882Y-119223599D01*
X125663714Y-119174792D01*
X125732456Y-119127962D01*
X125803108Y-119083109D01*
X125875670Y-119040233D01*
X125950048Y-118999448D01*
X126025723Y-118961293D01*
X126102692Y-118925770D01*
X126180958Y-118892879D01*
X126260519Y-118862618D01*
X126341376Y-118834989D01*
X126423528Y-118809991D01*
X126506976Y-118787625D01*
X126591720Y-118767890D01*
X126677759Y-118750786D01*
X126765094Y-118736314D01*
X126853725Y-118724473D01*
X126943651Y-118715263D01*
X127034873Y-118708685D01*
X127127390Y-118704738D01*
X127221204Y-118703422D01*
X127315030Y-118704738D01*
G37*
G36*
X126414549Y-116891656D02*
G01*
X126483481Y-116908591D01*
X126547505Y-116936817D01*
X126606620Y-116976332D01*
X126638196Y-117003981D01*
X126686827Y-117058783D01*
X126723514Y-117119966D01*
X126748256Y-117187531D01*
X126761054Y-117261478D01*
X126763004Y-117306598D01*
X126757032Y-117383021D01*
X126739115Y-117453719D01*
X126709254Y-117518689D01*
X126667448Y-117577932D01*
X126638196Y-117609214D01*
X126581886Y-117655847D01*
X126520667Y-117691026D01*
X126454540Y-117714752D01*
X126383504Y-117727023D01*
X126340708Y-117728893D01*
X126268702Y-117723167D01*
X126200787Y-117705986D01*
X126136962Y-117677352D01*
X126077227Y-117637264D01*
X126044930Y-117609214D01*
X125996299Y-117553243D01*
X125959612Y-117491546D01*
X125934870Y-117424121D01*
X125922072Y-117350970D01*
X125920122Y-117306598D01*
X125926094Y-117229005D01*
X125944011Y-117157794D01*
X125973872Y-117092964D01*
X126015678Y-117034515D01*
X126044930Y-117003981D01*
X126102327Y-116958014D01*
X126163814Y-116923338D01*
X126229392Y-116899951D01*
X126299061Y-116887855D01*
X126340708Y-116886011D01*
X126414549Y-116891656D01*
G37*
G36*
X128166992Y-116891656D02*
G01*
X128235924Y-116908591D01*
X128299947Y-116936817D01*
X128359062Y-116976332D01*
X128390638Y-117003981D01*
X128438603Y-117058783D01*
X128474788Y-117119966D01*
X128499191Y-117187531D01*
X128511813Y-117261478D01*
X128513737Y-117306598D01*
X128507846Y-117383021D01*
X128490175Y-117453719D01*
X128460723Y-117518689D01*
X128419489Y-117577932D01*
X128390638Y-117609214D01*
X128334328Y-117655847D01*
X128273110Y-117691026D01*
X128206982Y-117714752D01*
X128135946Y-117727023D01*
X128093151Y-117728893D01*
X128020478Y-117723167D01*
X127952060Y-117705986D01*
X127887896Y-117677352D01*
X127827987Y-117637264D01*
X127795663Y-117609214D01*
X127747031Y-117553243D01*
X127710345Y-117491546D01*
X127685602Y-117424121D01*
X127672805Y-117350970D01*
X127670855Y-117306598D01*
X127676827Y-117229005D01*
X127694744Y-117157794D01*
X127724605Y-117092964D01*
X127766411Y-117034515D01*
X127795663Y-117003981D01*
X127853141Y-116958014D01*
X127914874Y-116923338D01*
X127980861Y-116899951D01*
X128051103Y-116887855D01*
X128093151Y-116886011D01*
X128166992Y-116891656D01*
G37*
G36*
X133883904Y-118703422D02*
G01*
X133962357Y-118704371D01*
X134039567Y-118707216D01*
X134115535Y-118711958D01*
X134190261Y-118718596D01*
X134263745Y-118727131D01*
X134335986Y-118737563D01*
X134406986Y-118749892D01*
X134476743Y-118764117D01*
X134545258Y-118780239D01*
X134612530Y-118798257D01*
X134678561Y-118818173D01*
X134775277Y-118851602D01*
X134869199Y-118889299D01*
X134960326Y-118931263D01*
X134990080Y-118946200D01*
X135077074Y-118993899D01*
X135160462Y-119045957D01*
X135240244Y-119102372D01*
X135316419Y-119163145D01*
X135388988Y-119228275D01*
X135457950Y-119297764D01*
X135523306Y-119371610D01*
X135585056Y-119449813D01*
X135643199Y-119532375D01*
X135697736Y-119619294D01*
X135732090Y-119679661D01*
X135764801Y-119741771D01*
X135795402Y-119805858D01*
X135823893Y-119871922D01*
X135850273Y-119939963D01*
X135874543Y-120009980D01*
X135896702Y-120081975D01*
X135916751Y-120155946D01*
X135934689Y-120231894D01*
X135950517Y-120309819D01*
X135964235Y-120389721D01*
X135975842Y-120471599D01*
X135985339Y-120555455D01*
X135992726Y-120641287D01*
X135998002Y-120729096D01*
X136001167Y-120818882D01*
X136002222Y-120910645D01*
X136002222Y-123899201D01*
X135306375Y-123899201D01*
X135306375Y-120982452D01*
X135304792Y-120881654D01*
X135300043Y-120783994D01*
X135292129Y-120689473D01*
X135281050Y-120598091D01*
X135266804Y-120509847D01*
X135249393Y-120424743D01*
X135228817Y-120342778D01*
X135205075Y-120263951D01*
X135178167Y-120188263D01*
X135148094Y-120115715D01*
X135114855Y-120046305D01*
X135078450Y-119980034D01*
X135038880Y-119916902D01*
X134996144Y-119856909D01*
X134950243Y-119800055D01*
X134901176Y-119746339D01*
X134849237Y-119695616D01*
X134794720Y-119648165D01*
X134737625Y-119603987D01*
X134677953Y-119563081D01*
X134615702Y-119525447D01*
X134550874Y-119491087D01*
X134483468Y-119459998D01*
X134413484Y-119432182D01*
X134340922Y-119407638D01*
X134265782Y-119386367D01*
X134188064Y-119368369D01*
X134107768Y-119353643D01*
X134024894Y-119342189D01*
X133939443Y-119334008D01*
X133851413Y-119329099D01*
X133760806Y-119327463D01*
X133658830Y-119329416D01*
X133559348Y-119335277D01*
X133462361Y-119345044D01*
X133367869Y-119358718D01*
X133275870Y-119376300D01*
X133186367Y-119397788D01*
X133099357Y-119423183D01*
X133014842Y-119452485D01*
X132932822Y-119485694D01*
X132853296Y-119522809D01*
X132801664Y-119549724D01*
X132727022Y-119593111D01*
X132655685Y-119639924D01*
X132587654Y-119690163D01*
X132522930Y-119743828D01*
X132461511Y-119800920D01*
X132403398Y-119861437D01*
X132348590Y-119925380D01*
X132297089Y-119992750D01*
X132248893Y-120063545D01*
X132204004Y-120137767D01*
X132175914Y-120189152D01*
X132136805Y-120268583D01*
X132101542Y-120351079D01*
X132070126Y-120436641D01*
X132042557Y-120525268D01*
X132018835Y-120616961D01*
X131998960Y-120711719D01*
X131982932Y-120809542D01*
X131970750Y-120910431D01*
X131964766Y-120979394D01*
X131960492Y-121049718D01*
X131957927Y-121121406D01*
X131957072Y-121194455D01*
X131957072Y-123899201D01*
X131261224Y-123899201D01*
X131261224Y-118749584D01*
X131929717Y-118749584D01*
X131929717Y-120161796D01*
X131822006Y-119905341D01*
X131853909Y-119835571D01*
X131888070Y-119767737D01*
X131924488Y-119701840D01*
X131963163Y-119637880D01*
X132004096Y-119575857D01*
X132047286Y-119515770D01*
X132092733Y-119457620D01*
X132140438Y-119401407D01*
X132190400Y-119347131D01*
X132242619Y-119294792D01*
X132297096Y-119244389D01*
X132353830Y-119195923D01*
X132412821Y-119149394D01*
X132474070Y-119104801D01*
X132537576Y-119062146D01*
X132603339Y-119021427D01*
X132671052Y-118982918D01*
X132740409Y-118946894D01*
X132811408Y-118913355D01*
X132884050Y-118882300D01*
X132958335Y-118853729D01*
X133034263Y-118827643D01*
X133111834Y-118804041D01*
X133191048Y-118782923D01*
X133271905Y-118764290D01*
X133354405Y-118748142D01*
X133438547Y-118734478D01*
X133524333Y-118723298D01*
X133611761Y-118714602D01*
X133700833Y-118708391D01*
X133791547Y-118704665D01*
X133883904Y-118703422D01*
G37*
G36*
X139264330Y-123945362D02*
G01*
X139184675Y-123944654D01*
X139105568Y-123942531D01*
X139027009Y-123938991D01*
X138948997Y-123934036D01*
X138871533Y-123927664D01*
X138794617Y-123919877D01*
X138718248Y-123910674D01*
X138642427Y-123900055D01*
X138567153Y-123888021D01*
X138492427Y-123874570D01*
X138418249Y-123859704D01*
X138344618Y-123843422D01*
X138271535Y-123825723D01*
X138199000Y-123806610D01*
X138127012Y-123786080D01*
X138055572Y-123764134D01*
X137985387Y-123740926D01*
X137917166Y-123717037D01*
X137850909Y-123692467D01*
X137786615Y-123667216D01*
X137693855Y-123628061D01*
X137605514Y-123587374D01*
X137521590Y-123545154D01*
X137442084Y-123501401D01*
X137366995Y-123456116D01*
X137296325Y-123409298D01*
X137230072Y-123360947D01*
X137168238Y-123311064D01*
X137474274Y-122758831D01*
X137534501Y-122803720D01*
X137597853Y-122847348D01*
X137664331Y-122889713D01*
X137733935Y-122930816D01*
X137806664Y-122970656D01*
X137882518Y-123009235D01*
X137961498Y-123046551D01*
X138043604Y-123082605D01*
X138128835Y-123117397D01*
X138217192Y-123150926D01*
X138277833Y-123172578D01*
X138370272Y-123202827D01*
X138463583Y-123230100D01*
X138557765Y-123254398D01*
X138652818Y-123275721D01*
X138748743Y-123294069D01*
X138845540Y-123309441D01*
X138943208Y-123321838D01*
X139041748Y-123331260D01*
X139141160Y-123337706D01*
X139241443Y-123341177D01*
X139308782Y-123341838D01*
X139399076Y-123340943D01*
X139486163Y-123338259D01*
X139570046Y-123333784D01*
X139650722Y-123327520D01*
X139728193Y-123319465D01*
X139802458Y-123309621D01*
X139873517Y-123297987D01*
X139941371Y-123284563D01*
X140037141Y-123261072D01*
X140125698Y-123233553D01*
X140207042Y-123202007D01*
X140281174Y-123166434D01*
X140348093Y-123126834D01*
X140368796Y-123112739D01*
X140427155Y-123068124D01*
X140479773Y-123020835D01*
X140526651Y-122970872D01*
X140580226Y-122900093D01*
X140623596Y-122824559D01*
X140656762Y-122744270D01*
X140679723Y-122659226D01*
X140692479Y-122569426D01*
X140695349Y-122498956D01*
X140692517Y-122429526D01*
X140681013Y-122348224D01*
X140660660Y-122273015D01*
X140631459Y-122203901D01*
X140593408Y-122140881D01*
X140546508Y-122083955D01*
X140514121Y-122052725D01*
X140454648Y-122004380D01*
X140389499Y-121959793D01*
X140318674Y-121918962D01*
X140242171Y-121881888D01*
X140176882Y-121854934D01*
X140107960Y-121830383D01*
X140035405Y-121808237D01*
X139960071Y-121787320D01*
X139882814Y-121767312D01*
X139803633Y-121748211D01*
X139722529Y-121730019D01*
X139639502Y-121712735D01*
X139554551Y-121696359D01*
X139467677Y-121680892D01*
X139378880Y-121666332D01*
X139289521Y-121651453D01*
X139200109Y-121635878D01*
X139110644Y-121619609D01*
X139021125Y-121602646D01*
X138953951Y-121589468D01*
X138886747Y-121575899D01*
X138819512Y-121561939D01*
X138752248Y-121547588D01*
X138684954Y-121532847D01*
X138662515Y-121527847D01*
X138595737Y-121511858D01*
X138508382Y-121488671D01*
X138422950Y-121463346D01*
X138339442Y-121435884D01*
X138257858Y-121406284D01*
X138178196Y-121374548D01*
X138100458Y-121340675D01*
X138024644Y-121304664D01*
X138005991Y-121295328D01*
X137933435Y-121255951D01*
X137864513Y-121213048D01*
X137799224Y-121166619D01*
X137737568Y-121116664D01*
X137679545Y-121063182D01*
X137625155Y-121006175D01*
X137574398Y-120945640D01*
X137527275Y-120881580D01*
X137485200Y-120812631D01*
X137448735Y-120738286D01*
X137417881Y-120658544D01*
X137392636Y-120573407D01*
X137377384Y-120506012D01*
X137365287Y-120435582D01*
X137356346Y-120362117D01*
X137350561Y-120285616D01*
X137347932Y-120206080D01*
X137347756Y-120178893D01*
X137349845Y-120099883D01*
X137356111Y-120022496D01*
X137366555Y-119946732D01*
X137381176Y-119872590D01*
X137399974Y-119800071D01*
X137422950Y-119729176D01*
X137450103Y-119659903D01*
X137481433Y-119592253D01*
X137516941Y-119526226D01*
X137556627Y-119461821D01*
X137585405Y-119419787D01*
X137632178Y-119358523D01*
X137682737Y-119299754D01*
X137737084Y-119243479D01*
X137795217Y-119189698D01*
X137857137Y-119138412D01*
X137922843Y-119089621D01*
X137992336Y-119043324D01*
X138065616Y-118999521D01*
X138142683Y-118958213D01*
X138223537Y-118919399D01*
X138279543Y-118894909D01*
X138366878Y-118860688D01*
X138457699Y-118829833D01*
X138552006Y-118802345D01*
X138649800Y-118778222D01*
X138716932Y-118764010D01*
X138785614Y-118751294D01*
X138855845Y-118740074D01*
X138927626Y-118730350D01*
X139000956Y-118722122D01*
X139075835Y-118715390D01*
X139152264Y-118710154D01*
X139230243Y-118706414D01*
X139309770Y-118704170D01*
X139390848Y-118703422D01*
X139484178Y-118704579D01*
X139577599Y-118708051D01*
X139671110Y-118713836D01*
X139764711Y-118721935D01*
X139858402Y-118732349D01*
X139952184Y-118745076D01*
X140046055Y-118760118D01*
X140140017Y-118777474D01*
X140234069Y-118797144D01*
X140328211Y-118819128D01*
X140391022Y-118835069D01*
X140483646Y-118860259D01*
X140573025Y-118887102D01*
X140659158Y-118915597D01*
X140742045Y-118945746D01*
X140821686Y-118977547D01*
X140898082Y-119011001D01*
X140971231Y-119046109D01*
X141041136Y-119082869D01*
X141107794Y-119121282D01*
X141171206Y-119161348D01*
X141211678Y-119188977D01*
X140903932Y-119739501D01*
X140840284Y-119697060D01*
X140775644Y-119656934D01*
X140710013Y-119619122D01*
X140643390Y-119583624D01*
X140575775Y-119550440D01*
X140507168Y-119519570D01*
X140437570Y-119491015D01*
X140366979Y-119464773D01*
X140295397Y-119440846D01*
X140222824Y-119419232D01*
X140173890Y-119406109D01*
X140100435Y-119388082D01*
X140026889Y-119371828D01*
X139953254Y-119357348D01*
X139879528Y-119344640D01*
X139805712Y-119333706D01*
X139731806Y-119324544D01*
X139657810Y-119317156D01*
X139583723Y-119311541D01*
X139509547Y-119307699D01*
X139435280Y-119305631D01*
X139385719Y-119305237D01*
X139301002Y-119306178D01*
X139219103Y-119309003D01*
X139140023Y-119313712D01*
X139063761Y-119320304D01*
X138990317Y-119328779D01*
X138919692Y-119339137D01*
X138851885Y-119351379D01*
X138755459Y-119373272D01*
X138665374Y-119399404D01*
X138581630Y-119429773D01*
X138504228Y-119464379D01*
X138433167Y-119503223D01*
X138368447Y-119546304D01*
X138310089Y-119592296D01*
X138257470Y-119640512D01*
X138210592Y-119690951D01*
X138157017Y-119761663D01*
X138113647Y-119836329D01*
X138080481Y-119914949D01*
X138057520Y-119997522D01*
X138044764Y-120084049D01*
X138041894Y-120151538D01*
X138044699Y-120224307D01*
X138053114Y-120293016D01*
X138071522Y-120373191D01*
X138098695Y-120447022D01*
X138134634Y-120514509D01*
X138179338Y-120575651D01*
X138221413Y-120619996D01*
X138280885Y-120670519D01*
X138346034Y-120717369D01*
X138416860Y-120760545D01*
X138477607Y-120792442D01*
X138541988Y-120821988D01*
X138610002Y-120849183D01*
X138681649Y-120874027D01*
X138700129Y-120879870D01*
X138775463Y-120902417D01*
X138852720Y-120923895D01*
X138931900Y-120944305D01*
X139013004Y-120963646D01*
X139096031Y-120981918D01*
X139180982Y-120999122D01*
X139267856Y-121015257D01*
X139356654Y-121030324D01*
X139446359Y-121044830D01*
X139535958Y-121060137D01*
X139625451Y-121076245D01*
X139714836Y-121093155D01*
X139804114Y-121110867D01*
X139893286Y-121129380D01*
X139982350Y-121148694D01*
X140049079Y-121163706D01*
X140071308Y-121168810D01*
X140159705Y-121189914D01*
X140246232Y-121213048D01*
X140330889Y-121238213D01*
X140413676Y-121265408D01*
X140494593Y-121294633D01*
X140573639Y-121325888D01*
X140650816Y-121359174D01*
X140726123Y-121394490D01*
X140798652Y-121432584D01*
X140867494Y-121474205D01*
X140932650Y-121519352D01*
X140994119Y-121568025D01*
X141051901Y-121620224D01*
X141105997Y-121675949D01*
X141156407Y-121735201D01*
X141203130Y-121797979D01*
X141245605Y-121864764D01*
X141282417Y-121936892D01*
X141313566Y-122014363D01*
X141339051Y-122097177D01*
X141358873Y-122185333D01*
X141370022Y-122254957D01*
X141377986Y-122327586D01*
X141382765Y-122403220D01*
X141384358Y-122481859D01*
X141382164Y-122563895D01*
X141375582Y-122643947D01*
X141364613Y-122722015D01*
X141349255Y-122798100D01*
X141329510Y-122872202D01*
X141305378Y-122944320D01*
X141276857Y-123014454D01*
X141243949Y-123082605D01*
X141206652Y-123148772D01*
X141164969Y-123212956D01*
X141134742Y-123254644D01*
X141085970Y-123315206D01*
X141033262Y-123373154D01*
X140976616Y-123428487D01*
X140916034Y-123481206D01*
X140851514Y-123531309D01*
X140783058Y-123578799D01*
X140710664Y-123623673D01*
X140634334Y-123665933D01*
X140554066Y-123705579D01*
X140469862Y-123742609D01*
X140411539Y-123765844D01*
X140321273Y-123797926D01*
X140227432Y-123826852D01*
X140130014Y-123852623D01*
X140063082Y-123868050D01*
X139994560Y-123882075D01*
X139924449Y-123894698D01*
X139852749Y-123905917D01*
X139779459Y-123915735D01*
X139704579Y-123924150D01*
X139628110Y-123931162D01*
X139550052Y-123936772D01*
X139470404Y-123940980D01*
X139389166Y-123943785D01*
X139306339Y-123945187D01*
X139264330Y-123945362D01*
G37*
G36*
X143212027Y-122562215D02*
G01*
X143227414Y-121676591D01*
X146429682Y-118749584D01*
X147291371Y-118749584D01*
X145024309Y-120924323D01*
X144629368Y-121252585D01*
X143212027Y-122562215D01*
G37*
G36*
X142661504Y-123899201D02*
G01*
X142661504Y-116627847D01*
X143357351Y-116627847D01*
X143357351Y-123899201D01*
X142661504Y-123899201D01*
G37*
G36*
X146650234Y-123899201D02*
G01*
X144501141Y-121225230D01*
X144957631Y-120679836D01*
X147505084Y-123899201D01*
X146650234Y-123899201D01*
G37*
G36*
X151676751Y-123899201D02*
G01*
X151676751Y-122765669D01*
X151649396Y-122570764D01*
X151649396Y-120676416D01*
X151647947Y-120594925D01*
X151643599Y-120515865D01*
X151636353Y-120439235D01*
X151626208Y-120365037D01*
X151613165Y-120293270D01*
X151597224Y-120223933D01*
X151578383Y-120157028D01*
X151544689Y-120061228D01*
X151504472Y-119970898D01*
X151457734Y-119886037D01*
X151404475Y-119806646D01*
X151344694Y-119732725D01*
X151278391Y-119664274D01*
X151206053Y-119601332D01*
X151127524Y-119544581D01*
X151042803Y-119494022D01*
X150951892Y-119449653D01*
X150887845Y-119423513D01*
X150821047Y-119400125D01*
X150751496Y-119379489D01*
X150679195Y-119361603D01*
X150604142Y-119346470D01*
X150526337Y-119334088D01*
X150445781Y-119324458D01*
X150362473Y-119317579D01*
X150276414Y-119313451D01*
X150187603Y-119312076D01*
X150093836Y-119313533D01*
X150001032Y-119317906D01*
X149909189Y-119325194D01*
X149818308Y-119335397D01*
X149728388Y-119348515D01*
X149639430Y-119364549D01*
X149551434Y-119383497D01*
X149464400Y-119405361D01*
X149378327Y-119430140D01*
X149293216Y-119457834D01*
X149237010Y-119477916D01*
X149154178Y-119509668D01*
X149073660Y-119543373D01*
X148995456Y-119579031D01*
X148919566Y-119616643D01*
X148845991Y-119656208D01*
X148774729Y-119697726D01*
X148705782Y-119741199D01*
X148639149Y-119786624D01*
X148574830Y-119834003D01*
X148512825Y-119883336D01*
X148472774Y-119917309D01*
X148163318Y-119402690D01*
X148237805Y-119341807D01*
X148315087Y-119283538D01*
X148395164Y-119227885D01*
X148478036Y-119174845D01*
X148563703Y-119124421D01*
X148652165Y-119076611D01*
X148743422Y-119031416D01*
X148805813Y-119002738D01*
X148869446Y-118975223D01*
X148934321Y-118948870D01*
X149000438Y-118923678D01*
X149067798Y-118899649D01*
X149101943Y-118888070D01*
X149170959Y-118865710D01*
X149240376Y-118844793D01*
X149310193Y-118825319D01*
X149380411Y-118807287D01*
X149451029Y-118790697D01*
X149522049Y-118775550D01*
X149593469Y-118761846D01*
X149665289Y-118749584D01*
X149737511Y-118738765D01*
X149810133Y-118729388D01*
X149883156Y-118721454D01*
X149956580Y-118714963D01*
X150030404Y-118709914D01*
X150104629Y-118706308D01*
X150179255Y-118704144D01*
X150254281Y-118703422D01*
X150378134Y-118705366D01*
X150498367Y-118711196D01*
X150614981Y-118720913D01*
X150727975Y-118734518D01*
X150837349Y-118752009D01*
X150943103Y-118773387D01*
X151045238Y-118798651D01*
X151143752Y-118827803D01*
X151238647Y-118860842D01*
X151329923Y-118897767D01*
X151417578Y-118938580D01*
X151501614Y-118983279D01*
X151582030Y-119031865D01*
X151658826Y-119084338D01*
X151732003Y-119140698D01*
X151801559Y-119200945D01*
X151867396Y-119265126D01*
X151928986Y-119333287D01*
X151986327Y-119405428D01*
X152039421Y-119481550D01*
X152088268Y-119561652D01*
X152132867Y-119645734D01*
X152173219Y-119733797D01*
X152209323Y-119825840D01*
X152241179Y-119921864D01*
X152268788Y-120021868D01*
X152292150Y-120125853D01*
X152311264Y-120233818D01*
X152326130Y-120345763D01*
X152336749Y-120461689D01*
X152343120Y-120581595D01*
X152345244Y-120705481D01*
X152345244Y-123899201D01*
X151676751Y-123899201D01*
G37*
G36*
X149902083Y-123945362D02*
G01*
X149830242Y-123944634D01*
X149759617Y-123942451D01*
X149690207Y-123938811D01*
X149588371Y-123930621D01*
X149489270Y-123919156D01*
X149392904Y-123904415D01*
X149299273Y-123886398D01*
X149208377Y-123865105D01*
X149120216Y-123840536D01*
X149034789Y-123812692D01*
X148952097Y-123781572D01*
X148898489Y-123759005D01*
X148820716Y-123722405D01*
X148746399Y-123683130D01*
X148675538Y-123641181D01*
X148608134Y-123596557D01*
X148544185Y-123549258D01*
X148483693Y-123499284D01*
X148426657Y-123446636D01*
X148373077Y-123391313D01*
X148322953Y-123333315D01*
X148276285Y-123272642D01*
X148247093Y-123230708D01*
X148206456Y-123166058D01*
X148169816Y-123099695D01*
X148137173Y-123031620D01*
X148108527Y-122961831D01*
X148083879Y-122890329D01*
X148063227Y-122817114D01*
X148046573Y-122742186D01*
X148033915Y-122665545D01*
X148025255Y-122587191D01*
X148020591Y-122507124D01*
X148019703Y-122452794D01*
X148021371Y-122378092D01*
X148026375Y-122304652D01*
X148034715Y-122232473D01*
X148046391Y-122161558D01*
X148061402Y-122091904D01*
X148079750Y-122023513D01*
X148101433Y-121956384D01*
X148126453Y-121890517D01*
X148154808Y-121825912D01*
X148186499Y-121762570D01*
X148209480Y-121721043D01*
X148247532Y-121659994D01*
X148289883Y-121601230D01*
X148336530Y-121544750D01*
X148387476Y-121490554D01*
X148442719Y-121438642D01*
X148502259Y-121389014D01*
X148566098Y-121341670D01*
X148634233Y-121296610D01*
X148706667Y-121253834D01*
X148783398Y-121213342D01*
X148836940Y-121187616D01*
X148921635Y-121151257D01*
X149011590Y-121118474D01*
X149106804Y-121089267D01*
X149173201Y-121071783D01*
X149241937Y-121055888D01*
X149313009Y-121041582D01*
X149386420Y-121028866D01*
X149462167Y-121017740D01*
X149540253Y-121008203D01*
X149620675Y-121000256D01*
X149703435Y-120993898D01*
X149788533Y-120989129D01*
X149875968Y-120985950D01*
X149965741Y-120984361D01*
X150011504Y-120984162D01*
X151784462Y-120984162D01*
X151784462Y-121503911D01*
X150035439Y-121503911D01*
X149943430Y-121504946D01*
X149855039Y-121508052D01*
X149770269Y-121513227D01*
X149689118Y-121520474D01*
X149611587Y-121529790D01*
X149537676Y-121541177D01*
X149467385Y-121554634D01*
X149400713Y-121570162D01*
X149307493Y-121597335D01*
X149222417Y-121629166D01*
X149145486Y-121665656D01*
X149076698Y-121706804D01*
X149016056Y-121752610D01*
X148997652Y-121768914D01*
X148946320Y-121819424D01*
X148900038Y-121872218D01*
X148858805Y-121927295D01*
X148811682Y-122004285D01*
X148773534Y-122085336D01*
X148744362Y-122170447D01*
X148728374Y-122236945D01*
X148717434Y-122305727D01*
X148711544Y-122376793D01*
X148710422Y-122425439D01*
X148713442Y-122507500D01*
X148722503Y-122586345D01*
X148737605Y-122661974D01*
X148758748Y-122734387D01*
X148785931Y-122803585D01*
X148819155Y-122869567D01*
X148858420Y-122932333D01*
X148903725Y-122991884D01*
X148955071Y-123048219D01*
X149012458Y-123101338D01*
X149054072Y-123134965D01*
X149120850Y-123182018D01*
X149192317Y-123224443D01*
X149268472Y-123262240D01*
X149349315Y-123295409D01*
X149434847Y-123323950D01*
X149525067Y-123347862D01*
X149619976Y-123367147D01*
X149719572Y-123381803D01*
X149788575Y-123389002D01*
X149859661Y-123394144D01*
X149932831Y-123397230D01*
X150008084Y-123398258D01*
X150081782Y-123397210D01*
X150154130Y-123394064D01*
X150225129Y-123388822D01*
X150294780Y-123381482D01*
X150363081Y-123372045D01*
X150463003Y-123353958D01*
X150559890Y-123331153D01*
X150653741Y-123303629D01*
X150744557Y-123271387D01*
X150832338Y-123234426D01*
X150917084Y-123192747D01*
X150998794Y-123146350D01*
X151025356Y-123129836D01*
X151102888Y-123077403D01*
X151176484Y-123020762D01*
X151246142Y-122959914D01*
X151311864Y-122894859D01*
X151373649Y-122825596D01*
X151431496Y-122752125D01*
X151485407Y-122674448D01*
X151535381Y-122592562D01*
X151581417Y-122506470D01*
X151623517Y-122416169D01*
X151649396Y-122353632D01*
X151803269Y-122832348D01*
X151764185Y-122926655D01*
X151720021Y-123017236D01*
X151670779Y-123104090D01*
X151616458Y-123187217D01*
X151557057Y-123266618D01*
X151492578Y-123342292D01*
X151423020Y-123414240D01*
X151348382Y-123482461D01*
X151268666Y-123546956D01*
X151212700Y-123587882D01*
X151154476Y-123627151D01*
X151124518Y-123646165D01*
X151063043Y-123682396D01*
X150999577Y-123716289D01*
X150934120Y-123747845D01*
X150866674Y-123777064D01*
X150797238Y-123803945D01*
X150725811Y-123828488D01*
X150652394Y-123850694D01*
X150576987Y-123870563D01*
X150499590Y-123888094D01*
X150420202Y-123903288D01*
X150338824Y-123916144D01*
X150255456Y-123926663D01*
X150170098Y-123934844D01*
X150082750Y-123940687D01*
X149993412Y-123944194D01*
X149902083Y-123945362D01*
G37*
G36*
X154232753Y-123899201D02*
G01*
X154232753Y-118749584D01*
X154901245Y-118749584D01*
X154901245Y-120156667D01*
X154831148Y-119910471D01*
X154859431Y-119838656D01*
X154889999Y-119768966D01*
X154922850Y-119701400D01*
X154957986Y-119635957D01*
X154995406Y-119572638D01*
X155035110Y-119511443D01*
X155077097Y-119452371D01*
X155121369Y-119395423D01*
X155167925Y-119340600D01*
X155216765Y-119287899D01*
X155267889Y-119237323D01*
X155321297Y-119188870D01*
X155376989Y-119142541D01*
X155434966Y-119098336D01*
X155495226Y-119056255D01*
X155557770Y-119016297D01*
X155622425Y-118978410D01*
X155689016Y-118942967D01*
X155757545Y-118909969D01*
X155828010Y-118879415D01*
X155900411Y-118851305D01*
X155974750Y-118825639D01*
X156051025Y-118802418D01*
X156129237Y-118781641D01*
X156209386Y-118763309D01*
X156291472Y-118747420D01*
X156375494Y-118733977D01*
X156461453Y-118722977D01*
X156549349Y-118714422D01*
X156639182Y-118708311D01*
X156730952Y-118704645D01*
X156824658Y-118703422D01*
X156824658Y-119382173D01*
X156755809Y-119376096D01*
X156740883Y-119375334D01*
X156672090Y-119371999D01*
X156658817Y-119371915D01*
X156559494Y-119373845D01*
X156462843Y-119379635D01*
X156368863Y-119389286D01*
X156277554Y-119402797D01*
X156188917Y-119420167D01*
X156102951Y-119441398D01*
X156019656Y-119466490D01*
X155939033Y-119495441D01*
X155861082Y-119528252D01*
X155785801Y-119564924D01*
X155713193Y-119605456D01*
X155643255Y-119649848D01*
X155575989Y-119698100D01*
X155511395Y-119750213D01*
X155449471Y-119806186D01*
X155390220Y-119866018D01*
X155334320Y-119929404D01*
X155282028Y-119996036D01*
X155233341Y-120065913D01*
X155188261Y-120139036D01*
X155146788Y-120215405D01*
X155108921Y-120295019D01*
X155074660Y-120377880D01*
X155044005Y-120463986D01*
X155016957Y-120553338D01*
X154993516Y-120645935D01*
X154973681Y-120741779D01*
X154957452Y-120840868D01*
X154944829Y-120943203D01*
X154935813Y-121048783D01*
X154930404Y-121157610D01*
X154928601Y-121269682D01*
X154928601Y-123899201D01*
X154232753Y-123899201D01*
G37*
D11*
X147084360Y-86309925D02*
X146655789Y-86309925D01*
X146870074Y-86309925D02*
X146870074Y-85559925D01*
X146870074Y-85559925D02*
X146798646Y-85667068D01*
X146798646Y-85667068D02*
X146727217Y-85738496D01*
X146727217Y-85738496D02*
X146655789Y-85774211D01*
X142603232Y-100480681D02*
X142174661Y-100480681D01*
X142388946Y-100480681D02*
X142388946Y-99730681D01*
X142388946Y-99730681D02*
X142317518Y-99837824D01*
X142317518Y-99837824D02*
X142246089Y-99909252D01*
X142246089Y-99909252D02*
X142174661Y-99944967D01*
D12*
X79553962Y-130562649D02*
X80461105Y-130562649D01*
X80461105Y-130562649D02*
X80642533Y-130623126D01*
X80642533Y-130623126D02*
X80763486Y-130744078D01*
X80763486Y-130744078D02*
X80823962Y-130925507D01*
X80823962Y-130925507D02*
X80823962Y-131046459D01*
X80823962Y-129292649D02*
X80823962Y-130018364D01*
X80823962Y-129655507D02*
X79553962Y-129655507D01*
X79553962Y-129655507D02*
X79735390Y-129776459D01*
X79735390Y-129776459D02*
X79856343Y-129897411D01*
X79856343Y-129897411D02*
X79916819Y-130018364D01*
D11*
X112194880Y-93171247D02*
X111766309Y-93171247D01*
X111980594Y-93171247D02*
X111980594Y-92421247D01*
X111980594Y-92421247D02*
X111909166Y-92528390D01*
X111909166Y-92528390D02*
X111837737Y-92599818D01*
X111837737Y-92599818D02*
X111766309Y-92635533D01*
X147717563Y-74788879D02*
X147288992Y-74788879D01*
X147503277Y-74788879D02*
X147503277Y-74038879D01*
X147503277Y-74038879D02*
X147431849Y-74146022D01*
X147431849Y-74146022D02*
X147360420Y-74217450D01*
X147360420Y-74217450D02*
X147288992Y-74253165D01*
X148928902Y-92297190D02*
X148500331Y-92297190D01*
X148714616Y-92297190D02*
X148714616Y-91547190D01*
X148714616Y-91547190D02*
X148643188Y-91654333D01*
X148643188Y-91654333D02*
X148571759Y-91725761D01*
X148571759Y-91725761D02*
X148500331Y-91761476D01*
X99999906Y-84937424D02*
X99571335Y-84937424D01*
X99785620Y-84937424D02*
X99785620Y-84187424D01*
X99785620Y-84187424D02*
X99714192Y-84294567D01*
X99714192Y-84294567D02*
X99642763Y-84365995D01*
X99642763Y-84365995D02*
X99571335Y-84401710D01*
X132134413Y-80568324D02*
X131705842Y-80568324D01*
X131920127Y-80568324D02*
X131920127Y-79818324D01*
X131920127Y-79818324D02*
X131848699Y-79925467D01*
X131848699Y-79925467D02*
X131777270Y-79996895D01*
X131777270Y-79996895D02*
X131705842Y-80032610D01*
X92557836Y-75351322D02*
X92129265Y-75351322D01*
X92343550Y-75351322D02*
X92343550Y-74601322D01*
X92343550Y-74601322D02*
X92272122Y-74708465D01*
X92272122Y-74708465D02*
X92200693Y-74779893D01*
X92200693Y-74779893D02*
X92129265Y-74815608D01*
X124094224Y-100662524D02*
X123665653Y-100662524D01*
X123879938Y-100662524D02*
X123879938Y-99912524D01*
X123879938Y-99912524D02*
X123808510Y-100019667D01*
X123808510Y-100019667D02*
X123737081Y-100091095D01*
X123737081Y-100091095D02*
X123665653Y-100126810D01*
X163557377Y-75402599D02*
X163128806Y-75402599D01*
X163343091Y-75402599D02*
X163343091Y-74652599D01*
X163343091Y-74652599D02*
X163271663Y-74759742D01*
X163271663Y-74759742D02*
X163200234Y-74831170D01*
X163200234Y-74831170D02*
X163128806Y-74866885D01*
D12*
X79031785Y-119638119D02*
X79213214Y-119698595D01*
X79213214Y-119698595D02*
X79515595Y-119698595D01*
X79515595Y-119698595D02*
X79636547Y-119638119D01*
X79636547Y-119638119D02*
X79697023Y-119577642D01*
X79697023Y-119577642D02*
X79757500Y-119456690D01*
X79757500Y-119456690D02*
X79757500Y-119335738D01*
X79757500Y-119335738D02*
X79697023Y-119214785D01*
X79697023Y-119214785D02*
X79636547Y-119154309D01*
X79636547Y-119154309D02*
X79515595Y-119093833D01*
X79515595Y-119093833D02*
X79273690Y-119033357D01*
X79273690Y-119033357D02*
X79152738Y-118972880D01*
X79152738Y-118972880D02*
X79092261Y-118912404D01*
X79092261Y-118912404D02*
X79031785Y-118791452D01*
X79031785Y-118791452D02*
X79031785Y-118670499D01*
X79031785Y-118670499D02*
X79092261Y-118549547D01*
X79092261Y-118549547D02*
X79152738Y-118489071D01*
X79152738Y-118489071D02*
X79273690Y-118428595D01*
X79273690Y-118428595D02*
X79576071Y-118428595D01*
X79576071Y-118428595D02*
X79757500Y-118489071D01*
X80967024Y-119698595D02*
X80241309Y-119698595D01*
X80604166Y-119698595D02*
X80604166Y-118428595D01*
X80604166Y-118428595D02*
X80483214Y-118610023D01*
X80483214Y-118610023D02*
X80362262Y-118730976D01*
X80362262Y-118730976D02*
X80241309Y-118791452D01*
D11*
X83517148Y-91469156D02*
X83088577Y-91469156D01*
X83302862Y-91469156D02*
X83302862Y-90719156D01*
X83302862Y-90719156D02*
X83231434Y-90826299D01*
X83231434Y-90826299D02*
X83160005Y-90897727D01*
X83160005Y-90897727D02*
X83088577Y-90933442D01*
X145120213Y-93284492D02*
X144691642Y-93284492D01*
X144905927Y-93284492D02*
X144905927Y-92534492D01*
X144905927Y-92534492D02*
X144834499Y-92641635D01*
X144834499Y-92641635D02*
X144763070Y-92713063D01*
X144763070Y-92713063D02*
X144691642Y-92748778D01*
X115605922Y-77748136D02*
X115177351Y-77748136D01*
X115391636Y-77748136D02*
X115391636Y-76998136D01*
X115391636Y-76998136D02*
X115320208Y-77105279D01*
X115320208Y-77105279D02*
X115248779Y-77176707D01*
X115248779Y-77176707D02*
X115177351Y-77212422D01*
X77212856Y-76951511D02*
X76784285Y-76951511D01*
X76998570Y-76951511D02*
X76998570Y-76201511D01*
X76998570Y-76201511D02*
X76927142Y-76308654D01*
X76927142Y-76308654D02*
X76855713Y-76380082D01*
X76855713Y-76380082D02*
X76784285Y-76415797D01*
X151039443Y-98324544D02*
X150610872Y-98324544D01*
X150825157Y-98324544D02*
X150825157Y-97574544D01*
X150825157Y-97574544D02*
X150753729Y-97681687D01*
X150753729Y-97681687D02*
X150682300Y-97753115D01*
X150682300Y-97753115D02*
X150610872Y-97788830D01*
X133543560Y-100701490D02*
X133114989Y-100701490D01*
X133329274Y-100701490D02*
X133329274Y-99951490D01*
X133329274Y-99951490D02*
X133257846Y-100058633D01*
X133257846Y-100058633D02*
X133186417Y-100130061D01*
X133186417Y-100130061D02*
X133114989Y-100165776D01*
%TO.C,D14*%
X147120075Y-85219201D02*
X150920075Y-85219201D01*
X147120075Y-88019201D02*
X147120075Y-87269201D01*
X147120075Y-88019201D02*
X150920075Y-88019201D01*
%TO.C,D12*%
X142638947Y-99389957D02*
X146438947Y-99389957D01*
X142638947Y-102189957D02*
X142638947Y-101439957D01*
X142638947Y-102189957D02*
X146438947Y-102189957D01*
%TO.C,R1*%
X163681912Y-118395676D02*
X163207396Y-118395676D01*
X163681912Y-117350676D02*
X163207396Y-117350676D01*
%TO.C,U2*%
X165684247Y-129554485D02*
X165684247Y-130694485D01*
X165914247Y-130694485D02*
X165684247Y-130694485D01*
X165914247Y-130694485D02*
X165914247Y-133414485D01*
X161194247Y-130694485D02*
X161424247Y-130694485D01*
X165914247Y-133414485D02*
X164604247Y-133414485D01*
X162504247Y-133414485D02*
X161194247Y-133414485D01*
X161194247Y-133414485D02*
X161194247Y-130694485D01*
D13*
%TO.C,J1*%
X78199644Y-127389317D02*
X78199644Y-132889317D01*
D14*
X82824644Y-132339317D02*
X82824644Y-132339317D01*
X82624644Y-132339317D02*
X82624644Y-132339317D01*
X82624644Y-132339317D02*
G75*
G03*
X82824644Y-132339317I100000J0D01*
G01*
X82824644Y-132339317D02*
G75*
G03*
X82624644Y-132339317I-100000J0D01*
G01*
D11*
%TO.C,D9*%
X112230595Y-92080523D02*
X116030595Y-92080523D01*
X112230595Y-94880523D02*
X112230595Y-94130523D01*
X112230595Y-94880523D02*
X116030595Y-94880523D01*
%TO.C,D2*%
X147753278Y-73698155D02*
X151553278Y-73698155D01*
X147753278Y-76498155D02*
X147753278Y-75748155D01*
X147753278Y-76498155D02*
X151553278Y-76498155D01*
%TO.C,D15*%
X148964617Y-91206466D02*
X152764617Y-91206466D01*
X148964617Y-94006466D02*
X148964617Y-93256466D01*
X148964617Y-94006466D02*
X152764617Y-94006466D01*
%TO.C,D8*%
X100035621Y-83846700D02*
X103835621Y-83846700D01*
X100035621Y-86646700D02*
X100035621Y-85896700D01*
X100035621Y-86646700D02*
X103835621Y-86646700D01*
%TO.C,G\u002A\u002A\u002A*%
G36*
X129427543Y-102765977D02*
G01*
X129675707Y-102788838D01*
X129804690Y-102824855D01*
X129816610Y-102836012D01*
X129918690Y-102917576D01*
X130023813Y-102963127D01*
X130163577Y-103065371D01*
X130222552Y-103177413D01*
X130292127Y-103320688D01*
X130362659Y-103380470D01*
X130437675Y-103471681D01*
X130461303Y-103595451D01*
X130484985Y-103727997D01*
X130531276Y-103772578D01*
X130555681Y-103841393D01*
X130575173Y-104043366D01*
X130589459Y-104371783D01*
X130598248Y-104819933D01*
X130601248Y-105381104D01*
X130601248Y-105381944D01*
X130601248Y-106991311D01*
X129128461Y-106991311D01*
X127655673Y-106991311D01*
X127676532Y-105218859D01*
X127697391Y-103446408D01*
X128041729Y-103102193D01*
X128386068Y-102757977D01*
X129076375Y-102757977D01*
X129427543Y-102765977D01*
G37*
G36*
X141463473Y-103021708D02*
G01*
X141623015Y-103206806D01*
X141738036Y-103384335D01*
X141768441Y-103459036D01*
X141822460Y-103589397D01*
X141874398Y-103632633D01*
X141892108Y-103699550D01*
X141907778Y-103888091D01*
X141920727Y-104179944D01*
X141930275Y-104556794D01*
X141935742Y-105000328D01*
X141936785Y-105311972D01*
X141936785Y-106991311D01*
X140432378Y-106991311D01*
X138927970Y-106991311D01*
X138927970Y-105311972D01*
X138930456Y-104835257D01*
X138937460Y-104413459D01*
X138948302Y-104064893D01*
X138962302Y-103807871D01*
X138978779Y-103660707D01*
X138990357Y-103632633D01*
X139051407Y-103573195D01*
X139098145Y-103451738D01*
X139179124Y-103284208D01*
X139318289Y-103112918D01*
X139473781Y-102981393D01*
X139597095Y-102932908D01*
X139698488Y-102877182D01*
X139715160Y-102845443D01*
X139779477Y-102801970D01*
X139947098Y-102774099D01*
X140231830Y-102760236D01*
X140473195Y-102757977D01*
X141202074Y-102757977D01*
X141463473Y-103021708D01*
G37*
G36*
X135301087Y-102762007D02*
G01*
X135533661Y-102776822D01*
X135683209Y-102806514D01*
X135778113Y-102855172D01*
X135806699Y-102880429D01*
X135939906Y-102975995D01*
X136029111Y-103002881D01*
X136118677Y-103058588D01*
X136129072Y-103102841D01*
X136175161Y-103229655D01*
X136240946Y-103314676D01*
X136323029Y-103455426D01*
X136382999Y-103660224D01*
X136390104Y-103704523D01*
X136427033Y-103878931D01*
X136473797Y-103975610D01*
X136488147Y-103982495D01*
X136505991Y-104049098D01*
X136521764Y-104235437D01*
X136534648Y-104521312D01*
X136543829Y-104886518D01*
X136548490Y-105310855D01*
X136548906Y-105486903D01*
X136548906Y-106991311D01*
X135004935Y-106991311D01*
X133460963Y-106991311D01*
X133483034Y-105309329D01*
X133494161Y-104693304D01*
X133509647Y-104214616D01*
X133529641Y-103870724D01*
X133554289Y-103659084D01*
X133583139Y-103577511D01*
X133664675Y-103475528D01*
X133710306Y-103370236D01*
X133772563Y-103248168D01*
X133824696Y-103212798D01*
X133882614Y-103156053D01*
X133889953Y-103107839D01*
X133944183Y-103015032D01*
X133991435Y-103002881D01*
X134106594Y-102948065D01*
X134161444Y-102880429D01*
X134211850Y-102824309D01*
X134305293Y-102788124D01*
X134468357Y-102767783D01*
X134727627Y-102759195D01*
X134957109Y-102757977D01*
X135301087Y-102762007D01*
G37*
G36*
X146868503Y-101539571D02*
G01*
X147031370Y-101568773D01*
X147158557Y-101641488D01*
X147302152Y-101776929D01*
X147317595Y-101792786D01*
X147569568Y-102052113D01*
X147590323Y-103891960D01*
X147595850Y-104451599D01*
X147597800Y-104886558D01*
X147595449Y-105212072D01*
X147588073Y-105443378D01*
X147574947Y-105595710D01*
X147555348Y-105684305D01*
X147528550Y-105724399D01*
X147502857Y-105731806D01*
X147407623Y-105765718D01*
X147394636Y-105796219D01*
X147334315Y-105854544D01*
X147188801Y-105905829D01*
X147184719Y-105906738D01*
X147037870Y-105955889D01*
X146974844Y-106010500D01*
X146974802Y-106011696D01*
X146914530Y-106066105D01*
X146769117Y-106115713D01*
X146764884Y-106116655D01*
X146618035Y-106165806D01*
X146555009Y-106220418D01*
X146554967Y-106221614D01*
X146494695Y-106276023D01*
X146349283Y-106325631D01*
X146345050Y-106326572D01*
X146198200Y-106375724D01*
X146135175Y-106430335D01*
X146135132Y-106431531D01*
X146074861Y-106485940D01*
X145929448Y-106535548D01*
X145925215Y-106536490D01*
X145778315Y-106587264D01*
X145715337Y-106645747D01*
X145715298Y-106647008D01*
X145656349Y-106698497D01*
X145568267Y-106711421D01*
X145525924Y-106708707D01*
X145492809Y-106690570D01*
X145468019Y-106642018D01*
X145450649Y-106548059D01*
X145439797Y-106393700D01*
X145434558Y-106163949D01*
X145434030Y-105843814D01*
X145437309Y-105418303D01*
X145443490Y-104872424D01*
X145445816Y-104679646D01*
X145456438Y-104001114D01*
X145470308Y-103459501D01*
X145487570Y-103051813D01*
X145508372Y-102775059D01*
X145532859Y-102626245D01*
X145547767Y-102597966D01*
X145610036Y-102501389D01*
X145665038Y-102326660D01*
X145673389Y-102285663D01*
X145719972Y-102117402D01*
X145775268Y-102027786D01*
X145788441Y-102023266D01*
X145852146Y-101968972D01*
X145855243Y-101945663D01*
X145899641Y-101844944D01*
X146007046Y-101707963D01*
X146012681Y-101701969D01*
X146124115Y-101607731D01*
X146260913Y-101556915D01*
X146468425Y-101536984D01*
X146617871Y-101534668D01*
X146868503Y-101539571D01*
G37*
G36*
X151040686Y-99731864D02*
G01*
X151103162Y-99774478D01*
X151103176Y-99775205D01*
X151164923Y-99823490D01*
X151318958Y-99869297D01*
X151378375Y-99880240D01*
X151584309Y-99938899D01*
X151687939Y-100043590D01*
X151702682Y-100081608D01*
X151772670Y-100226568D01*
X151829825Y-100288813D01*
X151857562Y-100368936D01*
X151880925Y-100573395D01*
X151900102Y-100905786D01*
X151915283Y-101369704D01*
X151926653Y-101968745D01*
X151929589Y-102195562D01*
X151935410Y-102757643D01*
X151937662Y-103195019D01*
X151935629Y-103522898D01*
X151928595Y-103756492D01*
X151915843Y-103911011D01*
X151896656Y-104001664D01*
X151870319Y-104043663D01*
X151842123Y-104052468D01*
X151746261Y-104084967D01*
X151732928Y-104114653D01*
X151671790Y-104167118D01*
X151521332Y-104215956D01*
X151488025Y-104222782D01*
X151326581Y-104268356D01*
X151245397Y-104321207D01*
X151243121Y-104329968D01*
X151182828Y-104386060D01*
X151037371Y-104436389D01*
X151033204Y-104437316D01*
X150886354Y-104486468D01*
X150823329Y-104541079D01*
X150823287Y-104542275D01*
X150763015Y-104596684D01*
X150617602Y-104646292D01*
X150613369Y-104647233D01*
X150466520Y-104696385D01*
X150403494Y-104750996D01*
X150403452Y-104752192D01*
X150343180Y-104806601D01*
X150197767Y-104856209D01*
X150193535Y-104857151D01*
X150046634Y-104907925D01*
X149983657Y-104966408D01*
X149983617Y-104967669D01*
X149924962Y-105020020D01*
X149843672Y-105032082D01*
X149802338Y-105027734D01*
X149770062Y-105004427D01*
X149745725Y-104946770D01*
X149728208Y-104839370D01*
X149716390Y-104666834D01*
X149709153Y-104413769D01*
X149705377Y-104064782D01*
X149703942Y-103604482D01*
X149703727Y-103107839D01*
X149706239Y-102481775D01*
X149713647Y-101972383D01*
X149725761Y-101584900D01*
X149742390Y-101324564D01*
X149763344Y-101196612D01*
X149773700Y-101183597D01*
X149822830Y-101122793D01*
X149843667Y-100976291D01*
X149843672Y-100973680D01*
X149861694Y-100826257D01*
X149905113Y-100763777D01*
X149905857Y-100763762D01*
X149958322Y-100702624D01*
X150007161Y-100552166D01*
X150013987Y-100518859D01*
X150060629Y-100357383D01*
X150116089Y-100276219D01*
X150125400Y-100273955D01*
X150189738Y-100214717D01*
X150233739Y-100103145D01*
X150335681Y-99947818D01*
X150479976Y-99887668D01*
X150624060Y-99836955D01*
X150683342Y-99778588D01*
X150744169Y-99733355D01*
X150890719Y-99714180D01*
X150893259Y-99714176D01*
X151040686Y-99731864D01*
G37*
G36*
X141431621Y-86069687D02*
G01*
X142607182Y-86070159D01*
X143656690Y-86071046D01*
X144587091Y-86072430D01*
X145405330Y-86074393D01*
X146118354Y-86077018D01*
X146733109Y-86080386D01*
X147256540Y-86084579D01*
X147695592Y-86089680D01*
X148057213Y-86095771D01*
X148348348Y-86102933D01*
X148575942Y-86111249D01*
X148746941Y-86120801D01*
X148868292Y-86131671D01*
X148946940Y-86143941D01*
X148989832Y-86157693D01*
X149003911Y-86173010D01*
X149004003Y-86174506D01*
X148968892Y-86267663D01*
X148939065Y-86279465D01*
X148895667Y-86342552D01*
X148851742Y-86505334D01*
X148826044Y-86664313D01*
X148790308Y-86874763D01*
X148748477Y-87014549D01*
X148720338Y-87049162D01*
X148676704Y-87111425D01*
X148632440Y-87269035D01*
X148615497Y-87364038D01*
X148575975Y-87551452D01*
X148530168Y-87664180D01*
X148510538Y-87678914D01*
X148466834Y-87741178D01*
X148422527Y-87898789D01*
X148405579Y-87993790D01*
X148366787Y-88181182D01*
X148322817Y-88293915D01*
X148304278Y-88308666D01*
X148262758Y-88370913D01*
X148219765Y-88528488D01*
X148202977Y-88623542D01*
X148162875Y-88810973D01*
X148115607Y-88923698D01*
X148095109Y-88938418D01*
X148054060Y-89001492D01*
X148011696Y-89164244D01*
X147986375Y-89323266D01*
X147950638Y-89533716D01*
X147908808Y-89673502D01*
X147880669Y-89708115D01*
X147837035Y-89770378D01*
X147792770Y-89927989D01*
X147775827Y-90022991D01*
X147736305Y-90210405D01*
X147690499Y-90323133D01*
X147670869Y-90337867D01*
X147627165Y-90400131D01*
X147582858Y-90557742D01*
X147565910Y-90652743D01*
X147526388Y-90840157D01*
X147480582Y-90952885D01*
X147460951Y-90967619D01*
X147417248Y-91029883D01*
X147372941Y-91187494D01*
X147355993Y-91282495D01*
X147317413Y-91469880D01*
X147273980Y-91582615D01*
X147255761Y-91597371D01*
X147217253Y-91660072D01*
X147176779Y-91820447D01*
X147156337Y-91947233D01*
X147119214Y-92146514D01*
X147075068Y-92273219D01*
X147050309Y-92297096D01*
X147005484Y-92359368D01*
X146960503Y-92516998D01*
X146943473Y-92611972D01*
X146903676Y-92799394D01*
X146857177Y-92912120D01*
X146837136Y-92926848D01*
X146794846Y-92989542D01*
X146751380Y-93149904D01*
X146729898Y-93276710D01*
X146691563Y-93475958D01*
X146646175Y-93602666D01*
X146620783Y-93626572D01*
X146577718Y-93689302D01*
X146534344Y-93849743D01*
X146513376Y-93976435D01*
X146477445Y-94175681D01*
X146436335Y-94302389D01*
X146413952Y-94326297D01*
X146373070Y-94388539D01*
X146330462Y-94546102D01*
X146313721Y-94641173D01*
X146274199Y-94828587D01*
X146228392Y-94941315D01*
X146208762Y-94956049D01*
X146165058Y-95018313D01*
X146120752Y-95175924D01*
X146103804Y-95270925D01*
X146064282Y-95458339D01*
X146018475Y-95571067D01*
X145998845Y-95585801D01*
X145955141Y-95648065D01*
X145910834Y-95805676D01*
X145893886Y-95900677D01*
X145853784Y-96088108D01*
X145806516Y-96200833D01*
X145786018Y-96215553D01*
X145744969Y-96278627D01*
X145702605Y-96441379D01*
X145677284Y-96600401D01*
X145641547Y-96810851D01*
X145599717Y-96950637D01*
X145571578Y-96985250D01*
X145527944Y-97047513D01*
X145483679Y-97205124D01*
X145466737Y-97300126D01*
X145427944Y-97487518D01*
X145383974Y-97600251D01*
X145365435Y-97615002D01*
X145323915Y-97677249D01*
X145280922Y-97834824D01*
X145264134Y-97929878D01*
X145223027Y-98117338D01*
X145173229Y-98230056D01*
X145151231Y-98244754D01*
X145101845Y-98304661D01*
X145085546Y-98419685D01*
X145062412Y-98551198D01*
X145017983Y-98594616D01*
X144971168Y-98657368D01*
X144925410Y-98817861D01*
X144904010Y-98944479D01*
X144868078Y-99143725D01*
X144826969Y-99270433D01*
X144804586Y-99294341D01*
X144763704Y-99356583D01*
X144721096Y-99514147D01*
X144704355Y-99609217D01*
X144664833Y-99796631D01*
X144619026Y-99909359D01*
X144599396Y-99924093D01*
X144555692Y-99986357D01*
X144511385Y-100143968D01*
X144494437Y-100238969D01*
X144447219Y-100553845D01*
X134970239Y-100553845D01*
X133616326Y-100553715D01*
X132395632Y-100553277D01*
X131301433Y-100552456D01*
X130327001Y-100551177D01*
X129465613Y-100549366D01*
X128710542Y-100546948D01*
X128055063Y-100543849D01*
X127492452Y-100539995D01*
X127015981Y-100535310D01*
X126618926Y-100529721D01*
X126294562Y-100523153D01*
X126036163Y-100515532D01*
X125837003Y-100506782D01*
X125690358Y-100496830D01*
X125589501Y-100485601D01*
X125527707Y-100473021D01*
X125498252Y-100459014D01*
X125493259Y-100448886D01*
X125529361Y-100355744D01*
X125560061Y-100343928D01*
X125615584Y-100282759D01*
X125665960Y-100132237D01*
X125672807Y-100099024D01*
X125718410Y-99937579D01*
X125771333Y-99856396D01*
X125780109Y-99854120D01*
X125828343Y-99792312D01*
X125874446Y-99637825D01*
X125886224Y-99574231D01*
X125926967Y-99399317D01*
X125974505Y-99301690D01*
X125988839Y-99294341D01*
X126038438Y-99233232D01*
X126085836Y-99082837D01*
X126092642Y-99049437D01*
X126138454Y-98887986D01*
X126191887Y-98806807D01*
X126200771Y-98804534D01*
X126255976Y-98747745D01*
X126262956Y-98699575D01*
X126295986Y-98606390D01*
X126323985Y-98594616D01*
X126372013Y-98532809D01*
X126418001Y-98378326D01*
X126429771Y-98314727D01*
X126471037Y-98139798D01*
X126519873Y-98042177D01*
X126534730Y-98034837D01*
X126582238Y-97973034D01*
X126627937Y-97818560D01*
X126639688Y-97754947D01*
X126681992Y-97579989D01*
X126733408Y-97482380D01*
X126749303Y-97475057D01*
X126797256Y-97412762D01*
X126844120Y-97255081D01*
X126861379Y-97160181D01*
X126901124Y-96972761D01*
X126947492Y-96860034D01*
X126967455Y-96845305D01*
X127017715Y-96784189D01*
X127065446Y-96633779D01*
X127072256Y-96600401D01*
X127117859Y-96438956D01*
X127170782Y-96357773D01*
X127179558Y-96355498D01*
X127227792Y-96293689D01*
X127273895Y-96139203D01*
X127285673Y-96075608D01*
X127326416Y-95900694D01*
X127373954Y-95803068D01*
X127388288Y-95795718D01*
X127437887Y-95734609D01*
X127485285Y-95584214D01*
X127492091Y-95550815D01*
X127537694Y-95389370D01*
X127590617Y-95308186D01*
X127599393Y-95305911D01*
X127647627Y-95244102D01*
X127693730Y-95089616D01*
X127705507Y-95026021D01*
X127746251Y-94851107D01*
X127793789Y-94753481D01*
X127808122Y-94746132D01*
X127857722Y-94685022D01*
X127905120Y-94534627D01*
X127911925Y-94501228D01*
X127957529Y-94339783D01*
X128010452Y-94258600D01*
X128019228Y-94256324D01*
X128067461Y-94194515D01*
X128113565Y-94040029D01*
X128125342Y-93976435D01*
X128166608Y-93801506D01*
X128215444Y-93703885D01*
X128230301Y-93696545D01*
X128277810Y-93634742D01*
X128323508Y-93480268D01*
X128335260Y-93416655D01*
X128376003Y-93241741D01*
X128423541Y-93144115D01*
X128437874Y-93136765D01*
X128487474Y-93075656D01*
X128534872Y-92925261D01*
X128541677Y-92891862D01*
X128587281Y-92730416D01*
X128640204Y-92649233D01*
X128648980Y-92646958D01*
X128697213Y-92585149D01*
X128743317Y-92430663D01*
X128755094Y-92367068D01*
X128795837Y-92192154D01*
X128843376Y-92094528D01*
X128857709Y-92087178D01*
X128907309Y-92026069D01*
X128954706Y-91875674D01*
X128961512Y-91842275D01*
X129007116Y-91680830D01*
X129060038Y-91599646D01*
X129068814Y-91597371D01*
X129117048Y-91535562D01*
X129163151Y-91381076D01*
X129174929Y-91317481D01*
X129215672Y-91142567D01*
X129263211Y-91044941D01*
X129277544Y-91037592D01*
X129327143Y-90976482D01*
X129374541Y-90826087D01*
X129381347Y-90792688D01*
X129426950Y-90631243D01*
X129479873Y-90550060D01*
X129488649Y-90547784D01*
X129536883Y-90485976D01*
X129582986Y-90331489D01*
X129594764Y-90267895D01*
X129634478Y-90093011D01*
X129679461Y-89995373D01*
X129692762Y-89988005D01*
X129739304Y-89926928D01*
X129785164Y-89776601D01*
X129791948Y-89743101D01*
X129836668Y-89581683D01*
X129887432Y-89500483D01*
X129895751Y-89498198D01*
X129941790Y-89436407D01*
X129986668Y-89281960D01*
X129998366Y-89218308D01*
X130040254Y-89043361D01*
X130090638Y-88945748D01*
X130106117Y-88938418D01*
X130155910Y-88876660D01*
X130203968Y-88722286D01*
X130216400Y-88658528D01*
X130258292Y-88483703D01*
X130305682Y-88386042D01*
X130319721Y-88378638D01*
X130368113Y-88317542D01*
X130414903Y-88167174D01*
X130421700Y-88133735D01*
X130466420Y-87972317D01*
X130517184Y-87891117D01*
X130525503Y-87888831D01*
X130571542Y-87827040D01*
X130616420Y-87672593D01*
X130628118Y-87608941D01*
X130669641Y-87434005D01*
X130719118Y-87336388D01*
X130734233Y-87329052D01*
X130786150Y-87267919D01*
X130834713Y-87117473D01*
X130841535Y-87084148D01*
X130888515Y-86922662D01*
X130944798Y-86841504D01*
X130954281Y-86839244D01*
X131004504Y-86779344D01*
X131021083Y-86664313D01*
X131043144Y-86532785D01*
X131085496Y-86489382D01*
X131143820Y-86429061D01*
X131195105Y-86283547D01*
X131196014Y-86279465D01*
X131242119Y-86069547D01*
X140123061Y-86069547D01*
X141431621Y-86069687D01*
G37*
G36*
X164343061Y-81068201D02*
G01*
X164814894Y-81074081D01*
X165244418Y-81083287D01*
X165611391Y-81095796D01*
X165895573Y-81111586D01*
X166076724Y-81130635D01*
X166134218Y-81148716D01*
X166221043Y-81187178D01*
X166413766Y-81226901D01*
X166678534Y-81261712D01*
X166829485Y-81275514D01*
X167110786Y-81302927D01*
X167330326Y-81334504D01*
X167457385Y-81365297D01*
X167476730Y-81379780D01*
X167540633Y-81412419D01*
X167708835Y-81448096D01*
X167946074Y-81479485D01*
X167966537Y-81481548D01*
X168207709Y-81512837D01*
X168382593Y-81549878D01*
X168455922Y-81585040D01*
X168456344Y-81587485D01*
X168519409Y-81626902D01*
X168682139Y-81668182D01*
X168841193Y-81693242D01*
X169051657Y-81729478D01*
X169191443Y-81772591D01*
X169226041Y-81801975D01*
X169288318Y-81847417D01*
X169445959Y-81892769D01*
X169540917Y-81909844D01*
X169728331Y-81949366D01*
X169841060Y-81995173D01*
X169855793Y-82014803D01*
X169918057Y-82058507D01*
X170075669Y-82102813D01*
X170170670Y-82119761D01*
X170358076Y-82159030D01*
X170470806Y-82204197D01*
X170485546Y-82223448D01*
X170545795Y-82276178D01*
X170691163Y-82325065D01*
X170695463Y-82326021D01*
X170842292Y-82374523D01*
X170905337Y-82427584D01*
X170905380Y-82428752D01*
X170966481Y-82477535D01*
X171116858Y-82524522D01*
X171150284Y-82531322D01*
X171311728Y-82576896D01*
X171392912Y-82629747D01*
X171395187Y-82638508D01*
X171455481Y-82694600D01*
X171600937Y-82744929D01*
X171605105Y-82745856D01*
X171751954Y-82795008D01*
X171814980Y-82849619D01*
X171815022Y-82850815D01*
X171875294Y-82905224D01*
X172020707Y-82954832D01*
X172024940Y-82955773D01*
X172171828Y-83006158D01*
X172234817Y-83063712D01*
X172234857Y-83064959D01*
X172294166Y-83127081D01*
X172409788Y-83171943D01*
X172540777Y-83225968D01*
X172584719Y-83278235D01*
X172641652Y-83333298D01*
X172691874Y-83340622D01*
X172809102Y-83397148D01*
X172838575Y-83443677D01*
X172928907Y-83525714D01*
X173095895Y-83587313D01*
X173113883Y-83590962D01*
X173297160Y-83659404D01*
X173389524Y-83760840D01*
X173482982Y-83873354D01*
X173601827Y-83929765D01*
X173731696Y-83985971D01*
X173774251Y-84041679D01*
X173829708Y-84105149D01*
X173863659Y-84110319D01*
X173973200Y-84159154D01*
X174072891Y-84250264D01*
X174201337Y-84356740D01*
X174298359Y-84390209D01*
X174391897Y-84428934D01*
X174404003Y-84462377D01*
X174460760Y-84544094D01*
X174526455Y-84579615D01*
X174663586Y-84662518D01*
X174795420Y-84779154D01*
X174953672Y-84909336D01*
X175092803Y-84981507D01*
X175211538Y-85044306D01*
X175243672Y-85094648D01*
X175300245Y-85152945D01*
X175346169Y-85159906D01*
X175458477Y-85215384D01*
X175521100Y-85295250D01*
X175531087Y-85377257D01*
X175540311Y-85585226D01*
X175548777Y-85920212D01*
X175556491Y-86383274D01*
X175563458Y-86975467D01*
X175569685Y-87697849D01*
X175575176Y-88551474D01*
X175579939Y-89537401D01*
X175583977Y-90656686D01*
X175587298Y-91910385D01*
X175589907Y-93299556D01*
X175591809Y-94825253D01*
X175593010Y-96488535D01*
X175593516Y-98290457D01*
X175593535Y-98729961D01*
X175593535Y-112029327D01*
X123009237Y-112029327D01*
X70424940Y-112029327D01*
X70424940Y-105620074D01*
X70424940Y-99210820D01*
X76530036Y-99261964D01*
X77441934Y-99270164D01*
X78313392Y-99279091D01*
X79134304Y-99288577D01*
X79894565Y-99298458D01*
X80584068Y-99308564D01*
X81192709Y-99318729D01*
X81710381Y-99328787D01*
X82126980Y-99338569D01*
X82432399Y-99347910D01*
X82616532Y-99356642D01*
X82670119Y-99363432D01*
X82745378Y-99375456D01*
X82945698Y-99388829D01*
X83256208Y-99403043D01*
X83662034Y-99417587D01*
X84148307Y-99431950D01*
X84700153Y-99445624D01*
X85302702Y-99458098D01*
X85572277Y-99462942D01*
X86192056Y-99474882D01*
X86767561Y-99488489D01*
X87283910Y-99503224D01*
X87726219Y-99518547D01*
X88079605Y-99533920D01*
X88329184Y-99548804D01*
X88460072Y-99562659D01*
X88476134Y-99568132D01*
X88553964Y-99587092D01*
X88750567Y-99608166D01*
X89044817Y-99629866D01*
X89415587Y-99650703D01*
X89841753Y-99669188D01*
X89981220Y-99674188D01*
X90420166Y-99691587D01*
X90810189Y-99711691D01*
X91130177Y-99733031D01*
X91359017Y-99754136D01*
X91475595Y-99773536D01*
X91485628Y-99778956D01*
X91566246Y-99805980D01*
X91755820Y-99836029D01*
X92023549Y-99864929D01*
X92254877Y-99883190D01*
X92560833Y-99908954D01*
X92811608Y-99939676D01*
X92976360Y-99970994D01*
X93024801Y-99992058D01*
X93106985Y-100025092D01*
X93293486Y-100060931D01*
X93548974Y-100093259D01*
X93638527Y-100101744D01*
X93902636Y-100130883D01*
X94103199Y-100164624D01*
X94207702Y-100197053D01*
X94215573Y-100206737D01*
X94280068Y-100236788D01*
X94452195Y-100270009D01*
X94699918Y-100300787D01*
X94810339Y-100310936D01*
X95078893Y-100339017D01*
X95284376Y-100371373D01*
X95394753Y-100402500D01*
X95405105Y-100413141D01*
X95469422Y-100443185D01*
X95640365Y-100476506D01*
X95884923Y-100507118D01*
X95964884Y-100514632D01*
X96224628Y-100543924D01*
X96420318Y-100578628D01*
X96518936Y-100612456D01*
X96524664Y-100621198D01*
X96589325Y-100651723D01*
X96762544Y-100685138D01*
X97013175Y-100716123D01*
X97154416Y-100728776D01*
X97431539Y-100756277D01*
X97646476Y-100788202D01*
X97768085Y-100819405D01*
X97784168Y-100832842D01*
X97848974Y-100860985D01*
X98023180Y-100892324D01*
X98276464Y-100922112D01*
X98448906Y-100936903D01*
X98734359Y-100963853D01*
X98958439Y-100995568D01*
X99090824Y-101027179D01*
X99113645Y-101043652D01*
X99178454Y-101072950D01*
X99352667Y-101105197D01*
X99605962Y-101135521D01*
X99778383Y-101150402D01*
X100063829Y-101177089D01*
X100287907Y-101208099D01*
X100420295Y-101238685D01*
X100443121Y-101254462D01*
X100507778Y-101283440D01*
X100680985Y-101315656D01*
X100931601Y-101345962D01*
X101072873Y-101358528D01*
X101349994Y-101385957D01*
X101564931Y-101417692D01*
X101686541Y-101448619D01*
X101702625Y-101461901D01*
X101767570Y-101488962D01*
X101942697Y-101519198D01*
X102198446Y-101548251D01*
X102402350Y-101565039D01*
X102695900Y-101590989D01*
X102928835Y-101621356D01*
X103071592Y-101651709D01*
X103102074Y-101669998D01*
X103167021Y-101697823D01*
X103342152Y-101728666D01*
X103597908Y-101758090D01*
X103801799Y-101774957D01*
X104095354Y-101801118D01*
X104328291Y-101832057D01*
X104471046Y-101863244D01*
X104501524Y-101882196D01*
X104566597Y-101910277D01*
X104742581Y-101941217D01*
X105000621Y-101970788D01*
X105236234Y-101989905D01*
X105537670Y-102015312D01*
X105779196Y-102044919D01*
X105931959Y-102074606D01*
X105970945Y-102094864D01*
X106036016Y-102121815D01*
X106211993Y-102151851D01*
X106470025Y-102180850D01*
X106705656Y-102199822D01*
X107007088Y-102225085D01*
X107248613Y-102254303D01*
X107401377Y-102283418D01*
X107440366Y-102303156D01*
X107505436Y-102329441D01*
X107681409Y-102358942D01*
X107939435Y-102387603D01*
X108175077Y-102406490D01*
X108476531Y-102432639D01*
X108718065Y-102464250D01*
X108870821Y-102496874D01*
X108909788Y-102519807D01*
X108973353Y-102553160D01*
X109138571Y-102576074D01*
X109329623Y-102583046D01*
X109551045Y-102592573D01*
X109703173Y-102617337D01*
X109749457Y-102645973D01*
X109815003Y-102673321D01*
X109994172Y-102703108D01*
X110260763Y-102731990D01*
X110588573Y-102756627D01*
X110641606Y-102759761D01*
X111017608Y-102787018D01*
X111314204Y-102820266D01*
X111510448Y-102856626D01*
X111583729Y-102889259D01*
X111660826Y-102903345D01*
X111863688Y-102915747D01*
X112178143Y-102926483D01*
X112590021Y-102935573D01*
X113085153Y-102943037D01*
X113649367Y-102948892D01*
X114268494Y-102953159D01*
X114928363Y-102955857D01*
X115614803Y-102957006D01*
X116313645Y-102956623D01*
X117010717Y-102954729D01*
X117691851Y-102951343D01*
X118342874Y-102946484D01*
X118949618Y-102940171D01*
X119497911Y-102932424D01*
X119973583Y-102923262D01*
X120362464Y-102912703D01*
X120650383Y-102900768D01*
X120823171Y-102887476D01*
X120868668Y-102876648D01*
X120946130Y-102859872D01*
X121146757Y-102841729D01*
X121453786Y-102823036D01*
X121850453Y-102804605D01*
X122319995Y-102787252D01*
X122845650Y-102771791D01*
X123201661Y-102763310D01*
X125493259Y-102713610D01*
X125493259Y-106138421D01*
X125493259Y-109563232D01*
X132507997Y-109613027D01*
X134226572Y-109624476D01*
X135807457Y-109633427D01*
X137252889Y-109639864D01*
X138565102Y-109643774D01*
X139746330Y-109645142D01*
X140798807Y-109643953D01*
X141724769Y-109640195D01*
X142526449Y-109633850D01*
X143206083Y-109624907D01*
X143765904Y-109613349D01*
X144208148Y-109599163D01*
X144535048Y-109582335D01*
X144748839Y-109562849D01*
X144851756Y-109540692D01*
X144861447Y-109533360D01*
X144962102Y-109456837D01*
X145103740Y-109403322D01*
X145242355Y-109350864D01*
X145295463Y-109298376D01*
X145355716Y-109245393D01*
X145501091Y-109196397D01*
X145505380Y-109195443D01*
X145652230Y-109146291D01*
X145715255Y-109091680D01*
X145715298Y-109090484D01*
X145775569Y-109036075D01*
X145920982Y-108986467D01*
X145925215Y-108985525D01*
X146072033Y-108937361D01*
X146135088Y-108885103D01*
X146135132Y-108883950D01*
X146196911Y-108839409D01*
X146351330Y-108795367D01*
X146415022Y-108783724D01*
X146589972Y-108741704D01*
X146687584Y-108690993D01*
X146694912Y-108675382D01*
X146755226Y-108617640D01*
X146900725Y-108566604D01*
X146904829Y-108565691D01*
X147051679Y-108516539D01*
X147114704Y-108461928D01*
X147114747Y-108460732D01*
X147175018Y-108406323D01*
X147320431Y-108356715D01*
X147324664Y-108355773D01*
X147471514Y-108306622D01*
X147534539Y-108252011D01*
X147534581Y-108250815D01*
X147594853Y-108196406D01*
X147740266Y-108146798D01*
X147744499Y-108145856D01*
X147891328Y-108097354D01*
X147954372Y-108044293D01*
X147954416Y-108043125D01*
X148015517Y-107994342D01*
X148165894Y-107947355D01*
X148199320Y-107940555D01*
X148360764Y-107894981D01*
X148441948Y-107842130D01*
X148444223Y-107833369D01*
X148504516Y-107777278D01*
X148649973Y-107726949D01*
X148654141Y-107726021D01*
X148800990Y-107676870D01*
X148864016Y-107622259D01*
X148864058Y-107621063D01*
X148924330Y-107566654D01*
X149069742Y-107517046D01*
X149073975Y-107516104D01*
X149220875Y-107465330D01*
X149283853Y-107406847D01*
X149283893Y-107405586D01*
X149340650Y-107348413D01*
X149388851Y-107341173D01*
X149482036Y-107308143D01*
X149493810Y-107280143D01*
X149555617Y-107232116D01*
X149710100Y-107186128D01*
X149773700Y-107174358D01*
X149948650Y-107132338D01*
X150046262Y-107081627D01*
X150053590Y-107066016D01*
X150113904Y-107008274D01*
X150259403Y-106957238D01*
X150263507Y-106956324D01*
X150410357Y-106907173D01*
X150473382Y-106852562D01*
X150473424Y-106851366D01*
X150533696Y-106796957D01*
X150679109Y-106747349D01*
X150683342Y-106746407D01*
X150830191Y-106697255D01*
X150893217Y-106642644D01*
X150893259Y-106641448D01*
X150953531Y-106587039D01*
X151098943Y-106537431D01*
X151103176Y-106536490D01*
X151249994Y-106488325D01*
X151313049Y-106436068D01*
X151313094Y-106434914D01*
X151374872Y-106390373D01*
X151529292Y-106346332D01*
X151592984Y-106334688D01*
X151767934Y-106292668D01*
X151865546Y-106241958D01*
X151872873Y-106226346D01*
X151933187Y-106168604D01*
X152078687Y-106117568D01*
X152082791Y-106116655D01*
X152229640Y-106067503D01*
X152292666Y-106012892D01*
X152292708Y-106011696D01*
X152352980Y-105957287D01*
X152498393Y-105907679D01*
X152502625Y-105906738D01*
X152649497Y-105856889D01*
X152712502Y-105800615D01*
X152712543Y-105799390D01*
X152773675Y-105747550D01*
X152924119Y-105699025D01*
X152957446Y-105692204D01*
X153118898Y-105646391D01*
X153200077Y-105592958D01*
X153202350Y-105584074D01*
X153259337Y-105529301D01*
X153310288Y-105521889D01*
X153334422Y-105510274D01*
X153354522Y-105468128D01*
X153370854Y-105384502D01*
X153383682Y-105248445D01*
X153393274Y-105049007D01*
X153399893Y-104775238D01*
X153403807Y-104416188D01*
X153405279Y-103960906D01*
X153404577Y-103398442D01*
X153401966Y-102717847D01*
X153397753Y-101915716D01*
X153392064Y-101060073D01*
X153385333Y-100336067D01*
X153377321Y-99735393D01*
X153367791Y-99249746D01*
X153356506Y-98870821D01*
X153343228Y-98590311D01*
X153327720Y-98399913D01*
X153309743Y-98291320D01*
X153293104Y-98257558D01*
X153230458Y-98160787D01*
X153175200Y-97981283D01*
X153161710Y-97910288D01*
X153121718Y-97729846D01*
X153077010Y-97625398D01*
X153061407Y-97615002D01*
X153020482Y-97552759D01*
X152977848Y-97395195D01*
X152961104Y-97300126D01*
X152921781Y-97112718D01*
X152876476Y-96999988D01*
X152857143Y-96985250D01*
X152811805Y-96923465D01*
X152767317Y-96769031D01*
X152755645Y-96705360D01*
X152713341Y-96530402D01*
X152661926Y-96432793D01*
X152646031Y-96425470D01*
X152598077Y-96363175D01*
X152551213Y-96205494D01*
X152533954Y-96110594D01*
X152494432Y-95923181D01*
X152448626Y-95810452D01*
X152428995Y-95795718D01*
X152385292Y-95733454D01*
X152340985Y-95575843D01*
X152324037Y-95480842D01*
X152285213Y-95293450D01*
X152241163Y-95180716D01*
X152222578Y-95165966D01*
X152175375Y-95104882D01*
X152129183Y-94954541D01*
X152122394Y-94921063D01*
X152077422Y-94759637D01*
X152026042Y-94678442D01*
X152017593Y-94676159D01*
X151973222Y-94613890D01*
X151928514Y-94456268D01*
X151911517Y-94361283D01*
X151871995Y-94173869D01*
X151826189Y-94061141D01*
X151806558Y-94046407D01*
X151762855Y-93984143D01*
X151718548Y-93826532D01*
X151701600Y-93731531D01*
X151662277Y-93544123D01*
X151616971Y-93431393D01*
X151597639Y-93416655D01*
X151552301Y-93354870D01*
X151507813Y-93200435D01*
X151496141Y-93136765D01*
X151454653Y-92961830D01*
X151405264Y-92864212D01*
X151390184Y-92856875D01*
X151344414Y-92794596D01*
X151298864Y-92636950D01*
X151281765Y-92541999D01*
X151242243Y-92354585D01*
X151196436Y-92241857D01*
X151176806Y-92227123D01*
X151133103Y-92164859D01*
X151088796Y-92007248D01*
X151071848Y-91912247D01*
X151032525Y-91724839D01*
X150987219Y-91612109D01*
X150967887Y-91597371D01*
X150922549Y-91535586D01*
X150878061Y-91381152D01*
X150866389Y-91317481D01*
X150824085Y-91142524D01*
X150772669Y-91044915D01*
X150756775Y-91037592D01*
X150708821Y-90975297D01*
X150661957Y-90817615D01*
X150644698Y-90722716D01*
X150605176Y-90535302D01*
X150559369Y-90422573D01*
X150539739Y-90407839D01*
X150496035Y-90345576D01*
X150451729Y-90187964D01*
X150434781Y-90092963D01*
X150395259Y-89905550D01*
X150349452Y-89792821D01*
X150329822Y-89778087D01*
X150286118Y-89715824D01*
X150241811Y-89558212D01*
X150224863Y-89463211D01*
X150183488Y-89275744D01*
X150133017Y-89163027D01*
X150110619Y-89148335D01*
X150098789Y-89108781D01*
X150153550Y-89038379D01*
X150241871Y-88923671D01*
X150263507Y-88863448D01*
X150309452Y-88781943D01*
X150427989Y-88639807D01*
X150543397Y-88518583D01*
X150696560Y-88354843D01*
X150798222Y-88225891D01*
X150823287Y-88174245D01*
X150869374Y-88094692D01*
X150989524Y-87951242D01*
X151138163Y-87794921D01*
X151301223Y-87625033D01*
X151415008Y-87493442D01*
X151453039Y-87433129D01*
X151500405Y-87371773D01*
X151631550Y-87229169D01*
X151830038Y-87021751D01*
X152079436Y-86765952D01*
X152363311Y-86478209D01*
X152665227Y-86174956D01*
X152968752Y-85872628D01*
X153257452Y-85587659D01*
X153514892Y-85336484D01*
X153724639Y-85135539D01*
X153870259Y-85001257D01*
X153935318Y-84950075D01*
X153936037Y-84949988D01*
X154011893Y-84906054D01*
X154143006Y-84796688D01*
X154185117Y-84757564D01*
X154398972Y-84559057D01*
X154537913Y-84444063D01*
X154624043Y-84395236D01*
X154653236Y-84390209D01*
X154732436Y-84342239D01*
X154856019Y-84223522D01*
X154886608Y-84189604D01*
X155044724Y-84042382D01*
X155199923Y-83946220D01*
X155217066Y-83939985D01*
X155337591Y-83877157D01*
X155371496Y-83825714D01*
X155425318Y-83762813D01*
X155444810Y-83760457D01*
X155538377Y-83713358D01*
X155667874Y-83598651D01*
X155680244Y-83585525D01*
X155812940Y-83466175D01*
X155917798Y-83411034D01*
X155924002Y-83410594D01*
X156018549Y-83354654D01*
X156044276Y-83309911D01*
X156135025Y-83223552D01*
X156286983Y-83164407D01*
X156431362Y-83114088D01*
X156491055Y-83056505D01*
X156550364Y-82994383D01*
X156665986Y-82949521D01*
X156796976Y-82895496D01*
X156840917Y-82843229D01*
X156897851Y-82788166D01*
X156948072Y-82780842D01*
X157065896Y-82724424D01*
X157093863Y-82680159D01*
X157184612Y-82593800D01*
X157336570Y-82534655D01*
X157480910Y-82485602D01*
X157540642Y-82430980D01*
X157600914Y-82376571D01*
X157746326Y-82326963D01*
X157750559Y-82326021D01*
X157897377Y-82277856D01*
X157960432Y-82225599D01*
X157960477Y-82224446D01*
X158022255Y-82179905D01*
X158176675Y-82135863D01*
X158240366Y-82124220D01*
X158415331Y-82081667D01*
X158512937Y-82029632D01*
X158520256Y-82013489D01*
X158581420Y-81958513D01*
X158731931Y-81908413D01*
X158765160Y-81901570D01*
X158926560Y-81857416D01*
X159007771Y-81808033D01*
X159010063Y-81800007D01*
X159072745Y-81759715D01*
X159233077Y-81717520D01*
X159359926Y-81696269D01*
X159559163Y-81658273D01*
X159685873Y-81613748D01*
X159709788Y-81589032D01*
X159772255Y-81545429D01*
X159931248Y-81500678D01*
X160042157Y-81480927D01*
X160244653Y-81441221D01*
X160382184Y-81395910D01*
X160411453Y-81375223D01*
X160494729Y-81340526D01*
X160678571Y-81303105D01*
X160924000Y-81270809D01*
X160936246Y-81269564D01*
X161186086Y-81234852D01*
X161378458Y-81190211D01*
X161473009Y-81145093D01*
X161474085Y-81143570D01*
X161555743Y-81122039D01*
X161757014Y-81104013D01*
X162057659Y-81089469D01*
X162437436Y-81078385D01*
X162876105Y-81070739D01*
X163353426Y-81066508D01*
X163849158Y-81065669D01*
X164343061Y-81068201D01*
G37*
%TO.C,U1*%
X161400410Y-126032699D02*
X161400410Y-125307699D01*
X162125410Y-121812699D02*
X161400410Y-121812699D01*
X162125410Y-126032699D02*
X161400410Y-126032699D01*
X164895410Y-121812699D02*
X165620410Y-121812699D01*
X164895410Y-126032699D02*
X165620410Y-126032699D01*
X165620410Y-121812699D02*
X165620410Y-122537699D01*
X165620410Y-126032699D02*
X165620410Y-125307699D01*
%TO.C,D3*%
X132170128Y-79477600D02*
X135970128Y-79477600D01*
X132170128Y-82277600D02*
X132170128Y-81527600D01*
X132170128Y-82277600D02*
X135970128Y-82277600D01*
%TO.C,D5*%
X92593551Y-74260598D02*
X96393551Y-74260598D01*
X92593551Y-77060598D02*
X92593551Y-76310598D01*
X92593551Y-77060598D02*
X96393551Y-77060598D01*
%TO.C,D10*%
X124129939Y-99571800D02*
X127929939Y-99571800D01*
X124129939Y-102371800D02*
X124129939Y-101621800D01*
X124129939Y-102371800D02*
X127929939Y-102371800D01*
%TO.C,D1*%
X163593092Y-74311875D02*
X167393092Y-74311875D01*
X163593092Y-77111875D02*
X163593092Y-76361875D01*
X163593092Y-77111875D02*
X167393092Y-77111875D01*
D14*
%TO.C,S1*%
X75999405Y-117224277D02*
X75999405Y-117224277D01*
X75999405Y-117224277D02*
X75999405Y-117224277D01*
X76099405Y-117224277D02*
X76099405Y-117224277D01*
D13*
X77949405Y-118124277D02*
X77949405Y-120124277D01*
X78499405Y-116574277D02*
X82499405Y-116574277D01*
X78499405Y-121674277D02*
X82499405Y-121674277D01*
X83049405Y-118124277D02*
X83049405Y-120124277D01*
D14*
X76099405Y-117224277D02*
G75*
G03*
X75999405Y-117224277I-50000J0D01*
G01*
X75999405Y-117224277D02*
G75*
G03*
X76099405Y-117224277I50000J0D01*
G01*
X75999405Y-117224277D02*
G75*
G03*
X76099405Y-117224277I50000J0D01*
G01*
D11*
%TO.C,D7*%
X83552863Y-90378432D02*
X87352863Y-90378432D01*
X83552863Y-93178432D02*
X83552863Y-92428432D01*
X83552863Y-93178432D02*
X87352863Y-93178432D01*
%TO.C,D13*%
X145155928Y-92193768D02*
X148955928Y-92193768D01*
X145155928Y-94993768D02*
X145155928Y-94243768D01*
X145155928Y-94993768D02*
X148955928Y-94993768D01*
%TO.C,D4*%
X115641637Y-76657412D02*
X119441637Y-76657412D01*
X115641637Y-79457412D02*
X115641637Y-78707412D01*
X115641637Y-79457412D02*
X119441637Y-79457412D01*
%TO.C,D6*%
X77248571Y-75860787D02*
X81048571Y-75860787D01*
X77248571Y-78660787D02*
X77248571Y-77910787D01*
X77248571Y-78660787D02*
X81048571Y-78660787D01*
%TO.C,D16*%
X151075158Y-97233820D02*
X154875158Y-97233820D01*
X151075158Y-100033820D02*
X151075158Y-99283820D01*
X151075158Y-100033820D02*
X154875158Y-100033820D01*
%TO.C,D11*%
X133579275Y-99610766D02*
X137379275Y-99610766D01*
X133579275Y-102410766D02*
X133579275Y-101660766D01*
X133579275Y-102410766D02*
X137379275Y-102410766D01*
%TD*%
M02*
