G04 #@! TF.GenerationSoftware,KiCad,Pcbnew,(5.1.6)-1*
G04 #@! TF.CreationDate,2020-12-04T21:52:10+01:00*
G04 #@! TF.ProjectId,case_julgran,63617365-5f6a-4756-9c67-72616e2e6b69,rev?*
G04 #@! TF.SameCoordinates,Original*
G04 #@! TF.FileFunction,Soldermask,Top*
G04 #@! TF.FilePolarity,Negative*
%FSLAX46Y46*%
G04 Gerber Fmt 4.6, Leading zero omitted, Abs format (unit mm)*
G04 Created by KiCad (PCBNEW (5.1.6)-1) date 2020-12-04 21:52:10*
%MOMM*%
%LPD*%
G01*
G04 APERTURE LIST*
%ADD10C,0.010000*%
G04 APERTURE END LIST*
D10*
G36*
X122687700Y-48204045D02*
G01*
X122824285Y-48215607D01*
X122938069Y-48241656D01*
X123057364Y-48287741D01*
X123143972Y-48327605D01*
X123447657Y-48514085D01*
X123699035Y-48759981D01*
X123895049Y-49062299D01*
X123895258Y-49062710D01*
X123938886Y-49151285D01*
X124012164Y-49303112D01*
X124110949Y-49509485D01*
X124231097Y-49761696D01*
X124368467Y-50051039D01*
X124518916Y-50368806D01*
X124678301Y-50706290D01*
X124790402Y-50944147D01*
X124949514Y-51280321D01*
X125099700Y-51594338D01*
X125237338Y-51878860D01*
X125358802Y-52126543D01*
X125460471Y-52330048D01*
X125538718Y-52482033D01*
X125589921Y-52575156D01*
X125608963Y-52602335D01*
X125657495Y-52613790D01*
X125776788Y-52635596D01*
X125958956Y-52666486D01*
X126196115Y-52705188D01*
X126480379Y-52750434D01*
X126803864Y-52800956D01*
X127158684Y-52855482D01*
X127536955Y-52912746D01*
X127543401Y-52913714D01*
X128062013Y-52992810D01*
X128511593Y-53063879D01*
X128890404Y-53126618D01*
X129196707Y-53180723D01*
X129428764Y-53225891D01*
X129584837Y-53261819D01*
X129646488Y-53280745D01*
X129882035Y-53405998D01*
X130109744Y-53590911D01*
X130309804Y-53816554D01*
X130459155Y-54057348D01*
X130518082Y-54182517D01*
X130555875Y-54285712D01*
X130577190Y-54391425D01*
X130586687Y-54524145D01*
X130589024Y-54708363D01*
X130589045Y-54740235D01*
X130587428Y-54933114D01*
X130579342Y-55071345D01*
X130559940Y-55179763D01*
X130524370Y-55283205D01*
X130467783Y-55406505D01*
X130453049Y-55436689D01*
X130410725Y-55516981D01*
X130359993Y-55598662D01*
X130294741Y-55688692D01*
X130208854Y-55794031D01*
X130096217Y-55921638D01*
X129950718Y-56078474D01*
X129766242Y-56271499D01*
X129536674Y-56507672D01*
X129301476Y-56747590D01*
X129046784Y-57006835D01*
X128790617Y-57267693D01*
X128543036Y-57519910D01*
X128314101Y-57753236D01*
X128113872Y-57957416D01*
X127952409Y-58122200D01*
X127869198Y-58207226D01*
X127452498Y-58633373D01*
X127622641Y-59697837D01*
X127668465Y-59983107D01*
X127711081Y-60245720D01*
X127748639Y-60474495D01*
X127779291Y-60658254D01*
X127801190Y-60785818D01*
X127812470Y-60845940D01*
X127851010Y-60902672D01*
X127945562Y-61000624D01*
X128088514Y-61133350D01*
X128272251Y-61294405D01*
X128489160Y-61477346D01*
X128731628Y-61675726D01*
X128992042Y-61883100D01*
X129262789Y-62093024D01*
X129476059Y-62254249D01*
X130681371Y-63105498D01*
X131928255Y-63890068D01*
X133212801Y-64605663D01*
X134531098Y-65249992D01*
X134762754Y-65354263D01*
X135047616Y-65491210D01*
X135265343Y-65622010D01*
X135426769Y-65756023D01*
X135542732Y-65902609D01*
X135624067Y-66071128D01*
X135637711Y-66110024D01*
X135684714Y-66311414D01*
X135685823Y-66511330D01*
X135638342Y-66727084D01*
X135539575Y-66975989D01*
X135485408Y-67088104D01*
X135136899Y-67695353D01*
X134727825Y-68252367D01*
X134261646Y-68756036D01*
X133741824Y-69203250D01*
X133171819Y-69590899D01*
X132555093Y-69915873D01*
X132150916Y-70084465D01*
X131804805Y-70215206D01*
X131891477Y-70336925D01*
X131965108Y-70427428D01*
X132087567Y-70563174D01*
X132249695Y-70735017D01*
X132442336Y-70933813D01*
X132656333Y-71150418D01*
X132882529Y-71375687D01*
X133111765Y-71600476D01*
X133334887Y-71815638D01*
X133542735Y-72012031D01*
X133726153Y-72180509D01*
X133827725Y-72270535D01*
X134255022Y-72634625D01*
X134654815Y-72958635D01*
X135051805Y-73261405D01*
X135470692Y-73561774D01*
X135935367Y-73878042D01*
X136293227Y-74113894D01*
X136615039Y-74319196D01*
X136917812Y-74503631D01*
X137218557Y-74676880D01*
X137534284Y-74848628D01*
X137882004Y-75028556D01*
X138278726Y-75226348D01*
X138459468Y-75314841D01*
X138745910Y-75457012D01*
X138997582Y-75586872D01*
X139205950Y-75699743D01*
X139362481Y-75790946D01*
X139458643Y-75855803D01*
X139478482Y-75873525D01*
X139609450Y-76040165D01*
X139688276Y-76212523D01*
X139724716Y-76417317D01*
X139730281Y-76563051D01*
X139728598Y-76695436D01*
X139718247Y-76801979D01*
X139693069Y-76903880D01*
X139646906Y-77022337D01*
X139573603Y-77178549D01*
X139519858Y-77287490D01*
X139405743Y-77503200D01*
X139270868Y-77736963D01*
X139135752Y-77954002D01*
X139062737Y-78062249D01*
X138865413Y-78317478D01*
X138621689Y-78594002D01*
X138351381Y-78871877D01*
X138074304Y-79131155D01*
X137810275Y-79351890D01*
X137699751Y-79434219D01*
X137398150Y-79631276D01*
X137059599Y-79823765D01*
X136710800Y-79997973D01*
X136378454Y-80140185D01*
X136203677Y-80202628D01*
X136051596Y-80255439D01*
X135933262Y-80303012D01*
X135865515Y-80338248D01*
X135855868Y-80349235D01*
X135883489Y-80393298D01*
X135960682Y-80483205D01*
X136078942Y-80610512D01*
X136229764Y-80766776D01*
X136404644Y-80943552D01*
X136595076Y-81132397D01*
X136792557Y-81324865D01*
X136988582Y-81512515D01*
X137174644Y-81686900D01*
X137342241Y-81839578D01*
X137465727Y-81947597D01*
X138354789Y-82655080D01*
X139274865Y-83290561D01*
X140230124Y-83856867D01*
X140469779Y-83985267D01*
X140670888Y-84087093D01*
X140916142Y-84205523D01*
X141186145Y-84331732D01*
X141461498Y-84456894D01*
X141722806Y-84572185D01*
X141950671Y-84668780D01*
X142116432Y-84734421D01*
X142348915Y-84858866D01*
X142542912Y-85036907D01*
X142689040Y-85253550D01*
X142777913Y-85493801D01*
X142800147Y-85742668D01*
X142792703Y-85814887D01*
X142728799Y-86099374D01*
X142618926Y-86428786D01*
X142470114Y-86788790D01*
X142289394Y-87165054D01*
X142083796Y-87543248D01*
X141860350Y-87909038D01*
X141626086Y-88248095D01*
X141549559Y-88349154D01*
X141393695Y-88537653D01*
X141201903Y-88750612D01*
X140989139Y-88973099D01*
X140770361Y-89190180D01*
X140560526Y-89386920D01*
X140374592Y-89548385D01*
X140258137Y-89638556D01*
X140156740Y-89714460D01*
X140088206Y-89772732D01*
X140069327Y-89796233D01*
X140092763Y-89833491D01*
X140157725Y-89922319D01*
X140256191Y-90052118D01*
X140380139Y-90212286D01*
X140492857Y-90355926D01*
X141401967Y-91443984D01*
X142367136Y-92475701D01*
X143388166Y-93450908D01*
X144464859Y-94369434D01*
X145597017Y-95231109D01*
X146784440Y-96035764D01*
X147939749Y-96733674D01*
X148135487Y-96848078D01*
X148314944Y-96957877D01*
X148462693Y-97053274D01*
X148563310Y-97124472D01*
X148589321Y-97146213D01*
X148737711Y-97325627D01*
X148831780Y-97536522D01*
X148871241Y-97782903D01*
X148855803Y-98068775D01*
X148785178Y-98398145D01*
X148659077Y-98775019D01*
X148477209Y-99203402D01*
X148434165Y-99295512D01*
X148097377Y-99915586D01*
X147698818Y-100488062D01*
X147242782Y-101009567D01*
X146733565Y-101476725D01*
X146175460Y-101886161D01*
X145572762Y-102234501D01*
X144929765Y-102518368D01*
X144250764Y-102734389D01*
X143975175Y-102799939D01*
X143716072Y-102843499D01*
X143400534Y-102877180D01*
X143051114Y-102900106D01*
X142690366Y-102911405D01*
X142340843Y-102910201D01*
X142025097Y-102895621D01*
X141872660Y-102881429D01*
X141159897Y-102768258D01*
X140450475Y-102595979D01*
X139760626Y-102370008D01*
X139106583Y-102095761D01*
X138504577Y-101778653D01*
X138425981Y-101731516D01*
X138153996Y-101565745D01*
X137768945Y-101708347D01*
X137383893Y-101850948D01*
X137251821Y-102413667D01*
X137057939Y-103151568D01*
X136827983Y-103857859D01*
X136553400Y-104555529D01*
X136225636Y-105267571D01*
X136088679Y-105540235D01*
X135905918Y-105888501D01*
X135747748Y-106170883D01*
X135608837Y-106395147D01*
X135483853Y-106569062D01*
X135367466Y-106700397D01*
X135254345Y-106796919D01*
X135202661Y-106831327D01*
X135114493Y-106882985D01*
X135038236Y-106917046D01*
X134954234Y-106937002D01*
X134842835Y-106946345D01*
X134684381Y-106948566D01*
X134546792Y-106947844D01*
X134188654Y-106932763D01*
X133813634Y-106891241D01*
X133404779Y-106820737D01*
X132945137Y-106718714D01*
X132832826Y-106691115D01*
X131965936Y-106434474D01*
X131131840Y-106105420D01*
X130330611Y-105703991D01*
X129562318Y-105230226D01*
X128827033Y-104684164D01*
X128297374Y-104227287D01*
X127948209Y-103907085D01*
X127764824Y-104272227D01*
X127393966Y-104936885D01*
X126956782Y-105591321D01*
X126466099Y-106217867D01*
X125934743Y-106798859D01*
X125918941Y-106814764D01*
X125324066Y-107372406D01*
X124714449Y-107862509D01*
X124073808Y-108297017D01*
X123385865Y-108687874D01*
X123318863Y-108722451D01*
X123109556Y-108828675D01*
X122954341Y-108903466D01*
X122836910Y-108952322D01*
X122740954Y-108980739D01*
X122650165Y-108994215D01*
X122548236Y-108998250D01*
X122500152Y-108998451D01*
X122383462Y-108996398D01*
X122286371Y-108986333D01*
X122190934Y-108962395D01*
X122079210Y-108918722D01*
X121933255Y-108849455D01*
X121735126Y-108748733D01*
X121734243Y-108748278D01*
X121047323Y-108366659D01*
X120419446Y-107956199D01*
X119831600Y-107503148D01*
X119264772Y-106993754D01*
X119140082Y-106871847D01*
X118955551Y-106684849D01*
X118768512Y-106488361D01*
X118596222Y-106300974D01*
X118455940Y-106141276D01*
X118405936Y-106081027D01*
X118177650Y-105782490D01*
X117937288Y-105440949D01*
X117700720Y-105080712D01*
X117483821Y-104726086D01*
X117302462Y-104401378D01*
X117276754Y-104351775D01*
X117050202Y-103908869D01*
X116664694Y-104258274D01*
X115947001Y-104858461D01*
X115199610Y-105384920D01*
X114422321Y-105837745D01*
X113614936Y-106217032D01*
X112777258Y-106522875D01*
X111909088Y-106755369D01*
X111151486Y-106894732D01*
X110774982Y-106942725D01*
X110464048Y-106964401D01*
X110208852Y-106958636D01*
X109999561Y-106924303D01*
X109826344Y-106860278D01*
X109679367Y-106765436D01*
X109627535Y-106720319D01*
X109538633Y-106616411D01*
X109423995Y-106450528D01*
X109289576Y-106233604D01*
X109141330Y-105976573D01*
X108985211Y-105690369D01*
X108827175Y-105385926D01*
X108673175Y-105074180D01*
X108529165Y-104766064D01*
X108401100Y-104472514D01*
X108393307Y-104453807D01*
X108266116Y-104127472D01*
X108133680Y-103752520D01*
X108004042Y-103354394D01*
X107885240Y-102958536D01*
X107785317Y-102590387D01*
X107727338Y-102346564D01*
X107619308Y-101852134D01*
X107232656Y-101708940D01*
X106846003Y-101565745D01*
X106574019Y-101731327D01*
X105965012Y-102061800D01*
X105302825Y-102346904D01*
X104602844Y-102581504D01*
X103880453Y-102760467D01*
X103151039Y-102878660D01*
X103127340Y-102881429D01*
X102835187Y-102904113D01*
X102496370Y-102912493D01*
X102133835Y-102907469D01*
X101770526Y-102889941D01*
X101429387Y-102860809D01*
X101133363Y-102820972D01*
X101015336Y-102798592D01*
X100334407Y-102613735D01*
X99684336Y-102359187D01*
X99070256Y-102038893D01*
X98497297Y-101656794D01*
X97970592Y-101216833D01*
X97495273Y-100722953D01*
X97076470Y-100179096D01*
X96719317Y-99589206D01*
X96642079Y-99438670D01*
X96433544Y-98991750D01*
X96278732Y-98598444D01*
X96192943Y-98307615D01*
X98398752Y-98307615D01*
X98399119Y-98354198D01*
X98430816Y-98450579D01*
X98487126Y-98576752D01*
X98493273Y-98589088D01*
X98768341Y-99052755D01*
X99107195Y-99484160D01*
X99498903Y-99873049D01*
X99932529Y-100209171D01*
X100397138Y-100482272D01*
X100622971Y-100585891D01*
X100866582Y-100682105D01*
X101087472Y-100754476D01*
X101304059Y-100806086D01*
X101534764Y-100840017D01*
X101798004Y-100859350D01*
X102112200Y-100867168D01*
X102307198Y-100867693D01*
X102698146Y-100861385D01*
X103032730Y-100842309D01*
X103333543Y-100806995D01*
X103623173Y-100751976D01*
X103924212Y-100673783D01*
X104259250Y-100568946D01*
X104264828Y-100567094D01*
X104456626Y-100498356D01*
X104662116Y-100416333D01*
X104868075Y-100327315D01*
X105061280Y-100237592D01*
X105228507Y-100153455D01*
X105356534Y-100081195D01*
X105432137Y-100027103D01*
X105446905Y-100004738D01*
X105434706Y-99943968D01*
X105403250Y-99832462D01*
X105360222Y-99697042D01*
X105323256Y-99572102D01*
X105298036Y-99445268D01*
X105282395Y-99296679D01*
X105274165Y-99106473D01*
X105271298Y-98882175D01*
X105271423Y-98839503D01*
X107281070Y-98839503D01*
X107305289Y-99081148D01*
X107386496Y-99312745D01*
X107523193Y-99522984D01*
X107713880Y-99700557D01*
X107957058Y-99834155D01*
X108030885Y-99861011D01*
X108166127Y-99880979D01*
X108342621Y-99875336D01*
X108527726Y-99847799D01*
X108688801Y-99802085D01*
X108737187Y-99780583D01*
X108960290Y-99625511D01*
X109128617Y-99426499D01*
X109239777Y-99196772D01*
X109291381Y-98949556D01*
X109281037Y-98698077D01*
X109206354Y-98455562D01*
X109064943Y-98235235D01*
X109024523Y-98190935D01*
X108869375Y-98046897D01*
X108724362Y-97956032D01*
X108562702Y-97907338D01*
X108357611Y-97889810D01*
X108289515Y-97888990D01*
X108116502Y-97892461D01*
X107993766Y-97907795D01*
X107892280Y-97941291D01*
X107784054Y-97998633D01*
X107565331Y-98167376D01*
X107409592Y-98371308D01*
X107315338Y-98599120D01*
X107281070Y-98839503D01*
X105271423Y-98839503D01*
X105272003Y-98642131D01*
X105278338Y-98460415D01*
X105292536Y-98315927D01*
X105316827Y-98187569D01*
X105353442Y-98054241D01*
X105361679Y-98027559D01*
X105544277Y-97566826D01*
X105786895Y-97150583D01*
X106083074Y-96783149D01*
X106426354Y-96468845D01*
X106810274Y-96211993D01*
X107228376Y-96016914D01*
X107674200Y-95887927D01*
X108141285Y-95829354D01*
X108623171Y-95845516D01*
X108623802Y-95845588D01*
X109092848Y-95936222D01*
X109530582Y-96094497D01*
X109932162Y-96313814D01*
X110292750Y-96587571D01*
X110607503Y-96909170D01*
X110871583Y-97272009D01*
X111080148Y-97669488D01*
X111228358Y-98095008D01*
X111311374Y-98541969D01*
X111324354Y-99003770D01*
X111267392Y-99450283D01*
X111145474Y-99875607D01*
X110962139Y-100284132D01*
X110726195Y-100663194D01*
X110446453Y-101000131D01*
X110131724Y-101282277D01*
X109874636Y-101452224D01*
X109754378Y-101530455D01*
X109678795Y-101600842D01*
X109661176Y-101638630D01*
X109673106Y-101727077D01*
X109705711Y-101876441D01*
X109754935Y-102072087D01*
X109816726Y-102299376D01*
X109887028Y-102543672D01*
X109961787Y-102790337D01*
X110036949Y-103024734D01*
X110081452Y-103155980D01*
X110200153Y-103479046D01*
X110335318Y-103816659D01*
X110477458Y-104146874D01*
X110617082Y-104447749D01*
X110744698Y-104697340D01*
X110760382Y-104725717D01*
X110801218Y-104798113D01*
X110838638Y-104848546D01*
X110885142Y-104877604D01*
X110953233Y-104885877D01*
X111055410Y-104873952D01*
X111204175Y-104842419D01*
X111412028Y-104791866D01*
X111532215Y-104762068D01*
X112320921Y-104526250D01*
X113083525Y-104217196D01*
X113814519Y-103838455D01*
X114508395Y-103393579D01*
X115159645Y-102886115D01*
X115762760Y-102319615D01*
X116312232Y-101697628D01*
X116338586Y-101664648D01*
X116473081Y-101497769D01*
X116598086Y-101346752D01*
X116701433Y-101226017D01*
X116770956Y-101149985D01*
X116781396Y-101139863D01*
X116973708Y-101013191D01*
X117206936Y-100937781D01*
X117459048Y-100916337D01*
X117708012Y-100951566D01*
X117860320Y-101007376D01*
X118064626Y-101136135D01*
X118225818Y-101311417D01*
X118352206Y-101544265D01*
X118429028Y-101762882D01*
X118533352Y-102105675D01*
X118629715Y-102394821D01*
X118727120Y-102654341D01*
X118834575Y-102908255D01*
X118958466Y-103175133D01*
X119335473Y-103879094D01*
X119764482Y-104524850D01*
X120250091Y-105118015D01*
X120796897Y-105664204D01*
X121409498Y-106169033D01*
X121410993Y-106170156D01*
X121578047Y-106291087D01*
X121763326Y-106417853D01*
X121953545Y-106542204D01*
X122135421Y-106655888D01*
X122295668Y-106750653D01*
X122421003Y-106818249D01*
X122498141Y-106850424D01*
X122508718Y-106851970D01*
X122553131Y-106832940D01*
X122649426Y-106781736D01*
X122781377Y-106707188D01*
X122872671Y-106653890D01*
X123541382Y-106214315D01*
X124153243Y-105719241D01*
X124708014Y-105168986D01*
X125205456Y-104563867D01*
X125645329Y-103904200D01*
X126027392Y-103190303D01*
X126351406Y-102422493D01*
X126570662Y-101762882D01*
X126690943Y-101456629D01*
X126850554Y-101219323D01*
X127049998Y-101050536D01*
X127289778Y-100949841D01*
X127568075Y-100916808D01*
X127760696Y-100928149D01*
X127926985Y-100967495D01*
X128079658Y-101043130D01*
X128231433Y-101163334D01*
X128395025Y-101336390D01*
X128583150Y-101570579D01*
X128594272Y-101585149D01*
X128806503Y-101844948D01*
X129064978Y-102131685D01*
X129350964Y-102426490D01*
X129645727Y-102710497D01*
X129930533Y-102964839D01*
X130111459Y-103113181D01*
X130794979Y-103599979D01*
X131514176Y-104019028D01*
X132263178Y-104367517D01*
X133036111Y-104642634D01*
X133640707Y-104801997D01*
X133821675Y-104842087D01*
X133973558Y-104874797D01*
X134079980Y-104896664D01*
X134124150Y-104904241D01*
X134155380Y-104869387D01*
X134211427Y-104772565D01*
X134287004Y-104625386D01*
X134376823Y-104439461D01*
X134475597Y-104226400D01*
X134578039Y-103997816D01*
X134678861Y-103765318D01*
X134772776Y-103540517D01*
X134854496Y-103335025D01*
X134918734Y-103160452D01*
X134920279Y-103155980D01*
X134993448Y-102935235D01*
X135068632Y-102693729D01*
X135141814Y-102446027D01*
X135208975Y-102206694D01*
X135266100Y-101990295D01*
X135309169Y-101811394D01*
X135334165Y-101684557D01*
X135338824Y-101638630D01*
X135304959Y-101582874D01*
X135212700Y-101507953D01*
X135110563Y-101444728D01*
X134948858Y-101334827D01*
X134760779Y-101176962D01*
X134564274Y-100989165D01*
X134377291Y-100789470D01*
X134217778Y-100595910D01*
X134112665Y-100442075D01*
X133893682Y-99997059D01*
X133749624Y-99537083D01*
X133679743Y-99069588D01*
X133681513Y-98836706D01*
X135708069Y-98836706D01*
X135728919Y-99078573D01*
X135804992Y-99309617D01*
X135934639Y-99518100D01*
X136116211Y-99692282D01*
X136348058Y-99820424D01*
X136471987Y-99860902D01*
X136653880Y-99881938D01*
X136864130Y-99867023D01*
X137062693Y-99820714D01*
X137152596Y-99783420D01*
X137381081Y-99626179D01*
X137551033Y-99428057D01*
X137662016Y-99201291D01*
X137713596Y-98958116D01*
X137705340Y-98710769D01*
X137636812Y-98471484D01*
X137507579Y-98252499D01*
X137317205Y-98066048D01*
X137215945Y-97998633D01*
X137106575Y-97940821D01*
X137004473Y-97907410D01*
X136880562Y-97892062D01*
X136710485Y-97888435D01*
X136536445Y-97892349D01*
X136412880Y-97908212D01*
X136310973Y-97942200D01*
X136209898Y-97995777D01*
X135993357Y-98163551D01*
X135838639Y-98367456D01*
X135744093Y-98595754D01*
X135708069Y-98836706D01*
X133681513Y-98836706D01*
X133683297Y-98602018D01*
X133759539Y-98141814D01*
X133907724Y-97696419D01*
X134127109Y-97273276D01*
X134416947Y-96879827D01*
X134475850Y-96813492D01*
X134830547Y-96481779D01*
X135225167Y-96215549D01*
X135651773Y-96016806D01*
X136102427Y-95887555D01*
X136569193Y-95829799D01*
X137044134Y-95845543D01*
X137519313Y-95936791D01*
X137711933Y-95996345D01*
X138150097Y-96188450D01*
X138548749Y-96446554D01*
X138902288Y-96764748D01*
X139205111Y-97137126D01*
X139451617Y-97557781D01*
X139636204Y-98020807D01*
X139638320Y-98027559D01*
X139677441Y-98164091D01*
X139703827Y-98291780D01*
X139719710Y-98431726D01*
X139727322Y-98605028D01*
X139728893Y-98832784D01*
X139728701Y-98882175D01*
X139725306Y-99127092D01*
X139716458Y-99312439D01*
X139699991Y-99458077D01*
X139673738Y-99583867D01*
X139639778Y-99697042D01*
X139596080Y-99834685D01*
X139564899Y-99945521D01*
X139553095Y-100004738D01*
X139587774Y-100043951D01*
X139683580Y-100105239D01*
X139827347Y-100182374D01*
X140005912Y-100269129D01*
X140206110Y-100359274D01*
X140414778Y-100446582D01*
X140618751Y-100524825D01*
X140745070Y-100568692D01*
X141077206Y-100672454D01*
X141372088Y-100750006D01*
X141652297Y-100804813D01*
X141940416Y-100840343D01*
X142259023Y-100860062D01*
X142630701Y-100867436D01*
X142692801Y-100867693D01*
X143041746Y-100864762D01*
X143329902Y-100851960D01*
X143575687Y-100826207D01*
X143797520Y-100784420D01*
X144013821Y-100723517D01*
X144243008Y-100640418D01*
X144377028Y-100585891D01*
X144852417Y-100345931D01*
X145301959Y-100038136D01*
X145714719Y-99672757D01*
X146079763Y-99260046D01*
X146386155Y-98810258D01*
X146506726Y-98589088D01*
X146564952Y-98461188D01*
X146599181Y-98361250D01*
X146602693Y-98309278D01*
X146601247Y-98307615D01*
X146556099Y-98277166D01*
X146457205Y-98214857D01*
X146319020Y-98129676D01*
X146155997Y-98030614D01*
X146151017Y-98027608D01*
X145870642Y-97853810D01*
X145545839Y-97644894D01*
X145195611Y-97413661D01*
X144838963Y-97172913D01*
X144494899Y-96935454D01*
X144182422Y-96714084D01*
X143964788Y-96554815D01*
X142938132Y-95745374D01*
X141934884Y-94869126D01*
X140966464Y-93937501D01*
X140044289Y-92961931D01*
X139179779Y-91953847D01*
X138507222Y-91091252D01*
X138382718Y-90924097D01*
X138276193Y-90781256D01*
X138196107Y-90674059D01*
X138150920Y-90613837D01*
X138144099Y-90604930D01*
X138104335Y-90607849D01*
X138006390Y-90624045D01*
X137869836Y-90650214D01*
X137840646Y-90656143D01*
X137644166Y-90686269D01*
X137386610Y-90710790D01*
X137086238Y-90729196D01*
X136761308Y-90740979D01*
X136430081Y-90745627D01*
X136110816Y-90742633D01*
X135821772Y-90731487D01*
X135637245Y-90717610D01*
X134813516Y-90612114D01*
X134028812Y-90457038D01*
X133255875Y-90246697D01*
X133023616Y-90172431D01*
X132596215Y-90031253D01*
X132404753Y-90171799D01*
X132174401Y-90318833D01*
X131898952Y-90460681D01*
X131612078Y-90581371D01*
X131386387Y-90654856D01*
X131128550Y-90724649D01*
X131001695Y-91106699D01*
X130684988Y-91942077D01*
X130296776Y-92762232D01*
X129844329Y-93554761D01*
X129334919Y-94307259D01*
X128775814Y-95007322D01*
X128599410Y-95205337D01*
X128381871Y-95431920D01*
X128195964Y-95598955D01*
X128031382Y-95714429D01*
X127877820Y-95786330D01*
X127830951Y-95800991D01*
X127667667Y-95834364D01*
X127511099Y-95836991D01*
X127349967Y-95804635D01*
X127172994Y-95733056D01*
X126968902Y-95618017D01*
X126726413Y-95455278D01*
X126529278Y-95311821D01*
X125500713Y-94499749D01*
X124519515Y-93629718D01*
X123593634Y-92709177D01*
X122757500Y-91776933D01*
X122653093Y-91657181D01*
X122566872Y-91564980D01*
X122512105Y-91514236D01*
X122501463Y-91508623D01*
X122467306Y-91537269D01*
X122390556Y-91616720D01*
X122280154Y-91737246D01*
X122145039Y-91889115D01*
X122019185Y-92033558D01*
X121404842Y-92709917D01*
X120730733Y-93388060D01*
X120014492Y-94051627D01*
X119273753Y-94684256D01*
X118552762Y-95249687D01*
X118269555Y-95456664D01*
X118034795Y-95614528D01*
X117837953Y-95727475D01*
X117668499Y-95799700D01*
X117515903Y-95835398D01*
X117369635Y-95838765D01*
X117219165Y-95813996D01*
X117169048Y-95800991D01*
X117009218Y-95737585D01*
X116841930Y-95630718D01*
X116656977Y-95472495D01*
X116444154Y-95255026D01*
X116398801Y-95205337D01*
X115803638Y-94490387D01*
X115264855Y-93726326D01*
X114787843Y-92922357D01*
X114377989Y-92087689D01*
X114040683Y-91231526D01*
X113996445Y-91101118D01*
X113935406Y-90923454D01*
X113888537Y-90807687D01*
X113847622Y-90739432D01*
X113804444Y-90704304D01*
X113761722Y-90690157D01*
X113388551Y-90580713D01*
X113016272Y-90421916D01*
X112678670Y-90228818D01*
X112593623Y-90169682D01*
X112406025Y-90032898D01*
X111904775Y-90195972D01*
X111196041Y-90403283D01*
X110489859Y-90560869D01*
X109756677Y-90674800D01*
X109362754Y-90718059D01*
X109108266Y-90735394D01*
X108810077Y-90744254D01*
X108486399Y-90745148D01*
X108155442Y-90738590D01*
X107835417Y-90725091D01*
X107544534Y-90705162D01*
X107301005Y-90679315D01*
X107159353Y-90656143D01*
X107017954Y-90628445D01*
X106911740Y-90610066D01*
X106860102Y-90604300D01*
X106858041Y-90604930D01*
X106833528Y-90638236D01*
X106769350Y-90724604D01*
X106673421Y-90853405D01*
X106553654Y-91014013D01*
X106451506Y-91150877D01*
X106011406Y-91724330D01*
X105565910Y-92271126D01*
X105101543Y-92806536D01*
X104604828Y-93345833D01*
X104062287Y-93904287D01*
X103732684Y-94231809D01*
X102728711Y-95168238D01*
X101673886Y-96055855D01*
X100579016Y-96886259D01*
X99454906Y-97651049D01*
X98848983Y-98028108D01*
X98685411Y-98127272D01*
X98546272Y-98212842D01*
X98446032Y-98275837D01*
X98399157Y-98307275D01*
X98398752Y-98307615D01*
X96192943Y-98307615D01*
X96177184Y-98254192D01*
X96128440Y-97954432D01*
X96132038Y-97694606D01*
X96187518Y-97470153D01*
X96294421Y-97276512D01*
X96410679Y-97146298D01*
X96481969Y-97091877D01*
X96608810Y-97007521D01*
X96777299Y-96901983D01*
X96973536Y-96784013D01*
X97139749Y-96687374D01*
X98361767Y-95944051D01*
X99527296Y-95145467D01*
X100638902Y-94289585D01*
X101699147Y-93374367D01*
X102710597Y-92397778D01*
X103236503Y-91845148D01*
X103470650Y-91587901D01*
X103704883Y-91323400D01*
X103933605Y-91058608D01*
X104151220Y-90800489D01*
X104352128Y-90556007D01*
X104530732Y-90332124D01*
X104681434Y-90135805D01*
X104798637Y-89974012D01*
X104876742Y-89853710D01*
X104910153Y-89781860D01*
X104907954Y-89765915D01*
X104860987Y-89727813D01*
X104768870Y-89654697D01*
X104649131Y-89560458D01*
X104612676Y-89531893D01*
X104438977Y-89384912D01*
X104233167Y-89193551D01*
X104012677Y-88975602D01*
X103794936Y-88748860D01*
X103597374Y-88531121D01*
X103437420Y-88340179D01*
X103407329Y-88301325D01*
X103037864Y-87760351D01*
X102709463Y-87169760D01*
X102435467Y-86554444D01*
X102354848Y-86337728D01*
X102319552Y-86230523D01*
X104496198Y-86230523D01*
X104579542Y-86395160D01*
X104870579Y-86885511D01*
X105224484Y-87336893D01*
X105632133Y-87740206D01*
X106084401Y-88086350D01*
X106540532Y-88350709D01*
X106808746Y-88474078D01*
X107061401Y-88566642D01*
X107318822Y-88632938D01*
X107601335Y-88677500D01*
X107929264Y-88704864D01*
X108175380Y-88715545D01*
X109009941Y-88703809D01*
X109845488Y-88616392D01*
X110667129Y-88455155D01*
X111030696Y-88358338D01*
X111347151Y-88266832D01*
X111352172Y-87711437D01*
X111352273Y-87707524D01*
X113374048Y-87707524D01*
X113404389Y-87971660D01*
X113499567Y-88215559D01*
X113653142Y-88426281D01*
X113858676Y-88590888D01*
X114029747Y-88671649D01*
X114246254Y-88717032D01*
X114486421Y-88716869D01*
X114712188Y-88672574D01*
X114788576Y-88643435D01*
X115025881Y-88495457D01*
X115207344Y-88297729D01*
X115327885Y-88061683D01*
X115382425Y-87798751D01*
X115365884Y-87520366D01*
X115338074Y-87406735D01*
X115264087Y-87251087D01*
X115142111Y-87085055D01*
X114994735Y-86934844D01*
X114844550Y-86826655D01*
X114832489Y-86820293D01*
X114579184Y-86732419D01*
X114320217Y-86716159D01*
X114068612Y-86765854D01*
X113837392Y-86875846D01*
X113639583Y-87040477D01*
X113488210Y-87254089D01*
X113414980Y-87436091D01*
X113374048Y-87707524D01*
X111352273Y-87707524D01*
X111360054Y-87407467D01*
X111381131Y-87158919D01*
X111420762Y-86942104D01*
X111484304Y-86733332D01*
X111577114Y-86508912D01*
X111666572Y-86321299D01*
X111920196Y-85892975D01*
X112228983Y-85521662D01*
X112591130Y-85208918D01*
X113004836Y-84956299D01*
X113466473Y-84765961D01*
X113612950Y-84720086D01*
X113737881Y-84688403D01*
X113862226Y-84668325D01*
X114006945Y-84657263D01*
X114193000Y-84652631D01*
X114391080Y-84651816D01*
X114635853Y-84653635D01*
X114821574Y-84660542D01*
X114968638Y-84674707D01*
X115097438Y-84698300D01*
X115228367Y-84733493D01*
X115265571Y-84744904D01*
X115731047Y-84929584D01*
X116152182Y-85177295D01*
X116523919Y-85483766D01*
X116841200Y-85844726D01*
X117098970Y-86255905D01*
X117132018Y-86321299D01*
X117261336Y-86612586D01*
X117350142Y-86886528D01*
X117406272Y-87174062D01*
X117437563Y-87506127D01*
X117439125Y-87533662D01*
X117431479Y-88009829D01*
X117352864Y-88461345D01*
X117200440Y-88899688D01*
X117008775Y-89273828D01*
X116914836Y-89409856D01*
X116780272Y-89573777D01*
X116620374Y-89749933D01*
X116450434Y-89922669D01*
X116285742Y-90076327D01*
X116141589Y-90195250D01*
X116049917Y-90255612D01*
X115958175Y-90312291D01*
X115906065Y-90360133D01*
X115901565Y-90371659D01*
X115914508Y-90422422D01*
X115949517Y-90530516D01*
X116000859Y-90678787D01*
X116048010Y-90809802D01*
X116154373Y-91075738D01*
X116292159Y-91383064D01*
X116450247Y-91709726D01*
X116617512Y-92033673D01*
X116782833Y-92332852D01*
X116935086Y-92585208D01*
X116971864Y-92641487D01*
X117081909Y-92803566D01*
X117199044Y-92971476D01*
X117313929Y-93132383D01*
X117417224Y-93273457D01*
X117499591Y-93381867D01*
X117551691Y-93444781D01*
X117564236Y-93455364D01*
X117598629Y-93432444D01*
X117680734Y-93369919D01*
X117796697Y-93278485D01*
X117882232Y-93209780D01*
X118621542Y-92579669D01*
X119343692Y-91901098D01*
X120033888Y-91189406D01*
X120677335Y-90459934D01*
X121259241Y-89728022D01*
X121324501Y-89640391D01*
X121523192Y-89377195D01*
X121689290Y-89173582D01*
X121833005Y-89022144D01*
X121964549Y-88915472D01*
X122094133Y-88846158D01*
X122231971Y-88806796D01*
X122388273Y-88789975D01*
X122500000Y-88787617D01*
X122664679Y-88792951D01*
X122805902Y-88813669D01*
X122933102Y-88856849D01*
X123055714Y-88929566D01*
X123183174Y-89038897D01*
X123324915Y-89191918D01*
X123490372Y-89395706D01*
X123688981Y-89657337D01*
X123726114Y-89707261D01*
X124147016Y-90245855D01*
X124622541Y-90804466D01*
X125136774Y-91366443D01*
X125673800Y-91915135D01*
X126217702Y-92433892D01*
X126752567Y-92906064D01*
X126904719Y-93032725D01*
X127430123Y-93463714D01*
X127510365Y-93370597D01*
X127618703Y-93231949D01*
X127754525Y-93038424D01*
X127908228Y-92805464D01*
X128070211Y-92548514D01*
X128230872Y-92283016D01*
X128380611Y-92024412D01*
X128509825Y-91788146D01*
X128580259Y-91649782D01*
X128686058Y-91426463D01*
X128790442Y-91194062D01*
X128887901Y-90966155D01*
X128972927Y-90756318D01*
X129040012Y-90578126D01*
X129083648Y-90445156D01*
X129098364Y-90372878D01*
X129067323Y-90333088D01*
X128987335Y-90269176D01*
X128909951Y-90217013D01*
X128788845Y-90129905D01*
X128641933Y-90009103D01*
X128498136Y-89878577D01*
X128478242Y-89859267D01*
X128166664Y-89500182D01*
X127920986Y-89104129D01*
X127741893Y-88679605D01*
X127630072Y-88235107D01*
X127588803Y-87806121D01*
X129617591Y-87806121D01*
X129667681Y-88054631D01*
X129785472Y-88291545D01*
X129868209Y-88398756D01*
X130059384Y-88559596D01*
X130294372Y-88668826D01*
X130552493Y-88721328D01*
X130813070Y-88711980D01*
X130970252Y-88671649D01*
X131197384Y-88550294D01*
X131389898Y-88368792D01*
X131534852Y-88143483D01*
X131619306Y-87890706D01*
X131627292Y-87842046D01*
X131624917Y-87587149D01*
X131554185Y-87345694D01*
X131425802Y-87128318D01*
X131250474Y-86945658D01*
X131038906Y-86808353D01*
X130801804Y-86727041D01*
X130549874Y-86712358D01*
X130496700Y-86718644D01*
X130231360Y-86794069D01*
X130007785Y-86927229D01*
X129830298Y-87106570D01*
X129703222Y-87320536D01*
X129630879Y-87557571D01*
X129617591Y-87806121D01*
X127588803Y-87806121D01*
X127586206Y-87779132D01*
X127610982Y-87320177D01*
X127705083Y-86866739D01*
X127869196Y-86427315D01*
X128104006Y-86010402D01*
X128161259Y-85928038D01*
X128469546Y-85563816D01*
X128821009Y-85261059D01*
X129207634Y-85020409D01*
X129621402Y-84842510D01*
X130054297Y-84728004D01*
X130498303Y-84677534D01*
X130945403Y-84691742D01*
X131387581Y-84771271D01*
X131816819Y-84916764D01*
X132225102Y-85128863D01*
X132604413Y-85408212D01*
X132766340Y-85558852D01*
X132986838Y-85800361D01*
X133166482Y-86049401D01*
X133327010Y-86337251D01*
X133372332Y-86430844D01*
X133479505Y-86675032D01*
X133555309Y-86895530D01*
X133604881Y-87116661D01*
X133633360Y-87362750D01*
X133645881Y-87658122D01*
X133646995Y-87731368D01*
X133653242Y-88266945D01*
X133969500Y-88358394D01*
X134780532Y-88552501D01*
X135613190Y-88673480D01*
X136454297Y-88719679D01*
X136820849Y-88715975D01*
X137181889Y-88698767D01*
X137485034Y-88667879D01*
X137751397Y-88618476D01*
X138002088Y-88545723D01*
X138258219Y-88444786D01*
X138499217Y-88331615D01*
X138964933Y-88058501D01*
X139399847Y-87719307D01*
X139793041Y-87324922D01*
X140133599Y-86886239D01*
X140399875Y-86435525D01*
X140502931Y-86231754D01*
X140077444Y-86045541D01*
X139219349Y-85631610D01*
X138367618Y-85146074D01*
X137531931Y-84596756D01*
X136721970Y-83991481D01*
X135947419Y-83338073D01*
X135217957Y-82644357D01*
X134543269Y-81918157D01*
X133933035Y-81167297D01*
X133772720Y-80950499D01*
X133540173Y-80628967D01*
X132978850Y-80605329D01*
X132053048Y-80527190D01*
X131145095Y-80371776D01*
X130256936Y-80139590D01*
X129390515Y-79831133D01*
X128606429Y-79476495D01*
X128437993Y-79395781D01*
X128295380Y-79334256D01*
X128193236Y-79297763D01*
X128146203Y-79292141D01*
X128145641Y-79292679D01*
X128120355Y-79343266D01*
X128077815Y-79449437D01*
X128025834Y-79591336D01*
X128007682Y-79643365D01*
X127845270Y-80066921D01*
X127639718Y-80527308D01*
X127402149Y-81003254D01*
X127143688Y-81473489D01*
X126875456Y-81916743D01*
X126622081Y-82292962D01*
X126034566Y-83047566D01*
X125396570Y-83740960D01*
X124706529Y-84374603D01*
X123962878Y-84949955D01*
X123313161Y-85378548D01*
X123086858Y-85511494D01*
X122888748Y-85610205D01*
X122708405Y-85673020D01*
X122535401Y-85698278D01*
X122359309Y-85684318D01*
X122169702Y-85629480D01*
X121956152Y-85532102D01*
X121708232Y-85390523D01*
X121415515Y-85203082D01*
X121168388Y-85036904D01*
X120969017Y-84898133D01*
X120760036Y-84747438D01*
X120567814Y-84604104D01*
X120433020Y-84499023D01*
X120250063Y-84342604D01*
X120029986Y-84140460D01*
X119787365Y-83907265D01*
X119536773Y-83657690D01*
X119292786Y-83406407D01*
X119069979Y-83168090D01*
X118882927Y-82957410D01*
X118788193Y-82843208D01*
X118371073Y-82282018D01*
X117978610Y-81679604D01*
X117621267Y-81054621D01*
X117309508Y-80425722D01*
X117053798Y-79811559D01*
X116993178Y-79643365D01*
X116939408Y-79494001D01*
X116892551Y-79373683D01*
X116860457Y-79302247D01*
X116854358Y-79292679D01*
X116810014Y-79296847D01*
X116709931Y-79332137D01*
X116568753Y-79392709D01*
X116401124Y-79472720D01*
X116393571Y-79476495D01*
X115716551Y-79783950D01*
X115003039Y-80049207D01*
X114268633Y-80268389D01*
X113528929Y-80437618D01*
X112799526Y-80553017D01*
X112096020Y-80610707D01*
X111806771Y-80616805D01*
X111468315Y-80617230D01*
X111231301Y-80945165D01*
X110647325Y-81694538D01*
X109994727Y-82424974D01*
X109283786Y-83127304D01*
X108524776Y-83792355D01*
X107727975Y-84410957D01*
X106903658Y-84973938D01*
X106321909Y-85326494D01*
X106137230Y-85429007D01*
X105906445Y-85551694D01*
X105648445Y-85685031D01*
X105382124Y-85819493D01*
X105126374Y-85945556D01*
X104900087Y-86053697D01*
X104722155Y-86134390D01*
X104703498Y-86142394D01*
X104496198Y-86230523D01*
X102319552Y-86230523D01*
X102271230Y-86083759D01*
X102220851Y-85882113D01*
X102201510Y-85713950D01*
X102211004Y-85560432D01*
X102245978Y-85406665D01*
X102325914Y-85208634D01*
X102446919Y-85039963D01*
X102618807Y-84892029D01*
X102851391Y-84756206D01*
X103122065Y-84636656D01*
X104065846Y-84220878D01*
X104996405Y-83732154D01*
X105903090Y-83176994D01*
X106775251Y-82561909D01*
X107583931Y-81909226D01*
X107756655Y-81756063D01*
X107946173Y-81580921D01*
X108144594Y-81391846D01*
X108344029Y-81196886D01*
X108536590Y-81004086D01*
X108714387Y-80821494D01*
X108869530Y-80657155D01*
X108994130Y-80519118D01*
X109080298Y-80415428D01*
X109120145Y-80354132D01*
X109120446Y-80342080D01*
X109066963Y-80314397D01*
X108959614Y-80272283D01*
X108820611Y-80224387D01*
X108806260Y-80219752D01*
X108249158Y-80000891D01*
X107708913Y-79710699D01*
X107194203Y-79356919D01*
X106713706Y-78947298D01*
X106276101Y-78489581D01*
X105890066Y-77991513D01*
X105564280Y-77460840D01*
X105441036Y-77216417D01*
X105373947Y-77051621D01*
X107713316Y-77051621D01*
X107739993Y-77091124D01*
X107812018Y-77172103D01*
X107917144Y-77281231D01*
X107998154Y-77361656D01*
X108420541Y-77720433D01*
X108894726Y-78026253D01*
X109407523Y-78271955D01*
X109945749Y-78450382D01*
X110050929Y-78476350D01*
X110232155Y-78507871D01*
X110476778Y-78534860D01*
X110768799Y-78556853D01*
X111092221Y-78573387D01*
X111431044Y-78583999D01*
X111769271Y-78588226D01*
X112090903Y-78585605D01*
X112379943Y-78575674D01*
X112620391Y-78557969D01*
X112671658Y-78552197D01*
X113458528Y-78415837D01*
X114223108Y-78203652D01*
X114961924Y-77917057D01*
X115671505Y-77557467D01*
X116348378Y-77126296D01*
X116570631Y-76963504D01*
X116818817Y-76787757D01*
X117030637Y-76668178D01*
X117220432Y-76599709D01*
X117402542Y-76577287D01*
X117591308Y-76595853D01*
X117604920Y-76598512D01*
X117874461Y-76690141D01*
X118101346Y-76843740D01*
X118276492Y-77050803D01*
X118390820Y-77302821D01*
X118402655Y-77345922D01*
X118463615Y-77566498D01*
X118547688Y-77840638D01*
X118647975Y-78148285D01*
X118757579Y-78469387D01*
X118869601Y-78783888D01*
X118977143Y-79071735D01*
X119073306Y-79312873D01*
X119103917Y-79384629D01*
X119434280Y-80074306D01*
X119807245Y-80732649D01*
X120215931Y-81349974D01*
X120653460Y-81916602D01*
X121112952Y-82422853D01*
X121551906Y-82829265D01*
X121704335Y-82954029D01*
X121872458Y-83085621D01*
X122043427Y-83214695D01*
X122204395Y-83331906D01*
X122342514Y-83427905D01*
X122444935Y-83493349D01*
X122498811Y-83518890D01*
X122500000Y-83518952D01*
X122542682Y-83497645D01*
X122633941Y-83440615D01*
X122757557Y-83358197D01*
X122821700Y-83313991D01*
X123427131Y-82844658D01*
X123992957Y-82308171D01*
X124517177Y-81707422D01*
X124997790Y-81045303D01*
X125432793Y-80324703D01*
X125820187Y-79548513D01*
X126157970Y-78719624D01*
X126312286Y-78272003D01*
X126388117Y-78035964D01*
X126462468Y-77800415D01*
X126528540Y-77587172D01*
X126579538Y-77418049D01*
X126595419Y-77363338D01*
X126709728Y-77084763D01*
X126876400Y-76862955D01*
X127091989Y-76701603D01*
X127289435Y-76620799D01*
X127505006Y-76576083D01*
X127703429Y-76578175D01*
X127900179Y-76631450D01*
X128110728Y-76740286D01*
X128350549Y-76909060D01*
X128374653Y-76927773D01*
X128969746Y-77346620D01*
X129616038Y-77716424D01*
X130296380Y-78028747D01*
X130993621Y-78275148D01*
X131269006Y-78352222D01*
X131596773Y-78431413D01*
X131903699Y-78492161D01*
X132206999Y-78536120D01*
X132523889Y-78564948D01*
X132871585Y-78580299D01*
X133267303Y-78583829D01*
X133629890Y-78579256D01*
X133943748Y-78572488D01*
X134191700Y-78565098D01*
X134387337Y-78555889D01*
X134544249Y-78543664D01*
X134676028Y-78527225D01*
X134796264Y-78505376D01*
X134918549Y-78476919D01*
X134984309Y-78459943D01*
X135535105Y-78283784D01*
X136029644Y-78058519D01*
X136478267Y-77778455D01*
X136891316Y-77437898D01*
X136959961Y-77372390D01*
X137089296Y-77242004D01*
X137189859Y-77132016D01*
X137252135Y-77053494D01*
X137266613Y-77017505D01*
X137265575Y-77016858D01*
X137218089Y-76992541D01*
X137113756Y-76936970D01*
X136965458Y-76857073D01*
X136786078Y-76759780D01*
X136669331Y-76696176D01*
X135490688Y-76011216D01*
X134371964Y-75274894D01*
X133310739Y-74485185D01*
X132304594Y-73640063D01*
X131351108Y-72737502D01*
X130447863Y-71775475D01*
X129637281Y-70808619D01*
X129509084Y-70649398D01*
X129397620Y-70515218D01*
X129312388Y-70417188D01*
X129262886Y-70366421D01*
X129255345Y-70361831D01*
X129143033Y-70351544D01*
X128970501Y-70323167D01*
X128753976Y-70280429D01*
X128509686Y-70227059D01*
X128253856Y-70166784D01*
X128002715Y-70103332D01*
X127772489Y-70040432D01*
X127579405Y-69981813D01*
X127531741Y-69965824D01*
X127408865Y-69925186D01*
X127321358Y-69899659D01*
X127289991Y-69894670D01*
X127273280Y-69933944D01*
X127236170Y-70026680D01*
X127190445Y-70143208D01*
X126931469Y-70715883D01*
X126603145Y-71287831D01*
X126214460Y-71844769D01*
X125819446Y-72322507D01*
X125667418Y-72494338D01*
X125562453Y-72619351D01*
X125497148Y-72708635D01*
X125464101Y-72773283D01*
X125455908Y-72824384D01*
X125461271Y-72859126D01*
X125525225Y-73253343D01*
X125530469Y-73677190D01*
X125480006Y-74110180D01*
X125376836Y-74531824D01*
X125223960Y-74921635D01*
X125134428Y-75090354D01*
X124916056Y-75404035D01*
X124639812Y-75707767D01*
X124325368Y-75983962D01*
X123992399Y-76215036D01*
X123712363Y-76361584D01*
X123303182Y-76500704D01*
X122860813Y-76579187D01*
X122403533Y-76596990D01*
X121949619Y-76554070D01*
X121517348Y-76450383D01*
X121295222Y-76367341D01*
X121119241Y-76278921D01*
X120911950Y-76155353D01*
X120701076Y-76014729D01*
X120514347Y-75875142D01*
X120426964Y-75800810D01*
X120151062Y-75503567D01*
X119906314Y-75150024D01*
X119704924Y-74761091D01*
X119559095Y-74357675D01*
X119537689Y-74277168D01*
X119496226Y-74043293D01*
X119472696Y-73765146D01*
X119468408Y-73517184D01*
X121501291Y-73517184D01*
X121510487Y-73676832D01*
X121534256Y-73825881D01*
X121558427Y-73907705D01*
X121694460Y-74134989D01*
X121887469Y-74321280D01*
X122120761Y-74455462D01*
X122377642Y-74526417D01*
X122500000Y-74534763D01*
X122775152Y-74495809D01*
X122917660Y-74442076D01*
X123123020Y-74311843D01*
X123302215Y-74133815D01*
X123430234Y-73933477D01*
X123441179Y-73908647D01*
X123495556Y-73687927D01*
X123494544Y-73440613D01*
X123439982Y-73195291D01*
X123387258Y-73070486D01*
X123234341Y-72845265D01*
X123045353Y-72681320D01*
X122831085Y-72576096D01*
X122602325Y-72527035D01*
X122369864Y-72531583D01*
X122144489Y-72587185D01*
X121936990Y-72691285D01*
X121758157Y-72841328D01*
X121618779Y-73034757D01*
X121529645Y-73269018D01*
X121501291Y-73517184D01*
X119468408Y-73517184D01*
X119467647Y-73473203D01*
X119481631Y-73197937D01*
X119514182Y-72974397D01*
X119564568Y-72744866D01*
X119277641Y-72437777D01*
X118905216Y-72006419D01*
X118559934Y-71542179D01*
X118252640Y-71062056D01*
X117994176Y-70583046D01*
X117795386Y-70122147D01*
X117788511Y-70103459D01*
X117747303Y-69991220D01*
X117719098Y-69915567D01*
X117711708Y-69896737D01*
X117674634Y-69904780D01*
X117577259Y-69932666D01*
X117434948Y-69975856D01*
X117285269Y-70022751D01*
X116946097Y-70120674D01*
X116571949Y-70212481D01*
X116199967Y-70289696D01*
X115893210Y-70340339D01*
X115808166Y-70355221D01*
X115740365Y-70380579D01*
X115675109Y-70428368D01*
X115597701Y-70510542D01*
X115493442Y-70639056D01*
X115436463Y-70711838D01*
X114650873Y-71659398D01*
X113799699Y-72573876D01*
X112891083Y-73448524D01*
X111933166Y-74276593D01*
X110934088Y-75051333D01*
X109901991Y-75765997D01*
X108845015Y-76413835D01*
X108012632Y-76866316D01*
X107876541Y-76939667D01*
X107772799Y-77002218D01*
X107717926Y-77043739D01*
X107713316Y-77051621D01*
X105373947Y-77051621D01*
X105320605Y-76920597D01*
X105259242Y-76664202D01*
X105255355Y-76435271D01*
X105307351Y-76221845D01*
X105308301Y-76219349D01*
X105354700Y-76109121D01*
X105408116Y-76013935D01*
X105477219Y-75927413D01*
X105570678Y-75843181D01*
X105697162Y-75754859D01*
X105865341Y-75656073D01*
X106083883Y-75540446D01*
X106361459Y-75401601D01*
X106536701Y-75315821D01*
X107338230Y-74909682D01*
X108078699Y-74500444D01*
X108776100Y-74076576D01*
X109448422Y-73626550D01*
X110113659Y-73138834D01*
X110789799Y-72601900D01*
X110853364Y-72549475D01*
X110995547Y-72427092D01*
X111174386Y-72265718D01*
X111381354Y-72073712D01*
X111607923Y-71859434D01*
X111845568Y-71631243D01*
X112085760Y-71397499D01*
X112319973Y-71166562D01*
X112539680Y-70946791D01*
X112736353Y-70746546D01*
X112901466Y-70574186D01*
X113026490Y-70438072D01*
X113102900Y-70346562D01*
X113108939Y-70338206D01*
X113195194Y-70215206D01*
X112849084Y-70085367D01*
X112219602Y-69807311D01*
X111627226Y-69461323D01*
X111077605Y-69052479D01*
X110576388Y-68585859D01*
X110129225Y-68066540D01*
X109741765Y-67499600D01*
X109514591Y-67088104D01*
X109434577Y-66909406D01*
X111755061Y-66909406D01*
X112148892Y-67296096D01*
X112577915Y-67664812D01*
X113040628Y-67962183D01*
X113535018Y-68187185D01*
X114059073Y-68338790D01*
X114271831Y-68377921D01*
X114689704Y-68412574D01*
X115155527Y-68396768D01*
X115657808Y-68332835D01*
X116185056Y-68223108D01*
X116725780Y-68069921D01*
X117268491Y-67875606D01*
X117732483Y-67675305D01*
X117942371Y-67579963D01*
X118100304Y-67516605D01*
X118224289Y-67479458D01*
X118332332Y-67462748D01*
X118403614Y-67460110D01*
X118669917Y-67484202D01*
X118892572Y-67561502D01*
X119093003Y-67699542D01*
X119098735Y-67704559D01*
X119206650Y-67809614D01*
X119288726Y-67918906D01*
X119352118Y-68049016D01*
X119403982Y-68216522D01*
X119451471Y-68438002D01*
X119476981Y-68580993D01*
X119614880Y-69171664D01*
X119819340Y-69719028D01*
X120090654Y-70223697D01*
X120429117Y-70686281D01*
X120560047Y-70834628D01*
X120746698Y-71036611D01*
X121040264Y-70878264D01*
X121214789Y-70790023D01*
X121399036Y-70706167D01*
X121555338Y-70643763D01*
X121565890Y-70640076D01*
X122008712Y-70528901D01*
X122467605Y-70491138D01*
X122931635Y-70525428D01*
X123389866Y-70630410D01*
X123831363Y-70804727D01*
X124106341Y-70955901D01*
X124247363Y-71043058D01*
X124436984Y-70837851D01*
X124797509Y-70389651D01*
X125093014Y-69896310D01*
X125322667Y-69359595D01*
X125485632Y-68781270D01*
X125537174Y-68506761D01*
X125594966Y-68224786D01*
X125670429Y-68007037D01*
X125769973Y-67839045D01*
X125886911Y-67717195D01*
X126122720Y-67559653D01*
X126372453Y-67476199D01*
X126640515Y-67466602D01*
X126931312Y-67530632D01*
X127210328Y-67648109D01*
X127812375Y-67913922D01*
X128461003Y-68132582D01*
X129134276Y-68297248D01*
X129495931Y-68360642D01*
X130070189Y-68410057D01*
X130625640Y-68383504D01*
X131158807Y-68282146D01*
X131666209Y-68107142D01*
X132144367Y-67859654D01*
X132589801Y-67540841D01*
X132944209Y-67210335D01*
X133054232Y-67091047D01*
X133139287Y-66991016D01*
X133186828Y-66925370D01*
X133192644Y-66910802D01*
X133159216Y-66875984D01*
X133071039Y-66820694D01*
X132946274Y-66756149D01*
X132929347Y-66748147D01*
X132446898Y-66510620D01*
X131918710Y-66229524D01*
X131358964Y-65913538D01*
X130781841Y-65571338D01*
X130201523Y-65211601D01*
X129632191Y-64843005D01*
X129088027Y-64474228D01*
X128583212Y-64113946D01*
X128394306Y-63973269D01*
X128204870Y-63831357D01*
X128068370Y-63732845D01*
X127975048Y-63672252D01*
X127915146Y-63644095D01*
X127878904Y-63642891D01*
X127856565Y-63663159D01*
X127852991Y-63669157D01*
X127748139Y-63812405D01*
X127595382Y-63967459D01*
X127418936Y-64112681D01*
X127243019Y-64226434D01*
X127210304Y-64243369D01*
X126913702Y-64349907D01*
X126595872Y-64394712D01*
X126282374Y-64375365D01*
X126146163Y-64344114D01*
X126065253Y-64311529D01*
X125922651Y-64244057D01*
X125726012Y-64145684D01*
X125482991Y-64020398D01*
X125201243Y-63872183D01*
X124888424Y-63705028D01*
X124552187Y-63522917D01*
X124228101Y-63345238D01*
X123890967Y-63159725D01*
X123574759Y-62986479D01*
X123286336Y-62829203D01*
X123032556Y-62691603D01*
X122820278Y-62577383D01*
X122656362Y-62490249D01*
X122547667Y-62433906D01*
X122501053Y-62412057D01*
X122500153Y-62411909D01*
X122445216Y-62430128D01*
X122354514Y-62475129D01*
X122333336Y-62486968D01*
X122049568Y-62647647D01*
X121739255Y-62820990D01*
X121410392Y-63002726D01*
X121070974Y-63188585D01*
X120728994Y-63374296D01*
X120392448Y-63555590D01*
X120069330Y-63728195D01*
X119767635Y-63887841D01*
X119495357Y-64030259D01*
X119260491Y-64151177D01*
X119071032Y-64246325D01*
X118934974Y-64311433D01*
X118860312Y-64342230D01*
X118859840Y-64342368D01*
X118539276Y-64395745D01*
X118209733Y-64377489D01*
X117892432Y-64289508D01*
X117796633Y-64246785D01*
X117618548Y-64139231D01*
X117437106Y-63996607D01*
X117276330Y-63840263D01*
X117160240Y-63691548D01*
X117147311Y-63669697D01*
X117126135Y-63645508D01*
X117092692Y-63642400D01*
X117036909Y-63665922D01*
X116948716Y-63721625D01*
X116818039Y-63815058D01*
X116634806Y-63951771D01*
X116633214Y-63952970D01*
X115597707Y-64695988D01*
X114531996Y-65387596D01*
X113419579Y-66038074D01*
X112502305Y-66526863D01*
X111755061Y-66909406D01*
X109434577Y-66909406D01*
X109393715Y-66818149D01*
X109326107Y-66588236D01*
X109309124Y-66381894D01*
X109340120Y-66182652D01*
X109359091Y-66119652D01*
X109425764Y-65954600D01*
X109512663Y-65817011D01*
X109631757Y-65696327D01*
X109795020Y-65581988D01*
X110014422Y-65463435D01*
X110204924Y-65373600D01*
X111528183Y-64735708D01*
X112788621Y-64052395D01*
X113990388Y-63321082D01*
X115137630Y-62539188D01*
X116234498Y-61704135D01*
X116639070Y-61372249D01*
X116813854Y-61222182D01*
X116966601Y-61083935D01*
X117086803Y-60967588D01*
X117163955Y-60883226D01*
X117187530Y-60845940D01*
X117198860Y-60785532D01*
X117220788Y-60657783D01*
X117251464Y-60473872D01*
X117289040Y-60244979D01*
X117331667Y-59982282D01*
X117377358Y-59697837D01*
X117547501Y-58633373D01*
X117130801Y-58207226D01*
X117001787Y-58075435D01*
X116827097Y-57897207D01*
X116616793Y-57682793D01*
X116380935Y-57442447D01*
X116129582Y-57186420D01*
X115872795Y-56924964D01*
X115698524Y-56747590D01*
X115425814Y-56469261D01*
X115203392Y-56239997D01*
X115025146Y-56052838D01*
X114884960Y-55900825D01*
X114776721Y-55776998D01*
X114694315Y-55674396D01*
X114631628Y-55586061D01*
X114582546Y-55505031D01*
X114546950Y-55436689D01*
X114485363Y-55306051D01*
X114445840Y-55200427D01*
X114423515Y-55094924D01*
X114420080Y-55050139D01*
X116965588Y-55050139D01*
X116965851Y-55073586D01*
X116987967Y-55114914D01*
X117036300Y-55179048D01*
X117115213Y-55270911D01*
X117229069Y-55395428D01*
X117382232Y-55557524D01*
X117579065Y-55762122D01*
X117823931Y-56014148D01*
X118065820Y-56261898D01*
X118320638Y-56523641D01*
X118561392Y-56773050D01*
X118781616Y-57003275D01*
X118974849Y-57207466D01*
X119134625Y-57378773D01*
X119254482Y-57510345D01*
X119327955Y-57595333D01*
X119344430Y-57616947D01*
X119489627Y-57895921D01*
X119576675Y-58207266D01*
X119598278Y-58451256D01*
X119591848Y-58546882D01*
X119573514Y-58710722D01*
X119544710Y-58932619D01*
X119506871Y-59202414D01*
X119461432Y-59509950D01*
X119409827Y-59845068D01*
X119353491Y-60197611D01*
X119339906Y-60280757D01*
X119283489Y-60625666D01*
X119231322Y-60946643D01*
X119184777Y-61235089D01*
X119145228Y-61482408D01*
X119114045Y-61680001D01*
X119092602Y-61819271D01*
X119082271Y-61891620D01*
X119081533Y-61899443D01*
X119082135Y-61914380D01*
X119088092Y-61923646D01*
X119105635Y-61924078D01*
X119140992Y-61912514D01*
X119200394Y-61885793D01*
X119290071Y-61840751D01*
X119416250Y-61774228D01*
X119585163Y-61683061D01*
X119803039Y-61564088D01*
X120076106Y-61414147D01*
X120410596Y-61230077D01*
X120532528Y-61162951D01*
X120839982Y-60995009D01*
X121133211Y-60837328D01*
X121403177Y-60694585D01*
X121640841Y-60571458D01*
X121837164Y-60472623D01*
X121983107Y-60402758D01*
X122069631Y-60366540D01*
X122074793Y-60364912D01*
X122363083Y-60313207D01*
X122669205Y-60316117D01*
X122925188Y-60364906D01*
X123004469Y-60397200D01*
X123144285Y-60463663D01*
X123335766Y-60559702D01*
X123570039Y-60680722D01*
X123838231Y-60822130D01*
X124131470Y-60979331D01*
X124440885Y-61147731D01*
X124505626Y-61183284D01*
X124808568Y-61349140D01*
X125089510Y-61501472D01*
X125340920Y-61636306D01*
X125555266Y-61749670D01*
X125725017Y-61837590D01*
X125842641Y-61896095D01*
X125900607Y-61921210D01*
X125905275Y-61921605D01*
X125903460Y-61879268D01*
X125889800Y-61766864D01*
X125865541Y-61592744D01*
X125831926Y-61365255D01*
X125790200Y-61092747D01*
X125741607Y-60783567D01*
X125687392Y-60446065D01*
X125663313Y-60298298D01*
X125605786Y-59940768D01*
X125552638Y-59598947D01*
X125505279Y-59282776D01*
X125465120Y-59002194D01*
X125433573Y-58767142D01*
X125412048Y-58587561D01*
X125401957Y-58473391D01*
X125401370Y-58453109D01*
X125432503Y-58171437D01*
X125517548Y-57885711D01*
X125645140Y-57633135D01*
X125657673Y-57614255D01*
X125707212Y-57553665D01*
X125806116Y-57443300D01*
X125947934Y-57289994D01*
X126126214Y-57100580D01*
X126334505Y-56881892D01*
X126566355Y-56640764D01*
X126815312Y-56384029D01*
X126934458Y-56261899D01*
X127222257Y-55966955D01*
X127458427Y-55723515D01*
X127647332Y-55526648D01*
X127793339Y-55371428D01*
X127900814Y-55252923D01*
X127974121Y-55166206D01*
X128017627Y-55106348D01*
X128035697Y-55068418D01*
X128032698Y-55047489D01*
X128017188Y-55039464D01*
X127958648Y-55028951D01*
X127830518Y-55008000D01*
X127641819Y-54978019D01*
X127401571Y-54940419D01*
X127118796Y-54896609D01*
X126802515Y-54847999D01*
X126461749Y-54795998D01*
X126366843Y-54781579D01*
X125936433Y-54715727D01*
X125576621Y-54658773D01*
X125279310Y-54608326D01*
X125036405Y-54561995D01*
X124839811Y-54517388D01*
X124681431Y-54472115D01*
X124553169Y-54423783D01*
X124446930Y-54370003D01*
X124354617Y-54308381D01*
X124268136Y-54236528D01*
X124179389Y-54152051D01*
X124155687Y-54128467D01*
X124102642Y-54072662D01*
X124051669Y-54011135D01*
X123998861Y-53936566D01*
X123940310Y-53841633D01*
X123872110Y-53719017D01*
X123790352Y-53561397D01*
X123691130Y-53361452D01*
X123570535Y-53111861D01*
X123424662Y-52805305D01*
X123249601Y-52434462D01*
X123235347Y-52404196D01*
X123082841Y-52081293D01*
X122940519Y-51781808D01*
X122811971Y-51513161D01*
X122700789Y-51282772D01*
X122610563Y-51098062D01*
X122544884Y-50966448D01*
X122507344Y-50895353D01*
X122500000Y-50884734D01*
X122479417Y-50919493D01*
X122428756Y-51018845D01*
X122351607Y-51175367D01*
X122251559Y-51381634D01*
X122132203Y-51630221D01*
X121997127Y-51913704D01*
X121849922Y-52224660D01*
X121765984Y-52402806D01*
X121588707Y-52778852D01*
X121440872Y-53090041D01*
X121318582Y-53343685D01*
X121217941Y-53547099D01*
X121135051Y-53707595D01*
X121066017Y-53832488D01*
X121006940Y-53929090D01*
X120953924Y-54004715D01*
X120903073Y-54066676D01*
X120850490Y-54122287D01*
X120849002Y-54123777D01*
X120575255Y-54342544D01*
X120257995Y-54499636D01*
X119970188Y-54578065D01*
X119874809Y-54593975D01*
X119712072Y-54619834D01*
X119493253Y-54653903D01*
X119229629Y-54694446D01*
X118932478Y-54739725D01*
X118613077Y-54788001D01*
X118405790Y-54819130D01*
X118086126Y-54867223D01*
X117788620Y-54912389D01*
X117523163Y-54953095D01*
X117299646Y-54987807D01*
X117127960Y-55014993D01*
X117017997Y-55033119D01*
X116982816Y-55039649D01*
X116965588Y-55050139D01*
X114420080Y-55050139D01*
X114413521Y-54964650D01*
X114410993Y-54784711D01*
X114410954Y-54741071D01*
X114413223Y-54542235D01*
X114422684Y-54398803D01*
X114443318Y-54286740D01*
X114479105Y-54182017D01*
X114518115Y-54094199D01*
X114665104Y-53849998D01*
X114862448Y-53620789D01*
X115087602Y-53429979D01*
X115255011Y-53329149D01*
X115315369Y-53301896D01*
X115385767Y-53276104D01*
X115473426Y-53250416D01*
X115585566Y-53223475D01*
X115729409Y-53193923D01*
X115912177Y-53160404D01*
X116141090Y-53121560D01*
X116423369Y-53076034D01*
X116766237Y-53022469D01*
X117176913Y-52959508D01*
X117412050Y-52923759D01*
X117795125Y-52865216D01*
X118154938Y-52809427D01*
X118483703Y-52757656D01*
X118773637Y-52711165D01*
X119016955Y-52671219D01*
X119205874Y-52639081D01*
X119332608Y-52616015D01*
X119389373Y-52603283D01*
X119391036Y-52602554D01*
X119418033Y-52561678D01*
X119474969Y-52456078D01*
X119558221Y-52293097D01*
X119664165Y-52080077D01*
X119789178Y-51824360D01*
X119929634Y-51533289D01*
X120081910Y-51214206D01*
X120209597Y-50944147D01*
X120372710Y-50598187D01*
X120529722Y-50265985D01*
X120676491Y-49956248D01*
X120808874Y-49677682D01*
X120922728Y-49438996D01*
X121013911Y-49248896D01*
X121078279Y-49116090D01*
X121104741Y-49062710D01*
X121300684Y-48760324D01*
X121551996Y-48514356D01*
X121855617Y-48327800D01*
X121856028Y-48327605D01*
X121992361Y-48266735D01*
X122106086Y-48229250D01*
X122225516Y-48209603D01*
X122378963Y-48202247D01*
X122500000Y-48201424D01*
X122687700Y-48204045D01*
G37*
X122687700Y-48204045D02*
X122824285Y-48215607D01*
X122938069Y-48241656D01*
X123057364Y-48287741D01*
X123143972Y-48327605D01*
X123447657Y-48514085D01*
X123699035Y-48759981D01*
X123895049Y-49062299D01*
X123895258Y-49062710D01*
X123938886Y-49151285D01*
X124012164Y-49303112D01*
X124110949Y-49509485D01*
X124231097Y-49761696D01*
X124368467Y-50051039D01*
X124518916Y-50368806D01*
X124678301Y-50706290D01*
X124790402Y-50944147D01*
X124949514Y-51280321D01*
X125099700Y-51594338D01*
X125237338Y-51878860D01*
X125358802Y-52126543D01*
X125460471Y-52330048D01*
X125538718Y-52482033D01*
X125589921Y-52575156D01*
X125608963Y-52602335D01*
X125657495Y-52613790D01*
X125776788Y-52635596D01*
X125958956Y-52666486D01*
X126196115Y-52705188D01*
X126480379Y-52750434D01*
X126803864Y-52800956D01*
X127158684Y-52855482D01*
X127536955Y-52912746D01*
X127543401Y-52913714D01*
X128062013Y-52992810D01*
X128511593Y-53063879D01*
X128890404Y-53126618D01*
X129196707Y-53180723D01*
X129428764Y-53225891D01*
X129584837Y-53261819D01*
X129646488Y-53280745D01*
X129882035Y-53405998D01*
X130109744Y-53590911D01*
X130309804Y-53816554D01*
X130459155Y-54057348D01*
X130518082Y-54182517D01*
X130555875Y-54285712D01*
X130577190Y-54391425D01*
X130586687Y-54524145D01*
X130589024Y-54708363D01*
X130589045Y-54740235D01*
X130587428Y-54933114D01*
X130579342Y-55071345D01*
X130559940Y-55179763D01*
X130524370Y-55283205D01*
X130467783Y-55406505D01*
X130453049Y-55436689D01*
X130410725Y-55516981D01*
X130359993Y-55598662D01*
X130294741Y-55688692D01*
X130208854Y-55794031D01*
X130096217Y-55921638D01*
X129950718Y-56078474D01*
X129766242Y-56271499D01*
X129536674Y-56507672D01*
X129301476Y-56747590D01*
X129046784Y-57006835D01*
X128790617Y-57267693D01*
X128543036Y-57519910D01*
X128314101Y-57753236D01*
X128113872Y-57957416D01*
X127952409Y-58122200D01*
X127869198Y-58207226D01*
X127452498Y-58633373D01*
X127622641Y-59697837D01*
X127668465Y-59983107D01*
X127711081Y-60245720D01*
X127748639Y-60474495D01*
X127779291Y-60658254D01*
X127801190Y-60785818D01*
X127812470Y-60845940D01*
X127851010Y-60902672D01*
X127945562Y-61000624D01*
X128088514Y-61133350D01*
X128272251Y-61294405D01*
X128489160Y-61477346D01*
X128731628Y-61675726D01*
X128992042Y-61883100D01*
X129262789Y-62093024D01*
X129476059Y-62254249D01*
X130681371Y-63105498D01*
X131928255Y-63890068D01*
X133212801Y-64605663D01*
X134531098Y-65249992D01*
X134762754Y-65354263D01*
X135047616Y-65491210D01*
X135265343Y-65622010D01*
X135426769Y-65756023D01*
X135542732Y-65902609D01*
X135624067Y-66071128D01*
X135637711Y-66110024D01*
X135684714Y-66311414D01*
X135685823Y-66511330D01*
X135638342Y-66727084D01*
X135539575Y-66975989D01*
X135485408Y-67088104D01*
X135136899Y-67695353D01*
X134727825Y-68252367D01*
X134261646Y-68756036D01*
X133741824Y-69203250D01*
X133171819Y-69590899D01*
X132555093Y-69915873D01*
X132150916Y-70084465D01*
X131804805Y-70215206D01*
X131891477Y-70336925D01*
X131965108Y-70427428D01*
X132087567Y-70563174D01*
X132249695Y-70735017D01*
X132442336Y-70933813D01*
X132656333Y-71150418D01*
X132882529Y-71375687D01*
X133111765Y-71600476D01*
X133334887Y-71815638D01*
X133542735Y-72012031D01*
X133726153Y-72180509D01*
X133827725Y-72270535D01*
X134255022Y-72634625D01*
X134654815Y-72958635D01*
X135051805Y-73261405D01*
X135470692Y-73561774D01*
X135935367Y-73878042D01*
X136293227Y-74113894D01*
X136615039Y-74319196D01*
X136917812Y-74503631D01*
X137218557Y-74676880D01*
X137534284Y-74848628D01*
X137882004Y-75028556D01*
X138278726Y-75226348D01*
X138459468Y-75314841D01*
X138745910Y-75457012D01*
X138997582Y-75586872D01*
X139205950Y-75699743D01*
X139362481Y-75790946D01*
X139458643Y-75855803D01*
X139478482Y-75873525D01*
X139609450Y-76040165D01*
X139688276Y-76212523D01*
X139724716Y-76417317D01*
X139730281Y-76563051D01*
X139728598Y-76695436D01*
X139718247Y-76801979D01*
X139693069Y-76903880D01*
X139646906Y-77022337D01*
X139573603Y-77178549D01*
X139519858Y-77287490D01*
X139405743Y-77503200D01*
X139270868Y-77736963D01*
X139135752Y-77954002D01*
X139062737Y-78062249D01*
X138865413Y-78317478D01*
X138621689Y-78594002D01*
X138351381Y-78871877D01*
X138074304Y-79131155D01*
X137810275Y-79351890D01*
X137699751Y-79434219D01*
X137398150Y-79631276D01*
X137059599Y-79823765D01*
X136710800Y-79997973D01*
X136378454Y-80140185D01*
X136203677Y-80202628D01*
X136051596Y-80255439D01*
X135933262Y-80303012D01*
X135865515Y-80338248D01*
X135855868Y-80349235D01*
X135883489Y-80393298D01*
X135960682Y-80483205D01*
X136078942Y-80610512D01*
X136229764Y-80766776D01*
X136404644Y-80943552D01*
X136595076Y-81132397D01*
X136792557Y-81324865D01*
X136988582Y-81512515D01*
X137174644Y-81686900D01*
X137342241Y-81839578D01*
X137465727Y-81947597D01*
X138354789Y-82655080D01*
X139274865Y-83290561D01*
X140230124Y-83856867D01*
X140469779Y-83985267D01*
X140670888Y-84087093D01*
X140916142Y-84205523D01*
X141186145Y-84331732D01*
X141461498Y-84456894D01*
X141722806Y-84572185D01*
X141950671Y-84668780D01*
X142116432Y-84734421D01*
X142348915Y-84858866D01*
X142542912Y-85036907D01*
X142689040Y-85253550D01*
X142777913Y-85493801D01*
X142800147Y-85742668D01*
X142792703Y-85814887D01*
X142728799Y-86099374D01*
X142618926Y-86428786D01*
X142470114Y-86788790D01*
X142289394Y-87165054D01*
X142083796Y-87543248D01*
X141860350Y-87909038D01*
X141626086Y-88248095D01*
X141549559Y-88349154D01*
X141393695Y-88537653D01*
X141201903Y-88750612D01*
X140989139Y-88973099D01*
X140770361Y-89190180D01*
X140560526Y-89386920D01*
X140374592Y-89548385D01*
X140258137Y-89638556D01*
X140156740Y-89714460D01*
X140088206Y-89772732D01*
X140069327Y-89796233D01*
X140092763Y-89833491D01*
X140157725Y-89922319D01*
X140256191Y-90052118D01*
X140380139Y-90212286D01*
X140492857Y-90355926D01*
X141401967Y-91443984D01*
X142367136Y-92475701D01*
X143388166Y-93450908D01*
X144464859Y-94369434D01*
X145597017Y-95231109D01*
X146784440Y-96035764D01*
X147939749Y-96733674D01*
X148135487Y-96848078D01*
X148314944Y-96957877D01*
X148462693Y-97053274D01*
X148563310Y-97124472D01*
X148589321Y-97146213D01*
X148737711Y-97325627D01*
X148831780Y-97536522D01*
X148871241Y-97782903D01*
X148855803Y-98068775D01*
X148785178Y-98398145D01*
X148659077Y-98775019D01*
X148477209Y-99203402D01*
X148434165Y-99295512D01*
X148097377Y-99915586D01*
X147698818Y-100488062D01*
X147242782Y-101009567D01*
X146733565Y-101476725D01*
X146175460Y-101886161D01*
X145572762Y-102234501D01*
X144929765Y-102518368D01*
X144250764Y-102734389D01*
X143975175Y-102799939D01*
X143716072Y-102843499D01*
X143400534Y-102877180D01*
X143051114Y-102900106D01*
X142690366Y-102911405D01*
X142340843Y-102910201D01*
X142025097Y-102895621D01*
X141872660Y-102881429D01*
X141159897Y-102768258D01*
X140450475Y-102595979D01*
X139760626Y-102370008D01*
X139106583Y-102095761D01*
X138504577Y-101778653D01*
X138425981Y-101731516D01*
X138153996Y-101565745D01*
X137768945Y-101708347D01*
X137383893Y-101850948D01*
X137251821Y-102413667D01*
X137057939Y-103151568D01*
X136827983Y-103857859D01*
X136553400Y-104555529D01*
X136225636Y-105267571D01*
X136088679Y-105540235D01*
X135905918Y-105888501D01*
X135747748Y-106170883D01*
X135608837Y-106395147D01*
X135483853Y-106569062D01*
X135367466Y-106700397D01*
X135254345Y-106796919D01*
X135202661Y-106831327D01*
X135114493Y-106882985D01*
X135038236Y-106917046D01*
X134954234Y-106937002D01*
X134842835Y-106946345D01*
X134684381Y-106948566D01*
X134546792Y-106947844D01*
X134188654Y-106932763D01*
X133813634Y-106891241D01*
X133404779Y-106820737D01*
X132945137Y-106718714D01*
X132832826Y-106691115D01*
X131965936Y-106434474D01*
X131131840Y-106105420D01*
X130330611Y-105703991D01*
X129562318Y-105230226D01*
X128827033Y-104684164D01*
X128297374Y-104227287D01*
X127948209Y-103907085D01*
X127764824Y-104272227D01*
X127393966Y-104936885D01*
X126956782Y-105591321D01*
X126466099Y-106217867D01*
X125934743Y-106798859D01*
X125918941Y-106814764D01*
X125324066Y-107372406D01*
X124714449Y-107862509D01*
X124073808Y-108297017D01*
X123385865Y-108687874D01*
X123318863Y-108722451D01*
X123109556Y-108828675D01*
X122954341Y-108903466D01*
X122836910Y-108952322D01*
X122740954Y-108980739D01*
X122650165Y-108994215D01*
X122548236Y-108998250D01*
X122500152Y-108998451D01*
X122383462Y-108996398D01*
X122286371Y-108986333D01*
X122190934Y-108962395D01*
X122079210Y-108918722D01*
X121933255Y-108849455D01*
X121735126Y-108748733D01*
X121734243Y-108748278D01*
X121047323Y-108366659D01*
X120419446Y-107956199D01*
X119831600Y-107503148D01*
X119264772Y-106993754D01*
X119140082Y-106871847D01*
X118955551Y-106684849D01*
X118768512Y-106488361D01*
X118596222Y-106300974D01*
X118455940Y-106141276D01*
X118405936Y-106081027D01*
X118177650Y-105782490D01*
X117937288Y-105440949D01*
X117700720Y-105080712D01*
X117483821Y-104726086D01*
X117302462Y-104401378D01*
X117276754Y-104351775D01*
X117050202Y-103908869D01*
X116664694Y-104258274D01*
X115947001Y-104858461D01*
X115199610Y-105384920D01*
X114422321Y-105837745D01*
X113614936Y-106217032D01*
X112777258Y-106522875D01*
X111909088Y-106755369D01*
X111151486Y-106894732D01*
X110774982Y-106942725D01*
X110464048Y-106964401D01*
X110208852Y-106958636D01*
X109999561Y-106924303D01*
X109826344Y-106860278D01*
X109679367Y-106765436D01*
X109627535Y-106720319D01*
X109538633Y-106616411D01*
X109423995Y-106450528D01*
X109289576Y-106233604D01*
X109141330Y-105976573D01*
X108985211Y-105690369D01*
X108827175Y-105385926D01*
X108673175Y-105074180D01*
X108529165Y-104766064D01*
X108401100Y-104472514D01*
X108393307Y-104453807D01*
X108266116Y-104127472D01*
X108133680Y-103752520D01*
X108004042Y-103354394D01*
X107885240Y-102958536D01*
X107785317Y-102590387D01*
X107727338Y-102346564D01*
X107619308Y-101852134D01*
X107232656Y-101708940D01*
X106846003Y-101565745D01*
X106574019Y-101731327D01*
X105965012Y-102061800D01*
X105302825Y-102346904D01*
X104602844Y-102581504D01*
X103880453Y-102760467D01*
X103151039Y-102878660D01*
X103127340Y-102881429D01*
X102835187Y-102904113D01*
X102496370Y-102912493D01*
X102133835Y-102907469D01*
X101770526Y-102889941D01*
X101429387Y-102860809D01*
X101133363Y-102820972D01*
X101015336Y-102798592D01*
X100334407Y-102613735D01*
X99684336Y-102359187D01*
X99070256Y-102038893D01*
X98497297Y-101656794D01*
X97970592Y-101216833D01*
X97495273Y-100722953D01*
X97076470Y-100179096D01*
X96719317Y-99589206D01*
X96642079Y-99438670D01*
X96433544Y-98991750D01*
X96278732Y-98598444D01*
X96192943Y-98307615D01*
X98398752Y-98307615D01*
X98399119Y-98354198D01*
X98430816Y-98450579D01*
X98487126Y-98576752D01*
X98493273Y-98589088D01*
X98768341Y-99052755D01*
X99107195Y-99484160D01*
X99498903Y-99873049D01*
X99932529Y-100209171D01*
X100397138Y-100482272D01*
X100622971Y-100585891D01*
X100866582Y-100682105D01*
X101087472Y-100754476D01*
X101304059Y-100806086D01*
X101534764Y-100840017D01*
X101798004Y-100859350D01*
X102112200Y-100867168D01*
X102307198Y-100867693D01*
X102698146Y-100861385D01*
X103032730Y-100842309D01*
X103333543Y-100806995D01*
X103623173Y-100751976D01*
X103924212Y-100673783D01*
X104259250Y-100568946D01*
X104264828Y-100567094D01*
X104456626Y-100498356D01*
X104662116Y-100416333D01*
X104868075Y-100327315D01*
X105061280Y-100237592D01*
X105228507Y-100153455D01*
X105356534Y-100081195D01*
X105432137Y-100027103D01*
X105446905Y-100004738D01*
X105434706Y-99943968D01*
X105403250Y-99832462D01*
X105360222Y-99697042D01*
X105323256Y-99572102D01*
X105298036Y-99445268D01*
X105282395Y-99296679D01*
X105274165Y-99106473D01*
X105271298Y-98882175D01*
X105271423Y-98839503D01*
X107281070Y-98839503D01*
X107305289Y-99081148D01*
X107386496Y-99312745D01*
X107523193Y-99522984D01*
X107713880Y-99700557D01*
X107957058Y-99834155D01*
X108030885Y-99861011D01*
X108166127Y-99880979D01*
X108342621Y-99875336D01*
X108527726Y-99847799D01*
X108688801Y-99802085D01*
X108737187Y-99780583D01*
X108960290Y-99625511D01*
X109128617Y-99426499D01*
X109239777Y-99196772D01*
X109291381Y-98949556D01*
X109281037Y-98698077D01*
X109206354Y-98455562D01*
X109064943Y-98235235D01*
X109024523Y-98190935D01*
X108869375Y-98046897D01*
X108724362Y-97956032D01*
X108562702Y-97907338D01*
X108357611Y-97889810D01*
X108289515Y-97888990D01*
X108116502Y-97892461D01*
X107993766Y-97907795D01*
X107892280Y-97941291D01*
X107784054Y-97998633D01*
X107565331Y-98167376D01*
X107409592Y-98371308D01*
X107315338Y-98599120D01*
X107281070Y-98839503D01*
X105271423Y-98839503D01*
X105272003Y-98642131D01*
X105278338Y-98460415D01*
X105292536Y-98315927D01*
X105316827Y-98187569D01*
X105353442Y-98054241D01*
X105361679Y-98027559D01*
X105544277Y-97566826D01*
X105786895Y-97150583D01*
X106083074Y-96783149D01*
X106426354Y-96468845D01*
X106810274Y-96211993D01*
X107228376Y-96016914D01*
X107674200Y-95887927D01*
X108141285Y-95829354D01*
X108623171Y-95845516D01*
X108623802Y-95845588D01*
X109092848Y-95936222D01*
X109530582Y-96094497D01*
X109932162Y-96313814D01*
X110292750Y-96587571D01*
X110607503Y-96909170D01*
X110871583Y-97272009D01*
X111080148Y-97669488D01*
X111228358Y-98095008D01*
X111311374Y-98541969D01*
X111324354Y-99003770D01*
X111267392Y-99450283D01*
X111145474Y-99875607D01*
X110962139Y-100284132D01*
X110726195Y-100663194D01*
X110446453Y-101000131D01*
X110131724Y-101282277D01*
X109874636Y-101452224D01*
X109754378Y-101530455D01*
X109678795Y-101600842D01*
X109661176Y-101638630D01*
X109673106Y-101727077D01*
X109705711Y-101876441D01*
X109754935Y-102072087D01*
X109816726Y-102299376D01*
X109887028Y-102543672D01*
X109961787Y-102790337D01*
X110036949Y-103024734D01*
X110081452Y-103155980D01*
X110200153Y-103479046D01*
X110335318Y-103816659D01*
X110477458Y-104146874D01*
X110617082Y-104447749D01*
X110744698Y-104697340D01*
X110760382Y-104725717D01*
X110801218Y-104798113D01*
X110838638Y-104848546D01*
X110885142Y-104877604D01*
X110953233Y-104885877D01*
X111055410Y-104873952D01*
X111204175Y-104842419D01*
X111412028Y-104791866D01*
X111532215Y-104762068D01*
X112320921Y-104526250D01*
X113083525Y-104217196D01*
X113814519Y-103838455D01*
X114508395Y-103393579D01*
X115159645Y-102886115D01*
X115762760Y-102319615D01*
X116312232Y-101697628D01*
X116338586Y-101664648D01*
X116473081Y-101497769D01*
X116598086Y-101346752D01*
X116701433Y-101226017D01*
X116770956Y-101149985D01*
X116781396Y-101139863D01*
X116973708Y-101013191D01*
X117206936Y-100937781D01*
X117459048Y-100916337D01*
X117708012Y-100951566D01*
X117860320Y-101007376D01*
X118064626Y-101136135D01*
X118225818Y-101311417D01*
X118352206Y-101544265D01*
X118429028Y-101762882D01*
X118533352Y-102105675D01*
X118629715Y-102394821D01*
X118727120Y-102654341D01*
X118834575Y-102908255D01*
X118958466Y-103175133D01*
X119335473Y-103879094D01*
X119764482Y-104524850D01*
X120250091Y-105118015D01*
X120796897Y-105664204D01*
X121409498Y-106169033D01*
X121410993Y-106170156D01*
X121578047Y-106291087D01*
X121763326Y-106417853D01*
X121953545Y-106542204D01*
X122135421Y-106655888D01*
X122295668Y-106750653D01*
X122421003Y-106818249D01*
X122498141Y-106850424D01*
X122508718Y-106851970D01*
X122553131Y-106832940D01*
X122649426Y-106781736D01*
X122781377Y-106707188D01*
X122872671Y-106653890D01*
X123541382Y-106214315D01*
X124153243Y-105719241D01*
X124708014Y-105168986D01*
X125205456Y-104563867D01*
X125645329Y-103904200D01*
X126027392Y-103190303D01*
X126351406Y-102422493D01*
X126570662Y-101762882D01*
X126690943Y-101456629D01*
X126850554Y-101219323D01*
X127049998Y-101050536D01*
X127289778Y-100949841D01*
X127568075Y-100916808D01*
X127760696Y-100928149D01*
X127926985Y-100967495D01*
X128079658Y-101043130D01*
X128231433Y-101163334D01*
X128395025Y-101336390D01*
X128583150Y-101570579D01*
X128594272Y-101585149D01*
X128806503Y-101844948D01*
X129064978Y-102131685D01*
X129350964Y-102426490D01*
X129645727Y-102710497D01*
X129930533Y-102964839D01*
X130111459Y-103113181D01*
X130794979Y-103599979D01*
X131514176Y-104019028D01*
X132263178Y-104367517D01*
X133036111Y-104642634D01*
X133640707Y-104801997D01*
X133821675Y-104842087D01*
X133973558Y-104874797D01*
X134079980Y-104896664D01*
X134124150Y-104904241D01*
X134155380Y-104869387D01*
X134211427Y-104772565D01*
X134287004Y-104625386D01*
X134376823Y-104439461D01*
X134475597Y-104226400D01*
X134578039Y-103997816D01*
X134678861Y-103765318D01*
X134772776Y-103540517D01*
X134854496Y-103335025D01*
X134918734Y-103160452D01*
X134920279Y-103155980D01*
X134993448Y-102935235D01*
X135068632Y-102693729D01*
X135141814Y-102446027D01*
X135208975Y-102206694D01*
X135266100Y-101990295D01*
X135309169Y-101811394D01*
X135334165Y-101684557D01*
X135338824Y-101638630D01*
X135304959Y-101582874D01*
X135212700Y-101507953D01*
X135110563Y-101444728D01*
X134948858Y-101334827D01*
X134760779Y-101176962D01*
X134564274Y-100989165D01*
X134377291Y-100789470D01*
X134217778Y-100595910D01*
X134112665Y-100442075D01*
X133893682Y-99997059D01*
X133749624Y-99537083D01*
X133679743Y-99069588D01*
X133681513Y-98836706D01*
X135708069Y-98836706D01*
X135728919Y-99078573D01*
X135804992Y-99309617D01*
X135934639Y-99518100D01*
X136116211Y-99692282D01*
X136348058Y-99820424D01*
X136471987Y-99860902D01*
X136653880Y-99881938D01*
X136864130Y-99867023D01*
X137062693Y-99820714D01*
X137152596Y-99783420D01*
X137381081Y-99626179D01*
X137551033Y-99428057D01*
X137662016Y-99201291D01*
X137713596Y-98958116D01*
X137705340Y-98710769D01*
X137636812Y-98471484D01*
X137507579Y-98252499D01*
X137317205Y-98066048D01*
X137215945Y-97998633D01*
X137106575Y-97940821D01*
X137004473Y-97907410D01*
X136880562Y-97892062D01*
X136710485Y-97888435D01*
X136536445Y-97892349D01*
X136412880Y-97908212D01*
X136310973Y-97942200D01*
X136209898Y-97995777D01*
X135993357Y-98163551D01*
X135838639Y-98367456D01*
X135744093Y-98595754D01*
X135708069Y-98836706D01*
X133681513Y-98836706D01*
X133683297Y-98602018D01*
X133759539Y-98141814D01*
X133907724Y-97696419D01*
X134127109Y-97273276D01*
X134416947Y-96879827D01*
X134475850Y-96813492D01*
X134830547Y-96481779D01*
X135225167Y-96215549D01*
X135651773Y-96016806D01*
X136102427Y-95887555D01*
X136569193Y-95829799D01*
X137044134Y-95845543D01*
X137519313Y-95936791D01*
X137711933Y-95996345D01*
X138150097Y-96188450D01*
X138548749Y-96446554D01*
X138902288Y-96764748D01*
X139205111Y-97137126D01*
X139451617Y-97557781D01*
X139636204Y-98020807D01*
X139638320Y-98027559D01*
X139677441Y-98164091D01*
X139703827Y-98291780D01*
X139719710Y-98431726D01*
X139727322Y-98605028D01*
X139728893Y-98832784D01*
X139728701Y-98882175D01*
X139725306Y-99127092D01*
X139716458Y-99312439D01*
X139699991Y-99458077D01*
X139673738Y-99583867D01*
X139639778Y-99697042D01*
X139596080Y-99834685D01*
X139564899Y-99945521D01*
X139553095Y-100004738D01*
X139587774Y-100043951D01*
X139683580Y-100105239D01*
X139827347Y-100182374D01*
X140005912Y-100269129D01*
X140206110Y-100359274D01*
X140414778Y-100446582D01*
X140618751Y-100524825D01*
X140745070Y-100568692D01*
X141077206Y-100672454D01*
X141372088Y-100750006D01*
X141652297Y-100804813D01*
X141940416Y-100840343D01*
X142259023Y-100860062D01*
X142630701Y-100867436D01*
X142692801Y-100867693D01*
X143041746Y-100864762D01*
X143329902Y-100851960D01*
X143575687Y-100826207D01*
X143797520Y-100784420D01*
X144013821Y-100723517D01*
X144243008Y-100640418D01*
X144377028Y-100585891D01*
X144852417Y-100345931D01*
X145301959Y-100038136D01*
X145714719Y-99672757D01*
X146079763Y-99260046D01*
X146386155Y-98810258D01*
X146506726Y-98589088D01*
X146564952Y-98461188D01*
X146599181Y-98361250D01*
X146602693Y-98309278D01*
X146601247Y-98307615D01*
X146556099Y-98277166D01*
X146457205Y-98214857D01*
X146319020Y-98129676D01*
X146155997Y-98030614D01*
X146151017Y-98027608D01*
X145870642Y-97853810D01*
X145545839Y-97644894D01*
X145195611Y-97413661D01*
X144838963Y-97172913D01*
X144494899Y-96935454D01*
X144182422Y-96714084D01*
X143964788Y-96554815D01*
X142938132Y-95745374D01*
X141934884Y-94869126D01*
X140966464Y-93937501D01*
X140044289Y-92961931D01*
X139179779Y-91953847D01*
X138507222Y-91091252D01*
X138382718Y-90924097D01*
X138276193Y-90781256D01*
X138196107Y-90674059D01*
X138150920Y-90613837D01*
X138144099Y-90604930D01*
X138104335Y-90607849D01*
X138006390Y-90624045D01*
X137869836Y-90650214D01*
X137840646Y-90656143D01*
X137644166Y-90686269D01*
X137386610Y-90710790D01*
X137086238Y-90729196D01*
X136761308Y-90740979D01*
X136430081Y-90745627D01*
X136110816Y-90742633D01*
X135821772Y-90731487D01*
X135637245Y-90717610D01*
X134813516Y-90612114D01*
X134028812Y-90457038D01*
X133255875Y-90246697D01*
X133023616Y-90172431D01*
X132596215Y-90031253D01*
X132404753Y-90171799D01*
X132174401Y-90318833D01*
X131898952Y-90460681D01*
X131612078Y-90581371D01*
X131386387Y-90654856D01*
X131128550Y-90724649D01*
X131001695Y-91106699D01*
X130684988Y-91942077D01*
X130296776Y-92762232D01*
X129844329Y-93554761D01*
X129334919Y-94307259D01*
X128775814Y-95007322D01*
X128599410Y-95205337D01*
X128381871Y-95431920D01*
X128195964Y-95598955D01*
X128031382Y-95714429D01*
X127877820Y-95786330D01*
X127830951Y-95800991D01*
X127667667Y-95834364D01*
X127511099Y-95836991D01*
X127349967Y-95804635D01*
X127172994Y-95733056D01*
X126968902Y-95618017D01*
X126726413Y-95455278D01*
X126529278Y-95311821D01*
X125500713Y-94499749D01*
X124519515Y-93629718D01*
X123593634Y-92709177D01*
X122757500Y-91776933D01*
X122653093Y-91657181D01*
X122566872Y-91564980D01*
X122512105Y-91514236D01*
X122501463Y-91508623D01*
X122467306Y-91537269D01*
X122390556Y-91616720D01*
X122280154Y-91737246D01*
X122145039Y-91889115D01*
X122019185Y-92033558D01*
X121404842Y-92709917D01*
X120730733Y-93388060D01*
X120014492Y-94051627D01*
X119273753Y-94684256D01*
X118552762Y-95249687D01*
X118269555Y-95456664D01*
X118034795Y-95614528D01*
X117837953Y-95727475D01*
X117668499Y-95799700D01*
X117515903Y-95835398D01*
X117369635Y-95838765D01*
X117219165Y-95813996D01*
X117169048Y-95800991D01*
X117009218Y-95737585D01*
X116841930Y-95630718D01*
X116656977Y-95472495D01*
X116444154Y-95255026D01*
X116398801Y-95205337D01*
X115803638Y-94490387D01*
X115264855Y-93726326D01*
X114787843Y-92922357D01*
X114377989Y-92087689D01*
X114040683Y-91231526D01*
X113996445Y-91101118D01*
X113935406Y-90923454D01*
X113888537Y-90807687D01*
X113847622Y-90739432D01*
X113804444Y-90704304D01*
X113761722Y-90690157D01*
X113388551Y-90580713D01*
X113016272Y-90421916D01*
X112678670Y-90228818D01*
X112593623Y-90169682D01*
X112406025Y-90032898D01*
X111904775Y-90195972D01*
X111196041Y-90403283D01*
X110489859Y-90560869D01*
X109756677Y-90674800D01*
X109362754Y-90718059D01*
X109108266Y-90735394D01*
X108810077Y-90744254D01*
X108486399Y-90745148D01*
X108155442Y-90738590D01*
X107835417Y-90725091D01*
X107544534Y-90705162D01*
X107301005Y-90679315D01*
X107159353Y-90656143D01*
X107017954Y-90628445D01*
X106911740Y-90610066D01*
X106860102Y-90604300D01*
X106858041Y-90604930D01*
X106833528Y-90638236D01*
X106769350Y-90724604D01*
X106673421Y-90853405D01*
X106553654Y-91014013D01*
X106451506Y-91150877D01*
X106011406Y-91724330D01*
X105565910Y-92271126D01*
X105101543Y-92806536D01*
X104604828Y-93345833D01*
X104062287Y-93904287D01*
X103732684Y-94231809D01*
X102728711Y-95168238D01*
X101673886Y-96055855D01*
X100579016Y-96886259D01*
X99454906Y-97651049D01*
X98848983Y-98028108D01*
X98685411Y-98127272D01*
X98546272Y-98212842D01*
X98446032Y-98275837D01*
X98399157Y-98307275D01*
X98398752Y-98307615D01*
X96192943Y-98307615D01*
X96177184Y-98254192D01*
X96128440Y-97954432D01*
X96132038Y-97694606D01*
X96187518Y-97470153D01*
X96294421Y-97276512D01*
X96410679Y-97146298D01*
X96481969Y-97091877D01*
X96608810Y-97007521D01*
X96777299Y-96901983D01*
X96973536Y-96784013D01*
X97139749Y-96687374D01*
X98361767Y-95944051D01*
X99527296Y-95145467D01*
X100638902Y-94289585D01*
X101699147Y-93374367D01*
X102710597Y-92397778D01*
X103236503Y-91845148D01*
X103470650Y-91587901D01*
X103704883Y-91323400D01*
X103933605Y-91058608D01*
X104151220Y-90800489D01*
X104352128Y-90556007D01*
X104530732Y-90332124D01*
X104681434Y-90135805D01*
X104798637Y-89974012D01*
X104876742Y-89853710D01*
X104910153Y-89781860D01*
X104907954Y-89765915D01*
X104860987Y-89727813D01*
X104768870Y-89654697D01*
X104649131Y-89560458D01*
X104612676Y-89531893D01*
X104438977Y-89384912D01*
X104233167Y-89193551D01*
X104012677Y-88975602D01*
X103794936Y-88748860D01*
X103597374Y-88531121D01*
X103437420Y-88340179D01*
X103407329Y-88301325D01*
X103037864Y-87760351D01*
X102709463Y-87169760D01*
X102435467Y-86554444D01*
X102354848Y-86337728D01*
X102319552Y-86230523D01*
X104496198Y-86230523D01*
X104579542Y-86395160D01*
X104870579Y-86885511D01*
X105224484Y-87336893D01*
X105632133Y-87740206D01*
X106084401Y-88086350D01*
X106540532Y-88350709D01*
X106808746Y-88474078D01*
X107061401Y-88566642D01*
X107318822Y-88632938D01*
X107601335Y-88677500D01*
X107929264Y-88704864D01*
X108175380Y-88715545D01*
X109009941Y-88703809D01*
X109845488Y-88616392D01*
X110667129Y-88455155D01*
X111030696Y-88358338D01*
X111347151Y-88266832D01*
X111352172Y-87711437D01*
X111352273Y-87707524D01*
X113374048Y-87707524D01*
X113404389Y-87971660D01*
X113499567Y-88215559D01*
X113653142Y-88426281D01*
X113858676Y-88590888D01*
X114029747Y-88671649D01*
X114246254Y-88717032D01*
X114486421Y-88716869D01*
X114712188Y-88672574D01*
X114788576Y-88643435D01*
X115025881Y-88495457D01*
X115207344Y-88297729D01*
X115327885Y-88061683D01*
X115382425Y-87798751D01*
X115365884Y-87520366D01*
X115338074Y-87406735D01*
X115264087Y-87251087D01*
X115142111Y-87085055D01*
X114994735Y-86934844D01*
X114844550Y-86826655D01*
X114832489Y-86820293D01*
X114579184Y-86732419D01*
X114320217Y-86716159D01*
X114068612Y-86765854D01*
X113837392Y-86875846D01*
X113639583Y-87040477D01*
X113488210Y-87254089D01*
X113414980Y-87436091D01*
X113374048Y-87707524D01*
X111352273Y-87707524D01*
X111360054Y-87407467D01*
X111381131Y-87158919D01*
X111420762Y-86942104D01*
X111484304Y-86733332D01*
X111577114Y-86508912D01*
X111666572Y-86321299D01*
X111920196Y-85892975D01*
X112228983Y-85521662D01*
X112591130Y-85208918D01*
X113004836Y-84956299D01*
X113466473Y-84765961D01*
X113612950Y-84720086D01*
X113737881Y-84688403D01*
X113862226Y-84668325D01*
X114006945Y-84657263D01*
X114193000Y-84652631D01*
X114391080Y-84651816D01*
X114635853Y-84653635D01*
X114821574Y-84660542D01*
X114968638Y-84674707D01*
X115097438Y-84698300D01*
X115228367Y-84733493D01*
X115265571Y-84744904D01*
X115731047Y-84929584D01*
X116152182Y-85177295D01*
X116523919Y-85483766D01*
X116841200Y-85844726D01*
X117098970Y-86255905D01*
X117132018Y-86321299D01*
X117261336Y-86612586D01*
X117350142Y-86886528D01*
X117406272Y-87174062D01*
X117437563Y-87506127D01*
X117439125Y-87533662D01*
X117431479Y-88009829D01*
X117352864Y-88461345D01*
X117200440Y-88899688D01*
X117008775Y-89273828D01*
X116914836Y-89409856D01*
X116780272Y-89573777D01*
X116620374Y-89749933D01*
X116450434Y-89922669D01*
X116285742Y-90076327D01*
X116141589Y-90195250D01*
X116049917Y-90255612D01*
X115958175Y-90312291D01*
X115906065Y-90360133D01*
X115901565Y-90371659D01*
X115914508Y-90422422D01*
X115949517Y-90530516D01*
X116000859Y-90678787D01*
X116048010Y-90809802D01*
X116154373Y-91075738D01*
X116292159Y-91383064D01*
X116450247Y-91709726D01*
X116617512Y-92033673D01*
X116782833Y-92332852D01*
X116935086Y-92585208D01*
X116971864Y-92641487D01*
X117081909Y-92803566D01*
X117199044Y-92971476D01*
X117313929Y-93132383D01*
X117417224Y-93273457D01*
X117499591Y-93381867D01*
X117551691Y-93444781D01*
X117564236Y-93455364D01*
X117598629Y-93432444D01*
X117680734Y-93369919D01*
X117796697Y-93278485D01*
X117882232Y-93209780D01*
X118621542Y-92579669D01*
X119343692Y-91901098D01*
X120033888Y-91189406D01*
X120677335Y-90459934D01*
X121259241Y-89728022D01*
X121324501Y-89640391D01*
X121523192Y-89377195D01*
X121689290Y-89173582D01*
X121833005Y-89022144D01*
X121964549Y-88915472D01*
X122094133Y-88846158D01*
X122231971Y-88806796D01*
X122388273Y-88789975D01*
X122500000Y-88787617D01*
X122664679Y-88792951D01*
X122805902Y-88813669D01*
X122933102Y-88856849D01*
X123055714Y-88929566D01*
X123183174Y-89038897D01*
X123324915Y-89191918D01*
X123490372Y-89395706D01*
X123688981Y-89657337D01*
X123726114Y-89707261D01*
X124147016Y-90245855D01*
X124622541Y-90804466D01*
X125136774Y-91366443D01*
X125673800Y-91915135D01*
X126217702Y-92433892D01*
X126752567Y-92906064D01*
X126904719Y-93032725D01*
X127430123Y-93463714D01*
X127510365Y-93370597D01*
X127618703Y-93231949D01*
X127754525Y-93038424D01*
X127908228Y-92805464D01*
X128070211Y-92548514D01*
X128230872Y-92283016D01*
X128380611Y-92024412D01*
X128509825Y-91788146D01*
X128580259Y-91649782D01*
X128686058Y-91426463D01*
X128790442Y-91194062D01*
X128887901Y-90966155D01*
X128972927Y-90756318D01*
X129040012Y-90578126D01*
X129083648Y-90445156D01*
X129098364Y-90372878D01*
X129067323Y-90333088D01*
X128987335Y-90269176D01*
X128909951Y-90217013D01*
X128788845Y-90129905D01*
X128641933Y-90009103D01*
X128498136Y-89878577D01*
X128478242Y-89859267D01*
X128166664Y-89500182D01*
X127920986Y-89104129D01*
X127741893Y-88679605D01*
X127630072Y-88235107D01*
X127588803Y-87806121D01*
X129617591Y-87806121D01*
X129667681Y-88054631D01*
X129785472Y-88291545D01*
X129868209Y-88398756D01*
X130059384Y-88559596D01*
X130294372Y-88668826D01*
X130552493Y-88721328D01*
X130813070Y-88711980D01*
X130970252Y-88671649D01*
X131197384Y-88550294D01*
X131389898Y-88368792D01*
X131534852Y-88143483D01*
X131619306Y-87890706D01*
X131627292Y-87842046D01*
X131624917Y-87587149D01*
X131554185Y-87345694D01*
X131425802Y-87128318D01*
X131250474Y-86945658D01*
X131038906Y-86808353D01*
X130801804Y-86727041D01*
X130549874Y-86712358D01*
X130496700Y-86718644D01*
X130231360Y-86794069D01*
X130007785Y-86927229D01*
X129830298Y-87106570D01*
X129703222Y-87320536D01*
X129630879Y-87557571D01*
X129617591Y-87806121D01*
X127588803Y-87806121D01*
X127586206Y-87779132D01*
X127610982Y-87320177D01*
X127705083Y-86866739D01*
X127869196Y-86427315D01*
X128104006Y-86010402D01*
X128161259Y-85928038D01*
X128469546Y-85563816D01*
X128821009Y-85261059D01*
X129207634Y-85020409D01*
X129621402Y-84842510D01*
X130054297Y-84728004D01*
X130498303Y-84677534D01*
X130945403Y-84691742D01*
X131387581Y-84771271D01*
X131816819Y-84916764D01*
X132225102Y-85128863D01*
X132604413Y-85408212D01*
X132766340Y-85558852D01*
X132986838Y-85800361D01*
X133166482Y-86049401D01*
X133327010Y-86337251D01*
X133372332Y-86430844D01*
X133479505Y-86675032D01*
X133555309Y-86895530D01*
X133604881Y-87116661D01*
X133633360Y-87362750D01*
X133645881Y-87658122D01*
X133646995Y-87731368D01*
X133653242Y-88266945D01*
X133969500Y-88358394D01*
X134780532Y-88552501D01*
X135613190Y-88673480D01*
X136454297Y-88719679D01*
X136820849Y-88715975D01*
X137181889Y-88698767D01*
X137485034Y-88667879D01*
X137751397Y-88618476D01*
X138002088Y-88545723D01*
X138258219Y-88444786D01*
X138499217Y-88331615D01*
X138964933Y-88058501D01*
X139399847Y-87719307D01*
X139793041Y-87324922D01*
X140133599Y-86886239D01*
X140399875Y-86435525D01*
X140502931Y-86231754D01*
X140077444Y-86045541D01*
X139219349Y-85631610D01*
X138367618Y-85146074D01*
X137531931Y-84596756D01*
X136721970Y-83991481D01*
X135947419Y-83338073D01*
X135217957Y-82644357D01*
X134543269Y-81918157D01*
X133933035Y-81167297D01*
X133772720Y-80950499D01*
X133540173Y-80628967D01*
X132978850Y-80605329D01*
X132053048Y-80527190D01*
X131145095Y-80371776D01*
X130256936Y-80139590D01*
X129390515Y-79831133D01*
X128606429Y-79476495D01*
X128437993Y-79395781D01*
X128295380Y-79334256D01*
X128193236Y-79297763D01*
X128146203Y-79292141D01*
X128145641Y-79292679D01*
X128120355Y-79343266D01*
X128077815Y-79449437D01*
X128025834Y-79591336D01*
X128007682Y-79643365D01*
X127845270Y-80066921D01*
X127639718Y-80527308D01*
X127402149Y-81003254D01*
X127143688Y-81473489D01*
X126875456Y-81916743D01*
X126622081Y-82292962D01*
X126034566Y-83047566D01*
X125396570Y-83740960D01*
X124706529Y-84374603D01*
X123962878Y-84949955D01*
X123313161Y-85378548D01*
X123086858Y-85511494D01*
X122888748Y-85610205D01*
X122708405Y-85673020D01*
X122535401Y-85698278D01*
X122359309Y-85684318D01*
X122169702Y-85629480D01*
X121956152Y-85532102D01*
X121708232Y-85390523D01*
X121415515Y-85203082D01*
X121168388Y-85036904D01*
X120969017Y-84898133D01*
X120760036Y-84747438D01*
X120567814Y-84604104D01*
X120433020Y-84499023D01*
X120250063Y-84342604D01*
X120029986Y-84140460D01*
X119787365Y-83907265D01*
X119536773Y-83657690D01*
X119292786Y-83406407D01*
X119069979Y-83168090D01*
X118882927Y-82957410D01*
X118788193Y-82843208D01*
X118371073Y-82282018D01*
X117978610Y-81679604D01*
X117621267Y-81054621D01*
X117309508Y-80425722D01*
X117053798Y-79811559D01*
X116993178Y-79643365D01*
X116939408Y-79494001D01*
X116892551Y-79373683D01*
X116860457Y-79302247D01*
X116854358Y-79292679D01*
X116810014Y-79296847D01*
X116709931Y-79332137D01*
X116568753Y-79392709D01*
X116401124Y-79472720D01*
X116393571Y-79476495D01*
X115716551Y-79783950D01*
X115003039Y-80049207D01*
X114268633Y-80268389D01*
X113528929Y-80437618D01*
X112799526Y-80553017D01*
X112096020Y-80610707D01*
X111806771Y-80616805D01*
X111468315Y-80617230D01*
X111231301Y-80945165D01*
X110647325Y-81694538D01*
X109994727Y-82424974D01*
X109283786Y-83127304D01*
X108524776Y-83792355D01*
X107727975Y-84410957D01*
X106903658Y-84973938D01*
X106321909Y-85326494D01*
X106137230Y-85429007D01*
X105906445Y-85551694D01*
X105648445Y-85685031D01*
X105382124Y-85819493D01*
X105126374Y-85945556D01*
X104900087Y-86053697D01*
X104722155Y-86134390D01*
X104703498Y-86142394D01*
X104496198Y-86230523D01*
X102319552Y-86230523D01*
X102271230Y-86083759D01*
X102220851Y-85882113D01*
X102201510Y-85713950D01*
X102211004Y-85560432D01*
X102245978Y-85406665D01*
X102325914Y-85208634D01*
X102446919Y-85039963D01*
X102618807Y-84892029D01*
X102851391Y-84756206D01*
X103122065Y-84636656D01*
X104065846Y-84220878D01*
X104996405Y-83732154D01*
X105903090Y-83176994D01*
X106775251Y-82561909D01*
X107583931Y-81909226D01*
X107756655Y-81756063D01*
X107946173Y-81580921D01*
X108144594Y-81391846D01*
X108344029Y-81196886D01*
X108536590Y-81004086D01*
X108714387Y-80821494D01*
X108869530Y-80657155D01*
X108994130Y-80519118D01*
X109080298Y-80415428D01*
X109120145Y-80354132D01*
X109120446Y-80342080D01*
X109066963Y-80314397D01*
X108959614Y-80272283D01*
X108820611Y-80224387D01*
X108806260Y-80219752D01*
X108249158Y-80000891D01*
X107708913Y-79710699D01*
X107194203Y-79356919D01*
X106713706Y-78947298D01*
X106276101Y-78489581D01*
X105890066Y-77991513D01*
X105564280Y-77460840D01*
X105441036Y-77216417D01*
X105373947Y-77051621D01*
X107713316Y-77051621D01*
X107739993Y-77091124D01*
X107812018Y-77172103D01*
X107917144Y-77281231D01*
X107998154Y-77361656D01*
X108420541Y-77720433D01*
X108894726Y-78026253D01*
X109407523Y-78271955D01*
X109945749Y-78450382D01*
X110050929Y-78476350D01*
X110232155Y-78507871D01*
X110476778Y-78534860D01*
X110768799Y-78556853D01*
X111092221Y-78573387D01*
X111431044Y-78583999D01*
X111769271Y-78588226D01*
X112090903Y-78585605D01*
X112379943Y-78575674D01*
X112620391Y-78557969D01*
X112671658Y-78552197D01*
X113458528Y-78415837D01*
X114223108Y-78203652D01*
X114961924Y-77917057D01*
X115671505Y-77557467D01*
X116348378Y-77126296D01*
X116570631Y-76963504D01*
X116818817Y-76787757D01*
X117030637Y-76668178D01*
X117220432Y-76599709D01*
X117402542Y-76577287D01*
X117591308Y-76595853D01*
X117604920Y-76598512D01*
X117874461Y-76690141D01*
X118101346Y-76843740D01*
X118276492Y-77050803D01*
X118390820Y-77302821D01*
X118402655Y-77345922D01*
X118463615Y-77566498D01*
X118547688Y-77840638D01*
X118647975Y-78148285D01*
X118757579Y-78469387D01*
X118869601Y-78783888D01*
X118977143Y-79071735D01*
X119073306Y-79312873D01*
X119103917Y-79384629D01*
X119434280Y-80074306D01*
X119807245Y-80732649D01*
X120215931Y-81349974D01*
X120653460Y-81916602D01*
X121112952Y-82422853D01*
X121551906Y-82829265D01*
X121704335Y-82954029D01*
X121872458Y-83085621D01*
X122043427Y-83214695D01*
X122204395Y-83331906D01*
X122342514Y-83427905D01*
X122444935Y-83493349D01*
X122498811Y-83518890D01*
X122500000Y-83518952D01*
X122542682Y-83497645D01*
X122633941Y-83440615D01*
X122757557Y-83358197D01*
X122821700Y-83313991D01*
X123427131Y-82844658D01*
X123992957Y-82308171D01*
X124517177Y-81707422D01*
X124997790Y-81045303D01*
X125432793Y-80324703D01*
X125820187Y-79548513D01*
X126157970Y-78719624D01*
X126312286Y-78272003D01*
X126388117Y-78035964D01*
X126462468Y-77800415D01*
X126528540Y-77587172D01*
X126579538Y-77418049D01*
X126595419Y-77363338D01*
X126709728Y-77084763D01*
X126876400Y-76862955D01*
X127091989Y-76701603D01*
X127289435Y-76620799D01*
X127505006Y-76576083D01*
X127703429Y-76578175D01*
X127900179Y-76631450D01*
X128110728Y-76740286D01*
X128350549Y-76909060D01*
X128374653Y-76927773D01*
X128969746Y-77346620D01*
X129616038Y-77716424D01*
X130296380Y-78028747D01*
X130993621Y-78275148D01*
X131269006Y-78352222D01*
X131596773Y-78431413D01*
X131903699Y-78492161D01*
X132206999Y-78536120D01*
X132523889Y-78564948D01*
X132871585Y-78580299D01*
X133267303Y-78583829D01*
X133629890Y-78579256D01*
X133943748Y-78572488D01*
X134191700Y-78565098D01*
X134387337Y-78555889D01*
X134544249Y-78543664D01*
X134676028Y-78527225D01*
X134796264Y-78505376D01*
X134918549Y-78476919D01*
X134984309Y-78459943D01*
X135535105Y-78283784D01*
X136029644Y-78058519D01*
X136478267Y-77778455D01*
X136891316Y-77437898D01*
X136959961Y-77372390D01*
X137089296Y-77242004D01*
X137189859Y-77132016D01*
X137252135Y-77053494D01*
X137266613Y-77017505D01*
X137265575Y-77016858D01*
X137218089Y-76992541D01*
X137113756Y-76936970D01*
X136965458Y-76857073D01*
X136786078Y-76759780D01*
X136669331Y-76696176D01*
X135490688Y-76011216D01*
X134371964Y-75274894D01*
X133310739Y-74485185D01*
X132304594Y-73640063D01*
X131351108Y-72737502D01*
X130447863Y-71775475D01*
X129637281Y-70808619D01*
X129509084Y-70649398D01*
X129397620Y-70515218D01*
X129312388Y-70417188D01*
X129262886Y-70366421D01*
X129255345Y-70361831D01*
X129143033Y-70351544D01*
X128970501Y-70323167D01*
X128753976Y-70280429D01*
X128509686Y-70227059D01*
X128253856Y-70166784D01*
X128002715Y-70103332D01*
X127772489Y-70040432D01*
X127579405Y-69981813D01*
X127531741Y-69965824D01*
X127408865Y-69925186D01*
X127321358Y-69899659D01*
X127289991Y-69894670D01*
X127273280Y-69933944D01*
X127236170Y-70026680D01*
X127190445Y-70143208D01*
X126931469Y-70715883D01*
X126603145Y-71287831D01*
X126214460Y-71844769D01*
X125819446Y-72322507D01*
X125667418Y-72494338D01*
X125562453Y-72619351D01*
X125497148Y-72708635D01*
X125464101Y-72773283D01*
X125455908Y-72824384D01*
X125461271Y-72859126D01*
X125525225Y-73253343D01*
X125530469Y-73677190D01*
X125480006Y-74110180D01*
X125376836Y-74531824D01*
X125223960Y-74921635D01*
X125134428Y-75090354D01*
X124916056Y-75404035D01*
X124639812Y-75707767D01*
X124325368Y-75983962D01*
X123992399Y-76215036D01*
X123712363Y-76361584D01*
X123303182Y-76500704D01*
X122860813Y-76579187D01*
X122403533Y-76596990D01*
X121949619Y-76554070D01*
X121517348Y-76450383D01*
X121295222Y-76367341D01*
X121119241Y-76278921D01*
X120911950Y-76155353D01*
X120701076Y-76014729D01*
X120514347Y-75875142D01*
X120426964Y-75800810D01*
X120151062Y-75503567D01*
X119906314Y-75150024D01*
X119704924Y-74761091D01*
X119559095Y-74357675D01*
X119537689Y-74277168D01*
X119496226Y-74043293D01*
X119472696Y-73765146D01*
X119468408Y-73517184D01*
X121501291Y-73517184D01*
X121510487Y-73676832D01*
X121534256Y-73825881D01*
X121558427Y-73907705D01*
X121694460Y-74134989D01*
X121887469Y-74321280D01*
X122120761Y-74455462D01*
X122377642Y-74526417D01*
X122500000Y-74534763D01*
X122775152Y-74495809D01*
X122917660Y-74442076D01*
X123123020Y-74311843D01*
X123302215Y-74133815D01*
X123430234Y-73933477D01*
X123441179Y-73908647D01*
X123495556Y-73687927D01*
X123494544Y-73440613D01*
X123439982Y-73195291D01*
X123387258Y-73070486D01*
X123234341Y-72845265D01*
X123045353Y-72681320D01*
X122831085Y-72576096D01*
X122602325Y-72527035D01*
X122369864Y-72531583D01*
X122144489Y-72587185D01*
X121936990Y-72691285D01*
X121758157Y-72841328D01*
X121618779Y-73034757D01*
X121529645Y-73269018D01*
X121501291Y-73517184D01*
X119468408Y-73517184D01*
X119467647Y-73473203D01*
X119481631Y-73197937D01*
X119514182Y-72974397D01*
X119564568Y-72744866D01*
X119277641Y-72437777D01*
X118905216Y-72006419D01*
X118559934Y-71542179D01*
X118252640Y-71062056D01*
X117994176Y-70583046D01*
X117795386Y-70122147D01*
X117788511Y-70103459D01*
X117747303Y-69991220D01*
X117719098Y-69915567D01*
X117711708Y-69896737D01*
X117674634Y-69904780D01*
X117577259Y-69932666D01*
X117434948Y-69975856D01*
X117285269Y-70022751D01*
X116946097Y-70120674D01*
X116571949Y-70212481D01*
X116199967Y-70289696D01*
X115893210Y-70340339D01*
X115808166Y-70355221D01*
X115740365Y-70380579D01*
X115675109Y-70428368D01*
X115597701Y-70510542D01*
X115493442Y-70639056D01*
X115436463Y-70711838D01*
X114650873Y-71659398D01*
X113799699Y-72573876D01*
X112891083Y-73448524D01*
X111933166Y-74276593D01*
X110934088Y-75051333D01*
X109901991Y-75765997D01*
X108845015Y-76413835D01*
X108012632Y-76866316D01*
X107876541Y-76939667D01*
X107772799Y-77002218D01*
X107717926Y-77043739D01*
X107713316Y-77051621D01*
X105373947Y-77051621D01*
X105320605Y-76920597D01*
X105259242Y-76664202D01*
X105255355Y-76435271D01*
X105307351Y-76221845D01*
X105308301Y-76219349D01*
X105354700Y-76109121D01*
X105408116Y-76013935D01*
X105477219Y-75927413D01*
X105570678Y-75843181D01*
X105697162Y-75754859D01*
X105865341Y-75656073D01*
X106083883Y-75540446D01*
X106361459Y-75401601D01*
X106536701Y-75315821D01*
X107338230Y-74909682D01*
X108078699Y-74500444D01*
X108776100Y-74076576D01*
X109448422Y-73626550D01*
X110113659Y-73138834D01*
X110789799Y-72601900D01*
X110853364Y-72549475D01*
X110995547Y-72427092D01*
X111174386Y-72265718D01*
X111381354Y-72073712D01*
X111607923Y-71859434D01*
X111845568Y-71631243D01*
X112085760Y-71397499D01*
X112319973Y-71166562D01*
X112539680Y-70946791D01*
X112736353Y-70746546D01*
X112901466Y-70574186D01*
X113026490Y-70438072D01*
X113102900Y-70346562D01*
X113108939Y-70338206D01*
X113195194Y-70215206D01*
X112849084Y-70085367D01*
X112219602Y-69807311D01*
X111627226Y-69461323D01*
X111077605Y-69052479D01*
X110576388Y-68585859D01*
X110129225Y-68066540D01*
X109741765Y-67499600D01*
X109514591Y-67088104D01*
X109434577Y-66909406D01*
X111755061Y-66909406D01*
X112148892Y-67296096D01*
X112577915Y-67664812D01*
X113040628Y-67962183D01*
X113535018Y-68187185D01*
X114059073Y-68338790D01*
X114271831Y-68377921D01*
X114689704Y-68412574D01*
X115155527Y-68396768D01*
X115657808Y-68332835D01*
X116185056Y-68223108D01*
X116725780Y-68069921D01*
X117268491Y-67875606D01*
X117732483Y-67675305D01*
X117942371Y-67579963D01*
X118100304Y-67516605D01*
X118224289Y-67479458D01*
X118332332Y-67462748D01*
X118403614Y-67460110D01*
X118669917Y-67484202D01*
X118892572Y-67561502D01*
X119093003Y-67699542D01*
X119098735Y-67704559D01*
X119206650Y-67809614D01*
X119288726Y-67918906D01*
X119352118Y-68049016D01*
X119403982Y-68216522D01*
X119451471Y-68438002D01*
X119476981Y-68580993D01*
X119614880Y-69171664D01*
X119819340Y-69719028D01*
X120090654Y-70223697D01*
X120429117Y-70686281D01*
X120560047Y-70834628D01*
X120746698Y-71036611D01*
X121040264Y-70878264D01*
X121214789Y-70790023D01*
X121399036Y-70706167D01*
X121555338Y-70643763D01*
X121565890Y-70640076D01*
X122008712Y-70528901D01*
X122467605Y-70491138D01*
X122931635Y-70525428D01*
X123389866Y-70630410D01*
X123831363Y-70804727D01*
X124106341Y-70955901D01*
X124247363Y-71043058D01*
X124436984Y-70837851D01*
X124797509Y-70389651D01*
X125093014Y-69896310D01*
X125322667Y-69359595D01*
X125485632Y-68781270D01*
X125537174Y-68506761D01*
X125594966Y-68224786D01*
X125670429Y-68007037D01*
X125769973Y-67839045D01*
X125886911Y-67717195D01*
X126122720Y-67559653D01*
X126372453Y-67476199D01*
X126640515Y-67466602D01*
X126931312Y-67530632D01*
X127210328Y-67648109D01*
X127812375Y-67913922D01*
X128461003Y-68132582D01*
X129134276Y-68297248D01*
X129495931Y-68360642D01*
X130070189Y-68410057D01*
X130625640Y-68383504D01*
X131158807Y-68282146D01*
X131666209Y-68107142D01*
X132144367Y-67859654D01*
X132589801Y-67540841D01*
X132944209Y-67210335D01*
X133054232Y-67091047D01*
X133139287Y-66991016D01*
X133186828Y-66925370D01*
X133192644Y-66910802D01*
X133159216Y-66875984D01*
X133071039Y-66820694D01*
X132946274Y-66756149D01*
X132929347Y-66748147D01*
X132446898Y-66510620D01*
X131918710Y-66229524D01*
X131358964Y-65913538D01*
X130781841Y-65571338D01*
X130201523Y-65211601D01*
X129632191Y-64843005D01*
X129088027Y-64474228D01*
X128583212Y-64113946D01*
X128394306Y-63973269D01*
X128204870Y-63831357D01*
X128068370Y-63732845D01*
X127975048Y-63672252D01*
X127915146Y-63644095D01*
X127878904Y-63642891D01*
X127856565Y-63663159D01*
X127852991Y-63669157D01*
X127748139Y-63812405D01*
X127595382Y-63967459D01*
X127418936Y-64112681D01*
X127243019Y-64226434D01*
X127210304Y-64243369D01*
X126913702Y-64349907D01*
X126595872Y-64394712D01*
X126282374Y-64375365D01*
X126146163Y-64344114D01*
X126065253Y-64311529D01*
X125922651Y-64244057D01*
X125726012Y-64145684D01*
X125482991Y-64020398D01*
X125201243Y-63872183D01*
X124888424Y-63705028D01*
X124552187Y-63522917D01*
X124228101Y-63345238D01*
X123890967Y-63159725D01*
X123574759Y-62986479D01*
X123286336Y-62829203D01*
X123032556Y-62691603D01*
X122820278Y-62577383D01*
X122656362Y-62490249D01*
X122547667Y-62433906D01*
X122501053Y-62412057D01*
X122500153Y-62411909D01*
X122445216Y-62430128D01*
X122354514Y-62475129D01*
X122333336Y-62486968D01*
X122049568Y-62647647D01*
X121739255Y-62820990D01*
X121410392Y-63002726D01*
X121070974Y-63188585D01*
X120728994Y-63374296D01*
X120392448Y-63555590D01*
X120069330Y-63728195D01*
X119767635Y-63887841D01*
X119495357Y-64030259D01*
X119260491Y-64151177D01*
X119071032Y-64246325D01*
X118934974Y-64311433D01*
X118860312Y-64342230D01*
X118859840Y-64342368D01*
X118539276Y-64395745D01*
X118209733Y-64377489D01*
X117892432Y-64289508D01*
X117796633Y-64246785D01*
X117618548Y-64139231D01*
X117437106Y-63996607D01*
X117276330Y-63840263D01*
X117160240Y-63691548D01*
X117147311Y-63669697D01*
X117126135Y-63645508D01*
X117092692Y-63642400D01*
X117036909Y-63665922D01*
X116948716Y-63721625D01*
X116818039Y-63815058D01*
X116634806Y-63951771D01*
X116633214Y-63952970D01*
X115597707Y-64695988D01*
X114531996Y-65387596D01*
X113419579Y-66038074D01*
X112502305Y-66526863D01*
X111755061Y-66909406D01*
X109434577Y-66909406D01*
X109393715Y-66818149D01*
X109326107Y-66588236D01*
X109309124Y-66381894D01*
X109340120Y-66182652D01*
X109359091Y-66119652D01*
X109425764Y-65954600D01*
X109512663Y-65817011D01*
X109631757Y-65696327D01*
X109795020Y-65581988D01*
X110014422Y-65463435D01*
X110204924Y-65373600D01*
X111528183Y-64735708D01*
X112788621Y-64052395D01*
X113990388Y-63321082D01*
X115137630Y-62539188D01*
X116234498Y-61704135D01*
X116639070Y-61372249D01*
X116813854Y-61222182D01*
X116966601Y-61083935D01*
X117086803Y-60967588D01*
X117163955Y-60883226D01*
X117187530Y-60845940D01*
X117198860Y-60785532D01*
X117220788Y-60657783D01*
X117251464Y-60473872D01*
X117289040Y-60244979D01*
X117331667Y-59982282D01*
X117377358Y-59697837D01*
X117547501Y-58633373D01*
X117130801Y-58207226D01*
X117001787Y-58075435D01*
X116827097Y-57897207D01*
X116616793Y-57682793D01*
X116380935Y-57442447D01*
X116129582Y-57186420D01*
X115872795Y-56924964D01*
X115698524Y-56747590D01*
X115425814Y-56469261D01*
X115203392Y-56239997D01*
X115025146Y-56052838D01*
X114884960Y-55900825D01*
X114776721Y-55776998D01*
X114694315Y-55674396D01*
X114631628Y-55586061D01*
X114582546Y-55505031D01*
X114546950Y-55436689D01*
X114485363Y-55306051D01*
X114445840Y-55200427D01*
X114423515Y-55094924D01*
X114420080Y-55050139D01*
X116965588Y-55050139D01*
X116965851Y-55073586D01*
X116987967Y-55114914D01*
X117036300Y-55179048D01*
X117115213Y-55270911D01*
X117229069Y-55395428D01*
X117382232Y-55557524D01*
X117579065Y-55762122D01*
X117823931Y-56014148D01*
X118065820Y-56261898D01*
X118320638Y-56523641D01*
X118561392Y-56773050D01*
X118781616Y-57003275D01*
X118974849Y-57207466D01*
X119134625Y-57378773D01*
X119254482Y-57510345D01*
X119327955Y-57595333D01*
X119344430Y-57616947D01*
X119489627Y-57895921D01*
X119576675Y-58207266D01*
X119598278Y-58451256D01*
X119591848Y-58546882D01*
X119573514Y-58710722D01*
X119544710Y-58932619D01*
X119506871Y-59202414D01*
X119461432Y-59509950D01*
X119409827Y-59845068D01*
X119353491Y-60197611D01*
X119339906Y-60280757D01*
X119283489Y-60625666D01*
X119231322Y-60946643D01*
X119184777Y-61235089D01*
X119145228Y-61482408D01*
X119114045Y-61680001D01*
X119092602Y-61819271D01*
X119082271Y-61891620D01*
X119081533Y-61899443D01*
X119082135Y-61914380D01*
X119088092Y-61923646D01*
X119105635Y-61924078D01*
X119140992Y-61912514D01*
X119200394Y-61885793D01*
X119290071Y-61840751D01*
X119416250Y-61774228D01*
X119585163Y-61683061D01*
X119803039Y-61564088D01*
X120076106Y-61414147D01*
X120410596Y-61230077D01*
X120532528Y-61162951D01*
X120839982Y-60995009D01*
X121133211Y-60837328D01*
X121403177Y-60694585D01*
X121640841Y-60571458D01*
X121837164Y-60472623D01*
X121983107Y-60402758D01*
X122069631Y-60366540D01*
X122074793Y-60364912D01*
X122363083Y-60313207D01*
X122669205Y-60316117D01*
X122925188Y-60364906D01*
X123004469Y-60397200D01*
X123144285Y-60463663D01*
X123335766Y-60559702D01*
X123570039Y-60680722D01*
X123838231Y-60822130D01*
X124131470Y-60979331D01*
X124440885Y-61147731D01*
X124505626Y-61183284D01*
X124808568Y-61349140D01*
X125089510Y-61501472D01*
X125340920Y-61636306D01*
X125555266Y-61749670D01*
X125725017Y-61837590D01*
X125842641Y-61896095D01*
X125900607Y-61921210D01*
X125905275Y-61921605D01*
X125903460Y-61879268D01*
X125889800Y-61766864D01*
X125865541Y-61592744D01*
X125831926Y-61365255D01*
X125790200Y-61092747D01*
X125741607Y-60783567D01*
X125687392Y-60446065D01*
X125663313Y-60298298D01*
X125605786Y-59940768D01*
X125552638Y-59598947D01*
X125505279Y-59282776D01*
X125465120Y-59002194D01*
X125433573Y-58767142D01*
X125412048Y-58587561D01*
X125401957Y-58473391D01*
X125401370Y-58453109D01*
X125432503Y-58171437D01*
X125517548Y-57885711D01*
X125645140Y-57633135D01*
X125657673Y-57614255D01*
X125707212Y-57553665D01*
X125806116Y-57443300D01*
X125947934Y-57289994D01*
X126126214Y-57100580D01*
X126334505Y-56881892D01*
X126566355Y-56640764D01*
X126815312Y-56384029D01*
X126934458Y-56261899D01*
X127222257Y-55966955D01*
X127458427Y-55723515D01*
X127647332Y-55526648D01*
X127793339Y-55371428D01*
X127900814Y-55252923D01*
X127974121Y-55166206D01*
X128017627Y-55106348D01*
X128035697Y-55068418D01*
X128032698Y-55047489D01*
X128017188Y-55039464D01*
X127958648Y-55028951D01*
X127830518Y-55008000D01*
X127641819Y-54978019D01*
X127401571Y-54940419D01*
X127118796Y-54896609D01*
X126802515Y-54847999D01*
X126461749Y-54795998D01*
X126366843Y-54781579D01*
X125936433Y-54715727D01*
X125576621Y-54658773D01*
X125279310Y-54608326D01*
X125036405Y-54561995D01*
X124839811Y-54517388D01*
X124681431Y-54472115D01*
X124553169Y-54423783D01*
X124446930Y-54370003D01*
X124354617Y-54308381D01*
X124268136Y-54236528D01*
X124179389Y-54152051D01*
X124155687Y-54128467D01*
X124102642Y-54072662D01*
X124051669Y-54011135D01*
X123998861Y-53936566D01*
X123940310Y-53841633D01*
X123872110Y-53719017D01*
X123790352Y-53561397D01*
X123691130Y-53361452D01*
X123570535Y-53111861D01*
X123424662Y-52805305D01*
X123249601Y-52434462D01*
X123235347Y-52404196D01*
X123082841Y-52081293D01*
X122940519Y-51781808D01*
X122811971Y-51513161D01*
X122700789Y-51282772D01*
X122610563Y-51098062D01*
X122544884Y-50966448D01*
X122507344Y-50895353D01*
X122500000Y-50884734D01*
X122479417Y-50919493D01*
X122428756Y-51018845D01*
X122351607Y-51175367D01*
X122251559Y-51381634D01*
X122132203Y-51630221D01*
X121997127Y-51913704D01*
X121849922Y-52224660D01*
X121765984Y-52402806D01*
X121588707Y-52778852D01*
X121440872Y-53090041D01*
X121318582Y-53343685D01*
X121217941Y-53547099D01*
X121135051Y-53707595D01*
X121066017Y-53832488D01*
X121006940Y-53929090D01*
X120953924Y-54004715D01*
X120903073Y-54066676D01*
X120850490Y-54122287D01*
X120849002Y-54123777D01*
X120575255Y-54342544D01*
X120257995Y-54499636D01*
X119970188Y-54578065D01*
X119874809Y-54593975D01*
X119712072Y-54619834D01*
X119493253Y-54653903D01*
X119229629Y-54694446D01*
X118932478Y-54739725D01*
X118613077Y-54788001D01*
X118405790Y-54819130D01*
X118086126Y-54867223D01*
X117788620Y-54912389D01*
X117523163Y-54953095D01*
X117299646Y-54987807D01*
X117127960Y-55014993D01*
X117017997Y-55033119D01*
X116982816Y-55039649D01*
X116965588Y-55050139D01*
X114420080Y-55050139D01*
X114413521Y-54964650D01*
X114410993Y-54784711D01*
X114410954Y-54741071D01*
X114413223Y-54542235D01*
X114422684Y-54398803D01*
X114443318Y-54286740D01*
X114479105Y-54182017D01*
X114518115Y-54094199D01*
X114665104Y-53849998D01*
X114862448Y-53620789D01*
X115087602Y-53429979D01*
X115255011Y-53329149D01*
X115315369Y-53301896D01*
X115385767Y-53276104D01*
X115473426Y-53250416D01*
X115585566Y-53223475D01*
X115729409Y-53193923D01*
X115912177Y-53160404D01*
X116141090Y-53121560D01*
X116423369Y-53076034D01*
X116766237Y-53022469D01*
X117176913Y-52959508D01*
X117412050Y-52923759D01*
X117795125Y-52865216D01*
X118154938Y-52809427D01*
X118483703Y-52757656D01*
X118773637Y-52711165D01*
X119016955Y-52671219D01*
X119205874Y-52639081D01*
X119332608Y-52616015D01*
X119389373Y-52603283D01*
X119391036Y-52602554D01*
X119418033Y-52561678D01*
X119474969Y-52456078D01*
X119558221Y-52293097D01*
X119664165Y-52080077D01*
X119789178Y-51824360D01*
X119929634Y-51533289D01*
X120081910Y-51214206D01*
X120209597Y-50944147D01*
X120372710Y-50598187D01*
X120529722Y-50265985D01*
X120676491Y-49956248D01*
X120808874Y-49677682D01*
X120922728Y-49438996D01*
X121013911Y-49248896D01*
X121078279Y-49116090D01*
X121104741Y-49062710D01*
X121300684Y-48760324D01*
X121551996Y-48514356D01*
X121855617Y-48327800D01*
X121856028Y-48327605D01*
X121992361Y-48266735D01*
X122106086Y-48229250D01*
X122225516Y-48209603D01*
X122378963Y-48202247D01*
X122500000Y-48201424D01*
X122687700Y-48204045D01*
G36*
X122754667Y-94843234D02*
G01*
X123091426Y-94882658D01*
X123262199Y-94920081D01*
X123721144Y-95082793D01*
X124143381Y-95312033D01*
X124522429Y-95601327D01*
X124851808Y-95944201D01*
X125125035Y-96334181D01*
X125335631Y-96764793D01*
X125446316Y-97101921D01*
X125501503Y-97392272D01*
X125529027Y-97721704D01*
X125528536Y-98059566D01*
X125499681Y-98375208D01*
X125463012Y-98564179D01*
X125305044Y-99034196D01*
X125080124Y-99464977D01*
X124793267Y-99851055D01*
X124449488Y-100186968D01*
X124053805Y-100467251D01*
X123611232Y-100686439D01*
X123464374Y-100741449D01*
X123304097Y-100794013D01*
X123165035Y-100829818D01*
X123022744Y-100852646D01*
X122852782Y-100866278D01*
X122630707Y-100874498D01*
X122599374Y-100875301D01*
X122253402Y-100875365D01*
X121981948Y-100856585D01*
X121838724Y-100832637D01*
X121379340Y-100688424D01*
X120953200Y-100475755D01*
X120566811Y-100201045D01*
X120226680Y-99870705D01*
X119939314Y-99491149D01*
X119711221Y-99068791D01*
X119548907Y-98610043D01*
X119536988Y-98564179D01*
X119488340Y-98281776D01*
X119468298Y-97955985D01*
X119469274Y-97915726D01*
X121502099Y-97915726D01*
X121530659Y-98139671D01*
X121566496Y-98256427D01*
X121650759Y-98400308D01*
X121781297Y-98551571D01*
X121934366Y-98687578D01*
X122086221Y-98785691D01*
X122149112Y-98811860D01*
X122347923Y-98849724D01*
X122575299Y-98854419D01*
X122787463Y-98825741D01*
X122827370Y-98815046D01*
X122987942Y-98737934D01*
X123155787Y-98610910D01*
X123306124Y-98456813D01*
X123414172Y-98298483D01*
X123433503Y-98256427D01*
X123473624Y-98113671D01*
X123498071Y-97944340D01*
X123501541Y-97866860D01*
X123465787Y-97582077D01*
X123359761Y-97333531D01*
X123185930Y-97125372D01*
X122971837Y-96975058D01*
X122716072Y-96877263D01*
X122455497Y-96852711D01*
X122202218Y-96896966D01*
X121968339Y-97005591D01*
X121765964Y-97174150D01*
X121607197Y-97398205D01*
X121563139Y-97491378D01*
X121512872Y-97687417D01*
X121502099Y-97915726D01*
X119469274Y-97915726D01*
X119476511Y-97617457D01*
X119512630Y-97296841D01*
X119553683Y-97101921D01*
X119713543Y-96648959D01*
X119941150Y-96230157D01*
X120229550Y-95852472D01*
X120571790Y-95522860D01*
X120960916Y-95248279D01*
X121389975Y-95035683D01*
X121733360Y-94921217D01*
X122044127Y-94862537D01*
X122395065Y-94836535D01*
X122754667Y-94843234D01*
G37*
X122754667Y-94843234D02*
X123091426Y-94882658D01*
X123262199Y-94920081D01*
X123721144Y-95082793D01*
X124143381Y-95312033D01*
X124522429Y-95601327D01*
X124851808Y-95944201D01*
X125125035Y-96334181D01*
X125335631Y-96764793D01*
X125446316Y-97101921D01*
X125501503Y-97392272D01*
X125529027Y-97721704D01*
X125528536Y-98059566D01*
X125499681Y-98375208D01*
X125463012Y-98564179D01*
X125305044Y-99034196D01*
X125080124Y-99464977D01*
X124793267Y-99851055D01*
X124449488Y-100186968D01*
X124053805Y-100467251D01*
X123611232Y-100686439D01*
X123464374Y-100741449D01*
X123304097Y-100794013D01*
X123165035Y-100829818D01*
X123022744Y-100852646D01*
X122852782Y-100866278D01*
X122630707Y-100874498D01*
X122599374Y-100875301D01*
X122253402Y-100875365D01*
X121981948Y-100856585D01*
X121838724Y-100832637D01*
X121379340Y-100688424D01*
X120953200Y-100475755D01*
X120566811Y-100201045D01*
X120226680Y-99870705D01*
X119939314Y-99491149D01*
X119711221Y-99068791D01*
X119548907Y-98610043D01*
X119536988Y-98564179D01*
X119488340Y-98281776D01*
X119468298Y-97955985D01*
X119469274Y-97915726D01*
X121502099Y-97915726D01*
X121530659Y-98139671D01*
X121566496Y-98256427D01*
X121650759Y-98400308D01*
X121781297Y-98551571D01*
X121934366Y-98687578D01*
X122086221Y-98785691D01*
X122149112Y-98811860D01*
X122347923Y-98849724D01*
X122575299Y-98854419D01*
X122787463Y-98825741D01*
X122827370Y-98815046D01*
X122987942Y-98737934D01*
X123155787Y-98610910D01*
X123306124Y-98456813D01*
X123414172Y-98298483D01*
X123433503Y-98256427D01*
X123473624Y-98113671D01*
X123498071Y-97944340D01*
X123501541Y-97866860D01*
X123465787Y-97582077D01*
X123359761Y-97333531D01*
X123185930Y-97125372D01*
X122971837Y-96975058D01*
X122716072Y-96877263D01*
X122455497Y-96852711D01*
X122202218Y-96896966D01*
X121968339Y-97005591D01*
X121765964Y-97174150D01*
X121607197Y-97398205D01*
X121563139Y-97491378D01*
X121512872Y-97687417D01*
X121502099Y-97915726D01*
X119469274Y-97915726D01*
X119476511Y-97617457D01*
X119512630Y-97296841D01*
X119553683Y-97101921D01*
X119713543Y-96648959D01*
X119941150Y-96230157D01*
X120229550Y-95852472D01*
X120571790Y-95522860D01*
X120960916Y-95248279D01*
X121389975Y-95035683D01*
X121733360Y-94921217D01*
X122044127Y-94862537D01*
X122395065Y-94836535D01*
X122754667Y-94843234D01*
G36*
X114625930Y-96886062D02*
G01*
X114653964Y-96893719D01*
X114809966Y-96950310D01*
X114939287Y-97030058D01*
X115075386Y-97154009D01*
X115087532Y-97166427D01*
X115220942Y-97324272D01*
X115312572Y-97475267D01*
X115335967Y-97535301D01*
X115383612Y-97817261D01*
X115360332Y-98084343D01*
X115273158Y-98326894D01*
X115129122Y-98535260D01*
X114935254Y-98699787D01*
X114698588Y-98810821D01*
X114426153Y-98858708D01*
X114371205Y-98859872D01*
X114215552Y-98849680D01*
X114070941Y-98824223D01*
X114000819Y-98801903D01*
X113781392Y-98679870D01*
X113615292Y-98520129D01*
X113516311Y-98371955D01*
X113404665Y-98116860D01*
X113367790Y-97866501D01*
X113396826Y-97632204D01*
X113496263Y-97374513D01*
X113653599Y-97160913D01*
X113857036Y-96998336D01*
X114094770Y-96893713D01*
X114355002Y-96853978D01*
X114625930Y-96886062D01*
G37*
X114625930Y-96886062D02*
X114653964Y-96893719D01*
X114809966Y-96950310D01*
X114939287Y-97030058D01*
X115075386Y-97154009D01*
X115087532Y-97166427D01*
X115220942Y-97324272D01*
X115312572Y-97475267D01*
X115335967Y-97535301D01*
X115383612Y-97817261D01*
X115360332Y-98084343D01*
X115273158Y-98326894D01*
X115129122Y-98535260D01*
X114935254Y-98699787D01*
X114698588Y-98810821D01*
X114426153Y-98858708D01*
X114371205Y-98859872D01*
X114215552Y-98849680D01*
X114070941Y-98824223D01*
X114000819Y-98801903D01*
X113781392Y-98679870D01*
X113615292Y-98520129D01*
X113516311Y-98371955D01*
X113404665Y-98116860D01*
X113367790Y-97866501D01*
X113396826Y-97632204D01*
X113496263Y-97374513D01*
X113653599Y-97160913D01*
X113857036Y-96998336D01*
X114094770Y-96893713D01*
X114355002Y-96853978D01*
X114625930Y-96886062D01*
G36*
X130879274Y-96886508D02*
G01*
X131119869Y-96984769D01*
X131327382Y-97141700D01*
X131490010Y-97350367D01*
X131595954Y-97603838D01*
X131603174Y-97632204D01*
X131631791Y-97891171D01*
X131587465Y-98140934D01*
X131471860Y-98388337D01*
X131306424Y-98603405D01*
X131105849Y-98749833D01*
X130862377Y-98832138D01*
X130672415Y-98853614D01*
X130498891Y-98855001D01*
X130368101Y-98837241D01*
X130244335Y-98794098D01*
X130191549Y-98769670D01*
X129954535Y-98614416D01*
X129776657Y-98411769D01*
X129662290Y-98171970D01*
X129615812Y-97905259D01*
X129641598Y-97621877D01*
X129664032Y-97535301D01*
X129730844Y-97395860D01*
X129847206Y-97238030D01*
X129912467Y-97166427D01*
X130050548Y-97038044D01*
X130179182Y-96955542D01*
X130331828Y-96897877D01*
X130346036Y-96893719D01*
X130617396Y-96853847D01*
X130879274Y-96886508D01*
G37*
X130879274Y-96886508D02*
X131119869Y-96984769D01*
X131327382Y-97141700D01*
X131490010Y-97350367D01*
X131595954Y-97603838D01*
X131603174Y-97632204D01*
X131631791Y-97891171D01*
X131587465Y-98140934D01*
X131471860Y-98388337D01*
X131306424Y-98603405D01*
X131105849Y-98749833D01*
X130862377Y-98832138D01*
X130672415Y-98853614D01*
X130498891Y-98855001D01*
X130368101Y-98837241D01*
X130244335Y-98794098D01*
X130191549Y-98769670D01*
X129954535Y-98614416D01*
X129776657Y-98411769D01*
X129662290Y-98171970D01*
X129615812Y-97905259D01*
X129641598Y-97621877D01*
X129664032Y-97535301D01*
X129730844Y-97395860D01*
X129847206Y-97238030D01*
X129912467Y-97166427D01*
X130050548Y-97038044D01*
X130179182Y-96955542D01*
X130331828Y-96897877D01*
X130346036Y-96893719D01*
X130617396Y-96853847D01*
X130879274Y-96886508D01*
G36*
X108487433Y-91809408D02*
G01*
X108710683Y-91879237D01*
X108914671Y-92001853D01*
X109088670Y-92178422D01*
X109221951Y-92410108D01*
X109251370Y-92487522D01*
X109300218Y-92742840D01*
X109278557Y-92991231D01*
X109195330Y-93223086D01*
X109059483Y-93428798D01*
X108879959Y-93598758D01*
X108665703Y-93723359D01*
X108425659Y-93792992D01*
X108168772Y-93798050D01*
X108051017Y-93776932D01*
X107800866Y-93677339D01*
X107589834Y-93516951D01*
X107427032Y-93308593D01*
X107321569Y-93065087D01*
X107282557Y-92799259D01*
X107286509Y-92700841D01*
X107344208Y-92433764D01*
X107457740Y-92211323D01*
X107616379Y-92034682D01*
X107809395Y-91905005D01*
X108026062Y-91823457D01*
X108255650Y-91791203D01*
X108487433Y-91809408D01*
G37*
X108487433Y-91809408D02*
X108710683Y-91879237D01*
X108914671Y-92001853D01*
X109088670Y-92178422D01*
X109221951Y-92410108D01*
X109251370Y-92487522D01*
X109300218Y-92742840D01*
X109278557Y-92991231D01*
X109195330Y-93223086D01*
X109059483Y-93428798D01*
X108879959Y-93598758D01*
X108665703Y-93723359D01*
X108425659Y-93792992D01*
X108168772Y-93798050D01*
X108051017Y-93776932D01*
X107800866Y-93677339D01*
X107589834Y-93516951D01*
X107427032Y-93308593D01*
X107321569Y-93065087D01*
X107282557Y-92799259D01*
X107286509Y-92700841D01*
X107344208Y-92433764D01*
X107457740Y-92211323D01*
X107616379Y-92034682D01*
X107809395Y-91905005D01*
X108026062Y-91823457D01*
X108255650Y-91791203D01*
X108487433Y-91809408D01*
G36*
X136883812Y-91810565D02*
G01*
X137006909Y-91826251D01*
X137108854Y-91860143D01*
X137215945Y-91916943D01*
X137434706Y-92087586D01*
X137592830Y-92298789D01*
X137688534Y-92537666D01*
X137720034Y-92791331D01*
X137685547Y-93046898D01*
X137583287Y-93291479D01*
X137433666Y-93489649D01*
X137215741Y-93663216D01*
X136966904Y-93767579D01*
X136699958Y-93799688D01*
X136427708Y-93756493D01*
X136379872Y-93740750D01*
X136135849Y-93616612D01*
X135945208Y-93444718D01*
X135809106Y-93237140D01*
X135728702Y-93005951D01*
X135705151Y-92763222D01*
X135739612Y-92521025D01*
X135833242Y-92291433D01*
X135987198Y-92086517D01*
X136202638Y-91918350D01*
X136205024Y-91916943D01*
X136314395Y-91859131D01*
X136416497Y-91825720D01*
X136540407Y-91810372D01*
X136710485Y-91806745D01*
X136883812Y-91810565D01*
G37*
X136883812Y-91810565D02*
X137006909Y-91826251D01*
X137108854Y-91860143D01*
X137215945Y-91916943D01*
X137434706Y-92087586D01*
X137592830Y-92298789D01*
X137688534Y-92537666D01*
X137720034Y-92791331D01*
X137685547Y-93046898D01*
X137583287Y-93291479D01*
X137433666Y-93489649D01*
X137215741Y-93663216D01*
X136966904Y-93767579D01*
X136699958Y-93799688D01*
X136427708Y-93756493D01*
X136379872Y-93740750D01*
X136135849Y-93616612D01*
X135945208Y-93444718D01*
X135809106Y-93237140D01*
X135728702Y-93005951D01*
X135705151Y-92763222D01*
X135739612Y-92521025D01*
X135833242Y-92291433D01*
X135987198Y-92086517D01*
X136202638Y-91918350D01*
X136205024Y-91916943D01*
X136314395Y-91859131D01*
X136416497Y-91825720D01*
X136540407Y-91810372D01*
X136710485Y-91806745D01*
X136883812Y-91810565D01*
G36*
X115674155Y-73578489D02*
G01*
X115920673Y-73683138D01*
X116126638Y-73848276D01*
X116283096Y-74066049D01*
X116381097Y-74328598D01*
X116398886Y-74422387D01*
X116399678Y-74678341D01*
X116332165Y-74918065D01*
X116207088Y-75132451D01*
X116035188Y-75312388D01*
X115827202Y-75448767D01*
X115593872Y-75532476D01*
X115345937Y-75554408D01*
X115114124Y-75512176D01*
X114845779Y-75388888D01*
X114636663Y-75214055D01*
X114490076Y-74992151D01*
X114409320Y-74727654D01*
X114393697Y-74535540D01*
X114429406Y-74264283D01*
X114532484Y-74022839D01*
X114693473Y-73820580D01*
X114902918Y-73666878D01*
X115151360Y-73571107D01*
X115396034Y-73542188D01*
X115674155Y-73578489D01*
G37*
X115674155Y-73578489D02*
X115920673Y-73683138D01*
X116126638Y-73848276D01*
X116283096Y-74066049D01*
X116381097Y-74328598D01*
X116398886Y-74422387D01*
X116399678Y-74678341D01*
X116332165Y-74918065D01*
X116207088Y-75132451D01*
X116035188Y-75312388D01*
X115827202Y-75448767D01*
X115593872Y-75532476D01*
X115345937Y-75554408D01*
X115114124Y-75512176D01*
X114845779Y-75388888D01*
X114636663Y-75214055D01*
X114490076Y-74992151D01*
X114409320Y-74727654D01*
X114393697Y-74535540D01*
X114429406Y-74264283D01*
X114532484Y-74022839D01*
X114693473Y-73820580D01*
X114902918Y-73666878D01*
X115151360Y-73571107D01*
X115396034Y-73542188D01*
X115674155Y-73578489D01*
G36*
X129880081Y-73578390D02*
G01*
X130121828Y-73679692D01*
X130322363Y-73836612D01*
X130474846Y-74039667D01*
X130572432Y-74279376D01*
X130608281Y-74546256D01*
X130575550Y-74830826D01*
X130564590Y-74873412D01*
X130485992Y-75038892D01*
X130351242Y-75205921D01*
X130180876Y-75355091D01*
X129995429Y-75466997D01*
X129896150Y-75505127D01*
X129732996Y-75548105D01*
X129606241Y-75562637D01*
X129478264Y-75549284D01*
X129329800Y-75513580D01*
X129088849Y-75410239D01*
X128885250Y-75247735D01*
X128728370Y-75040145D01*
X128627573Y-74801547D01*
X128592227Y-74546016D01*
X128601603Y-74419118D01*
X128678636Y-74144988D01*
X128817367Y-73912585D01*
X129008633Y-73729925D01*
X129243269Y-73605026D01*
X129512113Y-73545905D01*
X129603966Y-73542188D01*
X129880081Y-73578390D01*
G37*
X129880081Y-73578390D02*
X130121828Y-73679692D01*
X130322363Y-73836612D01*
X130474846Y-74039667D01*
X130572432Y-74279376D01*
X130608281Y-74546256D01*
X130575550Y-74830826D01*
X130564590Y-74873412D01*
X130485992Y-75038892D01*
X130351242Y-75205921D01*
X130180876Y-75355091D01*
X129995429Y-75466997D01*
X129896150Y-75505127D01*
X129732996Y-75548105D01*
X129606241Y-75562637D01*
X129478264Y-75549284D01*
X129329800Y-75513580D01*
X129088849Y-75410239D01*
X128885250Y-75247735D01*
X128728370Y-75040145D01*
X128627573Y-74801547D01*
X128592227Y-74546016D01*
X128601603Y-74419118D01*
X128678636Y-74144988D01*
X128817367Y-73912585D01*
X129008633Y-73729925D01*
X129243269Y-73605026D01*
X129512113Y-73545905D01*
X129603966Y-73542188D01*
X129880081Y-73578390D01*
M02*
