G04 #@! TF.GenerationSoftware,KiCad,Pcbnew,(5.1.6)-1*
G04 #@! TF.CreationDate,2020-12-04T21:52:10+01:00*
G04 #@! TF.ProjectId,case_julgran,63617365-5f6a-4756-9c67-72616e2e6b69,rev?*
G04 #@! TF.SameCoordinates,Original*
G04 #@! TF.FileFunction,Copper,L1,Top*
G04 #@! TF.FilePolarity,Positive*
%FSLAX46Y46*%
G04 Gerber Fmt 4.6, Leading zero omitted, Abs format (unit mm)*
G04 Created by KiCad (PCBNEW (5.1.6)-1) date 2020-12-04 21:52:10*
%MOMM*%
%LPD*%
G01*
G04 APERTURE LIST*
G04 #@! TA.AperFunction,EtchedComponent*
%ADD10C,0.010000*%
G04 #@! TD*
G04 #@! TA.AperFunction,ViaPad*
%ADD11C,0.800000*%
G04 #@! TD*
G04 APERTURE END LIST*
D10*
G36*
X122501701Y-44312307D02*
G01*
X123389170Y-44312508D01*
X125500968Y-45128652D01*
X126285015Y-45924891D01*
X127069063Y-46721129D01*
X127625102Y-47908699D01*
X127759549Y-48194438D01*
X127884192Y-48456645D01*
X127994834Y-48686701D01*
X128087280Y-48875990D01*
X128157334Y-49015893D01*
X128200800Y-49097793D01*
X128212814Y-49115845D01*
X128258716Y-49126421D01*
X128373515Y-49146995D01*
X128547335Y-49175966D01*
X128770298Y-49211736D01*
X129032528Y-49252705D01*
X129324147Y-49297271D01*
X129448011Y-49315927D01*
X130651536Y-49496433D01*
X132642132Y-50543073D01*
X133974744Y-52294797D01*
X134453574Y-53728081D01*
X134453574Y-56019849D01*
X133987282Y-57003875D01*
X133520991Y-57987900D01*
X132850700Y-58678780D01*
X132664675Y-58872726D01*
X132499619Y-59049050D01*
X132362975Y-59199451D01*
X132262188Y-59315623D01*
X132204701Y-59389265D01*
X132194210Y-59411064D01*
X132229572Y-59446465D01*
X132319476Y-59519728D01*
X132453431Y-59622774D01*
X132620945Y-59747528D01*
X132803285Y-59879993D01*
X133021077Y-60028300D01*
X133298852Y-60204725D01*
X133624900Y-60402747D01*
X133987510Y-60615846D01*
X134374970Y-60837502D01*
X134775569Y-61061194D01*
X135177596Y-61280402D01*
X135569340Y-61488605D01*
X135939090Y-61679284D01*
X136275134Y-61845918D01*
X136565762Y-61981986D01*
X136629195Y-62010132D01*
X136852631Y-62110468D01*
X137035488Y-62200357D01*
X137198427Y-62292280D01*
X137362109Y-62398714D01*
X137547193Y-62532140D01*
X137755069Y-62690178D01*
X138317704Y-63123637D01*
X138808757Y-63880063D01*
X139299809Y-64636489D01*
X139471628Y-65472540D01*
X139643447Y-66308590D01*
X139557902Y-67025204D01*
X139523647Y-67297706D01*
X139489693Y-67521406D01*
X139450649Y-67715371D01*
X139401127Y-67898669D01*
X139335738Y-68090368D01*
X139249091Y-68309536D01*
X139135797Y-68575241D01*
X139090415Y-68679191D01*
X139032420Y-68796399D01*
X138939789Y-68965932D01*
X138821249Y-69173333D01*
X138685523Y-69404142D01*
X138541336Y-69643903D01*
X138397414Y-69878158D01*
X138262481Y-70092450D01*
X138145263Y-70272320D01*
X138054483Y-70403311D01*
X138031832Y-70433325D01*
X137919628Y-70576870D01*
X139102824Y-71291673D01*
X139529694Y-71546212D01*
X139909875Y-71766010D01*
X140238775Y-71948525D01*
X140511803Y-72091215D01*
X140724366Y-72191541D01*
X140743856Y-72199880D01*
X140937095Y-72285474D01*
X141107861Y-72371833D01*
X141275145Y-72470473D01*
X141457943Y-72592911D01*
X141675245Y-72750665D01*
X141773166Y-72824037D01*
X142344639Y-73254789D01*
X142801615Y-73920943D01*
X142942314Y-74126747D01*
X143068636Y-74312843D01*
X143173215Y-74468274D01*
X143248687Y-74582085D01*
X143287688Y-74643319D01*
X143290313Y-74648000D01*
X143308914Y-74703926D01*
X143342435Y-74824693D01*
X143387582Y-74997629D01*
X143441063Y-75210062D01*
X143499583Y-75449319D01*
X143512308Y-75502218D01*
X143702580Y-76295532D01*
X143654673Y-76955352D01*
X143625785Y-77288815D01*
X143588552Y-77570734D01*
X143537047Y-77826253D01*
X143465342Y-78080513D01*
X143367512Y-78358656D01*
X143259081Y-78633385D01*
X143199948Y-78763987D01*
X143111085Y-78941832D01*
X142999945Y-79153650D01*
X142873980Y-79386168D01*
X142740645Y-79626116D01*
X142607392Y-79860222D01*
X142481676Y-80075215D01*
X142370949Y-80257824D01*
X142282666Y-80394778D01*
X142228978Y-80467549D01*
X142213097Y-80495858D01*
X142221759Y-80527183D01*
X142263861Y-80568370D01*
X142348299Y-80626267D01*
X142483970Y-80707720D01*
X142679772Y-80819576D01*
X142704689Y-80833650D01*
X142982837Y-80981763D01*
X143314885Y-81144146D01*
X143678887Y-81310850D01*
X144052891Y-81471922D01*
X144414951Y-81617413D01*
X144528120Y-81660329D01*
X144582702Y-81700335D01*
X144685171Y-81795435D01*
X144830960Y-81940819D01*
X145015502Y-82131677D01*
X145234230Y-82363197D01*
X145482578Y-82630571D01*
X145755980Y-82928986D01*
X146049868Y-83253634D01*
X146208812Y-83430709D01*
X146250276Y-83478164D01*
X146284668Y-83524323D01*
X146314548Y-83578560D01*
X146342475Y-83650248D01*
X146371008Y-83748761D01*
X146402705Y-83883473D01*
X146440127Y-84063758D01*
X146485833Y-84298990D01*
X146542380Y-84598543D01*
X146574649Y-84770721D01*
X146630374Y-85071936D01*
X146680912Y-85352270D01*
X146724418Y-85600924D01*
X146759050Y-85807101D01*
X146782965Y-85960000D01*
X146794319Y-86048824D01*
X146795000Y-86061611D01*
X146785124Y-86136263D01*
X146757907Y-86272816D01*
X146716691Y-86456279D01*
X146664817Y-86671662D01*
X146616524Y-86862153D01*
X146473108Y-87357551D01*
X146298028Y-87867440D01*
X146100018Y-88370109D01*
X145887811Y-88843849D01*
X145670138Y-89266953D01*
X145599791Y-89389738D01*
X145498268Y-89565160D01*
X145413401Y-89718295D01*
X145352697Y-89835100D01*
X145323662Y-89901534D01*
X145322226Y-89908943D01*
X145349305Y-89950552D01*
X145424944Y-90038745D01*
X145540748Y-90164463D01*
X145688319Y-90318651D01*
X145859262Y-90492251D01*
X145909452Y-90542388D01*
X146048844Y-90680134D01*
X146176662Y-90803331D01*
X146300482Y-90917999D01*
X146427881Y-91030157D01*
X146566437Y-91145826D01*
X146723728Y-91271026D01*
X146907329Y-91411776D01*
X147124818Y-91574098D01*
X147383774Y-91764010D01*
X147691772Y-91987532D01*
X148056390Y-92250685D01*
X148091432Y-92275936D01*
X148490297Y-92562424D01*
X148833643Y-92806827D01*
X149129768Y-93014677D01*
X149386970Y-93191505D01*
X149613546Y-93342844D01*
X149817794Y-93474227D01*
X150008011Y-93591185D01*
X150192496Y-93699250D01*
X150379545Y-93803955D01*
X150400523Y-93815445D01*
X151114859Y-94205934D01*
X151552790Y-94765499D01*
X151721444Y-94980866D01*
X151898413Y-95206629D01*
X152067503Y-95422143D01*
X152212519Y-95606762D01*
X152275300Y-95686576D01*
X152559879Y-96048088D01*
X152730948Y-97194871D01*
X152902017Y-98341653D01*
X152690103Y-99225278D01*
X152478190Y-100108903D01*
X151887984Y-101283355D01*
X151297779Y-102457806D01*
X150227371Y-103632257D01*
X149950306Y-103935453D01*
X149720111Y-104185198D01*
X149530718Y-104387516D01*
X149376058Y-104548433D01*
X149250063Y-104673972D01*
X149146664Y-104770158D01*
X149059791Y-104843016D01*
X148983376Y-104898571D01*
X148911351Y-104942846D01*
X148901742Y-104948227D01*
X148804235Y-105002391D01*
X148647818Y-105089396D01*
X148443132Y-105203318D01*
X148200818Y-105338235D01*
X147931517Y-105488221D01*
X147645868Y-105647352D01*
X147491975Y-105733101D01*
X146337430Y-106376457D01*
X145086343Y-106676458D01*
X143835256Y-106976458D01*
X142965587Y-106976458D01*
X142702290Y-106976061D01*
X142486673Y-106973842D01*
X142302451Y-106968260D01*
X142133336Y-106957772D01*
X141963045Y-106940838D01*
X141775291Y-106915914D01*
X141553788Y-106881459D01*
X141282250Y-106835932D01*
X141038340Y-106794003D01*
X140758816Y-106746321D01*
X140506158Y-106704262D01*
X140290622Y-106669448D01*
X140122464Y-106643503D01*
X140011941Y-106628049D01*
X139969308Y-106624710D01*
X139969195Y-106624802D01*
X139949227Y-106662709D01*
X139899124Y-106762391D01*
X139823723Y-106914089D01*
X139727862Y-107108046D01*
X139616378Y-107334504D01*
X139518550Y-107533825D01*
X139256922Y-108048843D01*
X139012937Y-108490078D01*
X138784690Y-108860931D01*
X138727260Y-108946874D01*
X138606315Y-109122968D01*
X138505445Y-109262979D01*
X138412168Y-109379939D01*
X138314005Y-109486880D01*
X138198473Y-109596833D01*
X138053092Y-109722830D01*
X137865380Y-109877902D01*
X137730184Y-109987934D01*
X137085320Y-110511713D01*
X136281502Y-110779635D01*
X135477684Y-111047558D01*
X134637181Y-111027535D01*
X134366279Y-111020340D01*
X134142942Y-111011707D01*
X133948911Y-110999569D01*
X133765931Y-110981859D01*
X133575746Y-110956510D01*
X133360100Y-110921455D01*
X133100736Y-110874627D01*
X132821285Y-110821934D01*
X132540540Y-110767881D01*
X132304242Y-110720117D01*
X132097393Y-110674453D01*
X131904991Y-110626698D01*
X131712034Y-110572661D01*
X131503523Y-110508153D01*
X131264456Y-110428983D01*
X130979833Y-110330960D01*
X130651536Y-110215841D01*
X130313398Y-110094753D01*
X129998592Y-109978099D01*
X129717548Y-109869980D01*
X129480694Y-109774496D01*
X129298459Y-109695749D01*
X129181273Y-109637839D01*
X129180308Y-109637290D01*
X128903438Y-109479255D01*
X128764321Y-109646734D01*
X128698664Y-109714487D01*
X128580484Y-109824830D01*
X128418792Y-109969817D01*
X128222598Y-110141505D01*
X128000913Y-110331949D01*
X127762748Y-110533205D01*
X127687586Y-110596041D01*
X127387228Y-110844700D01*
X127132177Y-111051042D01*
X126908142Y-111225556D01*
X126700837Y-111378731D01*
X126495970Y-111521055D01*
X126279255Y-111663018D01*
X126036402Y-111815107D01*
X125977646Y-111851213D01*
X125695790Y-112018790D01*
X125379505Y-112198268D01*
X125054255Y-112375745D01*
X124745504Y-112537321D01*
X124484699Y-112666260D01*
X123764075Y-113007963D01*
X121295737Y-113027009D01*
X120539311Y-112675488D01*
X120038881Y-112428895D01*
X119514843Y-112144985D01*
X119000703Y-111841922D01*
X118994708Y-111838229D01*
X118748092Y-111684370D01*
X118531925Y-111544409D01*
X118332571Y-111408264D01*
X118136393Y-111265854D01*
X117929753Y-111107097D01*
X117699014Y-110921913D01*
X117430540Y-110700218D01*
X117242984Y-110543227D01*
X117001627Y-110338987D01*
X116776499Y-110145575D01*
X116575883Y-109970333D01*
X116408061Y-109820600D01*
X116281315Y-109703718D01*
X116203928Y-109627028D01*
X116187549Y-109607772D01*
X116095661Y-109481582D01*
X115807885Y-109640438D01*
X115696958Y-109694119D01*
X115522949Y-109768813D01*
X115298095Y-109859709D01*
X115034635Y-109961992D01*
X114744805Y-110070853D01*
X114440842Y-110181478D01*
X114347107Y-110214864D01*
X114007511Y-110334620D01*
X113727403Y-110431437D01*
X113491455Y-110509616D01*
X113284337Y-110573462D01*
X113090721Y-110627277D01*
X112895277Y-110675364D01*
X112682674Y-110722026D01*
X112437585Y-110771565D01*
X112198715Y-110817911D01*
X111883056Y-110877862D01*
X111627287Y-110923960D01*
X111413295Y-110958334D01*
X111222967Y-110983111D01*
X111038189Y-111000422D01*
X110840847Y-111012395D01*
X110612830Y-111021159D01*
X110423406Y-111026573D01*
X109623489Y-111047759D01*
X108788213Y-110798616D01*
X107952936Y-110549474D01*
X107267944Y-109990918D01*
X106582951Y-109432362D01*
X106211517Y-108871254D01*
X105994720Y-108523603D01*
X105765191Y-108118412D01*
X105533308Y-107674337D01*
X105435908Y-107477000D01*
X105320699Y-107240158D01*
X105217014Y-107028231D01*
X105129887Y-106851410D01*
X105064354Y-106719887D01*
X105025449Y-106643852D01*
X105017022Y-106629143D01*
X104975492Y-106631727D01*
X104865867Y-106646486D01*
X104698475Y-106671809D01*
X104483640Y-106706085D01*
X104231691Y-106747705D01*
X103952954Y-106795057D01*
X103950696Y-106795445D01*
X103631856Y-106849980D01*
X103375060Y-106892294D01*
X103163926Y-106923937D01*
X102982074Y-106946458D01*
X102813124Y-106961406D01*
X102640694Y-106970330D01*
X102448404Y-106974780D01*
X102219874Y-106976303D01*
X102036559Y-106976458D01*
X101174036Y-106976458D01*
X99908398Y-106674055D01*
X98642759Y-106371652D01*
X97229436Y-105580005D01*
X95816113Y-104788357D01*
X94728454Y-103590991D01*
X93640796Y-102393624D01*
X93069883Y-101223213D01*
X92498969Y-100052801D01*
X92292715Y-99200613D01*
X92086460Y-98348425D01*
X92148586Y-97939154D01*
X96098071Y-97939154D01*
X96110304Y-98139459D01*
X96146606Y-98337942D01*
X96213364Y-98567501D01*
X96229310Y-98615257D01*
X96494652Y-99279419D01*
X96823470Y-99900084D01*
X97211330Y-100473911D01*
X97653797Y-100997556D01*
X98146434Y-101467680D01*
X98684807Y-101880940D01*
X99264480Y-102233994D01*
X99881018Y-102523502D01*
X100529985Y-102746120D01*
X101206946Y-102898508D01*
X101907465Y-102977325D01*
X102026771Y-102983096D01*
X102743702Y-102974150D01*
X103476883Y-102894278D01*
X104213789Y-102746795D01*
X104941895Y-102535018D01*
X105648677Y-102262263D01*
X106321610Y-101931845D01*
X106597215Y-101773003D01*
X106730038Y-101701771D01*
X106838358Y-101660385D01*
X106895804Y-101655321D01*
X106963145Y-101678674D01*
X107082853Y-101721567D01*
X107232593Y-101775976D01*
X107281729Y-101793968D01*
X107600009Y-101910728D01*
X107706728Y-102383326D01*
X107966620Y-103356120D01*
X108303040Y-104315152D01*
X108713173Y-105253314D01*
X109194202Y-106163496D01*
X109226030Y-106218389D01*
X109389553Y-106482958D01*
X109536804Y-106682913D01*
X109678029Y-106828715D01*
X109823474Y-106930828D01*
X109983384Y-106999716D01*
X109994683Y-107003343D01*
X110096005Y-107031974D01*
X110191326Y-107048252D01*
X110300746Y-107052747D01*
X110444366Y-107046029D01*
X110642283Y-107028667D01*
X110697340Y-107023253D01*
X111548147Y-106900339D01*
X112391165Y-106703421D01*
X113218141Y-106436159D01*
X114020820Y-106102213D01*
X114790950Y-105705243D01*
X115520277Y-105248908D01*
X116200548Y-104736868D01*
X116561578Y-104422960D01*
X116700996Y-104295467D01*
X116826683Y-104181110D01*
X116921976Y-104095018D01*
X116961436Y-104059883D01*
X117046256Y-103985621D01*
X117273651Y-104416071D01*
X117726003Y-105189939D01*
X118240374Y-105919027D01*
X118812368Y-106598999D01*
X119437588Y-107225516D01*
X120111636Y-107794243D01*
X120830116Y-108300840D01*
X121588631Y-108740972D01*
X121732494Y-108814514D01*
X121944617Y-108920092D01*
X122101122Y-108994718D01*
X122217452Y-109043358D01*
X122309051Y-109070978D01*
X122391361Y-109082544D01*
X122479828Y-109083022D01*
X122555883Y-109079296D01*
X122675260Y-109068706D01*
X122784110Y-109047293D01*
X122901038Y-109008544D01*
X123044651Y-108945943D01*
X123233552Y-108852977D01*
X123302219Y-108817997D01*
X124077442Y-108377558D01*
X124810540Y-107872816D01*
X125496759Y-107308454D01*
X126131347Y-106689157D01*
X126709549Y-106019610D01*
X127226614Y-105304496D01*
X127677788Y-104548501D01*
X127725652Y-104458355D01*
X127818262Y-104285529D01*
X127899247Y-104141527D01*
X127960968Y-104039417D01*
X127995788Y-103992265D01*
X127999085Y-103990565D01*
X128039333Y-104017053D01*
X128116543Y-104086177D01*
X128204767Y-104173608D01*
X128461833Y-104419898D01*
X128773188Y-104687488D01*
X129121488Y-104962912D01*
X129489389Y-105232708D01*
X129859546Y-105483411D01*
X130034452Y-105593950D01*
X130258418Y-105722866D01*
X130536039Y-105868848D01*
X130846094Y-106021872D01*
X131167362Y-106171912D01*
X131478625Y-106308944D01*
X131758663Y-106422943D01*
X131898763Y-106474681D01*
X132522569Y-106671791D01*
X133162212Y-106833688D01*
X133793496Y-106955091D01*
X134392226Y-107030717D01*
X134478716Y-107037862D01*
X134744164Y-107046474D01*
X134965452Y-107022852D01*
X135154510Y-106959568D01*
X135323264Y-106849191D01*
X135483643Y-106684293D01*
X135647576Y-106457445D01*
X135793661Y-106218888D01*
X136208985Y-105457067D01*
X136562489Y-104698925D01*
X136866094Y-103918104D01*
X136963538Y-103632257D01*
X137035111Y-103410213D01*
X137098998Y-103200070D01*
X137159747Y-102984906D01*
X137221905Y-102747797D01*
X137290021Y-102471821D01*
X137368640Y-102140055D01*
X137395576Y-102024438D01*
X137420909Y-101958063D01*
X137472591Y-101907811D01*
X137569118Y-101860330D01*
X137679687Y-101819340D01*
X137832811Y-101764638D01*
X137973852Y-101712513D01*
X138060570Y-101678900D01*
X138131944Y-101655549D01*
X138196184Y-101656829D01*
X138276805Y-101688733D01*
X138397318Y-101757251D01*
X138418877Y-101770206D01*
X139089671Y-102132330D01*
X139796771Y-102434725D01*
X140528804Y-102674392D01*
X141274399Y-102848334D01*
X142022185Y-102953553D01*
X142760790Y-102987051D01*
X143013135Y-102981354D01*
X143655814Y-102926660D01*
X144260140Y-102813759D01*
X144847148Y-102637488D01*
X145437870Y-102392680D01*
X145467837Y-102378568D01*
X146090543Y-102040464D01*
X146666503Y-101639590D01*
X147192007Y-101180169D01*
X147663347Y-100666420D01*
X148076814Y-100102567D01*
X148428697Y-99492829D01*
X148715290Y-98841428D01*
X148808844Y-98576145D01*
X148895935Y-98240306D01*
X148928781Y-97933164D01*
X148907310Y-97664108D01*
X148831451Y-97442529D01*
X148817694Y-97417876D01*
X148739800Y-97301272D01*
X148646816Y-97199415D01*
X148524327Y-97100713D01*
X148357912Y-96993573D01*
X148133155Y-96866402D01*
X148128966Y-96864120D01*
X147267571Y-96365515D01*
X146392756Y-95802887D01*
X145518349Y-95187027D01*
X144658183Y-94528728D01*
X143826087Y-93838780D01*
X143035891Y-93127976D01*
X142301426Y-92407108D01*
X141971938Y-92059819D01*
X141716189Y-91780000D01*
X141457224Y-91490335D01*
X141202057Y-91199171D01*
X140957700Y-90914855D01*
X140731164Y-90645733D01*
X140529463Y-90400152D01*
X140359608Y-90186461D01*
X140228611Y-90013004D01*
X140143486Y-89888130D01*
X140133750Y-89871760D01*
X140150045Y-89825753D01*
X140221658Y-89748822D01*
X140336197Y-89654008D01*
X140830138Y-89235578D01*
X141293755Y-88752402D01*
X141718697Y-88216267D01*
X142096612Y-87638961D01*
X142419150Y-87032271D01*
X142677959Y-86407983D01*
X142717796Y-86292670D01*
X142798946Y-86020935D01*
X142839563Y-85799347D01*
X142839530Y-85609448D01*
X142798729Y-85432780D01*
X142717043Y-85250886D01*
X142711093Y-85239870D01*
X142597809Y-85069705D01*
X142454979Y-84933419D01*
X142265312Y-84817568D01*
X142043839Y-84721038D01*
X141164476Y-84344320D01*
X140285234Y-83895704D01*
X139417219Y-83382154D01*
X138571539Y-82810635D01*
X137759300Y-82188111D01*
X137101066Y-81621866D01*
X136922587Y-81456321D01*
X136735740Y-81276930D01*
X136548858Y-81092371D01*
X136370274Y-80911323D01*
X136208321Y-80742464D01*
X136071333Y-80594472D01*
X135967642Y-80476026D01*
X135905581Y-80395803D01*
X135892452Y-80363181D01*
X135935126Y-80343392D01*
X136035656Y-80304323D01*
X136176611Y-80252615D01*
X136266444Y-80220704D01*
X136868586Y-79969212D01*
X137439208Y-79651435D01*
X137971329Y-79273714D01*
X138457967Y-78842389D01*
X138892141Y-78363799D01*
X139266870Y-77844284D01*
X139575173Y-77290186D01*
X139634277Y-77162283D01*
X139745609Y-76854093D01*
X139788040Y-76578135D01*
X139761128Y-76325976D01*
X139664431Y-76089185D01*
X139570498Y-75948045D01*
X139523488Y-75895792D01*
X139456548Y-75840482D01*
X139360860Y-75777023D01*
X139227608Y-75700326D01*
X139047975Y-75605298D01*
X138813146Y-75486849D01*
X138533425Y-75349224D01*
X137676564Y-74913520D01*
X136884341Y-74473068D01*
X136141950Y-74017758D01*
X135434586Y-73537481D01*
X134747442Y-73022127D01*
X134065713Y-72461586D01*
X133374595Y-71845749D01*
X133296027Y-71772955D01*
X133113729Y-71599635D01*
X132919189Y-71408088D01*
X132720389Y-71206868D01*
X132525307Y-71004530D01*
X132341923Y-70809626D01*
X132178216Y-70630709D01*
X132042167Y-70476334D01*
X131941754Y-70355052D01*
X131884958Y-70275419D01*
X131875220Y-70249969D01*
X131912547Y-70218885D01*
X132007576Y-70169276D01*
X132143129Y-70109685D01*
X132214704Y-70081140D01*
X132850826Y-69794568D01*
X133444723Y-69444716D01*
X133991575Y-69035974D01*
X134486560Y-68572729D01*
X134924860Y-68059368D01*
X135301654Y-67500281D01*
X135541430Y-67052672D01*
X135622201Y-66877455D01*
X135671859Y-66744654D01*
X135697682Y-66626924D01*
X135706945Y-66496923D01*
X135707649Y-66428025D01*
X135694108Y-66213025D01*
X135648274Y-66030626D01*
X135562333Y-65871991D01*
X135428470Y-65728285D01*
X135238868Y-65590670D01*
X134985714Y-65450312D01*
X134739542Y-65333440D01*
X133402157Y-64685945D01*
X132103151Y-63972028D01*
X130848957Y-63195423D01*
X129782386Y-62459446D01*
X129577419Y-62307595D01*
X129338885Y-62125760D01*
X129081143Y-61925359D01*
X128818554Y-61717816D01*
X128565478Y-61514549D01*
X128336275Y-61326980D01*
X128145306Y-61166529D01*
X128031342Y-61066841D01*
X127839675Y-60894170D01*
X127663082Y-59806074D01*
X127616857Y-59519239D01*
X127575150Y-59256575D01*
X127539613Y-59028794D01*
X127511897Y-58846606D01*
X127493652Y-58720723D01*
X127486529Y-58661857D01*
X127486489Y-58660383D01*
X127513597Y-58621440D01*
X127591387Y-58531506D01*
X127714556Y-58396208D01*
X127877805Y-58221176D01*
X128075831Y-58012037D01*
X128303334Y-57774421D01*
X128555011Y-57513956D01*
X128825561Y-57236269D01*
X128885238Y-57175315D01*
X129163842Y-56889924D01*
X129428575Y-56616701D01*
X129673540Y-56361872D01*
X129892838Y-56131667D01*
X130080573Y-55932315D01*
X130230848Y-55770044D01*
X130337764Y-55651083D01*
X130395424Y-55581661D01*
X130399201Y-55576293D01*
X130530823Y-55327358D01*
X130605447Y-55050721D01*
X130626718Y-54730956D01*
X130623415Y-54627706D01*
X130577279Y-54293160D01*
X130471081Y-54002336D01*
X130298070Y-53739815D01*
X130176239Y-53606144D01*
X130094481Y-53525978D01*
X130017148Y-53456839D01*
X129937173Y-53396793D01*
X129847492Y-53343904D01*
X129741039Y-53296240D01*
X129610751Y-53251864D01*
X129449561Y-53208843D01*
X129250404Y-53165242D01*
X129006217Y-53119127D01*
X128709933Y-53068564D01*
X128354487Y-53011617D01*
X127932816Y-52946353D01*
X127557018Y-52888981D01*
X127172493Y-52830273D01*
X126812671Y-52775055D01*
X126485067Y-52724500D01*
X126197193Y-52679780D01*
X125956565Y-52642069D01*
X125770695Y-52612540D01*
X125647098Y-52592365D01*
X125593286Y-52582717D01*
X125591571Y-52582171D01*
X125573598Y-52545543D01*
X125524970Y-52443623D01*
X125448888Y-52283187D01*
X125348552Y-52071011D01*
X125227163Y-51813871D01*
X125087922Y-51518544D01*
X124934028Y-51191805D01*
X124768682Y-50840430D01*
X124713917Y-50723982D01*
X124516117Y-50304053D01*
X124348344Y-49949864D01*
X124207204Y-49654882D01*
X124089302Y-49412576D01*
X123991245Y-49216415D01*
X123909639Y-49059866D01*
X123841092Y-48936399D01*
X123782208Y-48839481D01*
X123729595Y-48762581D01*
X123679858Y-48699167D01*
X123636225Y-48649819D01*
X123382448Y-48430801D01*
X123095042Y-48277176D01*
X122785682Y-48188861D01*
X122466047Y-48165772D01*
X122147814Y-48207826D01*
X121842660Y-48314940D01*
X121562263Y-48487029D01*
X121368525Y-48666011D01*
X121320423Y-48723068D01*
X121269435Y-48793571D01*
X121212299Y-48883859D01*
X121145752Y-49000274D01*
X121066534Y-49149154D01*
X120971381Y-49336838D01*
X120857032Y-49569665D01*
X120720225Y-49853977D01*
X120557698Y-50196111D01*
X120366188Y-50602408D01*
X120303763Y-50735271D01*
X120135335Y-51093670D01*
X119977347Y-51429326D01*
X119832978Y-51735517D01*
X119705411Y-52005520D01*
X119597826Y-52232614D01*
X119513405Y-52410076D01*
X119455329Y-52531185D01*
X119426781Y-52589218D01*
X119424363Y-52593386D01*
X119361106Y-52599736D01*
X119228954Y-52617770D01*
X119037315Y-52645959D01*
X118795595Y-52682776D01*
X118513203Y-52726696D01*
X118199545Y-52776189D01*
X117864029Y-52829731D01*
X117516063Y-52885793D01*
X117165054Y-52942848D01*
X116820409Y-52999370D01*
X116491536Y-53053831D01*
X116187843Y-53104705D01*
X115918736Y-53150463D01*
X115693623Y-53189580D01*
X115521912Y-53220528D01*
X115413010Y-53241780D01*
X115379490Y-53249964D01*
X115109634Y-53383849D01*
X114869007Y-53581427D01*
X114667436Y-53829168D01*
X114514744Y-54113541D01*
X114420758Y-54421017D01*
X114397135Y-54602739D01*
X114406319Y-54941836D01*
X114475189Y-55258799D01*
X114599476Y-55535413D01*
X114625425Y-55576536D01*
X114675220Y-55638221D01*
X114775116Y-55750301D01*
X114919225Y-55906558D01*
X115101660Y-56100769D01*
X115316535Y-56326715D01*
X115557963Y-56578176D01*
X115820056Y-56848931D01*
X116096928Y-57132761D01*
X116135644Y-57172278D01*
X116497752Y-57543345D01*
X116806877Y-57863659D01*
X117062318Y-58132466D01*
X117263378Y-58349011D01*
X117409355Y-58512541D01*
X117499553Y-58622301D01*
X117533271Y-58677538D01*
X117533511Y-58679848D01*
X117527360Y-58736395D01*
X117510277Y-58858539D01*
X117484317Y-59033317D01*
X117451538Y-59247769D01*
X117413995Y-59488933D01*
X117373745Y-59743849D01*
X117332842Y-59999553D01*
X117293343Y-60243086D01*
X117257305Y-60461486D01*
X117226783Y-60641792D01*
X117203833Y-60771042D01*
X117193315Y-60824472D01*
X117152632Y-60889599D01*
X117054085Y-60995240D01*
X116904677Y-61135738D01*
X116711414Y-61305435D01*
X116481302Y-61498673D01*
X116221345Y-61709796D01*
X115938547Y-61933144D01*
X115639915Y-62163062D01*
X115332454Y-62393890D01*
X115023167Y-62619973D01*
X114719061Y-62835651D01*
X114607336Y-62913004D01*
X113729265Y-63488391D01*
X112792677Y-64049524D01*
X111818636Y-64584629D01*
X110828209Y-65081933D01*
X110228863Y-65359963D01*
X109925227Y-65508337D01*
X109692421Y-65652662D01*
X109522731Y-65801967D01*
X109408443Y-65965277D01*
X109341845Y-66151622D01*
X109315222Y-66370027D01*
X109313908Y-66430770D01*
X109316787Y-66572688D01*
X109332036Y-66687910D01*
X109366853Y-66803010D01*
X109428432Y-66944559D01*
X109484004Y-67058865D01*
X109825606Y-67660220D01*
X110230743Y-68216725D01*
X110694159Y-68723622D01*
X111210594Y-69176154D01*
X111774790Y-69569561D01*
X112381491Y-69899086D01*
X112835706Y-70091864D01*
X112979360Y-70147688D01*
X113093520Y-70194965D01*
X113158059Y-70225276D01*
X113164049Y-70229189D01*
X113149306Y-70265944D01*
X113085791Y-70350531D01*
X112981238Y-70474680D01*
X112843380Y-70630124D01*
X112679950Y-70808593D01*
X112498682Y-71001820D01*
X112307309Y-71201535D01*
X112113564Y-71399471D01*
X111925180Y-71587359D01*
X111749890Y-71756931D01*
X111634941Y-71864126D01*
X110763848Y-72624412D01*
X109890210Y-73313656D01*
X109002067Y-73939882D01*
X108087459Y-74511112D01*
X107134429Y-75035370D01*
X106300453Y-75442995D01*
X106058386Y-75557336D01*
X105875971Y-75649698D01*
X105739255Y-75728468D01*
X105634283Y-75802033D01*
X105547101Y-75878778D01*
X105506682Y-75920050D01*
X105362743Y-76105858D01*
X105272824Y-76304870D01*
X105237912Y-76522680D01*
X105258993Y-76764882D01*
X105337055Y-77037070D01*
X105473083Y-77344839D01*
X105668066Y-77693781D01*
X105877411Y-78021725D01*
X106128945Y-78361098D01*
X106430896Y-78707886D01*
X106761221Y-79039364D01*
X107097876Y-79332807D01*
X107291536Y-79479598D01*
X107583606Y-79670048D01*
X107916227Y-79858848D01*
X108262159Y-80032071D01*
X108594161Y-80175790D01*
X108796760Y-80249135D01*
X108946100Y-80300398D01*
X109061412Y-80344983D01*
X109125574Y-80376036D01*
X109133198Y-80383834D01*
X109105913Y-80426385D01*
X109030067Y-80514801D01*
X108914674Y-80639946D01*
X108768748Y-80792684D01*
X108601302Y-80963878D01*
X108421352Y-81144394D01*
X108237910Y-81325094D01*
X108059990Y-81496844D01*
X107896606Y-81650506D01*
X107771641Y-81763840D01*
X107295001Y-82172267D01*
X106830694Y-82540650D01*
X106345795Y-82894454D01*
X106027869Y-83112625D01*
X105557638Y-83419747D01*
X105107410Y-83693368D01*
X104656223Y-83944832D01*
X104183116Y-84185485D01*
X103667129Y-84426670D01*
X103303892Y-84586904D01*
X103013986Y-84715983D01*
X102788529Y-84826191D01*
X102616773Y-84924843D01*
X102487971Y-85019255D01*
X102391378Y-85116741D01*
X102316246Y-85224617D01*
X102285852Y-85279900D01*
X102218965Y-85443552D01*
X102186311Y-85617577D01*
X102189350Y-85812398D01*
X102229543Y-86038441D01*
X102308350Y-86306130D01*
X102427231Y-86625889D01*
X102498961Y-86800937D01*
X102787112Y-87399526D01*
X103139393Y-87981251D01*
X103545057Y-88531866D01*
X103993354Y-89037122D01*
X104473535Y-89482773D01*
X104599109Y-89584627D01*
X104731021Y-89690017D01*
X104835633Y-89776427D01*
X104899622Y-89832683D01*
X104913135Y-89847955D01*
X104889929Y-89883303D01*
X104826174Y-89969516D01*
X104730660Y-90094967D01*
X104612180Y-90248026D01*
X104564915Y-90308518D01*
X103667254Y-91390903D01*
X102710050Y-92423064D01*
X101697390Y-93401492D01*
X100633363Y-94322675D01*
X99522058Y-95183102D01*
X98367561Y-95979262D01*
X97173963Y-96707644D01*
X96997361Y-96807720D01*
X96708817Y-96977162D01*
X96486744Y-97127964D01*
X96323277Y-97270018D01*
X96210553Y-97413220D01*
X96140707Y-97567464D01*
X96105875Y-97742644D01*
X96098071Y-97939154D01*
X92148586Y-97939154D01*
X92261202Y-97197285D01*
X92435945Y-96046144D01*
X93166365Y-95121883D01*
X93896785Y-94197621D01*
X94458330Y-93893870D01*
X94640809Y-93795022D01*
X94799592Y-93708090D01*
X94942236Y-93628064D01*
X95076301Y-93549928D01*
X95209343Y-93468671D01*
X95348923Y-93379280D01*
X95502596Y-93276741D01*
X95677923Y-93156043D01*
X95882461Y-93012170D01*
X96123768Y-92840112D01*
X96409403Y-92634854D01*
X96746924Y-92391385D01*
X97008287Y-92202629D01*
X97372672Y-91939231D01*
X97679639Y-91716482D01*
X97936425Y-91528554D01*
X98150265Y-91369620D01*
X98328397Y-91233855D01*
X98478055Y-91115432D01*
X98606475Y-91008523D01*
X98720894Y-90907303D01*
X98828548Y-90805944D01*
X98936672Y-90698620D01*
X99052502Y-90579504D01*
X99148372Y-90479357D01*
X99693797Y-89907870D01*
X99405262Y-89414813D01*
X99157707Y-88951838D01*
X98918456Y-88427580D01*
X98694353Y-87860366D01*
X98492243Y-87268524D01*
X98318968Y-86670381D01*
X98207220Y-86206591D01*
X98206256Y-86129516D01*
X98219628Y-85987524D01*
X98245167Y-85792503D01*
X98280703Y-85556336D01*
X98324067Y-85290912D01*
X98373089Y-85008115D01*
X98425600Y-84719831D01*
X98479430Y-84437946D01*
X98532411Y-84174347D01*
X98582372Y-83940919D01*
X98627145Y-83749549D01*
X98664559Y-83612121D01*
X98692446Y-83540523D01*
X98694320Y-83537838D01*
X98738016Y-83486113D01*
X98827916Y-83383942D01*
X98956534Y-83239680D01*
X99116387Y-83061681D01*
X99299992Y-82858302D01*
X99499862Y-82637896D01*
X99538527Y-82595369D01*
X100314859Y-81741835D01*
X100872226Y-81505998D01*
X101079271Y-81418686D01*
X101271342Y-81338224D01*
X101431312Y-81271749D01*
X101542050Y-81226398D01*
X101568934Y-81215690D01*
X101650262Y-81178171D01*
X101783830Y-81110474D01*
X101952662Y-81021777D01*
X102139782Y-80921259D01*
X102328215Y-80818101D01*
X102500984Y-80721481D01*
X102641113Y-80640579D01*
X102709571Y-80598925D01*
X102736083Y-80579408D01*
X102750195Y-80554628D01*
X102747866Y-80515647D01*
X102725053Y-80453526D01*
X102677715Y-80359327D01*
X102601810Y-80224113D01*
X102493296Y-80038944D01*
X102348130Y-79794882D01*
X102339223Y-79779943D01*
X102118521Y-79399293D01*
X101940269Y-79067609D01*
X101797543Y-78771394D01*
X101689976Y-78514241D01*
X101583564Y-78232879D01*
X101503596Y-78002919D01*
X101445147Y-77802580D01*
X101403296Y-77610078D01*
X101373118Y-77403631D01*
X101349693Y-77161457D01*
X101333008Y-76934731D01*
X101289256Y-76294101D01*
X101692990Y-74645111D01*
X102169725Y-73953743D01*
X102646459Y-73262375D01*
X103192571Y-72842640D01*
X103417645Y-72672663D01*
X103602851Y-72541609D01*
X103769016Y-72436865D01*
X103936964Y-72345813D01*
X104127521Y-72255838D01*
X104250263Y-72201915D01*
X104509062Y-72080229D01*
X104830236Y-71911944D01*
X105212224Y-71697921D01*
X105653467Y-71439021D01*
X105882552Y-71301063D01*
X106153252Y-71136457D01*
X106402678Y-70984038D01*
X106622515Y-70848945D01*
X106804449Y-70736319D01*
X106940162Y-70651299D01*
X107021341Y-70599024D01*
X107040819Y-70585144D01*
X107042230Y-70532981D01*
X106984394Y-70449234D01*
X106975295Y-70439338D01*
X106922862Y-70372093D01*
X106837322Y-70249186D01*
X106726895Y-70083014D01*
X106599801Y-69885976D01*
X106464260Y-69670467D01*
X106446119Y-69641210D01*
X106219015Y-69261156D01*
X106031150Y-68915571D01*
X105869246Y-68579079D01*
X105769200Y-68347323D01*
X105679695Y-68129627D01*
X105612919Y-67958395D01*
X105563755Y-67813540D01*
X105527085Y-67674976D01*
X105497790Y-67522617D01*
X105470753Y-67336376D01*
X105440856Y-67096169D01*
X105432319Y-67025204D01*
X105346265Y-66308590D01*
X105523408Y-65462073D01*
X105700552Y-64615556D01*
X106073223Y-64038801D01*
X106246106Y-63772224D01*
X106386342Y-63560844D01*
X106504222Y-63392805D01*
X106610036Y-63256248D01*
X106714074Y-63139316D01*
X106826626Y-63030152D01*
X106957984Y-62916898D01*
X107118436Y-62787697D01*
X107246151Y-62687239D01*
X107462663Y-62519722D01*
X107637509Y-62391637D01*
X107789987Y-62291200D01*
X107939395Y-62206626D01*
X108105033Y-62126131D01*
X108306199Y-62037931D01*
X108317053Y-62033313D01*
X108560898Y-61923461D01*
X108857234Y-61779885D01*
X109194725Y-61608869D01*
X109562036Y-61416697D01*
X109947829Y-61209652D01*
X110340767Y-60994019D01*
X110729515Y-60776080D01*
X111102735Y-60562121D01*
X111449091Y-60358425D01*
X111757246Y-60171275D01*
X112015864Y-60006956D01*
X112203413Y-59879111D01*
X112391233Y-59743772D01*
X112557633Y-59623233D01*
X112691364Y-59525692D01*
X112781178Y-59459349D01*
X112814591Y-59433607D01*
X112799548Y-59395576D01*
X112731474Y-59307853D01*
X112615014Y-59175638D01*
X112454814Y-59004134D01*
X112255519Y-58798542D01*
X112171620Y-58713685D01*
X111490045Y-58027712D01*
X111008330Y-57007209D01*
X110526615Y-55986705D01*
X110526615Y-53767893D01*
X110771047Y-53034538D01*
X111015480Y-52301183D01*
X112354798Y-50542351D01*
X114328652Y-49502353D01*
X115558958Y-49316597D01*
X115861683Y-49270607D01*
X116137908Y-49228098D01*
X116378116Y-49190578D01*
X116572788Y-49159555D01*
X116712407Y-49136536D01*
X116787454Y-49123030D01*
X116797771Y-49120343D01*
X116815938Y-49083435D01*
X116863311Y-48984245D01*
X116935268Y-48832571D01*
X117027191Y-48638213D01*
X117134459Y-48410969D01*
X117252454Y-48160640D01*
X117376554Y-47897024D01*
X117502141Y-47629921D01*
X117624594Y-47369130D01*
X117739294Y-47124450D01*
X117816240Y-46960000D01*
X117860853Y-46875774D01*
X117921783Y-46783521D01*
X118005823Y-46675388D01*
X118119764Y-46543525D01*
X118270398Y-46380079D01*
X118464517Y-46177199D01*
X118708912Y-45927034D01*
X118716049Y-45919777D01*
X119504201Y-45118424D01*
X120559216Y-44715265D01*
X121614232Y-44312105D01*
X122501701Y-44312307D01*
G37*
X122501701Y-44312307D02*
X123389170Y-44312508D01*
X125500968Y-45128652D01*
X126285015Y-45924891D01*
X127069063Y-46721129D01*
X127625102Y-47908699D01*
X127759549Y-48194438D01*
X127884192Y-48456645D01*
X127994834Y-48686701D01*
X128087280Y-48875990D01*
X128157334Y-49015893D01*
X128200800Y-49097793D01*
X128212814Y-49115845D01*
X128258716Y-49126421D01*
X128373515Y-49146995D01*
X128547335Y-49175966D01*
X128770298Y-49211736D01*
X129032528Y-49252705D01*
X129324147Y-49297271D01*
X129448011Y-49315927D01*
X130651536Y-49496433D01*
X132642132Y-50543073D01*
X133974744Y-52294797D01*
X134453574Y-53728081D01*
X134453574Y-56019849D01*
X133987282Y-57003875D01*
X133520991Y-57987900D01*
X132850700Y-58678780D01*
X132664675Y-58872726D01*
X132499619Y-59049050D01*
X132362975Y-59199451D01*
X132262188Y-59315623D01*
X132204701Y-59389265D01*
X132194210Y-59411064D01*
X132229572Y-59446465D01*
X132319476Y-59519728D01*
X132453431Y-59622774D01*
X132620945Y-59747528D01*
X132803285Y-59879993D01*
X133021077Y-60028300D01*
X133298852Y-60204725D01*
X133624900Y-60402747D01*
X133987510Y-60615846D01*
X134374970Y-60837502D01*
X134775569Y-61061194D01*
X135177596Y-61280402D01*
X135569340Y-61488605D01*
X135939090Y-61679284D01*
X136275134Y-61845918D01*
X136565762Y-61981986D01*
X136629195Y-62010132D01*
X136852631Y-62110468D01*
X137035488Y-62200357D01*
X137198427Y-62292280D01*
X137362109Y-62398714D01*
X137547193Y-62532140D01*
X137755069Y-62690178D01*
X138317704Y-63123637D01*
X138808757Y-63880063D01*
X139299809Y-64636489D01*
X139471628Y-65472540D01*
X139643447Y-66308590D01*
X139557902Y-67025204D01*
X139523647Y-67297706D01*
X139489693Y-67521406D01*
X139450649Y-67715371D01*
X139401127Y-67898669D01*
X139335738Y-68090368D01*
X139249091Y-68309536D01*
X139135797Y-68575241D01*
X139090415Y-68679191D01*
X139032420Y-68796399D01*
X138939789Y-68965932D01*
X138821249Y-69173333D01*
X138685523Y-69404142D01*
X138541336Y-69643903D01*
X138397414Y-69878158D01*
X138262481Y-70092450D01*
X138145263Y-70272320D01*
X138054483Y-70403311D01*
X138031832Y-70433325D01*
X137919628Y-70576870D01*
X139102824Y-71291673D01*
X139529694Y-71546212D01*
X139909875Y-71766010D01*
X140238775Y-71948525D01*
X140511803Y-72091215D01*
X140724366Y-72191541D01*
X140743856Y-72199880D01*
X140937095Y-72285474D01*
X141107861Y-72371833D01*
X141275145Y-72470473D01*
X141457943Y-72592911D01*
X141675245Y-72750665D01*
X141773166Y-72824037D01*
X142344639Y-73254789D01*
X142801615Y-73920943D01*
X142942314Y-74126747D01*
X143068636Y-74312843D01*
X143173215Y-74468274D01*
X143248687Y-74582085D01*
X143287688Y-74643319D01*
X143290313Y-74648000D01*
X143308914Y-74703926D01*
X143342435Y-74824693D01*
X143387582Y-74997629D01*
X143441063Y-75210062D01*
X143499583Y-75449319D01*
X143512308Y-75502218D01*
X143702580Y-76295532D01*
X143654673Y-76955352D01*
X143625785Y-77288815D01*
X143588552Y-77570734D01*
X143537047Y-77826253D01*
X143465342Y-78080513D01*
X143367512Y-78358656D01*
X143259081Y-78633385D01*
X143199948Y-78763987D01*
X143111085Y-78941832D01*
X142999945Y-79153650D01*
X142873980Y-79386168D01*
X142740645Y-79626116D01*
X142607392Y-79860222D01*
X142481676Y-80075215D01*
X142370949Y-80257824D01*
X142282666Y-80394778D01*
X142228978Y-80467549D01*
X142213097Y-80495858D01*
X142221759Y-80527183D01*
X142263861Y-80568370D01*
X142348299Y-80626267D01*
X142483970Y-80707720D01*
X142679772Y-80819576D01*
X142704689Y-80833650D01*
X142982837Y-80981763D01*
X143314885Y-81144146D01*
X143678887Y-81310850D01*
X144052891Y-81471922D01*
X144414951Y-81617413D01*
X144528120Y-81660329D01*
X144582702Y-81700335D01*
X144685171Y-81795435D01*
X144830960Y-81940819D01*
X145015502Y-82131677D01*
X145234230Y-82363197D01*
X145482578Y-82630571D01*
X145755980Y-82928986D01*
X146049868Y-83253634D01*
X146208812Y-83430709D01*
X146250276Y-83478164D01*
X146284668Y-83524323D01*
X146314548Y-83578560D01*
X146342475Y-83650248D01*
X146371008Y-83748761D01*
X146402705Y-83883473D01*
X146440127Y-84063758D01*
X146485833Y-84298990D01*
X146542380Y-84598543D01*
X146574649Y-84770721D01*
X146630374Y-85071936D01*
X146680912Y-85352270D01*
X146724418Y-85600924D01*
X146759050Y-85807101D01*
X146782965Y-85960000D01*
X146794319Y-86048824D01*
X146795000Y-86061611D01*
X146785124Y-86136263D01*
X146757907Y-86272816D01*
X146716691Y-86456279D01*
X146664817Y-86671662D01*
X146616524Y-86862153D01*
X146473108Y-87357551D01*
X146298028Y-87867440D01*
X146100018Y-88370109D01*
X145887811Y-88843849D01*
X145670138Y-89266953D01*
X145599791Y-89389738D01*
X145498268Y-89565160D01*
X145413401Y-89718295D01*
X145352697Y-89835100D01*
X145323662Y-89901534D01*
X145322226Y-89908943D01*
X145349305Y-89950552D01*
X145424944Y-90038745D01*
X145540748Y-90164463D01*
X145688319Y-90318651D01*
X145859262Y-90492251D01*
X145909452Y-90542388D01*
X146048844Y-90680134D01*
X146176662Y-90803331D01*
X146300482Y-90917999D01*
X146427881Y-91030157D01*
X146566437Y-91145826D01*
X146723728Y-91271026D01*
X146907329Y-91411776D01*
X147124818Y-91574098D01*
X147383774Y-91764010D01*
X147691772Y-91987532D01*
X148056390Y-92250685D01*
X148091432Y-92275936D01*
X148490297Y-92562424D01*
X148833643Y-92806827D01*
X149129768Y-93014677D01*
X149386970Y-93191505D01*
X149613546Y-93342844D01*
X149817794Y-93474227D01*
X150008011Y-93591185D01*
X150192496Y-93699250D01*
X150379545Y-93803955D01*
X150400523Y-93815445D01*
X151114859Y-94205934D01*
X151552790Y-94765499D01*
X151721444Y-94980866D01*
X151898413Y-95206629D01*
X152067503Y-95422143D01*
X152212519Y-95606762D01*
X152275300Y-95686576D01*
X152559879Y-96048088D01*
X152730948Y-97194871D01*
X152902017Y-98341653D01*
X152690103Y-99225278D01*
X152478190Y-100108903D01*
X151887984Y-101283355D01*
X151297779Y-102457806D01*
X150227371Y-103632257D01*
X149950306Y-103935453D01*
X149720111Y-104185198D01*
X149530718Y-104387516D01*
X149376058Y-104548433D01*
X149250063Y-104673972D01*
X149146664Y-104770158D01*
X149059791Y-104843016D01*
X148983376Y-104898571D01*
X148911351Y-104942846D01*
X148901742Y-104948227D01*
X148804235Y-105002391D01*
X148647818Y-105089396D01*
X148443132Y-105203318D01*
X148200818Y-105338235D01*
X147931517Y-105488221D01*
X147645868Y-105647352D01*
X147491975Y-105733101D01*
X146337430Y-106376457D01*
X145086343Y-106676458D01*
X143835256Y-106976458D01*
X142965587Y-106976458D01*
X142702290Y-106976061D01*
X142486673Y-106973842D01*
X142302451Y-106968260D01*
X142133336Y-106957772D01*
X141963045Y-106940838D01*
X141775291Y-106915914D01*
X141553788Y-106881459D01*
X141282250Y-106835932D01*
X141038340Y-106794003D01*
X140758816Y-106746321D01*
X140506158Y-106704262D01*
X140290622Y-106669448D01*
X140122464Y-106643503D01*
X140011941Y-106628049D01*
X139969308Y-106624710D01*
X139969195Y-106624802D01*
X139949227Y-106662709D01*
X139899124Y-106762391D01*
X139823723Y-106914089D01*
X139727862Y-107108046D01*
X139616378Y-107334504D01*
X139518550Y-107533825D01*
X139256922Y-108048843D01*
X139012937Y-108490078D01*
X138784690Y-108860931D01*
X138727260Y-108946874D01*
X138606315Y-109122968D01*
X138505445Y-109262979D01*
X138412168Y-109379939D01*
X138314005Y-109486880D01*
X138198473Y-109596833D01*
X138053092Y-109722830D01*
X137865380Y-109877902D01*
X137730184Y-109987934D01*
X137085320Y-110511713D01*
X136281502Y-110779635D01*
X135477684Y-111047558D01*
X134637181Y-111027535D01*
X134366279Y-111020340D01*
X134142942Y-111011707D01*
X133948911Y-110999569D01*
X133765931Y-110981859D01*
X133575746Y-110956510D01*
X133360100Y-110921455D01*
X133100736Y-110874627D01*
X132821285Y-110821934D01*
X132540540Y-110767881D01*
X132304242Y-110720117D01*
X132097393Y-110674453D01*
X131904991Y-110626698D01*
X131712034Y-110572661D01*
X131503523Y-110508153D01*
X131264456Y-110428983D01*
X130979833Y-110330960D01*
X130651536Y-110215841D01*
X130313398Y-110094753D01*
X129998592Y-109978099D01*
X129717548Y-109869980D01*
X129480694Y-109774496D01*
X129298459Y-109695749D01*
X129181273Y-109637839D01*
X129180308Y-109637290D01*
X128903438Y-109479255D01*
X128764321Y-109646734D01*
X128698664Y-109714487D01*
X128580484Y-109824830D01*
X128418792Y-109969817D01*
X128222598Y-110141505D01*
X128000913Y-110331949D01*
X127762748Y-110533205D01*
X127687586Y-110596041D01*
X127387228Y-110844700D01*
X127132177Y-111051042D01*
X126908142Y-111225556D01*
X126700837Y-111378731D01*
X126495970Y-111521055D01*
X126279255Y-111663018D01*
X126036402Y-111815107D01*
X125977646Y-111851213D01*
X125695790Y-112018790D01*
X125379505Y-112198268D01*
X125054255Y-112375745D01*
X124745504Y-112537321D01*
X124484699Y-112666260D01*
X123764075Y-113007963D01*
X121295737Y-113027009D01*
X120539311Y-112675488D01*
X120038881Y-112428895D01*
X119514843Y-112144985D01*
X119000703Y-111841922D01*
X118994708Y-111838229D01*
X118748092Y-111684370D01*
X118531925Y-111544409D01*
X118332571Y-111408264D01*
X118136393Y-111265854D01*
X117929753Y-111107097D01*
X117699014Y-110921913D01*
X117430540Y-110700218D01*
X117242984Y-110543227D01*
X117001627Y-110338987D01*
X116776499Y-110145575D01*
X116575883Y-109970333D01*
X116408061Y-109820600D01*
X116281315Y-109703718D01*
X116203928Y-109627028D01*
X116187549Y-109607772D01*
X116095661Y-109481582D01*
X115807885Y-109640438D01*
X115696958Y-109694119D01*
X115522949Y-109768813D01*
X115298095Y-109859709D01*
X115034635Y-109961992D01*
X114744805Y-110070853D01*
X114440842Y-110181478D01*
X114347107Y-110214864D01*
X114007511Y-110334620D01*
X113727403Y-110431437D01*
X113491455Y-110509616D01*
X113284337Y-110573462D01*
X113090721Y-110627277D01*
X112895277Y-110675364D01*
X112682674Y-110722026D01*
X112437585Y-110771565D01*
X112198715Y-110817911D01*
X111883056Y-110877862D01*
X111627287Y-110923960D01*
X111413295Y-110958334D01*
X111222967Y-110983111D01*
X111038189Y-111000422D01*
X110840847Y-111012395D01*
X110612830Y-111021159D01*
X110423406Y-111026573D01*
X109623489Y-111047759D01*
X108788213Y-110798616D01*
X107952936Y-110549474D01*
X107267944Y-109990918D01*
X106582951Y-109432362D01*
X106211517Y-108871254D01*
X105994720Y-108523603D01*
X105765191Y-108118412D01*
X105533308Y-107674337D01*
X105435908Y-107477000D01*
X105320699Y-107240158D01*
X105217014Y-107028231D01*
X105129887Y-106851410D01*
X105064354Y-106719887D01*
X105025449Y-106643852D01*
X105017022Y-106629143D01*
X104975492Y-106631727D01*
X104865867Y-106646486D01*
X104698475Y-106671809D01*
X104483640Y-106706085D01*
X104231691Y-106747705D01*
X103952954Y-106795057D01*
X103950696Y-106795445D01*
X103631856Y-106849980D01*
X103375060Y-106892294D01*
X103163926Y-106923937D01*
X102982074Y-106946458D01*
X102813124Y-106961406D01*
X102640694Y-106970330D01*
X102448404Y-106974780D01*
X102219874Y-106976303D01*
X102036559Y-106976458D01*
X101174036Y-106976458D01*
X99908398Y-106674055D01*
X98642759Y-106371652D01*
X97229436Y-105580005D01*
X95816113Y-104788357D01*
X94728454Y-103590991D01*
X93640796Y-102393624D01*
X93069883Y-101223213D01*
X92498969Y-100052801D01*
X92292715Y-99200613D01*
X92086460Y-98348425D01*
X92148586Y-97939154D01*
X96098071Y-97939154D01*
X96110304Y-98139459D01*
X96146606Y-98337942D01*
X96213364Y-98567501D01*
X96229310Y-98615257D01*
X96494652Y-99279419D01*
X96823470Y-99900084D01*
X97211330Y-100473911D01*
X97653797Y-100997556D01*
X98146434Y-101467680D01*
X98684807Y-101880940D01*
X99264480Y-102233994D01*
X99881018Y-102523502D01*
X100529985Y-102746120D01*
X101206946Y-102898508D01*
X101907465Y-102977325D01*
X102026771Y-102983096D01*
X102743702Y-102974150D01*
X103476883Y-102894278D01*
X104213789Y-102746795D01*
X104941895Y-102535018D01*
X105648677Y-102262263D01*
X106321610Y-101931845D01*
X106597215Y-101773003D01*
X106730038Y-101701771D01*
X106838358Y-101660385D01*
X106895804Y-101655321D01*
X106963145Y-101678674D01*
X107082853Y-101721567D01*
X107232593Y-101775976D01*
X107281729Y-101793968D01*
X107600009Y-101910728D01*
X107706728Y-102383326D01*
X107966620Y-103356120D01*
X108303040Y-104315152D01*
X108713173Y-105253314D01*
X109194202Y-106163496D01*
X109226030Y-106218389D01*
X109389553Y-106482958D01*
X109536804Y-106682913D01*
X109678029Y-106828715D01*
X109823474Y-106930828D01*
X109983384Y-106999716D01*
X109994683Y-107003343D01*
X110096005Y-107031974D01*
X110191326Y-107048252D01*
X110300746Y-107052747D01*
X110444366Y-107046029D01*
X110642283Y-107028667D01*
X110697340Y-107023253D01*
X111548147Y-106900339D01*
X112391165Y-106703421D01*
X113218141Y-106436159D01*
X114020820Y-106102213D01*
X114790950Y-105705243D01*
X115520277Y-105248908D01*
X116200548Y-104736868D01*
X116561578Y-104422960D01*
X116700996Y-104295467D01*
X116826683Y-104181110D01*
X116921976Y-104095018D01*
X116961436Y-104059883D01*
X117046256Y-103985621D01*
X117273651Y-104416071D01*
X117726003Y-105189939D01*
X118240374Y-105919027D01*
X118812368Y-106598999D01*
X119437588Y-107225516D01*
X120111636Y-107794243D01*
X120830116Y-108300840D01*
X121588631Y-108740972D01*
X121732494Y-108814514D01*
X121944617Y-108920092D01*
X122101122Y-108994718D01*
X122217452Y-109043358D01*
X122309051Y-109070978D01*
X122391361Y-109082544D01*
X122479828Y-109083022D01*
X122555883Y-109079296D01*
X122675260Y-109068706D01*
X122784110Y-109047293D01*
X122901038Y-109008544D01*
X123044651Y-108945943D01*
X123233552Y-108852977D01*
X123302219Y-108817997D01*
X124077442Y-108377558D01*
X124810540Y-107872816D01*
X125496759Y-107308454D01*
X126131347Y-106689157D01*
X126709549Y-106019610D01*
X127226614Y-105304496D01*
X127677788Y-104548501D01*
X127725652Y-104458355D01*
X127818262Y-104285529D01*
X127899247Y-104141527D01*
X127960968Y-104039417D01*
X127995788Y-103992265D01*
X127999085Y-103990565D01*
X128039333Y-104017053D01*
X128116543Y-104086177D01*
X128204767Y-104173608D01*
X128461833Y-104419898D01*
X128773188Y-104687488D01*
X129121488Y-104962912D01*
X129489389Y-105232708D01*
X129859546Y-105483411D01*
X130034452Y-105593950D01*
X130258418Y-105722866D01*
X130536039Y-105868848D01*
X130846094Y-106021872D01*
X131167362Y-106171912D01*
X131478625Y-106308944D01*
X131758663Y-106422943D01*
X131898763Y-106474681D01*
X132522569Y-106671791D01*
X133162212Y-106833688D01*
X133793496Y-106955091D01*
X134392226Y-107030717D01*
X134478716Y-107037862D01*
X134744164Y-107046474D01*
X134965452Y-107022852D01*
X135154510Y-106959568D01*
X135323264Y-106849191D01*
X135483643Y-106684293D01*
X135647576Y-106457445D01*
X135793661Y-106218888D01*
X136208985Y-105457067D01*
X136562489Y-104698925D01*
X136866094Y-103918104D01*
X136963538Y-103632257D01*
X137035111Y-103410213D01*
X137098998Y-103200070D01*
X137159747Y-102984906D01*
X137221905Y-102747797D01*
X137290021Y-102471821D01*
X137368640Y-102140055D01*
X137395576Y-102024438D01*
X137420909Y-101958063D01*
X137472591Y-101907811D01*
X137569118Y-101860330D01*
X137679687Y-101819340D01*
X137832811Y-101764638D01*
X137973852Y-101712513D01*
X138060570Y-101678900D01*
X138131944Y-101655549D01*
X138196184Y-101656829D01*
X138276805Y-101688733D01*
X138397318Y-101757251D01*
X138418877Y-101770206D01*
X139089671Y-102132330D01*
X139796771Y-102434725D01*
X140528804Y-102674392D01*
X141274399Y-102848334D01*
X142022185Y-102953553D01*
X142760790Y-102987051D01*
X143013135Y-102981354D01*
X143655814Y-102926660D01*
X144260140Y-102813759D01*
X144847148Y-102637488D01*
X145437870Y-102392680D01*
X145467837Y-102378568D01*
X146090543Y-102040464D01*
X146666503Y-101639590D01*
X147192007Y-101180169D01*
X147663347Y-100666420D01*
X148076814Y-100102567D01*
X148428697Y-99492829D01*
X148715290Y-98841428D01*
X148808844Y-98576145D01*
X148895935Y-98240306D01*
X148928781Y-97933164D01*
X148907310Y-97664108D01*
X148831451Y-97442529D01*
X148817694Y-97417876D01*
X148739800Y-97301272D01*
X148646816Y-97199415D01*
X148524327Y-97100713D01*
X148357912Y-96993573D01*
X148133155Y-96866402D01*
X148128966Y-96864120D01*
X147267571Y-96365515D01*
X146392756Y-95802887D01*
X145518349Y-95187027D01*
X144658183Y-94528728D01*
X143826087Y-93838780D01*
X143035891Y-93127976D01*
X142301426Y-92407108D01*
X141971938Y-92059819D01*
X141716189Y-91780000D01*
X141457224Y-91490335D01*
X141202057Y-91199171D01*
X140957700Y-90914855D01*
X140731164Y-90645733D01*
X140529463Y-90400152D01*
X140359608Y-90186461D01*
X140228611Y-90013004D01*
X140143486Y-89888130D01*
X140133750Y-89871760D01*
X140150045Y-89825753D01*
X140221658Y-89748822D01*
X140336197Y-89654008D01*
X140830138Y-89235578D01*
X141293755Y-88752402D01*
X141718697Y-88216267D01*
X142096612Y-87638961D01*
X142419150Y-87032271D01*
X142677959Y-86407983D01*
X142717796Y-86292670D01*
X142798946Y-86020935D01*
X142839563Y-85799347D01*
X142839530Y-85609448D01*
X142798729Y-85432780D01*
X142717043Y-85250886D01*
X142711093Y-85239870D01*
X142597809Y-85069705D01*
X142454979Y-84933419D01*
X142265312Y-84817568D01*
X142043839Y-84721038D01*
X141164476Y-84344320D01*
X140285234Y-83895704D01*
X139417219Y-83382154D01*
X138571539Y-82810635D01*
X137759300Y-82188111D01*
X137101066Y-81621866D01*
X136922587Y-81456321D01*
X136735740Y-81276930D01*
X136548858Y-81092371D01*
X136370274Y-80911323D01*
X136208321Y-80742464D01*
X136071333Y-80594472D01*
X135967642Y-80476026D01*
X135905581Y-80395803D01*
X135892452Y-80363181D01*
X135935126Y-80343392D01*
X136035656Y-80304323D01*
X136176611Y-80252615D01*
X136266444Y-80220704D01*
X136868586Y-79969212D01*
X137439208Y-79651435D01*
X137971329Y-79273714D01*
X138457967Y-78842389D01*
X138892141Y-78363799D01*
X139266870Y-77844284D01*
X139575173Y-77290186D01*
X139634277Y-77162283D01*
X139745609Y-76854093D01*
X139788040Y-76578135D01*
X139761128Y-76325976D01*
X139664431Y-76089185D01*
X139570498Y-75948045D01*
X139523488Y-75895792D01*
X139456548Y-75840482D01*
X139360860Y-75777023D01*
X139227608Y-75700326D01*
X139047975Y-75605298D01*
X138813146Y-75486849D01*
X138533425Y-75349224D01*
X137676564Y-74913520D01*
X136884341Y-74473068D01*
X136141950Y-74017758D01*
X135434586Y-73537481D01*
X134747442Y-73022127D01*
X134065713Y-72461586D01*
X133374595Y-71845749D01*
X133296027Y-71772955D01*
X133113729Y-71599635D01*
X132919189Y-71408088D01*
X132720389Y-71206868D01*
X132525307Y-71004530D01*
X132341923Y-70809626D01*
X132178216Y-70630709D01*
X132042167Y-70476334D01*
X131941754Y-70355052D01*
X131884958Y-70275419D01*
X131875220Y-70249969D01*
X131912547Y-70218885D01*
X132007576Y-70169276D01*
X132143129Y-70109685D01*
X132214704Y-70081140D01*
X132850826Y-69794568D01*
X133444723Y-69444716D01*
X133991575Y-69035974D01*
X134486560Y-68572729D01*
X134924860Y-68059368D01*
X135301654Y-67500281D01*
X135541430Y-67052672D01*
X135622201Y-66877455D01*
X135671859Y-66744654D01*
X135697682Y-66626924D01*
X135706945Y-66496923D01*
X135707649Y-66428025D01*
X135694108Y-66213025D01*
X135648274Y-66030626D01*
X135562333Y-65871991D01*
X135428470Y-65728285D01*
X135238868Y-65590670D01*
X134985714Y-65450312D01*
X134739542Y-65333440D01*
X133402157Y-64685945D01*
X132103151Y-63972028D01*
X130848957Y-63195423D01*
X129782386Y-62459446D01*
X129577419Y-62307595D01*
X129338885Y-62125760D01*
X129081143Y-61925359D01*
X128818554Y-61717816D01*
X128565478Y-61514549D01*
X128336275Y-61326980D01*
X128145306Y-61166529D01*
X128031342Y-61066841D01*
X127839675Y-60894170D01*
X127663082Y-59806074D01*
X127616857Y-59519239D01*
X127575150Y-59256575D01*
X127539613Y-59028794D01*
X127511897Y-58846606D01*
X127493652Y-58720723D01*
X127486529Y-58661857D01*
X127486489Y-58660383D01*
X127513597Y-58621440D01*
X127591387Y-58531506D01*
X127714556Y-58396208D01*
X127877805Y-58221176D01*
X128075831Y-58012037D01*
X128303334Y-57774421D01*
X128555011Y-57513956D01*
X128825561Y-57236269D01*
X128885238Y-57175315D01*
X129163842Y-56889924D01*
X129428575Y-56616701D01*
X129673540Y-56361872D01*
X129892838Y-56131667D01*
X130080573Y-55932315D01*
X130230848Y-55770044D01*
X130337764Y-55651083D01*
X130395424Y-55581661D01*
X130399201Y-55576293D01*
X130530823Y-55327358D01*
X130605447Y-55050721D01*
X130626718Y-54730956D01*
X130623415Y-54627706D01*
X130577279Y-54293160D01*
X130471081Y-54002336D01*
X130298070Y-53739815D01*
X130176239Y-53606144D01*
X130094481Y-53525978D01*
X130017148Y-53456839D01*
X129937173Y-53396793D01*
X129847492Y-53343904D01*
X129741039Y-53296240D01*
X129610751Y-53251864D01*
X129449561Y-53208843D01*
X129250404Y-53165242D01*
X129006217Y-53119127D01*
X128709933Y-53068564D01*
X128354487Y-53011617D01*
X127932816Y-52946353D01*
X127557018Y-52888981D01*
X127172493Y-52830273D01*
X126812671Y-52775055D01*
X126485067Y-52724500D01*
X126197193Y-52679780D01*
X125956565Y-52642069D01*
X125770695Y-52612540D01*
X125647098Y-52592365D01*
X125593286Y-52582717D01*
X125591571Y-52582171D01*
X125573598Y-52545543D01*
X125524970Y-52443623D01*
X125448888Y-52283187D01*
X125348552Y-52071011D01*
X125227163Y-51813871D01*
X125087922Y-51518544D01*
X124934028Y-51191805D01*
X124768682Y-50840430D01*
X124713917Y-50723982D01*
X124516117Y-50304053D01*
X124348344Y-49949864D01*
X124207204Y-49654882D01*
X124089302Y-49412576D01*
X123991245Y-49216415D01*
X123909639Y-49059866D01*
X123841092Y-48936399D01*
X123782208Y-48839481D01*
X123729595Y-48762581D01*
X123679858Y-48699167D01*
X123636225Y-48649819D01*
X123382448Y-48430801D01*
X123095042Y-48277176D01*
X122785682Y-48188861D01*
X122466047Y-48165772D01*
X122147814Y-48207826D01*
X121842660Y-48314940D01*
X121562263Y-48487029D01*
X121368525Y-48666011D01*
X121320423Y-48723068D01*
X121269435Y-48793571D01*
X121212299Y-48883859D01*
X121145752Y-49000274D01*
X121066534Y-49149154D01*
X120971381Y-49336838D01*
X120857032Y-49569665D01*
X120720225Y-49853977D01*
X120557698Y-50196111D01*
X120366188Y-50602408D01*
X120303763Y-50735271D01*
X120135335Y-51093670D01*
X119977347Y-51429326D01*
X119832978Y-51735517D01*
X119705411Y-52005520D01*
X119597826Y-52232614D01*
X119513405Y-52410076D01*
X119455329Y-52531185D01*
X119426781Y-52589218D01*
X119424363Y-52593386D01*
X119361106Y-52599736D01*
X119228954Y-52617770D01*
X119037315Y-52645959D01*
X118795595Y-52682776D01*
X118513203Y-52726696D01*
X118199545Y-52776189D01*
X117864029Y-52829731D01*
X117516063Y-52885793D01*
X117165054Y-52942848D01*
X116820409Y-52999370D01*
X116491536Y-53053831D01*
X116187843Y-53104705D01*
X115918736Y-53150463D01*
X115693623Y-53189580D01*
X115521912Y-53220528D01*
X115413010Y-53241780D01*
X115379490Y-53249964D01*
X115109634Y-53383849D01*
X114869007Y-53581427D01*
X114667436Y-53829168D01*
X114514744Y-54113541D01*
X114420758Y-54421017D01*
X114397135Y-54602739D01*
X114406319Y-54941836D01*
X114475189Y-55258799D01*
X114599476Y-55535413D01*
X114625425Y-55576536D01*
X114675220Y-55638221D01*
X114775116Y-55750301D01*
X114919225Y-55906558D01*
X115101660Y-56100769D01*
X115316535Y-56326715D01*
X115557963Y-56578176D01*
X115820056Y-56848931D01*
X116096928Y-57132761D01*
X116135644Y-57172278D01*
X116497752Y-57543345D01*
X116806877Y-57863659D01*
X117062318Y-58132466D01*
X117263378Y-58349011D01*
X117409355Y-58512541D01*
X117499553Y-58622301D01*
X117533271Y-58677538D01*
X117533511Y-58679848D01*
X117527360Y-58736395D01*
X117510277Y-58858539D01*
X117484317Y-59033317D01*
X117451538Y-59247769D01*
X117413995Y-59488933D01*
X117373745Y-59743849D01*
X117332842Y-59999553D01*
X117293343Y-60243086D01*
X117257305Y-60461486D01*
X117226783Y-60641792D01*
X117203833Y-60771042D01*
X117193315Y-60824472D01*
X117152632Y-60889599D01*
X117054085Y-60995240D01*
X116904677Y-61135738D01*
X116711414Y-61305435D01*
X116481302Y-61498673D01*
X116221345Y-61709796D01*
X115938547Y-61933144D01*
X115639915Y-62163062D01*
X115332454Y-62393890D01*
X115023167Y-62619973D01*
X114719061Y-62835651D01*
X114607336Y-62913004D01*
X113729265Y-63488391D01*
X112792677Y-64049524D01*
X111818636Y-64584629D01*
X110828209Y-65081933D01*
X110228863Y-65359963D01*
X109925227Y-65508337D01*
X109692421Y-65652662D01*
X109522731Y-65801967D01*
X109408443Y-65965277D01*
X109341845Y-66151622D01*
X109315222Y-66370027D01*
X109313908Y-66430770D01*
X109316787Y-66572688D01*
X109332036Y-66687910D01*
X109366853Y-66803010D01*
X109428432Y-66944559D01*
X109484004Y-67058865D01*
X109825606Y-67660220D01*
X110230743Y-68216725D01*
X110694159Y-68723622D01*
X111210594Y-69176154D01*
X111774790Y-69569561D01*
X112381491Y-69899086D01*
X112835706Y-70091864D01*
X112979360Y-70147688D01*
X113093520Y-70194965D01*
X113158059Y-70225276D01*
X113164049Y-70229189D01*
X113149306Y-70265944D01*
X113085791Y-70350531D01*
X112981238Y-70474680D01*
X112843380Y-70630124D01*
X112679950Y-70808593D01*
X112498682Y-71001820D01*
X112307309Y-71201535D01*
X112113564Y-71399471D01*
X111925180Y-71587359D01*
X111749890Y-71756931D01*
X111634941Y-71864126D01*
X110763848Y-72624412D01*
X109890210Y-73313656D01*
X109002067Y-73939882D01*
X108087459Y-74511112D01*
X107134429Y-75035370D01*
X106300453Y-75442995D01*
X106058386Y-75557336D01*
X105875971Y-75649698D01*
X105739255Y-75728468D01*
X105634283Y-75802033D01*
X105547101Y-75878778D01*
X105506682Y-75920050D01*
X105362743Y-76105858D01*
X105272824Y-76304870D01*
X105237912Y-76522680D01*
X105258993Y-76764882D01*
X105337055Y-77037070D01*
X105473083Y-77344839D01*
X105668066Y-77693781D01*
X105877411Y-78021725D01*
X106128945Y-78361098D01*
X106430896Y-78707886D01*
X106761221Y-79039364D01*
X107097876Y-79332807D01*
X107291536Y-79479598D01*
X107583606Y-79670048D01*
X107916227Y-79858848D01*
X108262159Y-80032071D01*
X108594161Y-80175790D01*
X108796760Y-80249135D01*
X108946100Y-80300398D01*
X109061412Y-80344983D01*
X109125574Y-80376036D01*
X109133198Y-80383834D01*
X109105913Y-80426385D01*
X109030067Y-80514801D01*
X108914674Y-80639946D01*
X108768748Y-80792684D01*
X108601302Y-80963878D01*
X108421352Y-81144394D01*
X108237910Y-81325094D01*
X108059990Y-81496844D01*
X107896606Y-81650506D01*
X107771641Y-81763840D01*
X107295001Y-82172267D01*
X106830694Y-82540650D01*
X106345795Y-82894454D01*
X106027869Y-83112625D01*
X105557638Y-83419747D01*
X105107410Y-83693368D01*
X104656223Y-83944832D01*
X104183116Y-84185485D01*
X103667129Y-84426670D01*
X103303892Y-84586904D01*
X103013986Y-84715983D01*
X102788529Y-84826191D01*
X102616773Y-84924843D01*
X102487971Y-85019255D01*
X102391378Y-85116741D01*
X102316246Y-85224617D01*
X102285852Y-85279900D01*
X102218965Y-85443552D01*
X102186311Y-85617577D01*
X102189350Y-85812398D01*
X102229543Y-86038441D01*
X102308350Y-86306130D01*
X102427231Y-86625889D01*
X102498961Y-86800937D01*
X102787112Y-87399526D01*
X103139393Y-87981251D01*
X103545057Y-88531866D01*
X103993354Y-89037122D01*
X104473535Y-89482773D01*
X104599109Y-89584627D01*
X104731021Y-89690017D01*
X104835633Y-89776427D01*
X104899622Y-89832683D01*
X104913135Y-89847955D01*
X104889929Y-89883303D01*
X104826174Y-89969516D01*
X104730660Y-90094967D01*
X104612180Y-90248026D01*
X104564915Y-90308518D01*
X103667254Y-91390903D01*
X102710050Y-92423064D01*
X101697390Y-93401492D01*
X100633363Y-94322675D01*
X99522058Y-95183102D01*
X98367561Y-95979262D01*
X97173963Y-96707644D01*
X96997361Y-96807720D01*
X96708817Y-96977162D01*
X96486744Y-97127964D01*
X96323277Y-97270018D01*
X96210553Y-97413220D01*
X96140707Y-97567464D01*
X96105875Y-97742644D01*
X96098071Y-97939154D01*
X92148586Y-97939154D01*
X92261202Y-97197285D01*
X92435945Y-96046144D01*
X93166365Y-95121883D01*
X93896785Y-94197621D01*
X94458330Y-93893870D01*
X94640809Y-93795022D01*
X94799592Y-93708090D01*
X94942236Y-93628064D01*
X95076301Y-93549928D01*
X95209343Y-93468671D01*
X95348923Y-93379280D01*
X95502596Y-93276741D01*
X95677923Y-93156043D01*
X95882461Y-93012170D01*
X96123768Y-92840112D01*
X96409403Y-92634854D01*
X96746924Y-92391385D01*
X97008287Y-92202629D01*
X97372672Y-91939231D01*
X97679639Y-91716482D01*
X97936425Y-91528554D01*
X98150265Y-91369620D01*
X98328397Y-91233855D01*
X98478055Y-91115432D01*
X98606475Y-91008523D01*
X98720894Y-90907303D01*
X98828548Y-90805944D01*
X98936672Y-90698620D01*
X99052502Y-90579504D01*
X99148372Y-90479357D01*
X99693797Y-89907870D01*
X99405262Y-89414813D01*
X99157707Y-88951838D01*
X98918456Y-88427580D01*
X98694353Y-87860366D01*
X98492243Y-87268524D01*
X98318968Y-86670381D01*
X98207220Y-86206591D01*
X98206256Y-86129516D01*
X98219628Y-85987524D01*
X98245167Y-85792503D01*
X98280703Y-85556336D01*
X98324067Y-85290912D01*
X98373089Y-85008115D01*
X98425600Y-84719831D01*
X98479430Y-84437946D01*
X98532411Y-84174347D01*
X98582372Y-83940919D01*
X98627145Y-83749549D01*
X98664559Y-83612121D01*
X98692446Y-83540523D01*
X98694320Y-83537838D01*
X98738016Y-83486113D01*
X98827916Y-83383942D01*
X98956534Y-83239680D01*
X99116387Y-83061681D01*
X99299992Y-82858302D01*
X99499862Y-82637896D01*
X99538527Y-82595369D01*
X100314859Y-81741835D01*
X100872226Y-81505998D01*
X101079271Y-81418686D01*
X101271342Y-81338224D01*
X101431312Y-81271749D01*
X101542050Y-81226398D01*
X101568934Y-81215690D01*
X101650262Y-81178171D01*
X101783830Y-81110474D01*
X101952662Y-81021777D01*
X102139782Y-80921259D01*
X102328215Y-80818101D01*
X102500984Y-80721481D01*
X102641113Y-80640579D01*
X102709571Y-80598925D01*
X102736083Y-80579408D01*
X102750195Y-80554628D01*
X102747866Y-80515647D01*
X102725053Y-80453526D01*
X102677715Y-80359327D01*
X102601810Y-80224113D01*
X102493296Y-80038944D01*
X102348130Y-79794882D01*
X102339223Y-79779943D01*
X102118521Y-79399293D01*
X101940269Y-79067609D01*
X101797543Y-78771394D01*
X101689976Y-78514241D01*
X101583564Y-78232879D01*
X101503596Y-78002919D01*
X101445147Y-77802580D01*
X101403296Y-77610078D01*
X101373118Y-77403631D01*
X101349693Y-77161457D01*
X101333008Y-76934731D01*
X101289256Y-76294101D01*
X101692990Y-74645111D01*
X102169725Y-73953743D01*
X102646459Y-73262375D01*
X103192571Y-72842640D01*
X103417645Y-72672663D01*
X103602851Y-72541609D01*
X103769016Y-72436865D01*
X103936964Y-72345813D01*
X104127521Y-72255838D01*
X104250263Y-72201915D01*
X104509062Y-72080229D01*
X104830236Y-71911944D01*
X105212224Y-71697921D01*
X105653467Y-71439021D01*
X105882552Y-71301063D01*
X106153252Y-71136457D01*
X106402678Y-70984038D01*
X106622515Y-70848945D01*
X106804449Y-70736319D01*
X106940162Y-70651299D01*
X107021341Y-70599024D01*
X107040819Y-70585144D01*
X107042230Y-70532981D01*
X106984394Y-70449234D01*
X106975295Y-70439338D01*
X106922862Y-70372093D01*
X106837322Y-70249186D01*
X106726895Y-70083014D01*
X106599801Y-69885976D01*
X106464260Y-69670467D01*
X106446119Y-69641210D01*
X106219015Y-69261156D01*
X106031150Y-68915571D01*
X105869246Y-68579079D01*
X105769200Y-68347323D01*
X105679695Y-68129627D01*
X105612919Y-67958395D01*
X105563755Y-67813540D01*
X105527085Y-67674976D01*
X105497790Y-67522617D01*
X105470753Y-67336376D01*
X105440856Y-67096169D01*
X105432319Y-67025204D01*
X105346265Y-66308590D01*
X105523408Y-65462073D01*
X105700552Y-64615556D01*
X106073223Y-64038801D01*
X106246106Y-63772224D01*
X106386342Y-63560844D01*
X106504222Y-63392805D01*
X106610036Y-63256248D01*
X106714074Y-63139316D01*
X106826626Y-63030152D01*
X106957984Y-62916898D01*
X107118436Y-62787697D01*
X107246151Y-62687239D01*
X107462663Y-62519722D01*
X107637509Y-62391637D01*
X107789987Y-62291200D01*
X107939395Y-62206626D01*
X108105033Y-62126131D01*
X108306199Y-62037931D01*
X108317053Y-62033313D01*
X108560898Y-61923461D01*
X108857234Y-61779885D01*
X109194725Y-61608869D01*
X109562036Y-61416697D01*
X109947829Y-61209652D01*
X110340767Y-60994019D01*
X110729515Y-60776080D01*
X111102735Y-60562121D01*
X111449091Y-60358425D01*
X111757246Y-60171275D01*
X112015864Y-60006956D01*
X112203413Y-59879111D01*
X112391233Y-59743772D01*
X112557633Y-59623233D01*
X112691364Y-59525692D01*
X112781178Y-59459349D01*
X112814591Y-59433607D01*
X112799548Y-59395576D01*
X112731474Y-59307853D01*
X112615014Y-59175638D01*
X112454814Y-59004134D01*
X112255519Y-58798542D01*
X112171620Y-58713685D01*
X111490045Y-58027712D01*
X111008330Y-57007209D01*
X110526615Y-55986705D01*
X110526615Y-53767893D01*
X110771047Y-53034538D01*
X111015480Y-52301183D01*
X112354798Y-50542351D01*
X114328652Y-49502353D01*
X115558958Y-49316597D01*
X115861683Y-49270607D01*
X116137908Y-49228098D01*
X116378116Y-49190578D01*
X116572788Y-49159555D01*
X116712407Y-49136536D01*
X116787454Y-49123030D01*
X116797771Y-49120343D01*
X116815938Y-49083435D01*
X116863311Y-48984245D01*
X116935268Y-48832571D01*
X117027191Y-48638213D01*
X117134459Y-48410969D01*
X117252454Y-48160640D01*
X117376554Y-47897024D01*
X117502141Y-47629921D01*
X117624594Y-47369130D01*
X117739294Y-47124450D01*
X117816240Y-46960000D01*
X117860853Y-46875774D01*
X117921783Y-46783521D01*
X118005823Y-46675388D01*
X118119764Y-46543525D01*
X118270398Y-46380079D01*
X118464517Y-46177199D01*
X118708912Y-45927034D01*
X118716049Y-45919777D01*
X119504201Y-45118424D01*
X120559216Y-44715265D01*
X121614232Y-44312105D01*
X122501701Y-44312307D01*
G36*
X133002250Y-90201339D02*
G01*
X133533606Y-90367150D01*
X134101440Y-90509292D01*
X134690626Y-90625884D01*
X135286038Y-90715046D01*
X135872549Y-90774896D01*
X136435033Y-90803555D01*
X136958362Y-90799142D01*
X137427412Y-90759776D01*
X137459373Y-90755447D01*
X137658133Y-90727406D01*
X137838995Y-90701288D01*
X137981122Y-90680140D01*
X138060085Y-90667634D01*
X138121777Y-90662072D01*
X138174012Y-90677617D01*
X138231096Y-90725774D01*
X138307335Y-90818048D01*
X138397058Y-90938634D01*
X139286042Y-92085336D01*
X140237002Y-93183148D01*
X141246974Y-94229253D01*
X142312994Y-95220831D01*
X143432096Y-96155066D01*
X144601316Y-97029140D01*
X145322226Y-97521262D01*
X145558829Y-97676042D01*
X145793546Y-97827409D01*
X146011159Y-97965712D01*
X146196453Y-98081297D01*
X146334210Y-98164510D01*
X146357336Y-98177920D01*
X146493921Y-98256675D01*
X146601894Y-98319865D01*
X146664292Y-98357526D01*
X146672629Y-98363157D01*
X146669241Y-98408722D01*
X146629840Y-98507372D01*
X146561615Y-98645309D01*
X146471750Y-98808730D01*
X146367434Y-98983836D01*
X146271469Y-99133511D01*
X145935309Y-99567797D01*
X145539403Y-99954215D01*
X145091318Y-100287431D01*
X144598620Y-100562110D01*
X144068876Y-100772916D01*
X143857379Y-100835719D01*
X143708622Y-100874001D01*
X143577841Y-100901615D01*
X143447020Y-100920250D01*
X143298142Y-100931598D01*
X143113191Y-100937349D01*
X142874151Y-100939193D01*
X142754358Y-100939210D01*
X142455341Y-100936727D01*
X142215497Y-100928959D01*
X142014461Y-100914355D01*
X141831868Y-100891366D01*
X141647355Y-100858442D01*
X141619718Y-100852850D01*
X140920724Y-100672527D01*
X140266490Y-100427119D01*
X140022069Y-100313025D01*
X139840302Y-100223470D01*
X139719386Y-100155407D01*
X139651002Y-100090892D01*
X139626829Y-100011978D01*
X139638547Y-99900722D01*
X139677838Y-99739178D01*
X139705937Y-99631160D01*
X139779798Y-99190742D01*
X139784011Y-98733634D01*
X139721395Y-98275753D01*
X139594767Y-97833016D01*
X139406946Y-97421339D01*
X139277760Y-97212727D01*
X138978376Y-96844695D01*
X138626692Y-96528555D01*
X138232593Y-96269219D01*
X137805965Y-96071601D01*
X137356693Y-95940613D01*
X136894664Y-95881167D01*
X136601158Y-95882680D01*
X136256847Y-95918591D01*
X135941088Y-95988789D01*
X135623186Y-96101609D01*
X135369248Y-96217072D01*
X135196144Y-96305958D01*
X135054271Y-96391827D01*
X134922440Y-96490477D01*
X134779464Y-96617706D01*
X134611106Y-96782346D01*
X134329340Y-97092839D01*
X134111805Y-97401000D01*
X133946354Y-97727010D01*
X133820845Y-98091050D01*
X133818482Y-98099491D01*
X133726604Y-98571914D01*
X133710422Y-99045069D01*
X133766756Y-99510568D01*
X133892422Y-99960017D01*
X134084238Y-100385028D01*
X134339022Y-100777207D01*
X134653592Y-101128166D01*
X135024765Y-101429512D01*
X135100517Y-101479884D01*
X135244126Y-101581063D01*
X135337202Y-101665514D01*
X135369248Y-101722531D01*
X135357491Y-101809802D01*
X135324891Y-101958317D01*
X135275452Y-102153673D01*
X135213179Y-102381468D01*
X135142076Y-102627299D01*
X135066148Y-102876763D01*
X134989400Y-103115457D01*
X134947716Y-103238589D01*
X134861211Y-103472614D01*
X134750806Y-103747790D01*
X134628903Y-104034398D01*
X134507906Y-104302723D01*
X134471320Y-104380047D01*
X134363455Y-104602973D01*
X134282762Y-104763281D01*
X134222952Y-104870605D01*
X134177740Y-104934578D01*
X134140836Y-104964836D01*
X134105955Y-104971013D01*
X134087534Y-104968132D01*
X133575362Y-104847821D01*
X133126464Y-104727160D01*
X132724630Y-104601073D01*
X132353651Y-104464488D01*
X132007496Y-104316962D01*
X131272842Y-103944948D01*
X130590932Y-103519210D01*
X129955677Y-103034894D01*
X129360994Y-102487146D01*
X128800796Y-101871110D01*
X128548850Y-101558106D01*
X128366714Y-101337604D01*
X128205113Y-101179339D01*
X128048963Y-101074337D01*
X127883179Y-101013625D01*
X127692675Y-100988226D01*
X127587082Y-100985948D01*
X127307290Y-101017092D01*
X127072452Y-101109843D01*
X126879232Y-101267025D01*
X126724292Y-101491462D01*
X126604296Y-101785979D01*
X126591311Y-101828803D01*
X126317443Y-102635219D01*
X125983996Y-103390029D01*
X125591530Y-104092444D01*
X125140605Y-104741676D01*
X124631781Y-105336937D01*
X124065616Y-105877438D01*
X123442671Y-106362391D01*
X123306238Y-106456061D01*
X123144167Y-106562470D01*
X122974382Y-106669859D01*
X122811377Y-106769547D01*
X122669644Y-106852854D01*
X122563676Y-106911101D01*
X122507968Y-106935605D01*
X122505154Y-106935859D01*
X122467175Y-106916210D01*
X122375224Y-106863391D01*
X122243363Y-106785600D01*
X122095552Y-106697012D01*
X121430275Y-106250360D01*
X120817845Y-105746543D01*
X120261436Y-105189603D01*
X119764221Y-104583584D01*
X119329374Y-103932531D01*
X118960071Y-103240488D01*
X118659484Y-102511497D01*
X118549520Y-102179123D01*
X118473287Y-101932497D01*
X118414035Y-101748798D01*
X118365983Y-101614651D01*
X118323355Y-101516681D01*
X118280372Y-101441513D01*
X118231257Y-101375771D01*
X118174339Y-101310623D01*
X117986955Y-101139944D01*
X117785199Y-101036369D01*
X117547655Y-100990515D01*
X117433981Y-100986217D01*
X117236616Y-100997733D01*
X117065892Y-101039272D01*
X116908479Y-101119203D01*
X116751045Y-101245894D01*
X116580259Y-101427715D01*
X116423359Y-101620666D01*
X115944368Y-102192308D01*
X115446583Y-102700141D01*
X114913032Y-103159963D01*
X114326739Y-103587567D01*
X114266078Y-103628153D01*
X113653886Y-103999500D01*
X113013207Y-104317364D01*
X112333058Y-104586163D01*
X111602457Y-104810314D01*
X110932681Y-104969226D01*
X110895358Y-104970790D01*
X110859228Y-104952065D01*
X110817688Y-104903107D01*
X110764135Y-104813972D01*
X110691964Y-104674717D01*
X110594572Y-104475398D01*
X110567811Y-104419805D01*
X110452442Y-104170556D01*
X110331473Y-103893657D01*
X110218093Y-103620219D01*
X110125490Y-103381351D01*
X110112864Y-103346700D01*
X110045877Y-103151908D01*
X109973368Y-102926341D01*
X109899446Y-102684487D01*
X109828216Y-102440838D01*
X109763788Y-102209881D01*
X109710268Y-102006108D01*
X109671765Y-101844008D01*
X109652384Y-101738069D01*
X109650879Y-101716991D01*
X109682912Y-101665458D01*
X109767974Y-101590247D01*
X109889301Y-101506009D01*
X109899577Y-101499623D01*
X110228663Y-101256560D01*
X110535960Y-100952329D01*
X110806292Y-100605112D01*
X111024480Y-100233089D01*
X111103751Y-100057177D01*
X111245556Y-99606648D01*
X111312679Y-99147447D01*
X111308243Y-98687830D01*
X111235370Y-98236052D01*
X111134889Y-97919248D01*
X113377740Y-97919248D01*
X113395099Y-98154070D01*
X113454743Y-98344681D01*
X113568020Y-98520238D01*
X113646354Y-98609400D01*
X113865874Y-98788222D01*
X114115754Y-98896251D01*
X114385064Y-98930778D01*
X114662875Y-98889093D01*
X114711956Y-98873623D01*
X114956665Y-98750433D01*
X115153443Y-98569688D01*
X115294332Y-98342694D01*
X115371373Y-98080760D01*
X115380178Y-97965084D01*
X119469780Y-97965084D01*
X119488559Y-98254060D01*
X119580800Y-98727588D01*
X119743825Y-99173491D01*
X119971619Y-99585177D01*
X120258171Y-99956053D01*
X120597466Y-100279525D01*
X120983493Y-100549003D01*
X121410238Y-100757891D01*
X121871688Y-100899599D01*
X121908732Y-100907587D01*
X122121626Y-100936283D01*
X122384065Y-100948128D01*
X122667949Y-100943919D01*
X122945181Y-100924450D01*
X123187662Y-100890519D01*
X123286332Y-100868578D01*
X123427996Y-100822492D01*
X123610552Y-100750726D01*
X123804701Y-100665187D01*
X123903417Y-100617774D01*
X124086979Y-100521265D01*
X124237840Y-100426666D01*
X124379614Y-100316423D01*
X124535916Y-100172982D01*
X124639948Y-100070250D01*
X124881213Y-99812165D01*
X125068173Y-99571275D01*
X125215527Y-99325044D01*
X125337973Y-99050936D01*
X125381596Y-98933177D01*
X125509377Y-98456560D01*
X125558151Y-97975178D01*
X125555347Y-97930500D01*
X129641267Y-97930500D01*
X129673319Y-98180478D01*
X129763511Y-98414028D01*
X129910239Y-98616101D01*
X130071813Y-98747887D01*
X130316239Y-98872934D01*
X130552803Y-98928015D01*
X130803875Y-98916825D01*
X130932166Y-98889997D01*
X131106017Y-98815365D01*
X131285246Y-98687210D01*
X131445663Y-98525941D01*
X131557739Y-98362283D01*
X131624074Y-98168479D01*
X131648570Y-97939413D01*
X131631226Y-97707571D01*
X131572042Y-97505438D01*
X131557739Y-97476213D01*
X131394930Y-97244092D01*
X131190587Y-97071830D01*
X130956936Y-96961236D01*
X130706200Y-96914118D01*
X130450603Y-96932284D01*
X130202371Y-97017544D01*
X129973727Y-97171705D01*
X129910020Y-97232442D01*
X129758011Y-97441436D01*
X129668962Y-97679137D01*
X129641267Y-97930500D01*
X125555347Y-97930500D01*
X125527916Y-97493552D01*
X125418669Y-97016204D01*
X125382478Y-96907810D01*
X125266555Y-96618428D01*
X125132051Y-96365499D01*
X124964368Y-96126610D01*
X124748909Y-95879347D01*
X124638448Y-95765381D01*
X124466370Y-95597154D01*
X124323312Y-95472291D01*
X124186381Y-95373784D01*
X124032684Y-95284623D01*
X123901918Y-95218202D01*
X123592297Y-95078657D01*
X123311897Y-94982638D01*
X123029728Y-94921568D01*
X122714799Y-94886873D01*
X122701012Y-94885908D01*
X122225978Y-94890941D01*
X121770448Y-94968517D01*
X121340008Y-95112780D01*
X120940240Y-95317877D01*
X120576730Y-95577953D01*
X120255061Y-95887151D01*
X119980817Y-96239619D01*
X119759583Y-96629501D01*
X119596943Y-97050942D01*
X119498481Y-97498088D01*
X119469780Y-97965084D01*
X115380178Y-97965084D01*
X115383668Y-97919248D01*
X115348898Y-97648311D01*
X115251939Y-97412844D01*
X115103816Y-97217229D01*
X114915553Y-97065845D01*
X114698176Y-96963073D01*
X114462708Y-96913292D01*
X114220176Y-96920884D01*
X113981603Y-96990229D01*
X113758016Y-97125706D01*
X113646354Y-97229004D01*
X113502717Y-97407906D01*
X113418273Y-97587518D01*
X113381661Y-97797032D01*
X113377740Y-97919248D01*
X111134889Y-97919248D01*
X111097183Y-97800368D01*
X110896803Y-97389035D01*
X110637353Y-97010308D01*
X110321955Y-96672441D01*
X109953731Y-96383690D01*
X109647000Y-96205446D01*
X109308543Y-96056160D01*
X108978316Y-95958444D01*
X108628430Y-95905916D01*
X108277242Y-95892000D01*
X108025662Y-95896285D01*
X107825958Y-95911188D01*
X107650739Y-95939778D01*
X107489305Y-95980328D01*
X107021693Y-96152855D01*
X106595024Y-96389788D01*
X106214949Y-96685497D01*
X105887118Y-97034351D01*
X105617183Y-97430718D01*
X105410793Y-97868967D01*
X105322610Y-98139474D01*
X105277183Y-98373802D01*
X105251849Y-98657051D01*
X105246293Y-98963743D01*
X105260200Y-99268395D01*
X105293255Y-99545527D01*
X105342656Y-99761855D01*
X105383026Y-99906245D01*
X105406507Y-100023076D01*
X105408871Y-100090392D01*
X105406849Y-100095364D01*
X105354688Y-100136793D01*
X105242972Y-100200075D01*
X105086459Y-100278473D01*
X104899907Y-100365250D01*
X104698076Y-100453669D01*
X104495723Y-100536992D01*
X104307607Y-100608483D01*
X104206689Y-100643229D01*
X103788948Y-100767112D01*
X103397221Y-100854453D01*
X103003822Y-100909450D01*
X102581068Y-100936302D01*
X102245737Y-100940575D01*
X101979334Y-100938370D01*
X101773746Y-100932812D01*
X101610174Y-100922061D01*
X101469824Y-100904282D01*
X101333900Y-100877638D01*
X101183606Y-100840290D01*
X101162621Y-100834711D01*
X100614904Y-100648716D01*
X100104190Y-100395313D01*
X99636156Y-100079022D01*
X99216476Y-99704366D01*
X98850826Y-99275866D01*
X98544882Y-98798044D01*
X98499654Y-98713078D01*
X98430865Y-98572659D01*
X98382357Y-98458946D01*
X98361609Y-98390131D01*
X98362528Y-98379589D01*
X98402673Y-98347848D01*
X98496996Y-98285384D01*
X98630891Y-98201587D01*
X98771067Y-98116935D01*
X98940788Y-98013405D01*
X99154753Y-97878961D01*
X99391329Y-97727410D01*
X99628883Y-97572558D01*
X99757492Y-97487402D01*
X100513322Y-96969436D01*
X101211358Y-96459919D01*
X101869903Y-95943864D01*
X102507261Y-95406285D01*
X103141733Y-94832193D01*
X103791623Y-94206601D01*
X103920441Y-94078598D01*
X104799454Y-93163419D01*
X105132075Y-92785402D01*
X107280015Y-92785402D01*
X107288752Y-93013964D01*
X107333400Y-93218438D01*
X107368797Y-93301066D01*
X107530040Y-93523898D01*
X107738705Y-93691098D01*
X107981218Y-93798211D01*
X108244005Y-93840783D01*
X108513491Y-93814361D01*
X108717994Y-93743744D01*
X108941969Y-93600550D01*
X109108955Y-93414308D01*
X109219365Y-93197155D01*
X109273609Y-92961230D01*
X109272098Y-92718667D01*
X109215243Y-92481606D01*
X109103455Y-92262182D01*
X108937145Y-92072532D01*
X108716724Y-91924794D01*
X108655455Y-91896770D01*
X108494256Y-91855478D01*
X108293835Y-91840456D01*
X108090118Y-91851653D01*
X107919030Y-91889022D01*
X107896133Y-91897823D01*
X107701152Y-92012192D01*
X107519215Y-92176336D01*
X107380701Y-92362315D01*
X107370098Y-92381623D01*
X107307145Y-92564154D01*
X107280015Y-92785402D01*
X105132075Y-92785402D01*
X105612118Y-92239844D01*
X106353080Y-91314078D01*
X106646592Y-90919243D01*
X106745706Y-90786314D01*
X106815112Y-90707284D01*
X106869878Y-90670213D01*
X106925072Y-90663158D01*
X106963422Y-90668149D01*
X107049577Y-90681756D01*
X107193950Y-90703184D01*
X107375877Y-90729411D01*
X107560627Y-90755457D01*
X108032453Y-90798204D01*
X108559368Y-90805169D01*
X109126273Y-90778165D01*
X109718068Y-90719008D01*
X110319655Y-90629511D01*
X110915933Y-90511488D01*
X111491804Y-90366753D01*
X111937807Y-90229543D01*
X112107670Y-90174071D01*
X112252698Y-90129890D01*
X112354306Y-90102481D01*
X112389915Y-90096207D01*
X112452872Y-90119511D01*
X112547340Y-90178443D01*
X112593524Y-90213022D01*
X112789364Y-90345562D01*
X113032161Y-90476572D01*
X113290448Y-90590752D01*
X113532758Y-90672804D01*
X113546992Y-90676605D01*
X113684808Y-90715467D01*
X113791644Y-90750693D01*
X113844136Y-90774521D01*
X113869933Y-90822293D01*
X113913422Y-90928512D01*
X113967813Y-91075857D01*
X114009416Y-91196206D01*
X114303472Y-91968665D01*
X114661550Y-92736673D01*
X115071959Y-93477418D01*
X115523009Y-94168083D01*
X115555760Y-94213906D01*
X115786058Y-94523460D01*
X116019885Y-94818022D01*
X116249600Y-95089257D01*
X116467567Y-95328831D01*
X116666148Y-95528411D01*
X116837704Y-95679664D01*
X116974598Y-95774255D01*
X116995637Y-95784936D01*
X117206019Y-95848845D01*
X117447954Y-95868045D01*
X117686614Y-95841800D01*
X117817875Y-95802299D01*
X117915008Y-95750790D01*
X118063882Y-95655446D01*
X118254987Y-95523305D01*
X118478811Y-95361404D01*
X118725843Y-95176782D01*
X118986572Y-94976477D01*
X119251486Y-94767526D01*
X119511076Y-94556968D01*
X119597065Y-94485737D01*
X119798742Y-94310867D01*
X120042567Y-94088444D01*
X120317108Y-93829814D01*
X120610931Y-93546324D01*
X120912604Y-93249320D01*
X121210695Y-92950148D01*
X121493770Y-92660155D01*
X121750398Y-92390686D01*
X121969145Y-92153089D01*
X122114546Y-91987273D01*
X122248130Y-91831619D01*
X122363783Y-91700339D01*
X122451759Y-91604234D01*
X122502308Y-91554103D01*
X122509860Y-91549342D01*
X122542931Y-91577908D01*
X122617726Y-91656468D01*
X122724437Y-91774313D01*
X122853261Y-91920735D01*
X122910042Y-91986366D01*
X123522107Y-92664212D01*
X124187583Y-93340908D01*
X124888902Y-94000295D01*
X125608498Y-94626213D01*
X126328803Y-95202504D01*
X126731559Y-95501579D01*
X126945204Y-95649971D01*
X127116835Y-95753372D01*
X127264342Y-95819244D01*
X127405614Y-95855053D01*
X127558540Y-95868261D01*
X127611983Y-95868935D01*
X127795893Y-95856373D01*
X127958703Y-95812997D01*
X128115887Y-95730271D01*
X128282924Y-95599657D01*
X128475290Y-95412619D01*
X128515370Y-95370642D01*
X129097066Y-94701139D01*
X129631525Y-93974350D01*
X130112035Y-93201528D01*
X130329564Y-92783099D01*
X135740629Y-92783099D01*
X135755499Y-93027579D01*
X135830360Y-93262403D01*
X135965216Y-93475381D01*
X136160074Y-93654322D01*
X136280243Y-93727343D01*
X136505597Y-93809225D01*
X136754263Y-93840997D01*
X136995724Y-93820817D01*
X137134534Y-93778894D01*
X137366521Y-93642919D01*
X137546089Y-93458843D01*
X137671041Y-93239716D01*
X137739179Y-92998587D01*
X137748302Y-92748506D01*
X137696214Y-92502522D01*
X137580716Y-92273685D01*
X137418812Y-92091486D01*
X137183265Y-91933167D01*
X136926523Y-91847409D01*
X136660125Y-91835625D01*
X136395612Y-91899222D01*
X136280962Y-91952438D01*
X136055917Y-92113632D01*
X135890843Y-92313935D01*
X135785746Y-92541154D01*
X135740629Y-92783099D01*
X130329564Y-92783099D01*
X130531885Y-92393926D01*
X130884362Y-91562799D01*
X131027818Y-91158299D01*
X131085964Y-90994597D01*
X131140177Y-90862122D01*
X131183259Y-90777414D01*
X131203192Y-90755326D01*
X131621984Y-90629459D01*
X131974764Y-90487126D01*
X132274408Y-90322683D01*
X132419995Y-90221695D01*
X132622961Y-90069190D01*
X133002250Y-90201339D01*
G37*
X133002250Y-90201339D02*
X133533606Y-90367150D01*
X134101440Y-90509292D01*
X134690626Y-90625884D01*
X135286038Y-90715046D01*
X135872549Y-90774896D01*
X136435033Y-90803555D01*
X136958362Y-90799142D01*
X137427412Y-90759776D01*
X137459373Y-90755447D01*
X137658133Y-90727406D01*
X137838995Y-90701288D01*
X137981122Y-90680140D01*
X138060085Y-90667634D01*
X138121777Y-90662072D01*
X138174012Y-90677617D01*
X138231096Y-90725774D01*
X138307335Y-90818048D01*
X138397058Y-90938634D01*
X139286042Y-92085336D01*
X140237002Y-93183148D01*
X141246974Y-94229253D01*
X142312994Y-95220831D01*
X143432096Y-96155066D01*
X144601316Y-97029140D01*
X145322226Y-97521262D01*
X145558829Y-97676042D01*
X145793546Y-97827409D01*
X146011159Y-97965712D01*
X146196453Y-98081297D01*
X146334210Y-98164510D01*
X146357336Y-98177920D01*
X146493921Y-98256675D01*
X146601894Y-98319865D01*
X146664292Y-98357526D01*
X146672629Y-98363157D01*
X146669241Y-98408722D01*
X146629840Y-98507372D01*
X146561615Y-98645309D01*
X146471750Y-98808730D01*
X146367434Y-98983836D01*
X146271469Y-99133511D01*
X145935309Y-99567797D01*
X145539403Y-99954215D01*
X145091318Y-100287431D01*
X144598620Y-100562110D01*
X144068876Y-100772916D01*
X143857379Y-100835719D01*
X143708622Y-100874001D01*
X143577841Y-100901615D01*
X143447020Y-100920250D01*
X143298142Y-100931598D01*
X143113191Y-100937349D01*
X142874151Y-100939193D01*
X142754358Y-100939210D01*
X142455341Y-100936727D01*
X142215497Y-100928959D01*
X142014461Y-100914355D01*
X141831868Y-100891366D01*
X141647355Y-100858442D01*
X141619718Y-100852850D01*
X140920724Y-100672527D01*
X140266490Y-100427119D01*
X140022069Y-100313025D01*
X139840302Y-100223470D01*
X139719386Y-100155407D01*
X139651002Y-100090892D01*
X139626829Y-100011978D01*
X139638547Y-99900722D01*
X139677838Y-99739178D01*
X139705937Y-99631160D01*
X139779798Y-99190742D01*
X139784011Y-98733634D01*
X139721395Y-98275753D01*
X139594767Y-97833016D01*
X139406946Y-97421339D01*
X139277760Y-97212727D01*
X138978376Y-96844695D01*
X138626692Y-96528555D01*
X138232593Y-96269219D01*
X137805965Y-96071601D01*
X137356693Y-95940613D01*
X136894664Y-95881167D01*
X136601158Y-95882680D01*
X136256847Y-95918591D01*
X135941088Y-95988789D01*
X135623186Y-96101609D01*
X135369248Y-96217072D01*
X135196144Y-96305958D01*
X135054271Y-96391827D01*
X134922440Y-96490477D01*
X134779464Y-96617706D01*
X134611106Y-96782346D01*
X134329340Y-97092839D01*
X134111805Y-97401000D01*
X133946354Y-97727010D01*
X133820845Y-98091050D01*
X133818482Y-98099491D01*
X133726604Y-98571914D01*
X133710422Y-99045069D01*
X133766756Y-99510568D01*
X133892422Y-99960017D01*
X134084238Y-100385028D01*
X134339022Y-100777207D01*
X134653592Y-101128166D01*
X135024765Y-101429512D01*
X135100517Y-101479884D01*
X135244126Y-101581063D01*
X135337202Y-101665514D01*
X135369248Y-101722531D01*
X135357491Y-101809802D01*
X135324891Y-101958317D01*
X135275452Y-102153673D01*
X135213179Y-102381468D01*
X135142076Y-102627299D01*
X135066148Y-102876763D01*
X134989400Y-103115457D01*
X134947716Y-103238589D01*
X134861211Y-103472614D01*
X134750806Y-103747790D01*
X134628903Y-104034398D01*
X134507906Y-104302723D01*
X134471320Y-104380047D01*
X134363455Y-104602973D01*
X134282762Y-104763281D01*
X134222952Y-104870605D01*
X134177740Y-104934578D01*
X134140836Y-104964836D01*
X134105955Y-104971013D01*
X134087534Y-104968132D01*
X133575362Y-104847821D01*
X133126464Y-104727160D01*
X132724630Y-104601073D01*
X132353651Y-104464488D01*
X132007496Y-104316962D01*
X131272842Y-103944948D01*
X130590932Y-103519210D01*
X129955677Y-103034894D01*
X129360994Y-102487146D01*
X128800796Y-101871110D01*
X128548850Y-101558106D01*
X128366714Y-101337604D01*
X128205113Y-101179339D01*
X128048963Y-101074337D01*
X127883179Y-101013625D01*
X127692675Y-100988226D01*
X127587082Y-100985948D01*
X127307290Y-101017092D01*
X127072452Y-101109843D01*
X126879232Y-101267025D01*
X126724292Y-101491462D01*
X126604296Y-101785979D01*
X126591311Y-101828803D01*
X126317443Y-102635219D01*
X125983996Y-103390029D01*
X125591530Y-104092444D01*
X125140605Y-104741676D01*
X124631781Y-105336937D01*
X124065616Y-105877438D01*
X123442671Y-106362391D01*
X123306238Y-106456061D01*
X123144167Y-106562470D01*
X122974382Y-106669859D01*
X122811377Y-106769547D01*
X122669644Y-106852854D01*
X122563676Y-106911101D01*
X122507968Y-106935605D01*
X122505154Y-106935859D01*
X122467175Y-106916210D01*
X122375224Y-106863391D01*
X122243363Y-106785600D01*
X122095552Y-106697012D01*
X121430275Y-106250360D01*
X120817845Y-105746543D01*
X120261436Y-105189603D01*
X119764221Y-104583584D01*
X119329374Y-103932531D01*
X118960071Y-103240488D01*
X118659484Y-102511497D01*
X118549520Y-102179123D01*
X118473287Y-101932497D01*
X118414035Y-101748798D01*
X118365983Y-101614651D01*
X118323355Y-101516681D01*
X118280372Y-101441513D01*
X118231257Y-101375771D01*
X118174339Y-101310623D01*
X117986955Y-101139944D01*
X117785199Y-101036369D01*
X117547655Y-100990515D01*
X117433981Y-100986217D01*
X117236616Y-100997733D01*
X117065892Y-101039272D01*
X116908479Y-101119203D01*
X116751045Y-101245894D01*
X116580259Y-101427715D01*
X116423359Y-101620666D01*
X115944368Y-102192308D01*
X115446583Y-102700141D01*
X114913032Y-103159963D01*
X114326739Y-103587567D01*
X114266078Y-103628153D01*
X113653886Y-103999500D01*
X113013207Y-104317364D01*
X112333058Y-104586163D01*
X111602457Y-104810314D01*
X110932681Y-104969226D01*
X110895358Y-104970790D01*
X110859228Y-104952065D01*
X110817688Y-104903107D01*
X110764135Y-104813972D01*
X110691964Y-104674717D01*
X110594572Y-104475398D01*
X110567811Y-104419805D01*
X110452442Y-104170556D01*
X110331473Y-103893657D01*
X110218093Y-103620219D01*
X110125490Y-103381351D01*
X110112864Y-103346700D01*
X110045877Y-103151908D01*
X109973368Y-102926341D01*
X109899446Y-102684487D01*
X109828216Y-102440838D01*
X109763788Y-102209881D01*
X109710268Y-102006108D01*
X109671765Y-101844008D01*
X109652384Y-101738069D01*
X109650879Y-101716991D01*
X109682912Y-101665458D01*
X109767974Y-101590247D01*
X109889301Y-101506009D01*
X109899577Y-101499623D01*
X110228663Y-101256560D01*
X110535960Y-100952329D01*
X110806292Y-100605112D01*
X111024480Y-100233089D01*
X111103751Y-100057177D01*
X111245556Y-99606648D01*
X111312679Y-99147447D01*
X111308243Y-98687830D01*
X111235370Y-98236052D01*
X111134889Y-97919248D01*
X113377740Y-97919248D01*
X113395099Y-98154070D01*
X113454743Y-98344681D01*
X113568020Y-98520238D01*
X113646354Y-98609400D01*
X113865874Y-98788222D01*
X114115754Y-98896251D01*
X114385064Y-98930778D01*
X114662875Y-98889093D01*
X114711956Y-98873623D01*
X114956665Y-98750433D01*
X115153443Y-98569688D01*
X115294332Y-98342694D01*
X115371373Y-98080760D01*
X115380178Y-97965084D01*
X119469780Y-97965084D01*
X119488559Y-98254060D01*
X119580800Y-98727588D01*
X119743825Y-99173491D01*
X119971619Y-99585177D01*
X120258171Y-99956053D01*
X120597466Y-100279525D01*
X120983493Y-100549003D01*
X121410238Y-100757891D01*
X121871688Y-100899599D01*
X121908732Y-100907587D01*
X122121626Y-100936283D01*
X122384065Y-100948128D01*
X122667949Y-100943919D01*
X122945181Y-100924450D01*
X123187662Y-100890519D01*
X123286332Y-100868578D01*
X123427996Y-100822492D01*
X123610552Y-100750726D01*
X123804701Y-100665187D01*
X123903417Y-100617774D01*
X124086979Y-100521265D01*
X124237840Y-100426666D01*
X124379614Y-100316423D01*
X124535916Y-100172982D01*
X124639948Y-100070250D01*
X124881213Y-99812165D01*
X125068173Y-99571275D01*
X125215527Y-99325044D01*
X125337973Y-99050936D01*
X125381596Y-98933177D01*
X125509377Y-98456560D01*
X125558151Y-97975178D01*
X125555347Y-97930500D01*
X129641267Y-97930500D01*
X129673319Y-98180478D01*
X129763511Y-98414028D01*
X129910239Y-98616101D01*
X130071813Y-98747887D01*
X130316239Y-98872934D01*
X130552803Y-98928015D01*
X130803875Y-98916825D01*
X130932166Y-98889997D01*
X131106017Y-98815365D01*
X131285246Y-98687210D01*
X131445663Y-98525941D01*
X131557739Y-98362283D01*
X131624074Y-98168479D01*
X131648570Y-97939413D01*
X131631226Y-97707571D01*
X131572042Y-97505438D01*
X131557739Y-97476213D01*
X131394930Y-97244092D01*
X131190587Y-97071830D01*
X130956936Y-96961236D01*
X130706200Y-96914118D01*
X130450603Y-96932284D01*
X130202371Y-97017544D01*
X129973727Y-97171705D01*
X129910020Y-97232442D01*
X129758011Y-97441436D01*
X129668962Y-97679137D01*
X129641267Y-97930500D01*
X125555347Y-97930500D01*
X125527916Y-97493552D01*
X125418669Y-97016204D01*
X125382478Y-96907810D01*
X125266555Y-96618428D01*
X125132051Y-96365499D01*
X124964368Y-96126610D01*
X124748909Y-95879347D01*
X124638448Y-95765381D01*
X124466370Y-95597154D01*
X124323312Y-95472291D01*
X124186381Y-95373784D01*
X124032684Y-95284623D01*
X123901918Y-95218202D01*
X123592297Y-95078657D01*
X123311897Y-94982638D01*
X123029728Y-94921568D01*
X122714799Y-94886873D01*
X122701012Y-94885908D01*
X122225978Y-94890941D01*
X121770448Y-94968517D01*
X121340008Y-95112780D01*
X120940240Y-95317877D01*
X120576730Y-95577953D01*
X120255061Y-95887151D01*
X119980817Y-96239619D01*
X119759583Y-96629501D01*
X119596943Y-97050942D01*
X119498481Y-97498088D01*
X119469780Y-97965084D01*
X115380178Y-97965084D01*
X115383668Y-97919248D01*
X115348898Y-97648311D01*
X115251939Y-97412844D01*
X115103816Y-97217229D01*
X114915553Y-97065845D01*
X114698176Y-96963073D01*
X114462708Y-96913292D01*
X114220176Y-96920884D01*
X113981603Y-96990229D01*
X113758016Y-97125706D01*
X113646354Y-97229004D01*
X113502717Y-97407906D01*
X113418273Y-97587518D01*
X113381661Y-97797032D01*
X113377740Y-97919248D01*
X111134889Y-97919248D01*
X111097183Y-97800368D01*
X110896803Y-97389035D01*
X110637353Y-97010308D01*
X110321955Y-96672441D01*
X109953731Y-96383690D01*
X109647000Y-96205446D01*
X109308543Y-96056160D01*
X108978316Y-95958444D01*
X108628430Y-95905916D01*
X108277242Y-95892000D01*
X108025662Y-95896285D01*
X107825958Y-95911188D01*
X107650739Y-95939778D01*
X107489305Y-95980328D01*
X107021693Y-96152855D01*
X106595024Y-96389788D01*
X106214949Y-96685497D01*
X105887118Y-97034351D01*
X105617183Y-97430718D01*
X105410793Y-97868967D01*
X105322610Y-98139474D01*
X105277183Y-98373802D01*
X105251849Y-98657051D01*
X105246293Y-98963743D01*
X105260200Y-99268395D01*
X105293255Y-99545527D01*
X105342656Y-99761855D01*
X105383026Y-99906245D01*
X105406507Y-100023076D01*
X105408871Y-100090392D01*
X105406849Y-100095364D01*
X105354688Y-100136793D01*
X105242972Y-100200075D01*
X105086459Y-100278473D01*
X104899907Y-100365250D01*
X104698076Y-100453669D01*
X104495723Y-100536992D01*
X104307607Y-100608483D01*
X104206689Y-100643229D01*
X103788948Y-100767112D01*
X103397221Y-100854453D01*
X103003822Y-100909450D01*
X102581068Y-100936302D01*
X102245737Y-100940575D01*
X101979334Y-100938370D01*
X101773746Y-100932812D01*
X101610174Y-100922061D01*
X101469824Y-100904282D01*
X101333900Y-100877638D01*
X101183606Y-100840290D01*
X101162621Y-100834711D01*
X100614904Y-100648716D01*
X100104190Y-100395313D01*
X99636156Y-100079022D01*
X99216476Y-99704366D01*
X98850826Y-99275866D01*
X98544882Y-98798044D01*
X98499654Y-98713078D01*
X98430865Y-98572659D01*
X98382357Y-98458946D01*
X98361609Y-98390131D01*
X98362528Y-98379589D01*
X98402673Y-98347848D01*
X98496996Y-98285384D01*
X98630891Y-98201587D01*
X98771067Y-98116935D01*
X98940788Y-98013405D01*
X99154753Y-97878961D01*
X99391329Y-97727410D01*
X99628883Y-97572558D01*
X99757492Y-97487402D01*
X100513322Y-96969436D01*
X101211358Y-96459919D01*
X101869903Y-95943864D01*
X102507261Y-95406285D01*
X103141733Y-94832193D01*
X103791623Y-94206601D01*
X103920441Y-94078598D01*
X104799454Y-93163419D01*
X105132075Y-92785402D01*
X107280015Y-92785402D01*
X107288752Y-93013964D01*
X107333400Y-93218438D01*
X107368797Y-93301066D01*
X107530040Y-93523898D01*
X107738705Y-93691098D01*
X107981218Y-93798211D01*
X108244005Y-93840783D01*
X108513491Y-93814361D01*
X108717994Y-93743744D01*
X108941969Y-93600550D01*
X109108955Y-93414308D01*
X109219365Y-93197155D01*
X109273609Y-92961230D01*
X109272098Y-92718667D01*
X109215243Y-92481606D01*
X109103455Y-92262182D01*
X108937145Y-92072532D01*
X108716724Y-91924794D01*
X108655455Y-91896770D01*
X108494256Y-91855478D01*
X108293835Y-91840456D01*
X108090118Y-91851653D01*
X107919030Y-91889022D01*
X107896133Y-91897823D01*
X107701152Y-92012192D01*
X107519215Y-92176336D01*
X107380701Y-92362315D01*
X107370098Y-92381623D01*
X107307145Y-92564154D01*
X107280015Y-92785402D01*
X105132075Y-92785402D01*
X105612118Y-92239844D01*
X106353080Y-91314078D01*
X106646592Y-90919243D01*
X106745706Y-90786314D01*
X106815112Y-90707284D01*
X106869878Y-90670213D01*
X106925072Y-90663158D01*
X106963422Y-90668149D01*
X107049577Y-90681756D01*
X107193950Y-90703184D01*
X107375877Y-90729411D01*
X107560627Y-90755457D01*
X108032453Y-90798204D01*
X108559368Y-90805169D01*
X109126273Y-90778165D01*
X109718068Y-90719008D01*
X110319655Y-90629511D01*
X110915933Y-90511488D01*
X111491804Y-90366753D01*
X111937807Y-90229543D01*
X112107670Y-90174071D01*
X112252698Y-90129890D01*
X112354306Y-90102481D01*
X112389915Y-90096207D01*
X112452872Y-90119511D01*
X112547340Y-90178443D01*
X112593524Y-90213022D01*
X112789364Y-90345562D01*
X113032161Y-90476572D01*
X113290448Y-90590752D01*
X113532758Y-90672804D01*
X113546992Y-90676605D01*
X113684808Y-90715467D01*
X113791644Y-90750693D01*
X113844136Y-90774521D01*
X113869933Y-90822293D01*
X113913422Y-90928512D01*
X113967813Y-91075857D01*
X114009416Y-91196206D01*
X114303472Y-91968665D01*
X114661550Y-92736673D01*
X115071959Y-93477418D01*
X115523009Y-94168083D01*
X115555760Y-94213906D01*
X115786058Y-94523460D01*
X116019885Y-94818022D01*
X116249600Y-95089257D01*
X116467567Y-95328831D01*
X116666148Y-95528411D01*
X116837704Y-95679664D01*
X116974598Y-95774255D01*
X116995637Y-95784936D01*
X117206019Y-95848845D01*
X117447954Y-95868045D01*
X117686614Y-95841800D01*
X117817875Y-95802299D01*
X117915008Y-95750790D01*
X118063882Y-95655446D01*
X118254987Y-95523305D01*
X118478811Y-95361404D01*
X118725843Y-95176782D01*
X118986572Y-94976477D01*
X119251486Y-94767526D01*
X119511076Y-94556968D01*
X119597065Y-94485737D01*
X119798742Y-94310867D01*
X120042567Y-94088444D01*
X120317108Y-93829814D01*
X120610931Y-93546324D01*
X120912604Y-93249320D01*
X121210695Y-92950148D01*
X121493770Y-92660155D01*
X121750398Y-92390686D01*
X121969145Y-92153089D01*
X122114546Y-91987273D01*
X122248130Y-91831619D01*
X122363783Y-91700339D01*
X122451759Y-91604234D01*
X122502308Y-91554103D01*
X122509860Y-91549342D01*
X122542931Y-91577908D01*
X122617726Y-91656468D01*
X122724437Y-91774313D01*
X122853261Y-91920735D01*
X122910042Y-91986366D01*
X123522107Y-92664212D01*
X124187583Y-93340908D01*
X124888902Y-94000295D01*
X125608498Y-94626213D01*
X126328803Y-95202504D01*
X126731559Y-95501579D01*
X126945204Y-95649971D01*
X127116835Y-95753372D01*
X127264342Y-95819244D01*
X127405614Y-95855053D01*
X127558540Y-95868261D01*
X127611983Y-95868935D01*
X127795893Y-95856373D01*
X127958703Y-95812997D01*
X128115887Y-95730271D01*
X128282924Y-95599657D01*
X128475290Y-95412619D01*
X128515370Y-95370642D01*
X129097066Y-94701139D01*
X129631525Y-93974350D01*
X130112035Y-93201528D01*
X130329564Y-92783099D01*
X135740629Y-92783099D01*
X135755499Y-93027579D01*
X135830360Y-93262403D01*
X135965216Y-93475381D01*
X136160074Y-93654322D01*
X136280243Y-93727343D01*
X136505597Y-93809225D01*
X136754263Y-93840997D01*
X136995724Y-93820817D01*
X137134534Y-93778894D01*
X137366521Y-93642919D01*
X137546089Y-93458843D01*
X137671041Y-93239716D01*
X137739179Y-92998587D01*
X137748302Y-92748506D01*
X137696214Y-92502522D01*
X137580716Y-92273685D01*
X137418812Y-92091486D01*
X137183265Y-91933167D01*
X136926523Y-91847409D01*
X136660125Y-91835625D01*
X136395612Y-91899222D01*
X136280962Y-91952438D01*
X136055917Y-92113632D01*
X135890843Y-92313935D01*
X135785746Y-92541154D01*
X135740629Y-92783099D01*
X130329564Y-92783099D01*
X130531885Y-92393926D01*
X130884362Y-91562799D01*
X131027818Y-91158299D01*
X131085964Y-90994597D01*
X131140177Y-90862122D01*
X131183259Y-90777414D01*
X131203192Y-90755326D01*
X131621984Y-90629459D01*
X131974764Y-90487126D01*
X132274408Y-90322683D01*
X132419995Y-90221695D01*
X132622961Y-90069190D01*
X133002250Y-90201339D01*
G36*
X108555024Y-97975691D02*
G01*
X108804068Y-98077985D01*
X109010442Y-98238623D01*
X109165304Y-98449799D01*
X109259816Y-98703711D01*
X109280262Y-98829449D01*
X109271519Y-99102227D01*
X109194183Y-99351746D01*
X109058036Y-99568768D01*
X108872864Y-99744058D01*
X108648452Y-99868376D01*
X108394585Y-99932487D01*
X108121046Y-99927152D01*
X108117994Y-99926678D01*
X107844238Y-99845778D01*
X107610925Y-99698271D01*
X107425889Y-99489716D01*
X107370098Y-99396058D01*
X107306478Y-99211084D01*
X107279712Y-98987233D01*
X107289800Y-98756207D01*
X107336742Y-98549712D01*
X107370098Y-98472845D01*
X107533760Y-98243002D01*
X107745540Y-98074751D01*
X107998414Y-97972244D01*
X108272151Y-97939543D01*
X108555024Y-97975691D01*
G37*
X108555024Y-97975691D02*
X108804068Y-98077985D01*
X109010442Y-98238623D01*
X109165304Y-98449799D01*
X109259816Y-98703711D01*
X109280262Y-98829449D01*
X109271519Y-99102227D01*
X109194183Y-99351746D01*
X109058036Y-99568768D01*
X108872864Y-99744058D01*
X108648452Y-99868376D01*
X108394585Y-99932487D01*
X108121046Y-99927152D01*
X108117994Y-99926678D01*
X107844238Y-99845778D01*
X107610925Y-99698271D01*
X107425889Y-99489716D01*
X107370098Y-99396058D01*
X107306478Y-99211084D01*
X107279712Y-98987233D01*
X107289800Y-98756207D01*
X107336742Y-98549712D01*
X107370098Y-98472845D01*
X107533760Y-98243002D01*
X107745540Y-98074751D01*
X107998414Y-97972244D01*
X108272151Y-97939543D01*
X108555024Y-97975691D01*
G36*
X136983841Y-97956567D02*
G01*
X137175583Y-98016009D01*
X137353542Y-98128283D01*
X137418812Y-98182708D01*
X137598018Y-98385395D01*
X137708915Y-98609126D01*
X137756455Y-98843758D01*
X137745591Y-99079144D01*
X137681274Y-99305138D01*
X137568456Y-99511596D01*
X137412089Y-99688371D01*
X137217125Y-99825317D01*
X136988515Y-99912289D01*
X136731211Y-99939142D01*
X136569448Y-99922940D01*
X136309389Y-99839984D01*
X136088837Y-99695736D01*
X135915632Y-99501962D01*
X135797616Y-99270427D01*
X135742630Y-99012896D01*
X135758515Y-98741134D01*
X135764092Y-98714569D01*
X135860078Y-98456463D01*
X136017138Y-98241743D01*
X136224955Y-98078534D01*
X136473210Y-97974964D01*
X136748584Y-97939154D01*
X136983841Y-97956567D01*
G37*
X136983841Y-97956567D02*
X137175583Y-98016009D01*
X137353542Y-98128283D01*
X137418812Y-98182708D01*
X137598018Y-98385395D01*
X137708915Y-98609126D01*
X137756455Y-98843758D01*
X137745591Y-99079144D01*
X137681274Y-99305138D01*
X137568456Y-99511596D01*
X137412089Y-99688371D01*
X137217125Y-99825317D01*
X136988515Y-99912289D01*
X136731211Y-99939142D01*
X136569448Y-99922940D01*
X136309389Y-99839984D01*
X136088837Y-99695736D01*
X135915632Y-99501962D01*
X135797616Y-99270427D01*
X135742630Y-99012896D01*
X135758515Y-98741134D01*
X135764092Y-98714569D01*
X135860078Y-98456463D01*
X136017138Y-98241743D01*
X136224955Y-98078534D01*
X136473210Y-97974964D01*
X136748584Y-97939154D01*
X136983841Y-97956567D01*
G36*
X116995735Y-79677823D02*
G01*
X117356857Y-80545840D01*
X117785697Y-81376889D01*
X118278874Y-82166684D01*
X118833010Y-82910937D01*
X119444725Y-83605361D01*
X120110640Y-84245668D01*
X120827375Y-84827573D01*
X121336179Y-85183854D01*
X121601869Y-85356435D01*
X121814488Y-85487983D01*
X121985707Y-85583818D01*
X122127194Y-85649263D01*
X122250617Y-85689640D01*
X122367647Y-85710271D01*
X122489951Y-85716477D01*
X122504090Y-85716508D01*
X122640120Y-85710737D01*
X122767134Y-85690116D01*
X122897787Y-85649043D01*
X123044728Y-85581918D01*
X123220610Y-85483141D01*
X123438086Y-85347109D01*
X123644640Y-85211599D01*
X124414386Y-84654371D01*
X125129563Y-84042208D01*
X125787407Y-83378614D01*
X126385151Y-82667093D01*
X126920032Y-81911149D01*
X127389283Y-81114286D01*
X127790141Y-80280007D01*
X128041320Y-79640047D01*
X128171026Y-79276207D01*
X128774290Y-79566730D01*
X129629573Y-79934844D01*
X130510460Y-80227681D01*
X131417280Y-80445325D01*
X132350359Y-80587857D01*
X133049770Y-80644602D01*
X133576844Y-80671964D01*
X133845730Y-81034634D01*
X134086674Y-81352444D01*
X134320234Y-81643987D01*
X134560480Y-81925292D01*
X134821477Y-82212389D01*
X135117295Y-82521308D01*
X135405314Y-82811713D01*
X136100549Y-83470239D01*
X136801111Y-84063557D01*
X137524168Y-84605194D01*
X138286884Y-85108680D01*
X138434765Y-85199367D01*
X138651029Y-85325744D01*
X138912691Y-85471203D01*
X139201412Y-85626213D01*
X139498850Y-85781246D01*
X139786665Y-85926774D01*
X140046517Y-86053268D01*
X140260065Y-86151199D01*
X140299427Y-86168141D01*
X140551707Y-86274985D01*
X140404707Y-86543355D01*
X140114412Y-87005031D01*
X139773422Y-87428626D01*
X139391152Y-87805896D01*
X138977012Y-88128599D01*
X138540417Y-88388493D01*
X138090779Y-88577335D01*
X138076458Y-88582055D01*
X137651230Y-88689216D01*
X137168603Y-88754022D01*
X136638280Y-88776976D01*
X136069966Y-88758580D01*
X135473368Y-88699338D01*
X134858189Y-88599752D01*
X134234135Y-88460326D01*
X133883486Y-88364765D01*
X133659793Y-88299736D01*
X133683784Y-87933943D01*
X133676594Y-87448863D01*
X133592652Y-86976703D01*
X133434634Y-86524798D01*
X133205215Y-86100483D01*
X132907071Y-85711093D01*
X132850575Y-85649776D01*
X132495409Y-85330313D01*
X132099658Y-85075099D01*
X131671989Y-84885817D01*
X131221065Y-84764148D01*
X130755552Y-84711777D01*
X130284115Y-84730386D01*
X129815419Y-84821658D01*
X129382703Y-84976266D01*
X129010099Y-85181149D01*
X128658172Y-85451213D01*
X128340540Y-85772330D01*
X128070822Y-86130371D01*
X127862639Y-86511207D01*
X127830529Y-86586539D01*
X127700206Y-86995687D01*
X127626278Y-87430900D01*
X127609820Y-87871547D01*
X127651907Y-88296997D01*
X127725511Y-88603261D01*
X127873888Y-88981040D01*
X128074137Y-89348049D01*
X128314375Y-89687873D01*
X128582720Y-89984100D01*
X128867290Y-90220313D01*
X128923123Y-90257640D01*
X129004380Y-90309888D01*
X129060697Y-90354810D01*
X129091611Y-90404812D01*
X129096663Y-90472297D01*
X129075389Y-90569670D01*
X129027330Y-90709337D01*
X128952023Y-90903702D01*
X128893584Y-91051693D01*
X128742791Y-91404392D01*
X128561647Y-91779570D01*
X128359802Y-92160334D01*
X128146909Y-92529792D01*
X127932619Y-92871051D01*
X127726584Y-93167218D01*
X127575187Y-93359158D01*
X127500605Y-93441844D01*
X127450654Y-93471469D01*
X127399943Y-93456922D01*
X127362821Y-93433508D01*
X127222587Y-93331218D01*
X127036635Y-93182016D01*
X126815542Y-92995299D01*
X126569886Y-92780464D01*
X126310245Y-92546909D01*
X126047197Y-92304029D01*
X125791319Y-92061223D01*
X125553190Y-91827887D01*
X125535341Y-91810029D01*
X125169697Y-91437235D01*
X124843410Y-91089517D01*
X124539854Y-90747676D01*
X124242405Y-90392516D01*
X123934438Y-90004840D01*
X123651261Y-89634461D01*
X123486750Y-89418543D01*
X123358472Y-89256886D01*
X123256455Y-89138907D01*
X123170726Y-89054020D01*
X123091313Y-88991643D01*
X123008243Y-88941190D01*
X122987743Y-88930250D01*
X122861683Y-88869477D01*
X122755057Y-88836644D01*
X122634894Y-88825295D01*
X122470188Y-88828883D01*
X122292624Y-88843748D01*
X122142581Y-88876428D01*
X122008390Y-88935251D01*
X121878379Y-89028542D01*
X121740878Y-89164628D01*
X121584216Y-89351836D01*
X121402567Y-89590608D01*
X120807040Y-90355083D01*
X120177014Y-91091271D01*
X119526804Y-91783346D01*
X118870724Y-92415482D01*
X118744195Y-92529639D01*
X118534649Y-92714156D01*
X118324663Y-92894728D01*
X118123505Y-93063811D01*
X117940444Y-93213859D01*
X117784747Y-93337329D01*
X117665683Y-93426674D01*
X117592521Y-93474351D01*
X117576489Y-93480220D01*
X117537108Y-93450849D01*
X117466475Y-93374010D01*
X117383687Y-93271207D01*
X117071340Y-92830861D01*
X116769342Y-92346181D01*
X116489066Y-91838393D01*
X116241886Y-91328725D01*
X116039177Y-90838406D01*
X115960812Y-90615552D01*
X115922098Y-90492142D01*
X115909427Y-90422200D01*
X115922741Y-90383965D01*
X115960121Y-90356774D01*
X116294540Y-90121035D01*
X116609476Y-89824461D01*
X116887675Y-89485811D01*
X117111881Y-89123843D01*
X117133705Y-89081004D01*
X117304182Y-88673097D01*
X117406752Y-88262678D01*
X117445786Y-87828617D01*
X117442492Y-87588057D01*
X117413631Y-87240305D01*
X117355175Y-86933573D01*
X117258875Y-86637286D01*
X117116484Y-86320867D01*
X117082719Y-86254358D01*
X116924798Y-86000625D01*
X116713185Y-85736249D01*
X116467509Y-85481635D01*
X116207399Y-85257188D01*
X115960941Y-85088225D01*
X115520639Y-84874409D01*
X115063441Y-84734180D01*
X114597538Y-84666548D01*
X114131121Y-84670521D01*
X113672381Y-84745110D01*
X113229509Y-84889324D01*
X112810696Y-85102172D01*
X112424135Y-85382665D01*
X112257505Y-85536012D01*
X111926568Y-85916508D01*
X111666702Y-86329759D01*
X111479582Y-86771399D01*
X111366885Y-87237059D01*
X111330284Y-87722371D01*
X111338146Y-87932998D01*
X111363850Y-88298677D01*
X111134339Y-88365613D01*
X110531049Y-88522244D01*
X109926596Y-88642219D01*
X109332204Y-88724725D01*
X108759101Y-88768949D01*
X108218510Y-88774079D01*
X107721659Y-88739301D01*
X107279773Y-88663804D01*
X107219446Y-88649050D01*
X106736377Y-88486075D01*
X106268914Y-88251283D01*
X105826338Y-87952229D01*
X105417932Y-87596470D01*
X105052978Y-87191561D01*
X104740756Y-86745056D01*
X104620350Y-86533358D01*
X104562454Y-86417425D01*
X104524252Y-86328084D01*
X104515148Y-86294486D01*
X104549359Y-86262847D01*
X104641811Y-86208493D01*
X104777405Y-86139712D01*
X104903314Y-86081420D01*
X105474926Y-85807619D01*
X106076758Y-85484342D01*
X106688595Y-85123728D01*
X107290222Y-84737916D01*
X107861425Y-84339047D01*
X108095193Y-84164605D01*
X108617161Y-83743607D01*
X109148105Y-83272423D01*
X109673287Y-82766135D01*
X110177967Y-82239830D01*
X110647406Y-81708591D01*
X111066866Y-81187504D01*
X111261055Y-80924555D01*
X111440921Y-80672495D01*
X111949207Y-80645290D01*
X112871387Y-80564054D01*
X113750024Y-80420255D01*
X114593449Y-80211735D01*
X115409993Y-79936339D01*
X116207986Y-79591909D01*
X116417862Y-79488558D01*
X116846245Y-79272135D01*
X116995735Y-79677823D01*
G37*
X116995735Y-79677823D02*
X117356857Y-80545840D01*
X117785697Y-81376889D01*
X118278874Y-82166684D01*
X118833010Y-82910937D01*
X119444725Y-83605361D01*
X120110640Y-84245668D01*
X120827375Y-84827573D01*
X121336179Y-85183854D01*
X121601869Y-85356435D01*
X121814488Y-85487983D01*
X121985707Y-85583818D01*
X122127194Y-85649263D01*
X122250617Y-85689640D01*
X122367647Y-85710271D01*
X122489951Y-85716477D01*
X122504090Y-85716508D01*
X122640120Y-85710737D01*
X122767134Y-85690116D01*
X122897787Y-85649043D01*
X123044728Y-85581918D01*
X123220610Y-85483141D01*
X123438086Y-85347109D01*
X123644640Y-85211599D01*
X124414386Y-84654371D01*
X125129563Y-84042208D01*
X125787407Y-83378614D01*
X126385151Y-82667093D01*
X126920032Y-81911149D01*
X127389283Y-81114286D01*
X127790141Y-80280007D01*
X128041320Y-79640047D01*
X128171026Y-79276207D01*
X128774290Y-79566730D01*
X129629573Y-79934844D01*
X130510460Y-80227681D01*
X131417280Y-80445325D01*
X132350359Y-80587857D01*
X133049770Y-80644602D01*
X133576844Y-80671964D01*
X133845730Y-81034634D01*
X134086674Y-81352444D01*
X134320234Y-81643987D01*
X134560480Y-81925292D01*
X134821477Y-82212389D01*
X135117295Y-82521308D01*
X135405314Y-82811713D01*
X136100549Y-83470239D01*
X136801111Y-84063557D01*
X137524168Y-84605194D01*
X138286884Y-85108680D01*
X138434765Y-85199367D01*
X138651029Y-85325744D01*
X138912691Y-85471203D01*
X139201412Y-85626213D01*
X139498850Y-85781246D01*
X139786665Y-85926774D01*
X140046517Y-86053268D01*
X140260065Y-86151199D01*
X140299427Y-86168141D01*
X140551707Y-86274985D01*
X140404707Y-86543355D01*
X140114412Y-87005031D01*
X139773422Y-87428626D01*
X139391152Y-87805896D01*
X138977012Y-88128599D01*
X138540417Y-88388493D01*
X138090779Y-88577335D01*
X138076458Y-88582055D01*
X137651230Y-88689216D01*
X137168603Y-88754022D01*
X136638280Y-88776976D01*
X136069966Y-88758580D01*
X135473368Y-88699338D01*
X134858189Y-88599752D01*
X134234135Y-88460326D01*
X133883486Y-88364765D01*
X133659793Y-88299736D01*
X133683784Y-87933943D01*
X133676594Y-87448863D01*
X133592652Y-86976703D01*
X133434634Y-86524798D01*
X133205215Y-86100483D01*
X132907071Y-85711093D01*
X132850575Y-85649776D01*
X132495409Y-85330313D01*
X132099658Y-85075099D01*
X131671989Y-84885817D01*
X131221065Y-84764148D01*
X130755552Y-84711777D01*
X130284115Y-84730386D01*
X129815419Y-84821658D01*
X129382703Y-84976266D01*
X129010099Y-85181149D01*
X128658172Y-85451213D01*
X128340540Y-85772330D01*
X128070822Y-86130371D01*
X127862639Y-86511207D01*
X127830529Y-86586539D01*
X127700206Y-86995687D01*
X127626278Y-87430900D01*
X127609820Y-87871547D01*
X127651907Y-88296997D01*
X127725511Y-88603261D01*
X127873888Y-88981040D01*
X128074137Y-89348049D01*
X128314375Y-89687873D01*
X128582720Y-89984100D01*
X128867290Y-90220313D01*
X128923123Y-90257640D01*
X129004380Y-90309888D01*
X129060697Y-90354810D01*
X129091611Y-90404812D01*
X129096663Y-90472297D01*
X129075389Y-90569670D01*
X129027330Y-90709337D01*
X128952023Y-90903702D01*
X128893584Y-91051693D01*
X128742791Y-91404392D01*
X128561647Y-91779570D01*
X128359802Y-92160334D01*
X128146909Y-92529792D01*
X127932619Y-92871051D01*
X127726584Y-93167218D01*
X127575187Y-93359158D01*
X127500605Y-93441844D01*
X127450654Y-93471469D01*
X127399943Y-93456922D01*
X127362821Y-93433508D01*
X127222587Y-93331218D01*
X127036635Y-93182016D01*
X126815542Y-92995299D01*
X126569886Y-92780464D01*
X126310245Y-92546909D01*
X126047197Y-92304029D01*
X125791319Y-92061223D01*
X125553190Y-91827887D01*
X125535341Y-91810029D01*
X125169697Y-91437235D01*
X124843410Y-91089517D01*
X124539854Y-90747676D01*
X124242405Y-90392516D01*
X123934438Y-90004840D01*
X123651261Y-89634461D01*
X123486750Y-89418543D01*
X123358472Y-89256886D01*
X123256455Y-89138907D01*
X123170726Y-89054020D01*
X123091313Y-88991643D01*
X123008243Y-88941190D01*
X122987743Y-88930250D01*
X122861683Y-88869477D01*
X122755057Y-88836644D01*
X122634894Y-88825295D01*
X122470188Y-88828883D01*
X122292624Y-88843748D01*
X122142581Y-88876428D01*
X122008390Y-88935251D01*
X121878379Y-89028542D01*
X121740878Y-89164628D01*
X121584216Y-89351836D01*
X121402567Y-89590608D01*
X120807040Y-90355083D01*
X120177014Y-91091271D01*
X119526804Y-91783346D01*
X118870724Y-92415482D01*
X118744195Y-92529639D01*
X118534649Y-92714156D01*
X118324663Y-92894728D01*
X118123505Y-93063811D01*
X117940444Y-93213859D01*
X117784747Y-93337329D01*
X117665683Y-93426674D01*
X117592521Y-93474351D01*
X117576489Y-93480220D01*
X117537108Y-93450849D01*
X117466475Y-93374010D01*
X117383687Y-93271207D01*
X117071340Y-92830861D01*
X116769342Y-92346181D01*
X116489066Y-91838393D01*
X116241886Y-91328725D01*
X116039177Y-90838406D01*
X115960812Y-90615552D01*
X115922098Y-90492142D01*
X115909427Y-90422200D01*
X115922741Y-90383965D01*
X115960121Y-90356774D01*
X116294540Y-90121035D01*
X116609476Y-89824461D01*
X116887675Y-89485811D01*
X117111881Y-89123843D01*
X117133705Y-89081004D01*
X117304182Y-88673097D01*
X117406752Y-88262678D01*
X117445786Y-87828617D01*
X117442492Y-87588057D01*
X117413631Y-87240305D01*
X117355175Y-86933573D01*
X117258875Y-86637286D01*
X117116484Y-86320867D01*
X117082719Y-86254358D01*
X116924798Y-86000625D01*
X116713185Y-85736249D01*
X116467509Y-85481635D01*
X116207399Y-85257188D01*
X115960941Y-85088225D01*
X115520639Y-84874409D01*
X115063441Y-84734180D01*
X114597538Y-84666548D01*
X114131121Y-84670521D01*
X113672381Y-84745110D01*
X113229509Y-84889324D01*
X112810696Y-85102172D01*
X112424135Y-85382665D01*
X112257505Y-85536012D01*
X111926568Y-85916508D01*
X111666702Y-86329759D01*
X111479582Y-86771399D01*
X111366885Y-87237059D01*
X111330284Y-87722371D01*
X111338146Y-87932998D01*
X111363850Y-88298677D01*
X111134339Y-88365613D01*
X110531049Y-88522244D01*
X109926596Y-88642219D01*
X109332204Y-88724725D01*
X108759101Y-88768949D01*
X108218510Y-88774079D01*
X107721659Y-88739301D01*
X107279773Y-88663804D01*
X107219446Y-88649050D01*
X106736377Y-88486075D01*
X106268914Y-88251283D01*
X105826338Y-87952229D01*
X105417932Y-87596470D01*
X105052978Y-87191561D01*
X104740756Y-86745056D01*
X104620350Y-86533358D01*
X104562454Y-86417425D01*
X104524252Y-86328084D01*
X104515148Y-86294486D01*
X104549359Y-86262847D01*
X104641811Y-86208493D01*
X104777405Y-86139712D01*
X104903314Y-86081420D01*
X105474926Y-85807619D01*
X106076758Y-85484342D01*
X106688595Y-85123728D01*
X107290222Y-84737916D01*
X107861425Y-84339047D01*
X108095193Y-84164605D01*
X108617161Y-83743607D01*
X109148105Y-83272423D01*
X109673287Y-82766135D01*
X110177967Y-82239830D01*
X110647406Y-81708591D01*
X111066866Y-81187504D01*
X111261055Y-80924555D01*
X111440921Y-80672495D01*
X111949207Y-80645290D01*
X112871387Y-80564054D01*
X113750024Y-80420255D01*
X114593449Y-80211735D01*
X115409993Y-79936339D01*
X116207986Y-79591909D01*
X116417862Y-79488558D01*
X116846245Y-79272135D01*
X116995735Y-79677823D01*
G36*
X114674917Y-86800108D02*
G01*
X114895915Y-86898216D01*
X115088324Y-87045408D01*
X115240924Y-87236556D01*
X115342496Y-87466537D01*
X115381822Y-87730224D01*
X115381920Y-87755979D01*
X115344905Y-88044558D01*
X115239888Y-88292567D01*
X115068233Y-88497681D01*
X114863440Y-88640685D01*
X114676705Y-88716470D01*
X114466200Y-88761827D01*
X114262978Y-88772353D01*
X114109429Y-88747586D01*
X113853494Y-88626571D01*
X113645975Y-88453998D01*
X113492067Y-88241680D01*
X113396967Y-88001425D01*
X113365872Y-87745046D01*
X113403977Y-87484352D01*
X113474823Y-87305203D01*
X113547736Y-87196078D01*
X113654952Y-87072642D01*
X113729409Y-87001013D01*
X113952575Y-86851535D01*
X114192028Y-86771641D01*
X114436548Y-86756208D01*
X114674917Y-86800108D01*
G37*
X114674917Y-86800108D02*
X114895915Y-86898216D01*
X115088324Y-87045408D01*
X115240924Y-87236556D01*
X115342496Y-87466537D01*
X115381822Y-87730224D01*
X115381920Y-87755979D01*
X115344905Y-88044558D01*
X115239888Y-88292567D01*
X115068233Y-88497681D01*
X114863440Y-88640685D01*
X114676705Y-88716470D01*
X114466200Y-88761827D01*
X114262978Y-88772353D01*
X114109429Y-88747586D01*
X113853494Y-88626571D01*
X113645975Y-88453998D01*
X113492067Y-88241680D01*
X113396967Y-88001425D01*
X113365872Y-87745046D01*
X113403977Y-87484352D01*
X113474823Y-87305203D01*
X113547736Y-87196078D01*
X113654952Y-87072642D01*
X113729409Y-87001013D01*
X113952575Y-86851535D01*
X114192028Y-86771641D01*
X114436548Y-86756208D01*
X114674917Y-86800108D01*
G36*
X130867275Y-86783105D02*
G01*
X131094828Y-86863641D01*
X131303074Y-87001468D01*
X131481134Y-87198510D01*
X131557613Y-87323927D01*
X131618416Y-87498947D01*
X131646133Y-87710547D01*
X131640252Y-87927288D01*
X131600260Y-88117735D01*
X131571656Y-88185236D01*
X131429561Y-88392634D01*
X131244673Y-88571454D01*
X131092349Y-88670884D01*
X130904520Y-88736944D01*
X130686745Y-88767408D01*
X130474433Y-88759598D01*
X130341704Y-88727622D01*
X130075693Y-88591448D01*
X129869369Y-88406846D01*
X129726982Y-88180345D01*
X129652785Y-87918472D01*
X129647461Y-87661861D01*
X129705608Y-87395241D01*
X129820588Y-87172441D01*
X129981524Y-86995387D01*
X130177537Y-86866002D01*
X130397752Y-86786210D01*
X130631290Y-86757937D01*
X130867275Y-86783105D01*
G37*
X130867275Y-86783105D02*
X131094828Y-86863641D01*
X131303074Y-87001468D01*
X131481134Y-87198510D01*
X131557613Y-87323927D01*
X131618416Y-87498947D01*
X131646133Y-87710547D01*
X131640252Y-87927288D01*
X131600260Y-88117735D01*
X131571656Y-88185236D01*
X131429561Y-88392634D01*
X131244673Y-88571454D01*
X131092349Y-88670884D01*
X130904520Y-88736944D01*
X130686745Y-88767408D01*
X130474433Y-88759598D01*
X130341704Y-88727622D01*
X130075693Y-88591448D01*
X129869369Y-88406846D01*
X129726982Y-88180345D01*
X129652785Y-87918472D01*
X129647461Y-87661861D01*
X129705608Y-87395241D01*
X129820588Y-87172441D01*
X129981524Y-86995387D01*
X130177537Y-86866002D01*
X130397752Y-86786210D01*
X130631290Y-86757937D01*
X130867275Y-86783105D01*
G36*
X127426761Y-69943204D02*
G01*
X127545913Y-69977954D01*
X127707531Y-70025135D01*
X127894635Y-70079792D01*
X127904514Y-70082679D01*
X128150681Y-70149163D01*
X128429750Y-70216026D01*
X128700725Y-70273790D01*
X128852801Y-70301918D01*
X129035684Y-70333833D01*
X129186940Y-70362063D01*
X129290982Y-70383569D01*
X129332222Y-70395311D01*
X129332274Y-70395382D01*
X129358809Y-70429669D01*
X129426345Y-70515447D01*
X129526324Y-70641888D01*
X129650186Y-70798160D01*
X129736480Y-70906866D01*
X130563545Y-71885842D01*
X131455447Y-72823352D01*
X132405856Y-73713637D01*
X133408441Y-74550939D01*
X134456871Y-75329499D01*
X135010941Y-75704553D01*
X135308203Y-75895047D01*
X135636945Y-76098363D01*
X135979849Y-76304335D01*
X136319602Y-76502795D01*
X136638886Y-76683576D01*
X136920386Y-76836511D01*
X137071207Y-76914320D01*
X137194560Y-76980483D01*
X137283577Y-77036489D01*
X137319925Y-77070739D01*
X137320032Y-77071753D01*
X137291226Y-77118803D01*
X137213416Y-77204082D01*
X137099508Y-77315752D01*
X136962412Y-77441978D01*
X136815036Y-77570920D01*
X136670289Y-77690743D01*
X136541078Y-77789608D01*
X136523793Y-77801927D01*
X136046034Y-78092614D01*
X135524829Y-78325951D01*
X134979337Y-78493787D01*
X134810744Y-78530757D01*
X134618815Y-78559334D01*
X134365484Y-78583165D01*
X134068860Y-78601749D01*
X133747051Y-78614588D01*
X133418166Y-78621182D01*
X133100314Y-78621033D01*
X132811602Y-78613641D01*
X132570140Y-78598507D01*
X132522696Y-78593825D01*
X131790673Y-78481122D01*
X131069315Y-78303813D01*
X130369497Y-78066265D01*
X129702094Y-77772843D01*
X129077983Y-77427913D01*
X128508037Y-77035842D01*
X128370172Y-76926807D01*
X128129983Y-76754632D01*
X127909577Y-76648856D01*
X127695473Y-76603538D01*
X127630450Y-76600843D01*
X127362941Y-76627539D01*
X127133587Y-76715324D01*
X126945008Y-76850697D01*
X126811269Y-76985009D01*
X126710642Y-77130939D01*
X126631853Y-77309783D01*
X126563628Y-77542837D01*
X126550867Y-77595267D01*
X126480868Y-77854737D01*
X126383678Y-78165242D01*
X126266617Y-78506063D01*
X126137005Y-78856478D01*
X126002160Y-79195767D01*
X125905010Y-79423642D01*
X125519144Y-80217745D01*
X125088854Y-80952968D01*
X124616105Y-81626770D01*
X124102866Y-82236609D01*
X123551102Y-82779944D01*
X122962781Y-83254234D01*
X122912979Y-83289983D01*
X122766935Y-83389404D01*
X122639664Y-83467897D01*
X122548029Y-83515502D01*
X122514860Y-83525154D01*
X122435843Y-83502423D01*
X122350753Y-83456706D01*
X121943951Y-83161729D01*
X121527546Y-82816648D01*
X121125405Y-82443079D01*
X120761395Y-82062637D01*
X120586930Y-81859320D01*
X120159371Y-81289069D01*
X119755698Y-80654243D01*
X119382265Y-79967940D01*
X119045427Y-79243255D01*
X118751536Y-78493284D01*
X118506946Y-77731123D01*
X118411708Y-77375930D01*
X118309317Y-77121452D01*
X118146593Y-76907117D01*
X117935951Y-76742598D01*
X117689804Y-76637567D01*
X117420566Y-76601696D01*
X117418088Y-76601717D01*
X117268086Y-76612602D01*
X117127490Y-76647193D01*
X116979905Y-76712974D01*
X116808932Y-76817432D01*
X116598177Y-76968052D01*
X116570896Y-76988485D01*
X115900824Y-77445952D01*
X115207407Y-77827811D01*
X114487238Y-78135406D01*
X113736910Y-78370079D01*
X112953016Y-78533173D01*
X112497304Y-78593827D01*
X112259888Y-78611493D01*
X111970490Y-78620708D01*
X111648103Y-78621998D01*
X111311721Y-78615892D01*
X110980337Y-78602915D01*
X110672945Y-78583595D01*
X110408539Y-78558460D01*
X110219340Y-78530607D01*
X109707097Y-78402025D01*
X109213601Y-78217210D01*
X108758744Y-77984490D01*
X108482226Y-77803532D01*
X108363509Y-77711405D01*
X108225689Y-77595144D01*
X108081661Y-77466853D01*
X107944320Y-77338633D01*
X107826562Y-77222586D01*
X107741283Y-77130816D01*
X107701378Y-77075424D01*
X107699969Y-77069400D01*
X107732890Y-77037856D01*
X107819445Y-76983611D01*
X107941322Y-76918079D01*
X107948793Y-76914320D01*
X108205254Y-76780217D01*
X108510230Y-76611691D01*
X108846306Y-76418965D01*
X109196067Y-76212264D01*
X109542098Y-76001809D01*
X109866985Y-75797825D01*
X110026108Y-75694875D01*
X111096224Y-74947877D01*
X111692207Y-74478095D01*
X114397594Y-74478095D01*
X114410849Y-74765308D01*
X114495743Y-75022882D01*
X114647856Y-75243066D01*
X114862768Y-75418110D01*
X114965353Y-75473765D01*
X115094717Y-75527479D01*
X115215380Y-75553248D01*
X115363281Y-75557067D01*
X115443386Y-75553500D01*
X115605379Y-75536043D01*
X115753262Y-75505887D01*
X115847233Y-75472912D01*
X116074407Y-75314313D01*
X116243620Y-75112337D01*
X116352850Y-74879834D01*
X116400078Y-74629656D01*
X116383284Y-74374654D01*
X116300448Y-74127679D01*
X116149549Y-73901584D01*
X116102178Y-73851051D01*
X115877961Y-73678200D01*
X115630293Y-73576615D01*
X115371157Y-73546259D01*
X115112535Y-73587093D01*
X114866410Y-73699079D01*
X114670491Y-73855634D01*
X114530931Y-74024071D01*
X114445477Y-74206569D01*
X114401935Y-74430943D01*
X114397594Y-74478095D01*
X111692207Y-74478095D01*
X112124356Y-74137455D01*
X113104239Y-73269315D01*
X114029605Y-72349167D01*
X114894188Y-71382716D01*
X115283520Y-70906866D01*
X115418020Y-70737378D01*
X115534019Y-70590911D01*
X115622957Y-70478296D01*
X115676278Y-70410361D01*
X115687727Y-70395382D01*
X115728091Y-70383780D01*
X115831450Y-70362377D01*
X115982217Y-70334212D01*
X116164803Y-70302323D01*
X116167199Y-70301918D01*
X116411002Y-70255123D01*
X116689493Y-70193082D01*
X116961673Y-70125272D01*
X117115486Y-70082679D01*
X117303431Y-70027774D01*
X117466754Y-69980094D01*
X117588474Y-69944592D01*
X117651612Y-69926225D01*
X117652947Y-69925840D01*
X117692657Y-69940774D01*
X117742172Y-70011840D01*
X117806226Y-70146936D01*
X117852006Y-70258003D01*
X118085708Y-70765405D01*
X118380831Y-71278499D01*
X118723735Y-71776411D01*
X119100780Y-72238265D01*
X119254338Y-72404317D01*
X119573256Y-72736509D01*
X119519913Y-73006092D01*
X119483839Y-73284308D01*
X119473327Y-73599933D01*
X119487835Y-73917876D01*
X119526823Y-74203050D01*
X119539276Y-74260659D01*
X119688920Y-74730473D01*
X119904617Y-75161150D01*
X120180659Y-75547265D01*
X120511335Y-75883394D01*
X120890937Y-76164110D01*
X121313758Y-76383988D01*
X121774087Y-76537603D01*
X121981715Y-76581858D01*
X122264656Y-76622798D01*
X122517882Y-76635126D01*
X122777120Y-76618740D01*
X123047851Y-76578882D01*
X123518005Y-76458239D01*
X123952418Y-76269585D01*
X124345962Y-76018413D01*
X124693508Y-75710216D01*
X124989927Y-75350487D01*
X125230091Y-74944718D01*
X125349419Y-74646821D01*
X128618151Y-74646821D01*
X128675313Y-74896841D01*
X128809489Y-75129403D01*
X128933403Y-75267697D01*
X129057790Y-75376029D01*
X129183015Y-75464503D01*
X129278330Y-75512457D01*
X129532671Y-75558590D01*
X129797426Y-75546508D01*
X130039650Y-75477992D01*
X130056571Y-75470358D01*
X130283599Y-75325479D01*
X130454882Y-75136452D01*
X130569692Y-74915946D01*
X130627301Y-74676628D01*
X130626978Y-74431167D01*
X130567995Y-74192232D01*
X130449622Y-73972491D01*
X130271132Y-73784612D01*
X130158115Y-73705980D01*
X129898198Y-73591552D01*
X129635211Y-73550467D01*
X129380246Y-73577837D01*
X129144395Y-73668773D01*
X128938751Y-73818385D01*
X128774405Y-74021786D01*
X128662452Y-74274085D01*
X128637020Y-74376389D01*
X128618151Y-74646821D01*
X125349419Y-74646821D01*
X125408872Y-74498402D01*
X125521140Y-74017033D01*
X125535477Y-73914502D01*
X125554125Y-73747802D01*
X125562487Y-73609149D01*
X125559426Y-73475487D01*
X125543808Y-73323763D01*
X125514496Y-73130920D01*
X125489683Y-72984845D01*
X125446238Y-72733828D01*
X125762762Y-72407573D01*
X126154481Y-71962352D01*
X126517087Y-71468922D01*
X126836447Y-70948904D01*
X127098427Y-70423920D01*
X127167994Y-70258003D01*
X127242672Y-70082062D01*
X127300061Y-69974741D01*
X127344894Y-69928143D01*
X127367053Y-69925840D01*
X127426761Y-69943204D01*
G37*
X127426761Y-69943204D02*
X127545913Y-69977954D01*
X127707531Y-70025135D01*
X127894635Y-70079792D01*
X127904514Y-70082679D01*
X128150681Y-70149163D01*
X128429750Y-70216026D01*
X128700725Y-70273790D01*
X128852801Y-70301918D01*
X129035684Y-70333833D01*
X129186940Y-70362063D01*
X129290982Y-70383569D01*
X129332222Y-70395311D01*
X129332274Y-70395382D01*
X129358809Y-70429669D01*
X129426345Y-70515447D01*
X129526324Y-70641888D01*
X129650186Y-70798160D01*
X129736480Y-70906866D01*
X130563545Y-71885842D01*
X131455447Y-72823352D01*
X132405856Y-73713637D01*
X133408441Y-74550939D01*
X134456871Y-75329499D01*
X135010941Y-75704553D01*
X135308203Y-75895047D01*
X135636945Y-76098363D01*
X135979849Y-76304335D01*
X136319602Y-76502795D01*
X136638886Y-76683576D01*
X136920386Y-76836511D01*
X137071207Y-76914320D01*
X137194560Y-76980483D01*
X137283577Y-77036489D01*
X137319925Y-77070739D01*
X137320032Y-77071753D01*
X137291226Y-77118803D01*
X137213416Y-77204082D01*
X137099508Y-77315752D01*
X136962412Y-77441978D01*
X136815036Y-77570920D01*
X136670289Y-77690743D01*
X136541078Y-77789608D01*
X136523793Y-77801927D01*
X136046034Y-78092614D01*
X135524829Y-78325951D01*
X134979337Y-78493787D01*
X134810744Y-78530757D01*
X134618815Y-78559334D01*
X134365484Y-78583165D01*
X134068860Y-78601749D01*
X133747051Y-78614588D01*
X133418166Y-78621182D01*
X133100314Y-78621033D01*
X132811602Y-78613641D01*
X132570140Y-78598507D01*
X132522696Y-78593825D01*
X131790673Y-78481122D01*
X131069315Y-78303813D01*
X130369497Y-78066265D01*
X129702094Y-77772843D01*
X129077983Y-77427913D01*
X128508037Y-77035842D01*
X128370172Y-76926807D01*
X128129983Y-76754632D01*
X127909577Y-76648856D01*
X127695473Y-76603538D01*
X127630450Y-76600843D01*
X127362941Y-76627539D01*
X127133587Y-76715324D01*
X126945008Y-76850697D01*
X126811269Y-76985009D01*
X126710642Y-77130939D01*
X126631853Y-77309783D01*
X126563628Y-77542837D01*
X126550867Y-77595267D01*
X126480868Y-77854737D01*
X126383678Y-78165242D01*
X126266617Y-78506063D01*
X126137005Y-78856478D01*
X126002160Y-79195767D01*
X125905010Y-79423642D01*
X125519144Y-80217745D01*
X125088854Y-80952968D01*
X124616105Y-81626770D01*
X124102866Y-82236609D01*
X123551102Y-82779944D01*
X122962781Y-83254234D01*
X122912979Y-83289983D01*
X122766935Y-83389404D01*
X122639664Y-83467897D01*
X122548029Y-83515502D01*
X122514860Y-83525154D01*
X122435843Y-83502423D01*
X122350753Y-83456706D01*
X121943951Y-83161729D01*
X121527546Y-82816648D01*
X121125405Y-82443079D01*
X120761395Y-82062637D01*
X120586930Y-81859320D01*
X120159371Y-81289069D01*
X119755698Y-80654243D01*
X119382265Y-79967940D01*
X119045427Y-79243255D01*
X118751536Y-78493284D01*
X118506946Y-77731123D01*
X118411708Y-77375930D01*
X118309317Y-77121452D01*
X118146593Y-76907117D01*
X117935951Y-76742598D01*
X117689804Y-76637567D01*
X117420566Y-76601696D01*
X117418088Y-76601717D01*
X117268086Y-76612602D01*
X117127490Y-76647193D01*
X116979905Y-76712974D01*
X116808932Y-76817432D01*
X116598177Y-76968052D01*
X116570896Y-76988485D01*
X115900824Y-77445952D01*
X115207407Y-77827811D01*
X114487238Y-78135406D01*
X113736910Y-78370079D01*
X112953016Y-78533173D01*
X112497304Y-78593827D01*
X112259888Y-78611493D01*
X111970490Y-78620708D01*
X111648103Y-78621998D01*
X111311721Y-78615892D01*
X110980337Y-78602915D01*
X110672945Y-78583595D01*
X110408539Y-78558460D01*
X110219340Y-78530607D01*
X109707097Y-78402025D01*
X109213601Y-78217210D01*
X108758744Y-77984490D01*
X108482226Y-77803532D01*
X108363509Y-77711405D01*
X108225689Y-77595144D01*
X108081661Y-77466853D01*
X107944320Y-77338633D01*
X107826562Y-77222586D01*
X107741283Y-77130816D01*
X107701378Y-77075424D01*
X107699969Y-77069400D01*
X107732890Y-77037856D01*
X107819445Y-76983611D01*
X107941322Y-76918079D01*
X107948793Y-76914320D01*
X108205254Y-76780217D01*
X108510230Y-76611691D01*
X108846306Y-76418965D01*
X109196067Y-76212264D01*
X109542098Y-76001809D01*
X109866985Y-75797825D01*
X110026108Y-75694875D01*
X111096224Y-74947877D01*
X111692207Y-74478095D01*
X114397594Y-74478095D01*
X114410849Y-74765308D01*
X114495743Y-75022882D01*
X114647856Y-75243066D01*
X114862768Y-75418110D01*
X114965353Y-75473765D01*
X115094717Y-75527479D01*
X115215380Y-75553248D01*
X115363281Y-75557067D01*
X115443386Y-75553500D01*
X115605379Y-75536043D01*
X115753262Y-75505887D01*
X115847233Y-75472912D01*
X116074407Y-75314313D01*
X116243620Y-75112337D01*
X116352850Y-74879834D01*
X116400078Y-74629656D01*
X116383284Y-74374654D01*
X116300448Y-74127679D01*
X116149549Y-73901584D01*
X116102178Y-73851051D01*
X115877961Y-73678200D01*
X115630293Y-73576615D01*
X115371157Y-73546259D01*
X115112535Y-73587093D01*
X114866410Y-73699079D01*
X114670491Y-73855634D01*
X114530931Y-74024071D01*
X114445477Y-74206569D01*
X114401935Y-74430943D01*
X114397594Y-74478095D01*
X111692207Y-74478095D01*
X112124356Y-74137455D01*
X113104239Y-73269315D01*
X114029605Y-72349167D01*
X114894188Y-71382716D01*
X115283520Y-70906866D01*
X115418020Y-70737378D01*
X115534019Y-70590911D01*
X115622957Y-70478296D01*
X115676278Y-70410361D01*
X115687727Y-70395382D01*
X115728091Y-70383780D01*
X115831450Y-70362377D01*
X115982217Y-70334212D01*
X116164803Y-70302323D01*
X116167199Y-70301918D01*
X116411002Y-70255123D01*
X116689493Y-70193082D01*
X116961673Y-70125272D01*
X117115486Y-70082679D01*
X117303431Y-70027774D01*
X117466754Y-69980094D01*
X117588474Y-69944592D01*
X117651612Y-69926225D01*
X117652947Y-69925840D01*
X117692657Y-69940774D01*
X117742172Y-70011840D01*
X117806226Y-70146936D01*
X117852006Y-70258003D01*
X118085708Y-70765405D01*
X118380831Y-71278499D01*
X118723735Y-71776411D01*
X119100780Y-72238265D01*
X119254338Y-72404317D01*
X119573256Y-72736509D01*
X119519913Y-73006092D01*
X119483839Y-73284308D01*
X119473327Y-73599933D01*
X119487835Y-73917876D01*
X119526823Y-74203050D01*
X119539276Y-74260659D01*
X119688920Y-74730473D01*
X119904617Y-75161150D01*
X120180659Y-75547265D01*
X120511335Y-75883394D01*
X120890937Y-76164110D01*
X121313758Y-76383988D01*
X121774087Y-76537603D01*
X121981715Y-76581858D01*
X122264656Y-76622798D01*
X122517882Y-76635126D01*
X122777120Y-76618740D01*
X123047851Y-76578882D01*
X123518005Y-76458239D01*
X123952418Y-76269585D01*
X124345962Y-76018413D01*
X124693508Y-75710216D01*
X124989927Y-75350487D01*
X125230091Y-74944718D01*
X125349419Y-74646821D01*
X128618151Y-74646821D01*
X128675313Y-74896841D01*
X128809489Y-75129403D01*
X128933403Y-75267697D01*
X129057790Y-75376029D01*
X129183015Y-75464503D01*
X129278330Y-75512457D01*
X129532671Y-75558590D01*
X129797426Y-75546508D01*
X130039650Y-75477992D01*
X130056571Y-75470358D01*
X130283599Y-75325479D01*
X130454882Y-75136452D01*
X130569692Y-74915946D01*
X130627301Y-74676628D01*
X130626978Y-74431167D01*
X130567995Y-74192232D01*
X130449622Y-73972491D01*
X130271132Y-73784612D01*
X130158115Y-73705980D01*
X129898198Y-73591552D01*
X129635211Y-73550467D01*
X129380246Y-73577837D01*
X129144395Y-73668773D01*
X128938751Y-73818385D01*
X128774405Y-74021786D01*
X128662452Y-74274085D01*
X128637020Y-74376389D01*
X128618151Y-74646821D01*
X125349419Y-74646821D01*
X125408872Y-74498402D01*
X125521140Y-74017033D01*
X125535477Y-73914502D01*
X125554125Y-73747802D01*
X125562487Y-73609149D01*
X125559426Y-73475487D01*
X125543808Y-73323763D01*
X125514496Y-73130920D01*
X125489683Y-72984845D01*
X125446238Y-72733828D01*
X125762762Y-72407573D01*
X126154481Y-71962352D01*
X126517087Y-71468922D01*
X126836447Y-70948904D01*
X127098427Y-70423920D01*
X127167994Y-70258003D01*
X127242672Y-70082062D01*
X127300061Y-69974741D01*
X127344894Y-69928143D01*
X127367053Y-69925840D01*
X127426761Y-69943204D01*
G36*
X122745399Y-72563103D02*
G01*
X122837884Y-72586482D01*
X122997284Y-72663052D01*
X123164829Y-72789505D01*
X123315854Y-72943173D01*
X123425690Y-73101390D01*
X123446766Y-73145978D01*
X123513544Y-73404180D01*
X123510940Y-73667099D01*
X123444339Y-73919582D01*
X123319131Y-74146476D01*
X123140702Y-74332627D01*
X122990733Y-74428705D01*
X122784091Y-74505594D01*
X122554005Y-74547631D01*
X122339875Y-74548227D01*
X122305480Y-74543324D01*
X122214728Y-74513229D01*
X122088811Y-74454047D01*
X121988414Y-74398150D01*
X121771477Y-74229427D01*
X121623093Y-74022353D01*
X121540209Y-73771793D01*
X121521376Y-73612510D01*
X121522758Y-73376683D01*
X121562757Y-73187615D01*
X121649691Y-73018429D01*
X121742583Y-72897836D01*
X121950107Y-72713868D01*
X122195732Y-72594109D01*
X122465486Y-72542530D01*
X122745399Y-72563103D01*
G37*
X122745399Y-72563103D02*
X122837884Y-72586482D01*
X122997284Y-72663052D01*
X123164829Y-72789505D01*
X123315854Y-72943173D01*
X123425690Y-73101390D01*
X123446766Y-73145978D01*
X123513544Y-73404180D01*
X123510940Y-73667099D01*
X123444339Y-73919582D01*
X123319131Y-74146476D01*
X123140702Y-74332627D01*
X122990733Y-74428705D01*
X122784091Y-74505594D01*
X122554005Y-74547631D01*
X122339875Y-74548227D01*
X122305480Y-74543324D01*
X122214728Y-74513229D01*
X122088811Y-74454047D01*
X121988414Y-74398150D01*
X121771477Y-74229427D01*
X121623093Y-74022353D01*
X121540209Y-73771793D01*
X121521376Y-73612510D01*
X121522758Y-73376683D01*
X121562757Y-73187615D01*
X121649691Y-73018429D01*
X121742583Y-72897836D01*
X121950107Y-72713868D01*
X122195732Y-72594109D01*
X122465486Y-72542530D01*
X122745399Y-72563103D01*
G36*
X124075095Y-63250447D02*
G01*
X124492287Y-63480329D01*
X124845980Y-63674896D01*
X125142403Y-63837270D01*
X125387790Y-63970575D01*
X125588372Y-64077933D01*
X125750379Y-64162467D01*
X125880044Y-64227299D01*
X125983599Y-64275552D01*
X126067274Y-64310349D01*
X126137302Y-64334812D01*
X126199913Y-64352064D01*
X126261340Y-64365229D01*
X126321991Y-64376382D01*
X126627199Y-64395442D01*
X126934522Y-64349906D01*
X127227774Y-64246518D01*
X127490773Y-64092020D01*
X127707333Y-63893153D01*
X127806705Y-63757843D01*
X127866356Y-63671832D01*
X127911819Y-63624476D01*
X127919994Y-63621286D01*
X127959880Y-63644070D01*
X128052063Y-63707156D01*
X128185464Y-63802646D01*
X128349004Y-63922640D01*
X128484067Y-64023436D01*
X129207949Y-64544783D01*
X129989940Y-65066383D01*
X130809586Y-65575541D01*
X131646430Y-66059565D01*
X132480019Y-66505758D01*
X132502790Y-66517418D01*
X132723801Y-66630726D01*
X132919653Y-66731670D01*
X133079656Y-66814696D01*
X133193121Y-66874251D01*
X133249358Y-66904782D01*
X133253407Y-66907386D01*
X133232687Y-66939002D01*
X133165855Y-67015270D01*
X133063326Y-67124767D01*
X132935516Y-67256069D01*
X132934912Y-67256681D01*
X132515975Y-67626780D01*
X132061376Y-67929305D01*
X131577221Y-68162036D01*
X131069616Y-68322756D01*
X130544668Y-68409244D01*
X130008484Y-68419281D01*
X129786556Y-68400753D01*
X129143396Y-68302352D01*
X128526075Y-68153441D01*
X127912237Y-67947658D01*
X127328549Y-67701345D01*
X127136500Y-67616981D01*
X126954045Y-67543932D01*
X126801929Y-67490073D01*
X126701671Y-67463398D01*
X126475678Y-67463682D01*
X126239476Y-67526276D01*
X126019002Y-67642541D01*
X125914643Y-67725495D01*
X125786574Y-67859055D01*
X125694189Y-67998928D01*
X125627393Y-68166697D01*
X125576092Y-68383946D01*
X125557826Y-68488453D01*
X125429834Y-69078957D01*
X125247187Y-69614241D01*
X125008375Y-70098375D01*
X124889409Y-70289781D01*
X124784976Y-70438566D01*
X124666110Y-70594382D01*
X124544176Y-70743923D01*
X124430539Y-70873885D01*
X124336566Y-70970961D01*
X124273621Y-71021844D01*
X124260292Y-71026301D01*
X124208985Y-71007575D01*
X124113862Y-70959365D01*
X124034558Y-70914712D01*
X123599719Y-70706041D01*
X123137332Y-70571541D01*
X122651422Y-70512290D01*
X122517859Y-70509335D01*
X122140467Y-70528771D01*
X121792205Y-70592866D01*
X121444700Y-70708388D01*
X121173210Y-70830052D01*
X121010731Y-70908578D01*
X120875510Y-70972148D01*
X120782899Y-71013658D01*
X120748921Y-71026301D01*
X120712852Y-70998872D01*
X120639686Y-70926708D01*
X120544762Y-70824996D01*
X120537813Y-70817289D01*
X120248052Y-70451302D01*
X119986134Y-70035355D01*
X119768768Y-69598328D01*
X119645192Y-69274577D01*
X119602541Y-69124561D01*
X119554896Y-68925565D01*
X119509061Y-68707352D01*
X119481925Y-68560431D01*
X119421028Y-68262618D01*
X119354383Y-68043165D01*
X119303604Y-67934664D01*
X119146944Y-67741206D01*
X118938166Y-67589690D01*
X118697863Y-67489976D01*
X118446627Y-67451922D01*
X118313321Y-67460533D01*
X118199131Y-67489984D01*
X118040793Y-67546762D01*
X117864565Y-67621007D01*
X117778384Y-67661388D01*
X117106371Y-67952245D01*
X116424552Y-68173067D01*
X115714020Y-68329502D01*
X115364005Y-68382491D01*
X114799320Y-68418505D01*
X114251972Y-68377307D01*
X113725443Y-68260092D01*
X113223213Y-68068057D01*
X112748764Y-67802398D01*
X112305578Y-67464312D01*
X112083752Y-67255358D01*
X111749824Y-66917981D01*
X112541589Y-66509503D01*
X113817589Y-65812856D01*
X115034409Y-65069425D01*
X116200972Y-64273677D01*
X116496793Y-64057793D01*
X117108386Y-63605314D01*
X117169819Y-63702876D01*
X117285866Y-63850221D01*
X117445735Y-64006314D01*
X117621222Y-64145956D01*
X117764936Y-64234597D01*
X118075284Y-64349737D01*
X118406833Y-64397439D01*
X118738795Y-64376268D01*
X118966740Y-64317454D01*
X119028863Y-64288783D01*
X119153211Y-64225464D01*
X119332376Y-64131466D01*
X119558950Y-64010756D01*
X119825527Y-63867305D01*
X120124699Y-63705080D01*
X120449058Y-63528052D01*
X120791197Y-63340189D01*
X120810518Y-63329547D01*
X122514955Y-62390573D01*
X124075095Y-63250447D01*
G37*
X124075095Y-63250447D02*
X124492287Y-63480329D01*
X124845980Y-63674896D01*
X125142403Y-63837270D01*
X125387790Y-63970575D01*
X125588372Y-64077933D01*
X125750379Y-64162467D01*
X125880044Y-64227299D01*
X125983599Y-64275552D01*
X126067274Y-64310349D01*
X126137302Y-64334812D01*
X126199913Y-64352064D01*
X126261340Y-64365229D01*
X126321991Y-64376382D01*
X126627199Y-64395442D01*
X126934522Y-64349906D01*
X127227774Y-64246518D01*
X127490773Y-64092020D01*
X127707333Y-63893153D01*
X127806705Y-63757843D01*
X127866356Y-63671832D01*
X127911819Y-63624476D01*
X127919994Y-63621286D01*
X127959880Y-63644070D01*
X128052063Y-63707156D01*
X128185464Y-63802646D01*
X128349004Y-63922640D01*
X128484067Y-64023436D01*
X129207949Y-64544783D01*
X129989940Y-65066383D01*
X130809586Y-65575541D01*
X131646430Y-66059565D01*
X132480019Y-66505758D01*
X132502790Y-66517418D01*
X132723801Y-66630726D01*
X132919653Y-66731670D01*
X133079656Y-66814696D01*
X133193121Y-66874251D01*
X133249358Y-66904782D01*
X133253407Y-66907386D01*
X133232687Y-66939002D01*
X133165855Y-67015270D01*
X133063326Y-67124767D01*
X132935516Y-67256069D01*
X132934912Y-67256681D01*
X132515975Y-67626780D01*
X132061376Y-67929305D01*
X131577221Y-68162036D01*
X131069616Y-68322756D01*
X130544668Y-68409244D01*
X130008484Y-68419281D01*
X129786556Y-68400753D01*
X129143396Y-68302352D01*
X128526075Y-68153441D01*
X127912237Y-67947658D01*
X127328549Y-67701345D01*
X127136500Y-67616981D01*
X126954045Y-67543932D01*
X126801929Y-67490073D01*
X126701671Y-67463398D01*
X126475678Y-67463682D01*
X126239476Y-67526276D01*
X126019002Y-67642541D01*
X125914643Y-67725495D01*
X125786574Y-67859055D01*
X125694189Y-67998928D01*
X125627393Y-68166697D01*
X125576092Y-68383946D01*
X125557826Y-68488453D01*
X125429834Y-69078957D01*
X125247187Y-69614241D01*
X125008375Y-70098375D01*
X124889409Y-70289781D01*
X124784976Y-70438566D01*
X124666110Y-70594382D01*
X124544176Y-70743923D01*
X124430539Y-70873885D01*
X124336566Y-70970961D01*
X124273621Y-71021844D01*
X124260292Y-71026301D01*
X124208985Y-71007575D01*
X124113862Y-70959365D01*
X124034558Y-70914712D01*
X123599719Y-70706041D01*
X123137332Y-70571541D01*
X122651422Y-70512290D01*
X122517859Y-70509335D01*
X122140467Y-70528771D01*
X121792205Y-70592866D01*
X121444700Y-70708388D01*
X121173210Y-70830052D01*
X121010731Y-70908578D01*
X120875510Y-70972148D01*
X120782899Y-71013658D01*
X120748921Y-71026301D01*
X120712852Y-70998872D01*
X120639686Y-70926708D01*
X120544762Y-70824996D01*
X120537813Y-70817289D01*
X120248052Y-70451302D01*
X119986134Y-70035355D01*
X119768768Y-69598328D01*
X119645192Y-69274577D01*
X119602541Y-69124561D01*
X119554896Y-68925565D01*
X119509061Y-68707352D01*
X119481925Y-68560431D01*
X119421028Y-68262618D01*
X119354383Y-68043165D01*
X119303604Y-67934664D01*
X119146944Y-67741206D01*
X118938166Y-67589690D01*
X118697863Y-67489976D01*
X118446627Y-67451922D01*
X118313321Y-67460533D01*
X118199131Y-67489984D01*
X118040793Y-67546762D01*
X117864565Y-67621007D01*
X117778384Y-67661388D01*
X117106371Y-67952245D01*
X116424552Y-68173067D01*
X115714020Y-68329502D01*
X115364005Y-68382491D01*
X114799320Y-68418505D01*
X114251972Y-68377307D01*
X113725443Y-68260092D01*
X113223213Y-68068057D01*
X112748764Y-67802398D01*
X112305578Y-67464312D01*
X112083752Y-67255358D01*
X111749824Y-66917981D01*
X112541589Y-66509503D01*
X113817589Y-65812856D01*
X115034409Y-65069425D01*
X116200972Y-64273677D01*
X116496793Y-64057793D01*
X117108386Y-63605314D01*
X117169819Y-63702876D01*
X117285866Y-63850221D01*
X117445735Y-64006314D01*
X117621222Y-64145956D01*
X117764936Y-64234597D01*
X118075284Y-64349737D01*
X118406833Y-64397439D01*
X118738795Y-64376268D01*
X118966740Y-64317454D01*
X119028863Y-64288783D01*
X119153211Y-64225464D01*
X119332376Y-64131466D01*
X119558950Y-64010756D01*
X119825527Y-63867305D01*
X120124699Y-63705080D01*
X120449058Y-63528052D01*
X120791197Y-63340189D01*
X120810518Y-63329547D01*
X122514955Y-62390573D01*
X124075095Y-63250447D01*
G36*
X123186619Y-52252256D02*
G01*
X123373832Y-52647666D01*
X123530932Y-52977848D01*
X123661639Y-53249653D01*
X123769674Y-53469929D01*
X123858756Y-53645529D01*
X123932605Y-53783300D01*
X123994943Y-53890095D01*
X124049488Y-53972762D01*
X124099962Y-54038152D01*
X124150085Y-54093116D01*
X124203577Y-54144502D01*
X124224750Y-54163784D01*
X124314308Y-54241465D01*
X124402662Y-54308265D01*
X124497756Y-54366357D01*
X124607535Y-54417916D01*
X124739943Y-54465118D01*
X124902927Y-54510137D01*
X125104430Y-54555147D01*
X125352398Y-54602323D01*
X125654775Y-54653840D01*
X126019506Y-54711872D01*
X126454536Y-54778595D01*
X126491191Y-54784158D01*
X126839348Y-54837173D01*
X127162187Y-54886733D01*
X127451400Y-54931532D01*
X127698680Y-54970266D01*
X127895720Y-55001628D01*
X128034212Y-55024315D01*
X128105849Y-55037022D01*
X128114031Y-55039093D01*
X128089313Y-55068750D01*
X128014391Y-55149370D01*
X127894873Y-55275127D01*
X127736369Y-55440193D01*
X127544485Y-55638743D01*
X127324830Y-55864949D01*
X127083012Y-56112987D01*
X126914319Y-56285491D01*
X126614233Y-56592680D01*
X126365062Y-56849601D01*
X126161416Y-57062291D01*
X125997907Y-57236783D01*
X125869147Y-57379113D01*
X125769745Y-57495314D01*
X125694313Y-57591423D01*
X125637462Y-57673474D01*
X125593803Y-57747501D01*
X125573382Y-57787143D01*
X125522046Y-57897087D01*
X125481275Y-58002651D01*
X125451392Y-58111802D01*
X125432720Y-58232510D01*
X125425585Y-58372740D01*
X125430309Y-58540461D01*
X125447216Y-58743640D01*
X125476630Y-58990246D01*
X125518875Y-59288245D01*
X125574273Y-59645605D01*
X125643149Y-60070295D01*
X125673656Y-60255423D01*
X125730549Y-60602539D01*
X125782657Y-60925921D01*
X125828661Y-61216968D01*
X125867243Y-61467079D01*
X125897082Y-61667654D01*
X125916860Y-61810091D01*
X125925255Y-61885791D01*
X125925212Y-61895166D01*
X125888376Y-61889799D01*
X125787907Y-61847295D01*
X125629122Y-61770340D01*
X125417338Y-61661621D01*
X125157874Y-61523822D01*
X124856047Y-61359629D01*
X124759373Y-61306366D01*
X124339611Y-61074796D01*
X123982578Y-60879229D01*
X123681435Y-60716933D01*
X123429345Y-60585177D01*
X123219467Y-60481230D01*
X123044965Y-60402360D01*
X122898999Y-60345835D01*
X122774731Y-60308925D01*
X122665322Y-60288897D01*
X122563935Y-60283021D01*
X122463731Y-60288564D01*
X122357870Y-60302796D01*
X122279751Y-60315940D01*
X122204604Y-60329546D01*
X122135457Y-60344675D01*
X122064991Y-60364889D01*
X121985886Y-60393756D01*
X121890824Y-60434839D01*
X121772486Y-60491704D01*
X121623554Y-60567915D01*
X121436707Y-60667038D01*
X121204629Y-60792636D01*
X120919999Y-60948276D01*
X120575499Y-61137521D01*
X120439781Y-61212161D01*
X120095696Y-61401471D01*
X119815046Y-61555854D01*
X119591415Y-61678607D01*
X119418387Y-61773023D01*
X119289546Y-61842396D01*
X119198477Y-61890022D01*
X119138762Y-61919194D01*
X119103987Y-61933208D01*
X119087736Y-61935358D01*
X119083592Y-61928938D01*
X119085139Y-61917243D01*
X119086176Y-61907227D01*
X119092441Y-61859379D01*
X119110325Y-61741527D01*
X119138461Y-61562222D01*
X119175483Y-61330018D01*
X119220024Y-61053467D01*
X119270717Y-60741122D01*
X119326195Y-60401536D01*
X119348829Y-60263585D01*
X119422340Y-59812014D01*
X119482318Y-59430798D01*
X119529136Y-59111893D01*
X119563168Y-58847252D01*
X119584785Y-58628831D01*
X119594359Y-58448585D01*
X119592264Y-58298468D01*
X119578871Y-58170434D01*
X119554553Y-58056440D01*
X119519683Y-57948440D01*
X119474632Y-57838388D01*
X119462372Y-57810833D01*
X119429270Y-57743211D01*
X119387853Y-57672933D01*
X119332813Y-57594007D01*
X119258842Y-57500443D01*
X119160631Y-57386249D01*
X119032872Y-57245433D01*
X118870257Y-57072005D01*
X118667478Y-56859973D01*
X118419227Y-56603346D01*
X118121997Y-56297980D01*
X117867946Y-56036589D01*
X117633022Y-55793208D01*
X117422679Y-55573610D01*
X117242374Y-55383570D01*
X117097560Y-55228862D01*
X116993694Y-55115260D01*
X116936231Y-55048539D01*
X116926654Y-55032769D01*
X116971250Y-55024971D01*
X117086019Y-55006540D01*
X117262414Y-54978803D01*
X117491888Y-54943089D01*
X117765893Y-54900727D01*
X118075882Y-54853046D01*
X118413309Y-54801373D01*
X118528809Y-54783734D01*
X118878789Y-54729755D01*
X119208680Y-54677784D01*
X119509126Y-54629376D01*
X119770770Y-54586086D01*
X119984258Y-54549469D01*
X120140232Y-54521077D01*
X120229338Y-54502467D01*
X120240721Y-54499320D01*
X120494474Y-54384666D01*
X120740593Y-54212963D01*
X120952832Y-54004581D01*
X121054957Y-53867367D01*
X121092432Y-53799377D01*
X121159028Y-53668483D01*
X121250236Y-53483952D01*
X121361546Y-53255053D01*
X121488445Y-52991053D01*
X121626424Y-52701220D01*
X121752498Y-52434138D01*
X121896228Y-52128756D01*
X122032210Y-51840429D01*
X122156002Y-51578534D01*
X122263162Y-51352444D01*
X122349245Y-51171535D01*
X122409810Y-51045183D01*
X122438277Y-50986953D01*
X122515704Y-50833654D01*
X123186619Y-52252256D01*
G37*
X123186619Y-52252256D02*
X123373832Y-52647666D01*
X123530932Y-52977848D01*
X123661639Y-53249653D01*
X123769674Y-53469929D01*
X123858756Y-53645529D01*
X123932605Y-53783300D01*
X123994943Y-53890095D01*
X124049488Y-53972762D01*
X124099962Y-54038152D01*
X124150085Y-54093116D01*
X124203577Y-54144502D01*
X124224750Y-54163784D01*
X124314308Y-54241465D01*
X124402662Y-54308265D01*
X124497756Y-54366357D01*
X124607535Y-54417916D01*
X124739943Y-54465118D01*
X124902927Y-54510137D01*
X125104430Y-54555147D01*
X125352398Y-54602323D01*
X125654775Y-54653840D01*
X126019506Y-54711872D01*
X126454536Y-54778595D01*
X126491191Y-54784158D01*
X126839348Y-54837173D01*
X127162187Y-54886733D01*
X127451400Y-54931532D01*
X127698680Y-54970266D01*
X127895720Y-55001628D01*
X128034212Y-55024315D01*
X128105849Y-55037022D01*
X128114031Y-55039093D01*
X128089313Y-55068750D01*
X128014391Y-55149370D01*
X127894873Y-55275127D01*
X127736369Y-55440193D01*
X127544485Y-55638743D01*
X127324830Y-55864949D01*
X127083012Y-56112987D01*
X126914319Y-56285491D01*
X126614233Y-56592680D01*
X126365062Y-56849601D01*
X126161416Y-57062291D01*
X125997907Y-57236783D01*
X125869147Y-57379113D01*
X125769745Y-57495314D01*
X125694313Y-57591423D01*
X125637462Y-57673474D01*
X125593803Y-57747501D01*
X125573382Y-57787143D01*
X125522046Y-57897087D01*
X125481275Y-58002651D01*
X125451392Y-58111802D01*
X125432720Y-58232510D01*
X125425585Y-58372740D01*
X125430309Y-58540461D01*
X125447216Y-58743640D01*
X125476630Y-58990246D01*
X125518875Y-59288245D01*
X125574273Y-59645605D01*
X125643149Y-60070295D01*
X125673656Y-60255423D01*
X125730549Y-60602539D01*
X125782657Y-60925921D01*
X125828661Y-61216968D01*
X125867243Y-61467079D01*
X125897082Y-61667654D01*
X125916860Y-61810091D01*
X125925255Y-61885791D01*
X125925212Y-61895166D01*
X125888376Y-61889799D01*
X125787907Y-61847295D01*
X125629122Y-61770340D01*
X125417338Y-61661621D01*
X125157874Y-61523822D01*
X124856047Y-61359629D01*
X124759373Y-61306366D01*
X124339611Y-61074796D01*
X123982578Y-60879229D01*
X123681435Y-60716933D01*
X123429345Y-60585177D01*
X123219467Y-60481230D01*
X123044965Y-60402360D01*
X122898999Y-60345835D01*
X122774731Y-60308925D01*
X122665322Y-60288897D01*
X122563935Y-60283021D01*
X122463731Y-60288564D01*
X122357870Y-60302796D01*
X122279751Y-60315940D01*
X122204604Y-60329546D01*
X122135457Y-60344675D01*
X122064991Y-60364889D01*
X121985886Y-60393756D01*
X121890824Y-60434839D01*
X121772486Y-60491704D01*
X121623554Y-60567915D01*
X121436707Y-60667038D01*
X121204629Y-60792636D01*
X120919999Y-60948276D01*
X120575499Y-61137521D01*
X120439781Y-61212161D01*
X120095696Y-61401471D01*
X119815046Y-61555854D01*
X119591415Y-61678607D01*
X119418387Y-61773023D01*
X119289546Y-61842396D01*
X119198477Y-61890022D01*
X119138762Y-61919194D01*
X119103987Y-61933208D01*
X119087736Y-61935358D01*
X119083592Y-61928938D01*
X119085139Y-61917243D01*
X119086176Y-61907227D01*
X119092441Y-61859379D01*
X119110325Y-61741527D01*
X119138461Y-61562222D01*
X119175483Y-61330018D01*
X119220024Y-61053467D01*
X119270717Y-60741122D01*
X119326195Y-60401536D01*
X119348829Y-60263585D01*
X119422340Y-59812014D01*
X119482318Y-59430798D01*
X119529136Y-59111893D01*
X119563168Y-58847252D01*
X119584785Y-58628831D01*
X119594359Y-58448585D01*
X119592264Y-58298468D01*
X119578871Y-58170434D01*
X119554553Y-58056440D01*
X119519683Y-57948440D01*
X119474632Y-57838388D01*
X119462372Y-57810833D01*
X119429270Y-57743211D01*
X119387853Y-57672933D01*
X119332813Y-57594007D01*
X119258842Y-57500443D01*
X119160631Y-57386249D01*
X119032872Y-57245433D01*
X118870257Y-57072005D01*
X118667478Y-56859973D01*
X118419227Y-56603346D01*
X118121997Y-56297980D01*
X117867946Y-56036589D01*
X117633022Y-55793208D01*
X117422679Y-55573610D01*
X117242374Y-55383570D01*
X117097560Y-55228862D01*
X116993694Y-55115260D01*
X116936231Y-55048539D01*
X116926654Y-55032769D01*
X116971250Y-55024971D01*
X117086019Y-55006540D01*
X117262414Y-54978803D01*
X117491888Y-54943089D01*
X117765893Y-54900727D01*
X118075882Y-54853046D01*
X118413309Y-54801373D01*
X118528809Y-54783734D01*
X118878789Y-54729755D01*
X119208680Y-54677784D01*
X119509126Y-54629376D01*
X119770770Y-54586086D01*
X119984258Y-54549469D01*
X120140232Y-54521077D01*
X120229338Y-54502467D01*
X120240721Y-54499320D01*
X120494474Y-54384666D01*
X120740593Y-54212963D01*
X120952832Y-54004581D01*
X121054957Y-53867367D01*
X121092432Y-53799377D01*
X121159028Y-53668483D01*
X121250236Y-53483952D01*
X121361546Y-53255053D01*
X121488445Y-52991053D01*
X121626424Y-52701220D01*
X121752498Y-52434138D01*
X121896228Y-52128756D01*
X122032210Y-51840429D01*
X122156002Y-51578534D01*
X122263162Y-51352444D01*
X122349245Y-51171535D01*
X122409810Y-51045183D01*
X122438277Y-50986953D01*
X122515704Y-50833654D01*
X123186619Y-52252256D01*
G36*
X122665595Y-96920456D02*
G01*
X122917782Y-96992978D01*
X123145495Y-97131773D01*
X123265223Y-97247158D01*
X123411609Y-97453175D01*
X123491634Y-97672189D01*
X123514990Y-97919248D01*
X123478874Y-98201945D01*
X123375605Y-98449191D01*
X123212801Y-98652905D01*
X122998081Y-98805009D01*
X122739063Y-98897423D01*
X122570889Y-98920530D01*
X122365663Y-98917466D01*
X122193426Y-98884292D01*
X122176675Y-98878443D01*
X121939485Y-98752123D01*
X121752893Y-98576580D01*
X121618855Y-98364494D01*
X121539328Y-98128546D01*
X121516267Y-97881415D01*
X121551629Y-97635783D01*
X121647370Y-97404330D01*
X121805446Y-97199735D01*
X121904543Y-97114414D01*
X122144740Y-96979785D01*
X122403169Y-96915595D01*
X122665595Y-96920456D01*
G37*
X122665595Y-96920456D02*
X122917782Y-96992978D01*
X123145495Y-97131773D01*
X123265223Y-97247158D01*
X123411609Y-97453175D01*
X123491634Y-97672189D01*
X123514990Y-97919248D01*
X123478874Y-98201945D01*
X123375605Y-98449191D01*
X123212801Y-98652905D01*
X122998081Y-98805009D01*
X122739063Y-98897423D01*
X122570889Y-98920530D01*
X122365663Y-98917466D01*
X122193426Y-98884292D01*
X122176675Y-98878443D01*
X121939485Y-98752123D01*
X121752893Y-98576580D01*
X121618855Y-98364494D01*
X121539328Y-98128546D01*
X121516267Y-97881415D01*
X121551629Y-97635783D01*
X121647370Y-97404330D01*
X121805446Y-97199735D01*
X121904543Y-97114414D01*
X122144740Y-96979785D01*
X122403169Y-96915595D01*
X122665595Y-96920456D01*
D11*
X122400000Y-45600000D03*
M02*
