G04 #@! TF.GenerationSoftware,KiCad,Pcbnew,(5.1.6)-1*
G04 #@! TF.CreationDate,2020-12-04T21:52:10+01:00*
G04 #@! TF.ProjectId,case_julgran,63617365-5f6a-4756-9c67-72616e2e6b69,rev?*
G04 #@! TF.SameCoordinates,Original*
G04 #@! TF.FileFunction,Profile,NP*
%FSLAX46Y46*%
G04 Gerber Fmt 4.6, Leading zero omitted, Abs format (unit mm)*
G04 Created by KiCad (PCBNEW (5.1.6)-1) date 2020-12-04 21:52:10*
%MOMM*%
%LPD*%
G01*
G04 APERTURE LIST*
G04 #@! TA.AperFunction,Profile*
%ADD10C,0.100000*%
G04 #@! TD*
G04 APERTURE END LIST*
D10*
X101329044Y-107913939D02*
X102426937Y-107932240D01*
X98594659Y-107256561D02*
X101329044Y-107913939D01*
X95114193Y-92371505D02*
X94581105Y-92659914D01*
X104493413Y-71205866D02*
X104127803Y-71364029D01*
X91634763Y-99376924D02*
X91887973Y-100400778D01*
X91366486Y-98303697D02*
X91634763Y-99376924D01*
X104127803Y-71364029D02*
X103479663Y-71637323D01*
X93580843Y-93208445D02*
X91792460Y-95469592D01*
X103479663Y-71637323D02*
X102111380Y-72680329D01*
X94581105Y-92659914D02*
X93580843Y-93208445D01*
X101469360Y-80246214D02*
X101222255Y-80340597D01*
X100440656Y-76409450D02*
X100567640Y-78111551D01*
X97850225Y-88063512D02*
X98435575Y-89484657D01*
X98435575Y-89484657D02*
X98586953Y-89742889D01*
X98189969Y-90151201D02*
X95114193Y-92371505D01*
X100567640Y-78111551D02*
X100839950Y-78919524D01*
X98586953Y-89742889D02*
X98189969Y-90151201D01*
X91792460Y-95469592D02*
X91366486Y-98303697D01*
X97671852Y-87428470D02*
X97850225Y-88063512D01*
X97920214Y-83145364D02*
X97361694Y-86189063D01*
X101154274Y-79713846D02*
X101469360Y-80246214D01*
X100839950Y-78919524D02*
X101154274Y-79713846D01*
X100931867Y-74396086D02*
X100440656Y-76409450D01*
X102111380Y-72680329D02*
X100931867Y-74396086D01*
X97361694Y-86189063D02*
X97671852Y-87428470D01*
X101222255Y-80340597D02*
X100017769Y-80846788D01*
X95515756Y-105534083D02*
X98594659Y-107256561D01*
X93142090Y-102920442D02*
X95515756Y-105534083D01*
X100017769Y-80846788D02*
X97920214Y-83145364D01*
X91887973Y-100400778D02*
X93142090Y-102920442D01*
X141600777Y-71645033D02*
X140954136Y-71368549D01*
X142958493Y-72679985D02*
X141600777Y-71645033D01*
X139414801Y-70502392D02*
X139807210Y-69869875D01*
X104648507Y-68405983D02*
X104957013Y-69170554D01*
X106064008Y-62722042D02*
X104872143Y-64520766D01*
X133874724Y-59729226D02*
X133869147Y-59725186D01*
X116107506Y-48670000D02*
X115088963Y-48825153D01*
X136498872Y-61160896D02*
X133874724Y-59729226D01*
X145055254Y-80848886D02*
X143855634Y-80339829D01*
X134915361Y-52313765D02*
X133315670Y-50206295D01*
X140575671Y-71205031D02*
X139414801Y-70502392D01*
X104432483Y-66639147D02*
X104648507Y-68405983D01*
X107464441Y-61631129D02*
X106064008Y-62722042D01*
X140121842Y-69154889D02*
X140425562Y-68379469D01*
X111196838Y-59729238D02*
X108572747Y-61160885D01*
X121392480Y-43833237D02*
X118891940Y-44803044D01*
X108572747Y-61160885D02*
X108149036Y-61342270D01*
X110699635Y-59215888D02*
X111201170Y-59726100D01*
X109555376Y-56803750D02*
X110699635Y-59215888D01*
X110143927Y-52329102D02*
X109851728Y-53232614D01*
X128963978Y-48669875D02*
X128460329Y-47600344D01*
X140425562Y-68379469D02*
X140637932Y-66637807D01*
X115088963Y-48825153D02*
X114113290Y-48969276D01*
X122535869Y-43833237D02*
X121392480Y-43833237D01*
X123678080Y-43833237D02*
X122535869Y-43833237D01*
X135218956Y-53229741D02*
X134915361Y-52313765D01*
X109851728Y-53232614D02*
X109543298Y-54129726D01*
X105259411Y-69863968D02*
X105655690Y-70501998D01*
X144505081Y-78085608D02*
X144629779Y-76407965D01*
X104957013Y-69170554D02*
X105259411Y-69863968D01*
X126178621Y-44803044D02*
X123678080Y-43833237D01*
X128036759Y-46695859D02*
X126178621Y-44803044D01*
X136933893Y-61347128D02*
X136498872Y-61160896D01*
X133869147Y-59725186D02*
X134378906Y-59199951D01*
X108149036Y-61342270D02*
X107464441Y-61631129D01*
X109543298Y-54129726D02*
X109555376Y-56803750D01*
X143600950Y-80242768D02*
X143902893Y-79738688D01*
X117023117Y-46706744D02*
X116604903Y-47613745D01*
X133315670Y-50206295D02*
X130958449Y-48970319D01*
X135525931Y-54141674D02*
X135218956Y-53229741D01*
X137615132Y-61638649D02*
X136933893Y-61347128D01*
X143855634Y-80339829D02*
X143600950Y-80242768D01*
X144236353Y-78910074D02*
X144505081Y-78085608D01*
X143902893Y-79738688D02*
X144236353Y-78910074D01*
X130958449Y-48970319D02*
X129986413Y-48825576D01*
X104872143Y-64520766D02*
X104432483Y-66639147D01*
X111201170Y-59726100D02*
X111196838Y-59729238D01*
X135517878Y-56799112D02*
X135525931Y-54141674D01*
X139006399Y-62721519D02*
X137615132Y-61638649D01*
X147146184Y-83133538D02*
X145055254Y-80848886D01*
X116604903Y-47613745D02*
X116107506Y-48670000D01*
X140198123Y-64520876D02*
X139006399Y-62721519D01*
X144629779Y-76407965D02*
X144137960Y-74394860D01*
X128460329Y-47600344D02*
X128036759Y-46695859D01*
X140954136Y-71368549D02*
X140575671Y-71205031D01*
X140637932Y-66637807D02*
X140198123Y-64520876D01*
X129986413Y-48825576D02*
X128963978Y-48669875D01*
X118891940Y-44803044D02*
X117023117Y-46706744D01*
X144137960Y-74394860D02*
X142958493Y-72679985D01*
X139807210Y-69869875D02*
X140121842Y-69154889D01*
X111754133Y-50209056D02*
X110143927Y-52329102D01*
X105655690Y-70501998D02*
X104493413Y-71205866D01*
X114113290Y-48969276D02*
X111754133Y-50209056D01*
X134378906Y-59199951D02*
X135517878Y-56799112D01*
X153182892Y-100399233D02*
X153443765Y-99346226D01*
X147711795Y-86184471D02*
X147146184Y-83133538D01*
X147396404Y-87437790D02*
X147711795Y-86184471D01*
X146634859Y-89481271D02*
X147216433Y-88069213D01*
X146881440Y-90148037D02*
X146483740Y-89739113D01*
X151494414Y-93206850D02*
X150488408Y-92655638D01*
X153699342Y-98270322D02*
X153278543Y-95471233D01*
X153443765Y-99346226D02*
X153699342Y-98270322D01*
X139086973Y-109976681D02*
X139588272Y-109236898D01*
X133480860Y-111880480D02*
X134411866Y-111940000D01*
X143741673Y-107913917D02*
X146476998Y-107256280D01*
X146476998Y-107256280D02*
X149556484Y-105531665D01*
X151928262Y-102917981D02*
X153182892Y-100399233D01*
X134411866Y-111940000D02*
X135507851Y-111940000D01*
X149556484Y-105531665D02*
X151928262Y-102917981D01*
X149955420Y-92367667D02*
X146881440Y-90148037D01*
X150488408Y-92655638D02*
X149955420Y-92367667D01*
X140430137Y-107704184D02*
X141764456Y-107934516D01*
X137498643Y-111270601D02*
X139086973Y-109976681D01*
X135507851Y-111940000D02*
X137498643Y-111270601D01*
X142644835Y-107932240D02*
X143741673Y-107913917D01*
X131414617Y-111491685D02*
X133480860Y-111880480D01*
X141764456Y-107934516D02*
X142644835Y-107932240D01*
X139588272Y-109236898D02*
X140006112Y-108578198D01*
X146483740Y-89739113D02*
X146634859Y-89481271D01*
X153278543Y-95471233D02*
X151494414Y-93206850D01*
X140006112Y-108578198D02*
X140430137Y-107704184D01*
X147216433Y-88069213D02*
X147396404Y-87437790D01*
X125043786Y-113395496D02*
X125733047Y-113077092D01*
X119339675Y-113078539D02*
X120016774Y-113390419D01*
X125733047Y-113077092D02*
X127450414Y-112023140D01*
X129072865Y-110663773D02*
X131414617Y-111491685D01*
X107632193Y-111321780D02*
X109676262Y-111940000D01*
X127450414Y-112023140D02*
X129072865Y-110663773D01*
X123975433Y-113879918D02*
X125043786Y-113395496D01*
X121080766Y-113879918D02*
X123975433Y-113879918D01*
X117619950Y-112023140D02*
X119339675Y-113078539D01*
X120016774Y-113390419D02*
X121080766Y-113879918D01*
X102426937Y-107932240D02*
X103306543Y-107934520D01*
X115997474Y-110663752D02*
X117619950Y-112023140D01*
X113655978Y-111491666D02*
X115997474Y-110663752D01*
X111590005Y-111880416D02*
X113655978Y-111491666D01*
X103306543Y-107934520D02*
X104637698Y-107704497D01*
X109676262Y-111940000D02*
X110660000Y-111940000D01*
X105979553Y-109975279D02*
X107632193Y-111321780D01*
X105481306Y-109238767D02*
X105979553Y-109975279D01*
X104637698Y-107704497D02*
X105062642Y-108581236D01*
X105062642Y-108581236D02*
X105481306Y-109238767D01*
X110660000Y-111940000D02*
X111590005Y-111880416D01*
M02*
