%TF.GenerationSoftware,KiCad,Pcbnew,(5.1.6)-1*%
%TF.CreationDate,2020-12-04T21:40:29+01:00*%
%TF.ProjectId,case_julgran_LED,63617365-5f6a-4756-9c67-72616e5f4c45,rev?*%
%TF.SameCoordinates,Original*%
%TF.FileFunction,Copper,L1,Top*%
%TF.FilePolarity,Positive*%
%FSLAX46Y46*%
G04 Gerber Fmt 4.6, Leading zero omitted, Abs format (unit mm)*
G04 Created by KiCad (PCBNEW (5.1.6)-1) date 2020-12-04 21:40:29*
%MOMM*%
%LPD*%
G01*
G04 APERTURE LIST*
%TA.AperFunction,ComponentPad*%
%ADD10O,1.524000X2.500000*%
%TD*%
%TA.AperFunction,SMDPad,CuDef*%
%ADD11R,1.900000X1.500000*%
%TD*%
%TA.AperFunction,ComponentPad*%
%ADD12C,1.450000*%
%TD*%
%TA.AperFunction,SMDPad,CuDef*%
%ADD13R,1.350000X0.400000*%
%TD*%
%TA.AperFunction,ComponentPad*%
%ADD14O,1.900000X1.200000*%
%TD*%
%TA.AperFunction,SMDPad,CuDef*%
%ADD15R,1.900000X1.200000*%
%TD*%
%TA.AperFunction,SMDPad,CuDef*%
%ADD16R,0.900000X1.200000*%
%TD*%
%TA.AperFunction,SMDPad,CuDef*%
%ADD17R,2.500000X1.200000*%
%TD*%
%TA.AperFunction,ComponentPad*%
%ADD18C,1.400000*%
%TD*%
%TA.AperFunction,Conductor*%
%ADD19C,0.508000*%
%TD*%
%TA.AperFunction,Conductor*%
%ADD20C,0.254000*%
%TD*%
%TA.AperFunction,NonConductor*%
%ADD21C,0.254000*%
%TD*%
G04 APERTURE END LIST*
D10*
%TO.P,J1,1*%
%TO.N,Net-(J1-Pad1)*%
X44320000Y-115800000D03*
%TO.P,J1,2*%
%TO.N,GND*%
X44320000Y-102800000D03*
%TD*%
D11*
%TO.P,J2,6*%
%TO.N,Net-(J2-Pad6)*%
X112237500Y-114000000D03*
D12*
X109537500Y-117500000D03*
D13*
%TO.P,J2,2*%
%TO.N,Net-(J2-Pad2)*%
X109537500Y-115650000D03*
%TO.P,J2,1*%
%TO.N,Net-(J2-Pad1)*%
X109537500Y-116300000D03*
%TO.P,J2,5*%
%TO.N,GND*%
X109537500Y-113700000D03*
%TO.P,J2,4*%
%TO.N,Net-(J2-Pad4)*%
X109537500Y-114350000D03*
%TO.P,J2,3*%
%TO.N,Net-(J2-Pad3)*%
X109537500Y-115000000D03*
D12*
%TO.P,J2,6*%
%TO.N,Net-(J2-Pad6)*%
X109537500Y-112500000D03*
D11*
X112237500Y-116000000D03*
D14*
X112237500Y-118500000D03*
X112237500Y-111500000D03*
D15*
X112237500Y-112100000D03*
X112237500Y-117900000D03*
%TD*%
D16*
%TO.P,D1,1*%
%TO.N,Net-(D1-Pad1)*%
X67400000Y-113750000D03*
%TO.P,D1,2*%
%TO.N,Net-(D1-Pad2)*%
X64100000Y-113750000D03*
%TD*%
%TO.P,D2,2*%
%TO.N,Net-(D2-Pad2)*%
X88400000Y-114000000D03*
%TO.P,D2,1*%
%TO.N,Net-(D1-Pad1)*%
X85100000Y-114000000D03*
%TD*%
%TO.P,D3,1*%
%TO.N,GND*%
%TA.AperFunction,SMDPad,CuDef*%
G36*
G01*
X72150000Y-97200001D02*
X72150000Y-96299999D01*
G75*
G02*
X72399999Y-96050000I249999J0D01*
G01*
X73050001Y-96050000D01*
G75*
G02*
X73300000Y-96299999I0J-249999D01*
G01*
X73300000Y-97200001D01*
G75*
G02*
X73050001Y-97450000I-249999J0D01*
G01*
X72399999Y-97450000D01*
G75*
G02*
X72150000Y-97200001I0J249999D01*
G01*
G37*
%TD.AperFunction*%
%TO.P,D3,2*%
%TO.N,Net-(D10-Pad2)*%
%TA.AperFunction,SMDPad,CuDef*%
G36*
G01*
X74200000Y-97200001D02*
X74200000Y-96299999D01*
G75*
G02*
X74449999Y-96050000I249999J0D01*
G01*
X75100001Y-96050000D01*
G75*
G02*
X75350000Y-96299999I0J-249999D01*
G01*
X75350000Y-97200001D01*
G75*
G02*
X75100001Y-97450000I-249999J0D01*
G01*
X74449999Y-97450000D01*
G75*
G02*
X74200000Y-97200001I0J249999D01*
G01*
G37*
%TD.AperFunction*%
%TD*%
%TO.P,D4,2*%
%TO.N,Net-(D10-Pad2)*%
%TA.AperFunction,SMDPad,CuDef*%
G36*
G01*
X62225000Y-88700001D02*
X62225000Y-87799999D01*
G75*
G02*
X62474999Y-87550000I249999J0D01*
G01*
X63125001Y-87550000D01*
G75*
G02*
X63375000Y-87799999I0J-249999D01*
G01*
X63375000Y-88700001D01*
G75*
G02*
X63125001Y-88950000I-249999J0D01*
G01*
X62474999Y-88950000D01*
G75*
G02*
X62225000Y-88700001I0J249999D01*
G01*
G37*
%TD.AperFunction*%
%TO.P,D4,1*%
%TO.N,GND*%
%TA.AperFunction,SMDPad,CuDef*%
G36*
G01*
X60175000Y-88700001D02*
X60175000Y-87799999D01*
G75*
G02*
X60424999Y-87550000I249999J0D01*
G01*
X61075001Y-87550000D01*
G75*
G02*
X61325000Y-87799999I0J-249999D01*
G01*
X61325000Y-88700001D01*
G75*
G02*
X61075001Y-88950000I-249999J0D01*
G01*
X60424999Y-88950000D01*
G75*
G02*
X60175000Y-88700001I0J249999D01*
G01*
G37*
%TD.AperFunction*%
%TD*%
%TO.P,D5,1*%
%TO.N,GND*%
%TA.AperFunction,SMDPad,CuDef*%
G36*
G01*
X72425000Y-84950001D02*
X72425000Y-84049999D01*
G75*
G02*
X72674999Y-83800000I249999J0D01*
G01*
X73325001Y-83800000D01*
G75*
G02*
X73575000Y-84049999I0J-249999D01*
G01*
X73575000Y-84950001D01*
G75*
G02*
X73325001Y-85200000I-249999J0D01*
G01*
X72674999Y-85200000D01*
G75*
G02*
X72425000Y-84950001I0J249999D01*
G01*
G37*
%TD.AperFunction*%
%TO.P,D5,2*%
%TO.N,Net-(D10-Pad2)*%
%TA.AperFunction,SMDPad,CuDef*%
G36*
G01*
X74475000Y-84950001D02*
X74475000Y-84049999D01*
G75*
G02*
X74724999Y-83800000I249999J0D01*
G01*
X75375001Y-83800000D01*
G75*
G02*
X75625000Y-84049999I0J-249999D01*
G01*
X75625000Y-84950001D01*
G75*
G02*
X75375001Y-85200000I-249999J0D01*
G01*
X74724999Y-85200000D01*
G75*
G02*
X74475000Y-84950001I0J249999D01*
G01*
G37*
%TD.AperFunction*%
%TD*%
%TO.P,D6,2*%
%TO.N,Net-(D10-Pad2)*%
%TA.AperFunction,SMDPad,CuDef*%
G36*
G01*
X85175000Y-105950001D02*
X85175000Y-105049999D01*
G75*
G02*
X85424999Y-104800000I249999J0D01*
G01*
X86075001Y-104800000D01*
G75*
G02*
X86325000Y-105049999I0J-249999D01*
G01*
X86325000Y-105950001D01*
G75*
G02*
X86075001Y-106200000I-249999J0D01*
G01*
X85424999Y-106200000D01*
G75*
G02*
X85175000Y-105950001I0J249999D01*
G01*
G37*
%TD.AperFunction*%
%TO.P,D6,1*%
%TO.N,GND*%
%TA.AperFunction,SMDPad,CuDef*%
G36*
G01*
X83125000Y-105950001D02*
X83125000Y-105049999D01*
G75*
G02*
X83374999Y-104800000I249999J0D01*
G01*
X84025001Y-104800000D01*
G75*
G02*
X84275000Y-105049999I0J-249999D01*
G01*
X84275000Y-105950001D01*
G75*
G02*
X84025001Y-106200000I-249999J0D01*
G01*
X83374999Y-106200000D01*
G75*
G02*
X83125000Y-105950001I0J249999D01*
G01*
G37*
%TD.AperFunction*%
%TD*%
%TO.P,D7,1*%
%TO.N,GND*%
%TA.AperFunction,SMDPad,CuDef*%
G36*
G01*
X72175000Y-111200001D02*
X72175000Y-110299999D01*
G75*
G02*
X72424999Y-110050000I249999J0D01*
G01*
X73075001Y-110050000D01*
G75*
G02*
X73325000Y-110299999I0J-249999D01*
G01*
X73325000Y-111200001D01*
G75*
G02*
X73075001Y-111450000I-249999J0D01*
G01*
X72424999Y-111450000D01*
G75*
G02*
X72175000Y-111200001I0J249999D01*
G01*
G37*
%TD.AperFunction*%
%TO.P,D7,2*%
%TO.N,Net-(D10-Pad2)*%
%TA.AperFunction,SMDPad,CuDef*%
G36*
G01*
X74225000Y-111200001D02*
X74225000Y-110299999D01*
G75*
G02*
X74474999Y-110050000I249999J0D01*
G01*
X75125001Y-110050000D01*
G75*
G02*
X75375000Y-110299999I0J-249999D01*
G01*
X75375000Y-111200001D01*
G75*
G02*
X75125001Y-111450000I-249999J0D01*
G01*
X74474999Y-111450000D01*
G75*
G02*
X74225000Y-111200001I0J249999D01*
G01*
G37*
%TD.AperFunction*%
%TD*%
%TO.P,D8,2*%
%TO.N,Net-(D10-Pad2)*%
%TA.AperFunction,SMDPad,CuDef*%
G36*
G01*
X74450000Y-71950001D02*
X74450000Y-71049999D01*
G75*
G02*
X74699999Y-70800000I249999J0D01*
G01*
X75350001Y-70800000D01*
G75*
G02*
X75600000Y-71049999I0J-249999D01*
G01*
X75600000Y-71950001D01*
G75*
G02*
X75350001Y-72200000I-249999J0D01*
G01*
X74699999Y-72200000D01*
G75*
G02*
X74450000Y-71950001I0J249999D01*
G01*
G37*
%TD.AperFunction*%
%TO.P,D8,1*%
%TO.N,GND*%
%TA.AperFunction,SMDPad,CuDef*%
G36*
G01*
X72400000Y-71950001D02*
X72400000Y-71049999D01*
G75*
G02*
X72649999Y-70800000I249999J0D01*
G01*
X73300001Y-70800000D01*
G75*
G02*
X73550000Y-71049999I0J-249999D01*
G01*
X73550000Y-71950001D01*
G75*
G02*
X73300001Y-72200000I-249999J0D01*
G01*
X72649999Y-72200000D01*
G75*
G02*
X72400000Y-71950001I0J249999D01*
G01*
G37*
%TD.AperFunction*%
%TD*%
%TO.P,D9,1*%
%TO.N,GND*%
%TA.AperFunction,SMDPad,CuDef*%
G36*
G01*
X61400000Y-106200001D02*
X61400000Y-105299999D01*
G75*
G02*
X61649999Y-105050000I249999J0D01*
G01*
X62300001Y-105050000D01*
G75*
G02*
X62550000Y-105299999I0J-249999D01*
G01*
X62550000Y-106200001D01*
G75*
G02*
X62300001Y-106450000I-249999J0D01*
G01*
X61649999Y-106450000D01*
G75*
G02*
X61400000Y-106200001I0J249999D01*
G01*
G37*
%TD.AperFunction*%
%TO.P,D9,2*%
%TO.N,Net-(D10-Pad2)*%
%TA.AperFunction,SMDPad,CuDef*%
G36*
G01*
X63450000Y-106200001D02*
X63450000Y-105299999D01*
G75*
G02*
X63699999Y-105050000I249999J0D01*
G01*
X64350001Y-105050000D01*
G75*
G02*
X64600000Y-105299999I0J-249999D01*
G01*
X64600000Y-106200001D01*
G75*
G02*
X64350001Y-106450000I-249999J0D01*
G01*
X63699999Y-106450000D01*
G75*
G02*
X63450000Y-106200001I0J249999D01*
G01*
G37*
%TD.AperFunction*%
%TD*%
%TO.P,D10,2*%
%TO.N,Net-(D10-Pad2)*%
%TA.AperFunction,SMDPad,CuDef*%
G36*
G01*
X86950000Y-88700001D02*
X86950000Y-87799999D01*
G75*
G02*
X87199999Y-87550000I249999J0D01*
G01*
X87850001Y-87550000D01*
G75*
G02*
X88100000Y-87799999I0J-249999D01*
G01*
X88100000Y-88700001D01*
G75*
G02*
X87850001Y-88950000I-249999J0D01*
G01*
X87199999Y-88950000D01*
G75*
G02*
X86950000Y-88700001I0J249999D01*
G01*
G37*
%TD.AperFunction*%
%TO.P,D10,1*%
%TO.N,GND*%
%TA.AperFunction,SMDPad,CuDef*%
G36*
G01*
X84900000Y-88700001D02*
X84900000Y-87799999D01*
G75*
G02*
X85149999Y-87550000I249999J0D01*
G01*
X85800001Y-87550000D01*
G75*
G02*
X86050000Y-87799999I0J-249999D01*
G01*
X86050000Y-88700001D01*
G75*
G02*
X85800001Y-88950000I-249999J0D01*
G01*
X85149999Y-88950000D01*
G75*
G02*
X84900000Y-88700001I0J249999D01*
G01*
G37*
%TD.AperFunction*%
%TD*%
%TO.P,R1,1*%
%TO.N,Net-(D1-Pad2)*%
%TA.AperFunction,SMDPad,CuDef*%
G36*
G01*
X60850000Y-113299999D02*
X60850000Y-114200001D01*
G75*
G02*
X60600001Y-114450000I-249999J0D01*
G01*
X59949999Y-114450000D01*
G75*
G02*
X59700000Y-114200001I0J249999D01*
G01*
X59700000Y-113299999D01*
G75*
G02*
X59949999Y-113050000I249999J0D01*
G01*
X60600001Y-113050000D01*
G75*
G02*
X60850000Y-113299999I0J-249999D01*
G01*
G37*
%TD.AperFunction*%
%TO.P,R1,2*%
%TO.N,Net-(J1-Pad1)*%
%TA.AperFunction,SMDPad,CuDef*%
G36*
G01*
X58800000Y-113299999D02*
X58800000Y-114200001D01*
G75*
G02*
X58550001Y-114450000I-249999J0D01*
G01*
X57899999Y-114450000D01*
G75*
G02*
X57650000Y-114200001I0J249999D01*
G01*
X57650000Y-113299999D01*
G75*
G02*
X57899999Y-113050000I249999J0D01*
G01*
X58550001Y-113050000D01*
G75*
G02*
X58800000Y-113299999I0J-249999D01*
G01*
G37*
%TD.AperFunction*%
%TD*%
%TO.P,R2,1*%
%TO.N,Net-(D2-Pad2)*%
%TA.AperFunction,SMDPad,CuDef*%
G36*
G01*
X91237500Y-111675001D02*
X91237500Y-108824999D01*
G75*
G02*
X91487499Y-108575000I249999J0D01*
G01*
X92512501Y-108575000D01*
G75*
G02*
X92762500Y-108824999I0J-249999D01*
G01*
X92762500Y-111675001D01*
G75*
G02*
X92512501Y-111925000I-249999J0D01*
G01*
X91487499Y-111925000D01*
G75*
G02*
X91237500Y-111675001I0J249999D01*
G01*
G37*
%TD.AperFunction*%
%TO.P,R2,2*%
%TO.N,Net-(J2-Pad1)*%
%TA.AperFunction,SMDPad,CuDef*%
G36*
G01*
X97212500Y-111675001D02*
X97212500Y-108824999D01*
G75*
G02*
X97462499Y-108575000I249999J0D01*
G01*
X98487501Y-108575000D01*
G75*
G02*
X98737500Y-108824999I0J-249999D01*
G01*
X98737500Y-111675001D01*
G75*
G02*
X98487501Y-111925000I-249999J0D01*
G01*
X97462499Y-111925000D01*
G75*
G02*
X97212500Y-111675001I0J249999D01*
G01*
G37*
%TD.AperFunction*%
%TD*%
D17*
%TO.P,S1,1*%
%TO.N,Net-(D1-Pad1)*%
X109250000Y-106500000D03*
%TO.P,S1,2*%
%TO.N,Net-(D10-Pad2)*%
X109250000Y-104000000D03*
%TO.P,S1,3*%
%TO.N,Net-(S1-Pad3)*%
X109250000Y-101500000D03*
D18*
%TO.P,S1,4*%
%TO.N,N/C*%
X112000000Y-107400000D03*
%TO.P,S1,5*%
X112000000Y-100600000D03*
%TD*%
D19*
%TO.N,Net-(D1-Pad1)*%
X84850000Y-113750000D02*
X85100000Y-114000000D01*
X67400000Y-113750000D02*
X84850000Y-113750000D01*
%TO.N,Net-(D1-Pad2)*%
X60275000Y-113750000D02*
X64100000Y-113750000D01*
%TO.N,Net-(D2-Pad2)*%
X88400000Y-113850000D02*
X92000000Y-110250000D01*
X88400000Y-114000000D02*
X88400000Y-113850000D01*
%TO.N,GND*%
X66975000Y-110750000D02*
X61975000Y-105750000D01*
X72750000Y-110750000D02*
X66975000Y-110750000D01*
X73000000Y-71525000D02*
X72975000Y-71500000D01*
X73000000Y-84500000D02*
X73000000Y-71525000D01*
X80570990Y-83345990D02*
X85475000Y-88250000D01*
X74154010Y-83345990D02*
X80570990Y-83345990D01*
X73000000Y-84500000D02*
X74154010Y-83345990D01*
X64500000Y-84500000D02*
X73000000Y-84500000D01*
X60750000Y-88250000D02*
X64500000Y-84500000D01*
X69250000Y-96750000D02*
X72725000Y-96750000D01*
X60750000Y-88250000D02*
X69250000Y-96750000D01*
X70975000Y-96750000D02*
X61975000Y-105750000D01*
X72725000Y-96750000D02*
X70975000Y-96750000D01*
X88554010Y-100645990D02*
X88554010Y-94195990D01*
X83700000Y-105500000D02*
X88554010Y-100645990D01*
X47270000Y-105750000D02*
X44320000Y-102800000D01*
X61975000Y-105750000D02*
X47270000Y-105750000D01*
X44320000Y-102800000D02*
X44320000Y-102930000D01*
%TO.N,Net-(D10-Pad2)*%
X80500000Y-110750000D02*
X74800000Y-110750000D01*
X85750000Y-105500000D02*
X80500000Y-110750000D01*
X74800000Y-96775000D02*
X74775000Y-96750000D01*
X74800000Y-110750000D02*
X74800000Y-96775000D01*
X79025000Y-96750000D02*
X87525000Y-88250000D01*
X74775000Y-96750000D02*
X79025000Y-96750000D01*
X74775000Y-84775000D02*
X75050000Y-84500000D01*
X74775000Y-96750000D02*
X74775000Y-84775000D01*
X66275000Y-88250000D02*
X74775000Y-96750000D01*
X62800000Y-88250000D02*
X66275000Y-88250000D01*
%TO.N,Net-(D1-Pad1)*%
X109250000Y-107000000D02*
X108250000Y-107000000D01*
X109000000Y-106750000D02*
X109250000Y-106500000D01*
X89500000Y-106750000D02*
X109000000Y-106750000D01*
X85100000Y-114000000D02*
X85100000Y-111150000D01*
X85100000Y-111150000D02*
X89500000Y-106750000D01*
%TO.N,GND*%
X113154001Y-107953921D02*
X111107922Y-110000000D01*
X113154001Y-100046079D02*
X113154001Y-107953921D01*
X91000000Y-91750000D02*
X104857922Y-91750000D01*
X104857922Y-91750000D02*
X113154001Y-100046079D01*
X111107922Y-110000000D02*
X107000000Y-110000000D01*
X107000000Y-110000000D02*
X106000000Y-111000000D01*
X106000000Y-111000000D02*
X106000000Y-112000000D01*
X107695999Y-113695999D02*
X109537500Y-113695999D01*
X106000000Y-112000000D02*
X107695999Y-113695999D01*
X75641612Y-70345990D02*
X90875000Y-85579378D01*
X74129010Y-70345990D02*
X75641612Y-70345990D01*
X72975000Y-71500000D02*
X74129010Y-70345990D01*
X90875000Y-85579378D02*
X90875000Y-91875000D01*
X88554010Y-94195990D02*
X90875000Y-91875000D01*
X90875000Y-91875000D02*
X91000000Y-91750000D01*
%TO.N,Net-(J2-Pad6)*%
X111237500Y-112500000D02*
X112237500Y-111500000D01*
X109537500Y-112500000D02*
X111237500Y-112500000D01*
X112237500Y-112100000D02*
X112237500Y-114000000D01*
X112237500Y-114000000D02*
X112237500Y-116000000D01*
X112237500Y-116000000D02*
X112237500Y-117900000D01*
X109937500Y-117900000D02*
X109537500Y-117500000D01*
X112237500Y-117900000D02*
X109937500Y-117900000D01*
%TO.N,Net-(D10-Pad2)*%
X69800000Y-105750000D02*
X64025000Y-105750000D01*
X74800000Y-110750000D02*
X69800000Y-105750000D01*
X108750000Y-103500000D02*
X109250000Y-104000000D01*
X85750000Y-105500000D02*
X87750000Y-103500000D01*
X87750000Y-103500000D02*
X108750000Y-103500000D01*
X75025000Y-71500000D02*
X75025000Y-75025000D01*
X87525000Y-87525000D02*
X87525000Y-88250000D01*
X75025000Y-75025000D02*
X87525000Y-87525000D01*
%TO.N,Net-(J1-Pad1)*%
X56175000Y-115800000D02*
X58225000Y-113750000D01*
X44320000Y-115800000D02*
X56175000Y-115800000D01*
%TO.N,Net-(J2-Pad1)*%
X104029001Y-116304001D02*
X109537500Y-116304001D01*
X97975000Y-110250000D02*
X104029001Y-116304001D01*
%TD*%
D20*
%TO.N,GND*%
G36*
X93632156Y-90047348D02*
G01*
X93643658Y-90069428D01*
X93659246Y-90088841D01*
X93678322Y-90104839D01*
X93700152Y-90116808D01*
X93723898Y-90124289D01*
X93750000Y-90127000D01*
X113340000Y-90127000D01*
X113340000Y-110519912D01*
X113276949Y-110468167D01*
X113062401Y-110353489D01*
X112829602Y-110282870D01*
X112648165Y-110265000D01*
X111826835Y-110265000D01*
X111645398Y-110282870D01*
X111412599Y-110353489D01*
X111198051Y-110468167D01*
X111009998Y-110622498D01*
X110855667Y-110810551D01*
X110740989Y-111025099D01*
X110670370Y-111257898D01*
X110646525Y-111500000D01*
X110649428Y-111529475D01*
X110649428Y-111611000D01*
X110571830Y-111611000D01*
X110404449Y-111443619D01*
X110181701Y-111294784D01*
X109934197Y-111192264D01*
X109671448Y-111140000D01*
X109403552Y-111140000D01*
X109140803Y-111192264D01*
X108893299Y-111294784D01*
X108670551Y-111443619D01*
X108481119Y-111633051D01*
X108332284Y-111855799D01*
X108229764Y-112103303D01*
X108177500Y-112366052D01*
X108177500Y-112633948D01*
X108229764Y-112896697D01*
X108332284Y-113144201D01*
X108333079Y-113145390D01*
X108276979Y-113246424D01*
X108238759Y-113365526D01*
X108227500Y-113468250D01*
X108386250Y-113627000D01*
X108498822Y-113627000D01*
X108411315Y-113698815D01*
X108331963Y-113795506D01*
X108295468Y-113863782D01*
X108227500Y-113931750D01*
X108237488Y-114022880D01*
X108236688Y-114025518D01*
X108224428Y-114150000D01*
X108224428Y-114550000D01*
X108236688Y-114674482D01*
X108236845Y-114675000D01*
X108236688Y-114675518D01*
X108224428Y-114800000D01*
X108224428Y-115200000D01*
X108236688Y-115324482D01*
X108236845Y-115325000D01*
X108236688Y-115325518D01*
X108227875Y-115415001D01*
X104397236Y-115415001D01*
X99375572Y-110393337D01*
X99375572Y-108824999D01*
X99358508Y-108651745D01*
X99307972Y-108485149D01*
X99225905Y-108331613D01*
X99115462Y-108197038D01*
X98980887Y-108086595D01*
X98827351Y-108004528D01*
X98660755Y-107953992D01*
X98487501Y-107936928D01*
X97462499Y-107936928D01*
X97289245Y-107953992D01*
X97122649Y-108004528D01*
X96969113Y-108086595D01*
X96834538Y-108197038D01*
X96724095Y-108331613D01*
X96642028Y-108485149D01*
X96591492Y-108651745D01*
X96574428Y-108824999D01*
X96574428Y-111675001D01*
X96591492Y-111848255D01*
X96642028Y-112014851D01*
X96724095Y-112168387D01*
X96834538Y-112302962D01*
X96969113Y-112413405D01*
X97122649Y-112495472D01*
X97289245Y-112546008D01*
X97462499Y-112563072D01*
X98487501Y-112563072D01*
X98660755Y-112546008D01*
X98827351Y-112495472D01*
X98915904Y-112448139D01*
X103369502Y-116901737D01*
X103397342Y-116935660D01*
X103532710Y-117046754D01*
X103687150Y-117129304D01*
X103716055Y-117138072D01*
X103854725Y-117180137D01*
X103887925Y-117183407D01*
X103985334Y-117193001D01*
X103985340Y-117193001D01*
X104029000Y-117197301D01*
X104072660Y-117193001D01*
X108211922Y-117193001D01*
X108177500Y-117366052D01*
X108177500Y-117633948D01*
X108229764Y-117896697D01*
X108332284Y-118144201D01*
X108481119Y-118366949D01*
X108670551Y-118556381D01*
X108893299Y-118705216D01*
X109140803Y-118807736D01*
X109403552Y-118860000D01*
X109671448Y-118860000D01*
X109934197Y-118807736D01*
X109978890Y-118789223D01*
X109981159Y-118789000D01*
X110684596Y-118789000D01*
X110740989Y-118974901D01*
X110855667Y-119189449D01*
X111009998Y-119377502D01*
X111198051Y-119531833D01*
X111412599Y-119646511D01*
X111645398Y-119717130D01*
X111826835Y-119735000D01*
X112648165Y-119735000D01*
X112829602Y-119717130D01*
X112926623Y-119687699D01*
X112682900Y-120437801D01*
X112183560Y-121498952D01*
X111555165Y-122489144D01*
X110807612Y-123392780D01*
X109952708Y-124195588D01*
X109003922Y-124884922D01*
X107976227Y-125449903D01*
X106885813Y-125881627D01*
X105749897Y-126173281D01*
X104576058Y-126321571D01*
X103989642Y-126340000D01*
X44020747Y-126340000D01*
X42829552Y-126265056D01*
X41677556Y-126045302D01*
X40562199Y-125682900D01*
X39501048Y-125183560D01*
X38510856Y-124555165D01*
X37607220Y-123807612D01*
X36804412Y-122952708D01*
X36115078Y-122003922D01*
X35550097Y-120976227D01*
X35118373Y-119885813D01*
X34826719Y-118749897D01*
X34678429Y-117576058D01*
X34660000Y-116989642D01*
X34660000Y-115243376D01*
X42923000Y-115243376D01*
X42923000Y-116356625D01*
X42943214Y-116561860D01*
X43023096Y-116825195D01*
X43152817Y-117067887D01*
X43327393Y-117280608D01*
X43540114Y-117455183D01*
X43782806Y-117584904D01*
X44046141Y-117664786D01*
X44320000Y-117691759D01*
X44593860Y-117664786D01*
X44857195Y-117584904D01*
X45099887Y-117455183D01*
X45312608Y-117280608D01*
X45487183Y-117067887D01*
X45616904Y-116825195D01*
X45658218Y-116689000D01*
X56131340Y-116689000D01*
X56175000Y-116693300D01*
X56218660Y-116689000D01*
X56218667Y-116689000D01*
X56349274Y-116676136D01*
X56516851Y-116625303D01*
X56671291Y-116542753D01*
X56806659Y-116431659D01*
X56834499Y-116397736D01*
X58144164Y-115088072D01*
X58550001Y-115088072D01*
X58723255Y-115071008D01*
X58889851Y-115020472D01*
X59043387Y-114938405D01*
X59177962Y-114827962D01*
X59250000Y-114740184D01*
X59322038Y-114827962D01*
X59456613Y-114938405D01*
X59610149Y-115020472D01*
X59776745Y-115071008D01*
X59949999Y-115088072D01*
X60600001Y-115088072D01*
X60773255Y-115071008D01*
X60939851Y-115020472D01*
X61093387Y-114938405D01*
X61227962Y-114827962D01*
X61338405Y-114693387D01*
X61367476Y-114639000D01*
X63084455Y-114639000D01*
X63119463Y-114704494D01*
X63198815Y-114801185D01*
X63295506Y-114880537D01*
X63405820Y-114939502D01*
X63525518Y-114975812D01*
X63650000Y-114988072D01*
X64550000Y-114988072D01*
X64674482Y-114975812D01*
X64794180Y-114939502D01*
X64904494Y-114880537D01*
X65001185Y-114801185D01*
X65080537Y-114704494D01*
X65139502Y-114594180D01*
X65175812Y-114474482D01*
X65188072Y-114350000D01*
X65188072Y-113150000D01*
X66311928Y-113150000D01*
X66311928Y-114350000D01*
X66324188Y-114474482D01*
X66360498Y-114594180D01*
X66419463Y-114704494D01*
X66498815Y-114801185D01*
X66595506Y-114880537D01*
X66705820Y-114939502D01*
X66825518Y-114975812D01*
X66950000Y-114988072D01*
X67850000Y-114988072D01*
X67974482Y-114975812D01*
X68094180Y-114939502D01*
X68204494Y-114880537D01*
X68301185Y-114801185D01*
X68380537Y-114704494D01*
X68415545Y-114639000D01*
X84015769Y-114639000D01*
X84024188Y-114724482D01*
X84060498Y-114844180D01*
X84119463Y-114954494D01*
X84198815Y-115051185D01*
X84295506Y-115130537D01*
X84405820Y-115189502D01*
X84525518Y-115225812D01*
X84650000Y-115238072D01*
X85550000Y-115238072D01*
X85674482Y-115225812D01*
X85794180Y-115189502D01*
X85904494Y-115130537D01*
X86001185Y-115051185D01*
X86080537Y-114954494D01*
X86139502Y-114844180D01*
X86175812Y-114724482D01*
X86188072Y-114600000D01*
X86188072Y-113400000D01*
X87311928Y-113400000D01*
X87311928Y-114600000D01*
X87324188Y-114724482D01*
X87360498Y-114844180D01*
X87419463Y-114954494D01*
X87498815Y-115051185D01*
X87595506Y-115130537D01*
X87705820Y-115189502D01*
X87825518Y-115225812D01*
X87950000Y-115238072D01*
X88850000Y-115238072D01*
X88974482Y-115225812D01*
X89094180Y-115189502D01*
X89204494Y-115130537D01*
X89301185Y-115051185D01*
X89380537Y-114954494D01*
X89439502Y-114844180D01*
X89475812Y-114724482D01*
X89488072Y-114600000D01*
X89488072Y-114019163D01*
X91059096Y-112448139D01*
X91147649Y-112495472D01*
X91314245Y-112546008D01*
X91487499Y-112563072D01*
X92512501Y-112563072D01*
X92685755Y-112546008D01*
X92852351Y-112495472D01*
X93005887Y-112413405D01*
X93140462Y-112302962D01*
X93250905Y-112168387D01*
X93332972Y-112014851D01*
X93383508Y-111848255D01*
X93400572Y-111675001D01*
X93400572Y-108824999D01*
X93383508Y-108651745D01*
X93332972Y-108485149D01*
X93250905Y-108331613D01*
X93140462Y-108197038D01*
X93005887Y-108086595D01*
X92852351Y-108004528D01*
X92685755Y-107953992D01*
X92512501Y-107936928D01*
X91487499Y-107936928D01*
X91314245Y-107953992D01*
X91147649Y-108004528D01*
X90994113Y-108086595D01*
X90859538Y-108197038D01*
X90749095Y-108331613D01*
X90667028Y-108485149D01*
X90616492Y-108651745D01*
X90599428Y-108824999D01*
X90599428Y-110393336D01*
X88230837Y-112761928D01*
X87950000Y-112761928D01*
X87825518Y-112774188D01*
X87705820Y-112810498D01*
X87595506Y-112869463D01*
X87498815Y-112948815D01*
X87419463Y-113045506D01*
X87360498Y-113155820D01*
X87324188Y-113275518D01*
X87311928Y-113400000D01*
X86188072Y-113400000D01*
X86175812Y-113275518D01*
X86139502Y-113155820D01*
X86080537Y-113045506D01*
X86001185Y-112948815D01*
X85989000Y-112938815D01*
X85989000Y-111518235D01*
X89868236Y-107639000D01*
X107627286Y-107639000D01*
X107753709Y-107742753D01*
X107908149Y-107825303D01*
X108075726Y-107876136D01*
X108206333Y-107889000D01*
X109293667Y-107889000D01*
X109424274Y-107876136D01*
X109591851Y-107825303D01*
X109746291Y-107742753D01*
X109751995Y-107738072D01*
X110500000Y-107738072D01*
X110624482Y-107725812D01*
X110699149Y-107703162D01*
X110716304Y-107789405D01*
X110816939Y-108032359D01*
X110963038Y-108251013D01*
X111148987Y-108436962D01*
X111367641Y-108583061D01*
X111610595Y-108683696D01*
X111868514Y-108735000D01*
X112131486Y-108735000D01*
X112389405Y-108683696D01*
X112632359Y-108583061D01*
X112851013Y-108436962D01*
X113036962Y-108251013D01*
X113183061Y-108032359D01*
X113283696Y-107789405D01*
X113335000Y-107531486D01*
X113335000Y-107268514D01*
X113283696Y-107010595D01*
X113183061Y-106767641D01*
X113036962Y-106548987D01*
X112851013Y-106363038D01*
X112632359Y-106216939D01*
X112389405Y-106116304D01*
X112131486Y-106065000D01*
X111868514Y-106065000D01*
X111610595Y-106116304D01*
X111367641Y-106216939D01*
X111148987Y-106363038D01*
X111138072Y-106373953D01*
X111138072Y-105900000D01*
X111125812Y-105775518D01*
X111089502Y-105655820D01*
X111030537Y-105545506D01*
X110951185Y-105448815D01*
X110854494Y-105369463D01*
X110744180Y-105310498D01*
X110624482Y-105274188D01*
X110500000Y-105261928D01*
X108000000Y-105261928D01*
X107875518Y-105274188D01*
X107755820Y-105310498D01*
X107645506Y-105369463D01*
X107548815Y-105448815D01*
X107469463Y-105545506D01*
X107410498Y-105655820D01*
X107374188Y-105775518D01*
X107365769Y-105861000D01*
X89543660Y-105861000D01*
X89500000Y-105856700D01*
X89456340Y-105861000D01*
X89456333Y-105861000D01*
X89342325Y-105872229D01*
X89325725Y-105873864D01*
X89274892Y-105889284D01*
X89158149Y-105924697D01*
X89003709Y-106007247D01*
X88868341Y-106118341D01*
X88840506Y-106152258D01*
X84502259Y-110490506D01*
X84468342Y-110518341D01*
X84440507Y-110552258D01*
X84440505Y-110552260D01*
X84357248Y-110653709D01*
X84274698Y-110808148D01*
X84223864Y-110975726D01*
X84206700Y-111150000D01*
X84211001Y-111193670D01*
X84211000Y-112861000D01*
X68415545Y-112861000D01*
X68380537Y-112795506D01*
X68301185Y-112698815D01*
X68204494Y-112619463D01*
X68094180Y-112560498D01*
X67974482Y-112524188D01*
X67850000Y-112511928D01*
X66950000Y-112511928D01*
X66825518Y-112524188D01*
X66705820Y-112560498D01*
X66595506Y-112619463D01*
X66498815Y-112698815D01*
X66419463Y-112795506D01*
X66360498Y-112905820D01*
X66324188Y-113025518D01*
X66311928Y-113150000D01*
X65188072Y-113150000D01*
X65175812Y-113025518D01*
X65139502Y-112905820D01*
X65080537Y-112795506D01*
X65001185Y-112698815D01*
X64904494Y-112619463D01*
X64794180Y-112560498D01*
X64674482Y-112524188D01*
X64550000Y-112511928D01*
X63650000Y-112511928D01*
X63525518Y-112524188D01*
X63405820Y-112560498D01*
X63295506Y-112619463D01*
X63198815Y-112698815D01*
X63119463Y-112795506D01*
X63084455Y-112861000D01*
X61367476Y-112861000D01*
X61338405Y-112806613D01*
X61227962Y-112672038D01*
X61093387Y-112561595D01*
X60939851Y-112479528D01*
X60773255Y-112428992D01*
X60600001Y-112411928D01*
X59949999Y-112411928D01*
X59776745Y-112428992D01*
X59610149Y-112479528D01*
X59456613Y-112561595D01*
X59322038Y-112672038D01*
X59250000Y-112759816D01*
X59177962Y-112672038D01*
X59043387Y-112561595D01*
X58889851Y-112479528D01*
X58723255Y-112428992D01*
X58550001Y-112411928D01*
X57899999Y-112411928D01*
X57726745Y-112428992D01*
X57560149Y-112479528D01*
X57406613Y-112561595D01*
X57272038Y-112672038D01*
X57161595Y-112806613D01*
X57079528Y-112960149D01*
X57028992Y-113126745D01*
X57011928Y-113299999D01*
X57011928Y-113705836D01*
X55806765Y-114911000D01*
X45658218Y-114911000D01*
X45616904Y-114774805D01*
X45487183Y-114532113D01*
X45312607Y-114319392D01*
X45099886Y-114144817D01*
X44857194Y-114015096D01*
X44593859Y-113935214D01*
X44320000Y-113908241D01*
X44046140Y-113935214D01*
X43782805Y-114015096D01*
X43540113Y-114144817D01*
X43327392Y-114319393D01*
X43152817Y-114532114D01*
X43023096Y-114774806D01*
X42943214Y-115038141D01*
X42923000Y-115243376D01*
X34660000Y-115243376D01*
X34660000Y-111450000D01*
X71536928Y-111450000D01*
X71549188Y-111574482D01*
X71585498Y-111694180D01*
X71644463Y-111804494D01*
X71723815Y-111901185D01*
X71820506Y-111980537D01*
X71930820Y-112039502D01*
X72050518Y-112075812D01*
X72175000Y-112088072D01*
X72464250Y-112085000D01*
X72623000Y-111926250D01*
X72623000Y-110877000D01*
X71698750Y-110877000D01*
X71540000Y-111035750D01*
X71536928Y-111450000D01*
X34660000Y-111450000D01*
X34660000Y-106450000D01*
X60761928Y-106450000D01*
X60774188Y-106574482D01*
X60810498Y-106694180D01*
X60869463Y-106804494D01*
X60948815Y-106901185D01*
X61045506Y-106980537D01*
X61155820Y-107039502D01*
X61275518Y-107075812D01*
X61400000Y-107088072D01*
X61689250Y-107085000D01*
X61848000Y-106926250D01*
X61848000Y-105877000D01*
X60923750Y-105877000D01*
X60765000Y-106035750D01*
X60761928Y-106450000D01*
X34660000Y-106450000D01*
X34660000Y-105050000D01*
X60761928Y-105050000D01*
X60765000Y-105464250D01*
X60923750Y-105623000D01*
X61848000Y-105623000D01*
X61848000Y-104573750D01*
X61689250Y-104415000D01*
X61400000Y-104411928D01*
X61275518Y-104424188D01*
X61155820Y-104460498D01*
X61045506Y-104519463D01*
X60948815Y-104598815D01*
X60869463Y-104695506D01*
X60810498Y-104805820D01*
X60774188Y-104925518D01*
X60761928Y-105050000D01*
X34660000Y-105050000D01*
X34660000Y-102927000D01*
X42923000Y-102927000D01*
X42923000Y-103415000D01*
X42974619Y-103685101D01*
X43077941Y-103939942D01*
X43228994Y-104169729D01*
X43421974Y-104365632D01*
X43649465Y-104520122D01*
X43902724Y-104627262D01*
X43976930Y-104642220D01*
X44193000Y-104519720D01*
X44193000Y-102927000D01*
X44447000Y-102927000D01*
X44447000Y-104519720D01*
X44663070Y-104642220D01*
X44737276Y-104627262D01*
X44990535Y-104520122D01*
X45218026Y-104365632D01*
X45411006Y-104169729D01*
X45562059Y-103939942D01*
X45665381Y-103685101D01*
X45717000Y-103415000D01*
X45717000Y-102927000D01*
X44447000Y-102927000D01*
X44193000Y-102927000D01*
X42923000Y-102927000D01*
X34660000Y-102927000D01*
X34660000Y-102185000D01*
X42923000Y-102185000D01*
X42923000Y-102673000D01*
X44193000Y-102673000D01*
X44193000Y-101080280D01*
X44447000Y-101080280D01*
X44447000Y-102673000D01*
X45717000Y-102673000D01*
X45717000Y-102185000D01*
X45665381Y-101914899D01*
X45562059Y-101660058D01*
X45411006Y-101430271D01*
X45218026Y-101234368D01*
X44990535Y-101079878D01*
X44737276Y-100972738D01*
X44663070Y-100957780D01*
X44447000Y-101080280D01*
X44193000Y-101080280D01*
X43976930Y-100957780D01*
X43902724Y-100972738D01*
X43649465Y-101079878D01*
X43421974Y-101234368D01*
X43228994Y-101430271D01*
X43077941Y-101660058D01*
X42974619Y-101914899D01*
X42923000Y-102185000D01*
X34660000Y-102185000D01*
X34660000Y-97450000D01*
X71511928Y-97450000D01*
X71524188Y-97574482D01*
X71560498Y-97694180D01*
X71619463Y-97804494D01*
X71698815Y-97901185D01*
X71795506Y-97980537D01*
X71905820Y-98039502D01*
X72025518Y-98075812D01*
X72150000Y-98088072D01*
X72439250Y-98085000D01*
X72598000Y-97926250D01*
X72598000Y-96877000D01*
X71673750Y-96877000D01*
X71515000Y-97035750D01*
X71511928Y-97450000D01*
X34660000Y-97450000D01*
X34660000Y-90127000D01*
X55000000Y-90127000D01*
X55024776Y-90124560D01*
X55048601Y-90117333D01*
X55070557Y-90105597D01*
X55089803Y-90089803D01*
X55105597Y-90070557D01*
X55119601Y-90042715D01*
X55509856Y-88950000D01*
X59536928Y-88950000D01*
X59549188Y-89074482D01*
X59585498Y-89194180D01*
X59644463Y-89304494D01*
X59723815Y-89401185D01*
X59820506Y-89480537D01*
X59930820Y-89539502D01*
X60050518Y-89575812D01*
X60175000Y-89588072D01*
X60464250Y-89585000D01*
X60623000Y-89426250D01*
X60623000Y-88377000D01*
X59698750Y-88377000D01*
X59540000Y-88535750D01*
X59536928Y-88950000D01*
X55509856Y-88950000D01*
X56009856Y-87550000D01*
X59536928Y-87550000D01*
X59540000Y-87964250D01*
X59698750Y-88123000D01*
X60623000Y-88123000D01*
X60623000Y-87073750D01*
X60877000Y-87073750D01*
X60877000Y-88123000D01*
X60897000Y-88123000D01*
X60897000Y-88377000D01*
X60877000Y-88377000D01*
X60877000Y-89426250D01*
X61035750Y-89585000D01*
X61325000Y-89588072D01*
X61449482Y-89575812D01*
X61569180Y-89539502D01*
X61679494Y-89480537D01*
X61776185Y-89401185D01*
X61841658Y-89321406D01*
X61847038Y-89327962D01*
X61981613Y-89438405D01*
X62135149Y-89520472D01*
X62301745Y-89571008D01*
X62474999Y-89588072D01*
X63125001Y-89588072D01*
X63298255Y-89571008D01*
X63464851Y-89520472D01*
X63618387Y-89438405D01*
X63752962Y-89327962D01*
X63863405Y-89193387D01*
X63892476Y-89139000D01*
X65906765Y-89139000D01*
X72180012Y-95412247D01*
X72150000Y-95411928D01*
X72025518Y-95424188D01*
X71905820Y-95460498D01*
X71795506Y-95519463D01*
X71698815Y-95598815D01*
X71619463Y-95695506D01*
X71560498Y-95805820D01*
X71524188Y-95925518D01*
X71511928Y-96050000D01*
X71515000Y-96464250D01*
X71673750Y-96623000D01*
X72598000Y-96623000D01*
X72598000Y-96603000D01*
X72852000Y-96603000D01*
X72852000Y-96623000D01*
X72872000Y-96623000D01*
X72872000Y-96877000D01*
X72852000Y-96877000D01*
X72852000Y-97926250D01*
X73010750Y-98085000D01*
X73300000Y-98088072D01*
X73424482Y-98075812D01*
X73544180Y-98039502D01*
X73654494Y-97980537D01*
X73751185Y-97901185D01*
X73816658Y-97821406D01*
X73822038Y-97827962D01*
X73911001Y-97900972D01*
X73911000Y-108603764D01*
X70459499Y-105152264D01*
X70431659Y-105118341D01*
X70296291Y-105007247D01*
X70141851Y-104924697D01*
X69974274Y-104873864D01*
X69843667Y-104861000D01*
X69843660Y-104861000D01*
X69800000Y-104856700D01*
X69756340Y-104861000D01*
X65117476Y-104861000D01*
X65088405Y-104806613D01*
X64977962Y-104672038D01*
X64843387Y-104561595D01*
X64689851Y-104479528D01*
X64523255Y-104428992D01*
X64350001Y-104411928D01*
X63699999Y-104411928D01*
X63526745Y-104428992D01*
X63360149Y-104479528D01*
X63206613Y-104561595D01*
X63072038Y-104672038D01*
X63066658Y-104678594D01*
X63001185Y-104598815D01*
X62904494Y-104519463D01*
X62794180Y-104460498D01*
X62674482Y-104424188D01*
X62550000Y-104411928D01*
X62260750Y-104415000D01*
X62102000Y-104573750D01*
X62102000Y-105623000D01*
X62122000Y-105623000D01*
X62122000Y-105877000D01*
X62102000Y-105877000D01*
X62102000Y-106926250D01*
X62260750Y-107085000D01*
X62550000Y-107088072D01*
X62674482Y-107075812D01*
X62794180Y-107039502D01*
X62904494Y-106980537D01*
X63001185Y-106901185D01*
X63066658Y-106821406D01*
X63072038Y-106827962D01*
X63206613Y-106938405D01*
X63360149Y-107020472D01*
X63526745Y-107071008D01*
X63699999Y-107088072D01*
X64350001Y-107088072D01*
X64523255Y-107071008D01*
X64689851Y-107020472D01*
X64843387Y-106938405D01*
X64977962Y-106827962D01*
X65088405Y-106693387D01*
X65117476Y-106639000D01*
X69431765Y-106639000D01*
X72205011Y-109412247D01*
X72175000Y-109411928D01*
X72050518Y-109424188D01*
X71930820Y-109460498D01*
X71820506Y-109519463D01*
X71723815Y-109598815D01*
X71644463Y-109695506D01*
X71585498Y-109805820D01*
X71549188Y-109925518D01*
X71536928Y-110050000D01*
X71540000Y-110464250D01*
X71698750Y-110623000D01*
X72623000Y-110623000D01*
X72623000Y-110603000D01*
X72877000Y-110603000D01*
X72877000Y-110623000D01*
X72897000Y-110623000D01*
X72897000Y-110877000D01*
X72877000Y-110877000D01*
X72877000Y-111926250D01*
X73035750Y-112085000D01*
X73325000Y-112088072D01*
X73449482Y-112075812D01*
X73569180Y-112039502D01*
X73679494Y-111980537D01*
X73776185Y-111901185D01*
X73841658Y-111821406D01*
X73847038Y-111827962D01*
X73981613Y-111938405D01*
X74135149Y-112020472D01*
X74301745Y-112071008D01*
X74474999Y-112088072D01*
X75125001Y-112088072D01*
X75298255Y-112071008D01*
X75464851Y-112020472D01*
X75618387Y-111938405D01*
X75752962Y-111827962D01*
X75863405Y-111693387D01*
X75892476Y-111639000D01*
X80456340Y-111639000D01*
X80500000Y-111643300D01*
X80543660Y-111639000D01*
X80543667Y-111639000D01*
X80674274Y-111626136D01*
X80841851Y-111575303D01*
X80996291Y-111492753D01*
X81131659Y-111381659D01*
X81159499Y-111347736D01*
X85669164Y-106838072D01*
X86075001Y-106838072D01*
X86248255Y-106821008D01*
X86414851Y-106770472D01*
X86568387Y-106688405D01*
X86702962Y-106577962D01*
X86813405Y-106443387D01*
X86895472Y-106289851D01*
X86946008Y-106123255D01*
X86963072Y-105950001D01*
X86963072Y-105544163D01*
X88118236Y-104389000D01*
X107361928Y-104389000D01*
X107361928Y-104600000D01*
X107374188Y-104724482D01*
X107410498Y-104844180D01*
X107469463Y-104954494D01*
X107548815Y-105051185D01*
X107645506Y-105130537D01*
X107755820Y-105189502D01*
X107875518Y-105225812D01*
X108000000Y-105238072D01*
X110500000Y-105238072D01*
X110624482Y-105225812D01*
X110744180Y-105189502D01*
X110854494Y-105130537D01*
X110951185Y-105051185D01*
X111030537Y-104954494D01*
X111089502Y-104844180D01*
X111125812Y-104724482D01*
X111138072Y-104600000D01*
X111138072Y-103400000D01*
X111125812Y-103275518D01*
X111089502Y-103155820D01*
X111030537Y-103045506D01*
X110951185Y-102948815D01*
X110854494Y-102869463D01*
X110744180Y-102810498D01*
X110624482Y-102774188D01*
X110500000Y-102761928D01*
X109251995Y-102761928D01*
X109246291Y-102757247D01*
X109210417Y-102738072D01*
X110500000Y-102738072D01*
X110624482Y-102725812D01*
X110744180Y-102689502D01*
X110854494Y-102630537D01*
X110951185Y-102551185D01*
X111030537Y-102454494D01*
X111089502Y-102344180D01*
X111125812Y-102224482D01*
X111138072Y-102100000D01*
X111138072Y-101626047D01*
X111148987Y-101636962D01*
X111367641Y-101783061D01*
X111610595Y-101883696D01*
X111868514Y-101935000D01*
X112131486Y-101935000D01*
X112389405Y-101883696D01*
X112632359Y-101783061D01*
X112851013Y-101636962D01*
X113036962Y-101451013D01*
X113183061Y-101232359D01*
X113283696Y-100989405D01*
X113335000Y-100731486D01*
X113335000Y-100468514D01*
X113283696Y-100210595D01*
X113183061Y-99967641D01*
X113036962Y-99748987D01*
X112851013Y-99563038D01*
X112632359Y-99416939D01*
X112389405Y-99316304D01*
X112131486Y-99265000D01*
X111868514Y-99265000D01*
X111610595Y-99316304D01*
X111367641Y-99416939D01*
X111148987Y-99563038D01*
X110963038Y-99748987D01*
X110816939Y-99967641D01*
X110716304Y-100210595D01*
X110699149Y-100296838D01*
X110624482Y-100274188D01*
X110500000Y-100261928D01*
X108000000Y-100261928D01*
X107875518Y-100274188D01*
X107755820Y-100310498D01*
X107645506Y-100369463D01*
X107548815Y-100448815D01*
X107469463Y-100545506D01*
X107410498Y-100655820D01*
X107374188Y-100775518D01*
X107361928Y-100900000D01*
X107361928Y-102100000D01*
X107374188Y-102224482D01*
X107410498Y-102344180D01*
X107469463Y-102454494D01*
X107548815Y-102551185D01*
X107621700Y-102611000D01*
X87793659Y-102611000D01*
X87749999Y-102606700D01*
X87706339Y-102611000D01*
X87706333Y-102611000D01*
X87608924Y-102620594D01*
X87575724Y-102623864D01*
X87474058Y-102654704D01*
X87408149Y-102674697D01*
X87253709Y-102757247D01*
X87118341Y-102868341D01*
X87090506Y-102902258D01*
X85830837Y-104161928D01*
X85424999Y-104161928D01*
X85251745Y-104178992D01*
X85085149Y-104229528D01*
X84931613Y-104311595D01*
X84797038Y-104422038D01*
X84791658Y-104428594D01*
X84726185Y-104348815D01*
X84629494Y-104269463D01*
X84519180Y-104210498D01*
X84399482Y-104174188D01*
X84275000Y-104161928D01*
X83985750Y-104165000D01*
X83827000Y-104323750D01*
X83827000Y-105373000D01*
X83847000Y-105373000D01*
X83847000Y-105627000D01*
X83827000Y-105627000D01*
X83827000Y-105647000D01*
X83573000Y-105647000D01*
X83573000Y-105627000D01*
X82648750Y-105627000D01*
X82490000Y-105785750D01*
X82486928Y-106200000D01*
X82499188Y-106324482D01*
X82535498Y-106444180D01*
X82594463Y-106554494D01*
X82673815Y-106651185D01*
X82770506Y-106730537D01*
X82880820Y-106789502D01*
X83000518Y-106825812D01*
X83125000Y-106838072D01*
X83155011Y-106837753D01*
X80131765Y-109861000D01*
X75892476Y-109861000D01*
X75863405Y-109806613D01*
X75752962Y-109672038D01*
X75689000Y-109619546D01*
X75689000Y-104800000D01*
X82486928Y-104800000D01*
X82490000Y-105214250D01*
X82648750Y-105373000D01*
X83573000Y-105373000D01*
X83573000Y-104323750D01*
X83414250Y-104165000D01*
X83125000Y-104161928D01*
X83000518Y-104174188D01*
X82880820Y-104210498D01*
X82770506Y-104269463D01*
X82673815Y-104348815D01*
X82594463Y-104445506D01*
X82535498Y-104555820D01*
X82499188Y-104675518D01*
X82486928Y-104800000D01*
X75689000Y-104800000D01*
X75689000Y-97859937D01*
X75727962Y-97827962D01*
X75838405Y-97693387D01*
X75867476Y-97639000D01*
X78981340Y-97639000D01*
X79025000Y-97643300D01*
X79068660Y-97639000D01*
X79068667Y-97639000D01*
X79199274Y-97626136D01*
X79366851Y-97575303D01*
X79521291Y-97492753D01*
X79656659Y-97381659D01*
X79684499Y-97347736D01*
X87444163Y-89588072D01*
X87850001Y-89588072D01*
X88023255Y-89571008D01*
X88189851Y-89520472D01*
X88343387Y-89438405D01*
X88477962Y-89327962D01*
X88588405Y-89193387D01*
X88670472Y-89039851D01*
X88721008Y-88873255D01*
X88738072Y-88700001D01*
X88738072Y-87799999D01*
X88721008Y-87626745D01*
X88670472Y-87460149D01*
X88588405Y-87306613D01*
X88477962Y-87172038D01*
X88343387Y-87061595D01*
X88256727Y-87015274D01*
X88156659Y-86893341D01*
X88122743Y-86865507D01*
X75914000Y-74656765D01*
X75914000Y-72630454D01*
X75977962Y-72577962D01*
X76088405Y-72443387D01*
X76170472Y-72289851D01*
X76221008Y-72123255D01*
X76238072Y-71950001D01*
X76238072Y-71049999D01*
X76221008Y-70876745D01*
X76170472Y-70710149D01*
X76088405Y-70556613D01*
X75977962Y-70422038D01*
X75843387Y-70311595D01*
X75689851Y-70229528D01*
X75523255Y-70178992D01*
X75350001Y-70161928D01*
X74699999Y-70161928D01*
X74526745Y-70178992D01*
X74360149Y-70229528D01*
X74206613Y-70311595D01*
X74072038Y-70422038D01*
X74066658Y-70428594D01*
X74001185Y-70348815D01*
X73904494Y-70269463D01*
X73794180Y-70210498D01*
X73674482Y-70174188D01*
X73550000Y-70161928D01*
X73260750Y-70165000D01*
X73102000Y-70323750D01*
X73102000Y-71373000D01*
X73122000Y-71373000D01*
X73122000Y-71627000D01*
X73102000Y-71627000D01*
X73102000Y-72676250D01*
X73260750Y-72835000D01*
X73550000Y-72838072D01*
X73674482Y-72825812D01*
X73794180Y-72789502D01*
X73904494Y-72730537D01*
X74001185Y-72651185D01*
X74066658Y-72571406D01*
X74072038Y-72577962D01*
X74136000Y-72630455D01*
X74136001Y-74981330D01*
X74131700Y-75025000D01*
X74148864Y-75199274D01*
X74199698Y-75366852D01*
X74282248Y-75521291D01*
X74393342Y-75656659D01*
X74427259Y-75684494D01*
X85709257Y-86966493D01*
X85602000Y-87073750D01*
X85602000Y-88123000D01*
X85622000Y-88123000D01*
X85622000Y-88377000D01*
X85602000Y-88377000D01*
X85602000Y-88397000D01*
X85348000Y-88397000D01*
X85348000Y-88377000D01*
X84423750Y-88377000D01*
X84265000Y-88535750D01*
X84261928Y-88950000D01*
X84274188Y-89074482D01*
X84310498Y-89194180D01*
X84369463Y-89304494D01*
X84448815Y-89401185D01*
X84545506Y-89480537D01*
X84655820Y-89539502D01*
X84775518Y-89575812D01*
X84900000Y-89588072D01*
X84930012Y-89587753D01*
X78656765Y-95861000D01*
X75867476Y-95861000D01*
X75838405Y-95806613D01*
X75727962Y-95672038D01*
X75664000Y-95619546D01*
X75664000Y-87550000D01*
X84261928Y-87550000D01*
X84265000Y-87964250D01*
X84423750Y-88123000D01*
X85348000Y-88123000D01*
X85348000Y-87073750D01*
X85189250Y-86915000D01*
X84900000Y-86911928D01*
X84775518Y-86924188D01*
X84655820Y-86960498D01*
X84545506Y-87019463D01*
X84448815Y-87098815D01*
X84369463Y-87195506D01*
X84310498Y-87305820D01*
X84274188Y-87425518D01*
X84261928Y-87550000D01*
X75664000Y-87550000D01*
X75664000Y-85785897D01*
X75714851Y-85770472D01*
X75868387Y-85688405D01*
X76002962Y-85577962D01*
X76113405Y-85443387D01*
X76195472Y-85289851D01*
X76246008Y-85123255D01*
X76263072Y-84950001D01*
X76263072Y-84049999D01*
X76246008Y-83876745D01*
X76195472Y-83710149D01*
X76113405Y-83556613D01*
X76002962Y-83422038D01*
X75868387Y-83311595D01*
X75714851Y-83229528D01*
X75548255Y-83178992D01*
X75375001Y-83161928D01*
X74724999Y-83161928D01*
X74551745Y-83178992D01*
X74385149Y-83229528D01*
X74231613Y-83311595D01*
X74097038Y-83422038D01*
X74091658Y-83428594D01*
X74026185Y-83348815D01*
X73929494Y-83269463D01*
X73819180Y-83210498D01*
X73699482Y-83174188D01*
X73575000Y-83161928D01*
X73285750Y-83165000D01*
X73127000Y-83323750D01*
X73127000Y-84373000D01*
X73147000Y-84373000D01*
X73147000Y-84627000D01*
X73127000Y-84627000D01*
X73127000Y-85676250D01*
X73285750Y-85835000D01*
X73575000Y-85838072D01*
X73699482Y-85825812D01*
X73819180Y-85789502D01*
X73886001Y-85753785D01*
X73886000Y-94603765D01*
X66934499Y-87652264D01*
X66906659Y-87618341D01*
X66771291Y-87507247D01*
X66616851Y-87424697D01*
X66449274Y-87373864D01*
X66318667Y-87361000D01*
X66318660Y-87361000D01*
X66275000Y-87356700D01*
X66231340Y-87361000D01*
X63892476Y-87361000D01*
X63863405Y-87306613D01*
X63752962Y-87172038D01*
X63618387Y-87061595D01*
X63464851Y-86979528D01*
X63298255Y-86928992D01*
X63125001Y-86911928D01*
X62474999Y-86911928D01*
X62301745Y-86928992D01*
X62135149Y-86979528D01*
X61981613Y-87061595D01*
X61847038Y-87172038D01*
X61841658Y-87178594D01*
X61776185Y-87098815D01*
X61679494Y-87019463D01*
X61569180Y-86960498D01*
X61449482Y-86924188D01*
X61325000Y-86911928D01*
X61035750Y-86915000D01*
X60877000Y-87073750D01*
X60623000Y-87073750D01*
X60464250Y-86915000D01*
X60175000Y-86911928D01*
X60050518Y-86924188D01*
X59930820Y-86960498D01*
X59820506Y-87019463D01*
X59723815Y-87098815D01*
X59644463Y-87195506D01*
X59585498Y-87305820D01*
X59549188Y-87425518D01*
X59536928Y-87550000D01*
X56009856Y-87550000D01*
X56849141Y-85200000D01*
X71786928Y-85200000D01*
X71799188Y-85324482D01*
X71835498Y-85444180D01*
X71894463Y-85554494D01*
X71973815Y-85651185D01*
X72070506Y-85730537D01*
X72180820Y-85789502D01*
X72300518Y-85825812D01*
X72425000Y-85838072D01*
X72714250Y-85835000D01*
X72873000Y-85676250D01*
X72873000Y-84627000D01*
X71948750Y-84627000D01*
X71790000Y-84785750D01*
X71786928Y-85200000D01*
X56849141Y-85200000D01*
X57349140Y-83800000D01*
X71786928Y-83800000D01*
X71790000Y-84214250D01*
X71948750Y-84373000D01*
X72873000Y-84373000D01*
X72873000Y-83323750D01*
X72714250Y-83165000D01*
X72425000Y-83161928D01*
X72300518Y-83174188D01*
X72180820Y-83210498D01*
X72070506Y-83269463D01*
X71973815Y-83348815D01*
X71894463Y-83445506D01*
X71835498Y-83555820D01*
X71799188Y-83675518D01*
X71786928Y-83800000D01*
X57349140Y-83800000D01*
X61491998Y-72200000D01*
X71761928Y-72200000D01*
X71774188Y-72324482D01*
X71810498Y-72444180D01*
X71869463Y-72554494D01*
X71948815Y-72651185D01*
X72045506Y-72730537D01*
X72155820Y-72789502D01*
X72275518Y-72825812D01*
X72400000Y-72838072D01*
X72689250Y-72835000D01*
X72848000Y-72676250D01*
X72848000Y-71627000D01*
X71923750Y-71627000D01*
X71765000Y-71785750D01*
X71761928Y-72200000D01*
X61491998Y-72200000D01*
X61991998Y-70800000D01*
X71761928Y-70800000D01*
X71765000Y-71214250D01*
X71923750Y-71373000D01*
X72848000Y-71373000D01*
X72848000Y-70323750D01*
X72689250Y-70165000D01*
X72400000Y-70161928D01*
X72275518Y-70174188D01*
X72155820Y-70210498D01*
X72045506Y-70269463D01*
X71948815Y-70348815D01*
X71869463Y-70445506D01*
X71810498Y-70555820D01*
X71774188Y-70675518D01*
X71761928Y-70800000D01*
X61991998Y-70800000D01*
X65089499Y-62127000D01*
X82414159Y-62127000D01*
X93632156Y-90047348D01*
G37*
X93632156Y-90047348D02*
X93643658Y-90069428D01*
X93659246Y-90088841D01*
X93678322Y-90104839D01*
X93700152Y-90116808D01*
X93723898Y-90124289D01*
X93750000Y-90127000D01*
X113340000Y-90127000D01*
X113340000Y-110519912D01*
X113276949Y-110468167D01*
X113062401Y-110353489D01*
X112829602Y-110282870D01*
X112648165Y-110265000D01*
X111826835Y-110265000D01*
X111645398Y-110282870D01*
X111412599Y-110353489D01*
X111198051Y-110468167D01*
X111009998Y-110622498D01*
X110855667Y-110810551D01*
X110740989Y-111025099D01*
X110670370Y-111257898D01*
X110646525Y-111500000D01*
X110649428Y-111529475D01*
X110649428Y-111611000D01*
X110571830Y-111611000D01*
X110404449Y-111443619D01*
X110181701Y-111294784D01*
X109934197Y-111192264D01*
X109671448Y-111140000D01*
X109403552Y-111140000D01*
X109140803Y-111192264D01*
X108893299Y-111294784D01*
X108670551Y-111443619D01*
X108481119Y-111633051D01*
X108332284Y-111855799D01*
X108229764Y-112103303D01*
X108177500Y-112366052D01*
X108177500Y-112633948D01*
X108229764Y-112896697D01*
X108332284Y-113144201D01*
X108333079Y-113145390D01*
X108276979Y-113246424D01*
X108238759Y-113365526D01*
X108227500Y-113468250D01*
X108386250Y-113627000D01*
X108498822Y-113627000D01*
X108411315Y-113698815D01*
X108331963Y-113795506D01*
X108295468Y-113863782D01*
X108227500Y-113931750D01*
X108237488Y-114022880D01*
X108236688Y-114025518D01*
X108224428Y-114150000D01*
X108224428Y-114550000D01*
X108236688Y-114674482D01*
X108236845Y-114675000D01*
X108236688Y-114675518D01*
X108224428Y-114800000D01*
X108224428Y-115200000D01*
X108236688Y-115324482D01*
X108236845Y-115325000D01*
X108236688Y-115325518D01*
X108227875Y-115415001D01*
X104397236Y-115415001D01*
X99375572Y-110393337D01*
X99375572Y-108824999D01*
X99358508Y-108651745D01*
X99307972Y-108485149D01*
X99225905Y-108331613D01*
X99115462Y-108197038D01*
X98980887Y-108086595D01*
X98827351Y-108004528D01*
X98660755Y-107953992D01*
X98487501Y-107936928D01*
X97462499Y-107936928D01*
X97289245Y-107953992D01*
X97122649Y-108004528D01*
X96969113Y-108086595D01*
X96834538Y-108197038D01*
X96724095Y-108331613D01*
X96642028Y-108485149D01*
X96591492Y-108651745D01*
X96574428Y-108824999D01*
X96574428Y-111675001D01*
X96591492Y-111848255D01*
X96642028Y-112014851D01*
X96724095Y-112168387D01*
X96834538Y-112302962D01*
X96969113Y-112413405D01*
X97122649Y-112495472D01*
X97289245Y-112546008D01*
X97462499Y-112563072D01*
X98487501Y-112563072D01*
X98660755Y-112546008D01*
X98827351Y-112495472D01*
X98915904Y-112448139D01*
X103369502Y-116901737D01*
X103397342Y-116935660D01*
X103532710Y-117046754D01*
X103687150Y-117129304D01*
X103716055Y-117138072D01*
X103854725Y-117180137D01*
X103887925Y-117183407D01*
X103985334Y-117193001D01*
X103985340Y-117193001D01*
X104029000Y-117197301D01*
X104072660Y-117193001D01*
X108211922Y-117193001D01*
X108177500Y-117366052D01*
X108177500Y-117633948D01*
X108229764Y-117896697D01*
X108332284Y-118144201D01*
X108481119Y-118366949D01*
X108670551Y-118556381D01*
X108893299Y-118705216D01*
X109140803Y-118807736D01*
X109403552Y-118860000D01*
X109671448Y-118860000D01*
X109934197Y-118807736D01*
X109978890Y-118789223D01*
X109981159Y-118789000D01*
X110684596Y-118789000D01*
X110740989Y-118974901D01*
X110855667Y-119189449D01*
X111009998Y-119377502D01*
X111198051Y-119531833D01*
X111412599Y-119646511D01*
X111645398Y-119717130D01*
X111826835Y-119735000D01*
X112648165Y-119735000D01*
X112829602Y-119717130D01*
X112926623Y-119687699D01*
X112682900Y-120437801D01*
X112183560Y-121498952D01*
X111555165Y-122489144D01*
X110807612Y-123392780D01*
X109952708Y-124195588D01*
X109003922Y-124884922D01*
X107976227Y-125449903D01*
X106885813Y-125881627D01*
X105749897Y-126173281D01*
X104576058Y-126321571D01*
X103989642Y-126340000D01*
X44020747Y-126340000D01*
X42829552Y-126265056D01*
X41677556Y-126045302D01*
X40562199Y-125682900D01*
X39501048Y-125183560D01*
X38510856Y-124555165D01*
X37607220Y-123807612D01*
X36804412Y-122952708D01*
X36115078Y-122003922D01*
X35550097Y-120976227D01*
X35118373Y-119885813D01*
X34826719Y-118749897D01*
X34678429Y-117576058D01*
X34660000Y-116989642D01*
X34660000Y-115243376D01*
X42923000Y-115243376D01*
X42923000Y-116356625D01*
X42943214Y-116561860D01*
X43023096Y-116825195D01*
X43152817Y-117067887D01*
X43327393Y-117280608D01*
X43540114Y-117455183D01*
X43782806Y-117584904D01*
X44046141Y-117664786D01*
X44320000Y-117691759D01*
X44593860Y-117664786D01*
X44857195Y-117584904D01*
X45099887Y-117455183D01*
X45312608Y-117280608D01*
X45487183Y-117067887D01*
X45616904Y-116825195D01*
X45658218Y-116689000D01*
X56131340Y-116689000D01*
X56175000Y-116693300D01*
X56218660Y-116689000D01*
X56218667Y-116689000D01*
X56349274Y-116676136D01*
X56516851Y-116625303D01*
X56671291Y-116542753D01*
X56806659Y-116431659D01*
X56834499Y-116397736D01*
X58144164Y-115088072D01*
X58550001Y-115088072D01*
X58723255Y-115071008D01*
X58889851Y-115020472D01*
X59043387Y-114938405D01*
X59177962Y-114827962D01*
X59250000Y-114740184D01*
X59322038Y-114827962D01*
X59456613Y-114938405D01*
X59610149Y-115020472D01*
X59776745Y-115071008D01*
X59949999Y-115088072D01*
X60600001Y-115088072D01*
X60773255Y-115071008D01*
X60939851Y-115020472D01*
X61093387Y-114938405D01*
X61227962Y-114827962D01*
X61338405Y-114693387D01*
X61367476Y-114639000D01*
X63084455Y-114639000D01*
X63119463Y-114704494D01*
X63198815Y-114801185D01*
X63295506Y-114880537D01*
X63405820Y-114939502D01*
X63525518Y-114975812D01*
X63650000Y-114988072D01*
X64550000Y-114988072D01*
X64674482Y-114975812D01*
X64794180Y-114939502D01*
X64904494Y-114880537D01*
X65001185Y-114801185D01*
X65080537Y-114704494D01*
X65139502Y-114594180D01*
X65175812Y-114474482D01*
X65188072Y-114350000D01*
X65188072Y-113150000D01*
X66311928Y-113150000D01*
X66311928Y-114350000D01*
X66324188Y-114474482D01*
X66360498Y-114594180D01*
X66419463Y-114704494D01*
X66498815Y-114801185D01*
X66595506Y-114880537D01*
X66705820Y-114939502D01*
X66825518Y-114975812D01*
X66950000Y-114988072D01*
X67850000Y-114988072D01*
X67974482Y-114975812D01*
X68094180Y-114939502D01*
X68204494Y-114880537D01*
X68301185Y-114801185D01*
X68380537Y-114704494D01*
X68415545Y-114639000D01*
X84015769Y-114639000D01*
X84024188Y-114724482D01*
X84060498Y-114844180D01*
X84119463Y-114954494D01*
X84198815Y-115051185D01*
X84295506Y-115130537D01*
X84405820Y-115189502D01*
X84525518Y-115225812D01*
X84650000Y-115238072D01*
X85550000Y-115238072D01*
X85674482Y-115225812D01*
X85794180Y-115189502D01*
X85904494Y-115130537D01*
X86001185Y-115051185D01*
X86080537Y-114954494D01*
X86139502Y-114844180D01*
X86175812Y-114724482D01*
X86188072Y-114600000D01*
X86188072Y-113400000D01*
X87311928Y-113400000D01*
X87311928Y-114600000D01*
X87324188Y-114724482D01*
X87360498Y-114844180D01*
X87419463Y-114954494D01*
X87498815Y-115051185D01*
X87595506Y-115130537D01*
X87705820Y-115189502D01*
X87825518Y-115225812D01*
X87950000Y-115238072D01*
X88850000Y-115238072D01*
X88974482Y-115225812D01*
X89094180Y-115189502D01*
X89204494Y-115130537D01*
X89301185Y-115051185D01*
X89380537Y-114954494D01*
X89439502Y-114844180D01*
X89475812Y-114724482D01*
X89488072Y-114600000D01*
X89488072Y-114019163D01*
X91059096Y-112448139D01*
X91147649Y-112495472D01*
X91314245Y-112546008D01*
X91487499Y-112563072D01*
X92512501Y-112563072D01*
X92685755Y-112546008D01*
X92852351Y-112495472D01*
X93005887Y-112413405D01*
X93140462Y-112302962D01*
X93250905Y-112168387D01*
X93332972Y-112014851D01*
X93383508Y-111848255D01*
X93400572Y-111675001D01*
X93400572Y-108824999D01*
X93383508Y-108651745D01*
X93332972Y-108485149D01*
X93250905Y-108331613D01*
X93140462Y-108197038D01*
X93005887Y-108086595D01*
X92852351Y-108004528D01*
X92685755Y-107953992D01*
X92512501Y-107936928D01*
X91487499Y-107936928D01*
X91314245Y-107953992D01*
X91147649Y-108004528D01*
X90994113Y-108086595D01*
X90859538Y-108197038D01*
X90749095Y-108331613D01*
X90667028Y-108485149D01*
X90616492Y-108651745D01*
X90599428Y-108824999D01*
X90599428Y-110393336D01*
X88230837Y-112761928D01*
X87950000Y-112761928D01*
X87825518Y-112774188D01*
X87705820Y-112810498D01*
X87595506Y-112869463D01*
X87498815Y-112948815D01*
X87419463Y-113045506D01*
X87360498Y-113155820D01*
X87324188Y-113275518D01*
X87311928Y-113400000D01*
X86188072Y-113400000D01*
X86175812Y-113275518D01*
X86139502Y-113155820D01*
X86080537Y-113045506D01*
X86001185Y-112948815D01*
X85989000Y-112938815D01*
X85989000Y-111518235D01*
X89868236Y-107639000D01*
X107627286Y-107639000D01*
X107753709Y-107742753D01*
X107908149Y-107825303D01*
X108075726Y-107876136D01*
X108206333Y-107889000D01*
X109293667Y-107889000D01*
X109424274Y-107876136D01*
X109591851Y-107825303D01*
X109746291Y-107742753D01*
X109751995Y-107738072D01*
X110500000Y-107738072D01*
X110624482Y-107725812D01*
X110699149Y-107703162D01*
X110716304Y-107789405D01*
X110816939Y-108032359D01*
X110963038Y-108251013D01*
X111148987Y-108436962D01*
X111367641Y-108583061D01*
X111610595Y-108683696D01*
X111868514Y-108735000D01*
X112131486Y-108735000D01*
X112389405Y-108683696D01*
X112632359Y-108583061D01*
X112851013Y-108436962D01*
X113036962Y-108251013D01*
X113183061Y-108032359D01*
X113283696Y-107789405D01*
X113335000Y-107531486D01*
X113335000Y-107268514D01*
X113283696Y-107010595D01*
X113183061Y-106767641D01*
X113036962Y-106548987D01*
X112851013Y-106363038D01*
X112632359Y-106216939D01*
X112389405Y-106116304D01*
X112131486Y-106065000D01*
X111868514Y-106065000D01*
X111610595Y-106116304D01*
X111367641Y-106216939D01*
X111148987Y-106363038D01*
X111138072Y-106373953D01*
X111138072Y-105900000D01*
X111125812Y-105775518D01*
X111089502Y-105655820D01*
X111030537Y-105545506D01*
X110951185Y-105448815D01*
X110854494Y-105369463D01*
X110744180Y-105310498D01*
X110624482Y-105274188D01*
X110500000Y-105261928D01*
X108000000Y-105261928D01*
X107875518Y-105274188D01*
X107755820Y-105310498D01*
X107645506Y-105369463D01*
X107548815Y-105448815D01*
X107469463Y-105545506D01*
X107410498Y-105655820D01*
X107374188Y-105775518D01*
X107365769Y-105861000D01*
X89543660Y-105861000D01*
X89500000Y-105856700D01*
X89456340Y-105861000D01*
X89456333Y-105861000D01*
X89342325Y-105872229D01*
X89325725Y-105873864D01*
X89274892Y-105889284D01*
X89158149Y-105924697D01*
X89003709Y-106007247D01*
X88868341Y-106118341D01*
X88840506Y-106152258D01*
X84502259Y-110490506D01*
X84468342Y-110518341D01*
X84440507Y-110552258D01*
X84440505Y-110552260D01*
X84357248Y-110653709D01*
X84274698Y-110808148D01*
X84223864Y-110975726D01*
X84206700Y-111150000D01*
X84211001Y-111193670D01*
X84211000Y-112861000D01*
X68415545Y-112861000D01*
X68380537Y-112795506D01*
X68301185Y-112698815D01*
X68204494Y-112619463D01*
X68094180Y-112560498D01*
X67974482Y-112524188D01*
X67850000Y-112511928D01*
X66950000Y-112511928D01*
X66825518Y-112524188D01*
X66705820Y-112560498D01*
X66595506Y-112619463D01*
X66498815Y-112698815D01*
X66419463Y-112795506D01*
X66360498Y-112905820D01*
X66324188Y-113025518D01*
X66311928Y-113150000D01*
X65188072Y-113150000D01*
X65175812Y-113025518D01*
X65139502Y-112905820D01*
X65080537Y-112795506D01*
X65001185Y-112698815D01*
X64904494Y-112619463D01*
X64794180Y-112560498D01*
X64674482Y-112524188D01*
X64550000Y-112511928D01*
X63650000Y-112511928D01*
X63525518Y-112524188D01*
X63405820Y-112560498D01*
X63295506Y-112619463D01*
X63198815Y-112698815D01*
X63119463Y-112795506D01*
X63084455Y-112861000D01*
X61367476Y-112861000D01*
X61338405Y-112806613D01*
X61227962Y-112672038D01*
X61093387Y-112561595D01*
X60939851Y-112479528D01*
X60773255Y-112428992D01*
X60600001Y-112411928D01*
X59949999Y-112411928D01*
X59776745Y-112428992D01*
X59610149Y-112479528D01*
X59456613Y-112561595D01*
X59322038Y-112672038D01*
X59250000Y-112759816D01*
X59177962Y-112672038D01*
X59043387Y-112561595D01*
X58889851Y-112479528D01*
X58723255Y-112428992D01*
X58550001Y-112411928D01*
X57899999Y-112411928D01*
X57726745Y-112428992D01*
X57560149Y-112479528D01*
X57406613Y-112561595D01*
X57272038Y-112672038D01*
X57161595Y-112806613D01*
X57079528Y-112960149D01*
X57028992Y-113126745D01*
X57011928Y-113299999D01*
X57011928Y-113705836D01*
X55806765Y-114911000D01*
X45658218Y-114911000D01*
X45616904Y-114774805D01*
X45487183Y-114532113D01*
X45312607Y-114319392D01*
X45099886Y-114144817D01*
X44857194Y-114015096D01*
X44593859Y-113935214D01*
X44320000Y-113908241D01*
X44046140Y-113935214D01*
X43782805Y-114015096D01*
X43540113Y-114144817D01*
X43327392Y-114319393D01*
X43152817Y-114532114D01*
X43023096Y-114774806D01*
X42943214Y-115038141D01*
X42923000Y-115243376D01*
X34660000Y-115243376D01*
X34660000Y-111450000D01*
X71536928Y-111450000D01*
X71549188Y-111574482D01*
X71585498Y-111694180D01*
X71644463Y-111804494D01*
X71723815Y-111901185D01*
X71820506Y-111980537D01*
X71930820Y-112039502D01*
X72050518Y-112075812D01*
X72175000Y-112088072D01*
X72464250Y-112085000D01*
X72623000Y-111926250D01*
X72623000Y-110877000D01*
X71698750Y-110877000D01*
X71540000Y-111035750D01*
X71536928Y-111450000D01*
X34660000Y-111450000D01*
X34660000Y-106450000D01*
X60761928Y-106450000D01*
X60774188Y-106574482D01*
X60810498Y-106694180D01*
X60869463Y-106804494D01*
X60948815Y-106901185D01*
X61045506Y-106980537D01*
X61155820Y-107039502D01*
X61275518Y-107075812D01*
X61400000Y-107088072D01*
X61689250Y-107085000D01*
X61848000Y-106926250D01*
X61848000Y-105877000D01*
X60923750Y-105877000D01*
X60765000Y-106035750D01*
X60761928Y-106450000D01*
X34660000Y-106450000D01*
X34660000Y-105050000D01*
X60761928Y-105050000D01*
X60765000Y-105464250D01*
X60923750Y-105623000D01*
X61848000Y-105623000D01*
X61848000Y-104573750D01*
X61689250Y-104415000D01*
X61400000Y-104411928D01*
X61275518Y-104424188D01*
X61155820Y-104460498D01*
X61045506Y-104519463D01*
X60948815Y-104598815D01*
X60869463Y-104695506D01*
X60810498Y-104805820D01*
X60774188Y-104925518D01*
X60761928Y-105050000D01*
X34660000Y-105050000D01*
X34660000Y-102927000D01*
X42923000Y-102927000D01*
X42923000Y-103415000D01*
X42974619Y-103685101D01*
X43077941Y-103939942D01*
X43228994Y-104169729D01*
X43421974Y-104365632D01*
X43649465Y-104520122D01*
X43902724Y-104627262D01*
X43976930Y-104642220D01*
X44193000Y-104519720D01*
X44193000Y-102927000D01*
X44447000Y-102927000D01*
X44447000Y-104519720D01*
X44663070Y-104642220D01*
X44737276Y-104627262D01*
X44990535Y-104520122D01*
X45218026Y-104365632D01*
X45411006Y-104169729D01*
X45562059Y-103939942D01*
X45665381Y-103685101D01*
X45717000Y-103415000D01*
X45717000Y-102927000D01*
X44447000Y-102927000D01*
X44193000Y-102927000D01*
X42923000Y-102927000D01*
X34660000Y-102927000D01*
X34660000Y-102185000D01*
X42923000Y-102185000D01*
X42923000Y-102673000D01*
X44193000Y-102673000D01*
X44193000Y-101080280D01*
X44447000Y-101080280D01*
X44447000Y-102673000D01*
X45717000Y-102673000D01*
X45717000Y-102185000D01*
X45665381Y-101914899D01*
X45562059Y-101660058D01*
X45411006Y-101430271D01*
X45218026Y-101234368D01*
X44990535Y-101079878D01*
X44737276Y-100972738D01*
X44663070Y-100957780D01*
X44447000Y-101080280D01*
X44193000Y-101080280D01*
X43976930Y-100957780D01*
X43902724Y-100972738D01*
X43649465Y-101079878D01*
X43421974Y-101234368D01*
X43228994Y-101430271D01*
X43077941Y-101660058D01*
X42974619Y-101914899D01*
X42923000Y-102185000D01*
X34660000Y-102185000D01*
X34660000Y-97450000D01*
X71511928Y-97450000D01*
X71524188Y-97574482D01*
X71560498Y-97694180D01*
X71619463Y-97804494D01*
X71698815Y-97901185D01*
X71795506Y-97980537D01*
X71905820Y-98039502D01*
X72025518Y-98075812D01*
X72150000Y-98088072D01*
X72439250Y-98085000D01*
X72598000Y-97926250D01*
X72598000Y-96877000D01*
X71673750Y-96877000D01*
X71515000Y-97035750D01*
X71511928Y-97450000D01*
X34660000Y-97450000D01*
X34660000Y-90127000D01*
X55000000Y-90127000D01*
X55024776Y-90124560D01*
X55048601Y-90117333D01*
X55070557Y-90105597D01*
X55089803Y-90089803D01*
X55105597Y-90070557D01*
X55119601Y-90042715D01*
X55509856Y-88950000D01*
X59536928Y-88950000D01*
X59549188Y-89074482D01*
X59585498Y-89194180D01*
X59644463Y-89304494D01*
X59723815Y-89401185D01*
X59820506Y-89480537D01*
X59930820Y-89539502D01*
X60050518Y-89575812D01*
X60175000Y-89588072D01*
X60464250Y-89585000D01*
X60623000Y-89426250D01*
X60623000Y-88377000D01*
X59698750Y-88377000D01*
X59540000Y-88535750D01*
X59536928Y-88950000D01*
X55509856Y-88950000D01*
X56009856Y-87550000D01*
X59536928Y-87550000D01*
X59540000Y-87964250D01*
X59698750Y-88123000D01*
X60623000Y-88123000D01*
X60623000Y-87073750D01*
X60877000Y-87073750D01*
X60877000Y-88123000D01*
X60897000Y-88123000D01*
X60897000Y-88377000D01*
X60877000Y-88377000D01*
X60877000Y-89426250D01*
X61035750Y-89585000D01*
X61325000Y-89588072D01*
X61449482Y-89575812D01*
X61569180Y-89539502D01*
X61679494Y-89480537D01*
X61776185Y-89401185D01*
X61841658Y-89321406D01*
X61847038Y-89327962D01*
X61981613Y-89438405D01*
X62135149Y-89520472D01*
X62301745Y-89571008D01*
X62474999Y-89588072D01*
X63125001Y-89588072D01*
X63298255Y-89571008D01*
X63464851Y-89520472D01*
X63618387Y-89438405D01*
X63752962Y-89327962D01*
X63863405Y-89193387D01*
X63892476Y-89139000D01*
X65906765Y-89139000D01*
X72180012Y-95412247D01*
X72150000Y-95411928D01*
X72025518Y-95424188D01*
X71905820Y-95460498D01*
X71795506Y-95519463D01*
X71698815Y-95598815D01*
X71619463Y-95695506D01*
X71560498Y-95805820D01*
X71524188Y-95925518D01*
X71511928Y-96050000D01*
X71515000Y-96464250D01*
X71673750Y-96623000D01*
X72598000Y-96623000D01*
X72598000Y-96603000D01*
X72852000Y-96603000D01*
X72852000Y-96623000D01*
X72872000Y-96623000D01*
X72872000Y-96877000D01*
X72852000Y-96877000D01*
X72852000Y-97926250D01*
X73010750Y-98085000D01*
X73300000Y-98088072D01*
X73424482Y-98075812D01*
X73544180Y-98039502D01*
X73654494Y-97980537D01*
X73751185Y-97901185D01*
X73816658Y-97821406D01*
X73822038Y-97827962D01*
X73911001Y-97900972D01*
X73911000Y-108603764D01*
X70459499Y-105152264D01*
X70431659Y-105118341D01*
X70296291Y-105007247D01*
X70141851Y-104924697D01*
X69974274Y-104873864D01*
X69843667Y-104861000D01*
X69843660Y-104861000D01*
X69800000Y-104856700D01*
X69756340Y-104861000D01*
X65117476Y-104861000D01*
X65088405Y-104806613D01*
X64977962Y-104672038D01*
X64843387Y-104561595D01*
X64689851Y-104479528D01*
X64523255Y-104428992D01*
X64350001Y-104411928D01*
X63699999Y-104411928D01*
X63526745Y-104428992D01*
X63360149Y-104479528D01*
X63206613Y-104561595D01*
X63072038Y-104672038D01*
X63066658Y-104678594D01*
X63001185Y-104598815D01*
X62904494Y-104519463D01*
X62794180Y-104460498D01*
X62674482Y-104424188D01*
X62550000Y-104411928D01*
X62260750Y-104415000D01*
X62102000Y-104573750D01*
X62102000Y-105623000D01*
X62122000Y-105623000D01*
X62122000Y-105877000D01*
X62102000Y-105877000D01*
X62102000Y-106926250D01*
X62260750Y-107085000D01*
X62550000Y-107088072D01*
X62674482Y-107075812D01*
X62794180Y-107039502D01*
X62904494Y-106980537D01*
X63001185Y-106901185D01*
X63066658Y-106821406D01*
X63072038Y-106827962D01*
X63206613Y-106938405D01*
X63360149Y-107020472D01*
X63526745Y-107071008D01*
X63699999Y-107088072D01*
X64350001Y-107088072D01*
X64523255Y-107071008D01*
X64689851Y-107020472D01*
X64843387Y-106938405D01*
X64977962Y-106827962D01*
X65088405Y-106693387D01*
X65117476Y-106639000D01*
X69431765Y-106639000D01*
X72205011Y-109412247D01*
X72175000Y-109411928D01*
X72050518Y-109424188D01*
X71930820Y-109460498D01*
X71820506Y-109519463D01*
X71723815Y-109598815D01*
X71644463Y-109695506D01*
X71585498Y-109805820D01*
X71549188Y-109925518D01*
X71536928Y-110050000D01*
X71540000Y-110464250D01*
X71698750Y-110623000D01*
X72623000Y-110623000D01*
X72623000Y-110603000D01*
X72877000Y-110603000D01*
X72877000Y-110623000D01*
X72897000Y-110623000D01*
X72897000Y-110877000D01*
X72877000Y-110877000D01*
X72877000Y-111926250D01*
X73035750Y-112085000D01*
X73325000Y-112088072D01*
X73449482Y-112075812D01*
X73569180Y-112039502D01*
X73679494Y-111980537D01*
X73776185Y-111901185D01*
X73841658Y-111821406D01*
X73847038Y-111827962D01*
X73981613Y-111938405D01*
X74135149Y-112020472D01*
X74301745Y-112071008D01*
X74474999Y-112088072D01*
X75125001Y-112088072D01*
X75298255Y-112071008D01*
X75464851Y-112020472D01*
X75618387Y-111938405D01*
X75752962Y-111827962D01*
X75863405Y-111693387D01*
X75892476Y-111639000D01*
X80456340Y-111639000D01*
X80500000Y-111643300D01*
X80543660Y-111639000D01*
X80543667Y-111639000D01*
X80674274Y-111626136D01*
X80841851Y-111575303D01*
X80996291Y-111492753D01*
X81131659Y-111381659D01*
X81159499Y-111347736D01*
X85669164Y-106838072D01*
X86075001Y-106838072D01*
X86248255Y-106821008D01*
X86414851Y-106770472D01*
X86568387Y-106688405D01*
X86702962Y-106577962D01*
X86813405Y-106443387D01*
X86895472Y-106289851D01*
X86946008Y-106123255D01*
X86963072Y-105950001D01*
X86963072Y-105544163D01*
X88118236Y-104389000D01*
X107361928Y-104389000D01*
X107361928Y-104600000D01*
X107374188Y-104724482D01*
X107410498Y-104844180D01*
X107469463Y-104954494D01*
X107548815Y-105051185D01*
X107645506Y-105130537D01*
X107755820Y-105189502D01*
X107875518Y-105225812D01*
X108000000Y-105238072D01*
X110500000Y-105238072D01*
X110624482Y-105225812D01*
X110744180Y-105189502D01*
X110854494Y-105130537D01*
X110951185Y-105051185D01*
X111030537Y-104954494D01*
X111089502Y-104844180D01*
X111125812Y-104724482D01*
X111138072Y-104600000D01*
X111138072Y-103400000D01*
X111125812Y-103275518D01*
X111089502Y-103155820D01*
X111030537Y-103045506D01*
X110951185Y-102948815D01*
X110854494Y-102869463D01*
X110744180Y-102810498D01*
X110624482Y-102774188D01*
X110500000Y-102761928D01*
X109251995Y-102761928D01*
X109246291Y-102757247D01*
X109210417Y-102738072D01*
X110500000Y-102738072D01*
X110624482Y-102725812D01*
X110744180Y-102689502D01*
X110854494Y-102630537D01*
X110951185Y-102551185D01*
X111030537Y-102454494D01*
X111089502Y-102344180D01*
X111125812Y-102224482D01*
X111138072Y-102100000D01*
X111138072Y-101626047D01*
X111148987Y-101636962D01*
X111367641Y-101783061D01*
X111610595Y-101883696D01*
X111868514Y-101935000D01*
X112131486Y-101935000D01*
X112389405Y-101883696D01*
X112632359Y-101783061D01*
X112851013Y-101636962D01*
X113036962Y-101451013D01*
X113183061Y-101232359D01*
X113283696Y-100989405D01*
X113335000Y-100731486D01*
X113335000Y-100468514D01*
X113283696Y-100210595D01*
X113183061Y-99967641D01*
X113036962Y-99748987D01*
X112851013Y-99563038D01*
X112632359Y-99416939D01*
X112389405Y-99316304D01*
X112131486Y-99265000D01*
X111868514Y-99265000D01*
X111610595Y-99316304D01*
X111367641Y-99416939D01*
X111148987Y-99563038D01*
X110963038Y-99748987D01*
X110816939Y-99967641D01*
X110716304Y-100210595D01*
X110699149Y-100296838D01*
X110624482Y-100274188D01*
X110500000Y-100261928D01*
X108000000Y-100261928D01*
X107875518Y-100274188D01*
X107755820Y-100310498D01*
X107645506Y-100369463D01*
X107548815Y-100448815D01*
X107469463Y-100545506D01*
X107410498Y-100655820D01*
X107374188Y-100775518D01*
X107361928Y-100900000D01*
X107361928Y-102100000D01*
X107374188Y-102224482D01*
X107410498Y-102344180D01*
X107469463Y-102454494D01*
X107548815Y-102551185D01*
X107621700Y-102611000D01*
X87793659Y-102611000D01*
X87749999Y-102606700D01*
X87706339Y-102611000D01*
X87706333Y-102611000D01*
X87608924Y-102620594D01*
X87575724Y-102623864D01*
X87474058Y-102654704D01*
X87408149Y-102674697D01*
X87253709Y-102757247D01*
X87118341Y-102868341D01*
X87090506Y-102902258D01*
X85830837Y-104161928D01*
X85424999Y-104161928D01*
X85251745Y-104178992D01*
X85085149Y-104229528D01*
X84931613Y-104311595D01*
X84797038Y-104422038D01*
X84791658Y-104428594D01*
X84726185Y-104348815D01*
X84629494Y-104269463D01*
X84519180Y-104210498D01*
X84399482Y-104174188D01*
X84275000Y-104161928D01*
X83985750Y-104165000D01*
X83827000Y-104323750D01*
X83827000Y-105373000D01*
X83847000Y-105373000D01*
X83847000Y-105627000D01*
X83827000Y-105627000D01*
X83827000Y-105647000D01*
X83573000Y-105647000D01*
X83573000Y-105627000D01*
X82648750Y-105627000D01*
X82490000Y-105785750D01*
X82486928Y-106200000D01*
X82499188Y-106324482D01*
X82535498Y-106444180D01*
X82594463Y-106554494D01*
X82673815Y-106651185D01*
X82770506Y-106730537D01*
X82880820Y-106789502D01*
X83000518Y-106825812D01*
X83125000Y-106838072D01*
X83155011Y-106837753D01*
X80131765Y-109861000D01*
X75892476Y-109861000D01*
X75863405Y-109806613D01*
X75752962Y-109672038D01*
X75689000Y-109619546D01*
X75689000Y-104800000D01*
X82486928Y-104800000D01*
X82490000Y-105214250D01*
X82648750Y-105373000D01*
X83573000Y-105373000D01*
X83573000Y-104323750D01*
X83414250Y-104165000D01*
X83125000Y-104161928D01*
X83000518Y-104174188D01*
X82880820Y-104210498D01*
X82770506Y-104269463D01*
X82673815Y-104348815D01*
X82594463Y-104445506D01*
X82535498Y-104555820D01*
X82499188Y-104675518D01*
X82486928Y-104800000D01*
X75689000Y-104800000D01*
X75689000Y-97859937D01*
X75727962Y-97827962D01*
X75838405Y-97693387D01*
X75867476Y-97639000D01*
X78981340Y-97639000D01*
X79025000Y-97643300D01*
X79068660Y-97639000D01*
X79068667Y-97639000D01*
X79199274Y-97626136D01*
X79366851Y-97575303D01*
X79521291Y-97492753D01*
X79656659Y-97381659D01*
X79684499Y-97347736D01*
X87444163Y-89588072D01*
X87850001Y-89588072D01*
X88023255Y-89571008D01*
X88189851Y-89520472D01*
X88343387Y-89438405D01*
X88477962Y-89327962D01*
X88588405Y-89193387D01*
X88670472Y-89039851D01*
X88721008Y-88873255D01*
X88738072Y-88700001D01*
X88738072Y-87799999D01*
X88721008Y-87626745D01*
X88670472Y-87460149D01*
X88588405Y-87306613D01*
X88477962Y-87172038D01*
X88343387Y-87061595D01*
X88256727Y-87015274D01*
X88156659Y-86893341D01*
X88122743Y-86865507D01*
X75914000Y-74656765D01*
X75914000Y-72630454D01*
X75977962Y-72577962D01*
X76088405Y-72443387D01*
X76170472Y-72289851D01*
X76221008Y-72123255D01*
X76238072Y-71950001D01*
X76238072Y-71049999D01*
X76221008Y-70876745D01*
X76170472Y-70710149D01*
X76088405Y-70556613D01*
X75977962Y-70422038D01*
X75843387Y-70311595D01*
X75689851Y-70229528D01*
X75523255Y-70178992D01*
X75350001Y-70161928D01*
X74699999Y-70161928D01*
X74526745Y-70178992D01*
X74360149Y-70229528D01*
X74206613Y-70311595D01*
X74072038Y-70422038D01*
X74066658Y-70428594D01*
X74001185Y-70348815D01*
X73904494Y-70269463D01*
X73794180Y-70210498D01*
X73674482Y-70174188D01*
X73550000Y-70161928D01*
X73260750Y-70165000D01*
X73102000Y-70323750D01*
X73102000Y-71373000D01*
X73122000Y-71373000D01*
X73122000Y-71627000D01*
X73102000Y-71627000D01*
X73102000Y-72676250D01*
X73260750Y-72835000D01*
X73550000Y-72838072D01*
X73674482Y-72825812D01*
X73794180Y-72789502D01*
X73904494Y-72730537D01*
X74001185Y-72651185D01*
X74066658Y-72571406D01*
X74072038Y-72577962D01*
X74136000Y-72630455D01*
X74136001Y-74981330D01*
X74131700Y-75025000D01*
X74148864Y-75199274D01*
X74199698Y-75366852D01*
X74282248Y-75521291D01*
X74393342Y-75656659D01*
X74427259Y-75684494D01*
X85709257Y-86966493D01*
X85602000Y-87073750D01*
X85602000Y-88123000D01*
X85622000Y-88123000D01*
X85622000Y-88377000D01*
X85602000Y-88377000D01*
X85602000Y-88397000D01*
X85348000Y-88397000D01*
X85348000Y-88377000D01*
X84423750Y-88377000D01*
X84265000Y-88535750D01*
X84261928Y-88950000D01*
X84274188Y-89074482D01*
X84310498Y-89194180D01*
X84369463Y-89304494D01*
X84448815Y-89401185D01*
X84545506Y-89480537D01*
X84655820Y-89539502D01*
X84775518Y-89575812D01*
X84900000Y-89588072D01*
X84930012Y-89587753D01*
X78656765Y-95861000D01*
X75867476Y-95861000D01*
X75838405Y-95806613D01*
X75727962Y-95672038D01*
X75664000Y-95619546D01*
X75664000Y-87550000D01*
X84261928Y-87550000D01*
X84265000Y-87964250D01*
X84423750Y-88123000D01*
X85348000Y-88123000D01*
X85348000Y-87073750D01*
X85189250Y-86915000D01*
X84900000Y-86911928D01*
X84775518Y-86924188D01*
X84655820Y-86960498D01*
X84545506Y-87019463D01*
X84448815Y-87098815D01*
X84369463Y-87195506D01*
X84310498Y-87305820D01*
X84274188Y-87425518D01*
X84261928Y-87550000D01*
X75664000Y-87550000D01*
X75664000Y-85785897D01*
X75714851Y-85770472D01*
X75868387Y-85688405D01*
X76002962Y-85577962D01*
X76113405Y-85443387D01*
X76195472Y-85289851D01*
X76246008Y-85123255D01*
X76263072Y-84950001D01*
X76263072Y-84049999D01*
X76246008Y-83876745D01*
X76195472Y-83710149D01*
X76113405Y-83556613D01*
X76002962Y-83422038D01*
X75868387Y-83311595D01*
X75714851Y-83229528D01*
X75548255Y-83178992D01*
X75375001Y-83161928D01*
X74724999Y-83161928D01*
X74551745Y-83178992D01*
X74385149Y-83229528D01*
X74231613Y-83311595D01*
X74097038Y-83422038D01*
X74091658Y-83428594D01*
X74026185Y-83348815D01*
X73929494Y-83269463D01*
X73819180Y-83210498D01*
X73699482Y-83174188D01*
X73575000Y-83161928D01*
X73285750Y-83165000D01*
X73127000Y-83323750D01*
X73127000Y-84373000D01*
X73147000Y-84373000D01*
X73147000Y-84627000D01*
X73127000Y-84627000D01*
X73127000Y-85676250D01*
X73285750Y-85835000D01*
X73575000Y-85838072D01*
X73699482Y-85825812D01*
X73819180Y-85789502D01*
X73886001Y-85753785D01*
X73886000Y-94603765D01*
X66934499Y-87652264D01*
X66906659Y-87618341D01*
X66771291Y-87507247D01*
X66616851Y-87424697D01*
X66449274Y-87373864D01*
X66318667Y-87361000D01*
X66318660Y-87361000D01*
X66275000Y-87356700D01*
X66231340Y-87361000D01*
X63892476Y-87361000D01*
X63863405Y-87306613D01*
X63752962Y-87172038D01*
X63618387Y-87061595D01*
X63464851Y-86979528D01*
X63298255Y-86928992D01*
X63125001Y-86911928D01*
X62474999Y-86911928D01*
X62301745Y-86928992D01*
X62135149Y-86979528D01*
X61981613Y-87061595D01*
X61847038Y-87172038D01*
X61841658Y-87178594D01*
X61776185Y-87098815D01*
X61679494Y-87019463D01*
X61569180Y-86960498D01*
X61449482Y-86924188D01*
X61325000Y-86911928D01*
X61035750Y-86915000D01*
X60877000Y-87073750D01*
X60623000Y-87073750D01*
X60464250Y-86915000D01*
X60175000Y-86911928D01*
X60050518Y-86924188D01*
X59930820Y-86960498D01*
X59820506Y-87019463D01*
X59723815Y-87098815D01*
X59644463Y-87195506D01*
X59585498Y-87305820D01*
X59549188Y-87425518D01*
X59536928Y-87550000D01*
X56009856Y-87550000D01*
X56849141Y-85200000D01*
X71786928Y-85200000D01*
X71799188Y-85324482D01*
X71835498Y-85444180D01*
X71894463Y-85554494D01*
X71973815Y-85651185D01*
X72070506Y-85730537D01*
X72180820Y-85789502D01*
X72300518Y-85825812D01*
X72425000Y-85838072D01*
X72714250Y-85835000D01*
X72873000Y-85676250D01*
X72873000Y-84627000D01*
X71948750Y-84627000D01*
X71790000Y-84785750D01*
X71786928Y-85200000D01*
X56849141Y-85200000D01*
X57349140Y-83800000D01*
X71786928Y-83800000D01*
X71790000Y-84214250D01*
X71948750Y-84373000D01*
X72873000Y-84373000D01*
X72873000Y-83323750D01*
X72714250Y-83165000D01*
X72425000Y-83161928D01*
X72300518Y-83174188D01*
X72180820Y-83210498D01*
X72070506Y-83269463D01*
X71973815Y-83348815D01*
X71894463Y-83445506D01*
X71835498Y-83555820D01*
X71799188Y-83675518D01*
X71786928Y-83800000D01*
X57349140Y-83800000D01*
X61491998Y-72200000D01*
X71761928Y-72200000D01*
X71774188Y-72324482D01*
X71810498Y-72444180D01*
X71869463Y-72554494D01*
X71948815Y-72651185D01*
X72045506Y-72730537D01*
X72155820Y-72789502D01*
X72275518Y-72825812D01*
X72400000Y-72838072D01*
X72689250Y-72835000D01*
X72848000Y-72676250D01*
X72848000Y-71627000D01*
X71923750Y-71627000D01*
X71765000Y-71785750D01*
X71761928Y-72200000D01*
X61491998Y-72200000D01*
X61991998Y-70800000D01*
X71761928Y-70800000D01*
X71765000Y-71214250D01*
X71923750Y-71373000D01*
X72848000Y-71373000D01*
X72848000Y-70323750D01*
X72689250Y-70165000D01*
X72400000Y-70161928D01*
X72275518Y-70174188D01*
X72155820Y-70210498D01*
X72045506Y-70269463D01*
X71948815Y-70348815D01*
X71869463Y-70445506D01*
X71810498Y-70555820D01*
X71774188Y-70675518D01*
X71761928Y-70800000D01*
X61991998Y-70800000D01*
X65089499Y-62127000D01*
X82414159Y-62127000D01*
X93632156Y-90047348D01*
D21*
G36*
X105170449Y-27734944D02*
G01*
X106322444Y-27954698D01*
X107437801Y-28317100D01*
X108498955Y-28816441D01*
X109489146Y-29444836D01*
X110392776Y-30192383D01*
X111195588Y-31047292D01*
X111884922Y-31996079D01*
X112449903Y-33023774D01*
X112881627Y-34114186D01*
X113173281Y-35250103D01*
X113321571Y-36423941D01*
X113340001Y-37010389D01*
X113340000Y-87873000D01*
X95086556Y-87873000D01*
X84118205Y-59953562D01*
X84106875Y-59931394D01*
X84091437Y-59911862D01*
X84072485Y-59895717D01*
X84050747Y-59883580D01*
X84027060Y-59875916D01*
X84000000Y-59873000D01*
X63000000Y-59873000D01*
X62975224Y-59875440D01*
X62951399Y-59882667D01*
X62929443Y-59894403D01*
X62910197Y-59910197D01*
X62894403Y-59929443D01*
X62880399Y-59957285D01*
X52910501Y-87873000D01*
X34660000Y-87873000D01*
X34660000Y-37020747D01*
X34734944Y-35829551D01*
X34954698Y-34677556D01*
X35317100Y-33562199D01*
X35816441Y-32501045D01*
X36444836Y-31510854D01*
X37192383Y-30607224D01*
X38047292Y-29804412D01*
X38996079Y-29115078D01*
X40023774Y-28550097D01*
X41114186Y-28118373D01*
X42250103Y-27826719D01*
X43423941Y-27678429D01*
X44010358Y-27660000D01*
X103979253Y-27660000D01*
X105170449Y-27734944D01*
G37*
X105170449Y-27734944D02*
X106322444Y-27954698D01*
X107437801Y-28317100D01*
X108498955Y-28816441D01*
X109489146Y-29444836D01*
X110392776Y-30192383D01*
X111195588Y-31047292D01*
X111884922Y-31996079D01*
X112449903Y-33023774D01*
X112881627Y-34114186D01*
X113173281Y-35250103D01*
X113321571Y-36423941D01*
X113340001Y-37010389D01*
X113340000Y-87873000D01*
X95086556Y-87873000D01*
X84118205Y-59953562D01*
X84106875Y-59931394D01*
X84091437Y-59911862D01*
X84072485Y-59895717D01*
X84050747Y-59883580D01*
X84027060Y-59875916D01*
X84000000Y-59873000D01*
X63000000Y-59873000D01*
X62975224Y-59875440D01*
X62951399Y-59882667D01*
X62929443Y-59894403D01*
X62910197Y-59910197D01*
X62894403Y-59929443D01*
X62880399Y-59957285D01*
X52910501Y-87873000D01*
X34660000Y-87873000D01*
X34660000Y-37020747D01*
X34734944Y-35829551D01*
X34954698Y-34677556D01*
X35317100Y-33562199D01*
X35816441Y-32501045D01*
X36444836Y-31510854D01*
X37192383Y-30607224D01*
X38047292Y-29804412D01*
X38996079Y-29115078D01*
X40023774Y-28550097D01*
X41114186Y-28118373D01*
X42250103Y-27826719D01*
X43423941Y-27678429D01*
X44010358Y-27660000D01*
X103979253Y-27660000D01*
X105170449Y-27734944D01*
%TD*%
M02*
