%TF.GenerationSoftware,KiCad,Pcbnew,(5.1.6)-1*%
%TF.CreationDate,2020-12-04T21:40:30+01:00*%
%TF.ProjectId,case_julgran_LED,63617365-5f6a-4756-9c67-72616e5f4c45,rev?*%
%TF.SameCoordinates,Original*%
%TF.FileFunction,Legend,Bot*%
%TF.FilePolarity,Positive*%
%FSLAX46Y46*%
G04 Gerber Fmt 4.6, Leading zero omitted, Abs format (unit mm)*
G04 Created by KiCad (PCBNEW (5.1.6)-1) date 2020-12-04 21:40:30*
%MOMM*%
%LPD*%
G01*
G04 APERTURE LIST*
%ADD10C,0.010000*%
%ADD11O,1.624000X2.600000*%
%ADD12C,1.550000*%
%ADD13O,2.000000X1.300000*%
%ADD14C,1.500000*%
G04 APERTURE END LIST*
%LPC*%
D10*
%TO.C,G\u002A\u002A\u002A*%
G36*
X93850000Y-82557353D02*
G01*
X98029337Y-82557353D01*
X99445687Y-82561773D01*
X100530650Y-82576684D01*
X101326281Y-82604560D01*
X101874637Y-82647877D01*
X102217773Y-82709110D01*
X102397746Y-82790734D01*
X102423289Y-82815946D01*
X102516671Y-83110985D01*
X102574164Y-83736629D01*
X102596502Y-84706981D01*
X102586230Y-85938983D01*
X102564874Y-87029334D01*
X102539871Y-87805846D01*
X102501247Y-88328155D01*
X102439027Y-88655897D01*
X102343235Y-88848710D01*
X102203898Y-88966228D01*
X102067647Y-89039401D01*
X101741994Y-89130142D01*
X101152935Y-89197833D01*
X100272197Y-89244029D01*
X99071510Y-89270284D01*
X97725367Y-89278129D01*
X93850000Y-89280882D01*
X93850000Y-90588235D01*
X98005515Y-90580037D01*
X99531736Y-90569833D01*
X100727367Y-90544362D01*
X101635125Y-90501246D01*
X102297728Y-90438105D01*
X102757893Y-90352558D01*
X102908088Y-90306906D01*
X103612433Y-89960531D01*
X104065184Y-89468070D01*
X104328395Y-88744321D01*
X104411702Y-88242347D01*
X104455820Y-87643789D01*
X104474497Y-86830472D01*
X104470490Y-85889119D01*
X104446552Y-84906451D01*
X104405441Y-83969192D01*
X104349912Y-83164062D01*
X104282720Y-82577785D01*
X104223761Y-82327676D01*
X103983717Y-82029481D01*
X103554395Y-81680312D01*
X103403160Y-81580617D01*
X103170154Y-81446166D01*
X102924016Y-81342486D01*
X102613279Y-81264647D01*
X102186478Y-81207720D01*
X101592148Y-81166776D01*
X100778823Y-81136887D01*
X99695037Y-81113124D01*
X98289325Y-81090557D01*
X98285662Y-81090502D01*
X93850000Y-81024388D01*
X93850000Y-82557353D01*
G37*
X93850000Y-82557353D02*
X98029337Y-82557353D01*
X99445687Y-82561773D01*
X100530650Y-82576684D01*
X101326281Y-82604560D01*
X101874637Y-82647877D01*
X102217773Y-82709110D01*
X102397746Y-82790734D01*
X102423289Y-82815946D01*
X102516671Y-83110985D01*
X102574164Y-83736629D01*
X102596502Y-84706981D01*
X102586230Y-85938983D01*
X102564874Y-87029334D01*
X102539871Y-87805846D01*
X102501247Y-88328155D01*
X102439027Y-88655897D01*
X102343235Y-88848710D01*
X102203898Y-88966228D01*
X102067647Y-89039401D01*
X101741994Y-89130142D01*
X101152935Y-89197833D01*
X100272197Y-89244029D01*
X99071510Y-89270284D01*
X97725367Y-89278129D01*
X93850000Y-89280882D01*
X93850000Y-90588235D01*
X98005515Y-90580037D01*
X99531736Y-90569833D01*
X100727367Y-90544362D01*
X101635125Y-90501246D01*
X102297728Y-90438105D01*
X102757893Y-90352558D01*
X102908088Y-90306906D01*
X103612433Y-89960531D01*
X104065184Y-89468070D01*
X104328395Y-88744321D01*
X104411702Y-88242347D01*
X104455820Y-87643789D01*
X104474497Y-86830472D01*
X104470490Y-85889119D01*
X104446552Y-84906451D01*
X104405441Y-83969192D01*
X104349912Y-83164062D01*
X104282720Y-82577785D01*
X104223761Y-82327676D01*
X103983717Y-82029481D01*
X103554395Y-81680312D01*
X103403160Y-81580617D01*
X103170154Y-81446166D01*
X102924016Y-81342486D01*
X102613279Y-81264647D01*
X102186478Y-81207720D01*
X101592148Y-81166776D01*
X100778823Y-81136887D01*
X99695037Y-81113124D01*
X98289325Y-81090557D01*
X98285662Y-81090502D01*
X93850000Y-81024388D01*
X93850000Y-82557353D01*
G36*
X90488235Y-90588235D02*
G01*
X92542647Y-90588235D01*
X92542647Y-88907353D01*
X90488235Y-88907353D01*
X90488235Y-90588235D01*
G37*
X90488235Y-90588235D02*
X92542647Y-90588235D01*
X92542647Y-88907353D01*
X90488235Y-88907353D01*
X90488235Y-90588235D01*
G36*
X82175071Y-81174666D02*
G01*
X81852043Y-81390073D01*
X81676974Y-81627182D01*
X81326942Y-82133876D01*
X80831029Y-82866864D01*
X80218316Y-83782859D01*
X79517885Y-84838571D01*
X78758819Y-85990710D01*
X78652587Y-86152573D01*
X75742805Y-90588235D01*
X76718829Y-90587872D01*
X77694853Y-90587508D01*
X80091304Y-86852577D01*
X80768532Y-85804985D01*
X81382040Y-84870956D01*
X81902538Y-84093865D01*
X82300735Y-83517089D01*
X82547342Y-83184005D01*
X82612628Y-83118725D01*
X82744907Y-83269064D01*
X83049330Y-83690648D01*
X83496440Y-84340267D01*
X84056777Y-85174712D01*
X84700884Y-86150773D01*
X85159168Y-86854019D01*
X87580837Y-90588235D01*
X89558006Y-90588235D01*
X86379412Y-85825735D01*
X85476451Y-84476378D01*
X84753339Y-83407166D01*
X84185027Y-82585929D01*
X83746466Y-81980495D01*
X83412607Y-81558695D01*
X83158402Y-81288355D01*
X82958803Y-81137307D01*
X82788760Y-81073379D01*
X82671266Y-81063235D01*
X82175071Y-81174666D01*
G37*
X82175071Y-81174666D02*
X81852043Y-81390073D01*
X81676974Y-81627182D01*
X81326942Y-82133876D01*
X80831029Y-82866864D01*
X80218316Y-83782859D01*
X79517885Y-84838571D01*
X78758819Y-85990710D01*
X78652587Y-86152573D01*
X75742805Y-90588235D01*
X76718829Y-90587872D01*
X77694853Y-90587508D01*
X80091304Y-86852577D01*
X80768532Y-85804985D01*
X81382040Y-84870956D01*
X81902538Y-84093865D01*
X82300735Y-83517089D01*
X82547342Y-83184005D01*
X82612628Y-83118725D01*
X82744907Y-83269064D01*
X83049330Y-83690648D01*
X83496440Y-84340267D01*
X84056777Y-85174712D01*
X84700884Y-86150773D01*
X85159168Y-86854019D01*
X87580837Y-90588235D01*
X89558006Y-90588235D01*
X86379412Y-85825735D01*
X85476451Y-84476378D01*
X84753339Y-83407166D01*
X84185027Y-82585929D01*
X83746466Y-81980495D01*
X83412607Y-81558695D01*
X83158402Y-81288355D01*
X82958803Y-81137307D01*
X82788760Y-81073379D01*
X82671266Y-81063235D01*
X82175071Y-81174666D01*
G36*
X72745588Y-90588235D02*
G01*
X74800000Y-90588235D01*
X74800000Y-88907353D01*
X72745588Y-88907353D01*
X72745588Y-90588235D01*
G37*
X72745588Y-90588235D02*
X74800000Y-90588235D01*
X74800000Y-88907353D01*
X72745588Y-88907353D01*
X72745588Y-90588235D01*
G36*
X60419117Y-82557353D02*
G01*
X64701365Y-82557353D01*
X66107118Y-82560605D01*
X67185623Y-82572340D01*
X67983124Y-82595524D01*
X68545861Y-82633121D01*
X68920076Y-82688099D01*
X69152012Y-82763424D01*
X69277101Y-82850840D01*
X69525363Y-83335474D01*
X69538640Y-83957134D01*
X69377252Y-84437278D01*
X69281605Y-84570091D01*
X69121729Y-84665776D01*
X68841955Y-84730361D01*
X68386616Y-84769874D01*
X67700043Y-84790342D01*
X66726566Y-84797795D01*
X66040979Y-84798529D01*
X64485841Y-84811343D01*
X63255648Y-84855055D01*
X62302527Y-84937568D01*
X61578601Y-85066787D01*
X61035996Y-85250616D01*
X60626837Y-85496959D01*
X60372426Y-85734405D01*
X60094293Y-86082737D01*
X59939089Y-86439962D01*
X59872179Y-86931497D01*
X59858823Y-87594158D01*
X59912197Y-88610786D01*
X60091141Y-89338647D01*
X60423891Y-89849601D01*
X60875698Y-90182021D01*
X61103770Y-90280617D01*
X61417445Y-90358478D01*
X61863001Y-90418795D01*
X62486715Y-90464761D01*
X63334863Y-90499565D01*
X64453725Y-90526401D01*
X65889577Y-90548458D01*
X66255515Y-90553022D01*
X71064706Y-90611191D01*
X71064706Y-89280882D01*
X66815809Y-89278129D01*
X65295531Y-89273989D01*
X64107043Y-89256608D01*
X63208610Y-89215237D01*
X62558500Y-89139129D01*
X62114981Y-89017534D01*
X61836320Y-88839706D01*
X61680785Y-88594896D01*
X61606642Y-88272355D01*
X61576423Y-87928742D01*
X61548306Y-87364364D01*
X61579230Y-86947467D01*
X61716876Y-86655715D01*
X62008929Y-86466774D01*
X62503070Y-86358308D01*
X63246983Y-86307982D01*
X64288350Y-86293463D01*
X65069315Y-86292647D01*
X66624453Y-86279833D01*
X67854646Y-86236121D01*
X68807767Y-86153608D01*
X69531693Y-86024389D01*
X70074298Y-85840560D01*
X70483457Y-85594217D01*
X70737867Y-85356771D01*
X71038733Y-84968464D01*
X71193833Y-84559699D01*
X71248012Y-83983898D01*
X71251470Y-83677941D01*
X71224600Y-82994633D01*
X71114044Y-82535644D01*
X70874885Y-82153781D01*
X70737867Y-81994874D01*
X70435153Y-81722154D01*
X70046280Y-81506486D01*
X69527927Y-81341702D01*
X68836773Y-81221635D01*
X67929497Y-81140118D01*
X66762777Y-81090985D01*
X65293294Y-81068068D01*
X64201103Y-81064317D01*
X60419117Y-81063235D01*
X60419117Y-82557353D01*
G37*
X60419117Y-82557353D02*
X64701365Y-82557353D01*
X66107118Y-82560605D01*
X67185623Y-82572340D01*
X67983124Y-82595524D01*
X68545861Y-82633121D01*
X68920076Y-82688099D01*
X69152012Y-82763424D01*
X69277101Y-82850840D01*
X69525363Y-83335474D01*
X69538640Y-83957134D01*
X69377252Y-84437278D01*
X69281605Y-84570091D01*
X69121729Y-84665776D01*
X68841955Y-84730361D01*
X68386616Y-84769874D01*
X67700043Y-84790342D01*
X66726566Y-84797795D01*
X66040979Y-84798529D01*
X64485841Y-84811343D01*
X63255648Y-84855055D01*
X62302527Y-84937568D01*
X61578601Y-85066787D01*
X61035996Y-85250616D01*
X60626837Y-85496959D01*
X60372426Y-85734405D01*
X60094293Y-86082737D01*
X59939089Y-86439962D01*
X59872179Y-86931497D01*
X59858823Y-87594158D01*
X59912197Y-88610786D01*
X60091141Y-89338647D01*
X60423891Y-89849601D01*
X60875698Y-90182021D01*
X61103770Y-90280617D01*
X61417445Y-90358478D01*
X61863001Y-90418795D01*
X62486715Y-90464761D01*
X63334863Y-90499565D01*
X64453725Y-90526401D01*
X65889577Y-90548458D01*
X66255515Y-90553022D01*
X71064706Y-90611191D01*
X71064706Y-89280882D01*
X66815809Y-89278129D01*
X65295531Y-89273989D01*
X64107043Y-89256608D01*
X63208610Y-89215237D01*
X62558500Y-89139129D01*
X62114981Y-89017534D01*
X61836320Y-88839706D01*
X61680785Y-88594896D01*
X61606642Y-88272355D01*
X61576423Y-87928742D01*
X61548306Y-87364364D01*
X61579230Y-86947467D01*
X61716876Y-86655715D01*
X62008929Y-86466774D01*
X62503070Y-86358308D01*
X63246983Y-86307982D01*
X64288350Y-86293463D01*
X65069315Y-86292647D01*
X66624453Y-86279833D01*
X67854646Y-86236121D01*
X68807767Y-86153608D01*
X69531693Y-86024389D01*
X70074298Y-85840560D01*
X70483457Y-85594217D01*
X70737867Y-85356771D01*
X71038733Y-84968464D01*
X71193833Y-84559699D01*
X71248012Y-83983898D01*
X71251470Y-83677941D01*
X71224600Y-82994633D01*
X71114044Y-82535644D01*
X70874885Y-82153781D01*
X70737867Y-81994874D01*
X70435153Y-81722154D01*
X70046280Y-81506486D01*
X69527927Y-81341702D01*
X68836773Y-81221635D01*
X67929497Y-81140118D01*
X66762777Y-81090985D01*
X65293294Y-81068068D01*
X64201103Y-81064317D01*
X60419117Y-81063235D01*
X60419117Y-82557353D01*
G36*
X56683823Y-90588235D02*
G01*
X58738235Y-90588235D01*
X58738235Y-88907353D01*
X56683823Y-88907353D01*
X56683823Y-90588235D01*
G37*
X56683823Y-90588235D02*
X58738235Y-90588235D01*
X58738235Y-88907353D01*
X56683823Y-88907353D01*
X56683823Y-90588235D01*
G36*
X45197794Y-81156617D02*
G01*
X45139829Y-81856985D01*
X45081863Y-82557353D01*
X53153118Y-82557353D01*
X53041912Y-84891911D01*
X49248384Y-84942506D01*
X45454857Y-84993101D01*
X45513090Y-85596183D01*
X45571323Y-86199264D01*
X49353309Y-86249823D01*
X53135294Y-86300381D01*
X53135294Y-89280882D01*
X45104412Y-89280882D01*
X45104412Y-90588235D01*
X54816176Y-90588235D01*
X54816176Y-81056929D01*
X45197794Y-81156617D01*
G37*
X45197794Y-81156617D02*
X45139829Y-81856985D01*
X45081863Y-82557353D01*
X53153118Y-82557353D01*
X53041912Y-84891911D01*
X49248384Y-84942506D01*
X45454857Y-84993101D01*
X45513090Y-85596183D01*
X45571323Y-86199264D01*
X49353309Y-86249823D01*
X53135294Y-86300381D01*
X53135294Y-89280882D01*
X45104412Y-89280882D01*
X45104412Y-90588235D01*
X54816176Y-90588235D01*
X54816176Y-81056929D01*
X45197794Y-81156617D01*
G36*
X74052941Y-35025735D02*
G01*
X74046522Y-35852540D01*
X74018214Y-36374609D01*
X73954438Y-36660643D01*
X73841618Y-36779342D01*
X73702280Y-36800000D01*
X73320991Y-36904091D01*
X73057204Y-37254024D01*
X72873592Y-37906292D01*
X72838398Y-38107353D01*
X72612783Y-39077645D01*
X72298525Y-39687150D01*
X71879201Y-39941563D01*
X71338390Y-39846578D01*
X70659669Y-39407889D01*
X70215852Y-39016702D01*
X69202594Y-38058404D01*
X68219312Y-38657314D01*
X67584079Y-39061838D01*
X66994573Y-39466212D01*
X66700657Y-39686676D01*
X66165286Y-40117129D01*
X66560584Y-41173659D01*
X66865260Y-42133864D01*
X66940682Y-42816561D01*
X66772844Y-43249516D01*
X66347742Y-43460495D01*
X65651371Y-43477262D01*
X65411579Y-43451659D01*
X64563987Y-43343524D01*
X64000125Y-43303608D01*
X63631221Y-43372499D01*
X63368499Y-43590784D01*
X63123184Y-43999052D01*
X62806502Y-44637890D01*
X62803403Y-44644117D01*
X62480158Y-45327548D01*
X62235667Y-45909389D01*
X62110955Y-46289762D01*
X62103035Y-46349252D01*
X62241954Y-46608456D01*
X62609131Y-46995830D01*
X63125191Y-47427677D01*
X63127206Y-47429199D01*
X63706179Y-47900155D01*
X64024979Y-48263839D01*
X64146693Y-48600142D01*
X64154412Y-48730045D01*
X64080334Y-49156914D01*
X63819751Y-49511784D01*
X63315139Y-49844790D01*
X62508975Y-50206068D01*
X62420318Y-50241424D01*
X61339900Y-50669264D01*
X61463927Y-51765514D01*
X61587953Y-52861764D01*
X60419117Y-52861764D01*
X60419117Y-76954411D01*
X61913235Y-76954411D01*
X61913235Y-54169117D01*
X75547059Y-54169117D01*
X75547059Y-52861764D01*
X74052941Y-52861764D01*
X72114780Y-52861764D01*
X71193246Y-52850416D01*
X70574682Y-52809908D01*
X70189036Y-52730545D01*
X69966257Y-52602631D01*
X69925105Y-52558709D01*
X69764299Y-52170460D01*
X69653835Y-51525593D01*
X69599245Y-50738321D01*
X69606059Y-49922859D01*
X69679808Y-49193419D01*
X69747146Y-48883515D01*
X70238615Y-47769088D01*
X71022652Y-46750441D01*
X72018655Y-45906985D01*
X73146023Y-45318129D01*
X73476909Y-45208925D01*
X74052941Y-45043721D01*
X74052941Y-52861764D01*
X75547059Y-52861764D01*
X75547059Y-34745588D01*
X76637772Y-34745588D01*
X78438847Y-34920045D01*
X80251228Y-35419588D01*
X81989639Y-36208479D01*
X83568802Y-37250977D01*
X84434996Y-38013444D01*
X85232472Y-38874931D01*
X85876182Y-39756757D01*
X86385537Y-40715345D01*
X86779945Y-41807115D01*
X87078815Y-43088488D01*
X87301556Y-44615886D01*
X87467577Y-46445728D01*
X87500374Y-46924412D01*
X87619159Y-48537802D01*
X87757081Y-49863042D01*
X87935661Y-50985501D01*
X88176427Y-51990550D01*
X88500900Y-52963560D01*
X88930607Y-53989901D01*
X89487070Y-55154944D01*
X89665412Y-55511455D01*
X89974928Y-56170044D01*
X90201205Y-56735342D01*
X90300229Y-57096034D01*
X90301470Y-57120134D01*
X90131318Y-57554183D01*
X89615349Y-58057341D01*
X88745294Y-58637375D01*
X88589890Y-58727956D01*
X87960066Y-59144179D01*
X87516791Y-59601649D01*
X87210026Y-60188804D01*
X86989728Y-60994079D01*
X86849833Y-61803111D01*
X86642110Y-63035251D01*
X86422148Y-63974942D01*
X86161306Y-64702905D01*
X85830941Y-65299859D01*
X85423588Y-65822578D01*
X84502891Y-66610619D01*
X83253972Y-67253097D01*
X81671989Y-67751623D01*
X79752101Y-68107810D01*
X78021691Y-68287503D01*
X76294117Y-68416829D01*
X76294117Y-76954411D01*
X77780170Y-76954411D01*
X77830894Y-73365801D01*
X77881617Y-69777190D01*
X79562500Y-69568271D01*
X81357401Y-69296126D01*
X82840183Y-68955283D01*
X84069240Y-68524405D01*
X85102966Y-67982157D01*
X85999756Y-67307206D01*
X86166895Y-67155279D01*
X86948528Y-66270118D01*
X87517486Y-65244835D01*
X87913241Y-63996032D01*
X88083956Y-63104902D01*
X88250977Y-62066203D01*
X88396491Y-61323870D01*
X88557477Y-60805348D01*
X88770913Y-60438081D01*
X89073777Y-60149512D01*
X89503047Y-59867086D01*
X89833377Y-59672320D01*
X90562382Y-59202861D01*
X91043474Y-58767389D01*
X91378632Y-58269128D01*
X91439833Y-58147841D01*
X91643396Y-57651172D01*
X91730058Y-57177824D01*
X91686183Y-56657203D01*
X91498137Y-56018715D01*
X91152285Y-55191766D01*
X90674855Y-54187166D01*
X90165675Y-53110020D01*
X89783155Y-52188264D01*
X89503872Y-51326344D01*
X89304400Y-50428706D01*
X89161313Y-49399794D01*
X89051186Y-48144055D01*
X88997660Y-47345715D01*
X88885628Y-45751723D01*
X88763969Y-44454530D01*
X88621157Y-43377409D01*
X88445665Y-42443632D01*
X88225963Y-41576475D01*
X88039247Y-40966637D01*
X87304224Y-39292955D01*
X86256612Y-37779461D01*
X84930589Y-36447497D01*
X83360329Y-35318400D01*
X81580008Y-34413511D01*
X79623803Y-33754170D01*
X77525888Y-33361715D01*
X75687132Y-33253924D01*
X74052941Y-33251470D01*
X74052941Y-35025735D01*
G37*
X74052941Y-35025735D02*
X74046522Y-35852540D01*
X74018214Y-36374609D01*
X73954438Y-36660643D01*
X73841618Y-36779342D01*
X73702280Y-36800000D01*
X73320991Y-36904091D01*
X73057204Y-37254024D01*
X72873592Y-37906292D01*
X72838398Y-38107353D01*
X72612783Y-39077645D01*
X72298525Y-39687150D01*
X71879201Y-39941563D01*
X71338390Y-39846578D01*
X70659669Y-39407889D01*
X70215852Y-39016702D01*
X69202594Y-38058404D01*
X68219312Y-38657314D01*
X67584079Y-39061838D01*
X66994573Y-39466212D01*
X66700657Y-39686676D01*
X66165286Y-40117129D01*
X66560584Y-41173659D01*
X66865260Y-42133864D01*
X66940682Y-42816561D01*
X66772844Y-43249516D01*
X66347742Y-43460495D01*
X65651371Y-43477262D01*
X65411579Y-43451659D01*
X64563987Y-43343524D01*
X64000125Y-43303608D01*
X63631221Y-43372499D01*
X63368499Y-43590784D01*
X63123184Y-43999052D01*
X62806502Y-44637890D01*
X62803403Y-44644117D01*
X62480158Y-45327548D01*
X62235667Y-45909389D01*
X62110955Y-46289762D01*
X62103035Y-46349252D01*
X62241954Y-46608456D01*
X62609131Y-46995830D01*
X63125191Y-47427677D01*
X63127206Y-47429199D01*
X63706179Y-47900155D01*
X64024979Y-48263839D01*
X64146693Y-48600142D01*
X64154412Y-48730045D01*
X64080334Y-49156914D01*
X63819751Y-49511784D01*
X63315139Y-49844790D01*
X62508975Y-50206068D01*
X62420318Y-50241424D01*
X61339900Y-50669264D01*
X61463927Y-51765514D01*
X61587953Y-52861764D01*
X60419117Y-52861764D01*
X60419117Y-76954411D01*
X61913235Y-76954411D01*
X61913235Y-54169117D01*
X75547059Y-54169117D01*
X75547059Y-52861764D01*
X74052941Y-52861764D01*
X72114780Y-52861764D01*
X71193246Y-52850416D01*
X70574682Y-52809908D01*
X70189036Y-52730545D01*
X69966257Y-52602631D01*
X69925105Y-52558709D01*
X69764299Y-52170460D01*
X69653835Y-51525593D01*
X69599245Y-50738321D01*
X69606059Y-49922859D01*
X69679808Y-49193419D01*
X69747146Y-48883515D01*
X70238615Y-47769088D01*
X71022652Y-46750441D01*
X72018655Y-45906985D01*
X73146023Y-45318129D01*
X73476909Y-45208925D01*
X74052941Y-45043721D01*
X74052941Y-52861764D01*
X75547059Y-52861764D01*
X75547059Y-34745588D01*
X76637772Y-34745588D01*
X78438847Y-34920045D01*
X80251228Y-35419588D01*
X81989639Y-36208479D01*
X83568802Y-37250977D01*
X84434996Y-38013444D01*
X85232472Y-38874931D01*
X85876182Y-39756757D01*
X86385537Y-40715345D01*
X86779945Y-41807115D01*
X87078815Y-43088488D01*
X87301556Y-44615886D01*
X87467577Y-46445728D01*
X87500374Y-46924412D01*
X87619159Y-48537802D01*
X87757081Y-49863042D01*
X87935661Y-50985501D01*
X88176427Y-51990550D01*
X88500900Y-52963560D01*
X88930607Y-53989901D01*
X89487070Y-55154944D01*
X89665412Y-55511455D01*
X89974928Y-56170044D01*
X90201205Y-56735342D01*
X90300229Y-57096034D01*
X90301470Y-57120134D01*
X90131318Y-57554183D01*
X89615349Y-58057341D01*
X88745294Y-58637375D01*
X88589890Y-58727956D01*
X87960066Y-59144179D01*
X87516791Y-59601649D01*
X87210026Y-60188804D01*
X86989728Y-60994079D01*
X86849833Y-61803111D01*
X86642110Y-63035251D01*
X86422148Y-63974942D01*
X86161306Y-64702905D01*
X85830941Y-65299859D01*
X85423588Y-65822578D01*
X84502891Y-66610619D01*
X83253972Y-67253097D01*
X81671989Y-67751623D01*
X79752101Y-68107810D01*
X78021691Y-68287503D01*
X76294117Y-68416829D01*
X76294117Y-76954411D01*
X77780170Y-76954411D01*
X77830894Y-73365801D01*
X77881617Y-69777190D01*
X79562500Y-69568271D01*
X81357401Y-69296126D01*
X82840183Y-68955283D01*
X84069240Y-68524405D01*
X85102966Y-67982157D01*
X85999756Y-67307206D01*
X86166895Y-67155279D01*
X86948528Y-66270118D01*
X87517486Y-65244835D01*
X87913241Y-63996032D01*
X88083956Y-63104902D01*
X88250977Y-62066203D01*
X88396491Y-61323870D01*
X88557477Y-60805348D01*
X88770913Y-60438081D01*
X89073777Y-60149512D01*
X89503047Y-59867086D01*
X89833377Y-59672320D01*
X90562382Y-59202861D01*
X91043474Y-58767389D01*
X91378632Y-58269128D01*
X91439833Y-58147841D01*
X91643396Y-57651172D01*
X91730058Y-57177824D01*
X91686183Y-56657203D01*
X91498137Y-56018715D01*
X91152285Y-55191766D01*
X90674855Y-54187166D01*
X90165675Y-53110020D01*
X89783155Y-52188264D01*
X89503872Y-51326344D01*
X89304400Y-50428706D01*
X89161313Y-49399794D01*
X89051186Y-48144055D01*
X88997660Y-47345715D01*
X88885628Y-45751723D01*
X88763969Y-44454530D01*
X88621157Y-43377409D01*
X88445665Y-42443632D01*
X88225963Y-41576475D01*
X88039247Y-40966637D01*
X87304224Y-39292955D01*
X86256612Y-37779461D01*
X84930589Y-36447497D01*
X83360329Y-35318400D01*
X81580008Y-34413511D01*
X79623803Y-33754170D01*
X77525888Y-33361715D01*
X75687132Y-33253924D01*
X74052941Y-33251470D01*
X74052941Y-35025735D01*
%TD*%
D11*
%TO.C,J1*%
X44320000Y-115800000D03*
X44320000Y-102800000D03*
%TD*%
D12*
%TO.C,J2*%
X109537500Y-117500000D03*
X109537500Y-112500000D03*
D13*
X112237500Y-118500000D03*
X112237500Y-111500000D03*
%TD*%
D14*
%TO.C,S1*%
X112000000Y-107400000D03*
X112000000Y-100600000D03*
%TD*%
M02*
