%TF.GenerationSoftware,KiCad,Pcbnew,(5.1.6)-1*%
%TF.CreationDate,2020-12-04T21:40:30+01:00*%
%TF.ProjectId,case_julgran_LED,63617365-5f6a-4756-9c67-72616e5f4c45,rev?*%
%TF.SameCoordinates,Original*%
%TF.FileFunction,Soldermask,Top*%
%TF.FilePolarity,Negative*%
%FSLAX46Y46*%
G04 Gerber Fmt 4.6, Leading zero omitted, Abs format (unit mm)*
G04 Created by KiCad (PCBNEW (5.1.6)-1) date 2020-12-04 21:40:30*
%MOMM*%
%LPD*%
G01*
G04 APERTURE LIST*
%ADD10C,0.150000*%
%ADD11C,0.500000*%
%ADD12C,0.010000*%
%ADD13O,1.624000X2.600000*%
%ADD14R,2.000000X1.600000*%
%ADD15C,1.550000*%
%ADD16R,1.450000X0.500000*%
%ADD17O,2.000000X1.300000*%
%ADD18R,2.000000X1.300000*%
%ADD19R,1.000000X1.300000*%
%ADD20R,2.600000X1.300000*%
%ADD21C,1.500000*%
G04 APERTURE END LIST*
D10*
X42745119Y-122935714D02*
X42707023Y-122973809D01*
X42592738Y-123011904D01*
X42516547Y-123011904D01*
X42402261Y-122973809D01*
X42326071Y-122897619D01*
X42287976Y-122821428D01*
X42249880Y-122669047D01*
X42249880Y-122554761D01*
X42287976Y-122402380D01*
X42326071Y-122326190D01*
X42402261Y-122250000D01*
X42516547Y-122211904D01*
X42592738Y-122211904D01*
X42707023Y-122250000D01*
X42745119Y-122288095D01*
X43049880Y-122783333D02*
X43430833Y-122783333D01*
X42973690Y-123011904D02*
X43240357Y-122211904D01*
X43507023Y-123011904D01*
X43735595Y-122973809D02*
X43849880Y-123011904D01*
X44040357Y-123011904D01*
X44116547Y-122973809D01*
X44154642Y-122935714D01*
X44192738Y-122859523D01*
X44192738Y-122783333D01*
X44154642Y-122707142D01*
X44116547Y-122669047D01*
X44040357Y-122630952D01*
X43887976Y-122592857D01*
X43811785Y-122554761D01*
X43773690Y-122516666D01*
X43735595Y-122440476D01*
X43735595Y-122364285D01*
X43773690Y-122288095D01*
X43811785Y-122250000D01*
X43887976Y-122211904D01*
X44078452Y-122211904D01*
X44192738Y-122250000D01*
X44535595Y-122592857D02*
X44802261Y-122592857D01*
X44916547Y-123011904D02*
X44535595Y-123011904D01*
X44535595Y-122211904D01*
X44916547Y-122211904D01*
X46097500Y-122211904D02*
X46097500Y-122783333D01*
X46059404Y-122897619D01*
X45983214Y-122973809D01*
X45868928Y-123011904D01*
X45792738Y-123011904D01*
X46821309Y-122478571D02*
X46821309Y-123011904D01*
X46478452Y-122478571D02*
X46478452Y-122897619D01*
X46516547Y-122973809D01*
X46592738Y-123011904D01*
X46707023Y-123011904D01*
X46783214Y-122973809D01*
X46821309Y-122935714D01*
X47316547Y-123011904D02*
X47240357Y-122973809D01*
X47202261Y-122897619D01*
X47202261Y-122211904D01*
X47621309Y-123011904D02*
X47621309Y-122211904D01*
X47697500Y-122707142D02*
X47926071Y-123011904D01*
X47926071Y-122478571D02*
X47621309Y-122783333D01*
X48383214Y-123011904D02*
X48307023Y-122973809D01*
X48268928Y-122935714D01*
X48230833Y-122859523D01*
X48230833Y-122630952D01*
X48268928Y-122554761D01*
X48307023Y-122516666D01*
X48383214Y-122478571D01*
X48497500Y-122478571D01*
X48573690Y-122516666D01*
X48611785Y-122554761D01*
X48649880Y-122630952D01*
X48649880Y-122859523D01*
X48611785Y-122935714D01*
X48573690Y-122973809D01*
X48497500Y-123011904D01*
X48383214Y-123011904D01*
X48992738Y-123011904D02*
X48992738Y-122478571D01*
X48992738Y-122630952D02*
X49030833Y-122554761D01*
X49068928Y-122516666D01*
X49145119Y-122478571D01*
X49221309Y-122478571D01*
X49373690Y-122478571D02*
X49678452Y-122478571D01*
X49487976Y-122211904D02*
X49487976Y-122897619D01*
X49526071Y-122973809D01*
X49602261Y-123011904D01*
X49678452Y-123011904D01*
X50516547Y-122288095D02*
X50554642Y-122250000D01*
X50630833Y-122211904D01*
X50821309Y-122211904D01*
X50897500Y-122250000D01*
X50935595Y-122288095D01*
X50973690Y-122364285D01*
X50973690Y-122440476D01*
X50935595Y-122554761D01*
X50478452Y-123011904D01*
X50973690Y-123011904D01*
X51468928Y-122211904D02*
X51545119Y-122211904D01*
X51621309Y-122250000D01*
X51659404Y-122288095D01*
X51697500Y-122364285D01*
X51735595Y-122516666D01*
X51735595Y-122707142D01*
X51697500Y-122859523D01*
X51659404Y-122935714D01*
X51621309Y-122973809D01*
X51545119Y-123011904D01*
X51468928Y-123011904D01*
X51392738Y-122973809D01*
X51354642Y-122935714D01*
X51316547Y-122859523D01*
X51278452Y-122707142D01*
X51278452Y-122516666D01*
X51316547Y-122364285D01*
X51354642Y-122288095D01*
X51392738Y-122250000D01*
X51468928Y-122211904D01*
X52040357Y-122288095D02*
X52078452Y-122250000D01*
X52154642Y-122211904D01*
X52345119Y-122211904D01*
X52421309Y-122250000D01*
X52459404Y-122288095D01*
X52497500Y-122364285D01*
X52497500Y-122440476D01*
X52459404Y-122554761D01*
X52002261Y-123011904D01*
X52497500Y-123011904D01*
X52992738Y-122211904D02*
X53068928Y-122211904D01*
X53145119Y-122250000D01*
X53183214Y-122288095D01*
X53221309Y-122364285D01*
X53259404Y-122516666D01*
X53259404Y-122707142D01*
X53221309Y-122859523D01*
X53183214Y-122935714D01*
X53145119Y-122973809D01*
X53068928Y-123011904D01*
X52992738Y-123011904D01*
X52916547Y-122973809D01*
X52878452Y-122935714D01*
X52840357Y-122859523D01*
X52802261Y-122707142D01*
X52802261Y-122516666D01*
X52840357Y-122364285D01*
X52878452Y-122288095D01*
X52916547Y-122250000D01*
X52992738Y-122211904D01*
X42287976Y-124361904D02*
X42287976Y-123561904D01*
X42668928Y-124285714D02*
X42707023Y-124323809D01*
X42668928Y-124361904D01*
X42630833Y-124323809D01*
X42668928Y-124285714D01*
X42668928Y-124361904D01*
X43621309Y-124133333D02*
X44002261Y-124133333D01*
X43545119Y-124361904D02*
X43811785Y-123561904D01*
X44078452Y-124361904D01*
X43811785Y-123561904D02*
X43735595Y-123523809D01*
X43697500Y-123447619D01*
X43735595Y-123371428D01*
X43811785Y-123333333D01*
X43887976Y-123371428D01*
X43926071Y-123447619D01*
X43887976Y-123523809D01*
X43811785Y-123561904D01*
X44307023Y-124323809D02*
X44383214Y-124361904D01*
X44535595Y-124361904D01*
X44611785Y-124323809D01*
X44649880Y-124247619D01*
X44649880Y-124209523D01*
X44611785Y-124133333D01*
X44535595Y-124095238D01*
X44421309Y-124095238D01*
X44345119Y-124057142D01*
X44307023Y-123980952D01*
X44307023Y-123942857D01*
X44345119Y-123866666D01*
X44421309Y-123828571D01*
X44535595Y-123828571D01*
X44611785Y-123866666D01*
X45107023Y-124361904D02*
X45030833Y-124323809D01*
X44992738Y-124247619D01*
X44992738Y-123561904D01*
X45754642Y-123828571D02*
X45754642Y-124361904D01*
X45411785Y-123828571D02*
X45411785Y-124247619D01*
X45449880Y-124323809D01*
X45526071Y-124361904D01*
X45640357Y-124361904D01*
X45716547Y-124323809D01*
X45754642Y-124285714D01*
X46135595Y-123828571D02*
X46135595Y-124361904D01*
X46135595Y-123904761D02*
X46173690Y-123866666D01*
X46249880Y-123828571D01*
X46364166Y-123828571D01*
X46440357Y-123866666D01*
X46478452Y-123942857D01*
X46478452Y-124361904D01*
X47202261Y-124361904D02*
X47202261Y-123561904D01*
X47202261Y-124323809D02*
X47126071Y-124361904D01*
X46973690Y-124361904D01*
X46897500Y-124323809D01*
X46859404Y-124285714D01*
X46821309Y-124209523D01*
X46821309Y-123980952D01*
X46859404Y-123904761D01*
X46897500Y-123866666D01*
X46973690Y-123828571D01*
X47126071Y-123828571D01*
X47202261Y-123866666D01*
X42287976Y-125711904D02*
X42287976Y-124911904D01*
X42478452Y-124911904D01*
X42592738Y-124950000D01*
X42668928Y-125026190D01*
X42707023Y-125102380D01*
X42745119Y-125254761D01*
X42745119Y-125369047D01*
X42707023Y-125521428D01*
X42668928Y-125597619D01*
X42592738Y-125673809D01*
X42478452Y-125711904D01*
X42287976Y-125711904D01*
X43087976Y-125635714D02*
X43126071Y-125673809D01*
X43087976Y-125711904D01*
X43049880Y-125673809D01*
X43087976Y-125635714D01*
X43087976Y-125711904D01*
X44002261Y-125788095D02*
X43926071Y-125750000D01*
X43849880Y-125673809D01*
X43735595Y-125559523D01*
X43659404Y-125521428D01*
X43583214Y-125521428D01*
X43621309Y-125711904D02*
X43545119Y-125673809D01*
X43468928Y-125597619D01*
X43430833Y-125445238D01*
X43430833Y-125178571D01*
X43468928Y-125026190D01*
X43545119Y-124950000D01*
X43621309Y-124911904D01*
X43773690Y-124911904D01*
X43849880Y-124950000D01*
X43926071Y-125026190D01*
X43964166Y-125178571D01*
X43964166Y-125445238D01*
X43926071Y-125597619D01*
X43849880Y-125673809D01*
X43773690Y-125711904D01*
X43621309Y-125711904D01*
X44649880Y-125178571D02*
X44649880Y-125711904D01*
X44307023Y-125178571D02*
X44307023Y-125597619D01*
X44345119Y-125673809D01*
X44421309Y-125711904D01*
X44535595Y-125711904D01*
X44611785Y-125673809D01*
X44649880Y-125635714D01*
X45373690Y-125711904D02*
X45373690Y-125292857D01*
X45335595Y-125216666D01*
X45259404Y-125178571D01*
X45107023Y-125178571D01*
X45030833Y-125216666D01*
X45373690Y-125673809D02*
X45297500Y-125711904D01*
X45107023Y-125711904D01*
X45030833Y-125673809D01*
X44992738Y-125597619D01*
X44992738Y-125521428D01*
X45030833Y-125445238D01*
X45107023Y-125407142D01*
X45297500Y-125407142D01*
X45373690Y-125369047D01*
X46097500Y-125673809D02*
X46021309Y-125711904D01*
X45868928Y-125711904D01*
X45792738Y-125673809D01*
X45754642Y-125635714D01*
X45716547Y-125559523D01*
X45716547Y-125330952D01*
X45754642Y-125254761D01*
X45792738Y-125216666D01*
X45868928Y-125178571D01*
X46021309Y-125178571D01*
X46097500Y-125216666D01*
X46440357Y-125711904D02*
X46440357Y-124911904D01*
X46783214Y-125711904D02*
X46783214Y-125292857D01*
X46745119Y-125216666D01*
X46668928Y-125178571D01*
X46554642Y-125178571D01*
X46478452Y-125216666D01*
X46440357Y-125254761D01*
D11*
X50928571Y-28900000D02*
X50642857Y-28757142D01*
X50214285Y-28757142D01*
X49785714Y-28900000D01*
X49499999Y-29185714D01*
X49357142Y-29471428D01*
X49214285Y-30042857D01*
X49214285Y-30471428D01*
X49357142Y-31042857D01*
X49499999Y-31328571D01*
X49785714Y-31614285D01*
X50214285Y-31757142D01*
X50499999Y-31757142D01*
X50928571Y-31614285D01*
X51071428Y-31471428D01*
X51071428Y-30471428D01*
X50499999Y-30471428D01*
X52785714Y-31757142D02*
X52499999Y-31614285D01*
X52357142Y-31471428D01*
X52214285Y-31185714D01*
X52214285Y-30328571D01*
X52357142Y-30042857D01*
X52499999Y-29900000D01*
X52785714Y-29757142D01*
X53214285Y-29757142D01*
X53499999Y-29900000D01*
X53642857Y-30042857D01*
X53785714Y-30328571D01*
X53785714Y-31185714D01*
X53642857Y-31471428D01*
X53499999Y-31614285D01*
X53214285Y-31757142D01*
X52785714Y-31757142D01*
X56357142Y-31757142D02*
X56357142Y-28757142D01*
X56357142Y-31614285D02*
X56071428Y-31757142D01*
X55499999Y-31757142D01*
X55214285Y-31614285D01*
X55071428Y-31471428D01*
X54928571Y-31185714D01*
X54928571Y-30328571D01*
X55071428Y-30042857D01*
X55214285Y-29900000D01*
X55499999Y-29757142D01*
X56071428Y-29757142D01*
X56357142Y-29900000D01*
X60071428Y-29757142D02*
X60071428Y-32328571D01*
X59928571Y-32614285D01*
X59642857Y-32757142D01*
X59499999Y-32757142D01*
X60071428Y-28757142D02*
X59928571Y-28900000D01*
X60071428Y-29042857D01*
X60214285Y-28900000D01*
X60071428Y-28757142D01*
X60071428Y-29042857D01*
X62785714Y-29757142D02*
X62785714Y-31757142D01*
X61499999Y-29757142D02*
X61499999Y-31328571D01*
X61642857Y-31614285D01*
X61928571Y-31757142D01*
X62357142Y-31757142D01*
X62642857Y-31614285D01*
X62785714Y-31471428D01*
X64642857Y-31757142D02*
X64357142Y-31614285D01*
X64214285Y-31328571D01*
X64214285Y-28757142D01*
X70500000Y-31757142D02*
X70357142Y-31757142D01*
X70071428Y-31614285D01*
X69642857Y-31185714D01*
X68928571Y-30328571D01*
X68642857Y-29900000D01*
X68500000Y-29471428D01*
X68500000Y-29185714D01*
X68642857Y-28900000D01*
X68928571Y-28757142D01*
X69071428Y-28757142D01*
X69357142Y-28900000D01*
X69500000Y-29185714D01*
X69500000Y-29328571D01*
X69357142Y-29614285D01*
X69214285Y-29757142D01*
X68357142Y-30328571D01*
X68214285Y-30471428D01*
X68071428Y-30757142D01*
X68071428Y-31185714D01*
X68214285Y-31471428D01*
X68357142Y-31614285D01*
X68642857Y-31757142D01*
X69071428Y-31757142D01*
X69357142Y-31614285D01*
X69500000Y-31471428D01*
X69928571Y-30900000D01*
X70071428Y-30471428D01*
X70071428Y-30185714D01*
X75642857Y-28900000D02*
X75357142Y-28757142D01*
X74928571Y-28757142D01*
X74500000Y-28900000D01*
X74214285Y-29185714D01*
X74071428Y-29471428D01*
X73928571Y-30042857D01*
X73928571Y-30471428D01*
X74071428Y-31042857D01*
X74214285Y-31328571D01*
X74500000Y-31614285D01*
X74928571Y-31757142D01*
X75214285Y-31757142D01*
X75642857Y-31614285D01*
X75785714Y-31471428D01*
X75785714Y-30471428D01*
X75214285Y-30471428D01*
X77500000Y-31757142D02*
X77214285Y-31614285D01*
X77071428Y-31471428D01*
X76928571Y-31185714D01*
X76928571Y-30328571D01*
X77071428Y-30042857D01*
X77214285Y-29900000D01*
X77500000Y-29757142D01*
X77928571Y-29757142D01*
X78214285Y-29900000D01*
X78357142Y-30042857D01*
X78500000Y-30328571D01*
X78500000Y-31185714D01*
X78357142Y-31471428D01*
X78214285Y-31614285D01*
X77928571Y-31757142D01*
X77500000Y-31757142D01*
X79357142Y-29757142D02*
X80500000Y-29757142D01*
X79785714Y-28757142D02*
X79785714Y-31328571D01*
X79928571Y-31614285D01*
X80214285Y-31757142D01*
X80500000Y-31757142D01*
X81071428Y-29757142D02*
X82214285Y-29757142D01*
X81499999Y-28757142D02*
X81499999Y-31328571D01*
X81642857Y-31614285D01*
X81928571Y-31757142D01*
X82214285Y-31757142D01*
X85500000Y-29757142D02*
X85500000Y-31757142D01*
X85500000Y-30042857D02*
X85642857Y-29900000D01*
X85928571Y-29757142D01*
X86357142Y-29757142D01*
X86642857Y-29900000D01*
X86785714Y-30185714D01*
X86785714Y-31757142D01*
X87928571Y-29757142D02*
X88642857Y-31757142D01*
X89357142Y-29757142D02*
X88642857Y-31757142D01*
X88357142Y-32471428D01*
X88214285Y-32614285D01*
X87928571Y-32757142D01*
X90071428Y-29757142D02*
X91214285Y-29757142D01*
X90500000Y-28757142D02*
X90500000Y-31328571D01*
X90642857Y-31614285D01*
X90928571Y-31757142D01*
X91214285Y-31757142D01*
X91785714Y-29757142D02*
X92928571Y-29757142D01*
X92214285Y-28757142D02*
X92214285Y-31328571D01*
X92357142Y-31614285D01*
X92642857Y-31757142D01*
X92928571Y-31757142D01*
X97500000Y-31757142D02*
X97500000Y-30185714D01*
X97357142Y-29900000D01*
X97071428Y-29757142D01*
X96500000Y-29757142D01*
X96214285Y-29900000D01*
X97500000Y-31614285D02*
X97214285Y-31757142D01*
X96500000Y-31757142D01*
X96214285Y-31614285D01*
X96071428Y-31328571D01*
X96071428Y-31042857D01*
X96214285Y-30757142D01*
X96500000Y-30614285D01*
X97214285Y-30614285D01*
X97500000Y-30471428D01*
X96785714Y-29042857D02*
X96500000Y-28900000D01*
X96357142Y-28614285D01*
X96500000Y-28328571D01*
X96785714Y-28185714D01*
X97071428Y-28328571D01*
X97214285Y-28614285D01*
X97071428Y-28900000D01*
X96785714Y-29042857D01*
X98928571Y-31757142D02*
X98928571Y-29757142D01*
X98928571Y-30328571D02*
X99071428Y-30042857D01*
X99214285Y-29900000D01*
X99500000Y-29757142D01*
X99785714Y-29757142D01*
X68071428Y-36757142D02*
X67785714Y-36614285D01*
X67642857Y-36471428D01*
X67500000Y-36185714D01*
X67500000Y-35328571D01*
X67642857Y-35042857D01*
X67785714Y-34900000D01*
X68071428Y-34757142D01*
X68500000Y-34757142D01*
X68785714Y-34900000D01*
X68928571Y-35042857D01*
X69071428Y-35328571D01*
X69071428Y-36185714D01*
X68928571Y-36471428D01*
X68785714Y-36614285D01*
X68500000Y-36757142D01*
X68071428Y-36757142D01*
X67785714Y-33757142D02*
X67928571Y-33900000D01*
X67785714Y-34042857D01*
X67642857Y-33900000D01*
X67785714Y-33757142D01*
X67785714Y-34042857D01*
X68928571Y-33757142D02*
X69071428Y-33900000D01*
X68928571Y-34042857D01*
X68785714Y-33900000D01*
X68928571Y-33757142D01*
X68928571Y-34042857D01*
X70357142Y-34757142D02*
X70357142Y-36757142D01*
X70357142Y-35042857D02*
X70500000Y-34900000D01*
X70785714Y-34757142D01*
X71214285Y-34757142D01*
X71500000Y-34900000D01*
X71642857Y-35185714D01*
X71642857Y-36757142D01*
X72928571Y-36614285D02*
X73214285Y-36757142D01*
X73785714Y-36757142D01*
X74071428Y-36614285D01*
X74214285Y-36328571D01*
X74214285Y-36185714D01*
X74071428Y-35900000D01*
X73785714Y-35757142D01*
X73357142Y-35757142D01*
X73071428Y-35614285D01*
X72928571Y-35328571D01*
X72928571Y-35185714D01*
X73071428Y-34900000D01*
X73357142Y-34757142D01*
X73785714Y-34757142D01*
X74071428Y-34900000D01*
X75500000Y-36757142D02*
X75500000Y-33757142D01*
X75785714Y-35614285D02*
X76642857Y-36757142D01*
X76642857Y-34757142D02*
X75500000Y-35900000D01*
X79214285Y-36757142D02*
X79214285Y-35185714D01*
X79071428Y-34900000D01*
X78785714Y-34757142D01*
X78214285Y-34757142D01*
X77928571Y-34900000D01*
X79214285Y-36614285D02*
X78928571Y-36757142D01*
X78214285Y-36757142D01*
X77928571Y-36614285D01*
X77785714Y-36328571D01*
X77785714Y-36042857D01*
X77928571Y-35757142D01*
X78214285Y-35614285D01*
X78928571Y-35614285D01*
X79214285Y-35471428D01*
X80642857Y-36757142D02*
X80642857Y-34757142D01*
X80642857Y-35328571D02*
X80785714Y-35042857D01*
X80928571Y-34900000D01*
X81214285Y-34757142D01*
X81500000Y-34757142D01*
D12*
%TO.C,G\u002A\u002A\u002A*%
G36*
X40010367Y-80527944D02*
G01*
X40032380Y-80588365D01*
X40065308Y-80683495D01*
X40107589Y-80808692D01*
X40157661Y-80959313D01*
X40213959Y-81130714D01*
X40274921Y-81318254D01*
X40297897Y-81389409D01*
X40361184Y-81585253D01*
X40421111Y-81769749D01*
X40475973Y-81937713D01*
X40524063Y-82083962D01*
X40563675Y-82203311D01*
X40593101Y-82290576D01*
X40610636Y-82340574D01*
X40613283Y-82347435D01*
X40643983Y-82422234D01*
X42634885Y-82434272D01*
X41824971Y-83022526D01*
X41614426Y-83176060D01*
X41439750Y-83304843D01*
X41298888Y-83410483D01*
X41189788Y-83494589D01*
X41110396Y-83558766D01*
X41058660Y-83604623D01*
X41032525Y-83633766D01*
X41028611Y-83645980D01*
X41043907Y-83689137D01*
X41070454Y-83767780D01*
X41106482Y-83876421D01*
X41150222Y-84009574D01*
X41199905Y-84161749D01*
X41253760Y-84327460D01*
X41310019Y-84501219D01*
X41366913Y-84677537D01*
X41422672Y-84850928D01*
X41475526Y-85015903D01*
X41523706Y-85166975D01*
X41565443Y-85298656D01*
X41598968Y-85405458D01*
X41622511Y-85481894D01*
X41634303Y-85522476D01*
X41635288Y-85527599D01*
X41615700Y-85515758D01*
X41562697Y-85479383D01*
X41480121Y-85421222D01*
X41371818Y-85344021D01*
X41241633Y-85250530D01*
X41093411Y-85143495D01*
X40930996Y-85025666D01*
X40824430Y-84948083D01*
X40654612Y-84824605D01*
X40496140Y-84709984D01*
X40352930Y-84607008D01*
X40228902Y-84518468D01*
X40127973Y-84447152D01*
X40054062Y-84395852D01*
X40011087Y-84367356D01*
X40001733Y-84362363D01*
X39980902Y-84375378D01*
X39927400Y-84412174D01*
X39845913Y-84469381D01*
X39741125Y-84543628D01*
X39617724Y-84631544D01*
X39480393Y-84729759D01*
X39333820Y-84834902D01*
X39182688Y-84943602D01*
X39031685Y-85052488D01*
X38885495Y-85158189D01*
X38748804Y-85257336D01*
X38626297Y-85346556D01*
X38522660Y-85422480D01*
X38442579Y-85481736D01*
X38390739Y-85520953D01*
X38385086Y-85525375D01*
X38361357Y-85539136D01*
X38364369Y-85517536D01*
X38364598Y-85516909D01*
X38374247Y-85488069D01*
X38396532Y-85420084D01*
X38429894Y-85317752D01*
X38472772Y-85185875D01*
X38523606Y-85029252D01*
X38580837Y-84852683D01*
X38642905Y-84660968D01*
X38672273Y-84570181D01*
X38735853Y-84373675D01*
X38795155Y-84190558D01*
X38848645Y-84025557D01*
X38894788Y-83883399D01*
X38932048Y-83768812D01*
X38958892Y-83686522D01*
X38973784Y-83641256D01*
X38976207Y-83634146D01*
X38960007Y-83615997D01*
X38910050Y-83573802D01*
X38830104Y-83510438D01*
X38723933Y-83428784D01*
X38595305Y-83331715D01*
X38447987Y-83222108D01*
X38285743Y-83102840D01*
X38175085Y-83022237D01*
X37365005Y-82434272D01*
X38366962Y-82428260D01*
X39368918Y-82422247D01*
X39547763Y-81874078D01*
X39607051Y-81691997D01*
X39670730Y-81495810D01*
X39734441Y-81298992D01*
X39793823Y-81115019D01*
X39844517Y-80957365D01*
X39857531Y-80916740D01*
X39899384Y-80787879D01*
X39937037Y-80675601D01*
X39968092Y-80586768D01*
X39990149Y-80528240D01*
X40000809Y-80506878D01*
X40000833Y-80506876D01*
X40010367Y-80527944D01*
G37*
X40010367Y-80527944D02*
X40032380Y-80588365D01*
X40065308Y-80683495D01*
X40107589Y-80808692D01*
X40157661Y-80959313D01*
X40213959Y-81130714D01*
X40274921Y-81318254D01*
X40297897Y-81389409D01*
X40361184Y-81585253D01*
X40421111Y-81769749D01*
X40475973Y-81937713D01*
X40524063Y-82083962D01*
X40563675Y-82203311D01*
X40593101Y-82290576D01*
X40610636Y-82340574D01*
X40613283Y-82347435D01*
X40643983Y-82422234D01*
X42634885Y-82434272D01*
X41824971Y-83022526D01*
X41614426Y-83176060D01*
X41439750Y-83304843D01*
X41298888Y-83410483D01*
X41189788Y-83494589D01*
X41110396Y-83558766D01*
X41058660Y-83604623D01*
X41032525Y-83633766D01*
X41028611Y-83645980D01*
X41043907Y-83689137D01*
X41070454Y-83767780D01*
X41106482Y-83876421D01*
X41150222Y-84009574D01*
X41199905Y-84161749D01*
X41253760Y-84327460D01*
X41310019Y-84501219D01*
X41366913Y-84677537D01*
X41422672Y-84850928D01*
X41475526Y-85015903D01*
X41523706Y-85166975D01*
X41565443Y-85298656D01*
X41598968Y-85405458D01*
X41622511Y-85481894D01*
X41634303Y-85522476D01*
X41635288Y-85527599D01*
X41615700Y-85515758D01*
X41562697Y-85479383D01*
X41480121Y-85421222D01*
X41371818Y-85344021D01*
X41241633Y-85250530D01*
X41093411Y-85143495D01*
X40930996Y-85025666D01*
X40824430Y-84948083D01*
X40654612Y-84824605D01*
X40496140Y-84709984D01*
X40352930Y-84607008D01*
X40228902Y-84518468D01*
X40127973Y-84447152D01*
X40054062Y-84395852D01*
X40011087Y-84367356D01*
X40001733Y-84362363D01*
X39980902Y-84375378D01*
X39927400Y-84412174D01*
X39845913Y-84469381D01*
X39741125Y-84543628D01*
X39617724Y-84631544D01*
X39480393Y-84729759D01*
X39333820Y-84834902D01*
X39182688Y-84943602D01*
X39031685Y-85052488D01*
X38885495Y-85158189D01*
X38748804Y-85257336D01*
X38626297Y-85346556D01*
X38522660Y-85422480D01*
X38442579Y-85481736D01*
X38390739Y-85520953D01*
X38385086Y-85525375D01*
X38361357Y-85539136D01*
X38364369Y-85517536D01*
X38364598Y-85516909D01*
X38374247Y-85488069D01*
X38396532Y-85420084D01*
X38429894Y-85317752D01*
X38472772Y-85185875D01*
X38523606Y-85029252D01*
X38580837Y-84852683D01*
X38642905Y-84660968D01*
X38672273Y-84570181D01*
X38735853Y-84373675D01*
X38795155Y-84190558D01*
X38848645Y-84025557D01*
X38894788Y-83883399D01*
X38932048Y-83768812D01*
X38958892Y-83686522D01*
X38973784Y-83641256D01*
X38976207Y-83634146D01*
X38960007Y-83615997D01*
X38910050Y-83573802D01*
X38830104Y-83510438D01*
X38723933Y-83428784D01*
X38595305Y-83331715D01*
X38447987Y-83222108D01*
X38285743Y-83102840D01*
X38175085Y-83022237D01*
X37365005Y-82434272D01*
X38366962Y-82428260D01*
X39368918Y-82422247D01*
X39547763Y-81874078D01*
X39607051Y-81691997D01*
X39670730Y-81495810D01*
X39734441Y-81298992D01*
X39793823Y-81115019D01*
X39844517Y-80957365D01*
X39857531Y-80916740D01*
X39899384Y-80787879D01*
X39937037Y-80675601D01*
X39968092Y-80586768D01*
X39990149Y-80528240D01*
X40000809Y-80506878D01*
X40000833Y-80506876D01*
X40010367Y-80527944D01*
G36*
X100010367Y-75527944D02*
G01*
X100032380Y-75588365D01*
X100065308Y-75683495D01*
X100107589Y-75808692D01*
X100157661Y-75959313D01*
X100213959Y-76130714D01*
X100274921Y-76318254D01*
X100297897Y-76389409D01*
X100361184Y-76585253D01*
X100421111Y-76769749D01*
X100475973Y-76937713D01*
X100524063Y-77083962D01*
X100563675Y-77203311D01*
X100593101Y-77290576D01*
X100610636Y-77340574D01*
X100613283Y-77347435D01*
X100643983Y-77422234D01*
X102634885Y-77434272D01*
X101824971Y-78022526D01*
X101614426Y-78176060D01*
X101439750Y-78304843D01*
X101298888Y-78410483D01*
X101189788Y-78494589D01*
X101110396Y-78558766D01*
X101058660Y-78604623D01*
X101032525Y-78633766D01*
X101028611Y-78645980D01*
X101043907Y-78689137D01*
X101070454Y-78767780D01*
X101106482Y-78876421D01*
X101150222Y-79009574D01*
X101199905Y-79161749D01*
X101253760Y-79327460D01*
X101310019Y-79501219D01*
X101366913Y-79677537D01*
X101422672Y-79850928D01*
X101475526Y-80015903D01*
X101523706Y-80166975D01*
X101565443Y-80298656D01*
X101598968Y-80405458D01*
X101622511Y-80481894D01*
X101634303Y-80522476D01*
X101635288Y-80527599D01*
X101615700Y-80515758D01*
X101562697Y-80479383D01*
X101480121Y-80421222D01*
X101371818Y-80344021D01*
X101241633Y-80250530D01*
X101093411Y-80143495D01*
X100930996Y-80025666D01*
X100824430Y-79948083D01*
X100654612Y-79824605D01*
X100496140Y-79709984D01*
X100352930Y-79607008D01*
X100228902Y-79518468D01*
X100127973Y-79447152D01*
X100054062Y-79395852D01*
X100011087Y-79367356D01*
X100001733Y-79362363D01*
X99980902Y-79375378D01*
X99927400Y-79412174D01*
X99845913Y-79469381D01*
X99741125Y-79543628D01*
X99617724Y-79631544D01*
X99480393Y-79729759D01*
X99333820Y-79834902D01*
X99182688Y-79943602D01*
X99031685Y-80052488D01*
X98885495Y-80158189D01*
X98748804Y-80257336D01*
X98626297Y-80346556D01*
X98522660Y-80422480D01*
X98442579Y-80481736D01*
X98390739Y-80520953D01*
X98385086Y-80525375D01*
X98361357Y-80539136D01*
X98364369Y-80517536D01*
X98364598Y-80516909D01*
X98374247Y-80488069D01*
X98396532Y-80420084D01*
X98429894Y-80317752D01*
X98472772Y-80185875D01*
X98523606Y-80029252D01*
X98580837Y-79852683D01*
X98642905Y-79660968D01*
X98672273Y-79570181D01*
X98735853Y-79373675D01*
X98795155Y-79190558D01*
X98848645Y-79025557D01*
X98894788Y-78883399D01*
X98932048Y-78768812D01*
X98958892Y-78686522D01*
X98973784Y-78641256D01*
X98976207Y-78634146D01*
X98960007Y-78615997D01*
X98910050Y-78573802D01*
X98830104Y-78510438D01*
X98723933Y-78428784D01*
X98595305Y-78331715D01*
X98447987Y-78222108D01*
X98285743Y-78102840D01*
X98175085Y-78022237D01*
X97365005Y-77434272D01*
X98366962Y-77428260D01*
X99368918Y-77422247D01*
X99547763Y-76874078D01*
X99607051Y-76691997D01*
X99670730Y-76495810D01*
X99734441Y-76298992D01*
X99793823Y-76115019D01*
X99844517Y-75957365D01*
X99857531Y-75916740D01*
X99899384Y-75787879D01*
X99937037Y-75675601D01*
X99968092Y-75586768D01*
X99990149Y-75528240D01*
X100000809Y-75506878D01*
X100000833Y-75506876D01*
X100010367Y-75527944D01*
G37*
X100010367Y-75527944D02*
X100032380Y-75588365D01*
X100065308Y-75683495D01*
X100107589Y-75808692D01*
X100157661Y-75959313D01*
X100213959Y-76130714D01*
X100274921Y-76318254D01*
X100297897Y-76389409D01*
X100361184Y-76585253D01*
X100421111Y-76769749D01*
X100475973Y-76937713D01*
X100524063Y-77083962D01*
X100563675Y-77203311D01*
X100593101Y-77290576D01*
X100610636Y-77340574D01*
X100613283Y-77347435D01*
X100643983Y-77422234D01*
X102634885Y-77434272D01*
X101824971Y-78022526D01*
X101614426Y-78176060D01*
X101439750Y-78304843D01*
X101298888Y-78410483D01*
X101189788Y-78494589D01*
X101110396Y-78558766D01*
X101058660Y-78604623D01*
X101032525Y-78633766D01*
X101028611Y-78645980D01*
X101043907Y-78689137D01*
X101070454Y-78767780D01*
X101106482Y-78876421D01*
X101150222Y-79009574D01*
X101199905Y-79161749D01*
X101253760Y-79327460D01*
X101310019Y-79501219D01*
X101366913Y-79677537D01*
X101422672Y-79850928D01*
X101475526Y-80015903D01*
X101523706Y-80166975D01*
X101565443Y-80298656D01*
X101598968Y-80405458D01*
X101622511Y-80481894D01*
X101634303Y-80522476D01*
X101635288Y-80527599D01*
X101615700Y-80515758D01*
X101562697Y-80479383D01*
X101480121Y-80421222D01*
X101371818Y-80344021D01*
X101241633Y-80250530D01*
X101093411Y-80143495D01*
X100930996Y-80025666D01*
X100824430Y-79948083D01*
X100654612Y-79824605D01*
X100496140Y-79709984D01*
X100352930Y-79607008D01*
X100228902Y-79518468D01*
X100127973Y-79447152D01*
X100054062Y-79395852D01*
X100011087Y-79367356D01*
X100001733Y-79362363D01*
X99980902Y-79375378D01*
X99927400Y-79412174D01*
X99845913Y-79469381D01*
X99741125Y-79543628D01*
X99617724Y-79631544D01*
X99480393Y-79729759D01*
X99333820Y-79834902D01*
X99182688Y-79943602D01*
X99031685Y-80052488D01*
X98885495Y-80158189D01*
X98748804Y-80257336D01*
X98626297Y-80346556D01*
X98522660Y-80422480D01*
X98442579Y-80481736D01*
X98390739Y-80520953D01*
X98385086Y-80525375D01*
X98361357Y-80539136D01*
X98364369Y-80517536D01*
X98364598Y-80516909D01*
X98374247Y-80488069D01*
X98396532Y-80420084D01*
X98429894Y-80317752D01*
X98472772Y-80185875D01*
X98523606Y-80029252D01*
X98580837Y-79852683D01*
X98642905Y-79660968D01*
X98672273Y-79570181D01*
X98735853Y-79373675D01*
X98795155Y-79190558D01*
X98848645Y-79025557D01*
X98894788Y-78883399D01*
X98932048Y-78768812D01*
X98958892Y-78686522D01*
X98973784Y-78641256D01*
X98976207Y-78634146D01*
X98960007Y-78615997D01*
X98910050Y-78573802D01*
X98830104Y-78510438D01*
X98723933Y-78428784D01*
X98595305Y-78331715D01*
X98447987Y-78222108D01*
X98285743Y-78102840D01*
X98175085Y-78022237D01*
X97365005Y-77434272D01*
X98366962Y-77428260D01*
X99368918Y-77422247D01*
X99547763Y-76874078D01*
X99607051Y-76691997D01*
X99670730Y-76495810D01*
X99734441Y-76298992D01*
X99793823Y-76115019D01*
X99844517Y-75957365D01*
X99857531Y-75916740D01*
X99899384Y-75787879D01*
X99937037Y-75675601D01*
X99968092Y-75586768D01*
X99990149Y-75528240D01*
X100000809Y-75506878D01*
X100000833Y-75506876D01*
X100010367Y-75527944D01*
G36*
X55010367Y-34527944D02*
G01*
X55032380Y-34588365D01*
X55065308Y-34683495D01*
X55107589Y-34808692D01*
X55157661Y-34959313D01*
X55213959Y-35130714D01*
X55274921Y-35318254D01*
X55297897Y-35389409D01*
X55361184Y-35585253D01*
X55421111Y-35769749D01*
X55475973Y-35937713D01*
X55524063Y-36083962D01*
X55563675Y-36203311D01*
X55593101Y-36290576D01*
X55610636Y-36340574D01*
X55613283Y-36347435D01*
X55643983Y-36422234D01*
X57634885Y-36434272D01*
X56824971Y-37022526D01*
X56614426Y-37176060D01*
X56439750Y-37304843D01*
X56298888Y-37410483D01*
X56189788Y-37494589D01*
X56110396Y-37558766D01*
X56058660Y-37604623D01*
X56032525Y-37633766D01*
X56028611Y-37645980D01*
X56043907Y-37689137D01*
X56070454Y-37767780D01*
X56106482Y-37876421D01*
X56150222Y-38009574D01*
X56199905Y-38161749D01*
X56253760Y-38327460D01*
X56310019Y-38501219D01*
X56366913Y-38677537D01*
X56422672Y-38850928D01*
X56475526Y-39015903D01*
X56523706Y-39166975D01*
X56565443Y-39298656D01*
X56598968Y-39405458D01*
X56622511Y-39481894D01*
X56634303Y-39522476D01*
X56635288Y-39527599D01*
X56615700Y-39515758D01*
X56562697Y-39479383D01*
X56480121Y-39421222D01*
X56371818Y-39344021D01*
X56241633Y-39250530D01*
X56093411Y-39143495D01*
X55930996Y-39025666D01*
X55824430Y-38948083D01*
X55654612Y-38824605D01*
X55496140Y-38709984D01*
X55352930Y-38607008D01*
X55228902Y-38518468D01*
X55127973Y-38447152D01*
X55054062Y-38395852D01*
X55011087Y-38367356D01*
X55001733Y-38362363D01*
X54980902Y-38375378D01*
X54927400Y-38412174D01*
X54845913Y-38469381D01*
X54741125Y-38543628D01*
X54617724Y-38631544D01*
X54480393Y-38729759D01*
X54333820Y-38834902D01*
X54182688Y-38943602D01*
X54031685Y-39052488D01*
X53885495Y-39158189D01*
X53748804Y-39257336D01*
X53626297Y-39346556D01*
X53522660Y-39422480D01*
X53442579Y-39481736D01*
X53390739Y-39520953D01*
X53385086Y-39525375D01*
X53361357Y-39539136D01*
X53364369Y-39517536D01*
X53364598Y-39516909D01*
X53374247Y-39488069D01*
X53396532Y-39420084D01*
X53429894Y-39317752D01*
X53472772Y-39185875D01*
X53523606Y-39029252D01*
X53580837Y-38852683D01*
X53642905Y-38660968D01*
X53672273Y-38570181D01*
X53735853Y-38373675D01*
X53795155Y-38190558D01*
X53848645Y-38025557D01*
X53894788Y-37883399D01*
X53932048Y-37768812D01*
X53958892Y-37686522D01*
X53973784Y-37641256D01*
X53976207Y-37634146D01*
X53960007Y-37615997D01*
X53910050Y-37573802D01*
X53830104Y-37510438D01*
X53723933Y-37428784D01*
X53595305Y-37331715D01*
X53447987Y-37222108D01*
X53285743Y-37102840D01*
X53175085Y-37022237D01*
X52365005Y-36434272D01*
X53366962Y-36428260D01*
X54368918Y-36422247D01*
X54547763Y-35874078D01*
X54607051Y-35691997D01*
X54670730Y-35495810D01*
X54734441Y-35298992D01*
X54793823Y-35115019D01*
X54844517Y-34957365D01*
X54857531Y-34916740D01*
X54899384Y-34787879D01*
X54937037Y-34675601D01*
X54968092Y-34586768D01*
X54990149Y-34528240D01*
X55000809Y-34506878D01*
X55000833Y-34506876D01*
X55010367Y-34527944D01*
G37*
X55010367Y-34527944D02*
X55032380Y-34588365D01*
X55065308Y-34683495D01*
X55107589Y-34808692D01*
X55157661Y-34959313D01*
X55213959Y-35130714D01*
X55274921Y-35318254D01*
X55297897Y-35389409D01*
X55361184Y-35585253D01*
X55421111Y-35769749D01*
X55475973Y-35937713D01*
X55524063Y-36083962D01*
X55563675Y-36203311D01*
X55593101Y-36290576D01*
X55610636Y-36340574D01*
X55613283Y-36347435D01*
X55643983Y-36422234D01*
X57634885Y-36434272D01*
X56824971Y-37022526D01*
X56614426Y-37176060D01*
X56439750Y-37304843D01*
X56298888Y-37410483D01*
X56189788Y-37494589D01*
X56110396Y-37558766D01*
X56058660Y-37604623D01*
X56032525Y-37633766D01*
X56028611Y-37645980D01*
X56043907Y-37689137D01*
X56070454Y-37767780D01*
X56106482Y-37876421D01*
X56150222Y-38009574D01*
X56199905Y-38161749D01*
X56253760Y-38327460D01*
X56310019Y-38501219D01*
X56366913Y-38677537D01*
X56422672Y-38850928D01*
X56475526Y-39015903D01*
X56523706Y-39166975D01*
X56565443Y-39298656D01*
X56598968Y-39405458D01*
X56622511Y-39481894D01*
X56634303Y-39522476D01*
X56635288Y-39527599D01*
X56615700Y-39515758D01*
X56562697Y-39479383D01*
X56480121Y-39421222D01*
X56371818Y-39344021D01*
X56241633Y-39250530D01*
X56093411Y-39143495D01*
X55930996Y-39025666D01*
X55824430Y-38948083D01*
X55654612Y-38824605D01*
X55496140Y-38709984D01*
X55352930Y-38607008D01*
X55228902Y-38518468D01*
X55127973Y-38447152D01*
X55054062Y-38395852D01*
X55011087Y-38367356D01*
X55001733Y-38362363D01*
X54980902Y-38375378D01*
X54927400Y-38412174D01*
X54845913Y-38469381D01*
X54741125Y-38543628D01*
X54617724Y-38631544D01*
X54480393Y-38729759D01*
X54333820Y-38834902D01*
X54182688Y-38943602D01*
X54031685Y-39052488D01*
X53885495Y-39158189D01*
X53748804Y-39257336D01*
X53626297Y-39346556D01*
X53522660Y-39422480D01*
X53442579Y-39481736D01*
X53390739Y-39520953D01*
X53385086Y-39525375D01*
X53361357Y-39539136D01*
X53364369Y-39517536D01*
X53364598Y-39516909D01*
X53374247Y-39488069D01*
X53396532Y-39420084D01*
X53429894Y-39317752D01*
X53472772Y-39185875D01*
X53523606Y-39029252D01*
X53580837Y-38852683D01*
X53642905Y-38660968D01*
X53672273Y-38570181D01*
X53735853Y-38373675D01*
X53795155Y-38190558D01*
X53848645Y-38025557D01*
X53894788Y-37883399D01*
X53932048Y-37768812D01*
X53958892Y-37686522D01*
X53973784Y-37641256D01*
X53976207Y-37634146D01*
X53960007Y-37615997D01*
X53910050Y-37573802D01*
X53830104Y-37510438D01*
X53723933Y-37428784D01*
X53595305Y-37331715D01*
X53447987Y-37222108D01*
X53285743Y-37102840D01*
X53175085Y-37022237D01*
X52365005Y-36434272D01*
X53366962Y-36428260D01*
X54368918Y-36422247D01*
X54547763Y-35874078D01*
X54607051Y-35691997D01*
X54670730Y-35495810D01*
X54734441Y-35298992D01*
X54793823Y-35115019D01*
X54844517Y-34957365D01*
X54857531Y-34916740D01*
X54899384Y-34787879D01*
X54937037Y-34675601D01*
X54968092Y-34586768D01*
X54990149Y-34528240D01*
X55000809Y-34506878D01*
X55000833Y-34506876D01*
X55010367Y-34527944D01*
G36*
X54019527Y-44343731D02*
G01*
X54060990Y-44457538D01*
X54123012Y-44636722D01*
X54202651Y-44872538D01*
X54296963Y-45156241D01*
X54403004Y-45479086D01*
X54517831Y-45832328D01*
X54561107Y-45966353D01*
X54680311Y-46335237D01*
X54793189Y-46682747D01*
X54896525Y-46999118D01*
X54987105Y-47274586D01*
X55061716Y-47499387D01*
X55117142Y-47663757D01*
X55150170Y-47757931D01*
X55155156Y-47770855D01*
X55212982Y-47911744D01*
X57087975Y-47923081D01*
X58962969Y-47934418D01*
X57437445Y-49042429D01*
X57040871Y-49331620D01*
X56711857Y-49574191D01*
X56446535Y-49773172D01*
X56241039Y-49931589D01*
X56091500Y-50052471D01*
X55994050Y-50138845D01*
X55944824Y-50193738D01*
X55937451Y-50216745D01*
X55966263Y-50298033D01*
X56016266Y-50446161D01*
X56084127Y-50650794D01*
X56166514Y-50901595D01*
X56260094Y-51188227D01*
X56361534Y-51500353D01*
X56467502Y-51827638D01*
X56574665Y-52159745D01*
X56679689Y-52486337D01*
X56779243Y-52797078D01*
X56869994Y-53081631D01*
X56948609Y-53329660D01*
X57011755Y-53530829D01*
X57056100Y-53674801D01*
X57078310Y-53751239D01*
X57080165Y-53760888D01*
X57043271Y-53738587D01*
X56943435Y-53670072D01*
X56787898Y-53560521D01*
X56583903Y-53415109D01*
X56338692Y-53239012D01*
X56059506Y-53037406D01*
X55753588Y-52815467D01*
X55552864Y-52669335D01*
X55233003Y-52436757D01*
X54934510Y-52220860D01*
X54664766Y-52026899D01*
X54431151Y-51860128D01*
X54241045Y-51725801D01*
X54101829Y-51629174D01*
X54020884Y-51575500D01*
X54003264Y-51566096D01*
X53964027Y-51590609D01*
X53863253Y-51659917D01*
X53709766Y-51767670D01*
X53512393Y-51907519D01*
X53279959Y-52073114D01*
X53021288Y-52258108D01*
X52745208Y-52456151D01*
X52460543Y-52660894D01*
X52176119Y-52865988D01*
X51900761Y-53065083D01*
X51643294Y-53251832D01*
X51412546Y-53419884D01*
X51217340Y-53562890D01*
X51066502Y-53674503D01*
X50968858Y-53748372D01*
X50958209Y-53756699D01*
X50913515Y-53782620D01*
X50919188Y-53741935D01*
X50919619Y-53740753D01*
X50937794Y-53686432D01*
X50979770Y-53558377D01*
X51042608Y-53365630D01*
X51123372Y-53117231D01*
X51219121Y-52822222D01*
X51326919Y-52489643D01*
X51443827Y-52128536D01*
X51499144Y-51957534D01*
X51618900Y-51587402D01*
X51730600Y-51242489D01*
X51831351Y-50931700D01*
X51918264Y-50663938D01*
X51988447Y-50448106D01*
X52039009Y-50293107D01*
X52067059Y-50207846D01*
X52071622Y-50194454D01*
X52041108Y-50160268D01*
X51947012Y-50080791D01*
X51796428Y-49961443D01*
X51596449Y-49807641D01*
X51354171Y-49624806D01*
X51076687Y-49418354D01*
X50771092Y-49193706D01*
X50562660Y-49041886D01*
X49036824Y-47934418D01*
X50924071Y-47923093D01*
X52811319Y-47911767D01*
X53148183Y-46879257D01*
X53259855Y-46536296D01*
X53379800Y-46166766D01*
X53499803Y-45796048D01*
X53611654Y-45449523D01*
X53707137Y-45152572D01*
X53731650Y-45076052D01*
X53810483Y-44833334D01*
X53881406Y-44621852D01*
X53939899Y-44454529D01*
X53981444Y-44344288D01*
X54001523Y-44304052D01*
X54001569Y-44304048D01*
X54019527Y-44343731D01*
G37*
X54019527Y-44343731D02*
X54060990Y-44457538D01*
X54123012Y-44636722D01*
X54202651Y-44872538D01*
X54296963Y-45156241D01*
X54403004Y-45479086D01*
X54517831Y-45832328D01*
X54561107Y-45966353D01*
X54680311Y-46335237D01*
X54793189Y-46682747D01*
X54896525Y-46999118D01*
X54987105Y-47274586D01*
X55061716Y-47499387D01*
X55117142Y-47663757D01*
X55150170Y-47757931D01*
X55155156Y-47770855D01*
X55212982Y-47911744D01*
X57087975Y-47923081D01*
X58962969Y-47934418D01*
X57437445Y-49042429D01*
X57040871Y-49331620D01*
X56711857Y-49574191D01*
X56446535Y-49773172D01*
X56241039Y-49931589D01*
X56091500Y-50052471D01*
X55994050Y-50138845D01*
X55944824Y-50193738D01*
X55937451Y-50216745D01*
X55966263Y-50298033D01*
X56016266Y-50446161D01*
X56084127Y-50650794D01*
X56166514Y-50901595D01*
X56260094Y-51188227D01*
X56361534Y-51500353D01*
X56467502Y-51827638D01*
X56574665Y-52159745D01*
X56679689Y-52486337D01*
X56779243Y-52797078D01*
X56869994Y-53081631D01*
X56948609Y-53329660D01*
X57011755Y-53530829D01*
X57056100Y-53674801D01*
X57078310Y-53751239D01*
X57080165Y-53760888D01*
X57043271Y-53738587D01*
X56943435Y-53670072D01*
X56787898Y-53560521D01*
X56583903Y-53415109D01*
X56338692Y-53239012D01*
X56059506Y-53037406D01*
X55753588Y-52815467D01*
X55552864Y-52669335D01*
X55233003Y-52436757D01*
X54934510Y-52220860D01*
X54664766Y-52026899D01*
X54431151Y-51860128D01*
X54241045Y-51725801D01*
X54101829Y-51629174D01*
X54020884Y-51575500D01*
X54003264Y-51566096D01*
X53964027Y-51590609D01*
X53863253Y-51659917D01*
X53709766Y-51767670D01*
X53512393Y-51907519D01*
X53279959Y-52073114D01*
X53021288Y-52258108D01*
X52745208Y-52456151D01*
X52460543Y-52660894D01*
X52176119Y-52865988D01*
X51900761Y-53065083D01*
X51643294Y-53251832D01*
X51412546Y-53419884D01*
X51217340Y-53562890D01*
X51066502Y-53674503D01*
X50968858Y-53748372D01*
X50958209Y-53756699D01*
X50913515Y-53782620D01*
X50919188Y-53741935D01*
X50919619Y-53740753D01*
X50937794Y-53686432D01*
X50979770Y-53558377D01*
X51042608Y-53365630D01*
X51123372Y-53117231D01*
X51219121Y-52822222D01*
X51326919Y-52489643D01*
X51443827Y-52128536D01*
X51499144Y-51957534D01*
X51618900Y-51587402D01*
X51730600Y-51242489D01*
X51831351Y-50931700D01*
X51918264Y-50663938D01*
X51988447Y-50448106D01*
X52039009Y-50293107D01*
X52067059Y-50207846D01*
X52071622Y-50194454D01*
X52041108Y-50160268D01*
X51947012Y-50080791D01*
X51796428Y-49961443D01*
X51596449Y-49807641D01*
X51354171Y-49624806D01*
X51076687Y-49418354D01*
X50771092Y-49193706D01*
X50562660Y-49041886D01*
X49036824Y-47934418D01*
X50924071Y-47923093D01*
X52811319Y-47911767D01*
X53148183Y-46879257D01*
X53259855Y-46536296D01*
X53379800Y-46166766D01*
X53499803Y-45796048D01*
X53611654Y-45449523D01*
X53707137Y-45152572D01*
X53731650Y-45076052D01*
X53810483Y-44833334D01*
X53881406Y-44621852D01*
X53939899Y-44454529D01*
X53981444Y-44344288D01*
X54001523Y-44304052D01*
X54001569Y-44304048D01*
X54019527Y-44343731D01*
G36*
X88010367Y-35527944D02*
G01*
X88032380Y-35588365D01*
X88065308Y-35683495D01*
X88107589Y-35808692D01*
X88157661Y-35959313D01*
X88213959Y-36130714D01*
X88274921Y-36318254D01*
X88297897Y-36389409D01*
X88361184Y-36585253D01*
X88421111Y-36769749D01*
X88475973Y-36937713D01*
X88524063Y-37083962D01*
X88563675Y-37203311D01*
X88593101Y-37290576D01*
X88610636Y-37340574D01*
X88613283Y-37347435D01*
X88643983Y-37422234D01*
X90634885Y-37434272D01*
X89824971Y-38022526D01*
X89614426Y-38176060D01*
X89439750Y-38304843D01*
X89298888Y-38410483D01*
X89189788Y-38494589D01*
X89110396Y-38558766D01*
X89058660Y-38604623D01*
X89032525Y-38633766D01*
X89028611Y-38645980D01*
X89043907Y-38689137D01*
X89070454Y-38767780D01*
X89106482Y-38876421D01*
X89150222Y-39009574D01*
X89199905Y-39161749D01*
X89253760Y-39327460D01*
X89310019Y-39501219D01*
X89366913Y-39677537D01*
X89422672Y-39850928D01*
X89475526Y-40015903D01*
X89523706Y-40166975D01*
X89565443Y-40298656D01*
X89598968Y-40405458D01*
X89622511Y-40481894D01*
X89634303Y-40522476D01*
X89635288Y-40527599D01*
X89615700Y-40515758D01*
X89562697Y-40479383D01*
X89480121Y-40421222D01*
X89371818Y-40344021D01*
X89241633Y-40250530D01*
X89093411Y-40143495D01*
X88930996Y-40025666D01*
X88824430Y-39948083D01*
X88654612Y-39824605D01*
X88496140Y-39709984D01*
X88352930Y-39607008D01*
X88228902Y-39518468D01*
X88127973Y-39447152D01*
X88054062Y-39395852D01*
X88011087Y-39367356D01*
X88001733Y-39362363D01*
X87980902Y-39375378D01*
X87927400Y-39412174D01*
X87845913Y-39469381D01*
X87741125Y-39543628D01*
X87617724Y-39631544D01*
X87480393Y-39729759D01*
X87333820Y-39834902D01*
X87182688Y-39943602D01*
X87031685Y-40052488D01*
X86885495Y-40158189D01*
X86748804Y-40257336D01*
X86626297Y-40346556D01*
X86522660Y-40422480D01*
X86442579Y-40481736D01*
X86390739Y-40520953D01*
X86385086Y-40525375D01*
X86361357Y-40539136D01*
X86364369Y-40517536D01*
X86364598Y-40516909D01*
X86374247Y-40488069D01*
X86396532Y-40420084D01*
X86429894Y-40317752D01*
X86472772Y-40185875D01*
X86523606Y-40029252D01*
X86580837Y-39852683D01*
X86642905Y-39660968D01*
X86672273Y-39570181D01*
X86735853Y-39373675D01*
X86795155Y-39190558D01*
X86848645Y-39025557D01*
X86894788Y-38883399D01*
X86932048Y-38768812D01*
X86958892Y-38686522D01*
X86973784Y-38641256D01*
X86976207Y-38634146D01*
X86960007Y-38615997D01*
X86910050Y-38573802D01*
X86830104Y-38510438D01*
X86723933Y-38428784D01*
X86595305Y-38331715D01*
X86447987Y-38222108D01*
X86285743Y-38102840D01*
X86175085Y-38022237D01*
X85365005Y-37434272D01*
X86366962Y-37428260D01*
X87368918Y-37422247D01*
X87547763Y-36874078D01*
X87607051Y-36691997D01*
X87670730Y-36495810D01*
X87734441Y-36298992D01*
X87793823Y-36115019D01*
X87844517Y-35957365D01*
X87857531Y-35916740D01*
X87899384Y-35787879D01*
X87937037Y-35675601D01*
X87968092Y-35586768D01*
X87990149Y-35528240D01*
X88000809Y-35506878D01*
X88000833Y-35506876D01*
X88010367Y-35527944D01*
G37*
X88010367Y-35527944D02*
X88032380Y-35588365D01*
X88065308Y-35683495D01*
X88107589Y-35808692D01*
X88157661Y-35959313D01*
X88213959Y-36130714D01*
X88274921Y-36318254D01*
X88297897Y-36389409D01*
X88361184Y-36585253D01*
X88421111Y-36769749D01*
X88475973Y-36937713D01*
X88524063Y-37083962D01*
X88563675Y-37203311D01*
X88593101Y-37290576D01*
X88610636Y-37340574D01*
X88613283Y-37347435D01*
X88643983Y-37422234D01*
X90634885Y-37434272D01*
X89824971Y-38022526D01*
X89614426Y-38176060D01*
X89439750Y-38304843D01*
X89298888Y-38410483D01*
X89189788Y-38494589D01*
X89110396Y-38558766D01*
X89058660Y-38604623D01*
X89032525Y-38633766D01*
X89028611Y-38645980D01*
X89043907Y-38689137D01*
X89070454Y-38767780D01*
X89106482Y-38876421D01*
X89150222Y-39009574D01*
X89199905Y-39161749D01*
X89253760Y-39327460D01*
X89310019Y-39501219D01*
X89366913Y-39677537D01*
X89422672Y-39850928D01*
X89475526Y-40015903D01*
X89523706Y-40166975D01*
X89565443Y-40298656D01*
X89598968Y-40405458D01*
X89622511Y-40481894D01*
X89634303Y-40522476D01*
X89635288Y-40527599D01*
X89615700Y-40515758D01*
X89562697Y-40479383D01*
X89480121Y-40421222D01*
X89371818Y-40344021D01*
X89241633Y-40250530D01*
X89093411Y-40143495D01*
X88930996Y-40025666D01*
X88824430Y-39948083D01*
X88654612Y-39824605D01*
X88496140Y-39709984D01*
X88352930Y-39607008D01*
X88228902Y-39518468D01*
X88127973Y-39447152D01*
X88054062Y-39395852D01*
X88011087Y-39367356D01*
X88001733Y-39362363D01*
X87980902Y-39375378D01*
X87927400Y-39412174D01*
X87845913Y-39469381D01*
X87741125Y-39543628D01*
X87617724Y-39631544D01*
X87480393Y-39729759D01*
X87333820Y-39834902D01*
X87182688Y-39943602D01*
X87031685Y-40052488D01*
X86885495Y-40158189D01*
X86748804Y-40257336D01*
X86626297Y-40346556D01*
X86522660Y-40422480D01*
X86442579Y-40481736D01*
X86390739Y-40520953D01*
X86385086Y-40525375D01*
X86361357Y-40539136D01*
X86364369Y-40517536D01*
X86364598Y-40516909D01*
X86374247Y-40488069D01*
X86396532Y-40420084D01*
X86429894Y-40317752D01*
X86472772Y-40185875D01*
X86523606Y-40029252D01*
X86580837Y-39852683D01*
X86642905Y-39660968D01*
X86672273Y-39570181D01*
X86735853Y-39373675D01*
X86795155Y-39190558D01*
X86848645Y-39025557D01*
X86894788Y-38883399D01*
X86932048Y-38768812D01*
X86958892Y-38686522D01*
X86973784Y-38641256D01*
X86976207Y-38634146D01*
X86960007Y-38615997D01*
X86910050Y-38573802D01*
X86830104Y-38510438D01*
X86723933Y-38428784D01*
X86595305Y-38331715D01*
X86447987Y-38222108D01*
X86285743Y-38102840D01*
X86175085Y-38022237D01*
X85365005Y-37434272D01*
X86366962Y-37428260D01*
X87368918Y-37422247D01*
X87547763Y-36874078D01*
X87607051Y-36691997D01*
X87670730Y-36495810D01*
X87734441Y-36298992D01*
X87793823Y-36115019D01*
X87844517Y-35957365D01*
X87857531Y-35916740D01*
X87899384Y-35787879D01*
X87937037Y-35675601D01*
X87968092Y-35586768D01*
X87990149Y-35528240D01*
X88000809Y-35506878D01*
X88000833Y-35506876D01*
X88010367Y-35527944D01*
G36*
X93010367Y-54527944D02*
G01*
X93032380Y-54588365D01*
X93065308Y-54683495D01*
X93107589Y-54808692D01*
X93157661Y-54959313D01*
X93213959Y-55130714D01*
X93274921Y-55318254D01*
X93297897Y-55389409D01*
X93361184Y-55585253D01*
X93421111Y-55769749D01*
X93475973Y-55937713D01*
X93524063Y-56083962D01*
X93563675Y-56203311D01*
X93593101Y-56290576D01*
X93610636Y-56340574D01*
X93613283Y-56347435D01*
X93643983Y-56422234D01*
X95634885Y-56434272D01*
X94824971Y-57022526D01*
X94614426Y-57176060D01*
X94439750Y-57304843D01*
X94298888Y-57410483D01*
X94189788Y-57494589D01*
X94110396Y-57558766D01*
X94058660Y-57604623D01*
X94032525Y-57633766D01*
X94028611Y-57645980D01*
X94043907Y-57689137D01*
X94070454Y-57767780D01*
X94106482Y-57876421D01*
X94150222Y-58009574D01*
X94199905Y-58161749D01*
X94253760Y-58327460D01*
X94310019Y-58501219D01*
X94366913Y-58677537D01*
X94422672Y-58850928D01*
X94475526Y-59015903D01*
X94523706Y-59166975D01*
X94565443Y-59298656D01*
X94598968Y-59405458D01*
X94622511Y-59481894D01*
X94634303Y-59522476D01*
X94635288Y-59527599D01*
X94615700Y-59515758D01*
X94562697Y-59479383D01*
X94480121Y-59421222D01*
X94371818Y-59344021D01*
X94241633Y-59250530D01*
X94093411Y-59143495D01*
X93930996Y-59025666D01*
X93824430Y-58948083D01*
X93654612Y-58824605D01*
X93496140Y-58709984D01*
X93352930Y-58607008D01*
X93228902Y-58518468D01*
X93127973Y-58447152D01*
X93054062Y-58395852D01*
X93011087Y-58367356D01*
X93001733Y-58362363D01*
X92980902Y-58375378D01*
X92927400Y-58412174D01*
X92845913Y-58469381D01*
X92741125Y-58543628D01*
X92617724Y-58631544D01*
X92480393Y-58729759D01*
X92333820Y-58834902D01*
X92182688Y-58943602D01*
X92031685Y-59052488D01*
X91885495Y-59158189D01*
X91748804Y-59257336D01*
X91626297Y-59346556D01*
X91522660Y-59422480D01*
X91442579Y-59481736D01*
X91390739Y-59520953D01*
X91385086Y-59525375D01*
X91361357Y-59539136D01*
X91364369Y-59517536D01*
X91364598Y-59516909D01*
X91374247Y-59488069D01*
X91396532Y-59420084D01*
X91429894Y-59317752D01*
X91472772Y-59185875D01*
X91523606Y-59029252D01*
X91580837Y-58852683D01*
X91642905Y-58660968D01*
X91672273Y-58570181D01*
X91735853Y-58373675D01*
X91795155Y-58190558D01*
X91848645Y-58025557D01*
X91894788Y-57883399D01*
X91932048Y-57768812D01*
X91958892Y-57686522D01*
X91973784Y-57641256D01*
X91976207Y-57634146D01*
X91960007Y-57615997D01*
X91910050Y-57573802D01*
X91830104Y-57510438D01*
X91723933Y-57428784D01*
X91595305Y-57331715D01*
X91447987Y-57222108D01*
X91285743Y-57102840D01*
X91175085Y-57022237D01*
X90365005Y-56434272D01*
X91366962Y-56428260D01*
X92368918Y-56422247D01*
X92547763Y-55874078D01*
X92607051Y-55691997D01*
X92670730Y-55495810D01*
X92734441Y-55298992D01*
X92793823Y-55115019D01*
X92844517Y-54957365D01*
X92857531Y-54916740D01*
X92899384Y-54787879D01*
X92937037Y-54675601D01*
X92968092Y-54586768D01*
X92990149Y-54528240D01*
X93000809Y-54506878D01*
X93000833Y-54506876D01*
X93010367Y-54527944D01*
G37*
X93010367Y-54527944D02*
X93032380Y-54588365D01*
X93065308Y-54683495D01*
X93107589Y-54808692D01*
X93157661Y-54959313D01*
X93213959Y-55130714D01*
X93274921Y-55318254D01*
X93297897Y-55389409D01*
X93361184Y-55585253D01*
X93421111Y-55769749D01*
X93475973Y-55937713D01*
X93524063Y-56083962D01*
X93563675Y-56203311D01*
X93593101Y-56290576D01*
X93610636Y-56340574D01*
X93613283Y-56347435D01*
X93643983Y-56422234D01*
X95634885Y-56434272D01*
X94824971Y-57022526D01*
X94614426Y-57176060D01*
X94439750Y-57304843D01*
X94298888Y-57410483D01*
X94189788Y-57494589D01*
X94110396Y-57558766D01*
X94058660Y-57604623D01*
X94032525Y-57633766D01*
X94028611Y-57645980D01*
X94043907Y-57689137D01*
X94070454Y-57767780D01*
X94106482Y-57876421D01*
X94150222Y-58009574D01*
X94199905Y-58161749D01*
X94253760Y-58327460D01*
X94310019Y-58501219D01*
X94366913Y-58677537D01*
X94422672Y-58850928D01*
X94475526Y-59015903D01*
X94523706Y-59166975D01*
X94565443Y-59298656D01*
X94598968Y-59405458D01*
X94622511Y-59481894D01*
X94634303Y-59522476D01*
X94635288Y-59527599D01*
X94615700Y-59515758D01*
X94562697Y-59479383D01*
X94480121Y-59421222D01*
X94371818Y-59344021D01*
X94241633Y-59250530D01*
X94093411Y-59143495D01*
X93930996Y-59025666D01*
X93824430Y-58948083D01*
X93654612Y-58824605D01*
X93496140Y-58709984D01*
X93352930Y-58607008D01*
X93228902Y-58518468D01*
X93127973Y-58447152D01*
X93054062Y-58395852D01*
X93011087Y-58367356D01*
X93001733Y-58362363D01*
X92980902Y-58375378D01*
X92927400Y-58412174D01*
X92845913Y-58469381D01*
X92741125Y-58543628D01*
X92617724Y-58631544D01*
X92480393Y-58729759D01*
X92333820Y-58834902D01*
X92182688Y-58943602D01*
X92031685Y-59052488D01*
X91885495Y-59158189D01*
X91748804Y-59257336D01*
X91626297Y-59346556D01*
X91522660Y-59422480D01*
X91442579Y-59481736D01*
X91390739Y-59520953D01*
X91385086Y-59525375D01*
X91361357Y-59539136D01*
X91364369Y-59517536D01*
X91364598Y-59516909D01*
X91374247Y-59488069D01*
X91396532Y-59420084D01*
X91429894Y-59317752D01*
X91472772Y-59185875D01*
X91523606Y-59029252D01*
X91580837Y-58852683D01*
X91642905Y-58660968D01*
X91672273Y-58570181D01*
X91735853Y-58373675D01*
X91795155Y-58190558D01*
X91848645Y-58025557D01*
X91894788Y-57883399D01*
X91932048Y-57768812D01*
X91958892Y-57686522D01*
X91973784Y-57641256D01*
X91976207Y-57634146D01*
X91960007Y-57615997D01*
X91910050Y-57573802D01*
X91830104Y-57510438D01*
X91723933Y-57428784D01*
X91595305Y-57331715D01*
X91447987Y-57222108D01*
X91285743Y-57102840D01*
X91175085Y-57022237D01*
X90365005Y-56434272D01*
X91366962Y-56428260D01*
X92368918Y-56422247D01*
X92547763Y-55874078D01*
X92607051Y-55691997D01*
X92670730Y-55495810D01*
X92734441Y-55298992D01*
X92793823Y-55115019D01*
X92844517Y-54957365D01*
X92857531Y-54916740D01*
X92899384Y-54787879D01*
X92937037Y-54675601D01*
X92968092Y-54586768D01*
X92990149Y-54528240D01*
X93000809Y-54506878D01*
X93000833Y-54506876D01*
X93010367Y-54527944D01*
G36*
X108010367Y-33527944D02*
G01*
X108032380Y-33588365D01*
X108065308Y-33683495D01*
X108107589Y-33808692D01*
X108157661Y-33959313D01*
X108213959Y-34130714D01*
X108274921Y-34318254D01*
X108297897Y-34389409D01*
X108361184Y-34585253D01*
X108421111Y-34769749D01*
X108475973Y-34937713D01*
X108524063Y-35083962D01*
X108563675Y-35203311D01*
X108593101Y-35290576D01*
X108610636Y-35340574D01*
X108613283Y-35347435D01*
X108643983Y-35422234D01*
X110634885Y-35434272D01*
X109824971Y-36022526D01*
X109614426Y-36176060D01*
X109439750Y-36304843D01*
X109298888Y-36410483D01*
X109189788Y-36494589D01*
X109110396Y-36558766D01*
X109058660Y-36604623D01*
X109032525Y-36633766D01*
X109028611Y-36645980D01*
X109043907Y-36689137D01*
X109070454Y-36767780D01*
X109106482Y-36876421D01*
X109150222Y-37009574D01*
X109199905Y-37161749D01*
X109253760Y-37327460D01*
X109310019Y-37501219D01*
X109366913Y-37677537D01*
X109422672Y-37850928D01*
X109475526Y-38015903D01*
X109523706Y-38166975D01*
X109565443Y-38298656D01*
X109598968Y-38405458D01*
X109622511Y-38481894D01*
X109634303Y-38522476D01*
X109635288Y-38527599D01*
X109615700Y-38515758D01*
X109562697Y-38479383D01*
X109480121Y-38421222D01*
X109371818Y-38344021D01*
X109241633Y-38250530D01*
X109093411Y-38143495D01*
X108930996Y-38025666D01*
X108824430Y-37948083D01*
X108654612Y-37824605D01*
X108496140Y-37709984D01*
X108352930Y-37607008D01*
X108228902Y-37518468D01*
X108127973Y-37447152D01*
X108054062Y-37395852D01*
X108011087Y-37367356D01*
X108001733Y-37362363D01*
X107980902Y-37375378D01*
X107927400Y-37412174D01*
X107845913Y-37469381D01*
X107741125Y-37543628D01*
X107617724Y-37631544D01*
X107480393Y-37729759D01*
X107333820Y-37834902D01*
X107182688Y-37943602D01*
X107031685Y-38052488D01*
X106885495Y-38158189D01*
X106748804Y-38257336D01*
X106626297Y-38346556D01*
X106522660Y-38422480D01*
X106442579Y-38481736D01*
X106390739Y-38520953D01*
X106385086Y-38525375D01*
X106361357Y-38539136D01*
X106364369Y-38517536D01*
X106364598Y-38516909D01*
X106374247Y-38488069D01*
X106396532Y-38420084D01*
X106429894Y-38317752D01*
X106472772Y-38185875D01*
X106523606Y-38029252D01*
X106580837Y-37852683D01*
X106642905Y-37660968D01*
X106672273Y-37570181D01*
X106735853Y-37373675D01*
X106795155Y-37190558D01*
X106848645Y-37025557D01*
X106894788Y-36883399D01*
X106932048Y-36768812D01*
X106958892Y-36686522D01*
X106973784Y-36641256D01*
X106976207Y-36634146D01*
X106960007Y-36615997D01*
X106910050Y-36573802D01*
X106830104Y-36510438D01*
X106723933Y-36428784D01*
X106595305Y-36331715D01*
X106447987Y-36222108D01*
X106285743Y-36102840D01*
X106175085Y-36022237D01*
X105365005Y-35434272D01*
X106366962Y-35428260D01*
X107368918Y-35422247D01*
X107547763Y-34874078D01*
X107607051Y-34691997D01*
X107670730Y-34495810D01*
X107734441Y-34298992D01*
X107793823Y-34115019D01*
X107844517Y-33957365D01*
X107857531Y-33916740D01*
X107899384Y-33787879D01*
X107937037Y-33675601D01*
X107968092Y-33586768D01*
X107990149Y-33528240D01*
X108000809Y-33506878D01*
X108000833Y-33506876D01*
X108010367Y-33527944D01*
G37*
X108010367Y-33527944D02*
X108032380Y-33588365D01*
X108065308Y-33683495D01*
X108107589Y-33808692D01*
X108157661Y-33959313D01*
X108213959Y-34130714D01*
X108274921Y-34318254D01*
X108297897Y-34389409D01*
X108361184Y-34585253D01*
X108421111Y-34769749D01*
X108475973Y-34937713D01*
X108524063Y-35083962D01*
X108563675Y-35203311D01*
X108593101Y-35290576D01*
X108610636Y-35340574D01*
X108613283Y-35347435D01*
X108643983Y-35422234D01*
X110634885Y-35434272D01*
X109824971Y-36022526D01*
X109614426Y-36176060D01*
X109439750Y-36304843D01*
X109298888Y-36410483D01*
X109189788Y-36494589D01*
X109110396Y-36558766D01*
X109058660Y-36604623D01*
X109032525Y-36633766D01*
X109028611Y-36645980D01*
X109043907Y-36689137D01*
X109070454Y-36767780D01*
X109106482Y-36876421D01*
X109150222Y-37009574D01*
X109199905Y-37161749D01*
X109253760Y-37327460D01*
X109310019Y-37501219D01*
X109366913Y-37677537D01*
X109422672Y-37850928D01*
X109475526Y-38015903D01*
X109523706Y-38166975D01*
X109565443Y-38298656D01*
X109598968Y-38405458D01*
X109622511Y-38481894D01*
X109634303Y-38522476D01*
X109635288Y-38527599D01*
X109615700Y-38515758D01*
X109562697Y-38479383D01*
X109480121Y-38421222D01*
X109371818Y-38344021D01*
X109241633Y-38250530D01*
X109093411Y-38143495D01*
X108930996Y-38025666D01*
X108824430Y-37948083D01*
X108654612Y-37824605D01*
X108496140Y-37709984D01*
X108352930Y-37607008D01*
X108228902Y-37518468D01*
X108127973Y-37447152D01*
X108054062Y-37395852D01*
X108011087Y-37367356D01*
X108001733Y-37362363D01*
X107980902Y-37375378D01*
X107927400Y-37412174D01*
X107845913Y-37469381D01*
X107741125Y-37543628D01*
X107617724Y-37631544D01*
X107480393Y-37729759D01*
X107333820Y-37834902D01*
X107182688Y-37943602D01*
X107031685Y-38052488D01*
X106885495Y-38158189D01*
X106748804Y-38257336D01*
X106626297Y-38346556D01*
X106522660Y-38422480D01*
X106442579Y-38481736D01*
X106390739Y-38520953D01*
X106385086Y-38525375D01*
X106361357Y-38539136D01*
X106364369Y-38517536D01*
X106364598Y-38516909D01*
X106374247Y-38488069D01*
X106396532Y-38420084D01*
X106429894Y-38317752D01*
X106472772Y-38185875D01*
X106523606Y-38029252D01*
X106580837Y-37852683D01*
X106642905Y-37660968D01*
X106672273Y-37570181D01*
X106735853Y-37373675D01*
X106795155Y-37190558D01*
X106848645Y-37025557D01*
X106894788Y-36883399D01*
X106932048Y-36768812D01*
X106958892Y-36686522D01*
X106973784Y-36641256D01*
X106976207Y-36634146D01*
X106960007Y-36615997D01*
X106910050Y-36573802D01*
X106830104Y-36510438D01*
X106723933Y-36428784D01*
X106595305Y-36331715D01*
X106447987Y-36222108D01*
X106285743Y-36102840D01*
X106175085Y-36022237D01*
X105365005Y-35434272D01*
X106366962Y-35428260D01*
X107368918Y-35422247D01*
X107547763Y-34874078D01*
X107607051Y-34691997D01*
X107670730Y-34495810D01*
X107734441Y-34298992D01*
X107793823Y-34115019D01*
X107844517Y-33957365D01*
X107857531Y-33916740D01*
X107899384Y-33787879D01*
X107937037Y-33675601D01*
X107968092Y-33586768D01*
X107990149Y-33528240D01*
X108000809Y-33506878D01*
X108000833Y-33506876D01*
X108010367Y-33527944D01*
G36*
X54010367Y-60527944D02*
G01*
X54032380Y-60588365D01*
X54065308Y-60683495D01*
X54107589Y-60808692D01*
X54157661Y-60959313D01*
X54213959Y-61130714D01*
X54274921Y-61318254D01*
X54297897Y-61389409D01*
X54361184Y-61585253D01*
X54421111Y-61769749D01*
X54475973Y-61937713D01*
X54524063Y-62083962D01*
X54563675Y-62203311D01*
X54593101Y-62290576D01*
X54610636Y-62340574D01*
X54613283Y-62347435D01*
X54643983Y-62422234D01*
X56634885Y-62434272D01*
X55824971Y-63022526D01*
X55614426Y-63176060D01*
X55439750Y-63304843D01*
X55298888Y-63410483D01*
X55189788Y-63494589D01*
X55110396Y-63558766D01*
X55058660Y-63604623D01*
X55032525Y-63633766D01*
X55028611Y-63645980D01*
X55043907Y-63689137D01*
X55070454Y-63767780D01*
X55106482Y-63876421D01*
X55150222Y-64009574D01*
X55199905Y-64161749D01*
X55253760Y-64327460D01*
X55310019Y-64501219D01*
X55366913Y-64677537D01*
X55422672Y-64850928D01*
X55475526Y-65015903D01*
X55523706Y-65166975D01*
X55565443Y-65298656D01*
X55598968Y-65405458D01*
X55622511Y-65481894D01*
X55634303Y-65522476D01*
X55635288Y-65527599D01*
X55615700Y-65515758D01*
X55562697Y-65479383D01*
X55480121Y-65421222D01*
X55371818Y-65344021D01*
X55241633Y-65250530D01*
X55093411Y-65143495D01*
X54930996Y-65025666D01*
X54824430Y-64948083D01*
X54654612Y-64824605D01*
X54496140Y-64709984D01*
X54352930Y-64607008D01*
X54228902Y-64518468D01*
X54127973Y-64447152D01*
X54054062Y-64395852D01*
X54011087Y-64367356D01*
X54001733Y-64362363D01*
X53980902Y-64375378D01*
X53927400Y-64412174D01*
X53845913Y-64469381D01*
X53741125Y-64543628D01*
X53617724Y-64631544D01*
X53480393Y-64729759D01*
X53333820Y-64834902D01*
X53182688Y-64943602D01*
X53031685Y-65052488D01*
X52885495Y-65158189D01*
X52748804Y-65257336D01*
X52626297Y-65346556D01*
X52522660Y-65422480D01*
X52442579Y-65481736D01*
X52390739Y-65520953D01*
X52385086Y-65525375D01*
X52361357Y-65539136D01*
X52364369Y-65517536D01*
X52364598Y-65516909D01*
X52374247Y-65488069D01*
X52396532Y-65420084D01*
X52429894Y-65317752D01*
X52472772Y-65185875D01*
X52523606Y-65029252D01*
X52580837Y-64852683D01*
X52642905Y-64660968D01*
X52672273Y-64570181D01*
X52735853Y-64373675D01*
X52795155Y-64190558D01*
X52848645Y-64025557D01*
X52894788Y-63883399D01*
X52932048Y-63768812D01*
X52958892Y-63686522D01*
X52973784Y-63641256D01*
X52976207Y-63634146D01*
X52960007Y-63615997D01*
X52910050Y-63573802D01*
X52830104Y-63510438D01*
X52723933Y-63428784D01*
X52595305Y-63331715D01*
X52447987Y-63222108D01*
X52285743Y-63102840D01*
X52175085Y-63022237D01*
X51365005Y-62434272D01*
X52366962Y-62428260D01*
X53368918Y-62422247D01*
X53547763Y-61874078D01*
X53607051Y-61691997D01*
X53670730Y-61495810D01*
X53734441Y-61298992D01*
X53793823Y-61115019D01*
X53844517Y-60957365D01*
X53857531Y-60916740D01*
X53899384Y-60787879D01*
X53937037Y-60675601D01*
X53968092Y-60586768D01*
X53990149Y-60528240D01*
X54000809Y-60506878D01*
X54000833Y-60506876D01*
X54010367Y-60527944D01*
G37*
X54010367Y-60527944D02*
X54032380Y-60588365D01*
X54065308Y-60683495D01*
X54107589Y-60808692D01*
X54157661Y-60959313D01*
X54213959Y-61130714D01*
X54274921Y-61318254D01*
X54297897Y-61389409D01*
X54361184Y-61585253D01*
X54421111Y-61769749D01*
X54475973Y-61937713D01*
X54524063Y-62083962D01*
X54563675Y-62203311D01*
X54593101Y-62290576D01*
X54610636Y-62340574D01*
X54613283Y-62347435D01*
X54643983Y-62422234D01*
X56634885Y-62434272D01*
X55824971Y-63022526D01*
X55614426Y-63176060D01*
X55439750Y-63304843D01*
X55298888Y-63410483D01*
X55189788Y-63494589D01*
X55110396Y-63558766D01*
X55058660Y-63604623D01*
X55032525Y-63633766D01*
X55028611Y-63645980D01*
X55043907Y-63689137D01*
X55070454Y-63767780D01*
X55106482Y-63876421D01*
X55150222Y-64009574D01*
X55199905Y-64161749D01*
X55253760Y-64327460D01*
X55310019Y-64501219D01*
X55366913Y-64677537D01*
X55422672Y-64850928D01*
X55475526Y-65015903D01*
X55523706Y-65166975D01*
X55565443Y-65298656D01*
X55598968Y-65405458D01*
X55622511Y-65481894D01*
X55634303Y-65522476D01*
X55635288Y-65527599D01*
X55615700Y-65515758D01*
X55562697Y-65479383D01*
X55480121Y-65421222D01*
X55371818Y-65344021D01*
X55241633Y-65250530D01*
X55093411Y-65143495D01*
X54930996Y-65025666D01*
X54824430Y-64948083D01*
X54654612Y-64824605D01*
X54496140Y-64709984D01*
X54352930Y-64607008D01*
X54228902Y-64518468D01*
X54127973Y-64447152D01*
X54054062Y-64395852D01*
X54011087Y-64367356D01*
X54001733Y-64362363D01*
X53980902Y-64375378D01*
X53927400Y-64412174D01*
X53845913Y-64469381D01*
X53741125Y-64543628D01*
X53617724Y-64631544D01*
X53480393Y-64729759D01*
X53333820Y-64834902D01*
X53182688Y-64943602D01*
X53031685Y-65052488D01*
X52885495Y-65158189D01*
X52748804Y-65257336D01*
X52626297Y-65346556D01*
X52522660Y-65422480D01*
X52442579Y-65481736D01*
X52390739Y-65520953D01*
X52385086Y-65525375D01*
X52361357Y-65539136D01*
X52364369Y-65517536D01*
X52364598Y-65516909D01*
X52374247Y-65488069D01*
X52396532Y-65420084D01*
X52429894Y-65317752D01*
X52472772Y-65185875D01*
X52523606Y-65029252D01*
X52580837Y-64852683D01*
X52642905Y-64660968D01*
X52672273Y-64570181D01*
X52735853Y-64373675D01*
X52795155Y-64190558D01*
X52848645Y-64025557D01*
X52894788Y-63883399D01*
X52932048Y-63768812D01*
X52958892Y-63686522D01*
X52973784Y-63641256D01*
X52976207Y-63634146D01*
X52960007Y-63615997D01*
X52910050Y-63573802D01*
X52830104Y-63510438D01*
X52723933Y-63428784D01*
X52595305Y-63331715D01*
X52447987Y-63222108D01*
X52285743Y-63102840D01*
X52175085Y-63022237D01*
X51365005Y-62434272D01*
X52366962Y-62428260D01*
X53368918Y-62422247D01*
X53547763Y-61874078D01*
X53607051Y-61691997D01*
X53670730Y-61495810D01*
X53734441Y-61298992D01*
X53793823Y-61115019D01*
X53844517Y-60957365D01*
X53857531Y-60916740D01*
X53899384Y-60787879D01*
X53937037Y-60675601D01*
X53968092Y-60586768D01*
X53990149Y-60528240D01*
X54000809Y-60506878D01*
X54000833Y-60506876D01*
X54010367Y-60527944D01*
G36*
X42010367Y-53527944D02*
G01*
X42032380Y-53588365D01*
X42065308Y-53683495D01*
X42107589Y-53808692D01*
X42157661Y-53959313D01*
X42213959Y-54130714D01*
X42274921Y-54318254D01*
X42297897Y-54389409D01*
X42361184Y-54585253D01*
X42421111Y-54769749D01*
X42475973Y-54937713D01*
X42524063Y-55083962D01*
X42563675Y-55203311D01*
X42593101Y-55290576D01*
X42610636Y-55340574D01*
X42613283Y-55347435D01*
X42643983Y-55422234D01*
X44634885Y-55434272D01*
X43824971Y-56022526D01*
X43614426Y-56176060D01*
X43439750Y-56304843D01*
X43298888Y-56410483D01*
X43189788Y-56494589D01*
X43110396Y-56558766D01*
X43058660Y-56604623D01*
X43032525Y-56633766D01*
X43028611Y-56645980D01*
X43043907Y-56689137D01*
X43070454Y-56767780D01*
X43106482Y-56876421D01*
X43150222Y-57009574D01*
X43199905Y-57161749D01*
X43253760Y-57327460D01*
X43310019Y-57501219D01*
X43366913Y-57677537D01*
X43422672Y-57850928D01*
X43475526Y-58015903D01*
X43523706Y-58166975D01*
X43565443Y-58298656D01*
X43598968Y-58405458D01*
X43622511Y-58481894D01*
X43634303Y-58522476D01*
X43635288Y-58527599D01*
X43615700Y-58515758D01*
X43562697Y-58479383D01*
X43480121Y-58421222D01*
X43371818Y-58344021D01*
X43241633Y-58250530D01*
X43093411Y-58143495D01*
X42930996Y-58025666D01*
X42824430Y-57948083D01*
X42654612Y-57824605D01*
X42496140Y-57709984D01*
X42352930Y-57607008D01*
X42228902Y-57518468D01*
X42127973Y-57447152D01*
X42054062Y-57395852D01*
X42011087Y-57367356D01*
X42001733Y-57362363D01*
X41980902Y-57375378D01*
X41927400Y-57412174D01*
X41845913Y-57469381D01*
X41741125Y-57543628D01*
X41617724Y-57631544D01*
X41480393Y-57729759D01*
X41333820Y-57834902D01*
X41182688Y-57943602D01*
X41031685Y-58052488D01*
X40885495Y-58158189D01*
X40748804Y-58257336D01*
X40626297Y-58346556D01*
X40522660Y-58422480D01*
X40442579Y-58481736D01*
X40390739Y-58520953D01*
X40385086Y-58525375D01*
X40361357Y-58539136D01*
X40364369Y-58517536D01*
X40364598Y-58516909D01*
X40374247Y-58488069D01*
X40396532Y-58420084D01*
X40429894Y-58317752D01*
X40472772Y-58185875D01*
X40523606Y-58029252D01*
X40580837Y-57852683D01*
X40642905Y-57660968D01*
X40672273Y-57570181D01*
X40735853Y-57373675D01*
X40795155Y-57190558D01*
X40848645Y-57025557D01*
X40894788Y-56883399D01*
X40932048Y-56768812D01*
X40958892Y-56686522D01*
X40973784Y-56641256D01*
X40976207Y-56634146D01*
X40960007Y-56615997D01*
X40910050Y-56573802D01*
X40830104Y-56510438D01*
X40723933Y-56428784D01*
X40595305Y-56331715D01*
X40447987Y-56222108D01*
X40285743Y-56102840D01*
X40175085Y-56022237D01*
X39365005Y-55434272D01*
X40366962Y-55428260D01*
X41368918Y-55422247D01*
X41547763Y-54874078D01*
X41607051Y-54691997D01*
X41670730Y-54495810D01*
X41734441Y-54298992D01*
X41793823Y-54115019D01*
X41844517Y-53957365D01*
X41857531Y-53916740D01*
X41899384Y-53787879D01*
X41937037Y-53675601D01*
X41968092Y-53586768D01*
X41990149Y-53528240D01*
X42000809Y-53506878D01*
X42000833Y-53506876D01*
X42010367Y-53527944D01*
G37*
X42010367Y-53527944D02*
X42032380Y-53588365D01*
X42065308Y-53683495D01*
X42107589Y-53808692D01*
X42157661Y-53959313D01*
X42213959Y-54130714D01*
X42274921Y-54318254D01*
X42297897Y-54389409D01*
X42361184Y-54585253D01*
X42421111Y-54769749D01*
X42475973Y-54937713D01*
X42524063Y-55083962D01*
X42563675Y-55203311D01*
X42593101Y-55290576D01*
X42610636Y-55340574D01*
X42613283Y-55347435D01*
X42643983Y-55422234D01*
X44634885Y-55434272D01*
X43824971Y-56022526D01*
X43614426Y-56176060D01*
X43439750Y-56304843D01*
X43298888Y-56410483D01*
X43189788Y-56494589D01*
X43110396Y-56558766D01*
X43058660Y-56604623D01*
X43032525Y-56633766D01*
X43028611Y-56645980D01*
X43043907Y-56689137D01*
X43070454Y-56767780D01*
X43106482Y-56876421D01*
X43150222Y-57009574D01*
X43199905Y-57161749D01*
X43253760Y-57327460D01*
X43310019Y-57501219D01*
X43366913Y-57677537D01*
X43422672Y-57850928D01*
X43475526Y-58015903D01*
X43523706Y-58166975D01*
X43565443Y-58298656D01*
X43598968Y-58405458D01*
X43622511Y-58481894D01*
X43634303Y-58522476D01*
X43635288Y-58527599D01*
X43615700Y-58515758D01*
X43562697Y-58479383D01*
X43480121Y-58421222D01*
X43371818Y-58344021D01*
X43241633Y-58250530D01*
X43093411Y-58143495D01*
X42930996Y-58025666D01*
X42824430Y-57948083D01*
X42654612Y-57824605D01*
X42496140Y-57709984D01*
X42352930Y-57607008D01*
X42228902Y-57518468D01*
X42127973Y-57447152D01*
X42054062Y-57395852D01*
X42011087Y-57367356D01*
X42001733Y-57362363D01*
X41980902Y-57375378D01*
X41927400Y-57412174D01*
X41845913Y-57469381D01*
X41741125Y-57543628D01*
X41617724Y-57631544D01*
X41480393Y-57729759D01*
X41333820Y-57834902D01*
X41182688Y-57943602D01*
X41031685Y-58052488D01*
X40885495Y-58158189D01*
X40748804Y-58257336D01*
X40626297Y-58346556D01*
X40522660Y-58422480D01*
X40442579Y-58481736D01*
X40390739Y-58520953D01*
X40385086Y-58525375D01*
X40361357Y-58539136D01*
X40364369Y-58517536D01*
X40364598Y-58516909D01*
X40374247Y-58488069D01*
X40396532Y-58420084D01*
X40429894Y-58317752D01*
X40472772Y-58185875D01*
X40523606Y-58029252D01*
X40580837Y-57852683D01*
X40642905Y-57660968D01*
X40672273Y-57570181D01*
X40735853Y-57373675D01*
X40795155Y-57190558D01*
X40848645Y-57025557D01*
X40894788Y-56883399D01*
X40932048Y-56768812D01*
X40958892Y-56686522D01*
X40973784Y-56641256D01*
X40976207Y-56634146D01*
X40960007Y-56615997D01*
X40910050Y-56573802D01*
X40830104Y-56510438D01*
X40723933Y-56428784D01*
X40595305Y-56331715D01*
X40447987Y-56222108D01*
X40285743Y-56102840D01*
X40175085Y-56022237D01*
X39365005Y-55434272D01*
X40366962Y-55428260D01*
X41368918Y-55422247D01*
X41547763Y-54874078D01*
X41607051Y-54691997D01*
X41670730Y-54495810D01*
X41734441Y-54298992D01*
X41793823Y-54115019D01*
X41844517Y-53957365D01*
X41857531Y-53916740D01*
X41899384Y-53787879D01*
X41937037Y-53675601D01*
X41968092Y-53586768D01*
X41990149Y-53528240D01*
X42000809Y-53506878D01*
X42000833Y-53506876D01*
X42010367Y-53527944D01*
G36*
X41010367Y-37527944D02*
G01*
X41032380Y-37588365D01*
X41065308Y-37683495D01*
X41107589Y-37808692D01*
X41157661Y-37959313D01*
X41213959Y-38130714D01*
X41274921Y-38318254D01*
X41297897Y-38389409D01*
X41361184Y-38585253D01*
X41421111Y-38769749D01*
X41475973Y-38937713D01*
X41524063Y-39083962D01*
X41563675Y-39203311D01*
X41593101Y-39290576D01*
X41610636Y-39340574D01*
X41613283Y-39347435D01*
X41643983Y-39422234D01*
X43634885Y-39434272D01*
X42824971Y-40022526D01*
X42614426Y-40176060D01*
X42439750Y-40304843D01*
X42298888Y-40410483D01*
X42189788Y-40494589D01*
X42110396Y-40558766D01*
X42058660Y-40604623D01*
X42032525Y-40633766D01*
X42028611Y-40645980D01*
X42043907Y-40689137D01*
X42070454Y-40767780D01*
X42106482Y-40876421D01*
X42150222Y-41009574D01*
X42199905Y-41161749D01*
X42253760Y-41327460D01*
X42310019Y-41501219D01*
X42366913Y-41677537D01*
X42422672Y-41850928D01*
X42475526Y-42015903D01*
X42523706Y-42166975D01*
X42565443Y-42298656D01*
X42598968Y-42405458D01*
X42622511Y-42481894D01*
X42634303Y-42522476D01*
X42635288Y-42527599D01*
X42615700Y-42515758D01*
X42562697Y-42479383D01*
X42480121Y-42421222D01*
X42371818Y-42344021D01*
X42241633Y-42250530D01*
X42093411Y-42143495D01*
X41930996Y-42025666D01*
X41824430Y-41948083D01*
X41654612Y-41824605D01*
X41496140Y-41709984D01*
X41352930Y-41607008D01*
X41228902Y-41518468D01*
X41127973Y-41447152D01*
X41054062Y-41395852D01*
X41011087Y-41367356D01*
X41001733Y-41362363D01*
X40980902Y-41375378D01*
X40927400Y-41412174D01*
X40845913Y-41469381D01*
X40741125Y-41543628D01*
X40617724Y-41631544D01*
X40480393Y-41729759D01*
X40333820Y-41834902D01*
X40182688Y-41943602D01*
X40031685Y-42052488D01*
X39885495Y-42158189D01*
X39748804Y-42257336D01*
X39626297Y-42346556D01*
X39522660Y-42422480D01*
X39442579Y-42481736D01*
X39390739Y-42520953D01*
X39385086Y-42525375D01*
X39361357Y-42539136D01*
X39364369Y-42517536D01*
X39364598Y-42516909D01*
X39374247Y-42488069D01*
X39396532Y-42420084D01*
X39429894Y-42317752D01*
X39472772Y-42185875D01*
X39523606Y-42029252D01*
X39580837Y-41852683D01*
X39642905Y-41660968D01*
X39672273Y-41570181D01*
X39735853Y-41373675D01*
X39795155Y-41190558D01*
X39848645Y-41025557D01*
X39894788Y-40883399D01*
X39932048Y-40768812D01*
X39958892Y-40686522D01*
X39973784Y-40641256D01*
X39976207Y-40634146D01*
X39960007Y-40615997D01*
X39910050Y-40573802D01*
X39830104Y-40510438D01*
X39723933Y-40428784D01*
X39595305Y-40331715D01*
X39447987Y-40222108D01*
X39285743Y-40102840D01*
X39175085Y-40022237D01*
X38365005Y-39434272D01*
X39366962Y-39428260D01*
X40368918Y-39422247D01*
X40547763Y-38874078D01*
X40607051Y-38691997D01*
X40670730Y-38495810D01*
X40734441Y-38298992D01*
X40793823Y-38115019D01*
X40844517Y-37957365D01*
X40857531Y-37916740D01*
X40899384Y-37787879D01*
X40937037Y-37675601D01*
X40968092Y-37586768D01*
X40990149Y-37528240D01*
X41000809Y-37506878D01*
X41000833Y-37506876D01*
X41010367Y-37527944D01*
G37*
X41010367Y-37527944D02*
X41032380Y-37588365D01*
X41065308Y-37683495D01*
X41107589Y-37808692D01*
X41157661Y-37959313D01*
X41213959Y-38130714D01*
X41274921Y-38318254D01*
X41297897Y-38389409D01*
X41361184Y-38585253D01*
X41421111Y-38769749D01*
X41475973Y-38937713D01*
X41524063Y-39083962D01*
X41563675Y-39203311D01*
X41593101Y-39290576D01*
X41610636Y-39340574D01*
X41613283Y-39347435D01*
X41643983Y-39422234D01*
X43634885Y-39434272D01*
X42824971Y-40022526D01*
X42614426Y-40176060D01*
X42439750Y-40304843D01*
X42298888Y-40410483D01*
X42189788Y-40494589D01*
X42110396Y-40558766D01*
X42058660Y-40604623D01*
X42032525Y-40633766D01*
X42028611Y-40645980D01*
X42043907Y-40689137D01*
X42070454Y-40767780D01*
X42106482Y-40876421D01*
X42150222Y-41009574D01*
X42199905Y-41161749D01*
X42253760Y-41327460D01*
X42310019Y-41501219D01*
X42366913Y-41677537D01*
X42422672Y-41850928D01*
X42475526Y-42015903D01*
X42523706Y-42166975D01*
X42565443Y-42298656D01*
X42598968Y-42405458D01*
X42622511Y-42481894D01*
X42634303Y-42522476D01*
X42635288Y-42527599D01*
X42615700Y-42515758D01*
X42562697Y-42479383D01*
X42480121Y-42421222D01*
X42371818Y-42344021D01*
X42241633Y-42250530D01*
X42093411Y-42143495D01*
X41930996Y-42025666D01*
X41824430Y-41948083D01*
X41654612Y-41824605D01*
X41496140Y-41709984D01*
X41352930Y-41607008D01*
X41228902Y-41518468D01*
X41127973Y-41447152D01*
X41054062Y-41395852D01*
X41011087Y-41367356D01*
X41001733Y-41362363D01*
X40980902Y-41375378D01*
X40927400Y-41412174D01*
X40845913Y-41469381D01*
X40741125Y-41543628D01*
X40617724Y-41631544D01*
X40480393Y-41729759D01*
X40333820Y-41834902D01*
X40182688Y-41943602D01*
X40031685Y-42052488D01*
X39885495Y-42158189D01*
X39748804Y-42257336D01*
X39626297Y-42346556D01*
X39522660Y-42422480D01*
X39442579Y-42481736D01*
X39390739Y-42520953D01*
X39385086Y-42525375D01*
X39361357Y-42539136D01*
X39364369Y-42517536D01*
X39364598Y-42516909D01*
X39374247Y-42488069D01*
X39396532Y-42420084D01*
X39429894Y-42317752D01*
X39472772Y-42185875D01*
X39523606Y-42029252D01*
X39580837Y-41852683D01*
X39642905Y-41660968D01*
X39672273Y-41570181D01*
X39735853Y-41373675D01*
X39795155Y-41190558D01*
X39848645Y-41025557D01*
X39894788Y-40883399D01*
X39932048Y-40768812D01*
X39958892Y-40686522D01*
X39973784Y-40641256D01*
X39976207Y-40634146D01*
X39960007Y-40615997D01*
X39910050Y-40573802D01*
X39830104Y-40510438D01*
X39723933Y-40428784D01*
X39595305Y-40331715D01*
X39447987Y-40222108D01*
X39285743Y-40102840D01*
X39175085Y-40022237D01*
X38365005Y-39434272D01*
X39366962Y-39428260D01*
X40368918Y-39422247D01*
X40547763Y-38874078D01*
X40607051Y-38691997D01*
X40670730Y-38495810D01*
X40734441Y-38298992D01*
X40793823Y-38115019D01*
X40844517Y-37957365D01*
X40857531Y-37916740D01*
X40899384Y-37787879D01*
X40937037Y-37675601D01*
X40968092Y-37586768D01*
X40990149Y-37528240D01*
X41000809Y-37506878D01*
X41000833Y-37506876D01*
X41010367Y-37527944D01*
G36*
X103019527Y-61093731D02*
G01*
X103060990Y-61207538D01*
X103123012Y-61386722D01*
X103202651Y-61622538D01*
X103296963Y-61906241D01*
X103403004Y-62229086D01*
X103517831Y-62582328D01*
X103561107Y-62716353D01*
X103680311Y-63085237D01*
X103793189Y-63432747D01*
X103896525Y-63749118D01*
X103987105Y-64024586D01*
X104061716Y-64249387D01*
X104117142Y-64413757D01*
X104150170Y-64507931D01*
X104155156Y-64520855D01*
X104212982Y-64661744D01*
X106087975Y-64673081D01*
X107962969Y-64684418D01*
X106437445Y-65792429D01*
X106040871Y-66081620D01*
X105711857Y-66324191D01*
X105446535Y-66523172D01*
X105241039Y-66681589D01*
X105091500Y-66802471D01*
X104994050Y-66888845D01*
X104944824Y-66943738D01*
X104937451Y-66966745D01*
X104966263Y-67048033D01*
X105016266Y-67196161D01*
X105084127Y-67400794D01*
X105166514Y-67651595D01*
X105260094Y-67938227D01*
X105361534Y-68250353D01*
X105467502Y-68577638D01*
X105574665Y-68909745D01*
X105679689Y-69236337D01*
X105779243Y-69547078D01*
X105869994Y-69831631D01*
X105948609Y-70079660D01*
X106011755Y-70280829D01*
X106056100Y-70424801D01*
X106078310Y-70501239D01*
X106080165Y-70510888D01*
X106043271Y-70488587D01*
X105943435Y-70420072D01*
X105787898Y-70310521D01*
X105583903Y-70165109D01*
X105338692Y-69989012D01*
X105059506Y-69787406D01*
X104753588Y-69565467D01*
X104552864Y-69419335D01*
X104233003Y-69186757D01*
X103934510Y-68970860D01*
X103664766Y-68776899D01*
X103431151Y-68610128D01*
X103241045Y-68475801D01*
X103101829Y-68379174D01*
X103020884Y-68325500D01*
X103003264Y-68316096D01*
X102964027Y-68340609D01*
X102863253Y-68409917D01*
X102709766Y-68517670D01*
X102512393Y-68657519D01*
X102279959Y-68823114D01*
X102021288Y-69008108D01*
X101745208Y-69206151D01*
X101460543Y-69410894D01*
X101176119Y-69615988D01*
X100900761Y-69815083D01*
X100643294Y-70001832D01*
X100412546Y-70169884D01*
X100217340Y-70312890D01*
X100066502Y-70424503D01*
X99968858Y-70498372D01*
X99958209Y-70506699D01*
X99913515Y-70532620D01*
X99919188Y-70491935D01*
X99919619Y-70490753D01*
X99937794Y-70436432D01*
X99979770Y-70308377D01*
X100042608Y-70115630D01*
X100123372Y-69867231D01*
X100219121Y-69572222D01*
X100326919Y-69239643D01*
X100443827Y-68878536D01*
X100499144Y-68707534D01*
X100618900Y-68337402D01*
X100730600Y-67992489D01*
X100831351Y-67681700D01*
X100918264Y-67413938D01*
X100988447Y-67198106D01*
X101039009Y-67043107D01*
X101067059Y-66957846D01*
X101071622Y-66944454D01*
X101041108Y-66910268D01*
X100947012Y-66830791D01*
X100796428Y-66711443D01*
X100596449Y-66557641D01*
X100354171Y-66374806D01*
X100076687Y-66168354D01*
X99771092Y-65943706D01*
X99562660Y-65791886D01*
X98036824Y-64684418D01*
X99924071Y-64673093D01*
X101811319Y-64661767D01*
X102148183Y-63629257D01*
X102259855Y-63286296D01*
X102379800Y-62916766D01*
X102499803Y-62546048D01*
X102611654Y-62199523D01*
X102707137Y-61902572D01*
X102731650Y-61826052D01*
X102810483Y-61583334D01*
X102881406Y-61371852D01*
X102939899Y-61204529D01*
X102981444Y-61094288D01*
X103001523Y-61054052D01*
X103001569Y-61054048D01*
X103019527Y-61093731D01*
G37*
X103019527Y-61093731D02*
X103060990Y-61207538D01*
X103123012Y-61386722D01*
X103202651Y-61622538D01*
X103296963Y-61906241D01*
X103403004Y-62229086D01*
X103517831Y-62582328D01*
X103561107Y-62716353D01*
X103680311Y-63085237D01*
X103793189Y-63432747D01*
X103896525Y-63749118D01*
X103987105Y-64024586D01*
X104061716Y-64249387D01*
X104117142Y-64413757D01*
X104150170Y-64507931D01*
X104155156Y-64520855D01*
X104212982Y-64661744D01*
X106087975Y-64673081D01*
X107962969Y-64684418D01*
X106437445Y-65792429D01*
X106040871Y-66081620D01*
X105711857Y-66324191D01*
X105446535Y-66523172D01*
X105241039Y-66681589D01*
X105091500Y-66802471D01*
X104994050Y-66888845D01*
X104944824Y-66943738D01*
X104937451Y-66966745D01*
X104966263Y-67048033D01*
X105016266Y-67196161D01*
X105084127Y-67400794D01*
X105166514Y-67651595D01*
X105260094Y-67938227D01*
X105361534Y-68250353D01*
X105467502Y-68577638D01*
X105574665Y-68909745D01*
X105679689Y-69236337D01*
X105779243Y-69547078D01*
X105869994Y-69831631D01*
X105948609Y-70079660D01*
X106011755Y-70280829D01*
X106056100Y-70424801D01*
X106078310Y-70501239D01*
X106080165Y-70510888D01*
X106043271Y-70488587D01*
X105943435Y-70420072D01*
X105787898Y-70310521D01*
X105583903Y-70165109D01*
X105338692Y-69989012D01*
X105059506Y-69787406D01*
X104753588Y-69565467D01*
X104552864Y-69419335D01*
X104233003Y-69186757D01*
X103934510Y-68970860D01*
X103664766Y-68776899D01*
X103431151Y-68610128D01*
X103241045Y-68475801D01*
X103101829Y-68379174D01*
X103020884Y-68325500D01*
X103003264Y-68316096D01*
X102964027Y-68340609D01*
X102863253Y-68409917D01*
X102709766Y-68517670D01*
X102512393Y-68657519D01*
X102279959Y-68823114D01*
X102021288Y-69008108D01*
X101745208Y-69206151D01*
X101460543Y-69410894D01*
X101176119Y-69615988D01*
X100900761Y-69815083D01*
X100643294Y-70001832D01*
X100412546Y-70169884D01*
X100217340Y-70312890D01*
X100066502Y-70424503D01*
X99968858Y-70498372D01*
X99958209Y-70506699D01*
X99913515Y-70532620D01*
X99919188Y-70491935D01*
X99919619Y-70490753D01*
X99937794Y-70436432D01*
X99979770Y-70308377D01*
X100042608Y-70115630D01*
X100123372Y-69867231D01*
X100219121Y-69572222D01*
X100326919Y-69239643D01*
X100443827Y-68878536D01*
X100499144Y-68707534D01*
X100618900Y-68337402D01*
X100730600Y-67992489D01*
X100831351Y-67681700D01*
X100918264Y-67413938D01*
X100988447Y-67198106D01*
X101039009Y-67043107D01*
X101067059Y-66957846D01*
X101071622Y-66944454D01*
X101041108Y-66910268D01*
X100947012Y-66830791D01*
X100796428Y-66711443D01*
X100596449Y-66557641D01*
X100354171Y-66374806D01*
X100076687Y-66168354D01*
X99771092Y-65943706D01*
X99562660Y-65791886D01*
X98036824Y-64684418D01*
X99924071Y-64673093D01*
X101811319Y-64661767D01*
X102148183Y-63629257D01*
X102259855Y-63286296D01*
X102379800Y-62916766D01*
X102499803Y-62546048D01*
X102611654Y-62199523D01*
X102707137Y-61902572D01*
X102731650Y-61826052D01*
X102810483Y-61583334D01*
X102881406Y-61371852D01*
X102939899Y-61204529D01*
X102981444Y-61094288D01*
X103001523Y-61054052D01*
X103001569Y-61054048D01*
X103019527Y-61093731D01*
G36*
X99019527Y-40343731D02*
G01*
X99060990Y-40457538D01*
X99123012Y-40636722D01*
X99202651Y-40872538D01*
X99296963Y-41156241D01*
X99403004Y-41479086D01*
X99517831Y-41832328D01*
X99561107Y-41966353D01*
X99680311Y-42335237D01*
X99793189Y-42682747D01*
X99896525Y-42999118D01*
X99987105Y-43274586D01*
X100061716Y-43499387D01*
X100117142Y-43663757D01*
X100150170Y-43757931D01*
X100155156Y-43770855D01*
X100212982Y-43911744D01*
X102087975Y-43923081D01*
X103962969Y-43934418D01*
X102437445Y-45042429D01*
X102040871Y-45331620D01*
X101711857Y-45574191D01*
X101446535Y-45773172D01*
X101241039Y-45931589D01*
X101091500Y-46052471D01*
X100994050Y-46138845D01*
X100944824Y-46193738D01*
X100937451Y-46216745D01*
X100966263Y-46298033D01*
X101016266Y-46446161D01*
X101084127Y-46650794D01*
X101166514Y-46901595D01*
X101260094Y-47188227D01*
X101361534Y-47500353D01*
X101467502Y-47827638D01*
X101574665Y-48159745D01*
X101679689Y-48486337D01*
X101779243Y-48797078D01*
X101869994Y-49081631D01*
X101948609Y-49329660D01*
X102011755Y-49530829D01*
X102056100Y-49674801D01*
X102078310Y-49751239D01*
X102080165Y-49760888D01*
X102043271Y-49738587D01*
X101943435Y-49670072D01*
X101787898Y-49560521D01*
X101583903Y-49415109D01*
X101338692Y-49239012D01*
X101059506Y-49037406D01*
X100753588Y-48815467D01*
X100552864Y-48669335D01*
X100233003Y-48436757D01*
X99934510Y-48220860D01*
X99664766Y-48026899D01*
X99431151Y-47860128D01*
X99241045Y-47725801D01*
X99101829Y-47629174D01*
X99020884Y-47575500D01*
X99003264Y-47566096D01*
X98964027Y-47590609D01*
X98863253Y-47659917D01*
X98709766Y-47767670D01*
X98512393Y-47907519D01*
X98279959Y-48073114D01*
X98021288Y-48258108D01*
X97745208Y-48456151D01*
X97460543Y-48660894D01*
X97176119Y-48865988D01*
X96900761Y-49065083D01*
X96643294Y-49251832D01*
X96412546Y-49419884D01*
X96217340Y-49562890D01*
X96066502Y-49674503D01*
X95968858Y-49748372D01*
X95958209Y-49756699D01*
X95913515Y-49782620D01*
X95919188Y-49741935D01*
X95919619Y-49740753D01*
X95937794Y-49686432D01*
X95979770Y-49558377D01*
X96042608Y-49365630D01*
X96123372Y-49117231D01*
X96219121Y-48822222D01*
X96326919Y-48489643D01*
X96443827Y-48128536D01*
X96499144Y-47957534D01*
X96618900Y-47587402D01*
X96730600Y-47242489D01*
X96831351Y-46931700D01*
X96918264Y-46663938D01*
X96988447Y-46448106D01*
X97039009Y-46293107D01*
X97067059Y-46207846D01*
X97071622Y-46194454D01*
X97041108Y-46160268D01*
X96947012Y-46080791D01*
X96796428Y-45961443D01*
X96596449Y-45807641D01*
X96354171Y-45624806D01*
X96076687Y-45418354D01*
X95771092Y-45193706D01*
X95562660Y-45041886D01*
X94036824Y-43934418D01*
X95924071Y-43923093D01*
X97811319Y-43911767D01*
X98148183Y-42879257D01*
X98259855Y-42536296D01*
X98379800Y-42166766D01*
X98499803Y-41796048D01*
X98611654Y-41449523D01*
X98707137Y-41152572D01*
X98731650Y-41076052D01*
X98810483Y-40833334D01*
X98881406Y-40621852D01*
X98939899Y-40454529D01*
X98981444Y-40344288D01*
X99001523Y-40304052D01*
X99001569Y-40304048D01*
X99019527Y-40343731D01*
G37*
X99019527Y-40343731D02*
X99060990Y-40457538D01*
X99123012Y-40636722D01*
X99202651Y-40872538D01*
X99296963Y-41156241D01*
X99403004Y-41479086D01*
X99517831Y-41832328D01*
X99561107Y-41966353D01*
X99680311Y-42335237D01*
X99793189Y-42682747D01*
X99896525Y-42999118D01*
X99987105Y-43274586D01*
X100061716Y-43499387D01*
X100117142Y-43663757D01*
X100150170Y-43757931D01*
X100155156Y-43770855D01*
X100212982Y-43911744D01*
X102087975Y-43923081D01*
X103962969Y-43934418D01*
X102437445Y-45042429D01*
X102040871Y-45331620D01*
X101711857Y-45574191D01*
X101446535Y-45773172D01*
X101241039Y-45931589D01*
X101091500Y-46052471D01*
X100994050Y-46138845D01*
X100944824Y-46193738D01*
X100937451Y-46216745D01*
X100966263Y-46298033D01*
X101016266Y-46446161D01*
X101084127Y-46650794D01*
X101166514Y-46901595D01*
X101260094Y-47188227D01*
X101361534Y-47500353D01*
X101467502Y-47827638D01*
X101574665Y-48159745D01*
X101679689Y-48486337D01*
X101779243Y-48797078D01*
X101869994Y-49081631D01*
X101948609Y-49329660D01*
X102011755Y-49530829D01*
X102056100Y-49674801D01*
X102078310Y-49751239D01*
X102080165Y-49760888D01*
X102043271Y-49738587D01*
X101943435Y-49670072D01*
X101787898Y-49560521D01*
X101583903Y-49415109D01*
X101338692Y-49239012D01*
X101059506Y-49037406D01*
X100753588Y-48815467D01*
X100552864Y-48669335D01*
X100233003Y-48436757D01*
X99934510Y-48220860D01*
X99664766Y-48026899D01*
X99431151Y-47860128D01*
X99241045Y-47725801D01*
X99101829Y-47629174D01*
X99020884Y-47575500D01*
X99003264Y-47566096D01*
X98964027Y-47590609D01*
X98863253Y-47659917D01*
X98709766Y-47767670D01*
X98512393Y-47907519D01*
X98279959Y-48073114D01*
X98021288Y-48258108D01*
X97745208Y-48456151D01*
X97460543Y-48660894D01*
X97176119Y-48865988D01*
X96900761Y-49065083D01*
X96643294Y-49251832D01*
X96412546Y-49419884D01*
X96217340Y-49562890D01*
X96066502Y-49674503D01*
X95968858Y-49748372D01*
X95958209Y-49756699D01*
X95913515Y-49782620D01*
X95919188Y-49741935D01*
X95919619Y-49740753D01*
X95937794Y-49686432D01*
X95979770Y-49558377D01*
X96042608Y-49365630D01*
X96123372Y-49117231D01*
X96219121Y-48822222D01*
X96326919Y-48489643D01*
X96443827Y-48128536D01*
X96499144Y-47957534D01*
X96618900Y-47587402D01*
X96730600Y-47242489D01*
X96831351Y-46931700D01*
X96918264Y-46663938D01*
X96988447Y-46448106D01*
X97039009Y-46293107D01*
X97067059Y-46207846D01*
X97071622Y-46194454D01*
X97041108Y-46160268D01*
X96947012Y-46080791D01*
X96796428Y-45961443D01*
X96596449Y-45807641D01*
X96354171Y-45624806D01*
X96076687Y-45418354D01*
X95771092Y-45193706D01*
X95562660Y-45041886D01*
X94036824Y-43934418D01*
X95924071Y-43923093D01*
X97811319Y-43911767D01*
X98148183Y-42879257D01*
X98259855Y-42536296D01*
X98379800Y-42166766D01*
X98499803Y-41796048D01*
X98611654Y-41449523D01*
X98707137Y-41152572D01*
X98731650Y-41076052D01*
X98810483Y-40833334D01*
X98881406Y-40621852D01*
X98939899Y-40454529D01*
X98981444Y-40344288D01*
X99001523Y-40304052D01*
X99001569Y-40304048D01*
X99019527Y-40343731D01*
G36*
X44019527Y-67343731D02*
G01*
X44060990Y-67457538D01*
X44123012Y-67636722D01*
X44202651Y-67872538D01*
X44296963Y-68156241D01*
X44403004Y-68479086D01*
X44517831Y-68832328D01*
X44561107Y-68966353D01*
X44680311Y-69335237D01*
X44793189Y-69682747D01*
X44896525Y-69999118D01*
X44987105Y-70274586D01*
X45061716Y-70499387D01*
X45117142Y-70663757D01*
X45150170Y-70757931D01*
X45155156Y-70770855D01*
X45212982Y-70911744D01*
X47087975Y-70923081D01*
X48962969Y-70934418D01*
X47437445Y-72042429D01*
X47040871Y-72331620D01*
X46711857Y-72574191D01*
X46446535Y-72773172D01*
X46241039Y-72931589D01*
X46091500Y-73052471D01*
X45994050Y-73138845D01*
X45944824Y-73193738D01*
X45937451Y-73216745D01*
X45966263Y-73298033D01*
X46016266Y-73446161D01*
X46084127Y-73650794D01*
X46166514Y-73901595D01*
X46260094Y-74188227D01*
X46361534Y-74500353D01*
X46467502Y-74827638D01*
X46574665Y-75159745D01*
X46679689Y-75486337D01*
X46779243Y-75797078D01*
X46869994Y-76081631D01*
X46948609Y-76329660D01*
X47011755Y-76530829D01*
X47056100Y-76674801D01*
X47078310Y-76751239D01*
X47080165Y-76760888D01*
X47043271Y-76738587D01*
X46943435Y-76670072D01*
X46787898Y-76560521D01*
X46583903Y-76415109D01*
X46338692Y-76239012D01*
X46059506Y-76037406D01*
X45753588Y-75815467D01*
X45552864Y-75669335D01*
X45233003Y-75436757D01*
X44934510Y-75220860D01*
X44664766Y-75026899D01*
X44431151Y-74860128D01*
X44241045Y-74725801D01*
X44101829Y-74629174D01*
X44020884Y-74575500D01*
X44003264Y-74566096D01*
X43964027Y-74590609D01*
X43863253Y-74659917D01*
X43709766Y-74767670D01*
X43512393Y-74907519D01*
X43279959Y-75073114D01*
X43021288Y-75258108D01*
X42745208Y-75456151D01*
X42460543Y-75660894D01*
X42176119Y-75865988D01*
X41900761Y-76065083D01*
X41643294Y-76251832D01*
X41412546Y-76419884D01*
X41217340Y-76562890D01*
X41066502Y-76674503D01*
X40968858Y-76748372D01*
X40958209Y-76756699D01*
X40913515Y-76782620D01*
X40919188Y-76741935D01*
X40919619Y-76740753D01*
X40937794Y-76686432D01*
X40979770Y-76558377D01*
X41042608Y-76365630D01*
X41123372Y-76117231D01*
X41219121Y-75822222D01*
X41326919Y-75489643D01*
X41443827Y-75128536D01*
X41499144Y-74957534D01*
X41618900Y-74587402D01*
X41730600Y-74242489D01*
X41831351Y-73931700D01*
X41918264Y-73663938D01*
X41988447Y-73448106D01*
X42039009Y-73293107D01*
X42067059Y-73207846D01*
X42071622Y-73194454D01*
X42041108Y-73160268D01*
X41947012Y-73080791D01*
X41796428Y-72961443D01*
X41596449Y-72807641D01*
X41354171Y-72624806D01*
X41076687Y-72418354D01*
X40771092Y-72193706D01*
X40562660Y-72041886D01*
X39036824Y-70934418D01*
X40924071Y-70923093D01*
X42811319Y-70911767D01*
X43148183Y-69879257D01*
X43259855Y-69536296D01*
X43379800Y-69166766D01*
X43499803Y-68796048D01*
X43611654Y-68449523D01*
X43707137Y-68152572D01*
X43731650Y-68076052D01*
X43810483Y-67833334D01*
X43881406Y-67621852D01*
X43939899Y-67454529D01*
X43981444Y-67344288D01*
X44001523Y-67304052D01*
X44001569Y-67304048D01*
X44019527Y-67343731D01*
G37*
X44019527Y-67343731D02*
X44060990Y-67457538D01*
X44123012Y-67636722D01*
X44202651Y-67872538D01*
X44296963Y-68156241D01*
X44403004Y-68479086D01*
X44517831Y-68832328D01*
X44561107Y-68966353D01*
X44680311Y-69335237D01*
X44793189Y-69682747D01*
X44896525Y-69999118D01*
X44987105Y-70274586D01*
X45061716Y-70499387D01*
X45117142Y-70663757D01*
X45150170Y-70757931D01*
X45155156Y-70770855D01*
X45212982Y-70911744D01*
X47087975Y-70923081D01*
X48962969Y-70934418D01*
X47437445Y-72042429D01*
X47040871Y-72331620D01*
X46711857Y-72574191D01*
X46446535Y-72773172D01*
X46241039Y-72931589D01*
X46091500Y-73052471D01*
X45994050Y-73138845D01*
X45944824Y-73193738D01*
X45937451Y-73216745D01*
X45966263Y-73298033D01*
X46016266Y-73446161D01*
X46084127Y-73650794D01*
X46166514Y-73901595D01*
X46260094Y-74188227D01*
X46361534Y-74500353D01*
X46467502Y-74827638D01*
X46574665Y-75159745D01*
X46679689Y-75486337D01*
X46779243Y-75797078D01*
X46869994Y-76081631D01*
X46948609Y-76329660D01*
X47011755Y-76530829D01*
X47056100Y-76674801D01*
X47078310Y-76751239D01*
X47080165Y-76760888D01*
X47043271Y-76738587D01*
X46943435Y-76670072D01*
X46787898Y-76560521D01*
X46583903Y-76415109D01*
X46338692Y-76239012D01*
X46059506Y-76037406D01*
X45753588Y-75815467D01*
X45552864Y-75669335D01*
X45233003Y-75436757D01*
X44934510Y-75220860D01*
X44664766Y-75026899D01*
X44431151Y-74860128D01*
X44241045Y-74725801D01*
X44101829Y-74629174D01*
X44020884Y-74575500D01*
X44003264Y-74566096D01*
X43964027Y-74590609D01*
X43863253Y-74659917D01*
X43709766Y-74767670D01*
X43512393Y-74907519D01*
X43279959Y-75073114D01*
X43021288Y-75258108D01*
X42745208Y-75456151D01*
X42460543Y-75660894D01*
X42176119Y-75865988D01*
X41900761Y-76065083D01*
X41643294Y-76251832D01*
X41412546Y-76419884D01*
X41217340Y-76562890D01*
X41066502Y-76674503D01*
X40968858Y-76748372D01*
X40958209Y-76756699D01*
X40913515Y-76782620D01*
X40919188Y-76741935D01*
X40919619Y-76740753D01*
X40937794Y-76686432D01*
X40979770Y-76558377D01*
X41042608Y-76365630D01*
X41123372Y-76117231D01*
X41219121Y-75822222D01*
X41326919Y-75489643D01*
X41443827Y-75128536D01*
X41499144Y-74957534D01*
X41618900Y-74587402D01*
X41730600Y-74242489D01*
X41831351Y-73931700D01*
X41918264Y-73663938D01*
X41988447Y-73448106D01*
X42039009Y-73293107D01*
X42067059Y-73207846D01*
X42071622Y-73194454D01*
X42041108Y-73160268D01*
X41947012Y-73080791D01*
X41796428Y-72961443D01*
X41596449Y-72807641D01*
X41354171Y-72624806D01*
X41076687Y-72418354D01*
X40771092Y-72193706D01*
X40562660Y-72041886D01*
X39036824Y-70934418D01*
X40924071Y-70923093D01*
X42811319Y-70911767D01*
X43148183Y-69879257D01*
X43259855Y-69536296D01*
X43379800Y-69166766D01*
X43499803Y-68796048D01*
X43611654Y-68449523D01*
X43707137Y-68152572D01*
X43731650Y-68076052D01*
X43810483Y-67833334D01*
X43881406Y-67621852D01*
X43939899Y-67454529D01*
X43981444Y-67344288D01*
X44001523Y-67304052D01*
X44001569Y-67304048D01*
X44019527Y-67343731D01*
G36*
X69637500Y-50489338D02*
G01*
X68592666Y-50489338D01*
X68238578Y-50490443D01*
X67967337Y-50494171D01*
X67768430Y-50501140D01*
X67631341Y-50511969D01*
X67545557Y-50527278D01*
X67500563Y-50547684D01*
X67494178Y-50553987D01*
X67470832Y-50627746D01*
X67456459Y-50784157D01*
X67450874Y-51026745D01*
X67453442Y-51334746D01*
X67458781Y-51607334D01*
X67465032Y-51801462D01*
X67474688Y-51932039D01*
X67490243Y-52013974D01*
X67514191Y-52062178D01*
X67549025Y-52091557D01*
X67583088Y-52109850D01*
X67664501Y-52132536D01*
X67811766Y-52149458D01*
X68031951Y-52161007D01*
X68332122Y-52167571D01*
X68668658Y-52169532D01*
X69637500Y-52170221D01*
X69637500Y-52497059D01*
X68598621Y-52495009D01*
X68217066Y-52492458D01*
X67918158Y-52486091D01*
X67691219Y-52475312D01*
X67525568Y-52459526D01*
X67410527Y-52438140D01*
X67372978Y-52426727D01*
X67196892Y-52340133D01*
X67083704Y-52217018D01*
X67017901Y-52036080D01*
X66997074Y-51910587D01*
X66986045Y-51760947D01*
X66981376Y-51557618D01*
X66982377Y-51322280D01*
X66988362Y-51076613D01*
X66998640Y-50842298D01*
X67012522Y-50641016D01*
X67029320Y-50494446D01*
X67044060Y-50431919D01*
X67104071Y-50357370D01*
X67211401Y-50270078D01*
X67249210Y-50245154D01*
X67307461Y-50211542D01*
X67368996Y-50185622D01*
X67446680Y-50166162D01*
X67553380Y-50151930D01*
X67701963Y-50141694D01*
X67905294Y-50134222D01*
X68176241Y-50128281D01*
X68527669Y-50122639D01*
X68528584Y-50122626D01*
X69637500Y-50106097D01*
X69637500Y-50489338D01*
G37*
X69637500Y-50489338D02*
X68592666Y-50489338D01*
X68238578Y-50490443D01*
X67967337Y-50494171D01*
X67768430Y-50501140D01*
X67631341Y-50511969D01*
X67545557Y-50527278D01*
X67500563Y-50547684D01*
X67494178Y-50553987D01*
X67470832Y-50627746D01*
X67456459Y-50784157D01*
X67450874Y-51026745D01*
X67453442Y-51334746D01*
X67458781Y-51607334D01*
X67465032Y-51801462D01*
X67474688Y-51932039D01*
X67490243Y-52013974D01*
X67514191Y-52062178D01*
X67549025Y-52091557D01*
X67583088Y-52109850D01*
X67664501Y-52132536D01*
X67811766Y-52149458D01*
X68031951Y-52161007D01*
X68332122Y-52167571D01*
X68668658Y-52169532D01*
X69637500Y-52170221D01*
X69637500Y-52497059D01*
X68598621Y-52495009D01*
X68217066Y-52492458D01*
X67918158Y-52486091D01*
X67691219Y-52475312D01*
X67525568Y-52459526D01*
X67410527Y-52438140D01*
X67372978Y-52426727D01*
X67196892Y-52340133D01*
X67083704Y-52217018D01*
X67017901Y-52036080D01*
X66997074Y-51910587D01*
X66986045Y-51760947D01*
X66981376Y-51557618D01*
X66982377Y-51322280D01*
X66988362Y-51076613D01*
X66998640Y-50842298D01*
X67012522Y-50641016D01*
X67029320Y-50494446D01*
X67044060Y-50431919D01*
X67104071Y-50357370D01*
X67211401Y-50270078D01*
X67249210Y-50245154D01*
X67307461Y-50211542D01*
X67368996Y-50185622D01*
X67446680Y-50166162D01*
X67553380Y-50151930D01*
X67701963Y-50141694D01*
X67905294Y-50134222D01*
X68176241Y-50128281D01*
X68527669Y-50122639D01*
X68528584Y-50122626D01*
X69637500Y-50106097D01*
X69637500Y-50489338D01*
G36*
X70477941Y-52497059D02*
G01*
X69964338Y-52497059D01*
X69964338Y-52076838D01*
X70477941Y-52076838D01*
X70477941Y-52497059D01*
G37*
X70477941Y-52497059D02*
X69964338Y-52497059D01*
X69964338Y-52076838D01*
X70477941Y-52076838D01*
X70477941Y-52497059D01*
G36*
X72556232Y-50143667D02*
G01*
X72636989Y-50197518D01*
X72680756Y-50256796D01*
X72768264Y-50383469D01*
X72892243Y-50566716D01*
X73045421Y-50795715D01*
X73220529Y-51059643D01*
X73410295Y-51347678D01*
X73436853Y-51388143D01*
X74164299Y-52497059D01*
X73676287Y-52496877D01*
X73077174Y-51563144D01*
X72907867Y-51301246D01*
X72754490Y-51067739D01*
X72624365Y-50873466D01*
X72524816Y-50729272D01*
X72463164Y-50646001D01*
X72446843Y-50629681D01*
X72413773Y-50667266D01*
X72337667Y-50772662D01*
X72225890Y-50935067D01*
X72085806Y-51143678D01*
X71924779Y-51387693D01*
X71810208Y-51563505D01*
X71204791Y-52497059D01*
X70710498Y-52497059D01*
X71505147Y-51306434D01*
X71730887Y-50969095D01*
X71911665Y-50701792D01*
X72053743Y-50496482D01*
X72163383Y-50345124D01*
X72246848Y-50239674D01*
X72310399Y-50172089D01*
X72360299Y-50134327D01*
X72402810Y-50118345D01*
X72432183Y-50115809D01*
X72556232Y-50143667D01*
G37*
X72556232Y-50143667D02*
X72636989Y-50197518D01*
X72680756Y-50256796D01*
X72768264Y-50383469D01*
X72892243Y-50566716D01*
X73045421Y-50795715D01*
X73220529Y-51059643D01*
X73410295Y-51347678D01*
X73436853Y-51388143D01*
X74164299Y-52497059D01*
X73676287Y-52496877D01*
X73077174Y-51563144D01*
X72907867Y-51301246D01*
X72754490Y-51067739D01*
X72624365Y-50873466D01*
X72524816Y-50729272D01*
X72463164Y-50646001D01*
X72446843Y-50629681D01*
X72413773Y-50667266D01*
X72337667Y-50772662D01*
X72225890Y-50935067D01*
X72085806Y-51143678D01*
X71924779Y-51387693D01*
X71810208Y-51563505D01*
X71204791Y-52497059D01*
X70710498Y-52497059D01*
X71505147Y-51306434D01*
X71730887Y-50969095D01*
X71911665Y-50701792D01*
X72053743Y-50496482D01*
X72163383Y-50345124D01*
X72246848Y-50239674D01*
X72310399Y-50172089D01*
X72360299Y-50134327D01*
X72402810Y-50118345D01*
X72432183Y-50115809D01*
X72556232Y-50143667D01*
G36*
X74913603Y-52497059D02*
G01*
X74400000Y-52497059D01*
X74400000Y-52076838D01*
X74913603Y-52076838D01*
X74913603Y-52497059D01*
G37*
X74913603Y-52497059D02*
X74400000Y-52497059D01*
X74400000Y-52076838D01*
X74913603Y-52076838D01*
X74913603Y-52497059D01*
G36*
X77995221Y-50489338D02*
G01*
X76924659Y-50489338D01*
X76573220Y-50490151D01*
X76303594Y-50493085D01*
X76104219Y-50498881D01*
X75963535Y-50508280D01*
X75869981Y-50522025D01*
X75811997Y-50540856D01*
X75780725Y-50562710D01*
X75718659Y-50683869D01*
X75715340Y-50839284D01*
X75755687Y-50959320D01*
X75779599Y-50992523D01*
X75819568Y-51016444D01*
X75889511Y-51032590D01*
X76003346Y-51042469D01*
X76174989Y-51047586D01*
X76418358Y-51049449D01*
X76589755Y-51049632D01*
X76978540Y-51052836D01*
X77286088Y-51063764D01*
X77524368Y-51084392D01*
X77705350Y-51116697D01*
X77841001Y-51162654D01*
X77943291Y-51224240D01*
X78006893Y-51283601D01*
X78076427Y-51370684D01*
X78115228Y-51459991D01*
X78131955Y-51582874D01*
X78135294Y-51748540D01*
X78121951Y-52002697D01*
X78077215Y-52184662D01*
X77994027Y-52312400D01*
X77881075Y-52395505D01*
X77824057Y-52420154D01*
X77745639Y-52439620D01*
X77634250Y-52454699D01*
X77478321Y-52466190D01*
X77266284Y-52474891D01*
X76986569Y-52481600D01*
X76627606Y-52487115D01*
X76536121Y-52488256D01*
X75333823Y-52502798D01*
X75333823Y-52170221D01*
X76396048Y-52169532D01*
X76776117Y-52168497D01*
X77073239Y-52164152D01*
X77297847Y-52153809D01*
X77460375Y-52134782D01*
X77571255Y-52104384D01*
X77640920Y-52059927D01*
X77679804Y-51998724D01*
X77698339Y-51918089D01*
X77705894Y-51832186D01*
X77712923Y-51691091D01*
X77705192Y-51586867D01*
X77670781Y-51513929D01*
X77597768Y-51466694D01*
X77474232Y-51439577D01*
X77288254Y-51426996D01*
X77027912Y-51423366D01*
X76832671Y-51423162D01*
X76443887Y-51419958D01*
X76136338Y-51409030D01*
X75898058Y-51388402D01*
X75717077Y-51356097D01*
X75581425Y-51310140D01*
X75479136Y-51248554D01*
X75415533Y-51189193D01*
X75340317Y-51092116D01*
X75301542Y-50989925D01*
X75287997Y-50845975D01*
X75287132Y-50769485D01*
X75293850Y-50598658D01*
X75321489Y-50483911D01*
X75381279Y-50388445D01*
X75415533Y-50348719D01*
X75491212Y-50280539D01*
X75588430Y-50226622D01*
X75718018Y-50185426D01*
X75890807Y-50155409D01*
X76117626Y-50135030D01*
X76409306Y-50122746D01*
X76776676Y-50117017D01*
X77049724Y-50116079D01*
X77995221Y-50115809D01*
X77995221Y-50489338D01*
G37*
X77995221Y-50489338D02*
X76924659Y-50489338D01*
X76573220Y-50490151D01*
X76303594Y-50493085D01*
X76104219Y-50498881D01*
X75963535Y-50508280D01*
X75869981Y-50522025D01*
X75811997Y-50540856D01*
X75780725Y-50562710D01*
X75718659Y-50683869D01*
X75715340Y-50839284D01*
X75755687Y-50959320D01*
X75779599Y-50992523D01*
X75819568Y-51016444D01*
X75889511Y-51032590D01*
X76003346Y-51042469D01*
X76174989Y-51047586D01*
X76418358Y-51049449D01*
X76589755Y-51049632D01*
X76978540Y-51052836D01*
X77286088Y-51063764D01*
X77524368Y-51084392D01*
X77705350Y-51116697D01*
X77841001Y-51162654D01*
X77943291Y-51224240D01*
X78006893Y-51283601D01*
X78076427Y-51370684D01*
X78115228Y-51459991D01*
X78131955Y-51582874D01*
X78135294Y-51748540D01*
X78121951Y-52002697D01*
X78077215Y-52184662D01*
X77994027Y-52312400D01*
X77881075Y-52395505D01*
X77824057Y-52420154D01*
X77745639Y-52439620D01*
X77634250Y-52454699D01*
X77478321Y-52466190D01*
X77266284Y-52474891D01*
X76986569Y-52481600D01*
X76627606Y-52487115D01*
X76536121Y-52488256D01*
X75333823Y-52502798D01*
X75333823Y-52170221D01*
X76396048Y-52169532D01*
X76776117Y-52168497D01*
X77073239Y-52164152D01*
X77297847Y-52153809D01*
X77460375Y-52134782D01*
X77571255Y-52104384D01*
X77640920Y-52059927D01*
X77679804Y-51998724D01*
X77698339Y-51918089D01*
X77705894Y-51832186D01*
X77712923Y-51691091D01*
X77705192Y-51586867D01*
X77670781Y-51513929D01*
X77597768Y-51466694D01*
X77474232Y-51439577D01*
X77288254Y-51426996D01*
X77027912Y-51423366D01*
X76832671Y-51423162D01*
X76443887Y-51419958D01*
X76136338Y-51409030D01*
X75898058Y-51388402D01*
X75717077Y-51356097D01*
X75581425Y-51310140D01*
X75479136Y-51248554D01*
X75415533Y-51189193D01*
X75340317Y-51092116D01*
X75301542Y-50989925D01*
X75287997Y-50845975D01*
X75287132Y-50769485D01*
X75293850Y-50598658D01*
X75321489Y-50483911D01*
X75381279Y-50388445D01*
X75415533Y-50348719D01*
X75491212Y-50280539D01*
X75588430Y-50226622D01*
X75718018Y-50185426D01*
X75890807Y-50155409D01*
X76117626Y-50135030D01*
X76409306Y-50122746D01*
X76776676Y-50117017D01*
X77049724Y-50116079D01*
X77995221Y-50115809D01*
X77995221Y-50489338D01*
G36*
X78929044Y-52497059D02*
G01*
X78415441Y-52497059D01*
X78415441Y-52076838D01*
X78929044Y-52076838D01*
X78929044Y-52497059D01*
G37*
X78929044Y-52497059D02*
X78415441Y-52497059D01*
X78415441Y-52076838D01*
X78929044Y-52076838D01*
X78929044Y-52497059D01*
G36*
X80598254Y-50126693D02*
G01*
X81800551Y-50139154D01*
X81815043Y-50314246D01*
X81829534Y-50489338D01*
X79811720Y-50489338D01*
X79839522Y-51072978D01*
X80787904Y-51085627D01*
X81736286Y-51098275D01*
X81721727Y-51249046D01*
X81707169Y-51399816D01*
X80761673Y-51412456D01*
X79816176Y-51425095D01*
X79816176Y-52170221D01*
X81823897Y-52170221D01*
X81823897Y-52497059D01*
X79395956Y-52497059D01*
X79395956Y-50114232D01*
X80598254Y-50126693D01*
G37*
X80598254Y-50126693D02*
X81800551Y-50139154D01*
X81815043Y-50314246D01*
X81829534Y-50489338D01*
X79811720Y-50489338D01*
X79839522Y-51072978D01*
X80787904Y-51085627D01*
X81736286Y-51098275D01*
X81721727Y-51249046D01*
X81707169Y-51399816D01*
X80761673Y-51412456D01*
X79816176Y-51425095D01*
X79816176Y-52170221D01*
X81823897Y-52170221D01*
X81823897Y-52497059D01*
X79395956Y-52497059D01*
X79395956Y-50114232D01*
X80598254Y-50126693D01*
G36*
X74586765Y-38606434D02*
G01*
X74588369Y-38813135D01*
X74595446Y-38943652D01*
X74611390Y-39015161D01*
X74639595Y-39044836D01*
X74674430Y-39050000D01*
X74769752Y-39076023D01*
X74835699Y-39163506D01*
X74881602Y-39326573D01*
X74890400Y-39376838D01*
X74946804Y-39619411D01*
X75025369Y-39771788D01*
X75130200Y-39835391D01*
X75265402Y-39811645D01*
X75435083Y-39701972D01*
X75546037Y-39604176D01*
X75799351Y-39364601D01*
X76045172Y-39514329D01*
X76203980Y-39615460D01*
X76351357Y-39716553D01*
X76424836Y-39771669D01*
X76558678Y-39879282D01*
X76459854Y-40143415D01*
X76383685Y-40383466D01*
X76364829Y-40554140D01*
X76406789Y-40662379D01*
X76513064Y-40715124D01*
X76687157Y-40719316D01*
X76747105Y-40712915D01*
X76959003Y-40685881D01*
X77099969Y-40675902D01*
X77192195Y-40693125D01*
X77257875Y-40747696D01*
X77319204Y-40849763D01*
X77398374Y-41009473D01*
X77399149Y-41011029D01*
X77479960Y-41181887D01*
X77541083Y-41327347D01*
X77572261Y-41422441D01*
X77574241Y-41437313D01*
X77539511Y-41502114D01*
X77447717Y-41598958D01*
X77318702Y-41706919D01*
X77318198Y-41707300D01*
X77173455Y-41825039D01*
X77093755Y-41915960D01*
X77063327Y-42000036D01*
X77061397Y-42032511D01*
X77079916Y-42139229D01*
X77145062Y-42227946D01*
X77271215Y-42311198D01*
X77472756Y-42401517D01*
X77494920Y-42410356D01*
X77765025Y-42517316D01*
X77734018Y-42791379D01*
X77703012Y-43065441D01*
X77995221Y-43065441D01*
X77995221Y-49088603D01*
X77621691Y-49088603D01*
X77621691Y-43392279D01*
X74213235Y-43392279D01*
X74213235Y-43065441D01*
X74586765Y-43065441D01*
X75071305Y-43065441D01*
X75301688Y-43062604D01*
X75456329Y-43052477D01*
X75552741Y-43032636D01*
X75608436Y-43000658D01*
X75618724Y-42989677D01*
X75658925Y-42892615D01*
X75686541Y-42731398D01*
X75700189Y-42534580D01*
X75698485Y-42330715D01*
X75680048Y-42148355D01*
X75663213Y-42070879D01*
X75540346Y-41792272D01*
X75344337Y-41537610D01*
X75095336Y-41326746D01*
X74813494Y-41179532D01*
X74730773Y-41152231D01*
X74586765Y-41110930D01*
X74586765Y-43065441D01*
X74213235Y-43065441D01*
X74213235Y-38536397D01*
X73940557Y-38536397D01*
X73490288Y-38580011D01*
X73037193Y-38704897D01*
X72602590Y-38902120D01*
X72207799Y-39162744D01*
X71991251Y-39353361D01*
X71791882Y-39568733D01*
X71630954Y-39789189D01*
X71503616Y-40028836D01*
X71405014Y-40301779D01*
X71330296Y-40622122D01*
X71274611Y-41003972D01*
X71233106Y-41461432D01*
X71224906Y-41581103D01*
X71195210Y-41984451D01*
X71160730Y-42315761D01*
X71116085Y-42596375D01*
X71055893Y-42847638D01*
X70974775Y-43090890D01*
X70867348Y-43347475D01*
X70728232Y-43638736D01*
X70683647Y-43727864D01*
X70606268Y-43892511D01*
X70549699Y-44033836D01*
X70524943Y-44124009D01*
X70524632Y-44130034D01*
X70567170Y-44238546D01*
X70696163Y-44364335D01*
X70913676Y-44509344D01*
X70952527Y-44531989D01*
X71109983Y-44636045D01*
X71220802Y-44750412D01*
X71297493Y-44897201D01*
X71352568Y-45098520D01*
X71387542Y-45300778D01*
X71439472Y-45608813D01*
X71494463Y-45843736D01*
X71559673Y-46025726D01*
X71642265Y-46174965D01*
X71744103Y-46305645D01*
X71974277Y-46502655D01*
X72286507Y-46663274D01*
X72682003Y-46787906D01*
X73161975Y-46876953D01*
X73594577Y-46921876D01*
X74026471Y-46954207D01*
X74026471Y-49088603D01*
X73654957Y-49088603D01*
X73642276Y-48191450D01*
X73629596Y-47294298D01*
X73209375Y-47242068D01*
X72760650Y-47174032D01*
X72389954Y-47088821D01*
X72082690Y-46981101D01*
X71824258Y-46845539D01*
X71600061Y-46676802D01*
X71558276Y-46638820D01*
X71362868Y-46417530D01*
X71220628Y-46161209D01*
X71121690Y-45849008D01*
X71079011Y-45626226D01*
X71037256Y-45366551D01*
X71000877Y-45180968D01*
X70960631Y-45051337D01*
X70907272Y-44959520D01*
X70831556Y-44887378D01*
X70724238Y-44816772D01*
X70641656Y-44768080D01*
X70459404Y-44650715D01*
X70339131Y-44541847D01*
X70255342Y-44417282D01*
X70240042Y-44386960D01*
X70189151Y-44262793D01*
X70167485Y-44144456D01*
X70178454Y-44014301D01*
X70225466Y-43854679D01*
X70311929Y-43647942D01*
X70431286Y-43396792D01*
X70558581Y-43127505D01*
X70654211Y-42897066D01*
X70724032Y-42681586D01*
X70773900Y-42457177D01*
X70809672Y-42199949D01*
X70837203Y-41886014D01*
X70850585Y-41686429D01*
X70878593Y-41287931D01*
X70909008Y-40963633D01*
X70944711Y-40694352D01*
X70988584Y-40460908D01*
X71043509Y-40244119D01*
X71090188Y-40091659D01*
X71273944Y-39673239D01*
X71535847Y-39294865D01*
X71867353Y-38961874D01*
X72259918Y-38679600D01*
X72704998Y-38453378D01*
X73194049Y-38288543D01*
X73718528Y-38190429D01*
X74178217Y-38163481D01*
X74586765Y-38162868D01*
X74586765Y-38606434D01*
G37*
X74586765Y-38606434D02*
X74588369Y-38813135D01*
X74595446Y-38943652D01*
X74611390Y-39015161D01*
X74639595Y-39044836D01*
X74674430Y-39050000D01*
X74769752Y-39076023D01*
X74835699Y-39163506D01*
X74881602Y-39326573D01*
X74890400Y-39376838D01*
X74946804Y-39619411D01*
X75025369Y-39771788D01*
X75130200Y-39835391D01*
X75265402Y-39811645D01*
X75435083Y-39701972D01*
X75546037Y-39604176D01*
X75799351Y-39364601D01*
X76045172Y-39514329D01*
X76203980Y-39615460D01*
X76351357Y-39716553D01*
X76424836Y-39771669D01*
X76558678Y-39879282D01*
X76459854Y-40143415D01*
X76383685Y-40383466D01*
X76364829Y-40554140D01*
X76406789Y-40662379D01*
X76513064Y-40715124D01*
X76687157Y-40719316D01*
X76747105Y-40712915D01*
X76959003Y-40685881D01*
X77099969Y-40675902D01*
X77192195Y-40693125D01*
X77257875Y-40747696D01*
X77319204Y-40849763D01*
X77398374Y-41009473D01*
X77399149Y-41011029D01*
X77479960Y-41181887D01*
X77541083Y-41327347D01*
X77572261Y-41422441D01*
X77574241Y-41437313D01*
X77539511Y-41502114D01*
X77447717Y-41598958D01*
X77318702Y-41706919D01*
X77318198Y-41707300D01*
X77173455Y-41825039D01*
X77093755Y-41915960D01*
X77063327Y-42000036D01*
X77061397Y-42032511D01*
X77079916Y-42139229D01*
X77145062Y-42227946D01*
X77271215Y-42311198D01*
X77472756Y-42401517D01*
X77494920Y-42410356D01*
X77765025Y-42517316D01*
X77734018Y-42791379D01*
X77703012Y-43065441D01*
X77995221Y-43065441D01*
X77995221Y-49088603D01*
X77621691Y-49088603D01*
X77621691Y-43392279D01*
X74213235Y-43392279D01*
X74213235Y-43065441D01*
X74586765Y-43065441D01*
X75071305Y-43065441D01*
X75301688Y-43062604D01*
X75456329Y-43052477D01*
X75552741Y-43032636D01*
X75608436Y-43000658D01*
X75618724Y-42989677D01*
X75658925Y-42892615D01*
X75686541Y-42731398D01*
X75700189Y-42534580D01*
X75698485Y-42330715D01*
X75680048Y-42148355D01*
X75663213Y-42070879D01*
X75540346Y-41792272D01*
X75344337Y-41537610D01*
X75095336Y-41326746D01*
X74813494Y-41179532D01*
X74730773Y-41152231D01*
X74586765Y-41110930D01*
X74586765Y-43065441D01*
X74213235Y-43065441D01*
X74213235Y-38536397D01*
X73940557Y-38536397D01*
X73490288Y-38580011D01*
X73037193Y-38704897D01*
X72602590Y-38902120D01*
X72207799Y-39162744D01*
X71991251Y-39353361D01*
X71791882Y-39568733D01*
X71630954Y-39789189D01*
X71503616Y-40028836D01*
X71405014Y-40301779D01*
X71330296Y-40622122D01*
X71274611Y-41003972D01*
X71233106Y-41461432D01*
X71224906Y-41581103D01*
X71195210Y-41984451D01*
X71160730Y-42315761D01*
X71116085Y-42596375D01*
X71055893Y-42847638D01*
X70974775Y-43090890D01*
X70867348Y-43347475D01*
X70728232Y-43638736D01*
X70683647Y-43727864D01*
X70606268Y-43892511D01*
X70549699Y-44033836D01*
X70524943Y-44124009D01*
X70524632Y-44130034D01*
X70567170Y-44238546D01*
X70696163Y-44364335D01*
X70913676Y-44509344D01*
X70952527Y-44531989D01*
X71109983Y-44636045D01*
X71220802Y-44750412D01*
X71297493Y-44897201D01*
X71352568Y-45098520D01*
X71387542Y-45300778D01*
X71439472Y-45608813D01*
X71494463Y-45843736D01*
X71559673Y-46025726D01*
X71642265Y-46174965D01*
X71744103Y-46305645D01*
X71974277Y-46502655D01*
X72286507Y-46663274D01*
X72682003Y-46787906D01*
X73161975Y-46876953D01*
X73594577Y-46921876D01*
X74026471Y-46954207D01*
X74026471Y-49088603D01*
X73654957Y-49088603D01*
X73642276Y-48191450D01*
X73629596Y-47294298D01*
X73209375Y-47242068D01*
X72760650Y-47174032D01*
X72389954Y-47088821D01*
X72082690Y-46981101D01*
X71824258Y-46845539D01*
X71600061Y-46676802D01*
X71558276Y-46638820D01*
X71362868Y-46417530D01*
X71220628Y-46161209D01*
X71121690Y-45849008D01*
X71079011Y-45626226D01*
X71037256Y-45366551D01*
X71000877Y-45180968D01*
X70960631Y-45051337D01*
X70907272Y-44959520D01*
X70831556Y-44887378D01*
X70724238Y-44816772D01*
X70641656Y-44768080D01*
X70459404Y-44650715D01*
X70339131Y-44541847D01*
X70255342Y-44417282D01*
X70240042Y-44386960D01*
X70189151Y-44262793D01*
X70167485Y-44144456D01*
X70178454Y-44014301D01*
X70225466Y-43854679D01*
X70311929Y-43647942D01*
X70431286Y-43396792D01*
X70558581Y-43127505D01*
X70654211Y-42897066D01*
X70724032Y-42681586D01*
X70773900Y-42457177D01*
X70809672Y-42199949D01*
X70837203Y-41886014D01*
X70850585Y-41686429D01*
X70878593Y-41287931D01*
X70909008Y-40963633D01*
X70944711Y-40694352D01*
X70988584Y-40460908D01*
X71043509Y-40244119D01*
X71090188Y-40091659D01*
X71273944Y-39673239D01*
X71535847Y-39294865D01*
X71867353Y-38961874D01*
X72259918Y-38679600D01*
X72704998Y-38453378D01*
X73194049Y-38288543D01*
X73718528Y-38190429D01*
X74178217Y-38163481D01*
X74586765Y-38162868D01*
X74586765Y-38606434D01*
%TD*%
D13*
%TO.C,J1*%
X44320000Y-115800000D03*
X44320000Y-102800000D03*
%TD*%
D14*
%TO.C,J2*%
X112237500Y-114000000D03*
D15*
X109537500Y-117500000D03*
D16*
X109537500Y-115650000D03*
X109537500Y-116300000D03*
X109537500Y-113700000D03*
X109537500Y-114350000D03*
X109537500Y-115000000D03*
D15*
X109537500Y-112500000D03*
D14*
X112237500Y-116000000D03*
D17*
X112237500Y-118500000D03*
X112237500Y-111500000D03*
D18*
X112237500Y-112100000D03*
X112237500Y-117900000D03*
%TD*%
D19*
%TO.C,D1*%
X67400000Y-113750000D03*
X64100000Y-113750000D03*
%TD*%
%TO.C,D2*%
X88400000Y-114000000D03*
X85100000Y-114000000D03*
%TD*%
%TO.C,D3*%
G36*
G01*
X72100000Y-97228262D02*
X72100000Y-96271738D01*
G75*
G02*
X72371738Y-96000000I271738J0D01*
G01*
X73078262Y-96000000D01*
G75*
G02*
X73350000Y-96271738I0J-271738D01*
G01*
X73350000Y-97228262D01*
G75*
G02*
X73078262Y-97500000I-271738J0D01*
G01*
X72371738Y-97500000D01*
G75*
G02*
X72100000Y-97228262I0J271738D01*
G01*
G37*
G36*
G01*
X74150000Y-97228262D02*
X74150000Y-96271738D01*
G75*
G02*
X74421738Y-96000000I271738J0D01*
G01*
X75128262Y-96000000D01*
G75*
G02*
X75400000Y-96271738I0J-271738D01*
G01*
X75400000Y-97228262D01*
G75*
G02*
X75128262Y-97500000I-271738J0D01*
G01*
X74421738Y-97500000D01*
G75*
G02*
X74150000Y-97228262I0J271738D01*
G01*
G37*
%TD*%
%TO.C,D4*%
G36*
G01*
X62175000Y-88728262D02*
X62175000Y-87771738D01*
G75*
G02*
X62446738Y-87500000I271738J0D01*
G01*
X63153262Y-87500000D01*
G75*
G02*
X63425000Y-87771738I0J-271738D01*
G01*
X63425000Y-88728262D01*
G75*
G02*
X63153262Y-89000000I-271738J0D01*
G01*
X62446738Y-89000000D01*
G75*
G02*
X62175000Y-88728262I0J271738D01*
G01*
G37*
G36*
G01*
X60125000Y-88728262D02*
X60125000Y-87771738D01*
G75*
G02*
X60396738Y-87500000I271738J0D01*
G01*
X61103262Y-87500000D01*
G75*
G02*
X61375000Y-87771738I0J-271738D01*
G01*
X61375000Y-88728262D01*
G75*
G02*
X61103262Y-89000000I-271738J0D01*
G01*
X60396738Y-89000000D01*
G75*
G02*
X60125000Y-88728262I0J271738D01*
G01*
G37*
%TD*%
%TO.C,D5*%
G36*
G01*
X72375000Y-84978262D02*
X72375000Y-84021738D01*
G75*
G02*
X72646738Y-83750000I271738J0D01*
G01*
X73353262Y-83750000D01*
G75*
G02*
X73625000Y-84021738I0J-271738D01*
G01*
X73625000Y-84978262D01*
G75*
G02*
X73353262Y-85250000I-271738J0D01*
G01*
X72646738Y-85250000D01*
G75*
G02*
X72375000Y-84978262I0J271738D01*
G01*
G37*
G36*
G01*
X74425000Y-84978262D02*
X74425000Y-84021738D01*
G75*
G02*
X74696738Y-83750000I271738J0D01*
G01*
X75403262Y-83750000D01*
G75*
G02*
X75675000Y-84021738I0J-271738D01*
G01*
X75675000Y-84978262D01*
G75*
G02*
X75403262Y-85250000I-271738J0D01*
G01*
X74696738Y-85250000D01*
G75*
G02*
X74425000Y-84978262I0J271738D01*
G01*
G37*
%TD*%
%TO.C,D6*%
G36*
G01*
X85125000Y-105978262D02*
X85125000Y-105021738D01*
G75*
G02*
X85396738Y-104750000I271738J0D01*
G01*
X86103262Y-104750000D01*
G75*
G02*
X86375000Y-105021738I0J-271738D01*
G01*
X86375000Y-105978262D01*
G75*
G02*
X86103262Y-106250000I-271738J0D01*
G01*
X85396738Y-106250000D01*
G75*
G02*
X85125000Y-105978262I0J271738D01*
G01*
G37*
G36*
G01*
X83075000Y-105978262D02*
X83075000Y-105021738D01*
G75*
G02*
X83346738Y-104750000I271738J0D01*
G01*
X84053262Y-104750000D01*
G75*
G02*
X84325000Y-105021738I0J-271738D01*
G01*
X84325000Y-105978262D01*
G75*
G02*
X84053262Y-106250000I-271738J0D01*
G01*
X83346738Y-106250000D01*
G75*
G02*
X83075000Y-105978262I0J271738D01*
G01*
G37*
%TD*%
%TO.C,D7*%
G36*
G01*
X72125000Y-111228262D02*
X72125000Y-110271738D01*
G75*
G02*
X72396738Y-110000000I271738J0D01*
G01*
X73103262Y-110000000D01*
G75*
G02*
X73375000Y-110271738I0J-271738D01*
G01*
X73375000Y-111228262D01*
G75*
G02*
X73103262Y-111500000I-271738J0D01*
G01*
X72396738Y-111500000D01*
G75*
G02*
X72125000Y-111228262I0J271738D01*
G01*
G37*
G36*
G01*
X74175000Y-111228262D02*
X74175000Y-110271738D01*
G75*
G02*
X74446738Y-110000000I271738J0D01*
G01*
X75153262Y-110000000D01*
G75*
G02*
X75425000Y-110271738I0J-271738D01*
G01*
X75425000Y-111228262D01*
G75*
G02*
X75153262Y-111500000I-271738J0D01*
G01*
X74446738Y-111500000D01*
G75*
G02*
X74175000Y-111228262I0J271738D01*
G01*
G37*
%TD*%
%TO.C,D8*%
G36*
G01*
X74400000Y-71978262D02*
X74400000Y-71021738D01*
G75*
G02*
X74671738Y-70750000I271738J0D01*
G01*
X75378262Y-70750000D01*
G75*
G02*
X75650000Y-71021738I0J-271738D01*
G01*
X75650000Y-71978262D01*
G75*
G02*
X75378262Y-72250000I-271738J0D01*
G01*
X74671738Y-72250000D01*
G75*
G02*
X74400000Y-71978262I0J271738D01*
G01*
G37*
G36*
G01*
X72350000Y-71978262D02*
X72350000Y-71021738D01*
G75*
G02*
X72621738Y-70750000I271738J0D01*
G01*
X73328262Y-70750000D01*
G75*
G02*
X73600000Y-71021738I0J-271738D01*
G01*
X73600000Y-71978262D01*
G75*
G02*
X73328262Y-72250000I-271738J0D01*
G01*
X72621738Y-72250000D01*
G75*
G02*
X72350000Y-71978262I0J271738D01*
G01*
G37*
%TD*%
%TO.C,D9*%
G36*
G01*
X61350000Y-106228262D02*
X61350000Y-105271738D01*
G75*
G02*
X61621738Y-105000000I271738J0D01*
G01*
X62328262Y-105000000D01*
G75*
G02*
X62600000Y-105271738I0J-271738D01*
G01*
X62600000Y-106228262D01*
G75*
G02*
X62328262Y-106500000I-271738J0D01*
G01*
X61621738Y-106500000D01*
G75*
G02*
X61350000Y-106228262I0J271738D01*
G01*
G37*
G36*
G01*
X63400000Y-106228262D02*
X63400000Y-105271738D01*
G75*
G02*
X63671738Y-105000000I271738J0D01*
G01*
X64378262Y-105000000D01*
G75*
G02*
X64650000Y-105271738I0J-271738D01*
G01*
X64650000Y-106228262D01*
G75*
G02*
X64378262Y-106500000I-271738J0D01*
G01*
X63671738Y-106500000D01*
G75*
G02*
X63400000Y-106228262I0J271738D01*
G01*
G37*
%TD*%
%TO.C,D10*%
G36*
G01*
X86900000Y-88728262D02*
X86900000Y-87771738D01*
G75*
G02*
X87171738Y-87500000I271738J0D01*
G01*
X87878262Y-87500000D01*
G75*
G02*
X88150000Y-87771738I0J-271738D01*
G01*
X88150000Y-88728262D01*
G75*
G02*
X87878262Y-89000000I-271738J0D01*
G01*
X87171738Y-89000000D01*
G75*
G02*
X86900000Y-88728262I0J271738D01*
G01*
G37*
G36*
G01*
X84850000Y-88728262D02*
X84850000Y-87771738D01*
G75*
G02*
X85121738Y-87500000I271738J0D01*
G01*
X85828262Y-87500000D01*
G75*
G02*
X86100000Y-87771738I0J-271738D01*
G01*
X86100000Y-88728262D01*
G75*
G02*
X85828262Y-89000000I-271738J0D01*
G01*
X85121738Y-89000000D01*
G75*
G02*
X84850000Y-88728262I0J271738D01*
G01*
G37*
%TD*%
%TO.C,R1*%
G36*
G01*
X60900000Y-113271738D02*
X60900000Y-114228262D01*
G75*
G02*
X60628262Y-114500000I-271738J0D01*
G01*
X59921738Y-114500000D01*
G75*
G02*
X59650000Y-114228262I0J271738D01*
G01*
X59650000Y-113271738D01*
G75*
G02*
X59921738Y-113000000I271738J0D01*
G01*
X60628262Y-113000000D01*
G75*
G02*
X60900000Y-113271738I0J-271738D01*
G01*
G37*
G36*
G01*
X58850000Y-113271738D02*
X58850000Y-114228262D01*
G75*
G02*
X58578262Y-114500000I-271738J0D01*
G01*
X57871738Y-114500000D01*
G75*
G02*
X57600000Y-114228262I0J271738D01*
G01*
X57600000Y-113271738D01*
G75*
G02*
X57871738Y-113000000I271738J0D01*
G01*
X58578262Y-113000000D01*
G75*
G02*
X58850000Y-113271738I0J-271738D01*
G01*
G37*
%TD*%
%TO.C,R2*%
G36*
G01*
X91187500Y-111708608D02*
X91187500Y-108791392D01*
G75*
G02*
X91453892Y-108525000I266392J0D01*
G01*
X92546108Y-108525000D01*
G75*
G02*
X92812500Y-108791392I0J-266392D01*
G01*
X92812500Y-111708608D01*
G75*
G02*
X92546108Y-111975000I-266392J0D01*
G01*
X91453892Y-111975000D01*
G75*
G02*
X91187500Y-111708608I0J266392D01*
G01*
G37*
G36*
G01*
X97162500Y-111708608D02*
X97162500Y-108791392D01*
G75*
G02*
X97428892Y-108525000I266392J0D01*
G01*
X98521108Y-108525000D01*
G75*
G02*
X98787500Y-108791392I0J-266392D01*
G01*
X98787500Y-111708608D01*
G75*
G02*
X98521108Y-111975000I-266392J0D01*
G01*
X97428892Y-111975000D01*
G75*
G02*
X97162500Y-111708608I0J266392D01*
G01*
G37*
%TD*%
D20*
%TO.C,S1*%
X109250000Y-106500000D03*
X109250000Y-104000000D03*
X109250000Y-101500000D03*
D21*
X112000000Y-107400000D03*
X112000000Y-100600000D03*
%TD*%
M02*
