M48
; DRILL file {KiCad 7.0.6} date Sun Nov 12 21:40:01 2023
; FORMAT={-:-/ absolute / inch / decimal}
; #@! TF.CreationDate,2023-11-12T21:40:01+01:00
; #@! TF.GenerationSoftware,Kicad,Pcbnew,7.0.6
; #@! TF.FileFunction,Plated,1,2,PTH
FMAT,2
INCH
; #@! TA.AperFunction,Plated,PTH,ComponentDrill
T1C0.0079
; #@! TA.AperFunction,Plated,PTH,ViaDrill
T2C0.0157
%
G90
G05
T1
X6.398Y-4.8395
X6.398Y-4.9182
X6.4768Y-4.8395
X6.4768Y-4.9182
T2
X3.0688Y-3.0244
X3.1932Y-2.9561
X3.2631Y-5.0928
X3.2641Y-4.9809
X3.3456Y-3.5432
X3.359Y-4.618
X3.437Y-3.6313
X3.6485Y-3.005
X3.8262Y-2.953
X3.9331Y-3.3373
X4.0823Y-3.4003
X4.4749Y-3.603
X4.5527Y-3.6986
X4.5571Y-3.096
X4.7258Y-3.0457
X4.9421Y-3.9021
X5.0408Y-3.9851
X5.1989Y-3.1642
X5.3135Y-3.9211
X5.318Y-3.0894
X5.3542Y-4.0301
X5.6458Y-3.9096
X5.6958Y-4.0301
X5.7225Y-3.6679
X5.7828Y-3.755
X5.8199Y-2.9875
X5.8368Y-3.611
X5.8466Y-3.3444
X5.8854Y-3.4736
X5.9413Y-3.7077
X5.9501Y-2.9283
X5.9536Y-3.5845
X6.0146Y-3.8163
X6.0829Y-3.9027
X6.275Y-4.8382
X6.3786Y-5.0655
X6.3991Y-4.7484
X6.4263Y-3.0044
X6.4384Y-5.0645
X6.4572Y-4.9903
X6.4796Y-4.7455
X6.4988Y-5.067
X6.5266Y-5.2728
X6.5712Y-4.8765
X6.5886Y-2.9283
T0
M30
