<?xml version="1.0" encoding="UTF-8" standalone="no"?>
<!-- Created with Inkscape (http://www.inkscape.org/) -->

<svg
   width="37.820415mm"
   height="79.599838mm"
   viewBox="0 0 37.820415 79.599838"
   version="1.1"
   id="svg1"
   xml:space="preserve"
   xmlns="http://www.w3.org/2000/svg"
   xmlns:svg="http://www.w3.org/2000/svg"><defs
     id="defs1"><rect
       x="52.802299"
       y="279.89722"
       width="168.8857"
       height="36.126064"
       id="rect13" /></defs><g
     id="layer3"
     transform="translate(-4.8278971)"><path
       style="display:inline;fill:none;fill-opacity:1;stroke:#f8e101;stroke-width:0.3;stroke-linecap:round;stroke-linejoin:round;stroke-opacity:1;-inkscape-stroke:none"
       d="m 37.173403,156.68218 c 0.371757,0.45872 0.849393,0.7002 1.350533,-0.18666 0.61162,0.77565 1.260009,0.95379 1.976837,0.0198 0.109948,0.4735 0.422038,0.70585 0.981482,0.72985 m 4.286015,-0.57962 c -0.371757,0.45872 -0.842986,0.71683 -1.344126,-0.17003 -0.61162,0.77565 -1.260009,0.95379 -1.976837,0.0198 -0.109948,0.4735 -0.422038,0.70585 -0.981482,0.72985"
       id="path2-7"
       transform="matrix(2.9526526,0,0,2.9526526,-97.665572,-416.25994)" /><path
       style="display:inline;fill:none;fill-opacity:1;stroke:#f8e101;stroke-width:0.3;stroke-linecap:round;stroke-linejoin:round;stroke-opacity:1;-inkscape-stroke:none"
       d="m 41.460543,162.69264 c -0.734513,-0.006 -1.145761,-0.37301 -1.386136,-0.84174 -0.672001,0.97224 -1.568958,1.27498 -2.612432,0.0184 -1.272542,1.19349 -2.030536,0.64833 -2.599639,0.29967 m 6.625201,0.52367 c 0.734513,-0.006 1.145761,-0.37301 1.386136,-0.84174 0.672001,0.97224 1.568958,1.27498 2.612432,0.0184 0.312536,0.52094 0.540505,0.75654 1.063321,0.62277"
       id="path3-6"
       transform="matrix(2.9526526,0,0,2.9526526,-97.665572,-416.25994)" /><path
       style="display:inline;fill:none;fill-opacity:1;stroke:#f8e101;stroke-width:0.3;stroke-linecap:round;stroke-linejoin:round;stroke-opacity:1;-inkscape-stroke:none"
       d="m 38.535511,151.75456 c 0.59845,0.72297 1.240337,0.70945 1.978262,-0.14015 0.261018,0.4735 0.582899,0.70585 0.981482,0.72985 m 2.914038,-0.59714 c -0.59845,0.72297 -1.237061,0.71689 -1.974986,-0.13271 -0.261018,0.4735 -0.582899,0.70585 -0.981482,0.72985"
       id="path2-8-7"
       transform="matrix(2.9526526,0,0,2.9526526,-97.665572,-416.25994)" /><path
       style="font-variation-settings:normal;display:inline;opacity:1;vector-effect:none;fill:#f8e101;fill-opacity:1;stroke:none;stroke-width:0.885796;stroke-linecap:round;stroke-linejoin:round;stroke-miterlimit:4;stroke-dasharray:none;stroke-dashoffset:0;stroke-opacity:1;-inkscape-stroke:none"
       d="m 21.767184,4.7561867 -5.792408,1.382753 4.209629,4.4657973 -2.365167,5.803189 6.906534,-3.304818 7.265392,3.197746 L 29.199287,10.4113 34.112194,5.8998491 27.688026,5.2594968 24.825297,-4.03858e-6 Z"
       id="path13" /><text
       xml:space="preserve"
       transform="matrix(0.26458333,0,0,0.26458333,-10.815806,2.9538673)"
       id="text13"
       style="font-weight:300;font-size:12px;line-height:1;font-family:'Segoe UI';-inkscape-font-specification:'Segoe UI Light';font-variation-settings:normal;text-align:center;text-decoration-color:#000000;letter-spacing:2px;white-space:pre;shape-inside:url(#rect13);display:none;opacity:1;vector-effect:none;fill:#f8e101;fill-opacity:1;stroke:none;stroke-width:3.34789;stroke-linecap:round;stroke-linejoin:round;stroke-miterlimit:4;stroke-dasharray:none;stroke-dashoffset:0;stroke-opacity:1;-inkscape-stroke:none"><tspan
         x="71.82111"
         y="289.20554"
         id="tspan4"><tspan
           style="font-weight:normal;font-family:Pirulen;-inkscape-font-specification:Pirulen"
           id="tspan3">C.A.S.E 24/25</tspan></tspan></text><path
       style="font-size:12px;line-height:1;font-family:Pirulen;-inkscape-font-specification:Pirulen;text-align:center;letter-spacing:2px;white-space:pre;display:inline;fill:#f8e101;stroke-width:3.34789;stroke-linecap:round;stroke-linejoin:round"
       d="m 81.99711,289.20554 v -1.248 h -6.804 c -0.72,0 -1.056,-0.276 -1.056,-0.78 v -4.392 c 0,-0.504 0.336,-0.78 1.056,-0.78 h 6.804 v -1.248 h -6.804 c -1.92,0 -2.652,0.828 -2.652,2.04 v 4.368 c 0,1.212 0.732,2.04 2.652,2.04 z m 5.168005,0 v -1.56 h -1.884 v 1.56 z m 15.175995,0 -5.579997,-8.448 h -1.164 l -5.616,8.448 h 1.776 l 4.428,-6.804 4.355997,6.804 z m 4.60401,0 v -1.56 h -1.884 v 1.56 z m 10.82001,0 c 1.92,0 2.652,-0.828 2.652,-2.04 v -1.044 c 0,-1.212 -0.732,-2.04 -2.652,-2.04 h -4.968 c -0.72,0 -1.056,-0.276 -1.056,-0.78 v -0.516 c 0,-0.504 0.336,-0.78 1.056,-0.78 h 7.152 v -1.248 h -7.152 c -1.92,0 -2.652,0.828 -2.652,2.04 v 0.492 c 0,1.212 0.732,2.04 2.652,2.04 h 4.968 c 0.72,0 1.056,0.276 1.056,0.78 v 1.068 c 0,0.504 -0.336,0.78 -1.056,0.78 h -7.344 v 1.248 z m 7.50799,0 v -1.56 h -1.884 v 1.56 z m 12.284,0 v -1.248 h -7.092 v -2.592 h 6.732 v -1.248 h -6.732 v -2.112 h 7.092 v -1.248 h -8.688 v 8.448 z m 19.948,0 v -1.248 h -7.14 v -1.848 c 0,-0.504 0.336,-0.78 1.056,-0.78 h 3.432 c 1.92,0 2.652,-0.828 2.652,-2.04 v -0.492 c 0,-1.212 -0.732,-2.04 -2.652,-2.04 h -5.628 v 1.248 h 5.628 c 0.72,0 1.056,0.276 1.056,0.78 v 0.516 c 0,0.504 -0.336,0.78 -1.056,0.78 h -3.432 c -1.92,0 -2.652,0.828 -2.652,2.04 v 3.084 z m 12.09199,0 v -1.44 h 0.888 v -1.248 h -0.888 v -5.76 h -1.596 v 5.76 h -5.724 l 4.296,-5.76 h -1.728 l -4.464,6 v 1.008 h 7.62 v 1.44 z m 4.30401,0.48 4.656,-9.408 h -1.056 l -4.656,9.408 z m 16.064,-0.48 v -1.248 h -7.14 v -1.848 c 0,-0.504 0.336,-0.78 1.056,-0.78 h 3.432 c 1.92,0 2.652,-0.828 2.652,-2.04 v -0.492 c 0,-1.212 -0.732,-2.04 -2.652,-2.04 h -5.628 v 1.248 h 5.628 c 0.72,0 1.056,0.276 1.056,0.78 v 0.516 c 0,0.504 -0.336,0.78 -1.056,0.78 h -3.432 c -1.92,0 -2.652,0.828 -2.652,2.04 v 3.084 z m 9.45199,0 c 1.92,0 2.652,-0.828 2.652,-2.04 v -1.488 c 0,-1.212 -0.732,-2.04 -2.652,-2.04 h -4.44 v -1.632 h 6.816 v -1.248 h -8.412 v 4.128 h 6.036 c 0.72,0 1.056,0.276 1.056,0.78 v 1.512 c 0,0.504 -0.336,0.78 -1.056,0.78 h -6.036 v 1.248 z"
       id="text7"
       transform="matrix(0.26458333,0,0,0.26458333,-10.815806,2.9538673)"
       aria-label="C.A.S.E 24/25" /></g></svg>
