M48
; DRILL file {KiCad (5.1.9)-1} date 10/10/21 13:31:18
; FORMAT={-:-/ absolute / metric / decimal}
; #@! TF.CreationDate,2021-10-10T13:31:18+02:00
; #@! TF.GenerationSoftware,Kicad,Pcbnew,(5.1.9)-1
; #@! TF.FileFunction,Plated,1,2,PTH
FMAT,2
METRIC
T1C0.400
T2C0.650
T3C0.800
T4C1.000
T5C1.300
%
G90
G05
T1
X120.0Y-137.0
X130.395Y-132.605
X135.0Y-125.0
X149.0Y-133.0
X151.475Y-119.525
X151.475Y-121.525
X155.525Y-129.525
X158.5Y-119.5
X158.5Y-123.0
X164.525Y-129.475
X169.475Y-119.525
X169.475Y-122.475
X173.525Y-129.525
T2
X111.0Y-132.0
X111.0Y-134.54
T3
X141.0Y-136.0
X143.54Y-136.0
X146.08Y-136.0
T4
X118.46Y-119.0
X121.0Y-119.0
T5
X109.0Y-118.0
X109.0Y-123.08
T0
M30
