M48
; DRILL file {KiCad (5.1.6)-1} date 12/09/21 10:58:37
; FORMAT={-:-/ absolute / inch / decimal}
; #@! TF.CreationDate,2021-12-09T10:58:37+01:00
; #@! TF.GenerationSoftware,Kicad,Pcbnew,(5.1.6)-1
; #@! TF.FileFunction,Plated,1,2,PTH
FMAT,2
INCH
T1C0.0157
T2C0.0256
T3C0.0394
%
G90
G05
T1
X5.0984Y-3.7008
X5.0984Y-4.0748
X5.0984Y-4.8031
X5.0989Y-4.4483
X5.4472Y-2.9866
X5.4806Y-2.9643
X5.503Y-3.0745
X5.5709Y-3.0709
X6.2795Y-3.0758
X6.3426Y-3.0404
X6.3691Y-2.9983
X6.406Y-3.0267
X6.4764Y-4.5079
X6.4764Y-4.7441
X6.5551Y-4.1929
X6.8898Y-3.7008
T2
X5.8661Y-4.4488
X5.9661Y-4.4488
T3
X5.8661Y-4.5866
X5.9661Y-4.5866
T0
M30
