G04 #@! TF.GenerationSoftware,KiCad,Pcbnew,(5.1.9)-1*
G04 #@! TF.CreationDate,2021-10-10T13:31:21+02:00*
G04 #@! TF.ProjectId,opamp_vu_meter,6f70616d-705f-4767-955f-6d657465722e,rev?*
G04 #@! TF.SameCoordinates,Original*
G04 #@! TF.FileFunction,Legend,Top*
G04 #@! TF.FilePolarity,Positive*
%FSLAX46Y46*%
G04 Gerber Fmt 4.6, Leading zero omitted, Abs format (unit mm)*
G04 Created by KiCad (PCBNEW (5.1.9)-1) date 2021-10-10 13:31:21*
%MOMM*%
%LPD*%
G01*
G04 APERTURE LIST*
%ADD10C,0.150000*%
%ADD11C,0.300000*%
%ADD12C,0.400000*%
%ADD13C,0.010000*%
%ADD14C,0.200000*%
%ADD15C,0.120000*%
%ADD16C,0.100000*%
%ADD17C,0.254000*%
%ADD18C,1.333000*%
%ADD19C,2.600000*%
%ADD20R,2.600000X2.600000*%
%ADD21R,0.900000X1.200000*%
%ADD22R,1.700000X1.700000*%
%ADD23O,1.700000X1.700000*%
%ADD24R,0.800000X0.900000*%
%ADD25R,0.425000X0.500000*%
%ADD26R,0.250000X0.500000*%
%ADD27C,1.440000*%
G04 APERTURE END LIST*
D10*
X113447619Y-137361904D02*
X113447619Y-136561904D01*
X113638095Y-136561904D01*
X113752380Y-136600000D01*
X113828571Y-136676190D01*
X113866666Y-136752380D01*
X113904761Y-136904761D01*
X113904761Y-137019047D01*
X113866666Y-137171428D01*
X113828571Y-137247619D01*
X113752380Y-137323809D01*
X113638095Y-137361904D01*
X113447619Y-137361904D01*
X114247619Y-137285714D02*
X114285714Y-137323809D01*
X114247619Y-137361904D01*
X114209523Y-137323809D01*
X114247619Y-137285714D01*
X114247619Y-137361904D01*
X115771428Y-137438095D02*
X115695238Y-137400000D01*
X115619047Y-137323809D01*
X115504761Y-137209523D01*
X115428571Y-137171428D01*
X115352380Y-137171428D01*
X115390476Y-137361904D02*
X115314285Y-137323809D01*
X115238095Y-137247619D01*
X115200000Y-137095238D01*
X115200000Y-136828571D01*
X115238095Y-136676190D01*
X115314285Y-136600000D01*
X115390476Y-136561904D01*
X115542857Y-136561904D01*
X115619047Y-136600000D01*
X115695238Y-136676190D01*
X115733333Y-136828571D01*
X115733333Y-137095238D01*
X115695238Y-137247619D01*
X115619047Y-137323809D01*
X115542857Y-137361904D01*
X115390476Y-137361904D01*
X116419047Y-136828571D02*
X116419047Y-137361904D01*
X116076190Y-136828571D02*
X116076190Y-137247619D01*
X116114285Y-137323809D01*
X116190476Y-137361904D01*
X116304761Y-137361904D01*
X116380952Y-137323809D01*
X116419047Y-137285714D01*
X117142857Y-137361904D02*
X117142857Y-136942857D01*
X117104761Y-136866666D01*
X117028571Y-136828571D01*
X116876190Y-136828571D01*
X116800000Y-136866666D01*
X117142857Y-137323809D02*
X117066666Y-137361904D01*
X116876190Y-137361904D01*
X116800000Y-137323809D01*
X116761904Y-137247619D01*
X116761904Y-137171428D01*
X116800000Y-137095238D01*
X116876190Y-137057142D01*
X117066666Y-137057142D01*
X117142857Y-137019047D01*
X117866666Y-137323809D02*
X117790476Y-137361904D01*
X117638095Y-137361904D01*
X117561904Y-137323809D01*
X117523809Y-137285714D01*
X117485714Y-137209523D01*
X117485714Y-136980952D01*
X117523809Y-136904761D01*
X117561904Y-136866666D01*
X117638095Y-136828571D01*
X117790476Y-136828571D01*
X117866666Y-136866666D01*
X118209523Y-137361904D02*
X118209523Y-136561904D01*
X118552380Y-137361904D02*
X118552380Y-136942857D01*
X118514285Y-136866666D01*
X118438095Y-136828571D01*
X118323809Y-136828571D01*
X118247619Y-136866666D01*
X118209523Y-136904761D01*
X123809523Y-120452380D02*
X123333333Y-120452380D01*
X123333333Y-119452380D01*
X124523809Y-120404761D02*
X124428571Y-120452380D01*
X124238095Y-120452380D01*
X124142857Y-120404761D01*
X124095238Y-120309523D01*
X124095238Y-119928571D01*
X124142857Y-119833333D01*
X124238095Y-119785714D01*
X124428571Y-119785714D01*
X124523809Y-119833333D01*
X124571428Y-119928571D01*
X124571428Y-120023809D01*
X124095238Y-120119047D01*
X124904761Y-119785714D02*
X125142857Y-120452380D01*
X125380952Y-119785714D01*
X126142857Y-120404761D02*
X126047619Y-120452380D01*
X125857142Y-120452380D01*
X125761904Y-120404761D01*
X125714285Y-120309523D01*
X125714285Y-119928571D01*
X125761904Y-119833333D01*
X125857142Y-119785714D01*
X126047619Y-119785714D01*
X126142857Y-119833333D01*
X126190476Y-119928571D01*
X126190476Y-120023809D01*
X125714285Y-120119047D01*
X126761904Y-120452380D02*
X126666666Y-120404761D01*
X126619047Y-120309523D01*
X126619047Y-119452380D01*
D11*
X108238095Y-113142857D02*
X109761904Y-113142857D01*
X109000000Y-113904761D02*
X109000000Y-112380952D01*
D12*
X137681800Y-87474180D02*
X137227000Y-87485180D01*
X137860800Y-87529580D02*
X137771800Y-87502380D01*
X137771800Y-87502380D02*
X137681800Y-87474180D01*
X162723000Y-111944620D02*
X161304800Y-111722220D01*
X148743000Y-106202460D02*
X150135000Y-104290580D01*
X146694400Y-106371720D02*
X147120800Y-106670141D01*
X150135000Y-104290580D02*
X151128800Y-102145380D01*
X147221600Y-106737380D02*
X147788000Y-106836120D01*
X163318599Y-111942460D02*
X163012800Y-111943540D01*
X166020599Y-108852180D02*
X166864600Y-109339380D01*
X157003599Y-101738500D02*
X158199200Y-101593080D01*
X140456200Y-104714820D02*
X142251999Y-102847400D01*
X137370200Y-106836120D02*
X137936800Y-106737380D01*
X162171600Y-105911660D02*
X166020599Y-108852180D01*
X151128800Y-102145380D02*
X151263600Y-101688580D01*
X148409600Y-106543160D02*
X148743000Y-106202460D01*
X158199200Y-101593080D02*
X158317400Y-101565960D01*
X147120800Y-106670141D02*
X147221600Y-106737380D01*
X137936800Y-106737380D02*
X138038600Y-106670141D01*
X166233000Y-110407100D02*
X165335800Y-111228500D01*
X138038600Y-106670141D02*
X138463999Y-106371720D01*
X152047000Y-101441160D02*
X152632000Y-101084180D01*
X163012800Y-111943540D02*
X162723000Y-111944620D01*
X164240000Y-111754740D02*
X163318599Y-111942460D01*
X165335800Y-111228500D02*
X164240000Y-111754740D01*
X136835400Y-106628880D02*
X137370200Y-106836120D01*
X154774600Y-101557260D02*
X156528400Y-101741740D01*
X158388000Y-107206140D02*
X158120000Y-107087880D01*
X159101000Y-107774720D02*
X158388000Y-107206140D01*
X159717200Y-111058120D02*
X159829200Y-110786880D01*
X166749600Y-109623680D02*
X166233000Y-110407100D01*
X166864600Y-109339380D02*
X166749600Y-109623680D01*
X156883000Y-101739580D02*
X157003599Y-101738500D01*
X151399200Y-101664680D02*
X152047000Y-101441160D01*
X152632000Y-101084180D02*
X152737000Y-100994120D01*
X148322999Y-106628880D02*
X148409600Y-106543160D01*
X147788000Y-106836120D02*
X148322999Y-106628880D01*
X142906400Y-102847400D02*
X144702200Y-104714820D01*
X142579800Y-102444860D02*
X142906400Y-102847400D01*
X144702200Y-104714820D02*
X146694400Y-106371720D01*
X158317400Y-101565960D02*
X158882000Y-102359140D01*
X153068000Y-101118900D02*
X154774600Y-101557260D01*
X142251999Y-102847400D02*
X142579800Y-102444860D01*
X152737000Y-100994120D02*
X153068000Y-101118900D01*
X151263600Y-101688580D02*
X151399200Y-101664680D01*
X136749600Y-106543160D02*
X136835400Y-106628880D01*
X159728000Y-108748020D02*
X159101000Y-107774720D01*
X161304800Y-111722220D02*
X159967000Y-111204640D01*
X138463999Y-106371720D02*
X140456200Y-104714820D01*
X158882000Y-102359140D02*
X162171600Y-105911660D01*
X156528400Y-101741740D02*
X156883000Y-101739580D01*
X159949400Y-109883020D02*
X159728000Y-108748020D01*
X159829200Y-110786880D02*
X159949400Y-109883020D01*
X159967000Y-111204640D02*
X159717200Y-111058120D01*
X126846200Y-101565960D02*
X126963400Y-101593080D01*
X150851000Y-99698581D02*
X150752400Y-99698581D01*
X134307140Y-97657580D02*
X134406960Y-97657580D01*
X150752400Y-99698581D02*
X150752400Y-99698581D01*
X151149600Y-97736781D02*
X151475000Y-97955980D01*
X135347700Y-99074580D02*
X135128540Y-99398980D01*
X133384820Y-98777380D02*
X133384820Y-98678580D01*
X134307140Y-99698581D02*
X134008720Y-99618180D01*
X134406960Y-99698581D02*
X134307140Y-99698581D01*
X134804080Y-99618180D02*
X134505700Y-99698581D01*
X135347700Y-98280380D02*
X135428000Y-98578780D01*
X133684320Y-97955980D02*
X134008720Y-97736781D01*
X133465120Y-98280380D02*
X133684320Y-97955980D01*
X151475000Y-99398980D02*
X151149600Y-99618180D01*
X151693400Y-99074580D02*
X151475000Y-99398980D01*
X151693400Y-98280380D02*
X151774800Y-98578780D01*
X151774800Y-98678580D02*
X151774800Y-98777380D01*
X150354200Y-99618180D02*
X150029800Y-99398980D01*
X134505700Y-97657580D02*
X134804080Y-97736781D01*
X134008720Y-97736781D02*
X134307140Y-97657580D01*
X135128540Y-99398980D02*
X134804080Y-99618180D01*
X133384820Y-98578780D02*
X133465120Y-98280380D01*
X135428000Y-98578780D02*
X135428000Y-98678580D01*
X133384820Y-98678580D02*
X133384820Y-98578780D01*
X136415400Y-106202460D02*
X136749600Y-106543160D01*
X150652800Y-99698581D02*
X150354200Y-99618180D01*
X133684320Y-99398980D02*
X133465120Y-99074580D01*
X135023280Y-104290580D02*
X136415400Y-106202460D01*
X150652800Y-97657580D02*
X150752400Y-97657580D01*
X133896980Y-101688580D02*
X134030460Y-102145380D01*
X133384820Y-98678580D02*
X133384820Y-98678580D01*
X151149600Y-99618180D02*
X150851000Y-99698581D01*
X134008720Y-99618180D02*
X133684320Y-99398980D01*
X134406960Y-97657580D02*
X134505700Y-97657580D01*
X150029800Y-99398980D02*
X149810600Y-99074580D01*
X135428000Y-98678580D02*
X135428000Y-98777380D01*
X135128540Y-97955980D02*
X135347700Y-98280380D01*
X150851000Y-97657580D02*
X151149600Y-97736781D01*
X149731400Y-98678580D02*
X149731400Y-98578780D01*
X150354200Y-97736781D02*
X150652800Y-97657580D01*
X149810600Y-99074580D02*
X149731400Y-98777380D01*
X149810600Y-98280380D02*
X150029800Y-97955980D01*
X134030460Y-102145380D02*
X135023280Y-104290580D01*
X132423460Y-100994120D02*
X132527619Y-101084180D01*
X151774800Y-98777380D02*
X151693400Y-99074580D01*
X133760260Y-101664680D02*
X133896980Y-101688580D01*
X133112480Y-101441160D02*
X133760260Y-101664680D01*
X133465120Y-99074580D02*
X133384820Y-98777380D01*
X132527619Y-101084180D02*
X133112480Y-101441160D01*
X134804080Y-97736781D02*
X135128540Y-97955980D01*
X128155859Y-101738500D02*
X128276319Y-101739580D01*
X135428000Y-98777380D02*
X135347700Y-99074580D01*
X134505700Y-99698581D02*
X134406960Y-99698581D01*
X150752400Y-97657580D02*
X150851000Y-97657580D01*
X151774800Y-98578780D02*
X151774800Y-98678580D01*
X132091419Y-101118900D02*
X132423460Y-100994120D01*
X150029800Y-97955980D02*
X150354200Y-97736781D01*
X151475000Y-97955980D02*
X151693400Y-98280380D01*
X128630060Y-101741740D02*
X130383540Y-101557260D01*
X149731400Y-98777380D02*
X149731400Y-98678580D01*
X130383540Y-101557260D02*
X132091419Y-101118900D01*
X128276319Y-101739580D02*
X128630060Y-101741740D01*
X126963400Y-101593080D02*
X128155859Y-101738500D01*
X149731400Y-98578780D02*
X149810600Y-98280380D01*
X147153400Y-104150580D02*
X145323800Y-102461140D01*
X125404140Y-98524580D02*
X124579480Y-97427580D01*
X126514180Y-99329580D02*
X125404140Y-98524580D01*
X132516760Y-96212180D02*
X131785420Y-97038980D01*
X126771320Y-99439180D02*
X126514180Y-99329580D01*
X128147200Y-99699580D02*
X126891760Y-99483780D01*
X136620600Y-102965680D02*
X136012860Y-101607180D01*
X128276319Y-99698581D02*
X128147200Y-99699580D01*
X128541060Y-99700780D02*
X128276319Y-99698581D01*
X137152200Y-97172580D02*
X136630200Y-96482380D01*
X141443600Y-100562260D02*
X139834400Y-102461140D01*
X131785420Y-97038980D02*
X131391560Y-98069780D01*
X133260040Y-95767380D02*
X132516760Y-96212180D01*
X134660860Y-95562181D02*
X133796060Y-95605581D01*
X137421200Y-104221120D02*
X136620600Y-102965680D01*
X147737000Y-104221120D02*
X147550600Y-104454400D01*
X137609000Y-104454400D02*
X137421200Y-104221120D01*
X148537800Y-102965680D02*
X147737000Y-104221120D01*
X143714600Y-100562260D02*
X143429400Y-100153180D01*
X142460400Y-99727780D02*
X142104400Y-99839581D01*
X150752400Y-99698581D02*
X150652800Y-99698581D01*
X131475080Y-91535581D02*
X131475080Y-91535581D01*
X135729640Y-95844380D02*
X134660860Y-95562181D01*
X131035640Y-92161780D02*
X131475080Y-91535581D01*
X142104400Y-99839581D02*
X141780000Y-100085980D01*
X143379400Y-100085980D02*
X143055000Y-99839581D01*
X125171920Y-96878380D02*
X128370720Y-94850380D01*
X126891760Y-99483780D02*
X126771320Y-99439180D01*
X136797400Y-100595900D02*
X137337800Y-99633380D01*
X131144140Y-99291580D02*
X129856180Y-99581380D01*
X124579480Y-97427580D02*
X124466640Y-97173580D01*
X131395900Y-99209180D02*
X131144140Y-99291580D01*
X131391560Y-98069780D02*
X131342720Y-98933580D01*
X133528060Y-95686980D02*
X133260040Y-95767380D01*
X137261800Y-97430780D02*
X137152200Y-97172580D01*
X147550600Y-104454400D02*
X147153400Y-104150580D01*
X137504799Y-98541780D02*
X137370200Y-97687981D01*
X136012860Y-101607180D02*
X135921720Y-101322900D01*
X137337800Y-99633380D02*
X137504799Y-98541780D01*
X135921720Y-101322900D02*
X136165800Y-101187260D01*
X143055000Y-99839581D02*
X142697999Y-99727780D01*
X142697999Y-99727780D02*
X142579800Y-99727780D01*
X149145600Y-101607180D02*
X148537800Y-102965680D01*
X149237800Y-101322900D02*
X149145600Y-101607180D01*
X149005600Y-101191600D02*
X149237800Y-101322900D01*
X133796060Y-95605581D02*
X133528060Y-95686980D01*
X136630200Y-96482380D02*
X135729640Y-95844380D01*
X136165800Y-101187260D02*
X136797400Y-100595900D01*
X148405600Y-100630620D02*
X149005600Y-101191600D01*
X139834400Y-102461140D02*
X138005000Y-104150580D01*
X129856180Y-99581380D02*
X128541060Y-99700780D01*
X147876999Y-99722380D02*
X148405600Y-100630620D01*
X128370720Y-94850380D02*
X131035640Y-92161780D01*
X137370200Y-97687981D02*
X137261800Y-97430780D01*
X142579800Y-99727780D02*
X142460400Y-99727780D01*
X147687200Y-98688380D02*
X147876999Y-99722380D01*
X124466640Y-97173580D02*
X125171920Y-96878380D01*
X145323800Y-102461140D02*
X143714600Y-100562260D01*
X147779400Y-97872381D02*
X147687200Y-98688380D01*
X131342720Y-98933580D02*
X131395900Y-99209180D01*
X141729999Y-100153180D02*
X141443600Y-100562260D01*
X138005000Y-104150580D02*
X137609000Y-104454400D01*
X141780000Y-100085980D02*
X141729999Y-100153180D01*
X143429400Y-100153180D02*
X143379400Y-100085980D01*
X153209200Y-91537580D02*
X153684400Y-91535581D01*
X144781400Y-95329980D02*
X146258000Y-93833780D01*
X130990059Y-89478180D02*
X130958620Y-89475180D01*
X146258000Y-93833780D02*
X147431000Y-92090180D01*
X138900200Y-93833780D02*
X140376999Y-95329980D01*
X158385800Y-99445780D02*
X158265600Y-99489180D01*
X153816600Y-98722980D02*
X153817800Y-98678580D01*
X155302200Y-99581380D02*
X154014200Y-99291580D01*
X156617199Y-99700780D02*
X155302200Y-99581380D01*
X157011000Y-99700780D02*
X156883000Y-99698581D01*
X160692800Y-97177980D02*
X160578800Y-97432980D01*
X148677800Y-90372381D02*
X150882800Y-91189580D01*
X148264400Y-90141180D02*
X148677800Y-90372381D01*
X143036600Y-96535581D02*
X143496600Y-96277380D01*
X142963800Y-96571380D02*
X143036600Y-96535581D01*
X141661800Y-96277380D02*
X142122800Y-96535581D01*
X142194600Y-96571380D02*
X142579800Y-96642980D01*
X130021120Y-89365380D02*
X129141120Y-89060580D01*
X154122800Y-92161780D02*
X156786599Y-94853781D01*
X150882800Y-91189580D02*
X153209200Y-91537580D01*
X158265600Y-99489180D02*
X157011000Y-99700780D01*
X148103800Y-90643780D02*
X148264400Y-90141180D01*
X160578800Y-97432980D02*
X159752999Y-98529980D01*
X147431000Y-92090180D02*
X148103800Y-90643780D01*
X151289400Y-95647980D02*
X151027000Y-95601380D01*
X130724220Y-89472780D02*
X130021120Y-89365380D01*
X153763600Y-99209180D02*
X153771000Y-99164780D01*
X136895000Y-90141180D02*
X137055600Y-90643780D01*
X130958620Y-89475180D02*
X130724220Y-89472780D01*
X149218000Y-96011580D02*
X148410800Y-96685380D01*
X153817800Y-98678580D02*
X153818800Y-98411580D01*
X143496600Y-96277380D02*
X144781400Y-95329980D01*
X154014200Y-99291580D02*
X153763600Y-99209180D01*
X153684400Y-91535581D02*
X154122800Y-92161780D01*
X129141120Y-89060580D02*
X128346840Y-88573380D01*
X159752999Y-98529980D02*
X158642000Y-99336180D01*
X159986400Y-96882780D02*
X160692800Y-97177980D01*
X137728400Y-92090180D02*
X138900200Y-93833780D01*
X127669760Y-87917781D02*
X127669760Y-87917781D01*
X136480600Y-90372381D02*
X136895000Y-90141180D01*
X128346840Y-88573380D02*
X127818419Y-88098180D01*
X131949280Y-91537580D02*
X134275680Y-91189580D01*
X147870600Y-97622780D02*
X147779400Y-97872381D01*
X147960600Y-97372180D02*
X147870600Y-97622780D01*
X142579800Y-96642980D02*
X142963800Y-96571380D01*
X148410800Y-96685380D02*
X147960600Y-97372180D01*
X150206600Y-95648980D02*
X149218000Y-96011580D01*
X153771000Y-99164780D02*
X153816600Y-98722980D01*
X153107000Y-96702580D02*
X152304200Y-96022380D01*
X156786599Y-94853781D02*
X159986400Y-96882780D01*
X156883000Y-99698581D02*
X156617199Y-99700780D01*
X158642000Y-99336180D02*
X158385800Y-99445780D01*
X137055600Y-90643780D02*
X137728400Y-92090180D01*
X131309080Y-89494580D02*
X130990059Y-89478180D01*
X142122800Y-96535581D02*
X142194600Y-96571380D01*
X151027000Y-95601380D02*
X150206600Y-95648980D01*
X134275680Y-91189580D02*
X136480600Y-90372381D01*
X140376999Y-95329980D02*
X141661800Y-96277380D01*
X151551000Y-95694580D02*
X151289400Y-95647980D01*
X127818419Y-88098180D02*
X127669760Y-87917781D01*
X152304200Y-96022380D02*
X151551000Y-95694580D01*
X153632200Y-97612980D02*
X153107000Y-96702580D01*
X153818800Y-98411580D02*
X153632200Y-97612980D01*
X131475080Y-91535581D02*
X131949280Y-91537580D01*
X155971600Y-89070380D02*
X155071000Y-89376180D01*
X136750800Y-87747580D02*
X136368800Y-88053780D01*
X136818000Y-87681580D02*
X136750800Y-87747580D01*
X139327800Y-90654580D02*
X138930600Y-89737580D01*
X137227000Y-87485180D02*
X136818000Y-87681580D01*
X146705200Y-88179580D02*
X146686600Y-88271780D01*
X138227400Y-87791980D02*
X137860800Y-87529580D01*
X143675600Y-93634180D02*
X142870600Y-94277581D01*
X147936600Y-87483980D02*
X147483000Y-87469780D01*
X138930600Y-89737580D02*
X138667000Y-88984580D01*
X139873600Y-91660380D02*
X139327800Y-90654580D01*
X142287800Y-94277581D02*
X141482599Y-93634180D01*
X146931999Y-87786780D02*
X146705200Y-88179580D01*
X157330200Y-88099180D02*
X156786599Y-88578780D01*
X147303000Y-87525180D02*
X146931999Y-87786780D01*
X157485200Y-87916780D02*
X157330200Y-88099180D01*
X154352800Y-89483780D02*
X154113800Y-89484780D01*
X150953400Y-89120180D02*
X148791600Y-88058980D01*
X131829920Y-89519581D02*
X131341640Y-89494580D01*
X136368800Y-88053780D02*
X134207320Y-89118981D01*
X142579800Y-94453380D02*
X142287800Y-94277581D01*
X148791600Y-88058980D02*
X148409600Y-87752780D01*
X145733800Y-83389780D02*
X146634800Y-82268980D01*
X154089200Y-89486980D02*
X153841600Y-89495580D01*
X138472600Y-88273780D02*
X138453200Y-88181580D01*
X146491399Y-88984580D02*
X146227800Y-89737580D01*
X138474800Y-88283780D02*
X138472600Y-88273780D01*
X138667000Y-88984580D02*
X138519400Y-88471180D01*
X140586400Y-92678180D02*
X139873600Y-91660380D01*
X141482599Y-93634180D02*
X140586400Y-92678180D01*
X144572000Y-92678180D02*
X143675600Y-93634180D01*
X156786599Y-88578780D02*
X155971600Y-89070380D01*
X146634800Y-82268980D02*
X147305200Y-80996180D01*
X145830600Y-90654580D02*
X145284600Y-91660380D01*
X146686600Y-88271780D02*
X146684400Y-88282580D01*
X146227800Y-89737580D02*
X145830600Y-90654580D01*
X146684400Y-88282580D02*
X146638800Y-88470380D01*
X153841600Y-89495580D02*
X153817800Y-89494580D01*
X153817800Y-89494580D02*
X153328400Y-89519581D01*
X156691000Y-87521780D02*
X157485200Y-87916780D01*
X153057200Y-85033780D02*
X156691000Y-87521780D01*
X149946400Y-81917580D02*
X153057200Y-85033780D01*
X147305200Y-80996180D02*
X147401600Y-80723980D01*
X142870600Y-94277581D02*
X142579800Y-94453380D01*
X146638800Y-88470380D02*
X146491399Y-88984580D01*
X149414399Y-81208980D02*
X149946400Y-81917580D01*
X147483000Y-87469780D02*
X147392999Y-87498181D01*
X138453200Y-88181580D02*
X138227400Y-87791980D01*
X149242000Y-81188380D02*
X149414399Y-81208980D01*
X131341640Y-89494580D02*
X131309080Y-89494580D01*
X145284600Y-91660380D02*
X144572000Y-92678180D01*
X153328400Y-89519581D02*
X150953400Y-89120180D01*
X147563400Y-80783780D02*
X149242000Y-81188380D01*
X134207320Y-89118981D02*
X131829920Y-89519581D01*
X155071000Y-89376180D02*
X154352800Y-89483780D01*
X147401600Y-80723980D02*
X147563400Y-80783780D01*
X138519400Y-88471180D02*
X138474800Y-88283780D01*
X148342400Y-87685580D02*
X147936600Y-87483980D01*
X147392999Y-87498181D02*
X147303000Y-87525180D01*
X148409600Y-87752780D02*
X148342400Y-87685580D01*
X154113800Y-89484780D02*
X154089200Y-89486980D01*
X140121000Y-86267580D02*
X140611400Y-86796980D01*
X139683600Y-85446180D02*
X140121000Y-86267580D01*
X141857000Y-83669780D02*
X142181400Y-83450580D01*
X133257860Y-78900980D02*
X132449500Y-78402781D01*
X135911960Y-81188380D02*
X137590600Y-80783780D01*
X139567599Y-83813180D02*
X139513200Y-84531580D01*
X139633800Y-83587380D02*
X139567599Y-83813180D01*
X138519400Y-82268980D02*
X139421000Y-83389780D01*
X137753400Y-80723980D02*
X137849800Y-80996180D01*
X142579800Y-83371580D02*
X142678400Y-83371580D01*
X141557600Y-84491180D02*
X141557600Y-84392580D01*
X141857000Y-85113180D02*
X141637799Y-84788780D01*
X132449500Y-78402781D02*
X131923220Y-77901780D01*
X142181400Y-85332380D02*
X141857000Y-85113180D01*
X143302400Y-85113180D02*
X142976800Y-85332380D01*
X142976800Y-85332380D02*
X142678400Y-85412580D01*
X134163900Y-79186580D02*
X133257860Y-78900980D01*
X142479800Y-85412580D02*
X142181400Y-85332380D01*
X142678400Y-85412580D02*
X142579800Y-85412580D01*
X135381340Y-79218981D02*
X135127440Y-79241780D01*
X145522400Y-83587380D02*
X145733800Y-83389780D01*
X140803400Y-86933780D02*
X140994400Y-87069580D01*
X136626000Y-78956580D02*
X135381340Y-79218981D01*
X140611400Y-86796980D02*
X140803400Y-86933780D01*
X145470200Y-85446180D02*
X145640800Y-84531580D01*
X142479800Y-83371580D02*
X142579800Y-83371580D01*
X132096840Y-85033780D02*
X135207720Y-81917580D01*
X142579800Y-85412580D02*
X142479800Y-85412580D01*
X142181400Y-83450580D02*
X142479800Y-83371580D01*
X143601800Y-84491180D02*
X143520400Y-84788780D01*
X139513200Y-84531580D02*
X139683600Y-85446180D01*
X141557600Y-84392580D02*
X141557600Y-84292580D01*
X145587400Y-83811980D02*
X145522400Y-83587380D01*
X144159800Y-87069580D02*
X144351600Y-86933780D01*
X142678400Y-83371580D02*
X142976800Y-83450580D01*
X135740500Y-81208980D02*
X135911960Y-81188380D01*
X128464039Y-87522980D02*
X132096840Y-85033780D01*
X143520400Y-83994180D02*
X143601800Y-84292580D01*
X143601800Y-84392580D02*
X143601800Y-84491180D01*
X134888720Y-79257780D02*
X134163900Y-79186580D01*
X142976800Y-83450580D02*
X143302400Y-83669780D01*
X143601800Y-84392580D02*
X143601800Y-84392580D01*
X145640800Y-84531580D02*
X145587400Y-83811980D01*
X145033000Y-86267580D02*
X145470200Y-85446180D01*
X139421000Y-83389780D02*
X139633800Y-83587380D01*
X135127440Y-79241780D02*
X134888720Y-79257780D01*
X141637799Y-84788780D02*
X141557600Y-84491180D01*
X144542400Y-86796980D02*
X145033000Y-86267580D01*
X131923220Y-77901780D02*
X131779999Y-77711780D01*
X144351600Y-86933780D02*
X144542400Y-86796980D01*
X143497600Y-87356980D02*
X144159800Y-87069580D01*
X143520400Y-84788780D02*
X143302400Y-85113180D01*
X135207720Y-81917580D02*
X135740500Y-81208980D01*
X141637799Y-83994180D02*
X141857000Y-83669780D01*
X137849800Y-80996180D02*
X138519400Y-82268980D01*
X142577600Y-87498181D02*
X143497600Y-87356980D01*
X127669760Y-87917781D02*
X128464039Y-87522980D01*
X137590600Y-80783780D02*
X137753400Y-80723980D01*
X141656400Y-87356980D02*
X142577600Y-87498181D01*
X143302400Y-83669780D02*
X143520400Y-83994180D01*
X140994400Y-87069580D02*
X141656400Y-87356980D01*
X131779999Y-77711780D02*
X131779999Y-77711780D01*
X143601800Y-84292580D02*
X143601800Y-84392580D01*
X141557600Y-84292580D02*
X141637799Y-83994180D01*
X146140800Y-78422580D02*
X146066000Y-78468180D01*
X139544800Y-79537980D02*
X139514400Y-79290580D01*
X139944000Y-80702380D02*
X139544800Y-79537980D01*
X141668200Y-81471580D02*
X141014000Y-81755980D01*
X147598000Y-74886180D02*
X147979999Y-74446780D01*
X131779999Y-77711780D02*
X132257420Y-77486180D01*
X146625800Y-78273780D02*
X146214600Y-78376981D01*
X148422800Y-74721180D02*
X152900800Y-77486180D01*
X137178200Y-74445580D02*
X137560200Y-74886180D01*
X146736600Y-75205380D02*
X147428800Y-75007780D01*
X137560200Y-74886180D02*
X137608000Y-74920980D01*
X145895800Y-75011980D02*
X146025800Y-75084780D01*
X142579800Y-73185980D02*
X145895800Y-75011980D01*
X152900800Y-77486180D02*
X153378400Y-77711780D01*
X139132399Y-75084780D02*
X139263800Y-75011980D01*
X136735600Y-74720380D02*
X137151000Y-74394780D01*
X140642800Y-81717780D02*
X139944000Y-80702380D01*
X147043600Y-78338980D02*
X146625800Y-78273780D01*
X145783800Y-78785980D02*
X145647200Y-79189580D01*
X144335200Y-81890380D02*
X144145600Y-81755980D01*
X137810800Y-78497380D02*
X136626000Y-78956580D01*
X132257420Y-77486180D02*
X136735600Y-74720380D01*
X138036600Y-78376981D02*
X137810800Y-78497380D01*
X144145600Y-81755980D02*
X143490000Y-81471580D01*
X153235000Y-77902980D02*
X152707800Y-78402781D01*
X145645000Y-79277580D02*
X145614800Y-79525980D01*
X137729400Y-75007780D02*
X138421800Y-75206580D01*
X148008400Y-74395980D02*
X148422800Y-74721180D01*
X139105400Y-78468180D02*
X139030400Y-78421580D01*
X138115800Y-78336780D02*
X138036600Y-78376981D01*
X138954400Y-78374780D02*
X138538800Y-78269580D01*
X146214600Y-78376981D02*
X146140800Y-78422580D01*
X152707800Y-78402781D02*
X151899400Y-78900980D01*
X139263800Y-75011980D02*
X142579800Y-73185980D01*
X137608000Y-74920980D02*
X137729400Y-75007780D01*
X153378400Y-77711780D02*
X153235000Y-77902980D01*
X139030400Y-78421580D02*
X138954400Y-78374780D01*
X139514400Y-79290580D02*
X139514400Y-79201580D01*
X139514400Y-79201580D02*
X139385200Y-78792580D01*
X145216400Y-80696780D02*
X144516600Y-81716780D01*
X145614800Y-79525980D02*
X145216400Y-80696780D01*
X147122800Y-78377780D02*
X147043600Y-78338980D01*
X147347400Y-78498380D02*
X147122800Y-78377780D01*
X148533600Y-78957380D02*
X147347400Y-78498380D01*
X147979999Y-74446780D02*
X148008400Y-74395980D01*
X151899400Y-78900980D02*
X150994400Y-79186580D01*
X139385200Y-78792580D02*
X139105400Y-78468180D01*
X138421800Y-75206580D02*
X139132399Y-75084780D01*
X149778000Y-79218981D02*
X148533600Y-78957380D01*
X141014000Y-81755980D02*
X140824000Y-81890380D01*
X150033000Y-79241780D02*
X149778000Y-79218981D01*
X146025800Y-75084780D02*
X146736600Y-75205380D01*
X137151000Y-74394780D02*
X137178200Y-74445580D01*
X138538800Y-78269580D02*
X138115800Y-78336780D01*
X144516600Y-81716780D02*
X144335200Y-81890380D01*
X150270800Y-79257780D02*
X150033000Y-79241780D01*
X140824000Y-81890380D02*
X140642800Y-81717780D01*
X146066000Y-78468180D02*
X145783800Y-78785980D01*
X150994400Y-79186580D02*
X150270800Y-79257780D01*
X147428800Y-75007780D02*
X147551400Y-74920980D01*
X142579800Y-81331580D02*
X141668200Y-81471580D01*
X143490000Y-81471580D02*
X142579800Y-81331580D01*
X147551400Y-74920980D02*
X147598000Y-74886180D01*
X145647200Y-79189580D02*
X145645000Y-79277580D01*
X144989800Y-65300580D02*
X145120000Y-65321580D01*
X157280200Y-108961800D02*
X157604600Y-109180960D01*
X157604600Y-110624100D02*
X157280200Y-110843300D01*
X157604600Y-109180960D02*
X157823799Y-109505400D01*
X128276319Y-110923600D02*
X128276319Y-110923600D01*
X155861000Y-109903620D02*
X155861000Y-109903620D01*
X143985999Y-64547580D02*
X144412400Y-65022780D01*
X141172400Y-64548780D02*
X141228800Y-64429580D01*
X140746000Y-65023980D02*
X141172400Y-64548780D01*
X140038400Y-65321580D02*
X140168600Y-65300580D01*
X156485000Y-110843300D02*
X156160600Y-110624100D01*
X157904200Y-110002380D02*
X157823799Y-110299680D01*
X157904200Y-109903620D02*
X157904200Y-110002380D01*
X156883000Y-108882581D02*
X156982000Y-108882581D01*
X156783400Y-108882581D02*
X156883000Y-108882581D01*
X155861000Y-109803800D02*
X155941400Y-109505400D01*
X156160600Y-109180960D02*
X156485000Y-108961800D01*
X139120600Y-72759580D02*
X139652200Y-69513980D01*
X156982000Y-110923600D02*
X156883000Y-110923600D01*
X157823799Y-110299680D02*
X157604600Y-110624100D01*
X136925400Y-65794580D02*
X140038400Y-65321580D01*
X157904200Y-109803800D02*
X157904200Y-109903620D01*
X156160600Y-110624100D02*
X155941400Y-110299680D01*
X157823799Y-109505400D02*
X157904200Y-109803800D01*
X141941600Y-71205580D02*
X141824600Y-71271780D01*
X136925400Y-65794580D02*
X136925400Y-65794580D01*
X142579800Y-61561580D02*
X143930600Y-64428380D01*
X146038800Y-72761780D02*
X143335000Y-71271780D01*
X128998980Y-110624100D02*
X128673460Y-110843300D01*
X139216000Y-68133980D02*
X136925400Y-65794580D01*
X141824600Y-71271780D02*
X139120600Y-72759580D01*
X156982000Y-108882581D02*
X157280200Y-108961800D01*
X144412400Y-65022780D02*
X144989800Y-65300580D01*
X157280200Y-110843300D02*
X156982000Y-110923600D01*
X141228800Y-64429580D02*
X142579800Y-61561580D01*
X142579800Y-71075380D02*
X141941600Y-71205580D01*
X139671800Y-69388180D02*
X139596800Y-68771780D01*
X155941400Y-110299680D02*
X155861000Y-110002380D01*
X156783400Y-110923600D02*
X156485000Y-110843300D01*
X128375060Y-110923600D02*
X128276319Y-110923600D01*
X129217060Y-110299680D02*
X128998980Y-110624100D01*
X129298460Y-109903620D02*
X129298460Y-110002380D01*
X139303800Y-68225181D02*
X139216000Y-68133980D01*
X145508400Y-69517380D02*
X146038800Y-72761780D01*
X156485000Y-108961800D02*
X156783400Y-108882581D01*
X139596800Y-68771780D02*
X139303800Y-68225181D01*
X139652200Y-69513980D02*
X139671800Y-69388180D01*
X143930600Y-64428380D02*
X143985999Y-64547580D01*
X143216599Y-71205580D02*
X142579800Y-71075380D01*
X156883000Y-110923600D02*
X156783400Y-110923600D01*
X148233800Y-65794580D02*
X145943400Y-68135980D01*
X155861000Y-110002380D02*
X155861000Y-109903620D01*
X140168600Y-65300580D02*
X140746000Y-65023980D01*
X128673460Y-110843300D02*
X128375060Y-110923600D01*
X155941400Y-109505400D02*
X156160600Y-109180960D01*
X143335000Y-71271780D02*
X143216599Y-71205580D01*
X129298460Y-110002380D02*
X129217060Y-110299680D01*
X155861000Y-109903620D02*
X155861000Y-109803800D01*
X145487800Y-69391580D02*
X145508400Y-69517380D01*
X145854400Y-68227380D02*
X145561400Y-68773980D01*
X145561400Y-68773980D02*
X145487800Y-69391580D01*
X145943400Y-68135980D02*
X145854400Y-68227380D01*
X145120000Y-65321580D02*
X148233800Y-65794580D01*
X129298460Y-109803800D02*
X129298460Y-109903620D01*
X129845340Y-84205980D02*
X126543460Y-86205580D01*
X127553680Y-110624100D02*
X127334480Y-110299680D01*
X127878080Y-110843300D02*
X127553680Y-110624100D01*
X116441462Y-108049240D02*
X116100750Y-108480020D01*
X128176479Y-110923600D02*
X127878080Y-110843300D01*
X122146759Y-113984580D02*
X122146759Y-113984580D01*
X123382640Y-95465780D02*
X122766340Y-95701180D01*
X121624840Y-113975880D02*
X122146759Y-113984580D01*
X120067760Y-113601540D02*
X121624840Y-113975880D01*
X123988120Y-99978580D02*
X124667360Y-100587220D01*
X127904140Y-90741180D02*
X128841640Y-91156780D01*
X116100750Y-108480020D02*
X116019370Y-109021460D01*
X116542376Y-107993900D02*
X116441462Y-108049240D01*
X124355959Y-101510600D02*
X121123540Y-104835260D01*
X126240720Y-93864180D02*
X123382640Y-95465780D01*
X133236180Y-81055980D02*
X132730540Y-81645180D01*
X128733120Y-91740580D02*
X126240720Y-93864180D01*
X132917140Y-80959180D02*
X133236180Y-81055980D01*
X125830560Y-86513980D02*
X125743760Y-86550580D01*
X125265260Y-87774781D02*
X125388960Y-88087380D01*
X129217060Y-109505400D02*
X129298460Y-109803800D01*
X128998980Y-109180960D02*
X129217060Y-109505400D01*
X124913680Y-100763000D02*
X124355959Y-101510600D01*
X128176479Y-108882581D02*
X128276319Y-108882581D01*
X125388960Y-88087380D02*
X125910860Y-88969181D01*
X125511560Y-86727580D02*
X125301060Y-87033780D01*
X127878080Y-108961800D02*
X128176479Y-108882581D01*
X128276319Y-110923600D02*
X128176479Y-110923600D01*
X122146759Y-96764580D02*
X122177140Y-96885980D01*
X116885256Y-111071160D02*
X118269800Y-112595680D01*
X128673460Y-108961800D02*
X128998980Y-109180960D01*
X127255260Y-109903620D02*
X127255260Y-109803800D01*
X128375060Y-108882581D02*
X128673460Y-108961800D01*
X127334480Y-110299680D02*
X127255260Y-110002380D01*
X116172365Y-109638880D02*
X116885256Y-111071160D01*
X132730540Y-81645180D02*
X129845340Y-84205980D01*
X123214480Y-99057180D02*
X123988120Y-99978580D01*
X122766340Y-95701180D02*
X122650219Y-95749980D01*
X117362686Y-107550100D02*
X116542376Y-107993900D01*
X122650219Y-95749980D02*
X122253080Y-96185180D01*
X125301060Y-87033780D02*
X125213180Y-87393980D01*
X122258540Y-97175780D02*
X122605760Y-98018781D01*
X122177140Y-96885980D02*
X122258540Y-97175780D01*
X125213180Y-87393980D02*
X125234860Y-87684581D01*
X132003540Y-80531780D02*
X132917140Y-80959180D01*
X121123540Y-104835260D02*
X117362686Y-107550100D01*
X116019370Y-109021460D02*
X116047582Y-109134320D01*
X122253080Y-96185180D02*
X122146759Y-96764580D01*
X124667360Y-100587220D02*
X124913680Y-100763000D01*
X128841640Y-91156780D02*
X129168260Y-91244781D01*
X128276319Y-108882581D02*
X128375060Y-108882581D01*
X118269800Y-112595680D02*
X120067760Y-113601540D01*
X127553680Y-109180960D02*
X127878080Y-108961800D01*
X127334480Y-109505400D02*
X127553680Y-109180960D01*
X122605760Y-98018781D02*
X123214480Y-99057180D01*
X125234860Y-87684581D02*
X125265260Y-87774781D01*
X127255260Y-109803800D02*
X127334480Y-109505400D01*
X126543460Y-86205580D02*
X125830560Y-86513980D01*
X127255260Y-110002380D02*
X127255260Y-109903620D01*
X116047582Y-109134320D02*
X116172365Y-109638880D01*
X126804939Y-89970980D02*
X127904140Y-90741180D01*
X129168260Y-91244781D02*
X128733120Y-91740580D01*
X125910860Y-88969181D02*
X126804939Y-89970980D01*
X125743760Y-86550580D02*
X125511560Y-86727580D01*
X149410200Y-63909781D02*
X145676400Y-63341180D01*
X150667800Y-64973180D02*
X150621000Y-64831980D01*
X155654800Y-77928780D02*
X155788400Y-77625180D01*
X150715600Y-65115180D02*
X150667800Y-64973180D01*
X155313000Y-84206980D02*
X152427800Y-81645180D01*
X155824200Y-77533781D02*
X155861000Y-77231980D01*
X145676400Y-63341180D02*
X144004400Y-59790580D01*
X134537180Y-64833180D02*
X134491580Y-64974180D01*
X150296600Y-66606180D02*
X150402000Y-66497580D01*
X130035200Y-78784780D02*
X130924980Y-79764780D01*
X137223800Y-71697380D02*
X136680200Y-72175580D01*
X129503540Y-77928780D02*
X130035200Y-78784780D01*
X129918040Y-76309780D02*
X129827980Y-76347780D01*
X134863780Y-66606980D02*
X137599200Y-69401180D01*
X155782800Y-76855580D02*
X155570200Y-76534581D01*
X152241000Y-80959180D02*
X153155800Y-80532980D01*
X143425000Y-59127780D02*
X142790199Y-58881580D01*
X152427800Y-81645180D02*
X151923400Y-81055980D01*
X134491580Y-64974180D02*
X134442760Y-65116180D01*
X155330200Y-76347780D02*
X155241400Y-76309780D01*
X153155800Y-80532980D02*
X154234400Y-79765980D01*
X134446040Y-65842380D02*
X134757420Y-66498780D01*
X142790199Y-58881580D02*
X142579800Y-58881580D01*
X150402000Y-66497580D02*
X150713400Y-65841180D01*
X147560200Y-69401180D02*
X150296600Y-66606180D01*
X129827980Y-76347780D02*
X129588180Y-76534581D01*
X129371140Y-77625180D02*
X129503540Y-77928780D01*
X129334260Y-77533781D02*
X129371140Y-77625180D01*
X129588180Y-76534581D02*
X129375480Y-76855580D01*
X151923400Y-81055980D02*
X152241000Y-80959180D01*
X154234400Y-79765980D02*
X155123000Y-78785980D01*
X137599200Y-69401180D02*
X137223800Y-71697380D01*
X134442760Y-65116180D02*
X134446040Y-65842380D01*
X141219000Y-59651780D02*
X141155000Y-59790580D01*
X142368200Y-58881580D02*
X141733399Y-59127780D01*
X142579800Y-58881580D02*
X142368200Y-58881580D01*
X155788400Y-77625180D02*
X155824200Y-77533781D01*
X129297360Y-77231980D02*
X129334260Y-77533781D01*
X134757420Y-66498780D02*
X134863780Y-66606980D01*
X136680200Y-72175580D02*
X133754840Y-74294780D01*
X141155000Y-59790580D02*
X139483000Y-63341180D01*
X155861000Y-77231980D02*
X155782800Y-76855580D01*
X129375480Y-76855580D02*
X129297360Y-77231980D01*
X149556600Y-63931580D02*
X149410200Y-63909781D01*
X130584260Y-76024580D02*
X129918040Y-76309780D01*
X148479200Y-72175580D02*
X147935600Y-71697380D01*
X151404600Y-74294780D02*
X148479200Y-72175580D01*
X154575200Y-76024580D02*
X151404600Y-74294780D01*
X150189400Y-64263380D02*
X149556600Y-63931580D01*
X141733399Y-59127780D02*
X141219000Y-59651780D01*
X150621000Y-64831980D02*
X150189400Y-64263380D01*
X155570200Y-76534581D02*
X155330200Y-76347780D01*
X134969040Y-64264580D02*
X134537180Y-64833180D01*
X135602700Y-63931580D02*
X134969040Y-64264580D01*
X139483000Y-63341180D02*
X135750280Y-63909781D01*
X150713400Y-65841180D02*
X150715600Y-65115180D01*
X135750280Y-63909781D02*
X135602700Y-63931580D01*
X147935600Y-71697380D02*
X147560200Y-69401180D01*
X155123000Y-78785980D02*
X155654800Y-77928780D01*
X130924980Y-79764780D02*
X132003540Y-80531780D01*
X133754840Y-74294780D02*
X130584260Y-76024580D01*
X143939400Y-59651780D02*
X143425000Y-59127780D01*
X155241400Y-76309780D02*
X154575200Y-76024580D01*
X144004400Y-59790580D02*
X143939400Y-59651780D01*
X159894200Y-87774781D02*
X159923600Y-87684581D01*
X168986999Y-109635600D02*
X169112000Y-109131040D01*
X169112000Y-109131040D02*
X169138800Y-109018220D01*
X162595000Y-113985660D02*
X163012800Y-113984580D01*
X149523000Y-116193760D02*
X151164600Y-117138880D01*
X163533600Y-113975880D02*
X165090599Y-113601540D01*
X159242000Y-88966180D02*
X159768400Y-88087380D01*
X157246600Y-90731580D02*
X158347000Y-89964180D01*
X155983600Y-91232780D02*
X156309200Y-91145980D01*
X161943800Y-99053980D02*
X162552400Y-98015580D01*
X157618800Y-112870220D02*
X158250200Y-112628241D01*
X155918600Y-117251720D02*
X156847200Y-115337660D01*
X161774800Y-95462380D02*
X158913400Y-93857580D01*
X162905200Y-96180780D02*
X162508000Y-95746780D01*
X169138800Y-109018220D02*
X169057400Y-108476760D01*
X168273000Y-111069000D02*
X168986999Y-109635600D01*
X163012800Y-96761180D02*
X162905200Y-96180780D01*
X162552400Y-98015580D02*
X162899600Y-97172580D01*
X163012800Y-113984580D02*
X163533600Y-113975880D01*
X156847200Y-115337660D02*
X157473400Y-113306400D01*
X152950800Y-117770380D02*
X154363600Y-118036220D01*
X154838800Y-118066600D02*
X154959200Y-118066600D01*
X157473400Y-113306400D02*
X157552400Y-112886500D01*
X168617000Y-107990660D02*
X167795600Y-107546860D01*
X159945200Y-87393980D02*
X159857200Y-87033780D01*
X156309200Y-91145980D02*
X157246600Y-90731580D01*
X156417400Y-91729780D02*
X155983600Y-91232780D01*
X155689400Y-117613040D02*
X155918600Y-117251720D01*
X158913400Y-93857580D02*
X156417400Y-91729780D01*
X160245800Y-100759740D02*
X160490800Y-100583960D01*
X154959200Y-118066600D02*
X155320600Y-117945080D01*
X154363600Y-118036220D02*
X154838800Y-118066600D01*
X148402200Y-115295320D02*
X149523000Y-116193760D01*
X159857200Y-87033780D02*
X159646600Y-86727580D01*
X162393000Y-95697980D02*
X161774800Y-95462380D01*
X162508000Y-95746780D02*
X162393000Y-95697980D01*
X161170200Y-99975180D02*
X161943800Y-99053980D01*
X167795600Y-107546860D02*
X164035799Y-104832020D01*
X168718000Y-108046000D02*
X168617000Y-107990660D01*
X166888600Y-112594600D02*
X168273000Y-111069000D01*
X165090599Y-113601540D02*
X166888600Y-112594600D01*
X160558400Y-113634100D02*
X162595000Y-113985660D01*
X158659400Y-112823540D02*
X160558400Y-113634100D01*
X158310000Y-112595680D02*
X158659400Y-112823540D01*
X155320600Y-117945080D02*
X155641600Y-117683580D01*
X151164600Y-117138880D02*
X152950800Y-117770380D01*
X148071400Y-114955720D02*
X148402200Y-115295320D01*
X162899600Y-97172580D02*
X162982200Y-96882780D01*
X158250200Y-112628241D02*
X158310000Y-112595680D01*
X160802399Y-101507360D02*
X160245800Y-100759740D01*
X164035799Y-104832020D02*
X160802399Y-101507360D01*
X169057400Y-108476760D02*
X168718000Y-108046000D01*
X147880200Y-115369120D02*
X148071400Y-114955720D01*
X155641600Y-117683580D02*
X155689400Y-117613040D01*
X159768400Y-88087380D02*
X159894200Y-87774781D01*
X158615000Y-86205580D02*
X155313000Y-84206980D01*
X157552400Y-112886500D02*
X157618800Y-112870220D01*
X158347000Y-89964180D02*
X159242000Y-88966180D01*
X160490800Y-100583960D02*
X161170200Y-99975180D01*
X162982200Y-96882780D02*
X163012800Y-96761180D01*
X159328800Y-86513980D02*
X158615000Y-86205580D01*
X159414400Y-86550580D02*
X159328800Y-86513980D01*
X159646600Y-86727580D02*
X159414400Y-86550580D01*
X159923600Y-87684581D02*
X159945200Y-87393980D01*
X142144600Y-120011048D02*
X142213000Y-120042517D01*
X137997400Y-116542080D02*
X139163800Y-117933140D01*
X141729999Y-119820078D02*
X142144600Y-120011048D01*
X139163800Y-117933140D02*
X140556000Y-119099592D01*
X136756200Y-115295320D02*
X137088200Y-114955720D01*
X135635260Y-116193760D02*
X136756200Y-115295320D01*
X132207540Y-117770380D02*
X133993540Y-117138880D01*
X129836640Y-117946160D02*
X130234860Y-118066600D01*
X124597920Y-113634100D02*
X126496820Y-112823540D01*
X130320580Y-118066600D02*
X130794760Y-118036220D01*
X127603560Y-112886500D02*
X127681700Y-113306400D01*
X127537400Y-112870220D02*
X127603560Y-112886500D01*
X126496820Y-112823540D02*
X126846200Y-112595680D01*
X137088200Y-114955720D02*
X137278000Y-115369120D01*
X130234860Y-118066600D02*
X130320580Y-118066600D01*
X129236580Y-117251720D02*
X129466640Y-117613040D01*
X129514360Y-117683580D02*
X129836640Y-117946160D01*
X140556000Y-119099592D02*
X141729999Y-119820078D01*
X129466640Y-117613040D02*
X129514360Y-117683580D01*
X147160800Y-116542080D02*
X147880200Y-115369120D01*
X145994400Y-117933140D02*
X147160800Y-116542080D01*
X144602200Y-119099592D02*
X145994400Y-117933140D01*
X143428200Y-119820078D02*
X144602200Y-119099592D01*
X142945400Y-120042517D02*
X143014800Y-120011048D01*
X137278000Y-115369120D02*
X137997400Y-116542080D01*
X128308860Y-115337660D02*
X129236580Y-117251720D01*
X122563420Y-113985660D02*
X124597920Y-113634100D01*
X127681700Y-113306400D02*
X128308860Y-115337660D01*
X126846200Y-112595680D02*
X126905859Y-112628241D01*
X143014800Y-120011048D02*
X143428200Y-119820078D01*
X133993540Y-117138880D02*
X135635260Y-116193760D01*
X130794760Y-118036220D02*
X132207540Y-117770380D01*
X122146759Y-113984580D02*
X122563420Y-113985660D01*
X126905859Y-112628241D02*
X127537400Y-112870220D01*
X142213000Y-120042517D02*
X142945400Y-120042517D01*
X154819400Y-107626080D02*
X154233400Y-108324860D01*
X157050800Y-104172540D02*
X158192200Y-103977240D01*
X155880000Y-103912120D02*
X156149000Y-104030400D01*
X156149000Y-104030400D02*
X157050800Y-104172540D01*
X153985000Y-108855440D02*
X153822200Y-109752800D01*
X154109600Y-108590680D02*
X153985000Y-108855440D01*
X154233400Y-108324860D02*
X154109600Y-108590680D01*
X155807800Y-107022760D02*
X154819400Y-107626080D01*
X118408700Y-109622600D02*
X118294760Y-109339380D01*
X125208820Y-109883020D02*
X125329260Y-110786880D01*
X119138960Y-108852180D02*
X122989860Y-105912740D01*
X126280859Y-102359140D02*
X126846200Y-101565960D01*
X125329260Y-110786880D02*
X125442120Y-111058120D01*
X122435399Y-111944620D02*
X122146759Y-111943540D01*
X123853560Y-111722220D02*
X122435399Y-111944620D01*
X120918460Y-111754740D02*
X119822540Y-111228500D01*
X118294760Y-109339380D02*
X119138960Y-108852180D01*
X118925200Y-110407100D02*
X118408700Y-109622600D01*
X119822540Y-111228500D02*
X118925200Y-110407100D01*
X126770220Y-107206140D02*
X126057340Y-107774720D01*
X125430180Y-108748020D02*
X125208820Y-109883020D01*
X121839680Y-111942460D02*
X120918460Y-111754740D01*
X122146759Y-111943540D02*
X121839680Y-111942460D01*
X125442120Y-111058120D02*
X125191460Y-111204640D01*
X127039340Y-107087880D02*
X126770220Y-107206140D01*
X126846200Y-101565960D02*
X126846200Y-101565960D01*
X122989860Y-105912740D02*
X126280859Y-102359140D01*
X126057340Y-107774720D02*
X125430180Y-108748020D01*
X125191460Y-111204640D02*
X123853560Y-111722220D01*
X145181600Y-115793380D02*
X144000000Y-117000000D01*
X146578400Y-113181621D02*
X146087800Y-114368680D01*
X154570800Y-111898000D02*
X155256600Y-112499100D01*
X147359400Y-111992380D02*
X146952400Y-112256040D01*
X147458400Y-111970680D02*
X147359400Y-111992380D01*
X155520200Y-112630400D02*
X155460600Y-112922300D01*
X146087800Y-114368680D02*
X145181600Y-115793380D01*
X137703400Y-111970680D02*
X137604600Y-111946820D01*
X148444400Y-112271240D02*
X148037400Y-112005400D01*
X127307340Y-106969600D02*
X127039340Y-107087880D01*
X134118340Y-114740860D02*
X132558000Y-115516680D01*
X128209040Y-106827460D02*
X127307340Y-106969600D01*
X131049760Y-108590680D02*
X130924980Y-108324860D01*
X131336200Y-109752800D02*
X131173460Y-108855440D01*
X130587500Y-111898000D02*
X131168040Y-110897540D01*
X155036400Y-114349160D02*
X154442800Y-115713080D01*
X142955200Y-117748680D02*
X142579800Y-117945080D01*
X130716640Y-115714180D02*
X130123120Y-114349160D01*
X137604600Y-111946820D02*
X137121799Y-112005400D01*
X154299400Y-115975680D02*
X153867800Y-115902960D01*
X136400200Y-112708520D02*
X135498540Y-113677500D01*
X136714800Y-112271240D02*
X136654200Y-112352620D01*
X142579800Y-117945080D02*
X142203200Y-117748680D01*
X148037400Y-112005400D02*
X147555800Y-111947900D01*
X148505200Y-112352620D02*
X148444400Y-112271240D01*
X130123120Y-114349160D02*
X129697760Y-112922300D01*
X129350540Y-107022760D02*
X128209040Y-106827460D01*
X130339039Y-107626080D02*
X129350540Y-107022760D01*
X131168040Y-110897540D02*
X131336200Y-109752800D01*
X129697760Y-112922300D02*
X129639180Y-112630400D01*
X153822200Y-109752800D02*
X153990200Y-110897540D01*
X135498540Y-113677500D02*
X134118340Y-114740860D01*
X137121799Y-112005400D02*
X136714800Y-112271240D01*
X139072800Y-114371940D02*
X138581200Y-113185960D01*
X141159400Y-117000000D02*
X139978800Y-115795540D01*
X142203200Y-117748680D02*
X141159400Y-117000000D01*
X155256600Y-112499100D02*
X155520200Y-112630400D01*
X129901760Y-112499100D02*
X130587500Y-111898000D01*
X136654200Y-112352620D02*
X136400200Y-112708520D01*
X132558000Y-115516680D02*
X131290640Y-115904040D01*
X138581200Y-113185960D02*
X138476000Y-112776880D01*
X155460600Y-112922300D02*
X155036400Y-114349160D01*
X130924980Y-108324860D02*
X130339039Y-107626080D01*
X146684400Y-112771460D02*
X146578400Y-113181621D01*
X130859860Y-115976760D02*
X130716640Y-115714180D01*
X149659600Y-113677500D02*
X148758000Y-112708520D01*
X151040000Y-114740860D02*
X149659600Y-113677500D01*
X152600200Y-115515600D02*
X151040000Y-114740860D01*
X146703000Y-112671640D02*
X146684400Y-112771460D01*
X139978800Y-115795540D02*
X139072800Y-114371940D01*
X146952400Y-112256040D02*
X146703000Y-112671640D01*
X154442800Y-115713080D02*
X154299400Y-115975680D01*
X137802200Y-111993460D02*
X137703400Y-111970680D01*
X138209000Y-112258220D02*
X137802200Y-111993460D01*
X138476000Y-112776880D02*
X138456400Y-112677081D01*
X147555800Y-111947900D02*
X147458400Y-111970680D01*
X138456400Y-112677081D02*
X138209000Y-112258220D01*
X148758000Y-112708520D02*
X148505200Y-112352620D01*
X153990200Y-110897540D02*
X154570800Y-111898000D01*
X131173460Y-108855440D02*
X131049760Y-108590680D01*
X129639180Y-112630400D02*
X129901760Y-112499100D01*
X131290640Y-115904040D02*
X130859860Y-115976760D01*
X153867800Y-115902960D02*
X152600200Y-115515600D01*
X144000000Y-117000000D02*
X142955200Y-117748680D01*
D13*
G04 #@! TO.C,G\u002A\u002A\u002A*
G36*
X139546750Y-53584447D02*
G01*
X139546750Y-53714750D01*
X138836262Y-53714750D01*
X138595483Y-53715501D01*
X138411039Y-53718036D01*
X138275782Y-53722775D01*
X138182561Y-53730139D01*
X138124228Y-53740548D01*
X138093633Y-53754424D01*
X138089290Y-53758710D01*
X138073415Y-53808867D01*
X138063642Y-53915226D01*
X138059844Y-54080186D01*
X138061590Y-54289627D01*
X138065221Y-54474986D01*
X138069471Y-54606993D01*
X138076037Y-54695786D01*
X138086615Y-54751502D01*
X138102899Y-54784280D01*
X138126587Y-54804258D01*
X138149750Y-54816698D01*
X138205111Y-54832124D01*
X138305251Y-54843631D01*
X138454976Y-54851485D01*
X138659093Y-54855948D01*
X138887937Y-54857281D01*
X139546750Y-54857750D01*
X139546750Y-55080000D01*
X138824437Y-55079302D01*
X138586514Y-55078565D01*
X138402895Y-55076435D01*
X138264386Y-55072259D01*
X138161795Y-55065382D01*
X138085929Y-55055151D01*
X138027597Y-55040912D01*
X137977605Y-55022010D01*
X137969749Y-55018501D01*
X137896409Y-54981802D01*
X137841740Y-54941331D01*
X137803014Y-54887677D01*
X137777503Y-54811429D01*
X137762478Y-54703174D01*
X137755211Y-54553503D01*
X137752974Y-54353002D01*
X137752875Y-54270375D01*
X137753040Y-54055384D01*
X137757799Y-53883505D01*
X137773543Y-53749795D01*
X137806663Y-53649313D01*
X137863550Y-53577118D01*
X137950597Y-53528268D01*
X138074195Y-53497821D01*
X138240736Y-53480836D01*
X138456611Y-53472371D01*
X138728211Y-53467485D01*
X138792687Y-53466455D01*
X139546749Y-53454145D01*
X139546750Y-53584447D01*
G37*
X139546750Y-53584447D02*
X139546750Y-53714750D01*
X138836262Y-53714750D01*
X138595483Y-53715501D01*
X138411039Y-53718036D01*
X138275782Y-53722775D01*
X138182561Y-53730139D01*
X138124228Y-53740548D01*
X138093633Y-53754424D01*
X138089290Y-53758710D01*
X138073415Y-53808867D01*
X138063642Y-53915226D01*
X138059844Y-54080186D01*
X138061590Y-54289627D01*
X138065221Y-54474986D01*
X138069471Y-54606993D01*
X138076037Y-54695786D01*
X138086615Y-54751502D01*
X138102899Y-54784280D01*
X138126587Y-54804258D01*
X138149750Y-54816698D01*
X138205111Y-54832124D01*
X138305251Y-54843631D01*
X138454976Y-54851485D01*
X138659093Y-54855948D01*
X138887937Y-54857281D01*
X139546750Y-54857750D01*
X139546750Y-55080000D01*
X138824437Y-55079302D01*
X138586514Y-55078565D01*
X138402895Y-55076435D01*
X138264386Y-55072259D01*
X138161795Y-55065382D01*
X138085929Y-55055151D01*
X138027597Y-55040912D01*
X137977605Y-55022010D01*
X137969749Y-55018501D01*
X137896409Y-54981802D01*
X137841740Y-54941331D01*
X137803014Y-54887677D01*
X137777503Y-54811429D01*
X137762478Y-54703174D01*
X137755211Y-54553503D01*
X137752974Y-54353002D01*
X137752875Y-54270375D01*
X137753040Y-54055384D01*
X137757799Y-53883505D01*
X137773543Y-53749795D01*
X137806663Y-53649313D01*
X137863550Y-53577118D01*
X137950597Y-53528268D01*
X138074195Y-53497821D01*
X138240736Y-53480836D01*
X138456611Y-53472371D01*
X138728211Y-53467485D01*
X138792687Y-53466455D01*
X139546749Y-53454145D01*
X139546750Y-53584447D01*
G36*
X140118250Y-55080000D02*
G01*
X139769000Y-55080000D01*
X139769000Y-54794250D01*
X140118250Y-54794250D01*
X140118250Y-55080000D01*
G37*
X140118250Y-55080000D02*
X139769000Y-55080000D01*
X139769000Y-54794250D01*
X140118250Y-54794250D01*
X140118250Y-55080000D01*
G36*
X141531487Y-53479693D02*
G01*
X141586402Y-53516312D01*
X141616164Y-53556621D01*
X141675669Y-53642758D01*
X141759975Y-53767367D01*
X141864136Y-53923086D01*
X141983209Y-54102557D01*
X142112250Y-54298420D01*
X142130310Y-54325937D01*
X142624973Y-55080000D01*
X142293125Y-55079876D01*
X141885728Y-54444938D01*
X141770599Y-54266847D01*
X141666303Y-54108062D01*
X141577818Y-53975957D01*
X141510124Y-53877905D01*
X141468201Y-53821280D01*
X141457103Y-53810183D01*
X141434615Y-53835740D01*
X141382863Y-53907410D01*
X141306855Y-54017845D01*
X141211597Y-54159701D01*
X141102099Y-54325631D01*
X141024191Y-54445183D01*
X140612507Y-55080000D01*
X140276388Y-55080000D01*
X140816750Y-54270375D01*
X140970253Y-54040984D01*
X141093182Y-53859218D01*
X141189795Y-53719608D01*
X141264350Y-53616684D01*
X141321106Y-53544978D01*
X141364321Y-53499020D01*
X141398253Y-53473342D01*
X141427160Y-53462474D01*
X141447134Y-53460750D01*
X141531487Y-53479693D01*
G37*
X141531487Y-53479693D02*
X141586402Y-53516312D01*
X141616164Y-53556621D01*
X141675669Y-53642758D01*
X141759975Y-53767367D01*
X141864136Y-53923086D01*
X141983209Y-54102557D01*
X142112250Y-54298420D01*
X142130310Y-54325937D01*
X142624973Y-55080000D01*
X142293125Y-55079876D01*
X141885728Y-54444938D01*
X141770599Y-54266847D01*
X141666303Y-54108062D01*
X141577818Y-53975957D01*
X141510124Y-53877905D01*
X141468201Y-53821280D01*
X141457103Y-53810183D01*
X141434615Y-53835740D01*
X141382863Y-53907410D01*
X141306855Y-54017845D01*
X141211597Y-54159701D01*
X141102099Y-54325631D01*
X141024191Y-54445183D01*
X140612507Y-55080000D01*
X140276388Y-55080000D01*
X140816750Y-54270375D01*
X140970253Y-54040984D01*
X141093182Y-53859218D01*
X141189795Y-53719608D01*
X141264350Y-53616684D01*
X141321106Y-53544978D01*
X141364321Y-53499020D01*
X141398253Y-53473342D01*
X141427160Y-53462474D01*
X141447134Y-53460750D01*
X141531487Y-53479693D01*
G36*
X143134500Y-55080000D02*
G01*
X142785250Y-55080000D01*
X142785250Y-54794250D01*
X143134500Y-54794250D01*
X143134500Y-55080000D01*
G37*
X143134500Y-55080000D02*
X142785250Y-55080000D01*
X142785250Y-54794250D01*
X143134500Y-54794250D01*
X143134500Y-55080000D01*
G36*
X145230000Y-53714750D02*
G01*
X144502017Y-53714750D01*
X144263039Y-53715302D01*
X144079693Y-53717297D01*
X143944118Y-53721239D01*
X143848453Y-53727630D01*
X143784836Y-53736976D01*
X143745407Y-53749782D01*
X143724142Y-53764642D01*
X143681938Y-53847030D01*
X143679681Y-53952712D01*
X143707117Y-54034337D01*
X143723082Y-54056579D01*
X143749742Y-54072708D01*
X143796384Y-54083697D01*
X143872292Y-54090520D01*
X143986753Y-54094150D01*
X144149053Y-54095561D01*
X144292929Y-54095750D01*
X144556256Y-54098009D01*
X144764278Y-54105712D01*
X144925063Y-54120245D01*
X145046676Y-54142994D01*
X145137184Y-54175345D01*
X145204653Y-54218685D01*
X145245132Y-54259407D01*
X145289422Y-54321508D01*
X145313803Y-54388946D01*
X145323817Y-54483412D01*
X145325250Y-54572942D01*
X145316032Y-54745510D01*
X145285169Y-54869053D01*
X145227842Y-54955776D01*
X145152381Y-55010943D01*
X145113609Y-55027704D01*
X145060284Y-55040941D01*
X144984539Y-55051195D01*
X144878508Y-55059009D01*
X144734323Y-55064926D01*
X144544116Y-55069488D01*
X144300021Y-55073237D01*
X144237812Y-55074013D01*
X143420250Y-55083902D01*
X143420250Y-54857750D01*
X144142562Y-54857281D01*
X144400999Y-54856641D01*
X144603027Y-54853805D01*
X144755736Y-54846844D01*
X144866216Y-54833825D01*
X144941558Y-54812818D01*
X144988852Y-54781891D01*
X145015188Y-54739112D01*
X145027656Y-54682551D01*
X145033090Y-54614711D01*
X145036235Y-54525360D01*
X145028497Y-54458751D01*
X145001946Y-54411547D01*
X144948657Y-54380408D01*
X144860701Y-54361998D01*
X144730152Y-54352979D01*
X144549081Y-54350013D01*
X144403794Y-54349750D01*
X144142684Y-54347363D01*
X143936787Y-54339253D01*
X143777961Y-54323995D01*
X143658067Y-54300165D01*
X143568962Y-54266337D01*
X143502505Y-54221087D01*
X143468617Y-54186092D01*
X143420276Y-54115741D01*
X143395998Y-54036973D01*
X143388598Y-53924419D01*
X143388500Y-53903314D01*
X143393177Y-53787674D01*
X143412384Y-53709973D01*
X143453882Y-53645011D01*
X143475812Y-53619848D01*
X143527544Y-53572837D01*
X143592445Y-53535786D01*
X143678080Y-53507592D01*
X143792015Y-53487154D01*
X143941815Y-53473369D01*
X144135045Y-53465135D01*
X144379271Y-53461348D01*
X144567583Y-53460750D01*
X145230000Y-53460750D01*
X145230000Y-53714750D01*
G37*
X145230000Y-53714750D02*
X144502017Y-53714750D01*
X144263039Y-53715302D01*
X144079693Y-53717297D01*
X143944118Y-53721239D01*
X143848453Y-53727630D01*
X143784836Y-53736976D01*
X143745407Y-53749782D01*
X143724142Y-53764642D01*
X143681938Y-53847030D01*
X143679681Y-53952712D01*
X143707117Y-54034337D01*
X143723082Y-54056579D01*
X143749742Y-54072708D01*
X143796384Y-54083697D01*
X143872292Y-54090520D01*
X143986753Y-54094150D01*
X144149053Y-54095561D01*
X144292929Y-54095750D01*
X144556256Y-54098009D01*
X144764278Y-54105712D01*
X144925063Y-54120245D01*
X145046676Y-54142994D01*
X145137184Y-54175345D01*
X145204653Y-54218685D01*
X145245132Y-54259407D01*
X145289422Y-54321508D01*
X145313803Y-54388946D01*
X145323817Y-54483412D01*
X145325250Y-54572942D01*
X145316032Y-54745510D01*
X145285169Y-54869053D01*
X145227842Y-54955776D01*
X145152381Y-55010943D01*
X145113609Y-55027704D01*
X145060284Y-55040941D01*
X144984539Y-55051195D01*
X144878508Y-55059009D01*
X144734323Y-55064926D01*
X144544116Y-55069488D01*
X144300021Y-55073237D01*
X144237812Y-55074013D01*
X143420250Y-55083902D01*
X143420250Y-54857750D01*
X144142562Y-54857281D01*
X144400999Y-54856641D01*
X144603027Y-54853805D01*
X144755736Y-54846844D01*
X144866216Y-54833825D01*
X144941558Y-54812818D01*
X144988852Y-54781891D01*
X145015188Y-54739112D01*
X145027656Y-54682551D01*
X145033090Y-54614711D01*
X145036235Y-54525360D01*
X145028497Y-54458751D01*
X145001946Y-54411547D01*
X144948657Y-54380408D01*
X144860701Y-54361998D01*
X144730152Y-54352979D01*
X144549081Y-54350013D01*
X144403794Y-54349750D01*
X144142684Y-54347363D01*
X143936787Y-54339253D01*
X143777961Y-54323995D01*
X143658067Y-54300165D01*
X143568962Y-54266337D01*
X143502505Y-54221087D01*
X143468617Y-54186092D01*
X143420276Y-54115741D01*
X143395998Y-54036973D01*
X143388598Y-53924419D01*
X143388500Y-53903314D01*
X143393177Y-53787674D01*
X143412384Y-53709973D01*
X143453882Y-53645011D01*
X143475812Y-53619848D01*
X143527544Y-53572837D01*
X143592445Y-53535786D01*
X143678080Y-53507592D01*
X143792015Y-53487154D01*
X143941815Y-53473369D01*
X144135045Y-53465135D01*
X144379271Y-53461348D01*
X144567583Y-53460750D01*
X145230000Y-53460750D01*
X145230000Y-53714750D01*
G36*
X145865000Y-55080000D02*
G01*
X145515750Y-55080000D01*
X145515750Y-54794250D01*
X145865000Y-54794250D01*
X145865000Y-55080000D01*
G37*
X145865000Y-55080000D02*
X145515750Y-55080000D01*
X145515750Y-54794250D01*
X145865000Y-54794250D01*
X145865000Y-55080000D01*
G36*
X147000062Y-53468151D02*
G01*
X147817625Y-53476625D01*
X147827479Y-53595687D01*
X147837333Y-53714750D01*
X146465219Y-53714750D01*
X146474672Y-53913187D01*
X146484125Y-54111625D01*
X147129024Y-54120226D01*
X147773924Y-54128827D01*
X147764024Y-54231351D01*
X147754125Y-54333875D01*
X147111187Y-54342469D01*
X146468250Y-54351064D01*
X146468250Y-54857750D01*
X147833500Y-54857750D01*
X147833500Y-55080000D01*
X146182500Y-55080000D01*
X146182500Y-53459677D01*
X147000062Y-53468151D01*
G37*
X147000062Y-53468151D02*
X147817625Y-53476625D01*
X147827479Y-53595687D01*
X147837333Y-53714750D01*
X146465219Y-53714750D01*
X146474672Y-53913187D01*
X146484125Y-54111625D01*
X147129024Y-54120226D01*
X147773924Y-54128827D01*
X147764024Y-54231351D01*
X147754125Y-54333875D01*
X147111187Y-54342469D01*
X146468250Y-54351064D01*
X146468250Y-54857750D01*
X147833500Y-54857750D01*
X147833500Y-55080000D01*
X146182500Y-55080000D01*
X146182500Y-53459677D01*
X147000062Y-53468151D01*
G36*
X142381000Y-45280505D02*
G01*
X142382062Y-45422326D01*
X142386754Y-45512259D01*
X142397332Y-45561899D01*
X142416055Y-45582845D01*
X142440612Y-45586750D01*
X142505431Y-45604445D01*
X142550275Y-45663934D01*
X142581489Y-45774819D01*
X142587472Y-45809000D01*
X142625826Y-45973949D01*
X142679250Y-46077565D01*
X142750535Y-46120815D01*
X142842473Y-46104668D01*
X142957856Y-46030091D01*
X143033305Y-45963589D01*
X143205559Y-45800678D01*
X143372717Y-45902493D01*
X143480706Y-45971262D01*
X143580922Y-46040006D01*
X143630888Y-46077484D01*
X143721901Y-46150662D01*
X143654700Y-46330272D01*
X143602905Y-46493506D01*
X143590084Y-46609565D01*
X143618616Y-46683167D01*
X143690883Y-46719034D01*
X143809266Y-46721884D01*
X143850031Y-46717532D01*
X143994122Y-46699149D01*
X144089978Y-46692363D01*
X144152692Y-46704074D01*
X144197355Y-46741183D01*
X144239058Y-46810588D01*
X144292894Y-46919191D01*
X144293421Y-46920250D01*
X144348373Y-47036433D01*
X144389936Y-47135346D01*
X144411137Y-47200009D01*
X144412483Y-47210122D01*
X144388867Y-47254187D01*
X144326447Y-47320041D01*
X144238717Y-47393455D01*
X144238375Y-47393713D01*
X144139949Y-47473776D01*
X144085753Y-47535602D01*
X144065062Y-47592774D01*
X144063750Y-47614857D01*
X144076343Y-47687425D01*
X144120642Y-47747753D01*
X144206426Y-47804364D01*
X144343474Y-47865781D01*
X144358545Y-47871792D01*
X144542216Y-47944524D01*
X144521132Y-48130887D01*
X144500047Y-48317250D01*
X144698750Y-48317250D01*
X144698750Y-52413000D01*
X144444750Y-52413000D01*
X144444750Y-48539500D01*
X142127000Y-48539500D01*
X142127000Y-48317250D01*
X142381000Y-48317250D01*
X142710487Y-48317250D01*
X142867148Y-48315320D01*
X142972304Y-48308434D01*
X143037863Y-48294942D01*
X143075736Y-48273197D01*
X143082732Y-48265730D01*
X143110069Y-48199728D01*
X143128848Y-48090100D01*
X143138128Y-47956264D01*
X143136969Y-47817636D01*
X143124432Y-47693631D01*
X143112985Y-47640947D01*
X143029435Y-47451494D01*
X142896149Y-47278325D01*
X142726828Y-47134937D01*
X142535176Y-47034832D01*
X142478925Y-47016267D01*
X142381000Y-46988182D01*
X142381000Y-48317250D01*
X142127000Y-48317250D01*
X142127000Y-45237500D01*
X141941578Y-45237500D01*
X141635395Y-45267157D01*
X141327291Y-45352080D01*
X141031761Y-45486191D01*
X140763303Y-45663416D01*
X140616050Y-45793035D01*
X140483202Y-45936082D01*
X140375486Y-46082073D01*
X140289739Y-46240351D01*
X140222802Y-46420259D01*
X140171511Y-46631139D01*
X140132705Y-46882333D01*
X140103222Y-47183184D01*
X140091846Y-47341948D01*
X140072210Y-47605476D01*
X140049303Y-47820372D01*
X140019666Y-48001507D01*
X139979843Y-48163749D01*
X139926376Y-48321968D01*
X139855807Y-48491033D01*
X139793182Y-48626319D01*
X139727005Y-48769548D01*
X139672359Y-48895455D01*
X139634552Y-48991249D01*
X139618893Y-49044138D01*
X139618750Y-49046608D01*
X139649370Y-49118355D01*
X139740463Y-49204360D01*
X139890877Y-49303562D01*
X139909718Y-49314502D01*
X140016788Y-49385260D01*
X140092145Y-49463030D01*
X140144295Y-49562846D01*
X140181746Y-49699743D01*
X140205528Y-49837278D01*
X140240841Y-50046742D01*
X140278234Y-50206490D01*
X140322577Y-50330243D01*
X140378739Y-50431726D01*
X140447990Y-50520588D01*
X140604508Y-50654555D01*
X140816824Y-50763776D01*
X141085761Y-50848525D01*
X141412142Y-50909077D01*
X141706312Y-50939625D01*
X142000000Y-50961610D01*
X142000000Y-52413000D01*
X141747371Y-52413000D01*
X141730125Y-51192872D01*
X141444375Y-51157356D01*
X141139241Y-51111091D01*
X140887168Y-51053148D01*
X140678229Y-50979898D01*
X140502495Y-50887716D01*
X140350041Y-50772975D01*
X140321627Y-50747147D01*
X140188750Y-50596670D01*
X140092027Y-50422371D01*
X140024749Y-50210075D01*
X139995727Y-50058583D01*
X139967574Y-49883758D01*
X139942871Y-49759014D01*
X139915152Y-49671711D01*
X139877950Y-49609208D01*
X139824797Y-49558865D01*
X139749226Y-49508043D01*
X139698007Y-49476672D01*
X139570650Y-49391085D01*
X139486349Y-49311705D01*
X139428613Y-49222693D01*
X139424167Y-49213690D01*
X139390000Y-49129890D01*
X139375732Y-49049569D01*
X139383697Y-48960777D01*
X139416228Y-48851566D01*
X139475660Y-48709986D01*
X139555274Y-48542568D01*
X139641472Y-48360267D01*
X139706321Y-48204187D01*
X139753754Y-48058232D01*
X139787708Y-47906304D01*
X139812116Y-47732309D01*
X139830912Y-47520149D01*
X139840689Y-47374924D01*
X139869020Y-47015047D01*
X139907075Y-46709732D01*
X139957955Y-46450387D01*
X140024762Y-46228420D01*
X140110598Y-46035239D01*
X140218565Y-45862252D01*
X140351765Y-45700867D01*
X140496796Y-45557510D01*
X140701502Y-45397867D01*
X140945792Y-45251811D01*
X141205757Y-45132243D01*
X141412625Y-45063342D01*
X141522651Y-45041153D01*
X141674663Y-45020151D01*
X141847159Y-45002934D01*
X141992062Y-44993303D01*
X142381000Y-44974261D01*
X142381000Y-45280505D01*
G37*
X142381000Y-45280505D02*
X142382062Y-45422326D01*
X142386754Y-45512259D01*
X142397332Y-45561899D01*
X142416055Y-45582845D01*
X142440612Y-45586750D01*
X142505431Y-45604445D01*
X142550275Y-45663934D01*
X142581489Y-45774819D01*
X142587472Y-45809000D01*
X142625826Y-45973949D01*
X142679250Y-46077565D01*
X142750535Y-46120815D01*
X142842473Y-46104668D01*
X142957856Y-46030091D01*
X143033305Y-45963589D01*
X143205559Y-45800678D01*
X143372717Y-45902493D01*
X143480706Y-45971262D01*
X143580922Y-46040006D01*
X143630888Y-46077484D01*
X143721901Y-46150662D01*
X143654700Y-46330272D01*
X143602905Y-46493506D01*
X143590084Y-46609565D01*
X143618616Y-46683167D01*
X143690883Y-46719034D01*
X143809266Y-46721884D01*
X143850031Y-46717532D01*
X143994122Y-46699149D01*
X144089978Y-46692363D01*
X144152692Y-46704074D01*
X144197355Y-46741183D01*
X144239058Y-46810588D01*
X144292894Y-46919191D01*
X144293421Y-46920250D01*
X144348373Y-47036433D01*
X144389936Y-47135346D01*
X144411137Y-47200009D01*
X144412483Y-47210122D01*
X144388867Y-47254187D01*
X144326447Y-47320041D01*
X144238717Y-47393455D01*
X144238375Y-47393713D01*
X144139949Y-47473776D01*
X144085753Y-47535602D01*
X144065062Y-47592774D01*
X144063750Y-47614857D01*
X144076343Y-47687425D01*
X144120642Y-47747753D01*
X144206426Y-47804364D01*
X144343474Y-47865781D01*
X144358545Y-47871792D01*
X144542216Y-47944524D01*
X144521132Y-48130887D01*
X144500047Y-48317250D01*
X144698750Y-48317250D01*
X144698750Y-52413000D01*
X144444750Y-52413000D01*
X144444750Y-48539500D01*
X142127000Y-48539500D01*
X142127000Y-48317250D01*
X142381000Y-48317250D01*
X142710487Y-48317250D01*
X142867148Y-48315320D01*
X142972304Y-48308434D01*
X143037863Y-48294942D01*
X143075736Y-48273197D01*
X143082732Y-48265730D01*
X143110069Y-48199728D01*
X143128848Y-48090100D01*
X143138128Y-47956264D01*
X143136969Y-47817636D01*
X143124432Y-47693631D01*
X143112985Y-47640947D01*
X143029435Y-47451494D01*
X142896149Y-47278325D01*
X142726828Y-47134937D01*
X142535176Y-47034832D01*
X142478925Y-47016267D01*
X142381000Y-46988182D01*
X142381000Y-48317250D01*
X142127000Y-48317250D01*
X142127000Y-45237500D01*
X141941578Y-45237500D01*
X141635395Y-45267157D01*
X141327291Y-45352080D01*
X141031761Y-45486191D01*
X140763303Y-45663416D01*
X140616050Y-45793035D01*
X140483202Y-45936082D01*
X140375486Y-46082073D01*
X140289739Y-46240351D01*
X140222802Y-46420259D01*
X140171511Y-46631139D01*
X140132705Y-46882333D01*
X140103222Y-47183184D01*
X140091846Y-47341948D01*
X140072210Y-47605476D01*
X140049303Y-47820372D01*
X140019666Y-48001507D01*
X139979843Y-48163749D01*
X139926376Y-48321968D01*
X139855807Y-48491033D01*
X139793182Y-48626319D01*
X139727005Y-48769548D01*
X139672359Y-48895455D01*
X139634552Y-48991249D01*
X139618893Y-49044138D01*
X139618750Y-49046608D01*
X139649370Y-49118355D01*
X139740463Y-49204360D01*
X139890877Y-49303562D01*
X139909718Y-49314502D01*
X140016788Y-49385260D01*
X140092145Y-49463030D01*
X140144295Y-49562846D01*
X140181746Y-49699743D01*
X140205528Y-49837278D01*
X140240841Y-50046742D01*
X140278234Y-50206490D01*
X140322577Y-50330243D01*
X140378739Y-50431726D01*
X140447990Y-50520588D01*
X140604508Y-50654555D01*
X140816824Y-50763776D01*
X141085761Y-50848525D01*
X141412142Y-50909077D01*
X141706312Y-50939625D01*
X142000000Y-50961610D01*
X142000000Y-52413000D01*
X141747371Y-52413000D01*
X141730125Y-51192872D01*
X141444375Y-51157356D01*
X141139241Y-51111091D01*
X140887168Y-51053148D01*
X140678229Y-50979898D01*
X140502495Y-50887716D01*
X140350041Y-50772975D01*
X140321627Y-50747147D01*
X140188750Y-50596670D01*
X140092027Y-50422371D01*
X140024749Y-50210075D01*
X139995727Y-50058583D01*
X139967574Y-49883758D01*
X139942871Y-49759014D01*
X139915152Y-49671711D01*
X139877950Y-49609208D01*
X139824797Y-49558865D01*
X139749226Y-49508043D01*
X139698007Y-49476672D01*
X139570650Y-49391085D01*
X139486349Y-49311705D01*
X139428613Y-49222693D01*
X139424167Y-49213690D01*
X139390000Y-49129890D01*
X139375732Y-49049569D01*
X139383697Y-48960777D01*
X139416228Y-48851566D01*
X139475660Y-48709986D01*
X139555274Y-48542568D01*
X139641472Y-48360267D01*
X139706321Y-48204187D01*
X139753754Y-48058232D01*
X139787708Y-47906304D01*
X139812116Y-47732309D01*
X139830912Y-47520149D01*
X139840689Y-47374924D01*
X139869020Y-47015047D01*
X139907075Y-46709732D01*
X139957955Y-46450387D01*
X140024762Y-46228420D01*
X140110598Y-46035239D01*
X140218565Y-45862252D01*
X140351765Y-45700867D01*
X140496796Y-45557510D01*
X140701502Y-45397867D01*
X140945792Y-45251811D01*
X141205757Y-45132243D01*
X141412625Y-45063342D01*
X141522651Y-45041153D01*
X141674663Y-45020151D01*
X141847159Y-45002934D01*
X141992062Y-44993303D01*
X142381000Y-44974261D01*
X142381000Y-45280505D01*
D14*
G04 #@! TO.C,MK1*
X114400000Y-132200000D02*
X114400000Y-132200000D01*
X114400000Y-132000000D02*
X114400000Y-132000000D01*
X109000000Y-138120000D02*
X109000000Y-138120000D01*
X109000000Y-128420000D02*
X109000000Y-128420000D01*
X109000000Y-138120000D02*
G75*
G02*
X109000000Y-128420000I0J4850000D01*
G01*
X109000000Y-128420000D02*
G75*
G02*
X109000000Y-138120000I0J-4850000D01*
G01*
X114400000Y-132200000D02*
G75*
G02*
X114400000Y-132000000I0J100000D01*
G01*
X114400000Y-132000000D02*
G75*
G02*
X114400000Y-132200000I0J-100000D01*
G01*
D15*
G04 #@! TO.C,J1*
X104100000Y-115160000D02*
X104100000Y-115660000D01*
X104840000Y-115160000D02*
X104100000Y-115160000D01*
X107977000Y-121853000D02*
X107931000Y-121806000D01*
X110275000Y-124150000D02*
X110239000Y-124115000D01*
X107761000Y-122046000D02*
X107726000Y-122011000D01*
X110069000Y-124355000D02*
X110023000Y-124308000D01*
X114261000Y-125680000D02*
X104340000Y-125680000D01*
X114261000Y-115400000D02*
X104340000Y-115400000D01*
X104340000Y-115400000D02*
X104340000Y-125680000D01*
X114261000Y-115400000D02*
X114261000Y-125680000D01*
X111301000Y-115400000D02*
X111301000Y-125680000D01*
X106400000Y-115400000D02*
X106400000Y-125680000D01*
X104900000Y-115400000D02*
X104900000Y-125680000D01*
X110680000Y-123080000D02*
G75*
G03*
X110680000Y-123080000I-1680000J0D01*
G01*
X107319747Y-118028805D02*
G75*
G02*
X107465000Y-117316000I1680253J28805D01*
G01*
X108316958Y-116464574D02*
G75*
G02*
X109684000Y-116465000I683042J-1535426D01*
G01*
X110535426Y-117316958D02*
G75*
G02*
X110535000Y-118684000I-1535426J-683042D01*
G01*
X109683042Y-119535426D02*
G75*
G02*
X108316000Y-119535000I-683042J1535426D01*
G01*
X107465244Y-118683318D02*
G75*
G02*
X107320000Y-118000000I1534756J683318D01*
G01*
G04 #@! TO.C,C5*
X120261252Y-115265000D02*
X119738748Y-115265000D01*
X120261252Y-116735000D02*
X119738748Y-116735000D01*
G04 #@! TO.C,C1*
X116738748Y-131265000D02*
X117261252Y-131265000D01*
X116738748Y-132735000D02*
X117261252Y-132735000D01*
G04 #@! TO.C,C2*
X121265000Y-135738748D02*
X121265000Y-136261252D01*
X122735000Y-135738748D02*
X122735000Y-136261252D01*
G04 #@! TO.C,C3*
X122223752Y-123265000D02*
X121701248Y-123265000D01*
X122223752Y-124735000D02*
X121701248Y-124735000D01*
G04 #@! TO.C,C4*
X141776248Y-131265000D02*
X142298752Y-131265000D01*
X141776248Y-132735000D02*
X142298752Y-132735000D01*
G04 #@! TO.C,D1*
X140250000Y-125000000D02*
X136350000Y-125000000D01*
X140250000Y-123000000D02*
X136350000Y-123000000D01*
X140250000Y-125000000D02*
X140250000Y-123000000D01*
G04 #@! TO.C,D2*
X144860000Y-67040000D02*
X142000000Y-67040000D01*
X144860000Y-68960000D02*
X144860000Y-67040000D01*
X142000000Y-68960000D02*
X144860000Y-68960000D01*
G04 #@! TO.C,D3*
X141975000Y-77960000D02*
X144835000Y-77960000D01*
X144835000Y-77960000D02*
X144835000Y-76040000D01*
X144835000Y-76040000D02*
X141975000Y-76040000D01*
G04 #@! TO.C,D4*
X150860000Y-84040000D02*
X148000000Y-84040000D01*
X150860000Y-85960000D02*
X150860000Y-84040000D01*
X148000000Y-85960000D02*
X150860000Y-85960000D01*
G04 #@! TO.C,D5*
X136000000Y-85960000D02*
X138860000Y-85960000D01*
X138860000Y-85960000D02*
X138860000Y-84040000D01*
X138860000Y-84040000D02*
X136000000Y-84040000D01*
G04 #@! TO.C,D6*
X149975000Y-94960000D02*
X152835000Y-94960000D01*
X152835000Y-94960000D02*
X152835000Y-93040000D01*
X152835000Y-93040000D02*
X149975000Y-93040000D01*
G04 #@! TO.C,D7*
X136860000Y-93040000D02*
X134000000Y-93040000D01*
X136860000Y-94960000D02*
X136860000Y-93040000D01*
X134000000Y-94960000D02*
X136860000Y-94960000D01*
G04 #@! TO.C,D8*
X156025000Y-105960000D02*
X158885000Y-105960000D01*
X158885000Y-105960000D02*
X158885000Y-104040000D01*
X158885000Y-104040000D02*
X156025000Y-104040000D01*
G04 #@! TO.C,D9*
X130860000Y-104040000D02*
X128000000Y-104040000D01*
X130860000Y-105960000D02*
X130860000Y-104040000D01*
X128000000Y-105960000D02*
X130860000Y-105960000D01*
G04 #@! TO.C,J2*
X122330000Y-117670000D02*
X122330000Y-119000000D01*
X121000000Y-117670000D02*
X122330000Y-117670000D01*
X119730000Y-117670000D02*
X119730000Y-120330000D01*
X119730000Y-120330000D02*
X117130000Y-120330000D01*
X119730000Y-117670000D02*
X117130000Y-117670000D01*
X117130000Y-117670000D02*
X117130000Y-120330000D01*
G04 #@! TO.C,Q1*
X133580000Y-123240000D02*
X133580000Y-124700000D01*
X130420000Y-123240000D02*
X130420000Y-125400000D01*
X130420000Y-123240000D02*
X131350000Y-123240000D01*
X133580000Y-123240000D02*
X132650000Y-123240000D01*
G04 #@! TO.C,R1*
X116772936Y-127265000D02*
X117227064Y-127265000D01*
X116772936Y-128735000D02*
X117227064Y-128735000D01*
G04 #@! TO.C,R2*
X132772936Y-136735000D02*
X133227064Y-136735000D01*
X132772936Y-135265000D02*
X133227064Y-135265000D01*
G04 #@! TO.C,R3*
X126772936Y-135265000D02*
X127227064Y-135265000D01*
X126772936Y-136735000D02*
X127227064Y-136735000D01*
G04 #@! TO.C,R4*
X121772936Y-131265000D02*
X122227064Y-131265000D01*
X121772936Y-132735000D02*
X122227064Y-132735000D01*
G04 #@! TO.C,R5*
X122227064Y-127265000D02*
X121772936Y-127265000D01*
X122227064Y-128735000D02*
X121772936Y-128735000D01*
G04 #@! TO.C,R6*
X117227064Y-124735000D02*
X116772936Y-124735000D01*
X117227064Y-123265000D02*
X116772936Y-123265000D01*
G04 #@! TO.C,R7*
X127227064Y-123265000D02*
X126772936Y-123265000D01*
X127227064Y-124735000D02*
X126772936Y-124735000D01*
G04 #@! TO.C,R8*
X136772936Y-127265000D02*
X137227064Y-127265000D01*
X136772936Y-128735000D02*
X137227064Y-128735000D01*
G04 #@! TO.C,R9*
X141772936Y-127265000D02*
X142227064Y-127265000D01*
X141772936Y-128735000D02*
X142227064Y-128735000D01*
G04 #@! TO.C,R10*
X177227064Y-135265000D02*
X176772936Y-135265000D01*
X177227064Y-136735000D02*
X176772936Y-136735000D01*
G04 #@! TO.C,R11*
X171227064Y-136735000D02*
X170772936Y-136735000D01*
X171227064Y-135265000D02*
X170772936Y-135265000D01*
G04 #@! TO.C,R12*
X171227064Y-131265000D02*
X170772936Y-131265000D01*
X171227064Y-132735000D02*
X170772936Y-132735000D01*
G04 #@! TO.C,R13*
X165227064Y-132735000D02*
X164772936Y-132735000D01*
X165227064Y-131265000D02*
X164772936Y-131265000D01*
G04 #@! TO.C,R14*
X165227064Y-135265000D02*
X164772936Y-135265000D01*
X165227064Y-136735000D02*
X164772936Y-136735000D01*
G04 #@! TO.C,R15*
X159227064Y-135265000D02*
X158772936Y-135265000D01*
X159227064Y-136735000D02*
X158772936Y-136735000D01*
G04 #@! TO.C,R16*
X159227064Y-132735000D02*
X158772936Y-132735000D01*
X159227064Y-131265000D02*
X158772936Y-131265000D01*
G04 #@! TO.C,R17*
X153227064Y-131265000D02*
X152772936Y-131265000D01*
X153227064Y-132735000D02*
X152772936Y-132735000D01*
G04 #@! TO.C,R18*
X153227064Y-135265000D02*
X152772936Y-135265000D01*
X153227064Y-136735000D02*
X152772936Y-136735000D01*
D16*
G04 #@! TO.C,RN1*
X161100000Y-120050000D02*
X161100000Y-119450000D01*
X164900000Y-120050000D02*
X164900000Y-119450000D01*
X164825000Y-118550000D02*
X164825000Y-118550000D01*
X164925000Y-118550000D02*
X164925000Y-118550000D01*
X164825000Y-118550000D02*
G75*
G02*
X164925000Y-118550000I50000J0D01*
G01*
X164925000Y-118550000D02*
G75*
G02*
X164825000Y-118550000I-50000J0D01*
G01*
D15*
G04 #@! TO.C,RV1*
X138655000Y-138530000D02*
X138655000Y-133460000D01*
X148425000Y-138530000D02*
X148425000Y-133460000D01*
X148425000Y-133460000D02*
X138655000Y-133460000D01*
X148425000Y-138530000D02*
X138655000Y-138530000D01*
G04 #@! TO.C,U1*
X130000000Y-127440000D02*
X126550000Y-127440000D01*
X130000000Y-127440000D02*
X131950000Y-127440000D01*
X130000000Y-132560000D02*
X128050000Y-132560000D01*
X130000000Y-132560000D02*
X131950000Y-132560000D01*
G04 #@! TO.C,U2*
X176000000Y-128560000D02*
X177950000Y-128560000D01*
X176000000Y-128560000D02*
X174050000Y-128560000D01*
X176000000Y-123440000D02*
X177950000Y-123440000D01*
X176000000Y-123440000D02*
X172550000Y-123440000D01*
G04 #@! TO.C,U3*
X167000000Y-123440000D02*
X163550000Y-123440000D01*
X167000000Y-123440000D02*
X168950000Y-123440000D01*
X167000000Y-128560000D02*
X165050000Y-128560000D01*
X167000000Y-128560000D02*
X168950000Y-128560000D01*
G04 #@! TO.C,U4*
X158000000Y-123440000D02*
X154550000Y-123440000D01*
X158000000Y-123440000D02*
X159950000Y-123440000D01*
X158000000Y-128560000D02*
X156050000Y-128560000D01*
X158000000Y-128560000D02*
X159950000Y-128560000D01*
G04 #@! TO.C,U5*
X149000000Y-128560000D02*
X150950000Y-128560000D01*
X149000000Y-128560000D02*
X147050000Y-128560000D01*
X149000000Y-123440000D02*
X150950000Y-123440000D01*
X149000000Y-123440000D02*
X145550000Y-123440000D01*
G04 #@! TO.C,MK1*
D17*
X107536904Y-133844523D02*
X107536904Y-132574523D01*
X107960238Y-133481666D01*
X108383571Y-132574523D01*
X108383571Y-133844523D01*
X108988333Y-133844523D02*
X108988333Y-132574523D01*
X109714047Y-133844523D02*
X109169761Y-133118809D01*
X109714047Y-132574523D02*
X108988333Y-133300238D01*
X110923571Y-133844523D02*
X110197857Y-133844523D01*
X110560714Y-133844523D02*
X110560714Y-132574523D01*
X110439761Y-132755952D01*
X110318809Y-132876904D01*
X110197857Y-132937380D01*
G04 #@! TO.C,J1*
D10*
X104666666Y-113452380D02*
X104666666Y-114166666D01*
X104619047Y-114309523D01*
X104523809Y-114404761D01*
X104380952Y-114452380D01*
X104285714Y-114452380D01*
X105666666Y-114452380D02*
X105095238Y-114452380D01*
X105380952Y-114452380D02*
X105380952Y-113452380D01*
X105285714Y-113595238D01*
X105190476Y-113690476D01*
X105095238Y-113738095D01*
G04 #@! TO.C,C5*
X115833333Y-116357142D02*
X115785714Y-116404761D01*
X115642857Y-116452380D01*
X115547619Y-116452380D01*
X115404761Y-116404761D01*
X115309523Y-116309523D01*
X115261904Y-116214285D01*
X115214285Y-116023809D01*
X115214285Y-115880952D01*
X115261904Y-115690476D01*
X115309523Y-115595238D01*
X115404761Y-115500000D01*
X115547619Y-115452380D01*
X115642857Y-115452380D01*
X115785714Y-115500000D01*
X115833333Y-115547619D01*
X116738095Y-115452380D02*
X116261904Y-115452380D01*
X116214285Y-115928571D01*
X116261904Y-115880952D01*
X116357142Y-115833333D01*
X116595238Y-115833333D01*
X116690476Y-115880952D01*
X116738095Y-115928571D01*
X116785714Y-116023809D01*
X116785714Y-116261904D01*
X116738095Y-116357142D01*
X116690476Y-116404761D01*
X116595238Y-116452380D01*
X116357142Y-116452380D01*
X116261904Y-116404761D01*
X116214285Y-116357142D01*
G04 #@! TO.C,C1*
X116833333Y-134357142D02*
X116785714Y-134404761D01*
X116642857Y-134452380D01*
X116547619Y-134452380D01*
X116404761Y-134404761D01*
X116309523Y-134309523D01*
X116261904Y-134214285D01*
X116214285Y-134023809D01*
X116214285Y-133880952D01*
X116261904Y-133690476D01*
X116309523Y-133595238D01*
X116404761Y-133500000D01*
X116547619Y-133452380D01*
X116642857Y-133452380D01*
X116785714Y-133500000D01*
X116833333Y-133547619D01*
X117785714Y-134452380D02*
X117214285Y-134452380D01*
X117500000Y-134452380D02*
X117500000Y-133452380D01*
X117404761Y-133595238D01*
X117309523Y-133690476D01*
X117214285Y-133738095D01*
G04 #@! TO.C,C2*
X123513333Y-136357142D02*
X123465714Y-136404761D01*
X123322857Y-136452380D01*
X123227619Y-136452380D01*
X123084761Y-136404761D01*
X122989523Y-136309523D01*
X122941904Y-136214285D01*
X122894285Y-136023809D01*
X122894285Y-135880952D01*
X122941904Y-135690476D01*
X122989523Y-135595238D01*
X123084761Y-135500000D01*
X123227619Y-135452380D01*
X123322857Y-135452380D01*
X123465714Y-135500000D01*
X123513333Y-135547619D01*
X123894285Y-135547619D02*
X123941904Y-135500000D01*
X124037142Y-135452380D01*
X124275238Y-135452380D01*
X124370476Y-135500000D01*
X124418095Y-135547619D01*
X124465714Y-135642857D01*
X124465714Y-135738095D01*
X124418095Y-135880952D01*
X123846666Y-136452380D01*
X124465714Y-136452380D01*
G04 #@! TO.C,C3*
X121795833Y-126037142D02*
X121748214Y-126084761D01*
X121605357Y-126132380D01*
X121510119Y-126132380D01*
X121367261Y-126084761D01*
X121272023Y-125989523D01*
X121224404Y-125894285D01*
X121176785Y-125703809D01*
X121176785Y-125560952D01*
X121224404Y-125370476D01*
X121272023Y-125275238D01*
X121367261Y-125180000D01*
X121510119Y-125132380D01*
X121605357Y-125132380D01*
X121748214Y-125180000D01*
X121795833Y-125227619D01*
X122129166Y-125132380D02*
X122748214Y-125132380D01*
X122414880Y-125513333D01*
X122557738Y-125513333D01*
X122652976Y-125560952D01*
X122700595Y-125608571D01*
X122748214Y-125703809D01*
X122748214Y-125941904D01*
X122700595Y-126037142D01*
X122652976Y-126084761D01*
X122557738Y-126132380D01*
X122272023Y-126132380D01*
X122176785Y-126084761D01*
X122129166Y-126037142D01*
G04 #@! TO.C,C4*
X141870833Y-130677142D02*
X141823214Y-130724761D01*
X141680357Y-130772380D01*
X141585119Y-130772380D01*
X141442261Y-130724761D01*
X141347023Y-130629523D01*
X141299404Y-130534285D01*
X141251785Y-130343809D01*
X141251785Y-130200952D01*
X141299404Y-130010476D01*
X141347023Y-129915238D01*
X141442261Y-129820000D01*
X141585119Y-129772380D01*
X141680357Y-129772380D01*
X141823214Y-129820000D01*
X141870833Y-129867619D01*
X142727976Y-130105714D02*
X142727976Y-130772380D01*
X142489880Y-129724761D02*
X142251785Y-130439047D01*
X142870833Y-130439047D01*
G04 #@! TO.C,D1*
X141261904Y-124452380D02*
X141261904Y-123452380D01*
X141500000Y-123452380D01*
X141642857Y-123500000D01*
X141738095Y-123595238D01*
X141785714Y-123690476D01*
X141833333Y-123880952D01*
X141833333Y-124023809D01*
X141785714Y-124214285D01*
X141738095Y-124309523D01*
X141642857Y-124404761D01*
X141500000Y-124452380D01*
X141261904Y-124452380D01*
X142785714Y-124452380D02*
X142214285Y-124452380D01*
X142500000Y-124452380D02*
X142500000Y-123452380D01*
X142404761Y-123595238D01*
X142309523Y-123690476D01*
X142214285Y-123738095D01*
G04 #@! TO.C,D2*
X142261904Y-70452380D02*
X142261904Y-69452380D01*
X142500000Y-69452380D01*
X142642857Y-69500000D01*
X142738095Y-69595238D01*
X142785714Y-69690476D01*
X142833333Y-69880952D01*
X142833333Y-70023809D01*
X142785714Y-70214285D01*
X142738095Y-70309523D01*
X142642857Y-70404761D01*
X142500000Y-70452380D01*
X142261904Y-70452380D01*
X143214285Y-69547619D02*
X143261904Y-69500000D01*
X143357142Y-69452380D01*
X143595238Y-69452380D01*
X143690476Y-69500000D01*
X143738095Y-69547619D01*
X143785714Y-69642857D01*
X143785714Y-69738095D01*
X143738095Y-69880952D01*
X143166666Y-70452380D01*
X143785714Y-70452380D01*
G04 #@! TO.C,D3*
X142236904Y-79452380D02*
X142236904Y-78452380D01*
X142475000Y-78452380D01*
X142617857Y-78500000D01*
X142713095Y-78595238D01*
X142760714Y-78690476D01*
X142808333Y-78880952D01*
X142808333Y-79023809D01*
X142760714Y-79214285D01*
X142713095Y-79309523D01*
X142617857Y-79404761D01*
X142475000Y-79452380D01*
X142236904Y-79452380D01*
X143141666Y-78452380D02*
X143760714Y-78452380D01*
X143427380Y-78833333D01*
X143570238Y-78833333D01*
X143665476Y-78880952D01*
X143713095Y-78928571D01*
X143760714Y-79023809D01*
X143760714Y-79261904D01*
X143713095Y-79357142D01*
X143665476Y-79404761D01*
X143570238Y-79452380D01*
X143284523Y-79452380D01*
X143189285Y-79404761D01*
X143141666Y-79357142D01*
G04 #@! TO.C,D4*
X145261904Y-87452380D02*
X145261904Y-86452380D01*
X145500000Y-86452380D01*
X145642857Y-86500000D01*
X145738095Y-86595238D01*
X145785714Y-86690476D01*
X145833333Y-86880952D01*
X145833333Y-87023809D01*
X145785714Y-87214285D01*
X145738095Y-87309523D01*
X145642857Y-87404761D01*
X145500000Y-87452380D01*
X145261904Y-87452380D01*
X146690476Y-86785714D02*
X146690476Y-87452380D01*
X146452380Y-86404761D02*
X146214285Y-87119047D01*
X146833333Y-87119047D01*
G04 #@! TO.C,D5*
X138261904Y-87452380D02*
X138261904Y-86452380D01*
X138500000Y-86452380D01*
X138642857Y-86500000D01*
X138738095Y-86595238D01*
X138785714Y-86690476D01*
X138833333Y-86880952D01*
X138833333Y-87023809D01*
X138785714Y-87214285D01*
X138738095Y-87309523D01*
X138642857Y-87404761D01*
X138500000Y-87452380D01*
X138261904Y-87452380D01*
X139738095Y-86452380D02*
X139261904Y-86452380D01*
X139214285Y-86928571D01*
X139261904Y-86880952D01*
X139357142Y-86833333D01*
X139595238Y-86833333D01*
X139690476Y-86880952D01*
X139738095Y-86928571D01*
X139785714Y-87023809D01*
X139785714Y-87261904D01*
X139738095Y-87357142D01*
X139690476Y-87404761D01*
X139595238Y-87452380D01*
X139357142Y-87452380D01*
X139261904Y-87404761D01*
X139214285Y-87357142D01*
G04 #@! TO.C,D6*
X147261904Y-95452380D02*
X147261904Y-94452380D01*
X147500000Y-94452380D01*
X147642857Y-94500000D01*
X147738095Y-94595238D01*
X147785714Y-94690476D01*
X147833333Y-94880952D01*
X147833333Y-95023809D01*
X147785714Y-95214285D01*
X147738095Y-95309523D01*
X147642857Y-95404761D01*
X147500000Y-95452380D01*
X147261904Y-95452380D01*
X148690476Y-94452380D02*
X148500000Y-94452380D01*
X148404761Y-94500000D01*
X148357142Y-94547619D01*
X148261904Y-94690476D01*
X148214285Y-94880952D01*
X148214285Y-95261904D01*
X148261904Y-95357142D01*
X148309523Y-95404761D01*
X148404761Y-95452380D01*
X148595238Y-95452380D01*
X148690476Y-95404761D01*
X148738095Y-95357142D01*
X148785714Y-95261904D01*
X148785714Y-95023809D01*
X148738095Y-94928571D01*
X148690476Y-94880952D01*
X148595238Y-94833333D01*
X148404761Y-94833333D01*
X148309523Y-94880952D01*
X148261904Y-94928571D01*
X148214285Y-95023809D01*
G04 #@! TO.C,D7*
X137261904Y-95452380D02*
X137261904Y-94452380D01*
X137500000Y-94452380D01*
X137642857Y-94500000D01*
X137738095Y-94595238D01*
X137785714Y-94690476D01*
X137833333Y-94880952D01*
X137833333Y-95023809D01*
X137785714Y-95214285D01*
X137738095Y-95309523D01*
X137642857Y-95404761D01*
X137500000Y-95452380D01*
X137261904Y-95452380D01*
X138166666Y-94452380D02*
X138833333Y-94452380D01*
X138404761Y-95452380D01*
G04 #@! TO.C,D8*
X153261904Y-105452380D02*
X153261904Y-104452380D01*
X153500000Y-104452380D01*
X153642857Y-104500000D01*
X153738095Y-104595238D01*
X153785714Y-104690476D01*
X153833333Y-104880952D01*
X153833333Y-105023809D01*
X153785714Y-105214285D01*
X153738095Y-105309523D01*
X153642857Y-105404761D01*
X153500000Y-105452380D01*
X153261904Y-105452380D01*
X154404761Y-104880952D02*
X154309523Y-104833333D01*
X154261904Y-104785714D01*
X154214285Y-104690476D01*
X154214285Y-104642857D01*
X154261904Y-104547619D01*
X154309523Y-104500000D01*
X154404761Y-104452380D01*
X154595238Y-104452380D01*
X154690476Y-104500000D01*
X154738095Y-104547619D01*
X154785714Y-104642857D01*
X154785714Y-104690476D01*
X154738095Y-104785714D01*
X154690476Y-104833333D01*
X154595238Y-104880952D01*
X154404761Y-104880952D01*
X154309523Y-104928571D01*
X154261904Y-104976190D01*
X154214285Y-105071428D01*
X154214285Y-105261904D01*
X154261904Y-105357142D01*
X154309523Y-105404761D01*
X154404761Y-105452380D01*
X154595238Y-105452380D01*
X154690476Y-105404761D01*
X154738095Y-105357142D01*
X154785714Y-105261904D01*
X154785714Y-105071428D01*
X154738095Y-104976190D01*
X154690476Y-104928571D01*
X154595238Y-104880952D01*
G04 #@! TO.C,D9*
X131261904Y-105452380D02*
X131261904Y-104452380D01*
X131500000Y-104452380D01*
X131642857Y-104500000D01*
X131738095Y-104595238D01*
X131785714Y-104690476D01*
X131833333Y-104880952D01*
X131833333Y-105023809D01*
X131785714Y-105214285D01*
X131738095Y-105309523D01*
X131642857Y-105404761D01*
X131500000Y-105452380D01*
X131261904Y-105452380D01*
X132309523Y-105452380D02*
X132500000Y-105452380D01*
X132595238Y-105404761D01*
X132642857Y-105357142D01*
X132738095Y-105214285D01*
X132785714Y-105023809D01*
X132785714Y-104642857D01*
X132738095Y-104547619D01*
X132690476Y-104500000D01*
X132595238Y-104452380D01*
X132404761Y-104452380D01*
X132309523Y-104500000D01*
X132261904Y-104547619D01*
X132214285Y-104642857D01*
X132214285Y-104880952D01*
X132261904Y-104976190D01*
X132309523Y-105023809D01*
X132404761Y-105071428D01*
X132595238Y-105071428D01*
X132690476Y-105023809D01*
X132738095Y-104976190D01*
X132785714Y-104880952D01*
G04 #@! TO.C,J2*
X123666666Y-116452380D02*
X123666666Y-117166666D01*
X123619047Y-117309523D01*
X123523809Y-117404761D01*
X123380952Y-117452380D01*
X123285714Y-117452380D01*
X124095238Y-116547619D02*
X124142857Y-116500000D01*
X124238095Y-116452380D01*
X124476190Y-116452380D01*
X124571428Y-116500000D01*
X124619047Y-116547619D01*
X124666666Y-116642857D01*
X124666666Y-116738095D01*
X124619047Y-116880952D01*
X124047619Y-117452380D01*
X124666666Y-117452380D01*
G04 #@! TO.C,Q1*
X131904761Y-121547619D02*
X131809523Y-121500000D01*
X131714285Y-121404761D01*
X131571428Y-121261904D01*
X131476190Y-121214285D01*
X131380952Y-121214285D01*
X131428571Y-121452380D02*
X131333333Y-121404761D01*
X131238095Y-121309523D01*
X131190476Y-121119047D01*
X131190476Y-120785714D01*
X131238095Y-120595238D01*
X131333333Y-120500000D01*
X131428571Y-120452380D01*
X131619047Y-120452380D01*
X131714285Y-120500000D01*
X131809523Y-120595238D01*
X131857142Y-120785714D01*
X131857142Y-121119047D01*
X131809523Y-121309523D01*
X131714285Y-121404761D01*
X131619047Y-121452380D01*
X131428571Y-121452380D01*
X132809523Y-121452380D02*
X132238095Y-121452380D01*
X132523809Y-121452380D02*
X132523809Y-120452380D01*
X132428571Y-120595238D01*
X132333333Y-120690476D01*
X132238095Y-120738095D01*
G04 #@! TO.C,R1*
X116833333Y-130452380D02*
X116500000Y-129976190D01*
X116261904Y-130452380D02*
X116261904Y-129452380D01*
X116642857Y-129452380D01*
X116738095Y-129500000D01*
X116785714Y-129547619D01*
X116833333Y-129642857D01*
X116833333Y-129785714D01*
X116785714Y-129880952D01*
X116738095Y-129928571D01*
X116642857Y-129976190D01*
X116261904Y-129976190D01*
X117785714Y-130452380D02*
X117214285Y-130452380D01*
X117500000Y-130452380D02*
X117500000Y-129452380D01*
X117404761Y-129595238D01*
X117309523Y-129690476D01*
X117214285Y-129738095D01*
G04 #@! TO.C,R2*
X132833333Y-134802380D02*
X132500000Y-134326190D01*
X132261904Y-134802380D02*
X132261904Y-133802380D01*
X132642857Y-133802380D01*
X132738095Y-133850000D01*
X132785714Y-133897619D01*
X132833333Y-133992857D01*
X132833333Y-134135714D01*
X132785714Y-134230952D01*
X132738095Y-134278571D01*
X132642857Y-134326190D01*
X132261904Y-134326190D01*
X133214285Y-133897619D02*
X133261904Y-133850000D01*
X133357142Y-133802380D01*
X133595238Y-133802380D01*
X133690476Y-133850000D01*
X133738095Y-133897619D01*
X133785714Y-133992857D01*
X133785714Y-134088095D01*
X133738095Y-134230952D01*
X133166666Y-134802380D01*
X133785714Y-134802380D01*
G04 #@! TO.C,R3*
X126833333Y-134802380D02*
X126500000Y-134326190D01*
X126261904Y-134802380D02*
X126261904Y-133802380D01*
X126642857Y-133802380D01*
X126738095Y-133850000D01*
X126785714Y-133897619D01*
X126833333Y-133992857D01*
X126833333Y-134135714D01*
X126785714Y-134230952D01*
X126738095Y-134278571D01*
X126642857Y-134326190D01*
X126261904Y-134326190D01*
X127166666Y-133802380D02*
X127785714Y-133802380D01*
X127452380Y-134183333D01*
X127595238Y-134183333D01*
X127690476Y-134230952D01*
X127738095Y-134278571D01*
X127785714Y-134373809D01*
X127785714Y-134611904D01*
X127738095Y-134707142D01*
X127690476Y-134754761D01*
X127595238Y-134802380D01*
X127309523Y-134802380D01*
X127214285Y-134754761D01*
X127166666Y-134707142D01*
G04 #@! TO.C,R4*
X124833333Y-132452380D02*
X124500000Y-131976190D01*
X124261904Y-132452380D02*
X124261904Y-131452380D01*
X124642857Y-131452380D01*
X124738095Y-131500000D01*
X124785714Y-131547619D01*
X124833333Y-131642857D01*
X124833333Y-131785714D01*
X124785714Y-131880952D01*
X124738095Y-131928571D01*
X124642857Y-131976190D01*
X124261904Y-131976190D01*
X125690476Y-131785714D02*
X125690476Y-132452380D01*
X125452380Y-131404761D02*
X125214285Y-132119047D01*
X125833333Y-132119047D01*
G04 #@! TO.C,R5*
X121833333Y-130102380D02*
X121500000Y-129626190D01*
X121261904Y-130102380D02*
X121261904Y-129102380D01*
X121642857Y-129102380D01*
X121738095Y-129150000D01*
X121785714Y-129197619D01*
X121833333Y-129292857D01*
X121833333Y-129435714D01*
X121785714Y-129530952D01*
X121738095Y-129578571D01*
X121642857Y-129626190D01*
X121261904Y-129626190D01*
X122738095Y-129102380D02*
X122261904Y-129102380D01*
X122214285Y-129578571D01*
X122261904Y-129530952D01*
X122357142Y-129483333D01*
X122595238Y-129483333D01*
X122690476Y-129530952D01*
X122738095Y-129578571D01*
X122785714Y-129673809D01*
X122785714Y-129911904D01*
X122738095Y-130007142D01*
X122690476Y-130054761D01*
X122595238Y-130102380D01*
X122357142Y-130102380D01*
X122261904Y-130054761D01*
X122214285Y-130007142D01*
G04 #@! TO.C,R6*
X116833333Y-126102380D02*
X116500000Y-125626190D01*
X116261904Y-126102380D02*
X116261904Y-125102380D01*
X116642857Y-125102380D01*
X116738095Y-125150000D01*
X116785714Y-125197619D01*
X116833333Y-125292857D01*
X116833333Y-125435714D01*
X116785714Y-125530952D01*
X116738095Y-125578571D01*
X116642857Y-125626190D01*
X116261904Y-125626190D01*
X117690476Y-125102380D02*
X117500000Y-125102380D01*
X117404761Y-125150000D01*
X117357142Y-125197619D01*
X117261904Y-125340476D01*
X117214285Y-125530952D01*
X117214285Y-125911904D01*
X117261904Y-126007142D01*
X117309523Y-126054761D01*
X117404761Y-126102380D01*
X117595238Y-126102380D01*
X117690476Y-126054761D01*
X117738095Y-126007142D01*
X117785714Y-125911904D01*
X117785714Y-125673809D01*
X117738095Y-125578571D01*
X117690476Y-125530952D01*
X117595238Y-125483333D01*
X117404761Y-125483333D01*
X117309523Y-125530952D01*
X117261904Y-125578571D01*
X117214285Y-125673809D01*
G04 #@! TO.C,R7*
X126833333Y-126102380D02*
X126500000Y-125626190D01*
X126261904Y-126102380D02*
X126261904Y-125102380D01*
X126642857Y-125102380D01*
X126738095Y-125150000D01*
X126785714Y-125197619D01*
X126833333Y-125292857D01*
X126833333Y-125435714D01*
X126785714Y-125530952D01*
X126738095Y-125578571D01*
X126642857Y-125626190D01*
X126261904Y-125626190D01*
X127166666Y-125102380D02*
X127833333Y-125102380D01*
X127404761Y-126102380D01*
G04 #@! TO.C,R8*
X136833333Y-126802380D02*
X136500000Y-126326190D01*
X136261904Y-126802380D02*
X136261904Y-125802380D01*
X136642857Y-125802380D01*
X136738095Y-125850000D01*
X136785714Y-125897619D01*
X136833333Y-125992857D01*
X136833333Y-126135714D01*
X136785714Y-126230952D01*
X136738095Y-126278571D01*
X136642857Y-126326190D01*
X136261904Y-126326190D01*
X137404761Y-126230952D02*
X137309523Y-126183333D01*
X137261904Y-126135714D01*
X137214285Y-126040476D01*
X137214285Y-125992857D01*
X137261904Y-125897619D01*
X137309523Y-125850000D01*
X137404761Y-125802380D01*
X137595238Y-125802380D01*
X137690476Y-125850000D01*
X137738095Y-125897619D01*
X137785714Y-125992857D01*
X137785714Y-126040476D01*
X137738095Y-126135714D01*
X137690476Y-126183333D01*
X137595238Y-126230952D01*
X137404761Y-126230952D01*
X137309523Y-126278571D01*
X137261904Y-126326190D01*
X137214285Y-126421428D01*
X137214285Y-126611904D01*
X137261904Y-126707142D01*
X137309523Y-126754761D01*
X137404761Y-126802380D01*
X137595238Y-126802380D01*
X137690476Y-126754761D01*
X137738095Y-126707142D01*
X137785714Y-126611904D01*
X137785714Y-126421428D01*
X137738095Y-126326190D01*
X137690476Y-126278571D01*
X137595238Y-126230952D01*
G04 #@! TO.C,R9*
X141833333Y-126802380D02*
X141500000Y-126326190D01*
X141261904Y-126802380D02*
X141261904Y-125802380D01*
X141642857Y-125802380D01*
X141738095Y-125850000D01*
X141785714Y-125897619D01*
X141833333Y-125992857D01*
X141833333Y-126135714D01*
X141785714Y-126230952D01*
X141738095Y-126278571D01*
X141642857Y-126326190D01*
X141261904Y-126326190D01*
X142309523Y-126802380D02*
X142500000Y-126802380D01*
X142595238Y-126754761D01*
X142642857Y-126707142D01*
X142738095Y-126564285D01*
X142785714Y-126373809D01*
X142785714Y-125992857D01*
X142738095Y-125897619D01*
X142690476Y-125850000D01*
X142595238Y-125802380D01*
X142404761Y-125802380D01*
X142309523Y-125850000D01*
X142261904Y-125897619D01*
X142214285Y-125992857D01*
X142214285Y-126230952D01*
X142261904Y-126326190D01*
X142309523Y-126373809D01*
X142404761Y-126421428D01*
X142595238Y-126421428D01*
X142690476Y-126373809D01*
X142738095Y-126326190D01*
X142785714Y-126230952D01*
G04 #@! TO.C,R10*
X176357142Y-138102380D02*
X176023809Y-137626190D01*
X175785714Y-138102380D02*
X175785714Y-137102380D01*
X176166666Y-137102380D01*
X176261904Y-137150000D01*
X176309523Y-137197619D01*
X176357142Y-137292857D01*
X176357142Y-137435714D01*
X176309523Y-137530952D01*
X176261904Y-137578571D01*
X176166666Y-137626190D01*
X175785714Y-137626190D01*
X177309523Y-138102380D02*
X176738095Y-138102380D01*
X177023809Y-138102380D02*
X177023809Y-137102380D01*
X176928571Y-137245238D01*
X176833333Y-137340476D01*
X176738095Y-137388095D01*
X177928571Y-137102380D02*
X178023809Y-137102380D01*
X178119047Y-137150000D01*
X178166666Y-137197619D01*
X178214285Y-137292857D01*
X178261904Y-137483333D01*
X178261904Y-137721428D01*
X178214285Y-137911904D01*
X178166666Y-138007142D01*
X178119047Y-138054761D01*
X178023809Y-138102380D01*
X177928571Y-138102380D01*
X177833333Y-138054761D01*
X177785714Y-138007142D01*
X177738095Y-137911904D01*
X177690476Y-137721428D01*
X177690476Y-137483333D01*
X177738095Y-137292857D01*
X177785714Y-137197619D01*
X177833333Y-137150000D01*
X177928571Y-137102380D01*
G04 #@! TO.C,R11*
X170357142Y-138102380D02*
X170023809Y-137626190D01*
X169785714Y-138102380D02*
X169785714Y-137102380D01*
X170166666Y-137102380D01*
X170261904Y-137150000D01*
X170309523Y-137197619D01*
X170357142Y-137292857D01*
X170357142Y-137435714D01*
X170309523Y-137530952D01*
X170261904Y-137578571D01*
X170166666Y-137626190D01*
X169785714Y-137626190D01*
X171309523Y-138102380D02*
X170738095Y-138102380D01*
X171023809Y-138102380D02*
X171023809Y-137102380D01*
X170928571Y-137245238D01*
X170833333Y-137340476D01*
X170738095Y-137388095D01*
X172261904Y-138102380D02*
X171690476Y-138102380D01*
X171976190Y-138102380D02*
X171976190Y-137102380D01*
X171880952Y-137245238D01*
X171785714Y-137340476D01*
X171690476Y-137388095D01*
G04 #@! TO.C,R12*
X170357142Y-134102380D02*
X170023809Y-133626190D01*
X169785714Y-134102380D02*
X169785714Y-133102380D01*
X170166666Y-133102380D01*
X170261904Y-133150000D01*
X170309523Y-133197619D01*
X170357142Y-133292857D01*
X170357142Y-133435714D01*
X170309523Y-133530952D01*
X170261904Y-133578571D01*
X170166666Y-133626190D01*
X169785714Y-133626190D01*
X171309523Y-134102380D02*
X170738095Y-134102380D01*
X171023809Y-134102380D02*
X171023809Y-133102380D01*
X170928571Y-133245238D01*
X170833333Y-133340476D01*
X170738095Y-133388095D01*
X171690476Y-133197619D02*
X171738095Y-133150000D01*
X171833333Y-133102380D01*
X172071428Y-133102380D01*
X172166666Y-133150000D01*
X172214285Y-133197619D01*
X172261904Y-133292857D01*
X172261904Y-133388095D01*
X172214285Y-133530952D01*
X171642857Y-134102380D01*
X172261904Y-134102380D01*
G04 #@! TO.C,R13*
X164357142Y-134102380D02*
X164023809Y-133626190D01*
X163785714Y-134102380D02*
X163785714Y-133102380D01*
X164166666Y-133102380D01*
X164261904Y-133150000D01*
X164309523Y-133197619D01*
X164357142Y-133292857D01*
X164357142Y-133435714D01*
X164309523Y-133530952D01*
X164261904Y-133578571D01*
X164166666Y-133626190D01*
X163785714Y-133626190D01*
X165309523Y-134102380D02*
X164738095Y-134102380D01*
X165023809Y-134102380D02*
X165023809Y-133102380D01*
X164928571Y-133245238D01*
X164833333Y-133340476D01*
X164738095Y-133388095D01*
X165642857Y-133102380D02*
X166261904Y-133102380D01*
X165928571Y-133483333D01*
X166071428Y-133483333D01*
X166166666Y-133530952D01*
X166214285Y-133578571D01*
X166261904Y-133673809D01*
X166261904Y-133911904D01*
X166214285Y-134007142D01*
X166166666Y-134054761D01*
X166071428Y-134102380D01*
X165785714Y-134102380D01*
X165690476Y-134054761D01*
X165642857Y-134007142D01*
G04 #@! TO.C,R14*
X164357142Y-138102380D02*
X164023809Y-137626190D01*
X163785714Y-138102380D02*
X163785714Y-137102380D01*
X164166666Y-137102380D01*
X164261904Y-137150000D01*
X164309523Y-137197619D01*
X164357142Y-137292857D01*
X164357142Y-137435714D01*
X164309523Y-137530952D01*
X164261904Y-137578571D01*
X164166666Y-137626190D01*
X163785714Y-137626190D01*
X165309523Y-138102380D02*
X164738095Y-138102380D01*
X165023809Y-138102380D02*
X165023809Y-137102380D01*
X164928571Y-137245238D01*
X164833333Y-137340476D01*
X164738095Y-137388095D01*
X166166666Y-137435714D02*
X166166666Y-138102380D01*
X165928571Y-137054761D02*
X165690476Y-137769047D01*
X166309523Y-137769047D01*
G04 #@! TO.C,R15*
X158357142Y-138102380D02*
X158023809Y-137626190D01*
X157785714Y-138102380D02*
X157785714Y-137102380D01*
X158166666Y-137102380D01*
X158261904Y-137150000D01*
X158309523Y-137197619D01*
X158357142Y-137292857D01*
X158357142Y-137435714D01*
X158309523Y-137530952D01*
X158261904Y-137578571D01*
X158166666Y-137626190D01*
X157785714Y-137626190D01*
X159309523Y-138102380D02*
X158738095Y-138102380D01*
X159023809Y-138102380D02*
X159023809Y-137102380D01*
X158928571Y-137245238D01*
X158833333Y-137340476D01*
X158738095Y-137388095D01*
X160214285Y-137102380D02*
X159738095Y-137102380D01*
X159690476Y-137578571D01*
X159738095Y-137530952D01*
X159833333Y-137483333D01*
X160071428Y-137483333D01*
X160166666Y-137530952D01*
X160214285Y-137578571D01*
X160261904Y-137673809D01*
X160261904Y-137911904D01*
X160214285Y-138007142D01*
X160166666Y-138054761D01*
X160071428Y-138102380D01*
X159833333Y-138102380D01*
X159738095Y-138054761D01*
X159690476Y-138007142D01*
G04 #@! TO.C,R16*
X158357142Y-134102380D02*
X158023809Y-133626190D01*
X157785714Y-134102380D02*
X157785714Y-133102380D01*
X158166666Y-133102380D01*
X158261904Y-133150000D01*
X158309523Y-133197619D01*
X158357142Y-133292857D01*
X158357142Y-133435714D01*
X158309523Y-133530952D01*
X158261904Y-133578571D01*
X158166666Y-133626190D01*
X157785714Y-133626190D01*
X159309523Y-134102380D02*
X158738095Y-134102380D01*
X159023809Y-134102380D02*
X159023809Y-133102380D01*
X158928571Y-133245238D01*
X158833333Y-133340476D01*
X158738095Y-133388095D01*
X160166666Y-133102380D02*
X159976190Y-133102380D01*
X159880952Y-133150000D01*
X159833333Y-133197619D01*
X159738095Y-133340476D01*
X159690476Y-133530952D01*
X159690476Y-133911904D01*
X159738095Y-134007142D01*
X159785714Y-134054761D01*
X159880952Y-134102380D01*
X160071428Y-134102380D01*
X160166666Y-134054761D01*
X160214285Y-134007142D01*
X160261904Y-133911904D01*
X160261904Y-133673809D01*
X160214285Y-133578571D01*
X160166666Y-133530952D01*
X160071428Y-133483333D01*
X159880952Y-133483333D01*
X159785714Y-133530952D01*
X159738095Y-133578571D01*
X159690476Y-133673809D01*
G04 #@! TO.C,R17*
X152357142Y-134102380D02*
X152023809Y-133626190D01*
X151785714Y-134102380D02*
X151785714Y-133102380D01*
X152166666Y-133102380D01*
X152261904Y-133150000D01*
X152309523Y-133197619D01*
X152357142Y-133292857D01*
X152357142Y-133435714D01*
X152309523Y-133530952D01*
X152261904Y-133578571D01*
X152166666Y-133626190D01*
X151785714Y-133626190D01*
X153309523Y-134102380D02*
X152738095Y-134102380D01*
X153023809Y-134102380D02*
X153023809Y-133102380D01*
X152928571Y-133245238D01*
X152833333Y-133340476D01*
X152738095Y-133388095D01*
X153642857Y-133102380D02*
X154309523Y-133102380D01*
X153880952Y-134102380D01*
G04 #@! TO.C,R18*
X152357142Y-138102380D02*
X152023809Y-137626190D01*
X151785714Y-138102380D02*
X151785714Y-137102380D01*
X152166666Y-137102380D01*
X152261904Y-137150000D01*
X152309523Y-137197619D01*
X152357142Y-137292857D01*
X152357142Y-137435714D01*
X152309523Y-137530952D01*
X152261904Y-137578571D01*
X152166666Y-137626190D01*
X151785714Y-137626190D01*
X153309523Y-138102380D02*
X152738095Y-138102380D01*
X153023809Y-138102380D02*
X153023809Y-137102380D01*
X152928571Y-137245238D01*
X152833333Y-137340476D01*
X152738095Y-137388095D01*
X153880952Y-137530952D02*
X153785714Y-137483333D01*
X153738095Y-137435714D01*
X153690476Y-137340476D01*
X153690476Y-137292857D01*
X153738095Y-137197619D01*
X153785714Y-137150000D01*
X153880952Y-137102380D01*
X154071428Y-137102380D01*
X154166666Y-137150000D01*
X154214285Y-137197619D01*
X154261904Y-137292857D01*
X154261904Y-137340476D01*
X154214285Y-137435714D01*
X154166666Y-137483333D01*
X154071428Y-137530952D01*
X153880952Y-137530952D01*
X153785714Y-137578571D01*
X153738095Y-137626190D01*
X153690476Y-137721428D01*
X153690476Y-137911904D01*
X153738095Y-138007142D01*
X153785714Y-138054761D01*
X153880952Y-138102380D01*
X154071428Y-138102380D01*
X154166666Y-138054761D01*
X154214285Y-138007142D01*
X154261904Y-137911904D01*
X154261904Y-137721428D01*
X154214285Y-137626190D01*
X154166666Y-137578571D01*
X154071428Y-137530952D01*
G04 #@! TO.C,RN1*
D17*
X167123095Y-117574523D02*
X166699761Y-116969761D01*
X166397380Y-117574523D02*
X166397380Y-116304523D01*
X166881190Y-116304523D01*
X167002142Y-116365000D01*
X167062619Y-116425476D01*
X167123095Y-116546428D01*
X167123095Y-116727857D01*
X167062619Y-116848809D01*
X167002142Y-116909285D01*
X166881190Y-116969761D01*
X166397380Y-116969761D01*
X167667380Y-117574523D02*
X167667380Y-116304523D01*
X168393095Y-117574523D01*
X168393095Y-116304523D01*
X169663095Y-117574523D02*
X168937380Y-117574523D01*
X169300238Y-117574523D02*
X169300238Y-116304523D01*
X169179285Y-116485952D01*
X169058333Y-116606904D01*
X168937380Y-116667380D01*
G04 #@! TO.C,RV1*
D10*
X142944761Y-140112380D02*
X142611428Y-139636190D01*
X142373333Y-140112380D02*
X142373333Y-139112380D01*
X142754285Y-139112380D01*
X142849523Y-139160000D01*
X142897142Y-139207619D01*
X142944761Y-139302857D01*
X142944761Y-139445714D01*
X142897142Y-139540952D01*
X142849523Y-139588571D01*
X142754285Y-139636190D01*
X142373333Y-139636190D01*
X143230476Y-139112380D02*
X143563809Y-140112380D01*
X143897142Y-139112380D01*
X144754285Y-140112380D02*
X144182857Y-140112380D01*
X144468571Y-140112380D02*
X144468571Y-139112380D01*
X144373333Y-139255238D01*
X144278095Y-139350476D01*
X144182857Y-139398095D01*
G04 #@! TO.C,U1*
X129238095Y-126052380D02*
X129238095Y-126861904D01*
X129285714Y-126957142D01*
X129333333Y-127004761D01*
X129428571Y-127052380D01*
X129619047Y-127052380D01*
X129714285Y-127004761D01*
X129761904Y-126957142D01*
X129809523Y-126861904D01*
X129809523Y-126052380D01*
X130809523Y-127052380D02*
X130238095Y-127052380D01*
X130523809Y-127052380D02*
X130523809Y-126052380D01*
X130428571Y-126195238D01*
X130333333Y-126290476D01*
X130238095Y-126338095D01*
G04 #@! TO.C,U2*
X175238095Y-122052380D02*
X175238095Y-122861904D01*
X175285714Y-122957142D01*
X175333333Y-123004761D01*
X175428571Y-123052380D01*
X175619047Y-123052380D01*
X175714285Y-123004761D01*
X175761904Y-122957142D01*
X175809523Y-122861904D01*
X175809523Y-122052380D01*
X176238095Y-122147619D02*
X176285714Y-122100000D01*
X176380952Y-122052380D01*
X176619047Y-122052380D01*
X176714285Y-122100000D01*
X176761904Y-122147619D01*
X176809523Y-122242857D01*
X176809523Y-122338095D01*
X176761904Y-122480952D01*
X176190476Y-123052380D01*
X176809523Y-123052380D01*
G04 #@! TO.C,U3*
X166238095Y-122052380D02*
X166238095Y-122861904D01*
X166285714Y-122957142D01*
X166333333Y-123004761D01*
X166428571Y-123052380D01*
X166619047Y-123052380D01*
X166714285Y-123004761D01*
X166761904Y-122957142D01*
X166809523Y-122861904D01*
X166809523Y-122052380D01*
X167190476Y-122052380D02*
X167809523Y-122052380D01*
X167476190Y-122433333D01*
X167619047Y-122433333D01*
X167714285Y-122480952D01*
X167761904Y-122528571D01*
X167809523Y-122623809D01*
X167809523Y-122861904D01*
X167761904Y-122957142D01*
X167714285Y-123004761D01*
X167619047Y-123052380D01*
X167333333Y-123052380D01*
X167238095Y-123004761D01*
X167190476Y-122957142D01*
G04 #@! TO.C,U4*
X157238095Y-122052380D02*
X157238095Y-122861904D01*
X157285714Y-122957142D01*
X157333333Y-123004761D01*
X157428571Y-123052380D01*
X157619047Y-123052380D01*
X157714285Y-123004761D01*
X157761904Y-122957142D01*
X157809523Y-122861904D01*
X157809523Y-122052380D01*
X158714285Y-122385714D02*
X158714285Y-123052380D01*
X158476190Y-122004761D02*
X158238095Y-122719047D01*
X158857142Y-122719047D01*
G04 #@! TO.C,U5*
X148238095Y-122052380D02*
X148238095Y-122861904D01*
X148285714Y-122957142D01*
X148333333Y-123004761D01*
X148428571Y-123052380D01*
X148619047Y-123052380D01*
X148714285Y-123004761D01*
X148761904Y-122957142D01*
X148809523Y-122861904D01*
X148809523Y-122052380D01*
X149761904Y-122052380D02*
X149285714Y-122052380D01*
X149238095Y-122528571D01*
X149285714Y-122480952D01*
X149380952Y-122433333D01*
X149619047Y-122433333D01*
X149714285Y-122480952D01*
X149761904Y-122528571D01*
X149809523Y-122623809D01*
X149809523Y-122861904D01*
X149761904Y-122957142D01*
X149714285Y-123004761D01*
X149619047Y-123052380D01*
X149380952Y-123052380D01*
X149285714Y-123004761D01*
X149238095Y-122957142D01*
G04 #@! TD*
%LPC*%
D18*
G04 #@! TO.C,MK1*
X111000000Y-132000000D03*
X111000000Y-134540000D03*
G04 #@! TD*
D19*
G04 #@! TO.C,J1*
X109000000Y-123080000D03*
D20*
X109000000Y-118000000D03*
G04 #@! TD*
G04 #@! TO.C,C5*
G36*
G01*
X119550000Y-115525000D02*
X119550000Y-116475000D01*
G75*
G02*
X119300000Y-116725000I-250000J0D01*
G01*
X118625000Y-116725000D01*
G75*
G02*
X118375000Y-116475000I0J250000D01*
G01*
X118375000Y-115525000D01*
G75*
G02*
X118625000Y-115275000I250000J0D01*
G01*
X119300000Y-115275000D01*
G75*
G02*
X119550000Y-115525000I0J-250000D01*
G01*
G37*
G36*
G01*
X121625000Y-115525000D02*
X121625000Y-116475000D01*
G75*
G02*
X121375000Y-116725000I-250000J0D01*
G01*
X120700000Y-116725000D01*
G75*
G02*
X120450000Y-116475000I0J250000D01*
G01*
X120450000Y-115525000D01*
G75*
G02*
X120700000Y-115275000I250000J0D01*
G01*
X121375000Y-115275000D01*
G75*
G02*
X121625000Y-115525000I0J-250000D01*
G01*
G37*
G04 #@! TD*
G04 #@! TO.C,C1*
G36*
G01*
X117450000Y-132475000D02*
X117450000Y-131525000D01*
G75*
G02*
X117700000Y-131275000I250000J0D01*
G01*
X118375000Y-131275000D01*
G75*
G02*
X118625000Y-131525000I0J-250000D01*
G01*
X118625000Y-132475000D01*
G75*
G02*
X118375000Y-132725000I-250000J0D01*
G01*
X117700000Y-132725000D01*
G75*
G02*
X117450000Y-132475000I0J250000D01*
G01*
G37*
G36*
G01*
X115375000Y-132475000D02*
X115375000Y-131525000D01*
G75*
G02*
X115625000Y-131275000I250000J0D01*
G01*
X116300000Y-131275000D01*
G75*
G02*
X116550000Y-131525000I0J-250000D01*
G01*
X116550000Y-132475000D01*
G75*
G02*
X116300000Y-132725000I-250000J0D01*
G01*
X115625000Y-132725000D01*
G75*
G02*
X115375000Y-132475000I0J250000D01*
G01*
G37*
G04 #@! TD*
G04 #@! TO.C,C2*
G36*
G01*
X121525000Y-134375000D02*
X122475000Y-134375000D01*
G75*
G02*
X122725000Y-134625000I0J-250000D01*
G01*
X122725000Y-135300000D01*
G75*
G02*
X122475000Y-135550000I-250000J0D01*
G01*
X121525000Y-135550000D01*
G75*
G02*
X121275000Y-135300000I0J250000D01*
G01*
X121275000Y-134625000D01*
G75*
G02*
X121525000Y-134375000I250000J0D01*
G01*
G37*
G36*
G01*
X121525000Y-136450000D02*
X122475000Y-136450000D01*
G75*
G02*
X122725000Y-136700000I0J-250000D01*
G01*
X122725000Y-137375000D01*
G75*
G02*
X122475000Y-137625000I-250000J0D01*
G01*
X121525000Y-137625000D01*
G75*
G02*
X121275000Y-137375000I0J250000D01*
G01*
X121275000Y-136700000D01*
G75*
G02*
X121525000Y-136450000I250000J0D01*
G01*
G37*
G04 #@! TD*
G04 #@! TO.C,C3*
G36*
G01*
X123587500Y-123525000D02*
X123587500Y-124475000D01*
G75*
G02*
X123337500Y-124725000I-250000J0D01*
G01*
X122662500Y-124725000D01*
G75*
G02*
X122412500Y-124475000I0J250000D01*
G01*
X122412500Y-123525000D01*
G75*
G02*
X122662500Y-123275000I250000J0D01*
G01*
X123337500Y-123275000D01*
G75*
G02*
X123587500Y-123525000I0J-250000D01*
G01*
G37*
G36*
G01*
X121512500Y-123525000D02*
X121512500Y-124475000D01*
G75*
G02*
X121262500Y-124725000I-250000J0D01*
G01*
X120587500Y-124725000D01*
G75*
G02*
X120337500Y-124475000I0J250000D01*
G01*
X120337500Y-123525000D01*
G75*
G02*
X120587500Y-123275000I250000J0D01*
G01*
X121262500Y-123275000D01*
G75*
G02*
X121512500Y-123525000I0J-250000D01*
G01*
G37*
G04 #@! TD*
G04 #@! TO.C,C4*
G36*
G01*
X142487500Y-132475000D02*
X142487500Y-131525000D01*
G75*
G02*
X142737500Y-131275000I250000J0D01*
G01*
X143412500Y-131275000D01*
G75*
G02*
X143662500Y-131525000I0J-250000D01*
G01*
X143662500Y-132475000D01*
G75*
G02*
X143412500Y-132725000I-250000J0D01*
G01*
X142737500Y-132725000D01*
G75*
G02*
X142487500Y-132475000I0J250000D01*
G01*
G37*
G36*
G01*
X140412500Y-132475000D02*
X140412500Y-131525000D01*
G75*
G02*
X140662500Y-131275000I250000J0D01*
G01*
X141337500Y-131275000D01*
G75*
G02*
X141587500Y-131525000I0J-250000D01*
G01*
X141587500Y-132475000D01*
G75*
G02*
X141337500Y-132725000I-250000J0D01*
G01*
X140662500Y-132725000D01*
G75*
G02*
X140412500Y-132475000I0J250000D01*
G01*
G37*
G04 #@! TD*
D21*
G04 #@! TO.C,D1*
X139650000Y-124000000D03*
X136350000Y-124000000D03*
G04 #@! TD*
G04 #@! TO.C,D2*
G36*
G01*
X144600000Y-67549999D02*
X144600000Y-68450001D01*
G75*
G02*
X144350001Y-68700000I-249999J0D01*
G01*
X143699999Y-68700000D01*
G75*
G02*
X143450000Y-68450001I0J249999D01*
G01*
X143450000Y-67549999D01*
G75*
G02*
X143699999Y-67300000I249999J0D01*
G01*
X144350001Y-67300000D01*
G75*
G02*
X144600000Y-67549999I0J-249999D01*
G01*
G37*
G36*
G01*
X142550000Y-67549999D02*
X142550000Y-68450001D01*
G75*
G02*
X142300001Y-68700000I-249999J0D01*
G01*
X141649999Y-68700000D01*
G75*
G02*
X141400000Y-68450001I0J249999D01*
G01*
X141400000Y-67549999D01*
G75*
G02*
X141649999Y-67300000I249999J0D01*
G01*
X142300001Y-67300000D01*
G75*
G02*
X142550000Y-67549999I0J-249999D01*
G01*
G37*
G04 #@! TD*
G04 #@! TO.C,D3*
G36*
G01*
X142525000Y-76549999D02*
X142525000Y-77450001D01*
G75*
G02*
X142275001Y-77700000I-249999J0D01*
G01*
X141624999Y-77700000D01*
G75*
G02*
X141375000Y-77450001I0J249999D01*
G01*
X141375000Y-76549999D01*
G75*
G02*
X141624999Y-76300000I249999J0D01*
G01*
X142275001Y-76300000D01*
G75*
G02*
X142525000Y-76549999I0J-249999D01*
G01*
G37*
G36*
G01*
X144575000Y-76549999D02*
X144575000Y-77450001D01*
G75*
G02*
X144325001Y-77700000I-249999J0D01*
G01*
X143674999Y-77700000D01*
G75*
G02*
X143425000Y-77450001I0J249999D01*
G01*
X143425000Y-76549999D01*
G75*
G02*
X143674999Y-76300000I249999J0D01*
G01*
X144325001Y-76300000D01*
G75*
G02*
X144575000Y-76549999I0J-249999D01*
G01*
G37*
G04 #@! TD*
G04 #@! TO.C,D4*
G36*
G01*
X150600000Y-84549999D02*
X150600000Y-85450001D01*
G75*
G02*
X150350001Y-85700000I-249999J0D01*
G01*
X149699999Y-85700000D01*
G75*
G02*
X149450000Y-85450001I0J249999D01*
G01*
X149450000Y-84549999D01*
G75*
G02*
X149699999Y-84300000I249999J0D01*
G01*
X150350001Y-84300000D01*
G75*
G02*
X150600000Y-84549999I0J-249999D01*
G01*
G37*
G36*
G01*
X148550000Y-84549999D02*
X148550000Y-85450001D01*
G75*
G02*
X148300001Y-85700000I-249999J0D01*
G01*
X147649999Y-85700000D01*
G75*
G02*
X147400000Y-85450001I0J249999D01*
G01*
X147400000Y-84549999D01*
G75*
G02*
X147649999Y-84300000I249999J0D01*
G01*
X148300001Y-84300000D01*
G75*
G02*
X148550000Y-84549999I0J-249999D01*
G01*
G37*
G04 #@! TD*
G04 #@! TO.C,D5*
G36*
G01*
X136550000Y-84549999D02*
X136550000Y-85450001D01*
G75*
G02*
X136300001Y-85700000I-249999J0D01*
G01*
X135649999Y-85700000D01*
G75*
G02*
X135400000Y-85450001I0J249999D01*
G01*
X135400000Y-84549999D01*
G75*
G02*
X135649999Y-84300000I249999J0D01*
G01*
X136300001Y-84300000D01*
G75*
G02*
X136550000Y-84549999I0J-249999D01*
G01*
G37*
G36*
G01*
X138600000Y-84549999D02*
X138600000Y-85450001D01*
G75*
G02*
X138350001Y-85700000I-249999J0D01*
G01*
X137699999Y-85700000D01*
G75*
G02*
X137450000Y-85450001I0J249999D01*
G01*
X137450000Y-84549999D01*
G75*
G02*
X137699999Y-84300000I249999J0D01*
G01*
X138350001Y-84300000D01*
G75*
G02*
X138600000Y-84549999I0J-249999D01*
G01*
G37*
G04 #@! TD*
G04 #@! TO.C,D6*
G36*
G01*
X150525000Y-93549999D02*
X150525000Y-94450001D01*
G75*
G02*
X150275001Y-94700000I-249999J0D01*
G01*
X149624999Y-94700000D01*
G75*
G02*
X149375000Y-94450001I0J249999D01*
G01*
X149375000Y-93549999D01*
G75*
G02*
X149624999Y-93300000I249999J0D01*
G01*
X150275001Y-93300000D01*
G75*
G02*
X150525000Y-93549999I0J-249999D01*
G01*
G37*
G36*
G01*
X152575000Y-93549999D02*
X152575000Y-94450001D01*
G75*
G02*
X152325001Y-94700000I-249999J0D01*
G01*
X151674999Y-94700000D01*
G75*
G02*
X151425000Y-94450001I0J249999D01*
G01*
X151425000Y-93549999D01*
G75*
G02*
X151674999Y-93300000I249999J0D01*
G01*
X152325001Y-93300000D01*
G75*
G02*
X152575000Y-93549999I0J-249999D01*
G01*
G37*
G04 #@! TD*
G04 #@! TO.C,D7*
G36*
G01*
X136600000Y-93549999D02*
X136600000Y-94450001D01*
G75*
G02*
X136350001Y-94700000I-249999J0D01*
G01*
X135699999Y-94700000D01*
G75*
G02*
X135450000Y-94450001I0J249999D01*
G01*
X135450000Y-93549999D01*
G75*
G02*
X135699999Y-93300000I249999J0D01*
G01*
X136350001Y-93300000D01*
G75*
G02*
X136600000Y-93549999I0J-249999D01*
G01*
G37*
G36*
G01*
X134550000Y-93549999D02*
X134550000Y-94450001D01*
G75*
G02*
X134300001Y-94700000I-249999J0D01*
G01*
X133649999Y-94700000D01*
G75*
G02*
X133400000Y-94450001I0J249999D01*
G01*
X133400000Y-93549999D01*
G75*
G02*
X133649999Y-93300000I249999J0D01*
G01*
X134300001Y-93300000D01*
G75*
G02*
X134550000Y-93549999I0J-249999D01*
G01*
G37*
G04 #@! TD*
G04 #@! TO.C,D8*
G36*
G01*
X156575000Y-104549999D02*
X156575000Y-105450001D01*
G75*
G02*
X156325001Y-105700000I-249999J0D01*
G01*
X155674999Y-105700000D01*
G75*
G02*
X155425000Y-105450001I0J249999D01*
G01*
X155425000Y-104549999D01*
G75*
G02*
X155674999Y-104300000I249999J0D01*
G01*
X156325001Y-104300000D01*
G75*
G02*
X156575000Y-104549999I0J-249999D01*
G01*
G37*
G36*
G01*
X158625000Y-104549999D02*
X158625000Y-105450001D01*
G75*
G02*
X158375001Y-105700000I-249999J0D01*
G01*
X157724999Y-105700000D01*
G75*
G02*
X157475000Y-105450001I0J249999D01*
G01*
X157475000Y-104549999D01*
G75*
G02*
X157724999Y-104300000I249999J0D01*
G01*
X158375001Y-104300000D01*
G75*
G02*
X158625000Y-104549999I0J-249999D01*
G01*
G37*
G04 #@! TD*
G04 #@! TO.C,D9*
G36*
G01*
X130600000Y-104549999D02*
X130600000Y-105450001D01*
G75*
G02*
X130350001Y-105700000I-249999J0D01*
G01*
X129699999Y-105700000D01*
G75*
G02*
X129450000Y-105450001I0J249999D01*
G01*
X129450000Y-104549999D01*
G75*
G02*
X129699999Y-104300000I249999J0D01*
G01*
X130350001Y-104300000D01*
G75*
G02*
X130600000Y-104549999I0J-249999D01*
G01*
G37*
G36*
G01*
X128550000Y-104549999D02*
X128550000Y-105450001D01*
G75*
G02*
X128300001Y-105700000I-249999J0D01*
G01*
X127649999Y-105700000D01*
G75*
G02*
X127400000Y-105450001I0J249999D01*
G01*
X127400000Y-104549999D01*
G75*
G02*
X127649999Y-104300000I249999J0D01*
G01*
X128300001Y-104300000D01*
G75*
G02*
X128550000Y-104549999I0J-249999D01*
G01*
G37*
G04 #@! TD*
D22*
G04 #@! TO.C,J2*
X121000000Y-119000000D03*
D23*
X118460000Y-119000000D03*
G04 #@! TD*
D24*
G04 #@! TO.C,Q1*
X131050000Y-125000000D03*
X132950000Y-125000000D03*
X132000000Y-123000000D03*
G04 #@! TD*
G04 #@! TO.C,R1*
G36*
G01*
X117400000Y-128450001D02*
X117400000Y-127549999D01*
G75*
G02*
X117649999Y-127300000I249999J0D01*
G01*
X118350001Y-127300000D01*
G75*
G02*
X118600000Y-127549999I0J-249999D01*
G01*
X118600000Y-128450001D01*
G75*
G02*
X118350001Y-128700000I-249999J0D01*
G01*
X117649999Y-128700000D01*
G75*
G02*
X117400000Y-128450001I0J249999D01*
G01*
G37*
G36*
G01*
X115400000Y-128450001D02*
X115400000Y-127549999D01*
G75*
G02*
X115649999Y-127300000I249999J0D01*
G01*
X116350001Y-127300000D01*
G75*
G02*
X116600000Y-127549999I0J-249999D01*
G01*
X116600000Y-128450001D01*
G75*
G02*
X116350001Y-128700000I-249999J0D01*
G01*
X115649999Y-128700000D01*
G75*
G02*
X115400000Y-128450001I0J249999D01*
G01*
G37*
G04 #@! TD*
G04 #@! TO.C,R2*
G36*
G01*
X131400000Y-136450001D02*
X131400000Y-135549999D01*
G75*
G02*
X131649999Y-135300000I249999J0D01*
G01*
X132350001Y-135300000D01*
G75*
G02*
X132600000Y-135549999I0J-249999D01*
G01*
X132600000Y-136450001D01*
G75*
G02*
X132350001Y-136700000I-249999J0D01*
G01*
X131649999Y-136700000D01*
G75*
G02*
X131400000Y-136450001I0J249999D01*
G01*
G37*
G36*
G01*
X133400000Y-136450001D02*
X133400000Y-135549999D01*
G75*
G02*
X133649999Y-135300000I249999J0D01*
G01*
X134350001Y-135300000D01*
G75*
G02*
X134600000Y-135549999I0J-249999D01*
G01*
X134600000Y-136450001D01*
G75*
G02*
X134350001Y-136700000I-249999J0D01*
G01*
X133649999Y-136700000D01*
G75*
G02*
X133400000Y-136450001I0J249999D01*
G01*
G37*
G04 #@! TD*
G04 #@! TO.C,R3*
G36*
G01*
X127400000Y-136450001D02*
X127400000Y-135549999D01*
G75*
G02*
X127649999Y-135300000I249999J0D01*
G01*
X128350001Y-135300000D01*
G75*
G02*
X128600000Y-135549999I0J-249999D01*
G01*
X128600000Y-136450001D01*
G75*
G02*
X128350001Y-136700000I-249999J0D01*
G01*
X127649999Y-136700000D01*
G75*
G02*
X127400000Y-136450001I0J249999D01*
G01*
G37*
G36*
G01*
X125400000Y-136450001D02*
X125400000Y-135549999D01*
G75*
G02*
X125649999Y-135300000I249999J0D01*
G01*
X126350001Y-135300000D01*
G75*
G02*
X126600000Y-135549999I0J-249999D01*
G01*
X126600000Y-136450001D01*
G75*
G02*
X126350001Y-136700000I-249999J0D01*
G01*
X125649999Y-136700000D01*
G75*
G02*
X125400000Y-136450001I0J249999D01*
G01*
G37*
G04 #@! TD*
G04 #@! TO.C,R4*
G36*
G01*
X122400000Y-132450001D02*
X122400000Y-131549999D01*
G75*
G02*
X122649999Y-131300000I249999J0D01*
G01*
X123350001Y-131300000D01*
G75*
G02*
X123600000Y-131549999I0J-249999D01*
G01*
X123600000Y-132450001D01*
G75*
G02*
X123350001Y-132700000I-249999J0D01*
G01*
X122649999Y-132700000D01*
G75*
G02*
X122400000Y-132450001I0J249999D01*
G01*
G37*
G36*
G01*
X120400000Y-132450001D02*
X120400000Y-131549999D01*
G75*
G02*
X120649999Y-131300000I249999J0D01*
G01*
X121350001Y-131300000D01*
G75*
G02*
X121600000Y-131549999I0J-249999D01*
G01*
X121600000Y-132450001D01*
G75*
G02*
X121350001Y-132700000I-249999J0D01*
G01*
X120649999Y-132700000D01*
G75*
G02*
X120400000Y-132450001I0J249999D01*
G01*
G37*
G04 #@! TD*
G04 #@! TO.C,R5*
G36*
G01*
X123600000Y-127549999D02*
X123600000Y-128450001D01*
G75*
G02*
X123350001Y-128700000I-249999J0D01*
G01*
X122649999Y-128700000D01*
G75*
G02*
X122400000Y-128450001I0J249999D01*
G01*
X122400000Y-127549999D01*
G75*
G02*
X122649999Y-127300000I249999J0D01*
G01*
X123350001Y-127300000D01*
G75*
G02*
X123600000Y-127549999I0J-249999D01*
G01*
G37*
G36*
G01*
X121600000Y-127549999D02*
X121600000Y-128450001D01*
G75*
G02*
X121350001Y-128700000I-249999J0D01*
G01*
X120649999Y-128700000D01*
G75*
G02*
X120400000Y-128450001I0J249999D01*
G01*
X120400000Y-127549999D01*
G75*
G02*
X120649999Y-127300000I249999J0D01*
G01*
X121350001Y-127300000D01*
G75*
G02*
X121600000Y-127549999I0J-249999D01*
G01*
G37*
G04 #@! TD*
G04 #@! TO.C,R6*
G36*
G01*
X116600000Y-123549999D02*
X116600000Y-124450001D01*
G75*
G02*
X116350001Y-124700000I-249999J0D01*
G01*
X115649999Y-124700000D01*
G75*
G02*
X115400000Y-124450001I0J249999D01*
G01*
X115400000Y-123549999D01*
G75*
G02*
X115649999Y-123300000I249999J0D01*
G01*
X116350001Y-123300000D01*
G75*
G02*
X116600000Y-123549999I0J-249999D01*
G01*
G37*
G36*
G01*
X118600000Y-123549999D02*
X118600000Y-124450001D01*
G75*
G02*
X118350001Y-124700000I-249999J0D01*
G01*
X117649999Y-124700000D01*
G75*
G02*
X117400000Y-124450001I0J249999D01*
G01*
X117400000Y-123549999D01*
G75*
G02*
X117649999Y-123300000I249999J0D01*
G01*
X118350001Y-123300000D01*
G75*
G02*
X118600000Y-123549999I0J-249999D01*
G01*
G37*
G04 #@! TD*
G04 #@! TO.C,R7*
G36*
G01*
X128600000Y-123549999D02*
X128600000Y-124450001D01*
G75*
G02*
X128350001Y-124700000I-249999J0D01*
G01*
X127649999Y-124700000D01*
G75*
G02*
X127400000Y-124450001I0J249999D01*
G01*
X127400000Y-123549999D01*
G75*
G02*
X127649999Y-123300000I249999J0D01*
G01*
X128350001Y-123300000D01*
G75*
G02*
X128600000Y-123549999I0J-249999D01*
G01*
G37*
G36*
G01*
X126600000Y-123549999D02*
X126600000Y-124450001D01*
G75*
G02*
X126350001Y-124700000I-249999J0D01*
G01*
X125649999Y-124700000D01*
G75*
G02*
X125400000Y-124450001I0J249999D01*
G01*
X125400000Y-123549999D01*
G75*
G02*
X125649999Y-123300000I249999J0D01*
G01*
X126350001Y-123300000D01*
G75*
G02*
X126600000Y-123549999I0J-249999D01*
G01*
G37*
G04 #@! TD*
G04 #@! TO.C,R8*
G36*
G01*
X137400000Y-128450001D02*
X137400000Y-127549999D01*
G75*
G02*
X137649999Y-127300000I249999J0D01*
G01*
X138350001Y-127300000D01*
G75*
G02*
X138600000Y-127549999I0J-249999D01*
G01*
X138600000Y-128450001D01*
G75*
G02*
X138350001Y-128700000I-249999J0D01*
G01*
X137649999Y-128700000D01*
G75*
G02*
X137400000Y-128450001I0J249999D01*
G01*
G37*
G36*
G01*
X135400000Y-128450001D02*
X135400000Y-127549999D01*
G75*
G02*
X135649999Y-127300000I249999J0D01*
G01*
X136350001Y-127300000D01*
G75*
G02*
X136600000Y-127549999I0J-249999D01*
G01*
X136600000Y-128450001D01*
G75*
G02*
X136350001Y-128700000I-249999J0D01*
G01*
X135649999Y-128700000D01*
G75*
G02*
X135400000Y-128450001I0J249999D01*
G01*
G37*
G04 #@! TD*
G04 #@! TO.C,R9*
G36*
G01*
X142400000Y-128450001D02*
X142400000Y-127549999D01*
G75*
G02*
X142649999Y-127300000I249999J0D01*
G01*
X143350001Y-127300000D01*
G75*
G02*
X143600000Y-127549999I0J-249999D01*
G01*
X143600000Y-128450001D01*
G75*
G02*
X143350001Y-128700000I-249999J0D01*
G01*
X142649999Y-128700000D01*
G75*
G02*
X142400000Y-128450001I0J249999D01*
G01*
G37*
G36*
G01*
X140400000Y-128450001D02*
X140400000Y-127549999D01*
G75*
G02*
X140649999Y-127300000I249999J0D01*
G01*
X141350001Y-127300000D01*
G75*
G02*
X141600000Y-127549999I0J-249999D01*
G01*
X141600000Y-128450001D01*
G75*
G02*
X141350001Y-128700000I-249999J0D01*
G01*
X140649999Y-128700000D01*
G75*
G02*
X140400000Y-128450001I0J249999D01*
G01*
G37*
G04 #@! TD*
G04 #@! TO.C,R10*
G36*
G01*
X178600000Y-135549999D02*
X178600000Y-136450001D01*
G75*
G02*
X178350001Y-136700000I-249999J0D01*
G01*
X177649999Y-136700000D01*
G75*
G02*
X177400000Y-136450001I0J249999D01*
G01*
X177400000Y-135549999D01*
G75*
G02*
X177649999Y-135300000I249999J0D01*
G01*
X178350001Y-135300000D01*
G75*
G02*
X178600000Y-135549999I0J-249999D01*
G01*
G37*
G36*
G01*
X176600000Y-135549999D02*
X176600000Y-136450001D01*
G75*
G02*
X176350001Y-136700000I-249999J0D01*
G01*
X175649999Y-136700000D01*
G75*
G02*
X175400000Y-136450001I0J249999D01*
G01*
X175400000Y-135549999D01*
G75*
G02*
X175649999Y-135300000I249999J0D01*
G01*
X176350001Y-135300000D01*
G75*
G02*
X176600000Y-135549999I0J-249999D01*
G01*
G37*
G04 #@! TD*
G04 #@! TO.C,R11*
G36*
G01*
X170600000Y-135549999D02*
X170600000Y-136450001D01*
G75*
G02*
X170350001Y-136700000I-249999J0D01*
G01*
X169649999Y-136700000D01*
G75*
G02*
X169400000Y-136450001I0J249999D01*
G01*
X169400000Y-135549999D01*
G75*
G02*
X169649999Y-135300000I249999J0D01*
G01*
X170350001Y-135300000D01*
G75*
G02*
X170600000Y-135549999I0J-249999D01*
G01*
G37*
G36*
G01*
X172600000Y-135549999D02*
X172600000Y-136450001D01*
G75*
G02*
X172350001Y-136700000I-249999J0D01*
G01*
X171649999Y-136700000D01*
G75*
G02*
X171400000Y-136450001I0J249999D01*
G01*
X171400000Y-135549999D01*
G75*
G02*
X171649999Y-135300000I249999J0D01*
G01*
X172350001Y-135300000D01*
G75*
G02*
X172600000Y-135549999I0J-249999D01*
G01*
G37*
G04 #@! TD*
G04 #@! TO.C,R12*
G36*
G01*
X172600000Y-131549999D02*
X172600000Y-132450001D01*
G75*
G02*
X172350001Y-132700000I-249999J0D01*
G01*
X171649999Y-132700000D01*
G75*
G02*
X171400000Y-132450001I0J249999D01*
G01*
X171400000Y-131549999D01*
G75*
G02*
X171649999Y-131300000I249999J0D01*
G01*
X172350001Y-131300000D01*
G75*
G02*
X172600000Y-131549999I0J-249999D01*
G01*
G37*
G36*
G01*
X170600000Y-131549999D02*
X170600000Y-132450001D01*
G75*
G02*
X170350001Y-132700000I-249999J0D01*
G01*
X169649999Y-132700000D01*
G75*
G02*
X169400000Y-132450001I0J249999D01*
G01*
X169400000Y-131549999D01*
G75*
G02*
X169649999Y-131300000I249999J0D01*
G01*
X170350001Y-131300000D01*
G75*
G02*
X170600000Y-131549999I0J-249999D01*
G01*
G37*
G04 #@! TD*
G04 #@! TO.C,R13*
G36*
G01*
X164600000Y-131549999D02*
X164600000Y-132450001D01*
G75*
G02*
X164350001Y-132700000I-249999J0D01*
G01*
X163649999Y-132700000D01*
G75*
G02*
X163400000Y-132450001I0J249999D01*
G01*
X163400000Y-131549999D01*
G75*
G02*
X163649999Y-131300000I249999J0D01*
G01*
X164350001Y-131300000D01*
G75*
G02*
X164600000Y-131549999I0J-249999D01*
G01*
G37*
G36*
G01*
X166600000Y-131549999D02*
X166600000Y-132450001D01*
G75*
G02*
X166350001Y-132700000I-249999J0D01*
G01*
X165649999Y-132700000D01*
G75*
G02*
X165400000Y-132450001I0J249999D01*
G01*
X165400000Y-131549999D01*
G75*
G02*
X165649999Y-131300000I249999J0D01*
G01*
X166350001Y-131300000D01*
G75*
G02*
X166600000Y-131549999I0J-249999D01*
G01*
G37*
G04 #@! TD*
G04 #@! TO.C,R14*
G36*
G01*
X166600000Y-135549999D02*
X166600000Y-136450001D01*
G75*
G02*
X166350001Y-136700000I-249999J0D01*
G01*
X165649999Y-136700000D01*
G75*
G02*
X165400000Y-136450001I0J249999D01*
G01*
X165400000Y-135549999D01*
G75*
G02*
X165649999Y-135300000I249999J0D01*
G01*
X166350001Y-135300000D01*
G75*
G02*
X166600000Y-135549999I0J-249999D01*
G01*
G37*
G36*
G01*
X164600000Y-135549999D02*
X164600000Y-136450001D01*
G75*
G02*
X164350001Y-136700000I-249999J0D01*
G01*
X163649999Y-136700000D01*
G75*
G02*
X163400000Y-136450001I0J249999D01*
G01*
X163400000Y-135549999D01*
G75*
G02*
X163649999Y-135300000I249999J0D01*
G01*
X164350001Y-135300000D01*
G75*
G02*
X164600000Y-135549999I0J-249999D01*
G01*
G37*
G04 #@! TD*
G04 #@! TO.C,R15*
G36*
G01*
X160600000Y-135549999D02*
X160600000Y-136450001D01*
G75*
G02*
X160350001Y-136700000I-249999J0D01*
G01*
X159649999Y-136700000D01*
G75*
G02*
X159400000Y-136450001I0J249999D01*
G01*
X159400000Y-135549999D01*
G75*
G02*
X159649999Y-135300000I249999J0D01*
G01*
X160350001Y-135300000D01*
G75*
G02*
X160600000Y-135549999I0J-249999D01*
G01*
G37*
G36*
G01*
X158600000Y-135549999D02*
X158600000Y-136450001D01*
G75*
G02*
X158350001Y-136700000I-249999J0D01*
G01*
X157649999Y-136700000D01*
G75*
G02*
X157400000Y-136450001I0J249999D01*
G01*
X157400000Y-135549999D01*
G75*
G02*
X157649999Y-135300000I249999J0D01*
G01*
X158350001Y-135300000D01*
G75*
G02*
X158600000Y-135549999I0J-249999D01*
G01*
G37*
G04 #@! TD*
G04 #@! TO.C,R16*
G36*
G01*
X158600000Y-131549999D02*
X158600000Y-132450001D01*
G75*
G02*
X158350001Y-132700000I-249999J0D01*
G01*
X157649999Y-132700000D01*
G75*
G02*
X157400000Y-132450001I0J249999D01*
G01*
X157400000Y-131549999D01*
G75*
G02*
X157649999Y-131300000I249999J0D01*
G01*
X158350001Y-131300000D01*
G75*
G02*
X158600000Y-131549999I0J-249999D01*
G01*
G37*
G36*
G01*
X160600000Y-131549999D02*
X160600000Y-132450001D01*
G75*
G02*
X160350001Y-132700000I-249999J0D01*
G01*
X159649999Y-132700000D01*
G75*
G02*
X159400000Y-132450001I0J249999D01*
G01*
X159400000Y-131549999D01*
G75*
G02*
X159649999Y-131300000I249999J0D01*
G01*
X160350001Y-131300000D01*
G75*
G02*
X160600000Y-131549999I0J-249999D01*
G01*
G37*
G04 #@! TD*
G04 #@! TO.C,R17*
G36*
G01*
X154600000Y-131549999D02*
X154600000Y-132450001D01*
G75*
G02*
X154350001Y-132700000I-249999J0D01*
G01*
X153649999Y-132700000D01*
G75*
G02*
X153400000Y-132450001I0J249999D01*
G01*
X153400000Y-131549999D01*
G75*
G02*
X153649999Y-131300000I249999J0D01*
G01*
X154350001Y-131300000D01*
G75*
G02*
X154600000Y-131549999I0J-249999D01*
G01*
G37*
G36*
G01*
X152600000Y-131549999D02*
X152600000Y-132450001D01*
G75*
G02*
X152350001Y-132700000I-249999J0D01*
G01*
X151649999Y-132700000D01*
G75*
G02*
X151400000Y-132450001I0J249999D01*
G01*
X151400000Y-131549999D01*
G75*
G02*
X151649999Y-131300000I249999J0D01*
G01*
X152350001Y-131300000D01*
G75*
G02*
X152600000Y-131549999I0J-249999D01*
G01*
G37*
G04 #@! TD*
G04 #@! TO.C,R18*
G36*
G01*
X154600000Y-135549999D02*
X154600000Y-136450001D01*
G75*
G02*
X154350001Y-136700000I-249999J0D01*
G01*
X153649999Y-136700000D01*
G75*
G02*
X153400000Y-136450001I0J249999D01*
G01*
X153400000Y-135549999D01*
G75*
G02*
X153649999Y-135300000I249999J0D01*
G01*
X154350001Y-135300000D01*
G75*
G02*
X154600000Y-135549999I0J-249999D01*
G01*
G37*
G36*
G01*
X152600000Y-135549999D02*
X152600000Y-136450001D01*
G75*
G02*
X152350001Y-136700000I-249999J0D01*
G01*
X151649999Y-136700000D01*
G75*
G02*
X151400000Y-136450001I0J249999D01*
G01*
X151400000Y-135549999D01*
G75*
G02*
X151649999Y-135300000I249999J0D01*
G01*
X152350001Y-135300000D01*
G75*
G02*
X152600000Y-135549999I0J-249999D01*
G01*
G37*
G04 #@! TD*
D25*
G04 #@! TO.C,RN1*
X164837000Y-119000000D03*
D26*
X164250000Y-119000000D03*
X163750000Y-119000000D03*
X163250000Y-119000000D03*
X162750000Y-119000000D03*
X162250000Y-119000000D03*
X161750000Y-119000000D03*
D25*
X161163000Y-119000000D03*
X161163000Y-120500000D03*
X164837000Y-120500000D03*
D26*
X161750000Y-120500000D03*
X162250000Y-120500000D03*
X162750000Y-120500000D03*
X163250000Y-120500000D03*
X163750000Y-120500000D03*
X164250000Y-120500000D03*
G04 #@! TD*
D27*
G04 #@! TO.C,RV1*
X141000000Y-136000000D03*
X143540000Y-136000000D03*
X146080000Y-136000000D03*
G04 #@! TD*
G04 #@! TO.C,U1*
G36*
G01*
X126550000Y-128245000D02*
X126550000Y-127945000D01*
G75*
G02*
X126700000Y-127795000I150000J0D01*
G01*
X128350000Y-127795000D01*
G75*
G02*
X128500000Y-127945000I0J-150000D01*
G01*
X128500000Y-128245000D01*
G75*
G02*
X128350000Y-128395000I-150000J0D01*
G01*
X126700000Y-128395000D01*
G75*
G02*
X126550000Y-128245000I0J150000D01*
G01*
G37*
G36*
G01*
X126550000Y-129515000D02*
X126550000Y-129215000D01*
G75*
G02*
X126700000Y-129065000I150000J0D01*
G01*
X128350000Y-129065000D01*
G75*
G02*
X128500000Y-129215000I0J-150000D01*
G01*
X128500000Y-129515000D01*
G75*
G02*
X128350000Y-129665000I-150000J0D01*
G01*
X126700000Y-129665000D01*
G75*
G02*
X126550000Y-129515000I0J150000D01*
G01*
G37*
G36*
G01*
X126550000Y-130785000D02*
X126550000Y-130485000D01*
G75*
G02*
X126700000Y-130335000I150000J0D01*
G01*
X128350000Y-130335000D01*
G75*
G02*
X128500000Y-130485000I0J-150000D01*
G01*
X128500000Y-130785000D01*
G75*
G02*
X128350000Y-130935000I-150000J0D01*
G01*
X126700000Y-130935000D01*
G75*
G02*
X126550000Y-130785000I0J150000D01*
G01*
G37*
G36*
G01*
X126550000Y-132055000D02*
X126550000Y-131755000D01*
G75*
G02*
X126700000Y-131605000I150000J0D01*
G01*
X128350000Y-131605000D01*
G75*
G02*
X128500000Y-131755000I0J-150000D01*
G01*
X128500000Y-132055000D01*
G75*
G02*
X128350000Y-132205000I-150000J0D01*
G01*
X126700000Y-132205000D01*
G75*
G02*
X126550000Y-132055000I0J150000D01*
G01*
G37*
G36*
G01*
X131500000Y-132055000D02*
X131500000Y-131755000D01*
G75*
G02*
X131650000Y-131605000I150000J0D01*
G01*
X133300000Y-131605000D01*
G75*
G02*
X133450000Y-131755000I0J-150000D01*
G01*
X133450000Y-132055000D01*
G75*
G02*
X133300000Y-132205000I-150000J0D01*
G01*
X131650000Y-132205000D01*
G75*
G02*
X131500000Y-132055000I0J150000D01*
G01*
G37*
G36*
G01*
X131500000Y-130785000D02*
X131500000Y-130485000D01*
G75*
G02*
X131650000Y-130335000I150000J0D01*
G01*
X133300000Y-130335000D01*
G75*
G02*
X133450000Y-130485000I0J-150000D01*
G01*
X133450000Y-130785000D01*
G75*
G02*
X133300000Y-130935000I-150000J0D01*
G01*
X131650000Y-130935000D01*
G75*
G02*
X131500000Y-130785000I0J150000D01*
G01*
G37*
G36*
G01*
X131500000Y-129515000D02*
X131500000Y-129215000D01*
G75*
G02*
X131650000Y-129065000I150000J0D01*
G01*
X133300000Y-129065000D01*
G75*
G02*
X133450000Y-129215000I0J-150000D01*
G01*
X133450000Y-129515000D01*
G75*
G02*
X133300000Y-129665000I-150000J0D01*
G01*
X131650000Y-129665000D01*
G75*
G02*
X131500000Y-129515000I0J150000D01*
G01*
G37*
G36*
G01*
X131500000Y-128245000D02*
X131500000Y-127945000D01*
G75*
G02*
X131650000Y-127795000I150000J0D01*
G01*
X133300000Y-127795000D01*
G75*
G02*
X133450000Y-127945000I0J-150000D01*
G01*
X133450000Y-128245000D01*
G75*
G02*
X133300000Y-128395000I-150000J0D01*
G01*
X131650000Y-128395000D01*
G75*
G02*
X131500000Y-128245000I0J150000D01*
G01*
G37*
G04 #@! TD*
G04 #@! TO.C,U2*
G36*
G01*
X177500000Y-124245000D02*
X177500000Y-123945000D01*
G75*
G02*
X177650000Y-123795000I150000J0D01*
G01*
X179300000Y-123795000D01*
G75*
G02*
X179450000Y-123945000I0J-150000D01*
G01*
X179450000Y-124245000D01*
G75*
G02*
X179300000Y-124395000I-150000J0D01*
G01*
X177650000Y-124395000D01*
G75*
G02*
X177500000Y-124245000I0J150000D01*
G01*
G37*
G36*
G01*
X177500000Y-125515000D02*
X177500000Y-125215000D01*
G75*
G02*
X177650000Y-125065000I150000J0D01*
G01*
X179300000Y-125065000D01*
G75*
G02*
X179450000Y-125215000I0J-150000D01*
G01*
X179450000Y-125515000D01*
G75*
G02*
X179300000Y-125665000I-150000J0D01*
G01*
X177650000Y-125665000D01*
G75*
G02*
X177500000Y-125515000I0J150000D01*
G01*
G37*
G36*
G01*
X177500000Y-126785000D02*
X177500000Y-126485000D01*
G75*
G02*
X177650000Y-126335000I150000J0D01*
G01*
X179300000Y-126335000D01*
G75*
G02*
X179450000Y-126485000I0J-150000D01*
G01*
X179450000Y-126785000D01*
G75*
G02*
X179300000Y-126935000I-150000J0D01*
G01*
X177650000Y-126935000D01*
G75*
G02*
X177500000Y-126785000I0J150000D01*
G01*
G37*
G36*
G01*
X177500000Y-128055000D02*
X177500000Y-127755000D01*
G75*
G02*
X177650000Y-127605000I150000J0D01*
G01*
X179300000Y-127605000D01*
G75*
G02*
X179450000Y-127755000I0J-150000D01*
G01*
X179450000Y-128055000D01*
G75*
G02*
X179300000Y-128205000I-150000J0D01*
G01*
X177650000Y-128205000D01*
G75*
G02*
X177500000Y-128055000I0J150000D01*
G01*
G37*
G36*
G01*
X172550000Y-128055000D02*
X172550000Y-127755000D01*
G75*
G02*
X172700000Y-127605000I150000J0D01*
G01*
X174350000Y-127605000D01*
G75*
G02*
X174500000Y-127755000I0J-150000D01*
G01*
X174500000Y-128055000D01*
G75*
G02*
X174350000Y-128205000I-150000J0D01*
G01*
X172700000Y-128205000D01*
G75*
G02*
X172550000Y-128055000I0J150000D01*
G01*
G37*
G36*
G01*
X172550000Y-126785000D02*
X172550000Y-126485000D01*
G75*
G02*
X172700000Y-126335000I150000J0D01*
G01*
X174350000Y-126335000D01*
G75*
G02*
X174500000Y-126485000I0J-150000D01*
G01*
X174500000Y-126785000D01*
G75*
G02*
X174350000Y-126935000I-150000J0D01*
G01*
X172700000Y-126935000D01*
G75*
G02*
X172550000Y-126785000I0J150000D01*
G01*
G37*
G36*
G01*
X172550000Y-125515000D02*
X172550000Y-125215000D01*
G75*
G02*
X172700000Y-125065000I150000J0D01*
G01*
X174350000Y-125065000D01*
G75*
G02*
X174500000Y-125215000I0J-150000D01*
G01*
X174500000Y-125515000D01*
G75*
G02*
X174350000Y-125665000I-150000J0D01*
G01*
X172700000Y-125665000D01*
G75*
G02*
X172550000Y-125515000I0J150000D01*
G01*
G37*
G36*
G01*
X172550000Y-124245000D02*
X172550000Y-123945000D01*
G75*
G02*
X172700000Y-123795000I150000J0D01*
G01*
X174350000Y-123795000D01*
G75*
G02*
X174500000Y-123945000I0J-150000D01*
G01*
X174500000Y-124245000D01*
G75*
G02*
X174350000Y-124395000I-150000J0D01*
G01*
X172700000Y-124395000D01*
G75*
G02*
X172550000Y-124245000I0J150000D01*
G01*
G37*
G04 #@! TD*
G04 #@! TO.C,U3*
G36*
G01*
X163550000Y-124245000D02*
X163550000Y-123945000D01*
G75*
G02*
X163700000Y-123795000I150000J0D01*
G01*
X165350000Y-123795000D01*
G75*
G02*
X165500000Y-123945000I0J-150000D01*
G01*
X165500000Y-124245000D01*
G75*
G02*
X165350000Y-124395000I-150000J0D01*
G01*
X163700000Y-124395000D01*
G75*
G02*
X163550000Y-124245000I0J150000D01*
G01*
G37*
G36*
G01*
X163550000Y-125515000D02*
X163550000Y-125215000D01*
G75*
G02*
X163700000Y-125065000I150000J0D01*
G01*
X165350000Y-125065000D01*
G75*
G02*
X165500000Y-125215000I0J-150000D01*
G01*
X165500000Y-125515000D01*
G75*
G02*
X165350000Y-125665000I-150000J0D01*
G01*
X163700000Y-125665000D01*
G75*
G02*
X163550000Y-125515000I0J150000D01*
G01*
G37*
G36*
G01*
X163550000Y-126785000D02*
X163550000Y-126485000D01*
G75*
G02*
X163700000Y-126335000I150000J0D01*
G01*
X165350000Y-126335000D01*
G75*
G02*
X165500000Y-126485000I0J-150000D01*
G01*
X165500000Y-126785000D01*
G75*
G02*
X165350000Y-126935000I-150000J0D01*
G01*
X163700000Y-126935000D01*
G75*
G02*
X163550000Y-126785000I0J150000D01*
G01*
G37*
G36*
G01*
X163550000Y-128055000D02*
X163550000Y-127755000D01*
G75*
G02*
X163700000Y-127605000I150000J0D01*
G01*
X165350000Y-127605000D01*
G75*
G02*
X165500000Y-127755000I0J-150000D01*
G01*
X165500000Y-128055000D01*
G75*
G02*
X165350000Y-128205000I-150000J0D01*
G01*
X163700000Y-128205000D01*
G75*
G02*
X163550000Y-128055000I0J150000D01*
G01*
G37*
G36*
G01*
X168500000Y-128055000D02*
X168500000Y-127755000D01*
G75*
G02*
X168650000Y-127605000I150000J0D01*
G01*
X170300000Y-127605000D01*
G75*
G02*
X170450000Y-127755000I0J-150000D01*
G01*
X170450000Y-128055000D01*
G75*
G02*
X170300000Y-128205000I-150000J0D01*
G01*
X168650000Y-128205000D01*
G75*
G02*
X168500000Y-128055000I0J150000D01*
G01*
G37*
G36*
G01*
X168500000Y-126785000D02*
X168500000Y-126485000D01*
G75*
G02*
X168650000Y-126335000I150000J0D01*
G01*
X170300000Y-126335000D01*
G75*
G02*
X170450000Y-126485000I0J-150000D01*
G01*
X170450000Y-126785000D01*
G75*
G02*
X170300000Y-126935000I-150000J0D01*
G01*
X168650000Y-126935000D01*
G75*
G02*
X168500000Y-126785000I0J150000D01*
G01*
G37*
G36*
G01*
X168500000Y-125515000D02*
X168500000Y-125215000D01*
G75*
G02*
X168650000Y-125065000I150000J0D01*
G01*
X170300000Y-125065000D01*
G75*
G02*
X170450000Y-125215000I0J-150000D01*
G01*
X170450000Y-125515000D01*
G75*
G02*
X170300000Y-125665000I-150000J0D01*
G01*
X168650000Y-125665000D01*
G75*
G02*
X168500000Y-125515000I0J150000D01*
G01*
G37*
G36*
G01*
X168500000Y-124245000D02*
X168500000Y-123945000D01*
G75*
G02*
X168650000Y-123795000I150000J0D01*
G01*
X170300000Y-123795000D01*
G75*
G02*
X170450000Y-123945000I0J-150000D01*
G01*
X170450000Y-124245000D01*
G75*
G02*
X170300000Y-124395000I-150000J0D01*
G01*
X168650000Y-124395000D01*
G75*
G02*
X168500000Y-124245000I0J150000D01*
G01*
G37*
G04 #@! TD*
G04 #@! TO.C,U4*
G36*
G01*
X154550000Y-124245000D02*
X154550000Y-123945000D01*
G75*
G02*
X154700000Y-123795000I150000J0D01*
G01*
X156350000Y-123795000D01*
G75*
G02*
X156500000Y-123945000I0J-150000D01*
G01*
X156500000Y-124245000D01*
G75*
G02*
X156350000Y-124395000I-150000J0D01*
G01*
X154700000Y-124395000D01*
G75*
G02*
X154550000Y-124245000I0J150000D01*
G01*
G37*
G36*
G01*
X154550000Y-125515000D02*
X154550000Y-125215000D01*
G75*
G02*
X154700000Y-125065000I150000J0D01*
G01*
X156350000Y-125065000D01*
G75*
G02*
X156500000Y-125215000I0J-150000D01*
G01*
X156500000Y-125515000D01*
G75*
G02*
X156350000Y-125665000I-150000J0D01*
G01*
X154700000Y-125665000D01*
G75*
G02*
X154550000Y-125515000I0J150000D01*
G01*
G37*
G36*
G01*
X154550000Y-126785000D02*
X154550000Y-126485000D01*
G75*
G02*
X154700000Y-126335000I150000J0D01*
G01*
X156350000Y-126335000D01*
G75*
G02*
X156500000Y-126485000I0J-150000D01*
G01*
X156500000Y-126785000D01*
G75*
G02*
X156350000Y-126935000I-150000J0D01*
G01*
X154700000Y-126935000D01*
G75*
G02*
X154550000Y-126785000I0J150000D01*
G01*
G37*
G36*
G01*
X154550000Y-128055000D02*
X154550000Y-127755000D01*
G75*
G02*
X154700000Y-127605000I150000J0D01*
G01*
X156350000Y-127605000D01*
G75*
G02*
X156500000Y-127755000I0J-150000D01*
G01*
X156500000Y-128055000D01*
G75*
G02*
X156350000Y-128205000I-150000J0D01*
G01*
X154700000Y-128205000D01*
G75*
G02*
X154550000Y-128055000I0J150000D01*
G01*
G37*
G36*
G01*
X159500000Y-128055000D02*
X159500000Y-127755000D01*
G75*
G02*
X159650000Y-127605000I150000J0D01*
G01*
X161300000Y-127605000D01*
G75*
G02*
X161450000Y-127755000I0J-150000D01*
G01*
X161450000Y-128055000D01*
G75*
G02*
X161300000Y-128205000I-150000J0D01*
G01*
X159650000Y-128205000D01*
G75*
G02*
X159500000Y-128055000I0J150000D01*
G01*
G37*
G36*
G01*
X159500000Y-126785000D02*
X159500000Y-126485000D01*
G75*
G02*
X159650000Y-126335000I150000J0D01*
G01*
X161300000Y-126335000D01*
G75*
G02*
X161450000Y-126485000I0J-150000D01*
G01*
X161450000Y-126785000D01*
G75*
G02*
X161300000Y-126935000I-150000J0D01*
G01*
X159650000Y-126935000D01*
G75*
G02*
X159500000Y-126785000I0J150000D01*
G01*
G37*
G36*
G01*
X159500000Y-125515000D02*
X159500000Y-125215000D01*
G75*
G02*
X159650000Y-125065000I150000J0D01*
G01*
X161300000Y-125065000D01*
G75*
G02*
X161450000Y-125215000I0J-150000D01*
G01*
X161450000Y-125515000D01*
G75*
G02*
X161300000Y-125665000I-150000J0D01*
G01*
X159650000Y-125665000D01*
G75*
G02*
X159500000Y-125515000I0J150000D01*
G01*
G37*
G36*
G01*
X159500000Y-124245000D02*
X159500000Y-123945000D01*
G75*
G02*
X159650000Y-123795000I150000J0D01*
G01*
X161300000Y-123795000D01*
G75*
G02*
X161450000Y-123945000I0J-150000D01*
G01*
X161450000Y-124245000D01*
G75*
G02*
X161300000Y-124395000I-150000J0D01*
G01*
X159650000Y-124395000D01*
G75*
G02*
X159500000Y-124245000I0J150000D01*
G01*
G37*
G04 #@! TD*
G04 #@! TO.C,U5*
G36*
G01*
X150500000Y-124245000D02*
X150500000Y-123945000D01*
G75*
G02*
X150650000Y-123795000I150000J0D01*
G01*
X152300000Y-123795000D01*
G75*
G02*
X152450000Y-123945000I0J-150000D01*
G01*
X152450000Y-124245000D01*
G75*
G02*
X152300000Y-124395000I-150000J0D01*
G01*
X150650000Y-124395000D01*
G75*
G02*
X150500000Y-124245000I0J150000D01*
G01*
G37*
G36*
G01*
X150500000Y-125515000D02*
X150500000Y-125215000D01*
G75*
G02*
X150650000Y-125065000I150000J0D01*
G01*
X152300000Y-125065000D01*
G75*
G02*
X152450000Y-125215000I0J-150000D01*
G01*
X152450000Y-125515000D01*
G75*
G02*
X152300000Y-125665000I-150000J0D01*
G01*
X150650000Y-125665000D01*
G75*
G02*
X150500000Y-125515000I0J150000D01*
G01*
G37*
G36*
G01*
X150500000Y-126785000D02*
X150500000Y-126485000D01*
G75*
G02*
X150650000Y-126335000I150000J0D01*
G01*
X152300000Y-126335000D01*
G75*
G02*
X152450000Y-126485000I0J-150000D01*
G01*
X152450000Y-126785000D01*
G75*
G02*
X152300000Y-126935000I-150000J0D01*
G01*
X150650000Y-126935000D01*
G75*
G02*
X150500000Y-126785000I0J150000D01*
G01*
G37*
G36*
G01*
X150500000Y-128055000D02*
X150500000Y-127755000D01*
G75*
G02*
X150650000Y-127605000I150000J0D01*
G01*
X152300000Y-127605000D01*
G75*
G02*
X152450000Y-127755000I0J-150000D01*
G01*
X152450000Y-128055000D01*
G75*
G02*
X152300000Y-128205000I-150000J0D01*
G01*
X150650000Y-128205000D01*
G75*
G02*
X150500000Y-128055000I0J150000D01*
G01*
G37*
G36*
G01*
X145550000Y-128055000D02*
X145550000Y-127755000D01*
G75*
G02*
X145700000Y-127605000I150000J0D01*
G01*
X147350000Y-127605000D01*
G75*
G02*
X147500000Y-127755000I0J-150000D01*
G01*
X147500000Y-128055000D01*
G75*
G02*
X147350000Y-128205000I-150000J0D01*
G01*
X145700000Y-128205000D01*
G75*
G02*
X145550000Y-128055000I0J150000D01*
G01*
G37*
G36*
G01*
X145550000Y-126785000D02*
X145550000Y-126485000D01*
G75*
G02*
X145700000Y-126335000I150000J0D01*
G01*
X147350000Y-126335000D01*
G75*
G02*
X147500000Y-126485000I0J-150000D01*
G01*
X147500000Y-126785000D01*
G75*
G02*
X147350000Y-126935000I-150000J0D01*
G01*
X145700000Y-126935000D01*
G75*
G02*
X145550000Y-126785000I0J150000D01*
G01*
G37*
G36*
G01*
X145550000Y-125515000D02*
X145550000Y-125215000D01*
G75*
G02*
X145700000Y-125065000I150000J0D01*
G01*
X147350000Y-125065000D01*
G75*
G02*
X147500000Y-125215000I0J-150000D01*
G01*
X147500000Y-125515000D01*
G75*
G02*
X147350000Y-125665000I-150000J0D01*
G01*
X145700000Y-125665000D01*
G75*
G02*
X145550000Y-125515000I0J150000D01*
G01*
G37*
G36*
G01*
X145550000Y-124245000D02*
X145550000Y-123945000D01*
G75*
G02*
X145700000Y-123795000I150000J0D01*
G01*
X147350000Y-123795000D01*
G75*
G02*
X147500000Y-123945000I0J-150000D01*
G01*
X147500000Y-124245000D01*
G75*
G02*
X147350000Y-124395000I-150000J0D01*
G01*
X145700000Y-124395000D01*
G75*
G02*
X145550000Y-124245000I0J150000D01*
G01*
G37*
G04 #@! TD*
M02*
