G04 #@! TF.GenerationSoftware,KiCad,Pcbnew,(5.1.6)-1*
G04 #@! TF.CreationDate,2021-12-09T10:58:41+01:00*
G04 #@! TF.ProjectId,opamp_vu_meter,6f70616d-705f-4767-955f-6d657465722e,rev?*
G04 #@! TF.SameCoordinates,Original*
G04 #@! TF.FileFunction,Soldermask,Top*
G04 #@! TF.FilePolarity,Negative*
%FSLAX46Y46*%
G04 Gerber Fmt 4.6, Leading zero omitted, Abs format (unit mm)*
G04 Created by KiCad (PCBNEW (5.1.6)-1) date 2021-12-09 10:58:41*
%MOMM*%
%LPD*%
G01*
G04 APERTURE LIST*
%ADD10C,0.010000*%
%ADD11C,3.200000*%
%ADD12O,1.700000X1.700000*%
%ADD13R,1.700000X1.700000*%
%ADD14C,1.333000*%
G04 APERTURE END LIST*
D10*
G04 #@! TO.C,G\u002A\u002A\u002A*
G36*
X135204158Y-97572701D02*
G01*
X135785291Y-97595073D01*
X136274135Y-97636443D01*
X136572333Y-97683919D01*
X137847484Y-98023131D01*
X139020163Y-98468353D01*
X140132279Y-99037124D01*
X140800509Y-99453347D01*
X141298847Y-99808993D01*
X141784798Y-100200344D01*
X142235166Y-100604607D01*
X142626755Y-100998992D01*
X142936369Y-101360707D01*
X143140811Y-101666959D01*
X143203215Y-101814156D01*
X143297638Y-102410848D01*
X143228229Y-102966458D01*
X142996428Y-103475711D01*
X142631295Y-103907854D01*
X142158920Y-104245191D01*
X141636306Y-104434749D01*
X141091865Y-104471339D01*
X140554010Y-104349770D01*
X140450294Y-104306277D01*
X140217589Y-104170108D01*
X139922223Y-103955170D01*
X139620563Y-103703134D01*
X139561294Y-103649025D01*
X138696350Y-102941775D01*
X137771029Y-102379008D01*
X136754327Y-101943105D01*
X136300411Y-101795936D01*
X135907804Y-101689413D01*
X135556201Y-101622744D01*
X135180944Y-101587633D01*
X134717377Y-101575781D01*
X134582666Y-101575477D01*
X133954207Y-101595974D01*
X133380701Y-101663700D01*
X132816482Y-101789546D01*
X132215879Y-101984401D01*
X131533224Y-102259157D01*
X131314619Y-102354789D01*
X130866425Y-102546775D01*
X130527318Y-102672653D01*
X130256229Y-102744595D01*
X130012088Y-102774771D01*
X129886495Y-102778000D01*
X129334416Y-102703418D01*
X128856097Y-102495824D01*
X128462454Y-102179449D01*
X128164407Y-101778521D01*
X127972873Y-101317272D01*
X127898769Y-100819930D01*
X127953015Y-100310725D01*
X128146529Y-99813888D01*
X128391948Y-99461233D01*
X128685471Y-99199263D01*
X129119368Y-98922056D01*
X129666824Y-98641240D01*
X130301024Y-98368445D01*
X130995154Y-98115298D01*
X131722397Y-97893428D01*
X132384761Y-97729728D01*
X132797080Y-97664004D01*
X133327196Y-97614979D01*
X133933093Y-97583114D01*
X134572753Y-97568868D01*
X135204158Y-97572701D01*
G37*
X135204158Y-97572701D02*
X135785291Y-97595073D01*
X136274135Y-97636443D01*
X136572333Y-97683919D01*
X137847484Y-98023131D01*
X139020163Y-98468353D01*
X140132279Y-99037124D01*
X140800509Y-99453347D01*
X141298847Y-99808993D01*
X141784798Y-100200344D01*
X142235166Y-100604607D01*
X142626755Y-100998992D01*
X142936369Y-101360707D01*
X143140811Y-101666959D01*
X143203215Y-101814156D01*
X143297638Y-102410848D01*
X143228229Y-102966458D01*
X142996428Y-103475711D01*
X142631295Y-103907854D01*
X142158920Y-104245191D01*
X141636306Y-104434749D01*
X141091865Y-104471339D01*
X140554010Y-104349770D01*
X140450294Y-104306277D01*
X140217589Y-104170108D01*
X139922223Y-103955170D01*
X139620563Y-103703134D01*
X139561294Y-103649025D01*
X138696350Y-102941775D01*
X137771029Y-102379008D01*
X136754327Y-101943105D01*
X136300411Y-101795936D01*
X135907804Y-101689413D01*
X135556201Y-101622744D01*
X135180944Y-101587633D01*
X134717377Y-101575781D01*
X134582666Y-101575477D01*
X133954207Y-101595974D01*
X133380701Y-101663700D01*
X132816482Y-101789546D01*
X132215879Y-101984401D01*
X131533224Y-102259157D01*
X131314619Y-102354789D01*
X130866425Y-102546775D01*
X130527318Y-102672653D01*
X130256229Y-102744595D01*
X130012088Y-102774771D01*
X129886495Y-102778000D01*
X129334416Y-102703418D01*
X128856097Y-102495824D01*
X128462454Y-102179449D01*
X128164407Y-101778521D01*
X127972873Y-101317272D01*
X127898769Y-100819930D01*
X127953015Y-100310725D01*
X128146529Y-99813888D01*
X128391948Y-99461233D01*
X128685471Y-99199263D01*
X129119368Y-98922056D01*
X129666824Y-98641240D01*
X130301024Y-98368445D01*
X130995154Y-98115298D01*
X131722397Y-97893428D01*
X132384761Y-97729728D01*
X132797080Y-97664004D01*
X133327196Y-97614979D01*
X133933093Y-97583114D01*
X134572753Y-97568868D01*
X135204158Y-97572701D01*
G36*
X167585374Y-97591206D02*
G01*
X168243912Y-97652426D01*
X168698881Y-97728877D01*
X169453342Y-97917938D01*
X170192185Y-98147930D01*
X170889197Y-98407484D01*
X171518165Y-98685228D01*
X172052874Y-98969794D01*
X172467111Y-99249810D01*
X172692717Y-99461233D01*
X172998773Y-99932635D01*
X173157308Y-100434724D01*
X173179238Y-100943269D01*
X173075483Y-101434041D01*
X172856960Y-101882810D01*
X172534587Y-102265347D01*
X172119282Y-102557421D01*
X171621963Y-102734803D01*
X171198171Y-102778000D01*
X170952060Y-102764235D01*
X170699661Y-102714827D01*
X170399907Y-102617605D01*
X170011728Y-102460399D01*
X169770047Y-102354789D01*
X169055242Y-102054966D01*
X168435660Y-101838183D01*
X167865633Y-101693552D01*
X167299492Y-101610181D01*
X166691569Y-101577180D01*
X166502000Y-101575477D01*
X166006867Y-101582888D01*
X165615917Y-101611521D01*
X165264495Y-101669673D01*
X164887943Y-101765643D01*
X164784255Y-101795936D01*
X163720759Y-102184576D01*
X162761449Y-102692804D01*
X161875323Y-103338237D01*
X161523372Y-103649025D01*
X161227600Y-103903568D01*
X160926204Y-104129825D01*
X160675551Y-104286123D01*
X160634372Y-104306277D01*
X160185911Y-104433544D01*
X159678030Y-104456696D01*
X159186377Y-104373747D01*
X159102833Y-104346469D01*
X158744799Y-104151610D01*
X158391798Y-103847046D01*
X158095726Y-103485792D01*
X157911266Y-103129168D01*
X157789135Y-102609641D01*
X157802153Y-102133023D01*
X157957549Y-101673207D01*
X158262548Y-101204084D01*
X158528906Y-100898209D01*
X159367980Y-100119024D01*
X160339175Y-99411029D01*
X161414697Y-98789721D01*
X162566757Y-98270596D01*
X163767560Y-97869150D01*
X164131333Y-97774423D01*
X164682514Y-97674144D01*
X165351850Y-97605201D01*
X166091001Y-97568075D01*
X166851623Y-97563250D01*
X167585374Y-97591206D01*
G37*
X167585374Y-97591206D02*
X168243912Y-97652426D01*
X168698881Y-97728877D01*
X169453342Y-97917938D01*
X170192185Y-98147930D01*
X170889197Y-98407484D01*
X171518165Y-98685228D01*
X172052874Y-98969794D01*
X172467111Y-99249810D01*
X172692717Y-99461233D01*
X172998773Y-99932635D01*
X173157308Y-100434724D01*
X173179238Y-100943269D01*
X173075483Y-101434041D01*
X172856960Y-101882810D01*
X172534587Y-102265347D01*
X172119282Y-102557421D01*
X171621963Y-102734803D01*
X171198171Y-102778000D01*
X170952060Y-102764235D01*
X170699661Y-102714827D01*
X170399907Y-102617605D01*
X170011728Y-102460399D01*
X169770047Y-102354789D01*
X169055242Y-102054966D01*
X168435660Y-101838183D01*
X167865633Y-101693552D01*
X167299492Y-101610181D01*
X166691569Y-101577180D01*
X166502000Y-101575477D01*
X166006867Y-101582888D01*
X165615917Y-101611521D01*
X165264495Y-101669673D01*
X164887943Y-101765643D01*
X164784255Y-101795936D01*
X163720759Y-102184576D01*
X162761449Y-102692804D01*
X161875323Y-103338237D01*
X161523372Y-103649025D01*
X161227600Y-103903568D01*
X160926204Y-104129825D01*
X160675551Y-104286123D01*
X160634372Y-104306277D01*
X160185911Y-104433544D01*
X159678030Y-104456696D01*
X159186377Y-104373747D01*
X159102833Y-104346469D01*
X158744799Y-104151610D01*
X158391798Y-103847046D01*
X158095726Y-103485792D01*
X157911266Y-103129168D01*
X157789135Y-102609641D01*
X157802153Y-102133023D01*
X157957549Y-101673207D01*
X158262548Y-101204084D01*
X158528906Y-100898209D01*
X159367980Y-100119024D01*
X160339175Y-99411029D01*
X161414697Y-98789721D01*
X162566757Y-98270596D01*
X163767560Y-97869150D01*
X164131333Y-97774423D01*
X164682514Y-97674144D01*
X165351850Y-97605201D01*
X166091001Y-97568075D01*
X166851623Y-97563250D01*
X167585374Y-97591206D01*
G04 #@! TD*
D11*
G04 #@! TO.C,REF\u002A\u002A*
X122500000Y-80000000D03*
G04 #@! TD*
G04 #@! TO.C,REF\u002A\u002A*
X178500000Y-80000000D03*
G04 #@! TD*
D12*
G04 #@! TO.C,J1*
X151540000Y-116500000D03*
D13*
X149000000Y-116500000D03*
G04 #@! TD*
D14*
G04 #@! TO.C,MK1*
X149000000Y-113000000D03*
X151540000Y-113000000D03*
G04 #@! TD*
G04 #@! TO.C,D2*
G36*
G01*
X180083489Y-38438939D02*
X179214154Y-38671876D01*
G75*
G02*
X178907969Y-38495101I-64705J241480D01*
G01*
X178739736Y-37867247D01*
G75*
G02*
X178916511Y-37561062I241480J64705D01*
G01*
X179785846Y-37328124D01*
G75*
G02*
X180092031Y-37504899I64705J-241480D01*
G01*
X180260264Y-38132753D01*
G75*
G02*
X180083489Y-38438938I-241480J-64705D01*
G01*
G37*
G36*
G01*
X179552909Y-36458791D02*
X178683574Y-36691728D01*
G75*
G02*
X178377389Y-36514953I-64705J241480D01*
G01*
X178209156Y-35887099D01*
G75*
G02*
X178385931Y-35580914I241480J64705D01*
G01*
X179255266Y-35347976D01*
G75*
G02*
X179561451Y-35524751I64705J-241480D01*
G01*
X179729684Y-36152605D01*
G75*
G02*
X179552909Y-36458790I-241480J-64705D01*
G01*
G37*
G04 #@! TD*
G04 #@! TO.C,D3*
G36*
G01*
X123076772Y-34481048D02*
X122231046Y-34173229D01*
G75*
G02*
X122081629Y-33852802I85505J234922D01*
G01*
X122303943Y-33242000D01*
G75*
G02*
X122624370Y-33092583I234922J-85505D01*
G01*
X123470096Y-33400401D01*
G75*
G02*
X123619513Y-33720828I-85505J-234922D01*
G01*
X123397199Y-34331630D01*
G75*
G02*
X123076772Y-34481047I-234922J85505D01*
G01*
G37*
G36*
G01*
X122375630Y-36407418D02*
X121529904Y-36099599D01*
G75*
G02*
X121380487Y-35779172I85505J234922D01*
G01*
X121602801Y-35168370D01*
G75*
G02*
X121923228Y-35018953I234922J-85505D01*
G01*
X122768954Y-35326771D01*
G75*
G02*
X122918371Y-35647198I-85505J-234922D01*
G01*
X122696057Y-36258000D01*
G75*
G02*
X122375630Y-36407417I-234922J85505D01*
G01*
G37*
G04 #@! TD*
G04 #@! TO.C,D4*
G36*
G01*
X116642560Y-44869150D02*
X116564120Y-45765727D01*
G75*
G02*
X116293283Y-45992986I-249048J21789D01*
G01*
X115645755Y-45936335D01*
G75*
G02*
X115418496Y-45665498I21789J249048D01*
G01*
X115496936Y-44768921D01*
G75*
G02*
X115767773Y-44541662I249048J-21789D01*
G01*
X116415301Y-44598313D01*
G75*
G02*
X116642560Y-44869150I-21789J-249048D01*
G01*
G37*
G36*
G01*
X114600360Y-44690480D02*
X114521920Y-45587057D01*
G75*
G02*
X114251083Y-45814316I-249048J21789D01*
G01*
X113603555Y-45757665D01*
G75*
G02*
X113376296Y-45486828I21789J249048D01*
G01*
X113454736Y-44590251D01*
G75*
G02*
X113725573Y-44362992I249048J-21789D01*
G01*
X114373101Y-44419643D01*
G75*
G02*
X114600360Y-44690480I-21789J-249048D01*
G01*
G37*
G04 #@! TD*
G04 #@! TO.C,D5*
G36*
G01*
X182061877Y-46543012D02*
X181905594Y-45656683D01*
G75*
G02*
X182108383Y-45367070I246201J43412D01*
G01*
X182748510Y-45254199D01*
G75*
G02*
X183038123Y-45456988I43412J-246201D01*
G01*
X183194406Y-46343317D01*
G75*
G02*
X182991617Y-46632930I-246201J-43412D01*
G01*
X182351490Y-46745801D01*
G75*
G02*
X182061877Y-46543012I-43412J246201D01*
G01*
G37*
G36*
G01*
X180043021Y-46898990D02*
X179886738Y-46012661D01*
G75*
G02*
X180089527Y-45723048I246201J43412D01*
G01*
X180729654Y-45610177D01*
G75*
G02*
X181019267Y-45812966I43412J-246201D01*
G01*
X181175550Y-46699295D01*
G75*
G02*
X180972761Y-46988908I-246201J-43412D01*
G01*
X180332634Y-47101779D01*
G75*
G02*
X180043021Y-46898990I-43412J246201D01*
G01*
G37*
G04 #@! TD*
G04 #@! TO.C,D6*
G36*
G01*
X138611180Y-48000001D02*
X137974783Y-47363604D01*
G75*
G02*
X137974783Y-47010052I176776J176776D01*
G01*
X138434404Y-46550431D01*
G75*
G02*
X138787956Y-46550431I176776J-176776D01*
G01*
X139424353Y-47186828D01*
G75*
G02*
X139424353Y-47540380I-176776J-176776D01*
G01*
X138964732Y-48000001D01*
G75*
G02*
X138611180Y-48000001I-176776J176776D01*
G01*
G37*
G36*
G01*
X137161612Y-49449569D02*
X136525215Y-48813172D01*
G75*
G02*
X136525215Y-48459620I176776J176776D01*
G01*
X136984836Y-47999999D01*
G75*
G02*
X137338388Y-47999999I176776J-176776D01*
G01*
X137974785Y-48636396D01*
G75*
G02*
X137974785Y-48989948I-176776J-176776D01*
G01*
X137515164Y-49449569D01*
G75*
G02*
X137161612Y-49449569I-176776J176776D01*
G01*
G37*
G04 #@! TD*
G04 #@! TO.C,D7*
G36*
G01*
X167939712Y-54660640D02*
X167160288Y-55110641D01*
G75*
G02*
X166818783Y-55019135I-125000J216505D01*
G01*
X166493782Y-54456216D01*
G75*
G02*
X166585288Y-54114712I216505J124999D01*
G01*
X167364713Y-53664711D01*
G75*
G02*
X167706217Y-53756217I124999J-216505D01*
G01*
X168031218Y-54319136D01*
G75*
G02*
X167939713Y-54660640I-216505J-124999D01*
G01*
G37*
G36*
G01*
X166914712Y-52885288D02*
X166135288Y-53335289D01*
G75*
G02*
X165793783Y-53243783I-125000J216505D01*
G01*
X165468782Y-52680864D01*
G75*
G02*
X165560288Y-52339360I216505J124999D01*
G01*
X166339713Y-51889359D01*
G75*
G02*
X166681217Y-51980865I124999J-216505D01*
G01*
X167006218Y-52543784D01*
G75*
G02*
X166914713Y-52885288I-216505J-124999D01*
G01*
G37*
G04 #@! TD*
G04 #@! TO.C,D8*
G36*
G01*
X110790572Y-63622010D02*
X110790572Y-64522012D01*
G75*
G02*
X110540573Y-64772011I-249999J0D01*
G01*
X109890571Y-64772011D01*
G75*
G02*
X109640572Y-64522012I0J249999D01*
G01*
X109640572Y-63622010D01*
G75*
G02*
X109890571Y-63372011I249999J0D01*
G01*
X110540573Y-63372011D01*
G75*
G02*
X110790572Y-63622010I0J-249999D01*
G01*
G37*
G36*
G01*
X112840572Y-63622010D02*
X112840572Y-64522012D01*
G75*
G02*
X112590573Y-64772011I-249999J0D01*
G01*
X111940571Y-64772011D01*
G75*
G02*
X111690572Y-64522012I0J249999D01*
G01*
X111690572Y-63622010D01*
G75*
G02*
X111940571Y-63372011I249999J0D01*
G01*
X112590573Y-63372011D01*
G75*
G02*
X112840572Y-63622010I0J-249999D01*
G01*
G37*
G04 #@! TD*
G04 #@! TO.C,D9*
G36*
G01*
X177716408Y-64748403D02*
X177637968Y-63851826D01*
G75*
G02*
X177865227Y-63580989I249048J21789D01*
G01*
X178512755Y-63524338D01*
G75*
G02*
X178783592Y-63751597I21789J-249048D01*
G01*
X178862032Y-64648174D01*
G75*
G02*
X178634773Y-64919011I-249048J-21789D01*
G01*
X177987245Y-64975662D01*
G75*
G02*
X177716408Y-64748403I-21789J249048D01*
G01*
G37*
G36*
G01*
X179758608Y-64569733D02*
X179680168Y-63673156D01*
G75*
G02*
X179907427Y-63402319I249048J21789D01*
G01*
X180554955Y-63345668D01*
G75*
G02*
X180825792Y-63572927I21789J-249048D01*
G01*
X180904232Y-64469504D01*
G75*
G02*
X180676973Y-64740341I-249048J-21789D01*
G01*
X180029445Y-64796992D01*
G75*
G02*
X179758608Y-64569733I-21789J249048D01*
G01*
G37*
G04 #@! TD*
M02*
