G04 #@! TF.GenerationSoftware,KiCad,Pcbnew,(5.1.9)-1*
G04 #@! TF.CreationDate,2021-10-10T13:31:20+02:00*
G04 #@! TF.ProjectId,opamp_vu_meter,6f70616d-705f-4767-955f-6d657465722e,rev?*
G04 #@! TF.SameCoordinates,Original*
G04 #@! TF.FileFunction,Copper,L1,Top*
G04 #@! TF.FilePolarity,Positive*
%FSLAX46Y46*%
G04 Gerber Fmt 4.6, Leading zero omitted, Abs format (unit mm)*
G04 Created by KiCad (PCBNEW (5.1.9)-1) date 2021-10-10 13:31:20*
%MOMM*%
%LPD*%
G01*
G04 APERTURE LIST*
G04 #@! TA.AperFunction,ComponentPad*
%ADD10C,1.333000*%
G04 #@! TD*
G04 #@! TA.AperFunction,ComponentPad*
%ADD11C,2.600000*%
G04 #@! TD*
G04 #@! TA.AperFunction,ComponentPad*
%ADD12R,2.600000X2.600000*%
G04 #@! TD*
G04 #@! TA.AperFunction,SMDPad,CuDef*
%ADD13R,0.900000X1.200000*%
G04 #@! TD*
G04 #@! TA.AperFunction,ComponentPad*
%ADD14R,1.700000X1.700000*%
G04 #@! TD*
G04 #@! TA.AperFunction,ComponentPad*
%ADD15O,1.700000X1.700000*%
G04 #@! TD*
G04 #@! TA.AperFunction,SMDPad,CuDef*
%ADD16R,0.800000X0.900000*%
G04 #@! TD*
G04 #@! TA.AperFunction,SMDPad,CuDef*
%ADD17R,0.425000X0.500000*%
G04 #@! TD*
G04 #@! TA.AperFunction,SMDPad,CuDef*
%ADD18R,0.250000X0.500000*%
G04 #@! TD*
G04 #@! TA.AperFunction,ComponentPad*
%ADD19C,1.440000*%
G04 #@! TD*
G04 #@! TA.AperFunction,ViaPad*
%ADD20C,0.800000*%
G04 #@! TD*
G04 #@! TA.AperFunction,Conductor*
%ADD21C,0.250000*%
G04 #@! TD*
G04 #@! TA.AperFunction,Conductor*
%ADD22C,0.500000*%
G04 #@! TD*
G04 #@! TA.AperFunction,Conductor*
%ADD23C,0.400000*%
G04 #@! TD*
G04 #@! TA.AperFunction,Conductor*
%ADD24C,0.254000*%
G04 #@! TD*
G04 #@! TA.AperFunction,Conductor*
%ADD25C,0.100000*%
G04 #@! TD*
G04 APERTURE END LIST*
D10*
G04 #@! TO.P,MK1,1*
G04 #@! TO.N,GND*
X111000000Y-132000000D03*
G04 #@! TO.P,MK1,2*
G04 #@! TO.N,Net-(C1-Pad1)*
X111000000Y-134540000D03*
G04 #@! TD*
D11*
G04 #@! TO.P,J1,2*
G04 #@! TO.N,GND*
X109000000Y-123080000D03*
D12*
G04 #@! TO.P,J1,1*
G04 #@! TO.N,VCC*
X109000000Y-118000000D03*
G04 #@! TD*
G04 #@! TO.P,C5,2*
G04 #@! TO.N,VCC*
G04 #@! TA.AperFunction,SMDPad,CuDef*
G36*
G01*
X119550000Y-115525000D02*
X119550000Y-116475000D01*
G75*
G02*
X119300000Y-116725000I-250000J0D01*
G01*
X118625000Y-116725000D01*
G75*
G02*
X118375000Y-116475000I0J250000D01*
G01*
X118375000Y-115525000D01*
G75*
G02*
X118625000Y-115275000I250000J0D01*
G01*
X119300000Y-115275000D01*
G75*
G02*
X119550000Y-115525000I0J-250000D01*
G01*
G37*
G04 #@! TD.AperFunction*
G04 #@! TO.P,C5,1*
G04 #@! TO.N,GND*
G04 #@! TA.AperFunction,SMDPad,CuDef*
G36*
G01*
X121625000Y-115525000D02*
X121625000Y-116475000D01*
G75*
G02*
X121375000Y-116725000I-250000J0D01*
G01*
X120700000Y-116725000D01*
G75*
G02*
X120450000Y-116475000I0J250000D01*
G01*
X120450000Y-115525000D01*
G75*
G02*
X120700000Y-115275000I250000J0D01*
G01*
X121375000Y-115275000D01*
G75*
G02*
X121625000Y-115525000I0J-250000D01*
G01*
G37*
G04 #@! TD.AperFunction*
G04 #@! TD*
G04 #@! TO.P,C1,2*
G04 #@! TO.N,Net-(C1-Pad2)*
G04 #@! TA.AperFunction,SMDPad,CuDef*
G36*
G01*
X117450000Y-132475000D02*
X117450000Y-131525000D01*
G75*
G02*
X117700000Y-131275000I250000J0D01*
G01*
X118375000Y-131275000D01*
G75*
G02*
X118625000Y-131525000I0J-250000D01*
G01*
X118625000Y-132475000D01*
G75*
G02*
X118375000Y-132725000I-250000J0D01*
G01*
X117700000Y-132725000D01*
G75*
G02*
X117450000Y-132475000I0J250000D01*
G01*
G37*
G04 #@! TD.AperFunction*
G04 #@! TO.P,C1,1*
G04 #@! TO.N,Net-(C1-Pad1)*
G04 #@! TA.AperFunction,SMDPad,CuDef*
G36*
G01*
X115375000Y-132475000D02*
X115375000Y-131525000D01*
G75*
G02*
X115625000Y-131275000I250000J0D01*
G01*
X116300000Y-131275000D01*
G75*
G02*
X116550000Y-131525000I0J-250000D01*
G01*
X116550000Y-132475000D01*
G75*
G02*
X116300000Y-132725000I-250000J0D01*
G01*
X115625000Y-132725000D01*
G75*
G02*
X115375000Y-132475000I0J250000D01*
G01*
G37*
G04 #@! TD.AperFunction*
G04 #@! TD*
G04 #@! TO.P,C2,1*
G04 #@! TO.N,Net-(C2-Pad1)*
G04 #@! TA.AperFunction,SMDPad,CuDef*
G36*
G01*
X121525000Y-134375000D02*
X122475000Y-134375000D01*
G75*
G02*
X122725000Y-134625000I0J-250000D01*
G01*
X122725000Y-135300000D01*
G75*
G02*
X122475000Y-135550000I-250000J0D01*
G01*
X121525000Y-135550000D01*
G75*
G02*
X121275000Y-135300000I0J250000D01*
G01*
X121275000Y-134625000D01*
G75*
G02*
X121525000Y-134375000I250000J0D01*
G01*
G37*
G04 #@! TD.AperFunction*
G04 #@! TO.P,C2,2*
G04 #@! TO.N,GND*
G04 #@! TA.AperFunction,SMDPad,CuDef*
G36*
G01*
X121525000Y-136450000D02*
X122475000Y-136450000D01*
G75*
G02*
X122725000Y-136700000I0J-250000D01*
G01*
X122725000Y-137375000D01*
G75*
G02*
X122475000Y-137625000I-250000J0D01*
G01*
X121525000Y-137625000D01*
G75*
G02*
X121275000Y-137375000I0J250000D01*
G01*
X121275000Y-136700000D01*
G75*
G02*
X121525000Y-136450000I250000J0D01*
G01*
G37*
G04 #@! TD.AperFunction*
G04 #@! TD*
G04 #@! TO.P,C3,1*
G04 #@! TO.N,Net-(C3-Pad1)*
G04 #@! TA.AperFunction,SMDPad,CuDef*
G36*
G01*
X123587500Y-123525000D02*
X123587500Y-124475000D01*
G75*
G02*
X123337500Y-124725000I-250000J0D01*
G01*
X122662500Y-124725000D01*
G75*
G02*
X122412500Y-124475000I0J250000D01*
G01*
X122412500Y-123525000D01*
G75*
G02*
X122662500Y-123275000I250000J0D01*
G01*
X123337500Y-123275000D01*
G75*
G02*
X123587500Y-123525000I0J-250000D01*
G01*
G37*
G04 #@! TD.AperFunction*
G04 #@! TO.P,C3,2*
G04 #@! TO.N,Net-(C3-Pad2)*
G04 #@! TA.AperFunction,SMDPad,CuDef*
G36*
G01*
X121512500Y-123525000D02*
X121512500Y-124475000D01*
G75*
G02*
X121262500Y-124725000I-250000J0D01*
G01*
X120587500Y-124725000D01*
G75*
G02*
X120337500Y-124475000I0J250000D01*
G01*
X120337500Y-123525000D01*
G75*
G02*
X120587500Y-123275000I250000J0D01*
G01*
X121262500Y-123275000D01*
G75*
G02*
X121512500Y-123525000I0J-250000D01*
G01*
G37*
G04 #@! TD.AperFunction*
G04 #@! TD*
G04 #@! TO.P,C4,2*
G04 #@! TO.N,GND*
G04 #@! TA.AperFunction,SMDPad,CuDef*
G36*
G01*
X142487500Y-132475000D02*
X142487500Y-131525000D01*
G75*
G02*
X142737500Y-131275000I250000J0D01*
G01*
X143412500Y-131275000D01*
G75*
G02*
X143662500Y-131525000I0J-250000D01*
G01*
X143662500Y-132475000D01*
G75*
G02*
X143412500Y-132725000I-250000J0D01*
G01*
X142737500Y-132725000D01*
G75*
G02*
X142487500Y-132475000I0J250000D01*
G01*
G37*
G04 #@! TD.AperFunction*
G04 #@! TO.P,C4,1*
G04 #@! TO.N,AudioLevel*
G04 #@! TA.AperFunction,SMDPad,CuDef*
G36*
G01*
X140412500Y-132475000D02*
X140412500Y-131525000D01*
G75*
G02*
X140662500Y-131275000I250000J0D01*
G01*
X141337500Y-131275000D01*
G75*
G02*
X141587500Y-131525000I0J-250000D01*
G01*
X141587500Y-132475000D01*
G75*
G02*
X141337500Y-132725000I-250000J0D01*
G01*
X140662500Y-132725000D01*
G75*
G02*
X140412500Y-132475000I0J250000D01*
G01*
G37*
G04 #@! TD.AperFunction*
G04 #@! TD*
D13*
G04 #@! TO.P,D1,1*
G04 #@! TO.N,AudioLevel*
X139650000Y-124000000D03*
G04 #@! TO.P,D1,2*
G04 #@! TO.N,Net-(D1-Pad2)*
X136350000Y-124000000D03*
G04 #@! TD*
G04 #@! TO.P,D2,1*
G04 #@! TO.N,Net-(D2-Pad1)*
G04 #@! TA.AperFunction,SMDPad,CuDef*
G36*
G01*
X144600000Y-67549999D02*
X144600000Y-68450001D01*
G75*
G02*
X144350001Y-68700000I-249999J0D01*
G01*
X143699999Y-68700000D01*
G75*
G02*
X143450000Y-68450001I0J249999D01*
G01*
X143450000Y-67549999D01*
G75*
G02*
X143699999Y-67300000I249999J0D01*
G01*
X144350001Y-67300000D01*
G75*
G02*
X144600000Y-67549999I0J-249999D01*
G01*
G37*
G04 #@! TD.AperFunction*
G04 #@! TO.P,D2,2*
G04 #@! TO.N,VCC*
G04 #@! TA.AperFunction,SMDPad,CuDef*
G36*
G01*
X142550000Y-67549999D02*
X142550000Y-68450001D01*
G75*
G02*
X142300001Y-68700000I-249999J0D01*
G01*
X141649999Y-68700000D01*
G75*
G02*
X141400000Y-68450001I0J249999D01*
G01*
X141400000Y-67549999D01*
G75*
G02*
X141649999Y-67300000I249999J0D01*
G01*
X142300001Y-67300000D01*
G75*
G02*
X142550000Y-67549999I0J-249999D01*
G01*
G37*
G04 #@! TD.AperFunction*
G04 #@! TD*
G04 #@! TO.P,D3,2*
G04 #@! TO.N,VCC*
G04 #@! TA.AperFunction,SMDPad,CuDef*
G36*
G01*
X142525000Y-76549999D02*
X142525000Y-77450001D01*
G75*
G02*
X142275001Y-77700000I-249999J0D01*
G01*
X141624999Y-77700000D01*
G75*
G02*
X141375000Y-77450001I0J249999D01*
G01*
X141375000Y-76549999D01*
G75*
G02*
X141624999Y-76300000I249999J0D01*
G01*
X142275001Y-76300000D01*
G75*
G02*
X142525000Y-76549999I0J-249999D01*
G01*
G37*
G04 #@! TD.AperFunction*
G04 #@! TO.P,D3,1*
G04 #@! TO.N,Net-(D3-Pad1)*
G04 #@! TA.AperFunction,SMDPad,CuDef*
G36*
G01*
X144575000Y-76549999D02*
X144575000Y-77450001D01*
G75*
G02*
X144325001Y-77700000I-249999J0D01*
G01*
X143674999Y-77700000D01*
G75*
G02*
X143425000Y-77450001I0J249999D01*
G01*
X143425000Y-76549999D01*
G75*
G02*
X143674999Y-76300000I249999J0D01*
G01*
X144325001Y-76300000D01*
G75*
G02*
X144575000Y-76549999I0J-249999D01*
G01*
G37*
G04 #@! TD.AperFunction*
G04 #@! TD*
G04 #@! TO.P,D4,1*
G04 #@! TO.N,Net-(D4-Pad1)*
G04 #@! TA.AperFunction,SMDPad,CuDef*
G36*
G01*
X150600000Y-84549999D02*
X150600000Y-85450001D01*
G75*
G02*
X150350001Y-85700000I-249999J0D01*
G01*
X149699999Y-85700000D01*
G75*
G02*
X149450000Y-85450001I0J249999D01*
G01*
X149450000Y-84549999D01*
G75*
G02*
X149699999Y-84300000I249999J0D01*
G01*
X150350001Y-84300000D01*
G75*
G02*
X150600000Y-84549999I0J-249999D01*
G01*
G37*
G04 #@! TD.AperFunction*
G04 #@! TO.P,D4,2*
G04 #@! TO.N,VCC*
G04 #@! TA.AperFunction,SMDPad,CuDef*
G36*
G01*
X148550000Y-84549999D02*
X148550000Y-85450001D01*
G75*
G02*
X148300001Y-85700000I-249999J0D01*
G01*
X147649999Y-85700000D01*
G75*
G02*
X147400000Y-85450001I0J249999D01*
G01*
X147400000Y-84549999D01*
G75*
G02*
X147649999Y-84300000I249999J0D01*
G01*
X148300001Y-84300000D01*
G75*
G02*
X148550000Y-84549999I0J-249999D01*
G01*
G37*
G04 #@! TD.AperFunction*
G04 #@! TD*
G04 #@! TO.P,D5,2*
G04 #@! TO.N,VCC*
G04 #@! TA.AperFunction,SMDPad,CuDef*
G36*
G01*
X136550000Y-84549999D02*
X136550000Y-85450001D01*
G75*
G02*
X136300001Y-85700000I-249999J0D01*
G01*
X135649999Y-85700000D01*
G75*
G02*
X135400000Y-85450001I0J249999D01*
G01*
X135400000Y-84549999D01*
G75*
G02*
X135649999Y-84300000I249999J0D01*
G01*
X136300001Y-84300000D01*
G75*
G02*
X136550000Y-84549999I0J-249999D01*
G01*
G37*
G04 #@! TD.AperFunction*
G04 #@! TO.P,D5,1*
G04 #@! TO.N,Net-(D5-Pad1)*
G04 #@! TA.AperFunction,SMDPad,CuDef*
G36*
G01*
X138600000Y-84549999D02*
X138600000Y-85450001D01*
G75*
G02*
X138350001Y-85700000I-249999J0D01*
G01*
X137699999Y-85700000D01*
G75*
G02*
X137450000Y-85450001I0J249999D01*
G01*
X137450000Y-84549999D01*
G75*
G02*
X137699999Y-84300000I249999J0D01*
G01*
X138350001Y-84300000D01*
G75*
G02*
X138600000Y-84549999I0J-249999D01*
G01*
G37*
G04 #@! TD.AperFunction*
G04 #@! TD*
G04 #@! TO.P,D6,2*
G04 #@! TO.N,VCC*
G04 #@! TA.AperFunction,SMDPad,CuDef*
G36*
G01*
X150525000Y-93549999D02*
X150525000Y-94450001D01*
G75*
G02*
X150275001Y-94700000I-249999J0D01*
G01*
X149624999Y-94700000D01*
G75*
G02*
X149375000Y-94450001I0J249999D01*
G01*
X149375000Y-93549999D01*
G75*
G02*
X149624999Y-93300000I249999J0D01*
G01*
X150275001Y-93300000D01*
G75*
G02*
X150525000Y-93549999I0J-249999D01*
G01*
G37*
G04 #@! TD.AperFunction*
G04 #@! TO.P,D6,1*
G04 #@! TO.N,Net-(D6-Pad1)*
G04 #@! TA.AperFunction,SMDPad,CuDef*
G36*
G01*
X152575000Y-93549999D02*
X152575000Y-94450001D01*
G75*
G02*
X152325001Y-94700000I-249999J0D01*
G01*
X151674999Y-94700000D01*
G75*
G02*
X151425000Y-94450001I0J249999D01*
G01*
X151425000Y-93549999D01*
G75*
G02*
X151674999Y-93300000I249999J0D01*
G01*
X152325001Y-93300000D01*
G75*
G02*
X152575000Y-93549999I0J-249999D01*
G01*
G37*
G04 #@! TD.AperFunction*
G04 #@! TD*
G04 #@! TO.P,D7,1*
G04 #@! TO.N,Net-(D7-Pad1)*
G04 #@! TA.AperFunction,SMDPad,CuDef*
G36*
G01*
X136600000Y-93549999D02*
X136600000Y-94450001D01*
G75*
G02*
X136350001Y-94700000I-249999J0D01*
G01*
X135699999Y-94700000D01*
G75*
G02*
X135450000Y-94450001I0J249999D01*
G01*
X135450000Y-93549999D01*
G75*
G02*
X135699999Y-93300000I249999J0D01*
G01*
X136350001Y-93300000D01*
G75*
G02*
X136600000Y-93549999I0J-249999D01*
G01*
G37*
G04 #@! TD.AperFunction*
G04 #@! TO.P,D7,2*
G04 #@! TO.N,VCC*
G04 #@! TA.AperFunction,SMDPad,CuDef*
G36*
G01*
X134550000Y-93549999D02*
X134550000Y-94450001D01*
G75*
G02*
X134300001Y-94700000I-249999J0D01*
G01*
X133649999Y-94700000D01*
G75*
G02*
X133400000Y-94450001I0J249999D01*
G01*
X133400000Y-93549999D01*
G75*
G02*
X133649999Y-93300000I249999J0D01*
G01*
X134300001Y-93300000D01*
G75*
G02*
X134550000Y-93549999I0J-249999D01*
G01*
G37*
G04 #@! TD.AperFunction*
G04 #@! TD*
G04 #@! TO.P,D8,2*
G04 #@! TO.N,VCC*
G04 #@! TA.AperFunction,SMDPad,CuDef*
G36*
G01*
X156575000Y-104549999D02*
X156575000Y-105450001D01*
G75*
G02*
X156325001Y-105700000I-249999J0D01*
G01*
X155674999Y-105700000D01*
G75*
G02*
X155425000Y-105450001I0J249999D01*
G01*
X155425000Y-104549999D01*
G75*
G02*
X155674999Y-104300000I249999J0D01*
G01*
X156325001Y-104300000D01*
G75*
G02*
X156575000Y-104549999I0J-249999D01*
G01*
G37*
G04 #@! TD.AperFunction*
G04 #@! TO.P,D8,1*
G04 #@! TO.N,Net-(D8-Pad1)*
G04 #@! TA.AperFunction,SMDPad,CuDef*
G36*
G01*
X158625000Y-104549999D02*
X158625000Y-105450001D01*
G75*
G02*
X158375001Y-105700000I-249999J0D01*
G01*
X157724999Y-105700000D01*
G75*
G02*
X157475000Y-105450001I0J249999D01*
G01*
X157475000Y-104549999D01*
G75*
G02*
X157724999Y-104300000I249999J0D01*
G01*
X158375001Y-104300000D01*
G75*
G02*
X158625000Y-104549999I0J-249999D01*
G01*
G37*
G04 #@! TD.AperFunction*
G04 #@! TD*
G04 #@! TO.P,D9,1*
G04 #@! TO.N,Net-(D9-Pad1)*
G04 #@! TA.AperFunction,SMDPad,CuDef*
G36*
G01*
X130600000Y-104549999D02*
X130600000Y-105450001D01*
G75*
G02*
X130350001Y-105700000I-249999J0D01*
G01*
X129699999Y-105700000D01*
G75*
G02*
X129450000Y-105450001I0J249999D01*
G01*
X129450000Y-104549999D01*
G75*
G02*
X129699999Y-104300000I249999J0D01*
G01*
X130350001Y-104300000D01*
G75*
G02*
X130600000Y-104549999I0J-249999D01*
G01*
G37*
G04 #@! TD.AperFunction*
G04 #@! TO.P,D9,2*
G04 #@! TO.N,VCC*
G04 #@! TA.AperFunction,SMDPad,CuDef*
G36*
G01*
X128550000Y-104549999D02*
X128550000Y-105450001D01*
G75*
G02*
X128300001Y-105700000I-249999J0D01*
G01*
X127649999Y-105700000D01*
G75*
G02*
X127400000Y-105450001I0J249999D01*
G01*
X127400000Y-104549999D01*
G75*
G02*
X127649999Y-104300000I249999J0D01*
G01*
X128300001Y-104300000D01*
G75*
G02*
X128550000Y-104549999I0J-249999D01*
G01*
G37*
G04 #@! TD.AperFunction*
G04 #@! TD*
D14*
G04 #@! TO.P,J2,1*
G04 #@! TO.N,AudioLevel*
X121000000Y-119000000D03*
D15*
G04 #@! TO.P,J2,2*
G04 #@! TO.N,GND*
X118460000Y-119000000D03*
G04 #@! TD*
D16*
G04 #@! TO.P,Q1,1*
G04 #@! TO.N,Net-(Q1-Pad1)*
X131050000Y-125000000D03*
G04 #@! TO.P,Q1,2*
G04 #@! TO.N,GND*
X132950000Y-125000000D03*
G04 #@! TO.P,Q1,3*
G04 #@! TO.N,Net-(D1-Pad2)*
X132000000Y-123000000D03*
G04 #@! TD*
G04 #@! TO.P,R1,2*
G04 #@! TO.N,Net-(C1-Pad1)*
G04 #@! TA.AperFunction,SMDPad,CuDef*
G36*
G01*
X117400000Y-128450001D02*
X117400000Y-127549999D01*
G75*
G02*
X117649999Y-127300000I249999J0D01*
G01*
X118350001Y-127300000D01*
G75*
G02*
X118600000Y-127549999I0J-249999D01*
G01*
X118600000Y-128450001D01*
G75*
G02*
X118350001Y-128700000I-249999J0D01*
G01*
X117649999Y-128700000D01*
G75*
G02*
X117400000Y-128450001I0J249999D01*
G01*
G37*
G04 #@! TD.AperFunction*
G04 #@! TO.P,R1,1*
G04 #@! TO.N,VCC*
G04 #@! TA.AperFunction,SMDPad,CuDef*
G36*
G01*
X115400000Y-128450001D02*
X115400000Y-127549999D01*
G75*
G02*
X115649999Y-127300000I249999J0D01*
G01*
X116350001Y-127300000D01*
G75*
G02*
X116600000Y-127549999I0J-249999D01*
G01*
X116600000Y-128450001D01*
G75*
G02*
X116350001Y-128700000I-249999J0D01*
G01*
X115649999Y-128700000D01*
G75*
G02*
X115400000Y-128450001I0J249999D01*
G01*
G37*
G04 #@! TD.AperFunction*
G04 #@! TD*
G04 #@! TO.P,R2,1*
G04 #@! TO.N,Net-(C1-Pad2)*
G04 #@! TA.AperFunction,SMDPad,CuDef*
G36*
G01*
X131400000Y-136450001D02*
X131400000Y-135549999D01*
G75*
G02*
X131649999Y-135300000I249999J0D01*
G01*
X132350001Y-135300000D01*
G75*
G02*
X132600000Y-135549999I0J-249999D01*
G01*
X132600000Y-136450001D01*
G75*
G02*
X132350001Y-136700000I-249999J0D01*
G01*
X131649999Y-136700000D01*
G75*
G02*
X131400000Y-136450001I0J249999D01*
G01*
G37*
G04 #@! TD.AperFunction*
G04 #@! TO.P,R2,2*
G04 #@! TO.N,GND*
G04 #@! TA.AperFunction,SMDPad,CuDef*
G36*
G01*
X133400000Y-136450001D02*
X133400000Y-135549999D01*
G75*
G02*
X133649999Y-135300000I249999J0D01*
G01*
X134350001Y-135300000D01*
G75*
G02*
X134600000Y-135549999I0J-249999D01*
G01*
X134600000Y-136450001D01*
G75*
G02*
X134350001Y-136700000I-249999J0D01*
G01*
X133649999Y-136700000D01*
G75*
G02*
X133400000Y-136450001I0J249999D01*
G01*
G37*
G04 #@! TD.AperFunction*
G04 #@! TD*
G04 #@! TO.P,R3,2*
G04 #@! TO.N,VCC*
G04 #@! TA.AperFunction,SMDPad,CuDef*
G36*
G01*
X127400000Y-136450001D02*
X127400000Y-135549999D01*
G75*
G02*
X127649999Y-135300000I249999J0D01*
G01*
X128350001Y-135300000D01*
G75*
G02*
X128600000Y-135549999I0J-249999D01*
G01*
X128600000Y-136450001D01*
G75*
G02*
X128350001Y-136700000I-249999J0D01*
G01*
X127649999Y-136700000D01*
G75*
G02*
X127400000Y-136450001I0J249999D01*
G01*
G37*
G04 #@! TD.AperFunction*
G04 #@! TO.P,R3,1*
G04 #@! TO.N,Net-(C1-Pad2)*
G04 #@! TA.AperFunction,SMDPad,CuDef*
G36*
G01*
X125400000Y-136450001D02*
X125400000Y-135549999D01*
G75*
G02*
X125649999Y-135300000I249999J0D01*
G01*
X126350001Y-135300000D01*
G75*
G02*
X126600000Y-135549999I0J-249999D01*
G01*
X126600000Y-136450001D01*
G75*
G02*
X126350001Y-136700000I-249999J0D01*
G01*
X125649999Y-136700000D01*
G75*
G02*
X125400000Y-136450001I0J249999D01*
G01*
G37*
G04 #@! TD.AperFunction*
G04 #@! TD*
G04 #@! TO.P,R4,2*
G04 #@! TO.N,Net-(C2-Pad1)*
G04 #@! TA.AperFunction,SMDPad,CuDef*
G36*
G01*
X122400000Y-132450001D02*
X122400000Y-131549999D01*
G75*
G02*
X122649999Y-131300000I249999J0D01*
G01*
X123350001Y-131300000D01*
G75*
G02*
X123600000Y-131549999I0J-249999D01*
G01*
X123600000Y-132450001D01*
G75*
G02*
X123350001Y-132700000I-249999J0D01*
G01*
X122649999Y-132700000D01*
G75*
G02*
X122400000Y-132450001I0J249999D01*
G01*
G37*
G04 #@! TD.AperFunction*
G04 #@! TO.P,R4,1*
G04 #@! TO.N,Net-(R4-Pad1)*
G04 #@! TA.AperFunction,SMDPad,CuDef*
G36*
G01*
X120400000Y-132450001D02*
X120400000Y-131549999D01*
G75*
G02*
X120649999Y-131300000I249999J0D01*
G01*
X121350001Y-131300000D01*
G75*
G02*
X121600000Y-131549999I0J-249999D01*
G01*
X121600000Y-132450001D01*
G75*
G02*
X121350001Y-132700000I-249999J0D01*
G01*
X120649999Y-132700000D01*
G75*
G02*
X120400000Y-132450001I0J249999D01*
G01*
G37*
G04 #@! TD.AperFunction*
G04 #@! TD*
G04 #@! TO.P,R5,1*
G04 #@! TO.N,Net-(C3-Pad2)*
G04 #@! TA.AperFunction,SMDPad,CuDef*
G36*
G01*
X123600000Y-127549999D02*
X123600000Y-128450001D01*
G75*
G02*
X123350001Y-128700000I-249999J0D01*
G01*
X122649999Y-128700000D01*
G75*
G02*
X122400000Y-128450001I0J249999D01*
G01*
X122400000Y-127549999D01*
G75*
G02*
X122649999Y-127300000I249999J0D01*
G01*
X123350001Y-127300000D01*
G75*
G02*
X123600000Y-127549999I0J-249999D01*
G01*
G37*
G04 #@! TD.AperFunction*
G04 #@! TO.P,R5,2*
G04 #@! TO.N,Net-(R4-Pad1)*
G04 #@! TA.AperFunction,SMDPad,CuDef*
G36*
G01*
X121600000Y-127549999D02*
X121600000Y-128450001D01*
G75*
G02*
X121350001Y-128700000I-249999J0D01*
G01*
X120649999Y-128700000D01*
G75*
G02*
X120400000Y-128450001I0J249999D01*
G01*
X120400000Y-127549999D01*
G75*
G02*
X120649999Y-127300000I249999J0D01*
G01*
X121350001Y-127300000D01*
G75*
G02*
X121600000Y-127549999I0J-249999D01*
G01*
G37*
G04 #@! TD.AperFunction*
G04 #@! TD*
G04 #@! TO.P,R6,2*
G04 #@! TO.N,GND*
G04 #@! TA.AperFunction,SMDPad,CuDef*
G36*
G01*
X116600000Y-123549999D02*
X116600000Y-124450001D01*
G75*
G02*
X116350001Y-124700000I-249999J0D01*
G01*
X115649999Y-124700000D01*
G75*
G02*
X115400000Y-124450001I0J249999D01*
G01*
X115400000Y-123549999D01*
G75*
G02*
X115649999Y-123300000I249999J0D01*
G01*
X116350001Y-123300000D01*
G75*
G02*
X116600000Y-123549999I0J-249999D01*
G01*
G37*
G04 #@! TD.AperFunction*
G04 #@! TO.P,R6,1*
G04 #@! TO.N,Net-(C3-Pad1)*
G04 #@! TA.AperFunction,SMDPad,CuDef*
G36*
G01*
X118600000Y-123549999D02*
X118600000Y-124450001D01*
G75*
G02*
X118350001Y-124700000I-249999J0D01*
G01*
X117649999Y-124700000D01*
G75*
G02*
X117400000Y-124450001I0J249999D01*
G01*
X117400000Y-123549999D01*
G75*
G02*
X117649999Y-123300000I249999J0D01*
G01*
X118350001Y-123300000D01*
G75*
G02*
X118600000Y-123549999I0J-249999D01*
G01*
G37*
G04 #@! TD.AperFunction*
G04 #@! TD*
G04 #@! TO.P,R7,1*
G04 #@! TO.N,Net-(Q1-Pad1)*
G04 #@! TA.AperFunction,SMDPad,CuDef*
G36*
G01*
X128600000Y-123549999D02*
X128600000Y-124450001D01*
G75*
G02*
X128350001Y-124700000I-249999J0D01*
G01*
X127649999Y-124700000D01*
G75*
G02*
X127400000Y-124450001I0J249999D01*
G01*
X127400000Y-123549999D01*
G75*
G02*
X127649999Y-123300000I249999J0D01*
G01*
X128350001Y-123300000D01*
G75*
G02*
X128600000Y-123549999I0J-249999D01*
G01*
G37*
G04 #@! TD.AperFunction*
G04 #@! TO.P,R7,2*
G04 #@! TO.N,Net-(C3-Pad1)*
G04 #@! TA.AperFunction,SMDPad,CuDef*
G36*
G01*
X126600000Y-123549999D02*
X126600000Y-124450001D01*
G75*
G02*
X126350001Y-124700000I-249999J0D01*
G01*
X125649999Y-124700000D01*
G75*
G02*
X125400000Y-124450001I0J249999D01*
G01*
X125400000Y-123549999D01*
G75*
G02*
X125649999Y-123300000I249999J0D01*
G01*
X126350001Y-123300000D01*
G75*
G02*
X126600000Y-123549999I0J-249999D01*
G01*
G37*
G04 #@! TD.AperFunction*
G04 #@! TD*
G04 #@! TO.P,R8,2*
G04 #@! TO.N,Net-(D1-Pad2)*
G04 #@! TA.AperFunction,SMDPad,CuDef*
G36*
G01*
X137400000Y-128450001D02*
X137400000Y-127549999D01*
G75*
G02*
X137649999Y-127300000I249999J0D01*
G01*
X138350001Y-127300000D01*
G75*
G02*
X138600000Y-127549999I0J-249999D01*
G01*
X138600000Y-128450001D01*
G75*
G02*
X138350001Y-128700000I-249999J0D01*
G01*
X137649999Y-128700000D01*
G75*
G02*
X137400000Y-128450001I0J249999D01*
G01*
G37*
G04 #@! TD.AperFunction*
G04 #@! TO.P,R8,1*
G04 #@! TO.N,VCC*
G04 #@! TA.AperFunction,SMDPad,CuDef*
G36*
G01*
X135400000Y-128450001D02*
X135400000Y-127549999D01*
G75*
G02*
X135649999Y-127300000I249999J0D01*
G01*
X136350001Y-127300000D01*
G75*
G02*
X136600000Y-127549999I0J-249999D01*
G01*
X136600000Y-128450001D01*
G75*
G02*
X136350001Y-128700000I-249999J0D01*
G01*
X135649999Y-128700000D01*
G75*
G02*
X135400000Y-128450001I0J249999D01*
G01*
G37*
G04 #@! TD.AperFunction*
G04 #@! TD*
G04 #@! TO.P,R9,2*
G04 #@! TO.N,GND*
G04 #@! TA.AperFunction,SMDPad,CuDef*
G36*
G01*
X142400000Y-128450001D02*
X142400000Y-127549999D01*
G75*
G02*
X142649999Y-127300000I249999J0D01*
G01*
X143350001Y-127300000D01*
G75*
G02*
X143600000Y-127549999I0J-249999D01*
G01*
X143600000Y-128450001D01*
G75*
G02*
X143350001Y-128700000I-249999J0D01*
G01*
X142649999Y-128700000D01*
G75*
G02*
X142400000Y-128450001I0J249999D01*
G01*
G37*
G04 #@! TD.AperFunction*
G04 #@! TO.P,R9,1*
G04 #@! TO.N,AudioLevel*
G04 #@! TA.AperFunction,SMDPad,CuDef*
G36*
G01*
X140400000Y-128450001D02*
X140400000Y-127549999D01*
G75*
G02*
X140649999Y-127300000I249999J0D01*
G01*
X141350001Y-127300000D01*
G75*
G02*
X141600000Y-127549999I0J-249999D01*
G01*
X141600000Y-128450001D01*
G75*
G02*
X141350001Y-128700000I-249999J0D01*
G01*
X140649999Y-128700000D01*
G75*
G02*
X140400000Y-128450001I0J249999D01*
G01*
G37*
G04 #@! TD.AperFunction*
G04 #@! TD*
G04 #@! TO.P,R10,1*
G04 #@! TO.N,Net-(R10-Pad1)*
G04 #@! TA.AperFunction,SMDPad,CuDef*
G36*
G01*
X178600000Y-135549999D02*
X178600000Y-136450001D01*
G75*
G02*
X178350001Y-136700000I-249999J0D01*
G01*
X177649999Y-136700000D01*
G75*
G02*
X177400000Y-136450001I0J249999D01*
G01*
X177400000Y-135549999D01*
G75*
G02*
X177649999Y-135300000I249999J0D01*
G01*
X178350001Y-135300000D01*
G75*
G02*
X178600000Y-135549999I0J-249999D01*
G01*
G37*
G04 #@! TD.AperFunction*
G04 #@! TO.P,R10,2*
G04 #@! TO.N,Net-(R10-Pad2)*
G04 #@! TA.AperFunction,SMDPad,CuDef*
G36*
G01*
X176600000Y-135549999D02*
X176600000Y-136450001D01*
G75*
G02*
X176350001Y-136700000I-249999J0D01*
G01*
X175649999Y-136700000D01*
G75*
G02*
X175400000Y-136450001I0J249999D01*
G01*
X175400000Y-135549999D01*
G75*
G02*
X175649999Y-135300000I249999J0D01*
G01*
X176350001Y-135300000D01*
G75*
G02*
X176600000Y-135549999I0J-249999D01*
G01*
G37*
G04 #@! TD.AperFunction*
G04 #@! TD*
G04 #@! TO.P,R11,2*
G04 #@! TO.N,Net-(R11-Pad2)*
G04 #@! TA.AperFunction,SMDPad,CuDef*
G36*
G01*
X170600000Y-135549999D02*
X170600000Y-136450001D01*
G75*
G02*
X170350001Y-136700000I-249999J0D01*
G01*
X169649999Y-136700000D01*
G75*
G02*
X169400000Y-136450001I0J249999D01*
G01*
X169400000Y-135549999D01*
G75*
G02*
X169649999Y-135300000I249999J0D01*
G01*
X170350001Y-135300000D01*
G75*
G02*
X170600000Y-135549999I0J-249999D01*
G01*
G37*
G04 #@! TD.AperFunction*
G04 #@! TO.P,R11,1*
G04 #@! TO.N,Net-(R10-Pad2)*
G04 #@! TA.AperFunction,SMDPad,CuDef*
G36*
G01*
X172600000Y-135549999D02*
X172600000Y-136450001D01*
G75*
G02*
X172350001Y-136700000I-249999J0D01*
G01*
X171649999Y-136700000D01*
G75*
G02*
X171400000Y-136450001I0J249999D01*
G01*
X171400000Y-135549999D01*
G75*
G02*
X171649999Y-135300000I249999J0D01*
G01*
X172350001Y-135300000D01*
G75*
G02*
X172600000Y-135549999I0J-249999D01*
G01*
G37*
G04 #@! TD.AperFunction*
G04 #@! TD*
G04 #@! TO.P,R12,1*
G04 #@! TO.N,Net-(R11-Pad2)*
G04 #@! TA.AperFunction,SMDPad,CuDef*
G36*
G01*
X172600000Y-131549999D02*
X172600000Y-132450001D01*
G75*
G02*
X172350001Y-132700000I-249999J0D01*
G01*
X171649999Y-132700000D01*
G75*
G02*
X171400000Y-132450001I0J249999D01*
G01*
X171400000Y-131549999D01*
G75*
G02*
X171649999Y-131300000I249999J0D01*
G01*
X172350001Y-131300000D01*
G75*
G02*
X172600000Y-131549999I0J-249999D01*
G01*
G37*
G04 #@! TD.AperFunction*
G04 #@! TO.P,R12,2*
G04 #@! TO.N,Net-(R12-Pad2)*
G04 #@! TA.AperFunction,SMDPad,CuDef*
G36*
G01*
X170600000Y-131549999D02*
X170600000Y-132450001D01*
G75*
G02*
X170350001Y-132700000I-249999J0D01*
G01*
X169649999Y-132700000D01*
G75*
G02*
X169400000Y-132450001I0J249999D01*
G01*
X169400000Y-131549999D01*
G75*
G02*
X169649999Y-131300000I249999J0D01*
G01*
X170350001Y-131300000D01*
G75*
G02*
X170600000Y-131549999I0J-249999D01*
G01*
G37*
G04 #@! TD.AperFunction*
G04 #@! TD*
G04 #@! TO.P,R13,2*
G04 #@! TO.N,Net-(R13-Pad2)*
G04 #@! TA.AperFunction,SMDPad,CuDef*
G36*
G01*
X164600000Y-131549999D02*
X164600000Y-132450001D01*
G75*
G02*
X164350001Y-132700000I-249999J0D01*
G01*
X163649999Y-132700000D01*
G75*
G02*
X163400000Y-132450001I0J249999D01*
G01*
X163400000Y-131549999D01*
G75*
G02*
X163649999Y-131300000I249999J0D01*
G01*
X164350001Y-131300000D01*
G75*
G02*
X164600000Y-131549999I0J-249999D01*
G01*
G37*
G04 #@! TD.AperFunction*
G04 #@! TO.P,R13,1*
G04 #@! TO.N,Net-(R12-Pad2)*
G04 #@! TA.AperFunction,SMDPad,CuDef*
G36*
G01*
X166600000Y-131549999D02*
X166600000Y-132450001D01*
G75*
G02*
X166350001Y-132700000I-249999J0D01*
G01*
X165649999Y-132700000D01*
G75*
G02*
X165400000Y-132450001I0J249999D01*
G01*
X165400000Y-131549999D01*
G75*
G02*
X165649999Y-131300000I249999J0D01*
G01*
X166350001Y-131300000D01*
G75*
G02*
X166600000Y-131549999I0J-249999D01*
G01*
G37*
G04 #@! TD.AperFunction*
G04 #@! TD*
G04 #@! TO.P,R14,1*
G04 #@! TO.N,Net-(R13-Pad2)*
G04 #@! TA.AperFunction,SMDPad,CuDef*
G36*
G01*
X166600000Y-135549999D02*
X166600000Y-136450001D01*
G75*
G02*
X166350001Y-136700000I-249999J0D01*
G01*
X165649999Y-136700000D01*
G75*
G02*
X165400000Y-136450001I0J249999D01*
G01*
X165400000Y-135549999D01*
G75*
G02*
X165649999Y-135300000I249999J0D01*
G01*
X166350001Y-135300000D01*
G75*
G02*
X166600000Y-135549999I0J-249999D01*
G01*
G37*
G04 #@! TD.AperFunction*
G04 #@! TO.P,R14,2*
G04 #@! TO.N,Net-(R14-Pad2)*
G04 #@! TA.AperFunction,SMDPad,CuDef*
G36*
G01*
X164600000Y-135549999D02*
X164600000Y-136450001D01*
G75*
G02*
X164350001Y-136700000I-249999J0D01*
G01*
X163649999Y-136700000D01*
G75*
G02*
X163400000Y-136450001I0J249999D01*
G01*
X163400000Y-135549999D01*
G75*
G02*
X163649999Y-135300000I249999J0D01*
G01*
X164350001Y-135300000D01*
G75*
G02*
X164600000Y-135549999I0J-249999D01*
G01*
G37*
G04 #@! TD.AperFunction*
G04 #@! TD*
G04 #@! TO.P,R15,1*
G04 #@! TO.N,Net-(R14-Pad2)*
G04 #@! TA.AperFunction,SMDPad,CuDef*
G36*
G01*
X160600000Y-135549999D02*
X160600000Y-136450001D01*
G75*
G02*
X160350001Y-136700000I-249999J0D01*
G01*
X159649999Y-136700000D01*
G75*
G02*
X159400000Y-136450001I0J249999D01*
G01*
X159400000Y-135549999D01*
G75*
G02*
X159649999Y-135300000I249999J0D01*
G01*
X160350001Y-135300000D01*
G75*
G02*
X160600000Y-135549999I0J-249999D01*
G01*
G37*
G04 #@! TD.AperFunction*
G04 #@! TO.P,R15,2*
G04 #@! TO.N,Net-(R15-Pad2)*
G04 #@! TA.AperFunction,SMDPad,CuDef*
G36*
G01*
X158600000Y-135549999D02*
X158600000Y-136450001D01*
G75*
G02*
X158350001Y-136700000I-249999J0D01*
G01*
X157649999Y-136700000D01*
G75*
G02*
X157400000Y-136450001I0J249999D01*
G01*
X157400000Y-135549999D01*
G75*
G02*
X157649999Y-135300000I249999J0D01*
G01*
X158350001Y-135300000D01*
G75*
G02*
X158600000Y-135549999I0J-249999D01*
G01*
G37*
G04 #@! TD.AperFunction*
G04 #@! TD*
G04 #@! TO.P,R16,2*
G04 #@! TO.N,Net-(R16-Pad2)*
G04 #@! TA.AperFunction,SMDPad,CuDef*
G36*
G01*
X158600000Y-131549999D02*
X158600000Y-132450001D01*
G75*
G02*
X158350001Y-132700000I-249999J0D01*
G01*
X157649999Y-132700000D01*
G75*
G02*
X157400000Y-132450001I0J249999D01*
G01*
X157400000Y-131549999D01*
G75*
G02*
X157649999Y-131300000I249999J0D01*
G01*
X158350001Y-131300000D01*
G75*
G02*
X158600000Y-131549999I0J-249999D01*
G01*
G37*
G04 #@! TD.AperFunction*
G04 #@! TO.P,R16,1*
G04 #@! TO.N,Net-(R15-Pad2)*
G04 #@! TA.AperFunction,SMDPad,CuDef*
G36*
G01*
X160600000Y-131549999D02*
X160600000Y-132450001D01*
G75*
G02*
X160350001Y-132700000I-249999J0D01*
G01*
X159649999Y-132700000D01*
G75*
G02*
X159400000Y-132450001I0J249999D01*
G01*
X159400000Y-131549999D01*
G75*
G02*
X159649999Y-131300000I249999J0D01*
G01*
X160350001Y-131300000D01*
G75*
G02*
X160600000Y-131549999I0J-249999D01*
G01*
G37*
G04 #@! TD.AperFunction*
G04 #@! TD*
G04 #@! TO.P,R17,1*
G04 #@! TO.N,Net-(R16-Pad2)*
G04 #@! TA.AperFunction,SMDPad,CuDef*
G36*
G01*
X154600000Y-131549999D02*
X154600000Y-132450001D01*
G75*
G02*
X154350001Y-132700000I-249999J0D01*
G01*
X153649999Y-132700000D01*
G75*
G02*
X153400000Y-132450001I0J249999D01*
G01*
X153400000Y-131549999D01*
G75*
G02*
X153649999Y-131300000I249999J0D01*
G01*
X154350001Y-131300000D01*
G75*
G02*
X154600000Y-131549999I0J-249999D01*
G01*
G37*
G04 #@! TD.AperFunction*
G04 #@! TO.P,R17,2*
G04 #@! TO.N,Net-(R17-Pad2)*
G04 #@! TA.AperFunction,SMDPad,CuDef*
G36*
G01*
X152600000Y-131549999D02*
X152600000Y-132450001D01*
G75*
G02*
X152350001Y-132700000I-249999J0D01*
G01*
X151649999Y-132700000D01*
G75*
G02*
X151400000Y-132450001I0J249999D01*
G01*
X151400000Y-131549999D01*
G75*
G02*
X151649999Y-131300000I249999J0D01*
G01*
X152350001Y-131300000D01*
G75*
G02*
X152600000Y-131549999I0J-249999D01*
G01*
G37*
G04 #@! TD.AperFunction*
G04 #@! TD*
G04 #@! TO.P,R18,1*
G04 #@! TO.N,Net-(R17-Pad2)*
G04 #@! TA.AperFunction,SMDPad,CuDef*
G36*
G01*
X154600000Y-135549999D02*
X154600000Y-136450001D01*
G75*
G02*
X154350001Y-136700000I-249999J0D01*
G01*
X153649999Y-136700000D01*
G75*
G02*
X153400000Y-136450001I0J249999D01*
G01*
X153400000Y-135549999D01*
G75*
G02*
X153649999Y-135300000I249999J0D01*
G01*
X154350001Y-135300000D01*
G75*
G02*
X154600000Y-135549999I0J-249999D01*
G01*
G37*
G04 #@! TD.AperFunction*
G04 #@! TO.P,R18,2*
G04 #@! TO.N,GND*
G04 #@! TA.AperFunction,SMDPad,CuDef*
G36*
G01*
X152600000Y-135549999D02*
X152600000Y-136450001D01*
G75*
G02*
X152350001Y-136700000I-249999J0D01*
G01*
X151649999Y-136700000D01*
G75*
G02*
X151400000Y-136450001I0J249999D01*
G01*
X151400000Y-135549999D01*
G75*
G02*
X151649999Y-135300000I249999J0D01*
G01*
X152350001Y-135300000D01*
G75*
G02*
X152600000Y-135549999I0J-249999D01*
G01*
G37*
G04 #@! TD.AperFunction*
G04 #@! TD*
D17*
G04 #@! TO.P,RN1,1*
G04 #@! TO.N,Net-(D2-Pad1)*
X164837000Y-119000000D03*
D18*
G04 #@! TO.P,RN1,2*
G04 #@! TO.N,Net-(D3-Pad1)*
X164250000Y-119000000D03*
G04 #@! TO.P,RN1,3*
G04 #@! TO.N,Net-(D4-Pad1)*
X163750000Y-119000000D03*
G04 #@! TO.P,RN1,4*
G04 #@! TO.N,Net-(D5-Pad1)*
X163250000Y-119000000D03*
G04 #@! TO.P,RN1,5*
G04 #@! TO.N,Net-(D6-Pad1)*
X162750000Y-119000000D03*
G04 #@! TO.P,RN1,6*
G04 #@! TO.N,Net-(D7-Pad1)*
X162250000Y-119000000D03*
G04 #@! TO.P,RN1,7*
G04 #@! TO.N,Net-(D8-Pad1)*
X161750000Y-119000000D03*
D17*
G04 #@! TO.P,RN1,8*
G04 #@! TO.N,Net-(D9-Pad1)*
X161163000Y-119000000D03*
G04 #@! TO.P,RN1,9*
G04 #@! TO.N,Net-(RN1-Pad9)*
X161163000Y-120500000D03*
G04 #@! TO.P,RN1,10*
G04 #@! TO.N,Net-(RN1-Pad10)*
X164837000Y-120500000D03*
D18*
G04 #@! TO.P,RN1,11*
G04 #@! TO.N,Net-(RN1-Pad11)*
X161750000Y-120500000D03*
G04 #@! TO.P,RN1,12*
G04 #@! TO.N,Net-(RN1-Pad12)*
X162250000Y-120500000D03*
G04 #@! TO.P,RN1,13*
G04 #@! TO.N,Net-(RN1-Pad13)*
X162750000Y-120500000D03*
G04 #@! TO.P,RN1,14*
G04 #@! TO.N,Net-(RN1-Pad14)*
X163250000Y-120500000D03*
G04 #@! TO.P,RN1,15*
G04 #@! TO.N,Net-(RN1-Pad15)*
X163750000Y-120500000D03*
G04 #@! TO.P,RN1,16*
G04 #@! TO.N,Net-(RN1-Pad16)*
X164250000Y-120500000D03*
G04 #@! TD*
D19*
G04 #@! TO.P,RV1,1*
G04 #@! TO.N,Net-(RV1-Pad1)*
X141000000Y-136000000D03*
G04 #@! TO.P,RV1,2*
G04 #@! TO.N,VCC*
X143540000Y-136000000D03*
G04 #@! TO.P,RV1,3*
G04 #@! TO.N,Net-(R10-Pad1)*
X146080000Y-136000000D03*
G04 #@! TD*
G04 #@! TO.P,U1,1*
G04 #@! TO.N,Net-(C3-Pad2)*
G04 #@! TA.AperFunction,SMDPad,CuDef*
G36*
G01*
X126550000Y-128245000D02*
X126550000Y-127945000D01*
G75*
G02*
X126700000Y-127795000I150000J0D01*
G01*
X128350000Y-127795000D01*
G75*
G02*
X128500000Y-127945000I0J-150000D01*
G01*
X128500000Y-128245000D01*
G75*
G02*
X128350000Y-128395000I-150000J0D01*
G01*
X126700000Y-128395000D01*
G75*
G02*
X126550000Y-128245000I0J150000D01*
G01*
G37*
G04 #@! TD.AperFunction*
G04 #@! TO.P,U1,2*
G04 #@! TO.N,Net-(R4-Pad1)*
G04 #@! TA.AperFunction,SMDPad,CuDef*
G36*
G01*
X126550000Y-129515000D02*
X126550000Y-129215000D01*
G75*
G02*
X126700000Y-129065000I150000J0D01*
G01*
X128350000Y-129065000D01*
G75*
G02*
X128500000Y-129215000I0J-150000D01*
G01*
X128500000Y-129515000D01*
G75*
G02*
X128350000Y-129665000I-150000J0D01*
G01*
X126700000Y-129665000D01*
G75*
G02*
X126550000Y-129515000I0J150000D01*
G01*
G37*
G04 #@! TD.AperFunction*
G04 #@! TO.P,U1,3*
G04 #@! TO.N,Net-(C1-Pad2)*
G04 #@! TA.AperFunction,SMDPad,CuDef*
G36*
G01*
X126550000Y-130785000D02*
X126550000Y-130485000D01*
G75*
G02*
X126700000Y-130335000I150000J0D01*
G01*
X128350000Y-130335000D01*
G75*
G02*
X128500000Y-130485000I0J-150000D01*
G01*
X128500000Y-130785000D01*
G75*
G02*
X128350000Y-130935000I-150000J0D01*
G01*
X126700000Y-130935000D01*
G75*
G02*
X126550000Y-130785000I0J150000D01*
G01*
G37*
G04 #@! TD.AperFunction*
G04 #@! TO.P,U1,4*
G04 #@! TO.N,GND*
G04 #@! TA.AperFunction,SMDPad,CuDef*
G36*
G01*
X126550000Y-132055000D02*
X126550000Y-131755000D01*
G75*
G02*
X126700000Y-131605000I150000J0D01*
G01*
X128350000Y-131605000D01*
G75*
G02*
X128500000Y-131755000I0J-150000D01*
G01*
X128500000Y-132055000D01*
G75*
G02*
X128350000Y-132205000I-150000J0D01*
G01*
X126700000Y-132205000D01*
G75*
G02*
X126550000Y-132055000I0J150000D01*
G01*
G37*
G04 #@! TD.AperFunction*
G04 #@! TO.P,U1,5*
G04 #@! TO.N,N/C*
G04 #@! TA.AperFunction,SMDPad,CuDef*
G36*
G01*
X131500000Y-132055000D02*
X131500000Y-131755000D01*
G75*
G02*
X131650000Y-131605000I150000J0D01*
G01*
X133300000Y-131605000D01*
G75*
G02*
X133450000Y-131755000I0J-150000D01*
G01*
X133450000Y-132055000D01*
G75*
G02*
X133300000Y-132205000I-150000J0D01*
G01*
X131650000Y-132205000D01*
G75*
G02*
X131500000Y-132055000I0J150000D01*
G01*
G37*
G04 #@! TD.AperFunction*
G04 #@! TO.P,U1,6*
G04 #@! TA.AperFunction,SMDPad,CuDef*
G36*
G01*
X131500000Y-130785000D02*
X131500000Y-130485000D01*
G75*
G02*
X131650000Y-130335000I150000J0D01*
G01*
X133300000Y-130335000D01*
G75*
G02*
X133450000Y-130485000I0J-150000D01*
G01*
X133450000Y-130785000D01*
G75*
G02*
X133300000Y-130935000I-150000J0D01*
G01*
X131650000Y-130935000D01*
G75*
G02*
X131500000Y-130785000I0J150000D01*
G01*
G37*
G04 #@! TD.AperFunction*
G04 #@! TO.P,U1,7*
G04 #@! TA.AperFunction,SMDPad,CuDef*
G36*
G01*
X131500000Y-129515000D02*
X131500000Y-129215000D01*
G75*
G02*
X131650000Y-129065000I150000J0D01*
G01*
X133300000Y-129065000D01*
G75*
G02*
X133450000Y-129215000I0J-150000D01*
G01*
X133450000Y-129515000D01*
G75*
G02*
X133300000Y-129665000I-150000J0D01*
G01*
X131650000Y-129665000D01*
G75*
G02*
X131500000Y-129515000I0J150000D01*
G01*
G37*
G04 #@! TD.AperFunction*
G04 #@! TO.P,U1,8*
G04 #@! TO.N,VCC*
G04 #@! TA.AperFunction,SMDPad,CuDef*
G36*
G01*
X131500000Y-128245000D02*
X131500000Y-127945000D01*
G75*
G02*
X131650000Y-127795000I150000J0D01*
G01*
X133300000Y-127795000D01*
G75*
G02*
X133450000Y-127945000I0J-150000D01*
G01*
X133450000Y-128245000D01*
G75*
G02*
X133300000Y-128395000I-150000J0D01*
G01*
X131650000Y-128395000D01*
G75*
G02*
X131500000Y-128245000I0J150000D01*
G01*
G37*
G04 #@! TD.AperFunction*
G04 #@! TD*
G04 #@! TO.P,U2,8*
G04 #@! TO.N,VCC*
G04 #@! TA.AperFunction,SMDPad,CuDef*
G36*
G01*
X177500000Y-124245000D02*
X177500000Y-123945000D01*
G75*
G02*
X177650000Y-123795000I150000J0D01*
G01*
X179300000Y-123795000D01*
G75*
G02*
X179450000Y-123945000I0J-150000D01*
G01*
X179450000Y-124245000D01*
G75*
G02*
X179300000Y-124395000I-150000J0D01*
G01*
X177650000Y-124395000D01*
G75*
G02*
X177500000Y-124245000I0J150000D01*
G01*
G37*
G04 #@! TD.AperFunction*
G04 #@! TO.P,U2,7*
G04 #@! TO.N,Net-(RN1-Pad10)*
G04 #@! TA.AperFunction,SMDPad,CuDef*
G36*
G01*
X177500000Y-125515000D02*
X177500000Y-125215000D01*
G75*
G02*
X177650000Y-125065000I150000J0D01*
G01*
X179300000Y-125065000D01*
G75*
G02*
X179450000Y-125215000I0J-150000D01*
G01*
X179450000Y-125515000D01*
G75*
G02*
X179300000Y-125665000I-150000J0D01*
G01*
X177650000Y-125665000D01*
G75*
G02*
X177500000Y-125515000I0J150000D01*
G01*
G37*
G04 #@! TD.AperFunction*
G04 #@! TO.P,U2,6*
G04 #@! TO.N,AudioLevel*
G04 #@! TA.AperFunction,SMDPad,CuDef*
G36*
G01*
X177500000Y-126785000D02*
X177500000Y-126485000D01*
G75*
G02*
X177650000Y-126335000I150000J0D01*
G01*
X179300000Y-126335000D01*
G75*
G02*
X179450000Y-126485000I0J-150000D01*
G01*
X179450000Y-126785000D01*
G75*
G02*
X179300000Y-126935000I-150000J0D01*
G01*
X177650000Y-126935000D01*
G75*
G02*
X177500000Y-126785000I0J150000D01*
G01*
G37*
G04 #@! TD.AperFunction*
G04 #@! TO.P,U2,5*
G04 #@! TO.N,Net-(R10-Pad2)*
G04 #@! TA.AperFunction,SMDPad,CuDef*
G36*
G01*
X177500000Y-128055000D02*
X177500000Y-127755000D01*
G75*
G02*
X177650000Y-127605000I150000J0D01*
G01*
X179300000Y-127605000D01*
G75*
G02*
X179450000Y-127755000I0J-150000D01*
G01*
X179450000Y-128055000D01*
G75*
G02*
X179300000Y-128205000I-150000J0D01*
G01*
X177650000Y-128205000D01*
G75*
G02*
X177500000Y-128055000I0J150000D01*
G01*
G37*
G04 #@! TD.AperFunction*
G04 #@! TO.P,U2,4*
G04 #@! TO.N,GND*
G04 #@! TA.AperFunction,SMDPad,CuDef*
G36*
G01*
X172550000Y-128055000D02*
X172550000Y-127755000D01*
G75*
G02*
X172700000Y-127605000I150000J0D01*
G01*
X174350000Y-127605000D01*
G75*
G02*
X174500000Y-127755000I0J-150000D01*
G01*
X174500000Y-128055000D01*
G75*
G02*
X174350000Y-128205000I-150000J0D01*
G01*
X172700000Y-128205000D01*
G75*
G02*
X172550000Y-128055000I0J150000D01*
G01*
G37*
G04 #@! TD.AperFunction*
G04 #@! TO.P,U2,3*
G04 #@! TO.N,Net-(R11-Pad2)*
G04 #@! TA.AperFunction,SMDPad,CuDef*
G36*
G01*
X172550000Y-126785000D02*
X172550000Y-126485000D01*
G75*
G02*
X172700000Y-126335000I150000J0D01*
G01*
X174350000Y-126335000D01*
G75*
G02*
X174500000Y-126485000I0J-150000D01*
G01*
X174500000Y-126785000D01*
G75*
G02*
X174350000Y-126935000I-150000J0D01*
G01*
X172700000Y-126935000D01*
G75*
G02*
X172550000Y-126785000I0J150000D01*
G01*
G37*
G04 #@! TD.AperFunction*
G04 #@! TO.P,U2,2*
G04 #@! TO.N,AudioLevel*
G04 #@! TA.AperFunction,SMDPad,CuDef*
G36*
G01*
X172550000Y-125515000D02*
X172550000Y-125215000D01*
G75*
G02*
X172700000Y-125065000I150000J0D01*
G01*
X174350000Y-125065000D01*
G75*
G02*
X174500000Y-125215000I0J-150000D01*
G01*
X174500000Y-125515000D01*
G75*
G02*
X174350000Y-125665000I-150000J0D01*
G01*
X172700000Y-125665000D01*
G75*
G02*
X172550000Y-125515000I0J150000D01*
G01*
G37*
G04 #@! TD.AperFunction*
G04 #@! TO.P,U2,1*
G04 #@! TO.N,Net-(RN1-Pad16)*
G04 #@! TA.AperFunction,SMDPad,CuDef*
G36*
G01*
X172550000Y-124245000D02*
X172550000Y-123945000D01*
G75*
G02*
X172700000Y-123795000I150000J0D01*
G01*
X174350000Y-123795000D01*
G75*
G02*
X174500000Y-123945000I0J-150000D01*
G01*
X174500000Y-124245000D01*
G75*
G02*
X174350000Y-124395000I-150000J0D01*
G01*
X172700000Y-124395000D01*
G75*
G02*
X172550000Y-124245000I0J150000D01*
G01*
G37*
G04 #@! TD.AperFunction*
G04 #@! TD*
G04 #@! TO.P,U3,1*
G04 #@! TO.N,Net-(RN1-Pad14)*
G04 #@! TA.AperFunction,SMDPad,CuDef*
G36*
G01*
X163550000Y-124245000D02*
X163550000Y-123945000D01*
G75*
G02*
X163700000Y-123795000I150000J0D01*
G01*
X165350000Y-123795000D01*
G75*
G02*
X165500000Y-123945000I0J-150000D01*
G01*
X165500000Y-124245000D01*
G75*
G02*
X165350000Y-124395000I-150000J0D01*
G01*
X163700000Y-124395000D01*
G75*
G02*
X163550000Y-124245000I0J150000D01*
G01*
G37*
G04 #@! TD.AperFunction*
G04 #@! TO.P,U3,2*
G04 #@! TO.N,AudioLevel*
G04 #@! TA.AperFunction,SMDPad,CuDef*
G36*
G01*
X163550000Y-125515000D02*
X163550000Y-125215000D01*
G75*
G02*
X163700000Y-125065000I150000J0D01*
G01*
X165350000Y-125065000D01*
G75*
G02*
X165500000Y-125215000I0J-150000D01*
G01*
X165500000Y-125515000D01*
G75*
G02*
X165350000Y-125665000I-150000J0D01*
G01*
X163700000Y-125665000D01*
G75*
G02*
X163550000Y-125515000I0J150000D01*
G01*
G37*
G04 #@! TD.AperFunction*
G04 #@! TO.P,U3,3*
G04 #@! TO.N,Net-(R13-Pad2)*
G04 #@! TA.AperFunction,SMDPad,CuDef*
G36*
G01*
X163550000Y-126785000D02*
X163550000Y-126485000D01*
G75*
G02*
X163700000Y-126335000I150000J0D01*
G01*
X165350000Y-126335000D01*
G75*
G02*
X165500000Y-126485000I0J-150000D01*
G01*
X165500000Y-126785000D01*
G75*
G02*
X165350000Y-126935000I-150000J0D01*
G01*
X163700000Y-126935000D01*
G75*
G02*
X163550000Y-126785000I0J150000D01*
G01*
G37*
G04 #@! TD.AperFunction*
G04 #@! TO.P,U3,4*
G04 #@! TO.N,GND*
G04 #@! TA.AperFunction,SMDPad,CuDef*
G36*
G01*
X163550000Y-128055000D02*
X163550000Y-127755000D01*
G75*
G02*
X163700000Y-127605000I150000J0D01*
G01*
X165350000Y-127605000D01*
G75*
G02*
X165500000Y-127755000I0J-150000D01*
G01*
X165500000Y-128055000D01*
G75*
G02*
X165350000Y-128205000I-150000J0D01*
G01*
X163700000Y-128205000D01*
G75*
G02*
X163550000Y-128055000I0J150000D01*
G01*
G37*
G04 #@! TD.AperFunction*
G04 #@! TO.P,U3,5*
G04 #@! TO.N,Net-(R12-Pad2)*
G04 #@! TA.AperFunction,SMDPad,CuDef*
G36*
G01*
X168500000Y-128055000D02*
X168500000Y-127755000D01*
G75*
G02*
X168650000Y-127605000I150000J0D01*
G01*
X170300000Y-127605000D01*
G75*
G02*
X170450000Y-127755000I0J-150000D01*
G01*
X170450000Y-128055000D01*
G75*
G02*
X170300000Y-128205000I-150000J0D01*
G01*
X168650000Y-128205000D01*
G75*
G02*
X168500000Y-128055000I0J150000D01*
G01*
G37*
G04 #@! TD.AperFunction*
G04 #@! TO.P,U3,6*
G04 #@! TO.N,AudioLevel*
G04 #@! TA.AperFunction,SMDPad,CuDef*
G36*
G01*
X168500000Y-126785000D02*
X168500000Y-126485000D01*
G75*
G02*
X168650000Y-126335000I150000J0D01*
G01*
X170300000Y-126335000D01*
G75*
G02*
X170450000Y-126485000I0J-150000D01*
G01*
X170450000Y-126785000D01*
G75*
G02*
X170300000Y-126935000I-150000J0D01*
G01*
X168650000Y-126935000D01*
G75*
G02*
X168500000Y-126785000I0J150000D01*
G01*
G37*
G04 #@! TD.AperFunction*
G04 #@! TO.P,U3,7*
G04 #@! TO.N,Net-(RN1-Pad15)*
G04 #@! TA.AperFunction,SMDPad,CuDef*
G36*
G01*
X168500000Y-125515000D02*
X168500000Y-125215000D01*
G75*
G02*
X168650000Y-125065000I150000J0D01*
G01*
X170300000Y-125065000D01*
G75*
G02*
X170450000Y-125215000I0J-150000D01*
G01*
X170450000Y-125515000D01*
G75*
G02*
X170300000Y-125665000I-150000J0D01*
G01*
X168650000Y-125665000D01*
G75*
G02*
X168500000Y-125515000I0J150000D01*
G01*
G37*
G04 #@! TD.AperFunction*
G04 #@! TO.P,U3,8*
G04 #@! TO.N,VCC*
G04 #@! TA.AperFunction,SMDPad,CuDef*
G36*
G01*
X168500000Y-124245000D02*
X168500000Y-123945000D01*
G75*
G02*
X168650000Y-123795000I150000J0D01*
G01*
X170300000Y-123795000D01*
G75*
G02*
X170450000Y-123945000I0J-150000D01*
G01*
X170450000Y-124245000D01*
G75*
G02*
X170300000Y-124395000I-150000J0D01*
G01*
X168650000Y-124395000D01*
G75*
G02*
X168500000Y-124245000I0J150000D01*
G01*
G37*
G04 #@! TD.AperFunction*
G04 #@! TD*
G04 #@! TO.P,U4,1*
G04 #@! TO.N,Net-(RN1-Pad12)*
G04 #@! TA.AperFunction,SMDPad,CuDef*
G36*
G01*
X154550000Y-124245000D02*
X154550000Y-123945000D01*
G75*
G02*
X154700000Y-123795000I150000J0D01*
G01*
X156350000Y-123795000D01*
G75*
G02*
X156500000Y-123945000I0J-150000D01*
G01*
X156500000Y-124245000D01*
G75*
G02*
X156350000Y-124395000I-150000J0D01*
G01*
X154700000Y-124395000D01*
G75*
G02*
X154550000Y-124245000I0J150000D01*
G01*
G37*
G04 #@! TD.AperFunction*
G04 #@! TO.P,U4,2*
G04 #@! TO.N,AudioLevel*
G04 #@! TA.AperFunction,SMDPad,CuDef*
G36*
G01*
X154550000Y-125515000D02*
X154550000Y-125215000D01*
G75*
G02*
X154700000Y-125065000I150000J0D01*
G01*
X156350000Y-125065000D01*
G75*
G02*
X156500000Y-125215000I0J-150000D01*
G01*
X156500000Y-125515000D01*
G75*
G02*
X156350000Y-125665000I-150000J0D01*
G01*
X154700000Y-125665000D01*
G75*
G02*
X154550000Y-125515000I0J150000D01*
G01*
G37*
G04 #@! TD.AperFunction*
G04 #@! TO.P,U4,3*
G04 #@! TO.N,Net-(R15-Pad2)*
G04 #@! TA.AperFunction,SMDPad,CuDef*
G36*
G01*
X154550000Y-126785000D02*
X154550000Y-126485000D01*
G75*
G02*
X154700000Y-126335000I150000J0D01*
G01*
X156350000Y-126335000D01*
G75*
G02*
X156500000Y-126485000I0J-150000D01*
G01*
X156500000Y-126785000D01*
G75*
G02*
X156350000Y-126935000I-150000J0D01*
G01*
X154700000Y-126935000D01*
G75*
G02*
X154550000Y-126785000I0J150000D01*
G01*
G37*
G04 #@! TD.AperFunction*
G04 #@! TO.P,U4,4*
G04 #@! TO.N,GND*
G04 #@! TA.AperFunction,SMDPad,CuDef*
G36*
G01*
X154550000Y-128055000D02*
X154550000Y-127755000D01*
G75*
G02*
X154700000Y-127605000I150000J0D01*
G01*
X156350000Y-127605000D01*
G75*
G02*
X156500000Y-127755000I0J-150000D01*
G01*
X156500000Y-128055000D01*
G75*
G02*
X156350000Y-128205000I-150000J0D01*
G01*
X154700000Y-128205000D01*
G75*
G02*
X154550000Y-128055000I0J150000D01*
G01*
G37*
G04 #@! TD.AperFunction*
G04 #@! TO.P,U4,5*
G04 #@! TO.N,Net-(R14-Pad2)*
G04 #@! TA.AperFunction,SMDPad,CuDef*
G36*
G01*
X159500000Y-128055000D02*
X159500000Y-127755000D01*
G75*
G02*
X159650000Y-127605000I150000J0D01*
G01*
X161300000Y-127605000D01*
G75*
G02*
X161450000Y-127755000I0J-150000D01*
G01*
X161450000Y-128055000D01*
G75*
G02*
X161300000Y-128205000I-150000J0D01*
G01*
X159650000Y-128205000D01*
G75*
G02*
X159500000Y-128055000I0J150000D01*
G01*
G37*
G04 #@! TD.AperFunction*
G04 #@! TO.P,U4,6*
G04 #@! TO.N,AudioLevel*
G04 #@! TA.AperFunction,SMDPad,CuDef*
G36*
G01*
X159500000Y-126785000D02*
X159500000Y-126485000D01*
G75*
G02*
X159650000Y-126335000I150000J0D01*
G01*
X161300000Y-126335000D01*
G75*
G02*
X161450000Y-126485000I0J-150000D01*
G01*
X161450000Y-126785000D01*
G75*
G02*
X161300000Y-126935000I-150000J0D01*
G01*
X159650000Y-126935000D01*
G75*
G02*
X159500000Y-126785000I0J150000D01*
G01*
G37*
G04 #@! TD.AperFunction*
G04 #@! TO.P,U4,7*
G04 #@! TO.N,Net-(RN1-Pad13)*
G04 #@! TA.AperFunction,SMDPad,CuDef*
G36*
G01*
X159500000Y-125515000D02*
X159500000Y-125215000D01*
G75*
G02*
X159650000Y-125065000I150000J0D01*
G01*
X161300000Y-125065000D01*
G75*
G02*
X161450000Y-125215000I0J-150000D01*
G01*
X161450000Y-125515000D01*
G75*
G02*
X161300000Y-125665000I-150000J0D01*
G01*
X159650000Y-125665000D01*
G75*
G02*
X159500000Y-125515000I0J150000D01*
G01*
G37*
G04 #@! TD.AperFunction*
G04 #@! TO.P,U4,8*
G04 #@! TO.N,VCC*
G04 #@! TA.AperFunction,SMDPad,CuDef*
G36*
G01*
X159500000Y-124245000D02*
X159500000Y-123945000D01*
G75*
G02*
X159650000Y-123795000I150000J0D01*
G01*
X161300000Y-123795000D01*
G75*
G02*
X161450000Y-123945000I0J-150000D01*
G01*
X161450000Y-124245000D01*
G75*
G02*
X161300000Y-124395000I-150000J0D01*
G01*
X159650000Y-124395000D01*
G75*
G02*
X159500000Y-124245000I0J150000D01*
G01*
G37*
G04 #@! TD.AperFunction*
G04 #@! TD*
G04 #@! TO.P,U5,8*
G04 #@! TO.N,VCC*
G04 #@! TA.AperFunction,SMDPad,CuDef*
G36*
G01*
X150500000Y-124245000D02*
X150500000Y-123945000D01*
G75*
G02*
X150650000Y-123795000I150000J0D01*
G01*
X152300000Y-123795000D01*
G75*
G02*
X152450000Y-123945000I0J-150000D01*
G01*
X152450000Y-124245000D01*
G75*
G02*
X152300000Y-124395000I-150000J0D01*
G01*
X150650000Y-124395000D01*
G75*
G02*
X150500000Y-124245000I0J150000D01*
G01*
G37*
G04 #@! TD.AperFunction*
G04 #@! TO.P,U5,7*
G04 #@! TO.N,Net-(RN1-Pad11)*
G04 #@! TA.AperFunction,SMDPad,CuDef*
G36*
G01*
X150500000Y-125515000D02*
X150500000Y-125215000D01*
G75*
G02*
X150650000Y-125065000I150000J0D01*
G01*
X152300000Y-125065000D01*
G75*
G02*
X152450000Y-125215000I0J-150000D01*
G01*
X152450000Y-125515000D01*
G75*
G02*
X152300000Y-125665000I-150000J0D01*
G01*
X150650000Y-125665000D01*
G75*
G02*
X150500000Y-125515000I0J150000D01*
G01*
G37*
G04 #@! TD.AperFunction*
G04 #@! TO.P,U5,6*
G04 #@! TO.N,AudioLevel*
G04 #@! TA.AperFunction,SMDPad,CuDef*
G36*
G01*
X150500000Y-126785000D02*
X150500000Y-126485000D01*
G75*
G02*
X150650000Y-126335000I150000J0D01*
G01*
X152300000Y-126335000D01*
G75*
G02*
X152450000Y-126485000I0J-150000D01*
G01*
X152450000Y-126785000D01*
G75*
G02*
X152300000Y-126935000I-150000J0D01*
G01*
X150650000Y-126935000D01*
G75*
G02*
X150500000Y-126785000I0J150000D01*
G01*
G37*
G04 #@! TD.AperFunction*
G04 #@! TO.P,U5,5*
G04 #@! TO.N,Net-(R16-Pad2)*
G04 #@! TA.AperFunction,SMDPad,CuDef*
G36*
G01*
X150500000Y-128055000D02*
X150500000Y-127755000D01*
G75*
G02*
X150650000Y-127605000I150000J0D01*
G01*
X152300000Y-127605000D01*
G75*
G02*
X152450000Y-127755000I0J-150000D01*
G01*
X152450000Y-128055000D01*
G75*
G02*
X152300000Y-128205000I-150000J0D01*
G01*
X150650000Y-128205000D01*
G75*
G02*
X150500000Y-128055000I0J150000D01*
G01*
G37*
G04 #@! TD.AperFunction*
G04 #@! TO.P,U5,4*
G04 #@! TO.N,GND*
G04 #@! TA.AperFunction,SMDPad,CuDef*
G36*
G01*
X145550000Y-128055000D02*
X145550000Y-127755000D01*
G75*
G02*
X145700000Y-127605000I150000J0D01*
G01*
X147350000Y-127605000D01*
G75*
G02*
X147500000Y-127755000I0J-150000D01*
G01*
X147500000Y-128055000D01*
G75*
G02*
X147350000Y-128205000I-150000J0D01*
G01*
X145700000Y-128205000D01*
G75*
G02*
X145550000Y-128055000I0J150000D01*
G01*
G37*
G04 #@! TD.AperFunction*
G04 #@! TO.P,U5,3*
G04 #@! TO.N,Net-(R17-Pad2)*
G04 #@! TA.AperFunction,SMDPad,CuDef*
G36*
G01*
X145550000Y-126785000D02*
X145550000Y-126485000D01*
G75*
G02*
X145700000Y-126335000I150000J0D01*
G01*
X147350000Y-126335000D01*
G75*
G02*
X147500000Y-126485000I0J-150000D01*
G01*
X147500000Y-126785000D01*
G75*
G02*
X147350000Y-126935000I-150000J0D01*
G01*
X145700000Y-126935000D01*
G75*
G02*
X145550000Y-126785000I0J150000D01*
G01*
G37*
G04 #@! TD.AperFunction*
G04 #@! TO.P,U5,2*
G04 #@! TO.N,AudioLevel*
G04 #@! TA.AperFunction,SMDPad,CuDef*
G36*
G01*
X145550000Y-125515000D02*
X145550000Y-125215000D01*
G75*
G02*
X145700000Y-125065000I150000J0D01*
G01*
X147350000Y-125065000D01*
G75*
G02*
X147500000Y-125215000I0J-150000D01*
G01*
X147500000Y-125515000D01*
G75*
G02*
X147350000Y-125665000I-150000J0D01*
G01*
X145700000Y-125665000D01*
G75*
G02*
X145550000Y-125515000I0J150000D01*
G01*
G37*
G04 #@! TD.AperFunction*
G04 #@! TO.P,U5,1*
G04 #@! TO.N,Net-(RN1-Pad9)*
G04 #@! TA.AperFunction,SMDPad,CuDef*
G36*
G01*
X145550000Y-124245000D02*
X145550000Y-123945000D01*
G75*
G02*
X145700000Y-123795000I150000J0D01*
G01*
X147350000Y-123795000D01*
G75*
G02*
X147500000Y-123945000I0J-150000D01*
G01*
X147500000Y-124245000D01*
G75*
G02*
X147350000Y-124395000I-150000J0D01*
G01*
X145700000Y-124395000D01*
G75*
G02*
X145550000Y-124245000I0J150000D01*
G01*
G37*
G04 #@! TD.AperFunction*
G04 #@! TD*
D20*
G04 #@! TO.N,GND*
X164525000Y-129475000D03*
X155525000Y-129525000D03*
X173525000Y-129525000D03*
X135000000Y-125000000D03*
X130394990Y-132605010D03*
X120000000Y-137000000D03*
X149000000Y-133000000D03*
G04 #@! TO.N,VCC*
X158500000Y-123000000D03*
X169475000Y-122475000D03*
X151475000Y-121525000D03*
X151475000Y-119525000D03*
X158500000Y-119500000D03*
X169475000Y-119525000D03*
G04 #@! TD*
D21*
G04 #@! TO.N,Net-(C1-Pad2)*
X126550000Y-130635000D02*
X125000000Y-132185000D01*
X127525000Y-130635000D02*
X126550000Y-130635000D01*
X125000000Y-135000000D02*
X126000000Y-136000000D01*
X125000000Y-132185000D02*
X125000000Y-135000000D01*
X118037500Y-132000000D02*
X118037500Y-134962500D01*
X118037500Y-134962500D02*
X119000000Y-135925000D01*
X125925000Y-135925000D02*
X126000000Y-136000000D01*
X119000000Y-135925000D02*
X125925000Y-135925000D01*
X132000000Y-136000000D02*
X132000000Y-135000000D01*
X132000000Y-135000000D02*
X131000000Y-134000000D01*
X128000000Y-134000000D02*
X126000000Y-136000000D01*
X131000000Y-134000000D02*
X128000000Y-134000000D01*
G04 #@! TO.N,Net-(C1-Pad1)*
X118000000Y-129962500D02*
X115962500Y-132000000D01*
X118000000Y-128000000D02*
X118000000Y-129962500D01*
X113422500Y-134540000D02*
X115962500Y-132000000D01*
X111000000Y-134540000D02*
X113422500Y-134540000D01*
G04 #@! TO.N,Net-(C2-Pad1)*
X123000000Y-133962500D02*
X122000000Y-134962500D01*
X123000000Y-132000000D02*
X123000000Y-133962500D01*
D22*
G04 #@! TO.N,GND*
X143075000Y-128075000D02*
X143000000Y-128000000D01*
X143075000Y-132000000D02*
X143075000Y-128075000D01*
D23*
X115080000Y-123080000D02*
X116000000Y-124000000D01*
X109000000Y-123080000D02*
X115080000Y-123080000D01*
X146430000Y-128000000D02*
X146525000Y-127905000D01*
X143000000Y-128000000D02*
X146430000Y-128000000D01*
X155525000Y-127905000D02*
X155525000Y-129525000D01*
X173525000Y-127905000D02*
X173525000Y-129525000D01*
X164525000Y-127905000D02*
X164525000Y-129475000D01*
X164525000Y-129475000D02*
X164525000Y-129525000D01*
X155525000Y-129525000D02*
X155525000Y-129525000D01*
X173525000Y-129525000D02*
X173525000Y-129525000D01*
X130605010Y-132605010D02*
X134000000Y-136000000D01*
X128225010Y-132605010D02*
X130394990Y-132605010D01*
X127525000Y-131905000D02*
X128225010Y-132605010D01*
X132950000Y-125000000D02*
X135000000Y-125000000D01*
X135000000Y-125000000D02*
X135000000Y-125000000D01*
X130394990Y-132605010D02*
X130605010Y-132605010D01*
X122000000Y-137037500D02*
X120037500Y-137037500D01*
X120037500Y-137037500D02*
X120000000Y-137000000D01*
X120000000Y-137000000D02*
X120000000Y-137000000D01*
X118460000Y-121540000D02*
X116000000Y-124000000D01*
X118460000Y-119000000D02*
X118460000Y-121540000D01*
X146525000Y-130525000D02*
X146525000Y-127905000D01*
X152000000Y-136000000D02*
X149000000Y-133000000D01*
X149000000Y-133000000D02*
X146525000Y-130525000D01*
X121037500Y-116422500D02*
X121037500Y-116000000D01*
X118460000Y-119000000D02*
X121037500Y-116422500D01*
D21*
G04 #@! TO.N,Net-(C3-Pad1)*
X126000000Y-124000000D02*
X123000000Y-124000000D01*
X118000000Y-124000000D02*
X120000000Y-122000000D01*
X120000000Y-122000000D02*
X122000000Y-122000000D01*
X122000000Y-122000000D02*
X123000000Y-123000000D01*
X123000000Y-123000000D02*
X123000000Y-124000000D01*
G04 #@! TO.N,Net-(C3-Pad2)*
X127430000Y-128000000D02*
X127525000Y-128095000D01*
X123000000Y-128000000D02*
X127430000Y-128000000D01*
X120925000Y-125925000D02*
X123000000Y-128000000D01*
X120925000Y-124000000D02*
X120925000Y-125925000D01*
G04 #@! TO.N,AudioLevel*
X141000000Y-125350000D02*
X139650000Y-124000000D01*
X141000000Y-128000000D02*
X141000000Y-125350000D01*
X141000000Y-132000000D02*
X141000000Y-128000000D01*
X147500000Y-125365000D02*
X148770000Y-126635000D01*
X148770000Y-126635000D02*
X151475000Y-126635000D01*
X146525000Y-125365000D02*
X147500000Y-125365000D01*
X153720000Y-125365000D02*
X155525000Y-125365000D01*
X152450000Y-126635000D02*
X153720000Y-125365000D01*
X151475000Y-126635000D02*
X152450000Y-126635000D01*
X157770000Y-126635000D02*
X160475000Y-126635000D01*
X156500000Y-125365000D02*
X157770000Y-126635000D01*
X155525000Y-125365000D02*
X156500000Y-125365000D01*
X161450000Y-126635000D02*
X162720000Y-125365000D01*
X162720000Y-125365000D02*
X164525000Y-125365000D01*
X160475000Y-126635000D02*
X161450000Y-126635000D01*
X166770000Y-126635000D02*
X169475000Y-126635000D01*
X165500000Y-125365000D02*
X166770000Y-126635000D01*
X164525000Y-125365000D02*
X165500000Y-125365000D01*
X171720000Y-125365000D02*
X173525000Y-125365000D01*
X170450000Y-126635000D02*
X171720000Y-125365000D01*
X169475000Y-126635000D02*
X170450000Y-126635000D01*
X175770000Y-126635000D02*
X178475000Y-126635000D01*
X174500000Y-125365000D02*
X175770000Y-126635000D01*
X173525000Y-125365000D02*
X174500000Y-125365000D01*
X134650000Y-119000000D02*
X139650000Y-124000000D01*
X121000000Y-119000000D02*
X134650000Y-119000000D01*
X141015000Y-125365000D02*
X139650000Y-124000000D01*
X146525000Y-125365000D02*
X141015000Y-125365000D01*
G04 #@! TO.N,Net-(D1-Pad2)*
X135350000Y-123000000D02*
X136350000Y-124000000D01*
X132000000Y-123000000D02*
X135350000Y-123000000D01*
X138000000Y-125650000D02*
X136350000Y-124000000D01*
X138000000Y-128000000D02*
X138000000Y-125650000D01*
G04 #@! TO.N,Net-(D2-Pad1)*
X164837000Y-88812000D02*
X144025000Y-68000000D01*
X164837000Y-119000000D02*
X164837000Y-88812000D01*
G04 #@! TO.N,Net-(D3-Pad1)*
X149000000Y-77000000D02*
X144000000Y-77000000D01*
X164250000Y-92250000D02*
X149000000Y-77000000D01*
X164250000Y-119000000D02*
X164250000Y-92250000D01*
G04 #@! TO.N,Net-(D4-Pad1)*
X163750000Y-119000000D02*
X163750000Y-94750000D01*
X154000000Y-85000000D02*
X150025000Y-85000000D01*
X163750000Y-94750000D02*
X154000000Y-85000000D01*
G04 #@! TO.N,Net-(D5-Pad1)*
X163250000Y-119000000D02*
X163250000Y-98250000D01*
X163250000Y-98250000D02*
X154000000Y-89000000D01*
X142025000Y-89000000D02*
X138025000Y-85000000D01*
X154000000Y-89000000D02*
X142025000Y-89000000D01*
G04 #@! TO.N,Net-(D6-Pad1)*
X162750000Y-119000000D02*
X162750000Y-99750000D01*
X157000000Y-94000000D02*
X152000000Y-94000000D01*
X162750000Y-99750000D02*
X157000000Y-94000000D01*
G04 #@! TO.N,Net-(D7-Pad1)*
X162250000Y-119000000D02*
X162250000Y-104250000D01*
X162250000Y-104250000D02*
X158000000Y-100000000D01*
X142025000Y-100000000D02*
X136025000Y-94000000D01*
X158000000Y-100000000D02*
X142025000Y-100000000D01*
G04 #@! TO.N,Net-(D8-Pad1)*
X161750000Y-108700000D02*
X158050000Y-105000000D01*
X161750000Y-119000000D02*
X161750000Y-108700000D01*
G04 #@! TO.N,Net-(D9-Pad1)*
X161163000Y-119000000D02*
X161163000Y-113163000D01*
X161163000Y-113163000D02*
X157000000Y-109000000D01*
X134025000Y-109000000D02*
X130025000Y-105000000D01*
X157000000Y-109000000D02*
X134025000Y-109000000D01*
D23*
G04 #@! TO.N,VCC*
X132570000Y-128000000D02*
X132475000Y-128095000D01*
X136000000Y-128000000D02*
X132570000Y-128000000D01*
X109000000Y-118000000D02*
X104000000Y-123000000D01*
X125974990Y-138025010D02*
X128000000Y-136000000D01*
X109025010Y-138025010D02*
X125974990Y-138025010D01*
X104000000Y-133000000D02*
X109025010Y-138025010D01*
X105000000Y-128000000D02*
X104000000Y-127000000D01*
X116000000Y-128000000D02*
X105000000Y-128000000D01*
X104000000Y-127000000D02*
X104000000Y-133000000D01*
X104000000Y-123000000D02*
X104000000Y-127000000D01*
X128000000Y-136000000D02*
X130000000Y-138000000D01*
X149950000Y-94000000D02*
X149950000Y-92950000D01*
X149950000Y-92950000D02*
X149000000Y-92000000D01*
X149000000Y-92000000D02*
X135975000Y-92000000D01*
X147975000Y-85000000D02*
X147975000Y-83975000D01*
X147975000Y-83975000D02*
X147000000Y-83000000D01*
X137975000Y-83000000D02*
X135975000Y-85000000D01*
X147000000Y-83000000D02*
X137975000Y-83000000D01*
X156000000Y-105000000D02*
X156000000Y-104000000D01*
X156000000Y-104000000D02*
X155000000Y-103000000D01*
X129975000Y-103000000D02*
X127975000Y-105000000D01*
X155000000Y-103000000D02*
X129975000Y-103000000D01*
X141950000Y-79025000D02*
X135975000Y-85000000D01*
X141950000Y-77000000D02*
X141950000Y-79025000D01*
X141950000Y-68025000D02*
X141975000Y-68000000D01*
X141950000Y-77000000D02*
X141950000Y-68025000D01*
X135975000Y-92000000D02*
X133975000Y-94000000D01*
X133975000Y-87000000D02*
X135975000Y-85000000D01*
X133975000Y-94000000D02*
X133975000Y-87000000D01*
X127975000Y-100000000D02*
X133975000Y-94000000D01*
X127975000Y-105000000D02*
X127975000Y-100000000D01*
X141540000Y-138000000D02*
X143540000Y-136000000D01*
X140000000Y-138000000D02*
X141540000Y-138000000D01*
X130000000Y-138000000D02*
X140000000Y-138000000D01*
X140000000Y-138000000D02*
X140540000Y-138000000D01*
X143268244Y-136000000D02*
X143540000Y-136000000D01*
X136000000Y-128731756D02*
X143268244Y-136000000D01*
X136000000Y-128000000D02*
X136000000Y-128731756D01*
X151475000Y-124095000D02*
X151475000Y-122475000D01*
X169475000Y-124095000D02*
X169475000Y-122475000D01*
X160475000Y-124095000D02*
X159380000Y-123000000D01*
X159380000Y-123000000D02*
X158500000Y-123000000D01*
X158500000Y-123000000D02*
X158500000Y-123000000D01*
X169475000Y-122475000D02*
X169475000Y-122475000D01*
X151475000Y-122475000D02*
X151475000Y-121525000D01*
X151475000Y-121525000D02*
X151475000Y-121525000D01*
X151500000Y-119500000D02*
X151475000Y-119525000D01*
X158500000Y-119500000D02*
X151500000Y-119500000D01*
X116962500Y-118000000D02*
X118962500Y-116000000D01*
X109000000Y-118000000D02*
X116962500Y-118000000D01*
X118962500Y-114012500D02*
X127975000Y-105000000D01*
X118962500Y-116000000D02*
X118962500Y-114012500D01*
D21*
G04 #@! TO.N,Net-(Q1-Pad1)*
X129000000Y-125000000D02*
X128000000Y-124000000D01*
X131050000Y-125000000D02*
X129000000Y-125000000D01*
G04 #@! TO.N,Net-(R4-Pad1)*
X122365000Y-129365000D02*
X127525000Y-129365000D01*
X121000000Y-128000000D02*
X122365000Y-129365000D01*
X121000000Y-132000000D02*
X121000000Y-128000000D01*
G04 #@! TO.N,Net-(R10-Pad1)*
X148080000Y-138000000D02*
X146080000Y-136000000D01*
X152000000Y-138000000D02*
X148080000Y-138000000D01*
X176636410Y-138000000D02*
X178318205Y-136318205D01*
X174000000Y-138000000D02*
X176636410Y-138000000D01*
X174000000Y-138000000D02*
X152000000Y-138000000D01*
G04 #@! TO.N,Net-(R10-Pad2)*
X176000000Y-136000000D02*
X172000000Y-136000000D01*
X176000000Y-130380000D02*
X178475000Y-127905000D01*
X176000000Y-136000000D02*
X176000000Y-130380000D01*
G04 #@! TO.N,Net-(R11-Pad2)*
X172000000Y-134000000D02*
X170000000Y-136000000D01*
X172000000Y-132000000D02*
X172000000Y-134000000D01*
X171613190Y-132000000D02*
X172000000Y-132000000D01*
X172000000Y-127185000D02*
X172000000Y-132000000D01*
X172550000Y-126635000D02*
X172000000Y-127185000D01*
X173525000Y-126635000D02*
X172550000Y-126635000D01*
G04 #@! TO.N,Net-(R12-Pad2)*
X166000000Y-132000000D02*
X170000000Y-132000000D01*
X169475000Y-131475000D02*
X170000000Y-132000000D01*
X169475000Y-127905000D02*
X169475000Y-131475000D01*
G04 #@! TO.N,Net-(R13-Pad2)*
X164000000Y-134000000D02*
X166000000Y-136000000D01*
X164000000Y-132000000D02*
X164000000Y-134000000D01*
X163550000Y-126635000D02*
X163000000Y-127185000D01*
X164525000Y-126635000D02*
X163550000Y-126635000D01*
X163000000Y-131000000D02*
X164000000Y-132000000D01*
X163000000Y-127185000D02*
X163000000Y-131000000D01*
G04 #@! TO.N,Net-(R14-Pad2)*
X164000000Y-136000000D02*
X160000000Y-136000000D01*
X160000000Y-136000000D02*
X162000000Y-134000000D01*
X162000000Y-129430000D02*
X160475000Y-127905000D01*
X162000000Y-134000000D02*
X162000000Y-129430000D01*
G04 #@! TO.N,Net-(R15-Pad2)*
X160000000Y-134000000D02*
X158000000Y-136000000D01*
X160000000Y-132000000D02*
X160000000Y-134000000D01*
X156500000Y-126635000D02*
X155525000Y-126635000D01*
X160000000Y-130135000D02*
X156500000Y-126635000D01*
X160000000Y-132000000D02*
X160000000Y-130135000D01*
G04 #@! TO.N,Net-(R16-Pad2)*
X158000000Y-132000000D02*
X154000000Y-132000000D01*
X151475000Y-128838590D02*
X154318205Y-131681795D01*
X151475000Y-127905000D02*
X151475000Y-128838590D01*
G04 #@! TO.N,Net-(R17-Pad2)*
X152000000Y-134000000D02*
X154000000Y-136000000D01*
X152000000Y-132000000D02*
X152000000Y-134000000D01*
X147335000Y-126635000D02*
X146525000Y-126635000D01*
X152000000Y-131300000D02*
X147335000Y-126635000D01*
X152000000Y-132000000D02*
X152000000Y-131300000D01*
G04 #@! TO.N,Net-(RN1-Pad9)*
X150120000Y-120500000D02*
X146525000Y-124095000D01*
X161163000Y-120500000D02*
X150120000Y-120500000D01*
G04 #@! TO.N,Net-(RN1-Pad10)*
X171576768Y-120500000D02*
X164837000Y-120500000D01*
X176441768Y-125365000D02*
X171576768Y-120500000D01*
X178475000Y-125365000D02*
X176441768Y-125365000D01*
G04 #@! TO.N,Net-(RN1-Pad11)*
X161674999Y-121075001D02*
X154075001Y-121075001D01*
X161750000Y-121000000D02*
X161674999Y-121075001D01*
X161750000Y-120500000D02*
X161750000Y-121000000D01*
X154075001Y-121075001D02*
X153000000Y-122150002D01*
X151851768Y-125365000D02*
X151475000Y-125365000D01*
X153000000Y-124216768D02*
X151851768Y-125365000D01*
X153000000Y-122150002D02*
X153000000Y-124216768D01*
G04 #@! TO.N,Net-(RN1-Pad12)*
X162250000Y-121136410D02*
X161386410Y-122000000D01*
X162250000Y-120500000D02*
X162250000Y-121136410D01*
X157620000Y-122000000D02*
X155525000Y-124095000D01*
X161386410Y-122000000D02*
X157620000Y-122000000D01*
G04 #@! TO.N,Net-(RN1-Pad13)*
X160851768Y-125365000D02*
X160475000Y-125365000D01*
X162750000Y-123466768D02*
X160851768Y-125365000D01*
X162750000Y-120500000D02*
X162750000Y-123466768D01*
G04 #@! TO.N,Net-(RN1-Pad14)*
X163250000Y-122820000D02*
X164525000Y-124095000D01*
X163250000Y-120500000D02*
X163250000Y-122820000D01*
G04 #@! TO.N,Net-(RN1-Pad15)*
X167978590Y-125365000D02*
X169475000Y-125365000D01*
X163750000Y-121136410D02*
X167978590Y-125365000D01*
X163750000Y-120500000D02*
X163750000Y-121136410D01*
G04 #@! TO.N,Net-(RN1-Pad16)*
X164250000Y-121000000D02*
X164325001Y-121075001D01*
X164250000Y-120500000D02*
X164250000Y-121000000D01*
X173525000Y-123525000D02*
X173525000Y-124095000D01*
X171075001Y-121075001D02*
X173525000Y-123525000D01*
X164289498Y-121000000D02*
X164250000Y-121000000D01*
X164364499Y-121075001D02*
X164289498Y-121000000D01*
X171075001Y-121075001D02*
X164364499Y-121075001D01*
G04 #@! TD*
D24*
G04 #@! TO.N,VCC*
X180453893Y-39707670D02*
X180890498Y-39839489D01*
X181293185Y-40053600D01*
X181646612Y-40341848D01*
X181937327Y-40693261D01*
X182154242Y-41094439D01*
X182289106Y-41530113D01*
X182340001Y-42014353D01*
X182340000Y-135967721D01*
X182292330Y-136453894D01*
X182160512Y-136890497D01*
X181946399Y-137293186D01*
X181658150Y-137646613D01*
X181306739Y-137937327D01*
X180905564Y-138154240D01*
X180469886Y-138289106D01*
X179985664Y-138340000D01*
X177371211Y-138340000D01*
X178375668Y-137335544D01*
X178523255Y-137321008D01*
X178689851Y-137270472D01*
X178843387Y-137188405D01*
X178977962Y-137077962D01*
X179088405Y-136943387D01*
X179170472Y-136789851D01*
X179221008Y-136623255D01*
X179238072Y-136450001D01*
X179238072Y-135549999D01*
X179221008Y-135376745D01*
X179170472Y-135210149D01*
X179088405Y-135056613D01*
X178977962Y-134922038D01*
X178843387Y-134811595D01*
X178689851Y-134729528D01*
X178523255Y-134678992D01*
X178350001Y-134661928D01*
X177649999Y-134661928D01*
X177476745Y-134678992D01*
X177310149Y-134729528D01*
X177156613Y-134811595D01*
X177022038Y-134922038D01*
X177000000Y-134948891D01*
X176977962Y-134922038D01*
X176843387Y-134811595D01*
X176760000Y-134767024D01*
X176760000Y-130694801D01*
X178611730Y-128843072D01*
X179300000Y-128843072D01*
X179453745Y-128827929D01*
X179601582Y-128783084D01*
X179737829Y-128710258D01*
X179857251Y-128612251D01*
X179955258Y-128492829D01*
X180028084Y-128356582D01*
X180072929Y-128208745D01*
X180088072Y-128055000D01*
X180088072Y-127755000D01*
X180072929Y-127601255D01*
X180028084Y-127453418D01*
X179955258Y-127317171D01*
X179916546Y-127270000D01*
X179955258Y-127222829D01*
X180028084Y-127086582D01*
X180072929Y-126938745D01*
X180088072Y-126785000D01*
X180088072Y-126485000D01*
X180072929Y-126331255D01*
X180028084Y-126183418D01*
X179955258Y-126047171D01*
X179916546Y-126000000D01*
X179955258Y-125952829D01*
X180028084Y-125816582D01*
X180072929Y-125668745D01*
X180088072Y-125515000D01*
X180088072Y-125215000D01*
X180072929Y-125061255D01*
X180028084Y-124913418D01*
X179956270Y-124779064D01*
X179980537Y-124749494D01*
X180039502Y-124639180D01*
X180075812Y-124519482D01*
X180088072Y-124395000D01*
X180085000Y-124380750D01*
X179926250Y-124222000D01*
X178602000Y-124222000D01*
X178602000Y-124242000D01*
X178348000Y-124242000D01*
X178348000Y-124222000D01*
X177023750Y-124222000D01*
X176865000Y-124380750D01*
X176861928Y-124395000D01*
X176874188Y-124519482D01*
X176900130Y-124605000D01*
X176756570Y-124605000D01*
X175946570Y-123795000D01*
X176861928Y-123795000D01*
X176865000Y-123809250D01*
X177023750Y-123968000D01*
X178348000Y-123968000D01*
X178348000Y-123318750D01*
X178602000Y-123318750D01*
X178602000Y-123968000D01*
X179926250Y-123968000D01*
X180085000Y-123809250D01*
X180088072Y-123795000D01*
X180075812Y-123670518D01*
X180039502Y-123550820D01*
X179980537Y-123440506D01*
X179901185Y-123343815D01*
X179804494Y-123264463D01*
X179694180Y-123205498D01*
X179574482Y-123169188D01*
X179450000Y-123156928D01*
X178760750Y-123160000D01*
X178602000Y-123318750D01*
X178348000Y-123318750D01*
X178189250Y-123160000D01*
X177500000Y-123156928D01*
X177375518Y-123169188D01*
X177255820Y-123205498D01*
X177145506Y-123264463D01*
X177048815Y-123343815D01*
X176969463Y-123440506D01*
X176910498Y-123550820D01*
X176874188Y-123670518D01*
X176861928Y-123795000D01*
X175946570Y-123795000D01*
X172140572Y-119989003D01*
X172116769Y-119959999D01*
X172001044Y-119865026D01*
X171869015Y-119794454D01*
X171725754Y-119750997D01*
X171614101Y-119740000D01*
X171614090Y-119740000D01*
X171576768Y-119736324D01*
X171539446Y-119740000D01*
X165453389Y-119740000D01*
X165500685Y-119701185D01*
X165580037Y-119604494D01*
X165639002Y-119494180D01*
X165675312Y-119374482D01*
X165687572Y-119250000D01*
X165687572Y-118750000D01*
X165675312Y-118625518D01*
X165639002Y-118505820D01*
X165597000Y-118427241D01*
X165597000Y-88849325D01*
X165600676Y-88812000D01*
X165597000Y-88774675D01*
X165597000Y-88774667D01*
X165586003Y-88663014D01*
X165542546Y-88519753D01*
X165471974Y-88387724D01*
X165377001Y-88271999D01*
X165348003Y-88248201D01*
X145238072Y-68138271D01*
X145238072Y-67549999D01*
X145221008Y-67376745D01*
X145170472Y-67210149D01*
X145088405Y-67056613D01*
X144977962Y-66922038D01*
X144843387Y-66811595D01*
X144689851Y-66729528D01*
X144523255Y-66678992D01*
X144350001Y-66661928D01*
X143699999Y-66661928D01*
X143526745Y-66678992D01*
X143360149Y-66729528D01*
X143206613Y-66811595D01*
X143072038Y-66922038D01*
X143066658Y-66928594D01*
X143001185Y-66848815D01*
X142904494Y-66769463D01*
X142794180Y-66710498D01*
X142674482Y-66674188D01*
X142550000Y-66661928D01*
X142260750Y-66665000D01*
X142102000Y-66823750D01*
X142102000Y-67873000D01*
X142122000Y-67873000D01*
X142122000Y-68127000D01*
X142102000Y-68127000D01*
X142102000Y-69176250D01*
X142260750Y-69335000D01*
X142550000Y-69338072D01*
X142674482Y-69325812D01*
X142794180Y-69289502D01*
X142904494Y-69230537D01*
X143001185Y-69151185D01*
X143066658Y-69071406D01*
X143072038Y-69077962D01*
X143206613Y-69188405D01*
X143360149Y-69270472D01*
X143526745Y-69321008D01*
X143699999Y-69338072D01*
X144288271Y-69338072D01*
X164077001Y-89126803D01*
X164077001Y-91002199D01*
X149563804Y-76489003D01*
X149540001Y-76459999D01*
X149424276Y-76365026D01*
X149292247Y-76294454D01*
X149148986Y-76250997D01*
X149037333Y-76240000D01*
X149037322Y-76240000D01*
X149000000Y-76236324D01*
X148962678Y-76240000D01*
X145154527Y-76240000D01*
X145145472Y-76210149D01*
X145063405Y-76056613D01*
X144952962Y-75922038D01*
X144818387Y-75811595D01*
X144664851Y-75729528D01*
X144498255Y-75678992D01*
X144325001Y-75661928D01*
X143674999Y-75661928D01*
X143501745Y-75678992D01*
X143335149Y-75729528D01*
X143181613Y-75811595D01*
X143047038Y-75922038D01*
X143041658Y-75928594D01*
X142976185Y-75848815D01*
X142879494Y-75769463D01*
X142769180Y-75710498D01*
X142649482Y-75674188D01*
X142525000Y-75661928D01*
X142235750Y-75665000D01*
X142077000Y-75823750D01*
X142077000Y-76873000D01*
X142097000Y-76873000D01*
X142097000Y-77127000D01*
X142077000Y-77127000D01*
X142077000Y-78176250D01*
X142235750Y-78335000D01*
X142525000Y-78338072D01*
X142649482Y-78325812D01*
X142769180Y-78289502D01*
X142879494Y-78230537D01*
X142976185Y-78151185D01*
X143041658Y-78071406D01*
X143047038Y-78077962D01*
X143181613Y-78188405D01*
X143335149Y-78270472D01*
X143501745Y-78321008D01*
X143674999Y-78338072D01*
X144325001Y-78338072D01*
X144498255Y-78321008D01*
X144664851Y-78270472D01*
X144818387Y-78188405D01*
X144952962Y-78077962D01*
X145063405Y-77943387D01*
X145145472Y-77789851D01*
X145154527Y-77760000D01*
X148685199Y-77760000D01*
X163490001Y-92564803D01*
X163490001Y-93415199D01*
X154563804Y-84489003D01*
X154540001Y-84459999D01*
X154424276Y-84365026D01*
X154292247Y-84294454D01*
X154148986Y-84250997D01*
X154037333Y-84240000D01*
X154037322Y-84240000D01*
X154000000Y-84236324D01*
X153962678Y-84240000D01*
X151179527Y-84240000D01*
X151170472Y-84210149D01*
X151088405Y-84056613D01*
X150977962Y-83922038D01*
X150843387Y-83811595D01*
X150689851Y-83729528D01*
X150523255Y-83678992D01*
X150350001Y-83661928D01*
X149699999Y-83661928D01*
X149526745Y-83678992D01*
X149360149Y-83729528D01*
X149206613Y-83811595D01*
X149072038Y-83922038D01*
X149066658Y-83928594D01*
X149001185Y-83848815D01*
X148904494Y-83769463D01*
X148794180Y-83710498D01*
X148674482Y-83674188D01*
X148550000Y-83661928D01*
X148260750Y-83665000D01*
X148102000Y-83823750D01*
X148102000Y-84873000D01*
X148122000Y-84873000D01*
X148122000Y-85127000D01*
X148102000Y-85127000D01*
X148102000Y-86176250D01*
X148260750Y-86335000D01*
X148550000Y-86338072D01*
X148674482Y-86325812D01*
X148794180Y-86289502D01*
X148904494Y-86230537D01*
X149001185Y-86151185D01*
X149066658Y-86071406D01*
X149072038Y-86077962D01*
X149206613Y-86188405D01*
X149360149Y-86270472D01*
X149526745Y-86321008D01*
X149699999Y-86338072D01*
X150350001Y-86338072D01*
X150523255Y-86321008D01*
X150689851Y-86270472D01*
X150843387Y-86188405D01*
X150977962Y-86077962D01*
X151088405Y-85943387D01*
X151170472Y-85789851D01*
X151179527Y-85760000D01*
X153685199Y-85760000D01*
X162990001Y-95064803D01*
X162990001Y-96915198D01*
X154563804Y-88489003D01*
X154540001Y-88459999D01*
X154424276Y-88365026D01*
X154292247Y-88294454D01*
X154148986Y-88250997D01*
X154037333Y-88240000D01*
X154037322Y-88240000D01*
X154000000Y-88236324D01*
X153962678Y-88240000D01*
X142339802Y-88240000D01*
X139799802Y-85700000D01*
X146761928Y-85700000D01*
X146774188Y-85824482D01*
X146810498Y-85944180D01*
X146869463Y-86054494D01*
X146948815Y-86151185D01*
X147045506Y-86230537D01*
X147155820Y-86289502D01*
X147275518Y-86325812D01*
X147400000Y-86338072D01*
X147689250Y-86335000D01*
X147848000Y-86176250D01*
X147848000Y-85127000D01*
X146923750Y-85127000D01*
X146765000Y-85285750D01*
X146761928Y-85700000D01*
X139799802Y-85700000D01*
X139238072Y-85138271D01*
X139238072Y-84549999D01*
X139221008Y-84376745D01*
X139197728Y-84300000D01*
X146761928Y-84300000D01*
X146765000Y-84714250D01*
X146923750Y-84873000D01*
X147848000Y-84873000D01*
X147848000Y-83823750D01*
X147689250Y-83665000D01*
X147400000Y-83661928D01*
X147275518Y-83674188D01*
X147155820Y-83710498D01*
X147045506Y-83769463D01*
X146948815Y-83848815D01*
X146869463Y-83945506D01*
X146810498Y-84055820D01*
X146774188Y-84175518D01*
X146761928Y-84300000D01*
X139197728Y-84300000D01*
X139170472Y-84210149D01*
X139088405Y-84056613D01*
X138977962Y-83922038D01*
X138843387Y-83811595D01*
X138689851Y-83729528D01*
X138523255Y-83678992D01*
X138350001Y-83661928D01*
X137699999Y-83661928D01*
X137526745Y-83678992D01*
X137360149Y-83729528D01*
X137206613Y-83811595D01*
X137072038Y-83922038D01*
X137066658Y-83928594D01*
X137001185Y-83848815D01*
X136904494Y-83769463D01*
X136794180Y-83710498D01*
X136674482Y-83674188D01*
X136550000Y-83661928D01*
X136260750Y-83665000D01*
X136102000Y-83823750D01*
X136102000Y-84873000D01*
X136122000Y-84873000D01*
X136122000Y-85127000D01*
X136102000Y-85127000D01*
X136102000Y-86176250D01*
X136260750Y-86335000D01*
X136550000Y-86338072D01*
X136674482Y-86325812D01*
X136794180Y-86289502D01*
X136904494Y-86230537D01*
X137001185Y-86151185D01*
X137066658Y-86071406D01*
X137072038Y-86077962D01*
X137206613Y-86188405D01*
X137360149Y-86270472D01*
X137526745Y-86321008D01*
X137699999Y-86338072D01*
X138288271Y-86338072D01*
X141461200Y-89511002D01*
X141484999Y-89540001D01*
X141600724Y-89634974D01*
X141732753Y-89705546D01*
X141876014Y-89749003D01*
X141987667Y-89760000D01*
X141987676Y-89760000D01*
X142024999Y-89763676D01*
X142062322Y-89760000D01*
X153685199Y-89760000D01*
X157188043Y-93262845D01*
X157148986Y-93250997D01*
X157037333Y-93240000D01*
X157037322Y-93240000D01*
X157000000Y-93236324D01*
X156962678Y-93240000D01*
X153154527Y-93240000D01*
X153145472Y-93210149D01*
X153063405Y-93056613D01*
X152952962Y-92922038D01*
X152818387Y-92811595D01*
X152664851Y-92729528D01*
X152498255Y-92678992D01*
X152325001Y-92661928D01*
X151674999Y-92661928D01*
X151501745Y-92678992D01*
X151335149Y-92729528D01*
X151181613Y-92811595D01*
X151047038Y-92922038D01*
X151041658Y-92928594D01*
X150976185Y-92848815D01*
X150879494Y-92769463D01*
X150769180Y-92710498D01*
X150649482Y-92674188D01*
X150525000Y-92661928D01*
X150235750Y-92665000D01*
X150077000Y-92823750D01*
X150077000Y-93873000D01*
X150097000Y-93873000D01*
X150097000Y-94127000D01*
X150077000Y-94127000D01*
X150077000Y-95176250D01*
X150235750Y-95335000D01*
X150525000Y-95338072D01*
X150649482Y-95325812D01*
X150769180Y-95289502D01*
X150879494Y-95230537D01*
X150976185Y-95151185D01*
X151041658Y-95071406D01*
X151047038Y-95077962D01*
X151181613Y-95188405D01*
X151335149Y-95270472D01*
X151501745Y-95321008D01*
X151674999Y-95338072D01*
X152325001Y-95338072D01*
X152498255Y-95321008D01*
X152664851Y-95270472D01*
X152818387Y-95188405D01*
X152952962Y-95077962D01*
X153063405Y-94943387D01*
X153145472Y-94789851D01*
X153154527Y-94760000D01*
X156685199Y-94760000D01*
X161990001Y-100064803D01*
X161990001Y-102915199D01*
X158563804Y-99489003D01*
X158540001Y-99459999D01*
X158424276Y-99365026D01*
X158292247Y-99294454D01*
X158148986Y-99250997D01*
X158037333Y-99240000D01*
X158037322Y-99240000D01*
X158000000Y-99236324D01*
X157962678Y-99240000D01*
X142339803Y-99240000D01*
X137799802Y-94700000D01*
X148736928Y-94700000D01*
X148749188Y-94824482D01*
X148785498Y-94944180D01*
X148844463Y-95054494D01*
X148923815Y-95151185D01*
X149020506Y-95230537D01*
X149130820Y-95289502D01*
X149250518Y-95325812D01*
X149375000Y-95338072D01*
X149664250Y-95335000D01*
X149823000Y-95176250D01*
X149823000Y-94127000D01*
X148898750Y-94127000D01*
X148740000Y-94285750D01*
X148736928Y-94700000D01*
X137799802Y-94700000D01*
X137238072Y-94138271D01*
X137238072Y-93549999D01*
X137221008Y-93376745D01*
X137197728Y-93300000D01*
X148736928Y-93300000D01*
X148740000Y-93714250D01*
X148898750Y-93873000D01*
X149823000Y-93873000D01*
X149823000Y-92823750D01*
X149664250Y-92665000D01*
X149375000Y-92661928D01*
X149250518Y-92674188D01*
X149130820Y-92710498D01*
X149020506Y-92769463D01*
X148923815Y-92848815D01*
X148844463Y-92945506D01*
X148785498Y-93055820D01*
X148749188Y-93175518D01*
X148736928Y-93300000D01*
X137197728Y-93300000D01*
X137170472Y-93210149D01*
X137088405Y-93056613D01*
X136977962Y-92922038D01*
X136843387Y-92811595D01*
X136689851Y-92729528D01*
X136523255Y-92678992D01*
X136350001Y-92661928D01*
X135699999Y-92661928D01*
X135526745Y-92678992D01*
X135360149Y-92729528D01*
X135206613Y-92811595D01*
X135072038Y-92922038D01*
X135066658Y-92928594D01*
X135001185Y-92848815D01*
X134904494Y-92769463D01*
X134794180Y-92710498D01*
X134674482Y-92674188D01*
X134550000Y-92661928D01*
X134260750Y-92665000D01*
X134102000Y-92823750D01*
X134102000Y-93873000D01*
X134122000Y-93873000D01*
X134122000Y-94127000D01*
X134102000Y-94127000D01*
X134102000Y-95176250D01*
X134260750Y-95335000D01*
X134550000Y-95338072D01*
X134674482Y-95325812D01*
X134794180Y-95289502D01*
X134904494Y-95230537D01*
X135001185Y-95151185D01*
X135066658Y-95071406D01*
X135072038Y-95077962D01*
X135206613Y-95188405D01*
X135360149Y-95270472D01*
X135526745Y-95321008D01*
X135699999Y-95338072D01*
X136288271Y-95338072D01*
X141461205Y-100511008D01*
X141484999Y-100540001D01*
X141513992Y-100563795D01*
X141513996Y-100563799D01*
X141584685Y-100621811D01*
X141600724Y-100634974D01*
X141732753Y-100705546D01*
X141876014Y-100749003D01*
X141987667Y-100760000D01*
X141987676Y-100760000D01*
X142024999Y-100763676D01*
X142062322Y-100760000D01*
X157685199Y-100760000D01*
X161490001Y-104564803D01*
X161490001Y-107365199D01*
X159263072Y-105138271D01*
X159263072Y-104549999D01*
X159246008Y-104376745D01*
X159195472Y-104210149D01*
X159113405Y-104056613D01*
X159002962Y-103922038D01*
X158868387Y-103811595D01*
X158714851Y-103729528D01*
X158548255Y-103678992D01*
X158375001Y-103661928D01*
X157724999Y-103661928D01*
X157551745Y-103678992D01*
X157385149Y-103729528D01*
X157231613Y-103811595D01*
X157097038Y-103922038D01*
X157091658Y-103928594D01*
X157026185Y-103848815D01*
X156929494Y-103769463D01*
X156819180Y-103710498D01*
X156699482Y-103674188D01*
X156575000Y-103661928D01*
X156285750Y-103665000D01*
X156127000Y-103823750D01*
X156127000Y-104873000D01*
X156147000Y-104873000D01*
X156147000Y-105127000D01*
X156127000Y-105127000D01*
X156127000Y-106176250D01*
X156285750Y-106335000D01*
X156575000Y-106338072D01*
X156699482Y-106325812D01*
X156819180Y-106289502D01*
X156929494Y-106230537D01*
X157026185Y-106151185D01*
X157091658Y-106071406D01*
X157097038Y-106077962D01*
X157231613Y-106188405D01*
X157385149Y-106270472D01*
X157551745Y-106321008D01*
X157724999Y-106338072D01*
X158313271Y-106338072D01*
X160990001Y-109014803D01*
X160990001Y-111915199D01*
X157563804Y-108489003D01*
X157540001Y-108459999D01*
X157424276Y-108365026D01*
X157292247Y-108294454D01*
X157148986Y-108250997D01*
X157037333Y-108240000D01*
X157037322Y-108240000D01*
X157000000Y-108236324D01*
X156962678Y-108240000D01*
X134339802Y-108240000D01*
X131799802Y-105700000D01*
X154786928Y-105700000D01*
X154799188Y-105824482D01*
X154835498Y-105944180D01*
X154894463Y-106054494D01*
X154973815Y-106151185D01*
X155070506Y-106230537D01*
X155180820Y-106289502D01*
X155300518Y-106325812D01*
X155425000Y-106338072D01*
X155714250Y-106335000D01*
X155873000Y-106176250D01*
X155873000Y-105127000D01*
X154948750Y-105127000D01*
X154790000Y-105285750D01*
X154786928Y-105700000D01*
X131799802Y-105700000D01*
X131238072Y-105138271D01*
X131238072Y-104549999D01*
X131221008Y-104376745D01*
X131197728Y-104300000D01*
X154786928Y-104300000D01*
X154790000Y-104714250D01*
X154948750Y-104873000D01*
X155873000Y-104873000D01*
X155873000Y-103823750D01*
X155714250Y-103665000D01*
X155425000Y-103661928D01*
X155300518Y-103674188D01*
X155180820Y-103710498D01*
X155070506Y-103769463D01*
X154973815Y-103848815D01*
X154894463Y-103945506D01*
X154835498Y-104055820D01*
X154799188Y-104175518D01*
X154786928Y-104300000D01*
X131197728Y-104300000D01*
X131170472Y-104210149D01*
X131088405Y-104056613D01*
X130977962Y-103922038D01*
X130843387Y-103811595D01*
X130689851Y-103729528D01*
X130523255Y-103678992D01*
X130350001Y-103661928D01*
X129699999Y-103661928D01*
X129526745Y-103678992D01*
X129360149Y-103729528D01*
X129206613Y-103811595D01*
X129072038Y-103922038D01*
X129066658Y-103928594D01*
X129001185Y-103848815D01*
X128904494Y-103769463D01*
X128794180Y-103710498D01*
X128674482Y-103674188D01*
X128550000Y-103661928D01*
X128260750Y-103665000D01*
X128102000Y-103823750D01*
X128102000Y-104873000D01*
X128122000Y-104873000D01*
X128122000Y-105127000D01*
X128102000Y-105127000D01*
X128102000Y-106176250D01*
X128260750Y-106335000D01*
X128550000Y-106338072D01*
X128674482Y-106325812D01*
X128794180Y-106289502D01*
X128904494Y-106230537D01*
X129001185Y-106151185D01*
X129066658Y-106071406D01*
X129072038Y-106077962D01*
X129206613Y-106188405D01*
X129360149Y-106270472D01*
X129526745Y-106321008D01*
X129699999Y-106338072D01*
X130288271Y-106338072D01*
X133461200Y-109511002D01*
X133484999Y-109540001D01*
X133600724Y-109634974D01*
X133732753Y-109705546D01*
X133876014Y-109749003D01*
X133987667Y-109760000D01*
X133987676Y-109760000D01*
X134024999Y-109763676D01*
X134062322Y-109760000D01*
X156685199Y-109760000D01*
X160403001Y-113477803D01*
X160403000Y-118427241D01*
X160360998Y-118505820D01*
X160324688Y-118625518D01*
X160312428Y-118750000D01*
X160312428Y-119250000D01*
X160324688Y-119374482D01*
X160360998Y-119494180D01*
X160419963Y-119604494D01*
X160499315Y-119701185D01*
X160546611Y-119740000D01*
X150157325Y-119740000D01*
X150120000Y-119736324D01*
X150082675Y-119740000D01*
X150082667Y-119740000D01*
X149971014Y-119750997D01*
X149827753Y-119794454D01*
X149695724Y-119865026D01*
X149579999Y-119959999D01*
X149556201Y-119988997D01*
X146388271Y-123156928D01*
X145700000Y-123156928D01*
X145546255Y-123172071D01*
X145398418Y-123216916D01*
X145262171Y-123289742D01*
X145142749Y-123387749D01*
X145044742Y-123507171D01*
X144971916Y-123643418D01*
X144927071Y-123791255D01*
X144911928Y-123945000D01*
X144911928Y-124245000D01*
X144927071Y-124398745D01*
X144971916Y-124546582D01*
X145003141Y-124605000D01*
X141329802Y-124605000D01*
X140738072Y-124013271D01*
X140738072Y-123400000D01*
X140725812Y-123275518D01*
X140689502Y-123155820D01*
X140630537Y-123045506D01*
X140551185Y-122948815D01*
X140454494Y-122869463D01*
X140344180Y-122810498D01*
X140224482Y-122774188D01*
X140100000Y-122761928D01*
X139486730Y-122761928D01*
X135213804Y-118489003D01*
X135190001Y-118459999D01*
X135074276Y-118365026D01*
X134942247Y-118294454D01*
X134798986Y-118250997D01*
X134687333Y-118240000D01*
X134687322Y-118240000D01*
X134650000Y-118236324D01*
X134612678Y-118240000D01*
X122488072Y-118240000D01*
X122488072Y-118150000D01*
X122475812Y-118025518D01*
X122439502Y-117905820D01*
X122380537Y-117795506D01*
X122301185Y-117698815D01*
X122204494Y-117619463D01*
X122094180Y-117560498D01*
X121974482Y-117524188D01*
X121850000Y-117511928D01*
X121128940Y-117511928D01*
X121277796Y-117363072D01*
X121375000Y-117363072D01*
X121548254Y-117346008D01*
X121714850Y-117295472D01*
X121868386Y-117213405D01*
X122002962Y-117102962D01*
X122113405Y-116968386D01*
X122195472Y-116814850D01*
X122246008Y-116648254D01*
X122263072Y-116475000D01*
X122263072Y-115525000D01*
X122246008Y-115351746D01*
X122195472Y-115185150D01*
X122113405Y-115031614D01*
X122002962Y-114897038D01*
X121868386Y-114786595D01*
X121714850Y-114704528D01*
X121548254Y-114653992D01*
X121375000Y-114636928D01*
X120700000Y-114636928D01*
X120526746Y-114653992D01*
X120360150Y-114704528D01*
X120206614Y-114786595D01*
X120072038Y-114897038D01*
X120066658Y-114903594D01*
X120001185Y-114823815D01*
X119904494Y-114744463D01*
X119794180Y-114685498D01*
X119674482Y-114649188D01*
X119550000Y-114636928D01*
X119248250Y-114640000D01*
X119089500Y-114798750D01*
X119089500Y-115873000D01*
X119109500Y-115873000D01*
X119109500Y-116127000D01*
X119089500Y-116127000D01*
X119089500Y-116147000D01*
X118835500Y-116147000D01*
X118835500Y-116127000D01*
X117898750Y-116127000D01*
X117740000Y-116285750D01*
X117736928Y-116725000D01*
X117749188Y-116849482D01*
X117785498Y-116969180D01*
X117844463Y-117079494D01*
X117923815Y-117176185D01*
X118020506Y-117255537D01*
X118130820Y-117314502D01*
X118250518Y-117350812D01*
X118375000Y-117363072D01*
X118676750Y-117360000D01*
X118835498Y-117201252D01*
X118835498Y-117360000D01*
X118919133Y-117360000D01*
X118737940Y-117541193D01*
X118606260Y-117515000D01*
X118313740Y-117515000D01*
X118026842Y-117572068D01*
X117756589Y-117684010D01*
X117513368Y-117846525D01*
X117306525Y-118053368D01*
X117144010Y-118296589D01*
X117032068Y-118566842D01*
X116975000Y-118853740D01*
X116975000Y-119146260D01*
X117032068Y-119433158D01*
X117144010Y-119703411D01*
X117306525Y-119946632D01*
X117513368Y-120153475D01*
X117625000Y-120228065D01*
X117625001Y-121194131D01*
X116157205Y-122661928D01*
X115842795Y-122661928D01*
X115699446Y-122518579D01*
X115673291Y-122486709D01*
X115546146Y-122382364D01*
X115401087Y-122304828D01*
X115243689Y-122257082D01*
X115121019Y-122245000D01*
X115121018Y-122245000D01*
X115080000Y-122240960D01*
X115038982Y-122245000D01*
X110748561Y-122245000D01*
X110714775Y-122163434D01*
X110503013Y-121846509D01*
X110233491Y-121576987D01*
X109916566Y-121365225D01*
X109564419Y-121219361D01*
X109190581Y-121145000D01*
X108809419Y-121145000D01*
X108435581Y-121219361D01*
X108083434Y-121365225D01*
X107766509Y-121576987D01*
X107496987Y-121846509D01*
X107285225Y-122163434D01*
X107139361Y-122515581D01*
X107065000Y-122889419D01*
X107065000Y-123270581D01*
X107139361Y-123644419D01*
X107285225Y-123996566D01*
X107496987Y-124313491D01*
X107766509Y-124583013D01*
X108083434Y-124794775D01*
X108435581Y-124940639D01*
X108809419Y-125015000D01*
X109190581Y-125015000D01*
X109564419Y-124940639D01*
X109916566Y-124794775D01*
X110233491Y-124583013D01*
X110503013Y-124313491D01*
X110714775Y-123996566D01*
X110748561Y-123915000D01*
X114734133Y-123915000D01*
X114761928Y-123942795D01*
X114761928Y-124450001D01*
X114778992Y-124623255D01*
X114829528Y-124789851D01*
X114911595Y-124943387D01*
X115022038Y-125077962D01*
X115156613Y-125188405D01*
X115310149Y-125270472D01*
X115476745Y-125321008D01*
X115649999Y-125338072D01*
X116350001Y-125338072D01*
X116523255Y-125321008D01*
X116689851Y-125270472D01*
X116843387Y-125188405D01*
X116977962Y-125077962D01*
X117000000Y-125051109D01*
X117022038Y-125077962D01*
X117156613Y-125188405D01*
X117310149Y-125270472D01*
X117476745Y-125321008D01*
X117649999Y-125338072D01*
X118350001Y-125338072D01*
X118523255Y-125321008D01*
X118689851Y-125270472D01*
X118843387Y-125188405D01*
X118977962Y-125077962D01*
X119088405Y-124943387D01*
X119170472Y-124789851D01*
X119221008Y-124623255D01*
X119238072Y-124450001D01*
X119238072Y-123836729D01*
X119715775Y-123359027D01*
X119699428Y-123525000D01*
X119699428Y-124475000D01*
X119716492Y-124648254D01*
X119767028Y-124814850D01*
X119849095Y-124968386D01*
X119959538Y-125102962D01*
X120094114Y-125213405D01*
X120165001Y-125251295D01*
X120165001Y-125887668D01*
X120161324Y-125925000D01*
X120165001Y-125962333D01*
X120175998Y-126073986D01*
X120188038Y-126113676D01*
X120219454Y-126217246D01*
X120290026Y-126349276D01*
X120349154Y-126421323D01*
X120385000Y-126465001D01*
X120413998Y-126488799D01*
X120592764Y-126667565D01*
X120476745Y-126678992D01*
X120310149Y-126729528D01*
X120156613Y-126811595D01*
X120022038Y-126922038D01*
X119911595Y-127056613D01*
X119829528Y-127210149D01*
X119778992Y-127376745D01*
X119761928Y-127549999D01*
X119761928Y-128450001D01*
X119778992Y-128623255D01*
X119829528Y-128789851D01*
X119911595Y-128943387D01*
X120022038Y-129077962D01*
X120156613Y-129188405D01*
X120240001Y-129232977D01*
X120240000Y-130767023D01*
X120156613Y-130811595D01*
X120022038Y-130922038D01*
X119911595Y-131056613D01*
X119829528Y-131210149D01*
X119778992Y-131376745D01*
X119761928Y-131549999D01*
X119761928Y-132450001D01*
X119778992Y-132623255D01*
X119829528Y-132789851D01*
X119911595Y-132943387D01*
X120022038Y-133077962D01*
X120156613Y-133188405D01*
X120310149Y-133270472D01*
X120476745Y-133321008D01*
X120649999Y-133338072D01*
X121350001Y-133338072D01*
X121523255Y-133321008D01*
X121689851Y-133270472D01*
X121843387Y-133188405D01*
X121977962Y-133077962D01*
X122000000Y-133051109D01*
X122022038Y-133077962D01*
X122156613Y-133188405D01*
X122240001Y-133232977D01*
X122240001Y-133647697D01*
X122150770Y-133736928D01*
X121525000Y-133736928D01*
X121351746Y-133753992D01*
X121185150Y-133804528D01*
X121031614Y-133886595D01*
X120897038Y-133997038D01*
X120786595Y-134131614D01*
X120704528Y-134285150D01*
X120653992Y-134451746D01*
X120636928Y-134625000D01*
X120636928Y-135165000D01*
X119314802Y-135165000D01*
X118797500Y-134647699D01*
X118797500Y-133251294D01*
X118868386Y-133213405D01*
X119002962Y-133102962D01*
X119113405Y-132968386D01*
X119195472Y-132814850D01*
X119246008Y-132648254D01*
X119263072Y-132475000D01*
X119263072Y-131525000D01*
X119246008Y-131351746D01*
X119195472Y-131185150D01*
X119113405Y-131031614D01*
X119002962Y-130897038D01*
X118868386Y-130786595D01*
X118714850Y-130704528D01*
X118548254Y-130653992D01*
X118398099Y-130639203D01*
X118511003Y-130526299D01*
X118540001Y-130502501D01*
X118566488Y-130470226D01*
X118634974Y-130386777D01*
X118705546Y-130254747D01*
X118712745Y-130231014D01*
X118749003Y-130111486D01*
X118760000Y-129999833D01*
X118760000Y-129999824D01*
X118763676Y-129962501D01*
X118760000Y-129925178D01*
X118760000Y-129232976D01*
X118843387Y-129188405D01*
X118977962Y-129077962D01*
X119088405Y-128943387D01*
X119170472Y-128789851D01*
X119221008Y-128623255D01*
X119238072Y-128450001D01*
X119238072Y-127549999D01*
X119221008Y-127376745D01*
X119170472Y-127210149D01*
X119088405Y-127056613D01*
X118977962Y-126922038D01*
X118843387Y-126811595D01*
X118689851Y-126729528D01*
X118523255Y-126678992D01*
X118350001Y-126661928D01*
X117649999Y-126661928D01*
X117476745Y-126678992D01*
X117310149Y-126729528D01*
X117156613Y-126811595D01*
X117075363Y-126878276D01*
X117051185Y-126848815D01*
X116954494Y-126769463D01*
X116844180Y-126710498D01*
X116724482Y-126674188D01*
X116600000Y-126661928D01*
X116285750Y-126665000D01*
X116127000Y-126823750D01*
X116127000Y-127873000D01*
X116147000Y-127873000D01*
X116147000Y-128127000D01*
X116127000Y-128127000D01*
X116127000Y-129176250D01*
X116285750Y-129335000D01*
X116600000Y-129338072D01*
X116724482Y-129325812D01*
X116844180Y-129289502D01*
X116954494Y-129230537D01*
X117051185Y-129151185D01*
X117075363Y-129121724D01*
X117156613Y-129188405D01*
X117240001Y-129232977D01*
X117240001Y-129647697D01*
X116250771Y-130636928D01*
X115625000Y-130636928D01*
X115451746Y-130653992D01*
X115285150Y-130704528D01*
X115131614Y-130786595D01*
X114997038Y-130897038D01*
X114886595Y-131031614D01*
X114804528Y-131185150D01*
X114753992Y-131351746D01*
X114736928Y-131525000D01*
X114736928Y-132150770D01*
X113107699Y-133780000D01*
X112057485Y-133780000D01*
X112010941Y-133710342D01*
X111829658Y-133529059D01*
X111616491Y-133386626D01*
X111379633Y-133288516D01*
X111286547Y-133270000D01*
X111379633Y-133251484D01*
X111616491Y-133153374D01*
X111829658Y-133010941D01*
X112010941Y-132829658D01*
X112153374Y-132616491D01*
X112251484Y-132379633D01*
X112301500Y-132128187D01*
X112301500Y-131871813D01*
X112251484Y-131620367D01*
X112153374Y-131383509D01*
X112010941Y-131170342D01*
X111829658Y-130989059D01*
X111616491Y-130846626D01*
X111379633Y-130748516D01*
X111128187Y-130698500D01*
X110871813Y-130698500D01*
X110620367Y-130748516D01*
X110383509Y-130846626D01*
X110170342Y-130989059D01*
X109989059Y-131170342D01*
X109846626Y-131383509D01*
X109748516Y-131620367D01*
X109698500Y-131871813D01*
X109698500Y-132128187D01*
X109748516Y-132379633D01*
X109846626Y-132616491D01*
X109989059Y-132829658D01*
X110170342Y-133010941D01*
X110383509Y-133153374D01*
X110620367Y-133251484D01*
X110713453Y-133270000D01*
X110620367Y-133288516D01*
X110383509Y-133386626D01*
X110170342Y-133529059D01*
X109989059Y-133710342D01*
X109846626Y-133923509D01*
X109748516Y-134160367D01*
X109698500Y-134411813D01*
X109698500Y-134668187D01*
X109748516Y-134919633D01*
X109846626Y-135156491D01*
X109989059Y-135369658D01*
X110170342Y-135550941D01*
X110383509Y-135693374D01*
X110620367Y-135791484D01*
X110871813Y-135841500D01*
X111128187Y-135841500D01*
X111379633Y-135791484D01*
X111616491Y-135693374D01*
X111829658Y-135550941D01*
X112010941Y-135369658D01*
X112057485Y-135300000D01*
X113385178Y-135300000D01*
X113422500Y-135303676D01*
X113459822Y-135300000D01*
X113459833Y-135300000D01*
X113571486Y-135289003D01*
X113714747Y-135245546D01*
X113846776Y-135174974D01*
X113962501Y-135080001D01*
X113986304Y-135050997D01*
X115674230Y-133363072D01*
X116300000Y-133363072D01*
X116473254Y-133346008D01*
X116639850Y-133295472D01*
X116793386Y-133213405D01*
X116927962Y-133102962D01*
X117000000Y-133015183D01*
X117072038Y-133102962D01*
X117206614Y-133213405D01*
X117277500Y-133251295D01*
X117277501Y-134925168D01*
X117273824Y-134962500D01*
X117277501Y-134999833D01*
X117281195Y-135037333D01*
X117288498Y-135111485D01*
X117331954Y-135254746D01*
X117402526Y-135386776D01*
X117473701Y-135473502D01*
X117497500Y-135502501D01*
X117526498Y-135526299D01*
X118436200Y-136436002D01*
X118459999Y-136465001D01*
X118575724Y-136559974D01*
X118707753Y-136630546D01*
X118851014Y-136674003D01*
X118900866Y-136678913D01*
X119000000Y-136688677D01*
X119009047Y-136687786D01*
X119004774Y-136698102D01*
X118965000Y-136898061D01*
X118965000Y-137101939D01*
X119004774Y-137301898D01*
X119082795Y-137490256D01*
X119196063Y-137659774D01*
X119340226Y-137803937D01*
X119509744Y-137917205D01*
X119698102Y-137995226D01*
X119898061Y-138035000D01*
X120101939Y-138035000D01*
X120301898Y-137995226D01*
X120490256Y-137917205D01*
X120557162Y-137872500D01*
X120789971Y-137872500D01*
X120897038Y-138002962D01*
X121031614Y-138113405D01*
X121185150Y-138195472D01*
X121351746Y-138246008D01*
X121525000Y-138263072D01*
X122475000Y-138263072D01*
X122648254Y-138246008D01*
X122814850Y-138195472D01*
X122968386Y-138113405D01*
X123102962Y-138002962D01*
X123213405Y-137868386D01*
X123295472Y-137714850D01*
X123346008Y-137548254D01*
X123363072Y-137375000D01*
X123363072Y-136700000D01*
X123361595Y-136685000D01*
X124797722Y-136685000D01*
X124829528Y-136789851D01*
X124911595Y-136943387D01*
X125022038Y-137077962D01*
X125156613Y-137188405D01*
X125310149Y-137270472D01*
X125476745Y-137321008D01*
X125649999Y-137338072D01*
X126350001Y-137338072D01*
X126523255Y-137321008D01*
X126689851Y-137270472D01*
X126843387Y-137188405D01*
X126924637Y-137121724D01*
X126948815Y-137151185D01*
X127045506Y-137230537D01*
X127155820Y-137289502D01*
X127275518Y-137325812D01*
X127400000Y-137338072D01*
X127714250Y-137335000D01*
X127873000Y-137176250D01*
X127873000Y-136127000D01*
X128127000Y-136127000D01*
X128127000Y-137176250D01*
X128285750Y-137335000D01*
X128600000Y-137338072D01*
X128724482Y-137325812D01*
X128844180Y-137289502D01*
X128954494Y-137230537D01*
X129051185Y-137151185D01*
X129130537Y-137054494D01*
X129189502Y-136944180D01*
X129225812Y-136824482D01*
X129238072Y-136700000D01*
X129235000Y-136285750D01*
X129076250Y-136127000D01*
X128127000Y-136127000D01*
X127873000Y-136127000D01*
X127853000Y-136127000D01*
X127853000Y-135873000D01*
X127873000Y-135873000D01*
X127873000Y-135853000D01*
X128127000Y-135853000D01*
X128127000Y-135873000D01*
X129076250Y-135873000D01*
X129235000Y-135714250D01*
X129238072Y-135300000D01*
X129225812Y-135175518D01*
X129189502Y-135055820D01*
X129130537Y-134945506D01*
X129051185Y-134848815D01*
X128954494Y-134769463D01*
X128936790Y-134760000D01*
X130685199Y-134760000D01*
X130943245Y-135018047D01*
X130911595Y-135056613D01*
X130829528Y-135210149D01*
X130778992Y-135376745D01*
X130761928Y-135549999D01*
X130761928Y-136450001D01*
X130778992Y-136623255D01*
X130829528Y-136789851D01*
X130911595Y-136943387D01*
X131022038Y-137077962D01*
X131156613Y-137188405D01*
X131310149Y-137270472D01*
X131476745Y-137321008D01*
X131649999Y-137338072D01*
X132350001Y-137338072D01*
X132523255Y-137321008D01*
X132689851Y-137270472D01*
X132843387Y-137188405D01*
X132977962Y-137077962D01*
X133000000Y-137051109D01*
X133022038Y-137077962D01*
X133156613Y-137188405D01*
X133310149Y-137270472D01*
X133476745Y-137321008D01*
X133649999Y-137338072D01*
X134350001Y-137338072D01*
X134523255Y-137321008D01*
X134689851Y-137270472D01*
X134843387Y-137188405D01*
X134977962Y-137077962D01*
X135088405Y-136943387D01*
X135170472Y-136789851D01*
X135221008Y-136623255D01*
X135238072Y-136450001D01*
X135238072Y-135866544D01*
X139645000Y-135866544D01*
X139645000Y-136133456D01*
X139697072Y-136395239D01*
X139799215Y-136641833D01*
X139947503Y-136863762D01*
X140136238Y-137052497D01*
X140358167Y-137200785D01*
X140604761Y-137302928D01*
X140866544Y-137355000D01*
X141133456Y-137355000D01*
X141395239Y-137302928D01*
X141641833Y-137200785D01*
X141863762Y-137052497D01*
X141980699Y-136935560D01*
X142784045Y-136935560D01*
X142845932Y-137171368D01*
X143087790Y-137284266D01*
X143347027Y-137347811D01*
X143613680Y-137359561D01*
X143877501Y-137319063D01*
X144128353Y-137227875D01*
X144234068Y-137171368D01*
X144295955Y-136935560D01*
X143540000Y-136179605D01*
X142784045Y-136935560D01*
X141980699Y-136935560D01*
X142052497Y-136863762D01*
X142200785Y-136641833D01*
X142270438Y-136473676D01*
X142312125Y-136588353D01*
X142368632Y-136694068D01*
X142604440Y-136755955D01*
X143360395Y-136000000D01*
X142604440Y-135244045D01*
X142368632Y-135305932D01*
X142268236Y-135521007D01*
X142200785Y-135358167D01*
X142052497Y-135136238D01*
X141980699Y-135064440D01*
X142784045Y-135064440D01*
X143540000Y-135820395D01*
X144295955Y-135064440D01*
X144234068Y-134828632D01*
X143992210Y-134715734D01*
X143732973Y-134652189D01*
X143466320Y-134640439D01*
X143202499Y-134680937D01*
X142951647Y-134772125D01*
X142845932Y-134828632D01*
X142784045Y-135064440D01*
X141980699Y-135064440D01*
X141863762Y-134947503D01*
X141641833Y-134799215D01*
X141395239Y-134697072D01*
X141133456Y-134645000D01*
X140866544Y-134645000D01*
X140604761Y-134697072D01*
X140358167Y-134799215D01*
X140136238Y-134947503D01*
X139947503Y-135136238D01*
X139799215Y-135358167D01*
X139697072Y-135604761D01*
X139645000Y-135866544D01*
X135238072Y-135866544D01*
X135238072Y-135549999D01*
X135221008Y-135376745D01*
X135170472Y-135210149D01*
X135088405Y-135056613D01*
X134977962Y-134922038D01*
X134843387Y-134811595D01*
X134689851Y-134729528D01*
X134523255Y-134678992D01*
X134350001Y-134661928D01*
X133842797Y-134661928D01*
X132023939Y-132843072D01*
X133300000Y-132843072D01*
X133453745Y-132827929D01*
X133601582Y-132783084D01*
X133737829Y-132710258D01*
X133857251Y-132612251D01*
X133955258Y-132492829D01*
X134028084Y-132356582D01*
X134072929Y-132208745D01*
X134088072Y-132055000D01*
X134088072Y-131755000D01*
X134072929Y-131601255D01*
X134028084Y-131453418D01*
X133955258Y-131317171D01*
X133916546Y-131270000D01*
X133955258Y-131222829D01*
X134028084Y-131086582D01*
X134072929Y-130938745D01*
X134088072Y-130785000D01*
X134088072Y-130485000D01*
X134072929Y-130331255D01*
X134028084Y-130183418D01*
X133955258Y-130047171D01*
X133916546Y-130000000D01*
X133955258Y-129952829D01*
X134028084Y-129816582D01*
X134072929Y-129668745D01*
X134088072Y-129515000D01*
X134088072Y-129215000D01*
X134072929Y-129061255D01*
X134028084Y-128913418D01*
X133956270Y-128779064D01*
X133980537Y-128749494D01*
X134006992Y-128700000D01*
X134761928Y-128700000D01*
X134774188Y-128824482D01*
X134810498Y-128944180D01*
X134869463Y-129054494D01*
X134948815Y-129151185D01*
X135045506Y-129230537D01*
X135155820Y-129289502D01*
X135275518Y-129325812D01*
X135400000Y-129338072D01*
X135714250Y-129335000D01*
X135873000Y-129176250D01*
X135873000Y-128127000D01*
X134923750Y-128127000D01*
X134765000Y-128285750D01*
X134761928Y-128700000D01*
X134006992Y-128700000D01*
X134039502Y-128639180D01*
X134075812Y-128519482D01*
X134088072Y-128395000D01*
X134085000Y-128380750D01*
X133926250Y-128222000D01*
X132602000Y-128222000D01*
X132602000Y-128242000D01*
X132348000Y-128242000D01*
X132348000Y-128222000D01*
X131023750Y-128222000D01*
X130865000Y-128380750D01*
X130861928Y-128395000D01*
X130874188Y-128519482D01*
X130910498Y-128639180D01*
X130969463Y-128749494D01*
X130993730Y-128779064D01*
X130921916Y-128913418D01*
X130877071Y-129061255D01*
X130861928Y-129215000D01*
X130861928Y-129515000D01*
X130877071Y-129668745D01*
X130921916Y-129816582D01*
X130994742Y-129952829D01*
X131033454Y-130000000D01*
X130994742Y-130047171D01*
X130921916Y-130183418D01*
X130877071Y-130331255D01*
X130861928Y-130485000D01*
X130861928Y-130785000D01*
X130877071Y-130938745D01*
X130921916Y-131086582D01*
X130994742Y-131222829D01*
X131033454Y-131270000D01*
X130994742Y-131317171D01*
X130921916Y-131453418D01*
X130877071Y-131601255D01*
X130869201Y-131681159D01*
X130696888Y-131609784D01*
X130496929Y-131570010D01*
X130293051Y-131570010D01*
X130093092Y-131609784D01*
X129904734Y-131687805D01*
X129781705Y-131770010D01*
X129138072Y-131770010D01*
X129138072Y-131755000D01*
X129122929Y-131601255D01*
X129078084Y-131453418D01*
X129005258Y-131317171D01*
X128966546Y-131270000D01*
X129005258Y-131222829D01*
X129078084Y-131086582D01*
X129122929Y-130938745D01*
X129138072Y-130785000D01*
X129138072Y-130485000D01*
X129122929Y-130331255D01*
X129078084Y-130183418D01*
X129005258Y-130047171D01*
X128966546Y-130000000D01*
X129005258Y-129952829D01*
X129078084Y-129816582D01*
X129122929Y-129668745D01*
X129138072Y-129515000D01*
X129138072Y-129215000D01*
X129122929Y-129061255D01*
X129078084Y-128913418D01*
X129005258Y-128777171D01*
X128966546Y-128730000D01*
X129005258Y-128682829D01*
X129078084Y-128546582D01*
X129122929Y-128398745D01*
X129138072Y-128245000D01*
X129138072Y-127945000D01*
X129123298Y-127795000D01*
X130861928Y-127795000D01*
X130865000Y-127809250D01*
X131023750Y-127968000D01*
X132348000Y-127968000D01*
X132348000Y-127318750D01*
X132602000Y-127318750D01*
X132602000Y-127968000D01*
X133926250Y-127968000D01*
X134085000Y-127809250D01*
X134088072Y-127795000D01*
X134075812Y-127670518D01*
X134039502Y-127550820D01*
X133980537Y-127440506D01*
X133901185Y-127343815D01*
X133847797Y-127300000D01*
X134761928Y-127300000D01*
X134765000Y-127714250D01*
X134923750Y-127873000D01*
X135873000Y-127873000D01*
X135873000Y-126823750D01*
X135714250Y-126665000D01*
X135400000Y-126661928D01*
X135275518Y-126674188D01*
X135155820Y-126710498D01*
X135045506Y-126769463D01*
X134948815Y-126848815D01*
X134869463Y-126945506D01*
X134810498Y-127055820D01*
X134774188Y-127175518D01*
X134761928Y-127300000D01*
X133847797Y-127300000D01*
X133804494Y-127264463D01*
X133694180Y-127205498D01*
X133574482Y-127169188D01*
X133450000Y-127156928D01*
X132760750Y-127160000D01*
X132602000Y-127318750D01*
X132348000Y-127318750D01*
X132189250Y-127160000D01*
X131500000Y-127156928D01*
X131375518Y-127169188D01*
X131255820Y-127205498D01*
X131145506Y-127264463D01*
X131048815Y-127343815D01*
X130969463Y-127440506D01*
X130910498Y-127550820D01*
X130874188Y-127670518D01*
X130861928Y-127795000D01*
X129123298Y-127795000D01*
X129122929Y-127791255D01*
X129078084Y-127643418D01*
X129005258Y-127507171D01*
X128907251Y-127387749D01*
X128787829Y-127289742D01*
X128651582Y-127216916D01*
X128503745Y-127172071D01*
X128350000Y-127156928D01*
X126700000Y-127156928D01*
X126546255Y-127172071D01*
X126398418Y-127216916D01*
X126355231Y-127240000D01*
X124179527Y-127240000D01*
X124170472Y-127210149D01*
X124088405Y-127056613D01*
X123977962Y-126922038D01*
X123843387Y-126811595D01*
X123689851Y-126729528D01*
X123523255Y-126678992D01*
X123350001Y-126661928D01*
X122736730Y-126661928D01*
X121685000Y-125610199D01*
X121685000Y-125251294D01*
X121755886Y-125213405D01*
X121890462Y-125102962D01*
X121962500Y-125015183D01*
X122034538Y-125102962D01*
X122169114Y-125213405D01*
X122322650Y-125295472D01*
X122489246Y-125346008D01*
X122662500Y-125363072D01*
X123337500Y-125363072D01*
X123510754Y-125346008D01*
X123677350Y-125295472D01*
X123830886Y-125213405D01*
X123965462Y-125102962D01*
X124075905Y-124968386D01*
X124157972Y-124814850D01*
X124174610Y-124760000D01*
X124820473Y-124760000D01*
X124829528Y-124789851D01*
X124911595Y-124943387D01*
X125022038Y-125077962D01*
X125156613Y-125188405D01*
X125310149Y-125270472D01*
X125476745Y-125321008D01*
X125649999Y-125338072D01*
X126350001Y-125338072D01*
X126523255Y-125321008D01*
X126689851Y-125270472D01*
X126843387Y-125188405D01*
X126977962Y-125077962D01*
X127000000Y-125051109D01*
X127022038Y-125077962D01*
X127156613Y-125188405D01*
X127310149Y-125270472D01*
X127476745Y-125321008D01*
X127649999Y-125338072D01*
X128263270Y-125338072D01*
X128436201Y-125511003D01*
X128459999Y-125540001D01*
X128488997Y-125563799D01*
X128575724Y-125634974D01*
X128707753Y-125705546D01*
X128851014Y-125749003D01*
X129000000Y-125763677D01*
X129037333Y-125760000D01*
X130095680Y-125760000D01*
X130119463Y-125804494D01*
X130198815Y-125901185D01*
X130295506Y-125980537D01*
X130405820Y-126039502D01*
X130525518Y-126075812D01*
X130650000Y-126088072D01*
X131450000Y-126088072D01*
X131574482Y-126075812D01*
X131694180Y-126039502D01*
X131804494Y-125980537D01*
X131901185Y-125901185D01*
X131980537Y-125804494D01*
X132000000Y-125768082D01*
X132019463Y-125804494D01*
X132098815Y-125901185D01*
X132195506Y-125980537D01*
X132305820Y-126039502D01*
X132425518Y-126075812D01*
X132550000Y-126088072D01*
X133350000Y-126088072D01*
X133474482Y-126075812D01*
X133594180Y-126039502D01*
X133704494Y-125980537D01*
X133801185Y-125901185D01*
X133855501Y-125835000D01*
X134386715Y-125835000D01*
X134509744Y-125917205D01*
X134698102Y-125995226D01*
X134898061Y-126035000D01*
X135101939Y-126035000D01*
X135301898Y-125995226D01*
X135490256Y-125917205D01*
X135659774Y-125803937D01*
X135803937Y-125659774D01*
X135917205Y-125490256D01*
X135995226Y-125301898D01*
X136007922Y-125238072D01*
X136513270Y-125238072D01*
X137240001Y-125964804D01*
X137240001Y-126767023D01*
X137156613Y-126811595D01*
X137075363Y-126878276D01*
X137051185Y-126848815D01*
X136954494Y-126769463D01*
X136844180Y-126710498D01*
X136724482Y-126674188D01*
X136600000Y-126661928D01*
X136285750Y-126665000D01*
X136127000Y-126823750D01*
X136127000Y-127873000D01*
X136147000Y-127873000D01*
X136147000Y-128127000D01*
X136127000Y-128127000D01*
X136127000Y-129176250D01*
X136285750Y-129335000D01*
X136600000Y-129338072D01*
X136724482Y-129325812D01*
X136844180Y-129289502D01*
X136954494Y-129230537D01*
X137051185Y-129151185D01*
X137075363Y-129121724D01*
X137156613Y-129188405D01*
X137310149Y-129270472D01*
X137476745Y-129321008D01*
X137649999Y-129338072D01*
X138350001Y-129338072D01*
X138523255Y-129321008D01*
X138689851Y-129270472D01*
X138843387Y-129188405D01*
X138977962Y-129077962D01*
X139088405Y-128943387D01*
X139170472Y-128789851D01*
X139221008Y-128623255D01*
X139238072Y-128450001D01*
X139238072Y-127549999D01*
X139221008Y-127376745D01*
X139170472Y-127210149D01*
X139088405Y-127056613D01*
X138977962Y-126922038D01*
X138843387Y-126811595D01*
X138760000Y-126767024D01*
X138760000Y-125687322D01*
X138763676Y-125649999D01*
X138760000Y-125612676D01*
X138760000Y-125612667D01*
X138749003Y-125501014D01*
X138705546Y-125357753D01*
X138634974Y-125225724D01*
X138614694Y-125201013D01*
X138563799Y-125138996D01*
X138563795Y-125138992D01*
X138540001Y-125109999D01*
X138511008Y-125086205D01*
X137438072Y-124013270D01*
X137438072Y-123400000D01*
X137425812Y-123275518D01*
X137389502Y-123155820D01*
X137330537Y-123045506D01*
X137251185Y-122948815D01*
X137154494Y-122869463D01*
X137044180Y-122810498D01*
X136924482Y-122774188D01*
X136800000Y-122761928D01*
X136186729Y-122761928D01*
X135913804Y-122489002D01*
X135890001Y-122459999D01*
X135774276Y-122365026D01*
X135642247Y-122294454D01*
X135498986Y-122250997D01*
X135387333Y-122240000D01*
X135387322Y-122240000D01*
X135350000Y-122236324D01*
X135312678Y-122240000D01*
X132954320Y-122240000D01*
X132930537Y-122195506D01*
X132851185Y-122098815D01*
X132754494Y-122019463D01*
X132644180Y-121960498D01*
X132524482Y-121924188D01*
X132400000Y-121911928D01*
X131600000Y-121911928D01*
X131475518Y-121924188D01*
X131355820Y-121960498D01*
X131245506Y-122019463D01*
X131148815Y-122098815D01*
X131069463Y-122195506D01*
X131010498Y-122305820D01*
X130974188Y-122425518D01*
X130961928Y-122550000D01*
X130961928Y-123450000D01*
X130974188Y-123574482D01*
X131010498Y-123694180D01*
X131069463Y-123804494D01*
X131148815Y-123901185D01*
X131161905Y-123911928D01*
X130650000Y-123911928D01*
X130525518Y-123924188D01*
X130405820Y-123960498D01*
X130295506Y-124019463D01*
X130198815Y-124098815D01*
X130119463Y-124195506D01*
X130095680Y-124240000D01*
X129314802Y-124240000D01*
X129238072Y-124163270D01*
X129238072Y-123549999D01*
X129221008Y-123376745D01*
X129170472Y-123210149D01*
X129088405Y-123056613D01*
X128977962Y-122922038D01*
X128843387Y-122811595D01*
X128689851Y-122729528D01*
X128523255Y-122678992D01*
X128350001Y-122661928D01*
X127649999Y-122661928D01*
X127476745Y-122678992D01*
X127310149Y-122729528D01*
X127156613Y-122811595D01*
X127022038Y-122922038D01*
X127000000Y-122948891D01*
X126977962Y-122922038D01*
X126843387Y-122811595D01*
X126689851Y-122729528D01*
X126523255Y-122678992D01*
X126350001Y-122661928D01*
X125649999Y-122661928D01*
X125476745Y-122678992D01*
X125310149Y-122729528D01*
X125156613Y-122811595D01*
X125022038Y-122922038D01*
X124911595Y-123056613D01*
X124829528Y-123210149D01*
X124820473Y-123240000D01*
X124174610Y-123240000D01*
X124157972Y-123185150D01*
X124075905Y-123031614D01*
X123965462Y-122897038D01*
X123830886Y-122786595D01*
X123709835Y-122721892D01*
X123705546Y-122707753D01*
X123634974Y-122575724D01*
X123563799Y-122488997D01*
X123540001Y-122459999D01*
X123511003Y-122436201D01*
X122563804Y-121489002D01*
X122540001Y-121459999D01*
X122424276Y-121365026D01*
X122292247Y-121294454D01*
X122148986Y-121250997D01*
X122037333Y-121240000D01*
X122037322Y-121240000D01*
X122000000Y-121236324D01*
X121962678Y-121240000D01*
X120037322Y-121240000D01*
X119999999Y-121236324D01*
X119962676Y-121240000D01*
X119962667Y-121240000D01*
X119851014Y-121250997D01*
X119737614Y-121285396D01*
X119707753Y-121294454D01*
X119575723Y-121365026D01*
X119498191Y-121428656D01*
X119459999Y-121459999D01*
X119436201Y-121488997D01*
X119289627Y-121635571D01*
X119295000Y-121581019D01*
X119295000Y-121581009D01*
X119299039Y-121540001D01*
X119295000Y-121498993D01*
X119295000Y-120228065D01*
X119406632Y-120153475D01*
X119538487Y-120021620D01*
X119560498Y-120094180D01*
X119619463Y-120204494D01*
X119698815Y-120301185D01*
X119795506Y-120380537D01*
X119905820Y-120439502D01*
X120025518Y-120475812D01*
X120150000Y-120488072D01*
X121850000Y-120488072D01*
X121974482Y-120475812D01*
X122094180Y-120439502D01*
X122204494Y-120380537D01*
X122301185Y-120301185D01*
X122380537Y-120204494D01*
X122439502Y-120094180D01*
X122475812Y-119974482D01*
X122488072Y-119850000D01*
X122488072Y-119760000D01*
X134335199Y-119760000D01*
X138561928Y-123986730D01*
X138561928Y-124600000D01*
X138574188Y-124724482D01*
X138610498Y-124844180D01*
X138669463Y-124954494D01*
X138748815Y-125051185D01*
X138845506Y-125130537D01*
X138955820Y-125189502D01*
X139075518Y-125225812D01*
X139200000Y-125238072D01*
X139813270Y-125238072D01*
X140240001Y-125664803D01*
X140240000Y-126767023D01*
X140156613Y-126811595D01*
X140022038Y-126922038D01*
X139911595Y-127056613D01*
X139829528Y-127210149D01*
X139778992Y-127376745D01*
X139761928Y-127549999D01*
X139761928Y-128450001D01*
X139778992Y-128623255D01*
X139829528Y-128789851D01*
X139911595Y-128943387D01*
X140022038Y-129077962D01*
X140156613Y-129188405D01*
X140240001Y-129232977D01*
X140240000Y-130748705D01*
X140169114Y-130786595D01*
X140034538Y-130897038D01*
X139924095Y-131031614D01*
X139842028Y-131185150D01*
X139791492Y-131351746D01*
X139774428Y-131525000D01*
X139774428Y-132475000D01*
X139791492Y-132648254D01*
X139842028Y-132814850D01*
X139924095Y-132968386D01*
X140034538Y-133102962D01*
X140169114Y-133213405D01*
X140322650Y-133295472D01*
X140489246Y-133346008D01*
X140662500Y-133363072D01*
X141337500Y-133363072D01*
X141510754Y-133346008D01*
X141677350Y-133295472D01*
X141830886Y-133213405D01*
X141965462Y-133102962D01*
X142037500Y-133015183D01*
X142109538Y-133102962D01*
X142244114Y-133213405D01*
X142397650Y-133295472D01*
X142564246Y-133346008D01*
X142737500Y-133363072D01*
X143412500Y-133363072D01*
X143585754Y-133346008D01*
X143752350Y-133295472D01*
X143905886Y-133213405D01*
X144040462Y-133102962D01*
X144150905Y-132968386D01*
X144232972Y-132814850D01*
X144283508Y-132648254D01*
X144300572Y-132475000D01*
X144300572Y-131525000D01*
X144283508Y-131351746D01*
X144232972Y-131185150D01*
X144150905Y-131031614D01*
X144040462Y-130897038D01*
X143960000Y-130831005D01*
X143960000Y-129092703D01*
X143977962Y-129077962D01*
X144088405Y-128943387D01*
X144146339Y-128835000D01*
X145618046Y-128835000D01*
X145690001Y-128842087D01*
X145690000Y-130483981D01*
X145685960Y-130525000D01*
X145690000Y-130566018D01*
X145702082Y-130688688D01*
X145749828Y-130846086D01*
X145827364Y-130991145D01*
X145931709Y-131118291D01*
X145963579Y-131144446D01*
X147975908Y-133156776D01*
X148004774Y-133301898D01*
X148082795Y-133490256D01*
X148196063Y-133659774D01*
X148340226Y-133803937D01*
X148509744Y-133917205D01*
X148698102Y-133995226D01*
X148843225Y-134024093D01*
X150761928Y-135942797D01*
X150761928Y-136450001D01*
X150778992Y-136623255D01*
X150829528Y-136789851D01*
X150911595Y-136943387D01*
X151022038Y-137077962D01*
X151156613Y-137188405D01*
X151253140Y-137240000D01*
X148394802Y-137240000D01*
X147410654Y-136255852D01*
X147435000Y-136133456D01*
X147435000Y-135866544D01*
X147382928Y-135604761D01*
X147280785Y-135358167D01*
X147132497Y-135136238D01*
X146943762Y-134947503D01*
X146721833Y-134799215D01*
X146475239Y-134697072D01*
X146213456Y-134645000D01*
X145946544Y-134645000D01*
X145684761Y-134697072D01*
X145438167Y-134799215D01*
X145216238Y-134947503D01*
X145027503Y-135136238D01*
X144879215Y-135358167D01*
X144809562Y-135526324D01*
X144767875Y-135411647D01*
X144711368Y-135305932D01*
X144475560Y-135244045D01*
X143719605Y-136000000D01*
X144475560Y-136755955D01*
X144711368Y-136694068D01*
X144811764Y-136478993D01*
X144879215Y-136641833D01*
X145027503Y-136863762D01*
X145216238Y-137052497D01*
X145438167Y-137200785D01*
X145684761Y-137302928D01*
X145946544Y-137355000D01*
X146213456Y-137355000D01*
X146335852Y-137330654D01*
X147345198Y-138340000D01*
X106032279Y-138340000D01*
X105546106Y-138292330D01*
X105109503Y-138160512D01*
X104706814Y-137946399D01*
X104353387Y-137658150D01*
X104062673Y-137306739D01*
X103845760Y-136905564D01*
X103710894Y-136469886D01*
X103660000Y-135985664D01*
X103660000Y-128700000D01*
X114761928Y-128700000D01*
X114774188Y-128824482D01*
X114810498Y-128944180D01*
X114869463Y-129054494D01*
X114948815Y-129151185D01*
X115045506Y-129230537D01*
X115155820Y-129289502D01*
X115275518Y-129325812D01*
X115400000Y-129338072D01*
X115714250Y-129335000D01*
X115873000Y-129176250D01*
X115873000Y-128127000D01*
X114923750Y-128127000D01*
X114765000Y-128285750D01*
X114761928Y-128700000D01*
X103660000Y-128700000D01*
X103660000Y-127300000D01*
X114761928Y-127300000D01*
X114765000Y-127714250D01*
X114923750Y-127873000D01*
X115873000Y-127873000D01*
X115873000Y-126823750D01*
X115714250Y-126665000D01*
X115400000Y-126661928D01*
X115275518Y-126674188D01*
X115155820Y-126710498D01*
X115045506Y-126769463D01*
X114948815Y-126848815D01*
X114869463Y-126945506D01*
X114810498Y-127055820D01*
X114774188Y-127175518D01*
X114761928Y-127300000D01*
X103660000Y-127300000D01*
X103660000Y-119300000D01*
X107061928Y-119300000D01*
X107074188Y-119424482D01*
X107110498Y-119544180D01*
X107169463Y-119654494D01*
X107248815Y-119751185D01*
X107345506Y-119830537D01*
X107455820Y-119889502D01*
X107575518Y-119925812D01*
X107700000Y-119938072D01*
X108714250Y-119935000D01*
X108873000Y-119776250D01*
X108873000Y-118127000D01*
X109127000Y-118127000D01*
X109127000Y-119776250D01*
X109285750Y-119935000D01*
X110300000Y-119938072D01*
X110424482Y-119925812D01*
X110544180Y-119889502D01*
X110654494Y-119830537D01*
X110751185Y-119751185D01*
X110830537Y-119654494D01*
X110889502Y-119544180D01*
X110925812Y-119424482D01*
X110938072Y-119300000D01*
X110935000Y-118285750D01*
X110776250Y-118127000D01*
X109127000Y-118127000D01*
X108873000Y-118127000D01*
X107223750Y-118127000D01*
X107065000Y-118285750D01*
X107061928Y-119300000D01*
X103660000Y-119300000D01*
X103660000Y-116700000D01*
X107061928Y-116700000D01*
X107065000Y-117714250D01*
X107223750Y-117873000D01*
X108873000Y-117873000D01*
X108873000Y-116223750D01*
X109127000Y-116223750D01*
X109127000Y-117873000D01*
X110776250Y-117873000D01*
X110935000Y-117714250D01*
X110938072Y-116700000D01*
X110925812Y-116575518D01*
X110889502Y-116455820D01*
X110830537Y-116345506D01*
X110751185Y-116248815D01*
X110654494Y-116169463D01*
X110544180Y-116110498D01*
X110424482Y-116074188D01*
X110300000Y-116061928D01*
X109285750Y-116065000D01*
X109127000Y-116223750D01*
X108873000Y-116223750D01*
X108714250Y-116065000D01*
X107700000Y-116061928D01*
X107575518Y-116074188D01*
X107455820Y-116110498D01*
X107345506Y-116169463D01*
X107248815Y-116248815D01*
X107169463Y-116345506D01*
X107110498Y-116455820D01*
X107074188Y-116575518D01*
X107061928Y-116700000D01*
X103660000Y-116700000D01*
X103660000Y-115275000D01*
X117736928Y-115275000D01*
X117740000Y-115714250D01*
X117898750Y-115873000D01*
X118835500Y-115873000D01*
X118835500Y-114798750D01*
X118676750Y-114640000D01*
X118375000Y-114636928D01*
X118250518Y-114649188D01*
X118130820Y-114685498D01*
X118020506Y-114744463D01*
X117923815Y-114823815D01*
X117844463Y-114920506D01*
X117785498Y-115030820D01*
X117749188Y-115150518D01*
X117736928Y-115275000D01*
X103660000Y-115275000D01*
X103660000Y-105700000D01*
X126761928Y-105700000D01*
X126774188Y-105824482D01*
X126810498Y-105944180D01*
X126869463Y-106054494D01*
X126948815Y-106151185D01*
X127045506Y-106230537D01*
X127155820Y-106289502D01*
X127275518Y-106325812D01*
X127400000Y-106338072D01*
X127689250Y-106335000D01*
X127848000Y-106176250D01*
X127848000Y-105127000D01*
X126923750Y-105127000D01*
X126765000Y-105285750D01*
X126761928Y-105700000D01*
X103660000Y-105700000D01*
X103660000Y-104300000D01*
X126761928Y-104300000D01*
X126765000Y-104714250D01*
X126923750Y-104873000D01*
X127848000Y-104873000D01*
X127848000Y-103823750D01*
X127689250Y-103665000D01*
X127400000Y-103661928D01*
X127275518Y-103674188D01*
X127155820Y-103710498D01*
X127045506Y-103769463D01*
X126948815Y-103848815D01*
X126869463Y-103945506D01*
X126810498Y-104055820D01*
X126774188Y-104175518D01*
X126761928Y-104300000D01*
X103660000Y-104300000D01*
X103660000Y-94700000D01*
X132761928Y-94700000D01*
X132774188Y-94824482D01*
X132810498Y-94944180D01*
X132869463Y-95054494D01*
X132948815Y-95151185D01*
X133045506Y-95230537D01*
X133155820Y-95289502D01*
X133275518Y-95325812D01*
X133400000Y-95338072D01*
X133689250Y-95335000D01*
X133848000Y-95176250D01*
X133848000Y-94127000D01*
X132923750Y-94127000D01*
X132765000Y-94285750D01*
X132761928Y-94700000D01*
X103660000Y-94700000D01*
X103660000Y-93300000D01*
X132761928Y-93300000D01*
X132765000Y-93714250D01*
X132923750Y-93873000D01*
X133848000Y-93873000D01*
X133848000Y-92823750D01*
X133689250Y-92665000D01*
X133400000Y-92661928D01*
X133275518Y-92674188D01*
X133155820Y-92710498D01*
X133045506Y-92769463D01*
X132948815Y-92848815D01*
X132869463Y-92945506D01*
X132810498Y-93055820D01*
X132774188Y-93175518D01*
X132761928Y-93300000D01*
X103660000Y-93300000D01*
X103660000Y-85700000D01*
X134761928Y-85700000D01*
X134774188Y-85824482D01*
X134810498Y-85944180D01*
X134869463Y-86054494D01*
X134948815Y-86151185D01*
X135045506Y-86230537D01*
X135155820Y-86289502D01*
X135275518Y-86325812D01*
X135400000Y-86338072D01*
X135689250Y-86335000D01*
X135848000Y-86176250D01*
X135848000Y-85127000D01*
X134923750Y-85127000D01*
X134765000Y-85285750D01*
X134761928Y-85700000D01*
X103660000Y-85700000D01*
X103660000Y-84300000D01*
X134761928Y-84300000D01*
X134765000Y-84714250D01*
X134923750Y-84873000D01*
X135848000Y-84873000D01*
X135848000Y-83823750D01*
X135689250Y-83665000D01*
X135400000Y-83661928D01*
X135275518Y-83674188D01*
X135155820Y-83710498D01*
X135045506Y-83769463D01*
X134948815Y-83848815D01*
X134869463Y-83945506D01*
X134810498Y-84055820D01*
X134774188Y-84175518D01*
X134761928Y-84300000D01*
X103660000Y-84300000D01*
X103660000Y-77700000D01*
X140736928Y-77700000D01*
X140749188Y-77824482D01*
X140785498Y-77944180D01*
X140844463Y-78054494D01*
X140923815Y-78151185D01*
X141020506Y-78230537D01*
X141130820Y-78289502D01*
X141250518Y-78325812D01*
X141375000Y-78338072D01*
X141664250Y-78335000D01*
X141823000Y-78176250D01*
X141823000Y-77127000D01*
X140898750Y-77127000D01*
X140740000Y-77285750D01*
X140736928Y-77700000D01*
X103660000Y-77700000D01*
X103660000Y-76300000D01*
X140736928Y-76300000D01*
X140740000Y-76714250D01*
X140898750Y-76873000D01*
X141823000Y-76873000D01*
X141823000Y-75823750D01*
X141664250Y-75665000D01*
X141375000Y-75661928D01*
X141250518Y-75674188D01*
X141130820Y-75710498D01*
X141020506Y-75769463D01*
X140923815Y-75848815D01*
X140844463Y-75945506D01*
X140785498Y-76055820D01*
X140749188Y-76175518D01*
X140736928Y-76300000D01*
X103660000Y-76300000D01*
X103660000Y-68700000D01*
X140761928Y-68700000D01*
X140774188Y-68824482D01*
X140810498Y-68944180D01*
X140869463Y-69054494D01*
X140948815Y-69151185D01*
X141045506Y-69230537D01*
X141155820Y-69289502D01*
X141275518Y-69325812D01*
X141400000Y-69338072D01*
X141689250Y-69335000D01*
X141848000Y-69176250D01*
X141848000Y-68127000D01*
X140923750Y-68127000D01*
X140765000Y-68285750D01*
X140761928Y-68700000D01*
X103660000Y-68700000D01*
X103660000Y-67300000D01*
X140761928Y-67300000D01*
X140765000Y-67714250D01*
X140923750Y-67873000D01*
X141848000Y-67873000D01*
X141848000Y-66823750D01*
X141689250Y-66665000D01*
X141400000Y-66661928D01*
X141275518Y-66674188D01*
X141155820Y-66710498D01*
X141045506Y-66769463D01*
X140948815Y-66848815D01*
X140869463Y-66945506D01*
X140810498Y-67055820D01*
X140774188Y-67175518D01*
X140761928Y-67300000D01*
X103660000Y-67300000D01*
X103660000Y-42032279D01*
X103707670Y-41546107D01*
X103839489Y-41109502D01*
X104053600Y-40706815D01*
X104341848Y-40353388D01*
X104693261Y-40062673D01*
X105094439Y-39845758D01*
X105530113Y-39710894D01*
X106014344Y-39660000D01*
X179967721Y-39660000D01*
X180453893Y-39707670D01*
G04 #@! TA.AperFunction,Conductor*
D25*
G36*
X180453893Y-39707670D02*
G01*
X180890498Y-39839489D01*
X181293185Y-40053600D01*
X181646612Y-40341848D01*
X181937327Y-40693261D01*
X182154242Y-41094439D01*
X182289106Y-41530113D01*
X182340001Y-42014353D01*
X182340000Y-135967721D01*
X182292330Y-136453894D01*
X182160512Y-136890497D01*
X181946399Y-137293186D01*
X181658150Y-137646613D01*
X181306739Y-137937327D01*
X180905564Y-138154240D01*
X180469886Y-138289106D01*
X179985664Y-138340000D01*
X177371211Y-138340000D01*
X178375668Y-137335544D01*
X178523255Y-137321008D01*
X178689851Y-137270472D01*
X178843387Y-137188405D01*
X178977962Y-137077962D01*
X179088405Y-136943387D01*
X179170472Y-136789851D01*
X179221008Y-136623255D01*
X179238072Y-136450001D01*
X179238072Y-135549999D01*
X179221008Y-135376745D01*
X179170472Y-135210149D01*
X179088405Y-135056613D01*
X178977962Y-134922038D01*
X178843387Y-134811595D01*
X178689851Y-134729528D01*
X178523255Y-134678992D01*
X178350001Y-134661928D01*
X177649999Y-134661928D01*
X177476745Y-134678992D01*
X177310149Y-134729528D01*
X177156613Y-134811595D01*
X177022038Y-134922038D01*
X177000000Y-134948891D01*
X176977962Y-134922038D01*
X176843387Y-134811595D01*
X176760000Y-134767024D01*
X176760000Y-130694801D01*
X178611730Y-128843072D01*
X179300000Y-128843072D01*
X179453745Y-128827929D01*
X179601582Y-128783084D01*
X179737829Y-128710258D01*
X179857251Y-128612251D01*
X179955258Y-128492829D01*
X180028084Y-128356582D01*
X180072929Y-128208745D01*
X180088072Y-128055000D01*
X180088072Y-127755000D01*
X180072929Y-127601255D01*
X180028084Y-127453418D01*
X179955258Y-127317171D01*
X179916546Y-127270000D01*
X179955258Y-127222829D01*
X180028084Y-127086582D01*
X180072929Y-126938745D01*
X180088072Y-126785000D01*
X180088072Y-126485000D01*
X180072929Y-126331255D01*
X180028084Y-126183418D01*
X179955258Y-126047171D01*
X179916546Y-126000000D01*
X179955258Y-125952829D01*
X180028084Y-125816582D01*
X180072929Y-125668745D01*
X180088072Y-125515000D01*
X180088072Y-125215000D01*
X180072929Y-125061255D01*
X180028084Y-124913418D01*
X179956270Y-124779064D01*
X179980537Y-124749494D01*
X180039502Y-124639180D01*
X180075812Y-124519482D01*
X180088072Y-124395000D01*
X180085000Y-124380750D01*
X179926250Y-124222000D01*
X178602000Y-124222000D01*
X178602000Y-124242000D01*
X178348000Y-124242000D01*
X178348000Y-124222000D01*
X177023750Y-124222000D01*
X176865000Y-124380750D01*
X176861928Y-124395000D01*
X176874188Y-124519482D01*
X176900130Y-124605000D01*
X176756570Y-124605000D01*
X175946570Y-123795000D01*
X176861928Y-123795000D01*
X176865000Y-123809250D01*
X177023750Y-123968000D01*
X178348000Y-123968000D01*
X178348000Y-123318750D01*
X178602000Y-123318750D01*
X178602000Y-123968000D01*
X179926250Y-123968000D01*
X180085000Y-123809250D01*
X180088072Y-123795000D01*
X180075812Y-123670518D01*
X180039502Y-123550820D01*
X179980537Y-123440506D01*
X179901185Y-123343815D01*
X179804494Y-123264463D01*
X179694180Y-123205498D01*
X179574482Y-123169188D01*
X179450000Y-123156928D01*
X178760750Y-123160000D01*
X178602000Y-123318750D01*
X178348000Y-123318750D01*
X178189250Y-123160000D01*
X177500000Y-123156928D01*
X177375518Y-123169188D01*
X177255820Y-123205498D01*
X177145506Y-123264463D01*
X177048815Y-123343815D01*
X176969463Y-123440506D01*
X176910498Y-123550820D01*
X176874188Y-123670518D01*
X176861928Y-123795000D01*
X175946570Y-123795000D01*
X172140572Y-119989003D01*
X172116769Y-119959999D01*
X172001044Y-119865026D01*
X171869015Y-119794454D01*
X171725754Y-119750997D01*
X171614101Y-119740000D01*
X171614090Y-119740000D01*
X171576768Y-119736324D01*
X171539446Y-119740000D01*
X165453389Y-119740000D01*
X165500685Y-119701185D01*
X165580037Y-119604494D01*
X165639002Y-119494180D01*
X165675312Y-119374482D01*
X165687572Y-119250000D01*
X165687572Y-118750000D01*
X165675312Y-118625518D01*
X165639002Y-118505820D01*
X165597000Y-118427241D01*
X165597000Y-88849325D01*
X165600676Y-88812000D01*
X165597000Y-88774675D01*
X165597000Y-88774667D01*
X165586003Y-88663014D01*
X165542546Y-88519753D01*
X165471974Y-88387724D01*
X165377001Y-88271999D01*
X165348003Y-88248201D01*
X145238072Y-68138271D01*
X145238072Y-67549999D01*
X145221008Y-67376745D01*
X145170472Y-67210149D01*
X145088405Y-67056613D01*
X144977962Y-66922038D01*
X144843387Y-66811595D01*
X144689851Y-66729528D01*
X144523255Y-66678992D01*
X144350001Y-66661928D01*
X143699999Y-66661928D01*
X143526745Y-66678992D01*
X143360149Y-66729528D01*
X143206613Y-66811595D01*
X143072038Y-66922038D01*
X143066658Y-66928594D01*
X143001185Y-66848815D01*
X142904494Y-66769463D01*
X142794180Y-66710498D01*
X142674482Y-66674188D01*
X142550000Y-66661928D01*
X142260750Y-66665000D01*
X142102000Y-66823750D01*
X142102000Y-67873000D01*
X142122000Y-67873000D01*
X142122000Y-68127000D01*
X142102000Y-68127000D01*
X142102000Y-69176250D01*
X142260750Y-69335000D01*
X142550000Y-69338072D01*
X142674482Y-69325812D01*
X142794180Y-69289502D01*
X142904494Y-69230537D01*
X143001185Y-69151185D01*
X143066658Y-69071406D01*
X143072038Y-69077962D01*
X143206613Y-69188405D01*
X143360149Y-69270472D01*
X143526745Y-69321008D01*
X143699999Y-69338072D01*
X144288271Y-69338072D01*
X164077001Y-89126803D01*
X164077001Y-91002199D01*
X149563804Y-76489003D01*
X149540001Y-76459999D01*
X149424276Y-76365026D01*
X149292247Y-76294454D01*
X149148986Y-76250997D01*
X149037333Y-76240000D01*
X149037322Y-76240000D01*
X149000000Y-76236324D01*
X148962678Y-76240000D01*
X145154527Y-76240000D01*
X145145472Y-76210149D01*
X145063405Y-76056613D01*
X144952962Y-75922038D01*
X144818387Y-75811595D01*
X144664851Y-75729528D01*
X144498255Y-75678992D01*
X144325001Y-75661928D01*
X143674999Y-75661928D01*
X143501745Y-75678992D01*
X143335149Y-75729528D01*
X143181613Y-75811595D01*
X143047038Y-75922038D01*
X143041658Y-75928594D01*
X142976185Y-75848815D01*
X142879494Y-75769463D01*
X142769180Y-75710498D01*
X142649482Y-75674188D01*
X142525000Y-75661928D01*
X142235750Y-75665000D01*
X142077000Y-75823750D01*
X142077000Y-76873000D01*
X142097000Y-76873000D01*
X142097000Y-77127000D01*
X142077000Y-77127000D01*
X142077000Y-78176250D01*
X142235750Y-78335000D01*
X142525000Y-78338072D01*
X142649482Y-78325812D01*
X142769180Y-78289502D01*
X142879494Y-78230537D01*
X142976185Y-78151185D01*
X143041658Y-78071406D01*
X143047038Y-78077962D01*
X143181613Y-78188405D01*
X143335149Y-78270472D01*
X143501745Y-78321008D01*
X143674999Y-78338072D01*
X144325001Y-78338072D01*
X144498255Y-78321008D01*
X144664851Y-78270472D01*
X144818387Y-78188405D01*
X144952962Y-78077962D01*
X145063405Y-77943387D01*
X145145472Y-77789851D01*
X145154527Y-77760000D01*
X148685199Y-77760000D01*
X163490001Y-92564803D01*
X163490001Y-93415199D01*
X154563804Y-84489003D01*
X154540001Y-84459999D01*
X154424276Y-84365026D01*
X154292247Y-84294454D01*
X154148986Y-84250997D01*
X154037333Y-84240000D01*
X154037322Y-84240000D01*
X154000000Y-84236324D01*
X153962678Y-84240000D01*
X151179527Y-84240000D01*
X151170472Y-84210149D01*
X151088405Y-84056613D01*
X150977962Y-83922038D01*
X150843387Y-83811595D01*
X150689851Y-83729528D01*
X150523255Y-83678992D01*
X150350001Y-83661928D01*
X149699999Y-83661928D01*
X149526745Y-83678992D01*
X149360149Y-83729528D01*
X149206613Y-83811595D01*
X149072038Y-83922038D01*
X149066658Y-83928594D01*
X149001185Y-83848815D01*
X148904494Y-83769463D01*
X148794180Y-83710498D01*
X148674482Y-83674188D01*
X148550000Y-83661928D01*
X148260750Y-83665000D01*
X148102000Y-83823750D01*
X148102000Y-84873000D01*
X148122000Y-84873000D01*
X148122000Y-85127000D01*
X148102000Y-85127000D01*
X148102000Y-86176250D01*
X148260750Y-86335000D01*
X148550000Y-86338072D01*
X148674482Y-86325812D01*
X148794180Y-86289502D01*
X148904494Y-86230537D01*
X149001185Y-86151185D01*
X149066658Y-86071406D01*
X149072038Y-86077962D01*
X149206613Y-86188405D01*
X149360149Y-86270472D01*
X149526745Y-86321008D01*
X149699999Y-86338072D01*
X150350001Y-86338072D01*
X150523255Y-86321008D01*
X150689851Y-86270472D01*
X150843387Y-86188405D01*
X150977962Y-86077962D01*
X151088405Y-85943387D01*
X151170472Y-85789851D01*
X151179527Y-85760000D01*
X153685199Y-85760000D01*
X162990001Y-95064803D01*
X162990001Y-96915198D01*
X154563804Y-88489003D01*
X154540001Y-88459999D01*
X154424276Y-88365026D01*
X154292247Y-88294454D01*
X154148986Y-88250997D01*
X154037333Y-88240000D01*
X154037322Y-88240000D01*
X154000000Y-88236324D01*
X153962678Y-88240000D01*
X142339802Y-88240000D01*
X139799802Y-85700000D01*
X146761928Y-85700000D01*
X146774188Y-85824482D01*
X146810498Y-85944180D01*
X146869463Y-86054494D01*
X146948815Y-86151185D01*
X147045506Y-86230537D01*
X147155820Y-86289502D01*
X147275518Y-86325812D01*
X147400000Y-86338072D01*
X147689250Y-86335000D01*
X147848000Y-86176250D01*
X147848000Y-85127000D01*
X146923750Y-85127000D01*
X146765000Y-85285750D01*
X146761928Y-85700000D01*
X139799802Y-85700000D01*
X139238072Y-85138271D01*
X139238072Y-84549999D01*
X139221008Y-84376745D01*
X139197728Y-84300000D01*
X146761928Y-84300000D01*
X146765000Y-84714250D01*
X146923750Y-84873000D01*
X147848000Y-84873000D01*
X147848000Y-83823750D01*
X147689250Y-83665000D01*
X147400000Y-83661928D01*
X147275518Y-83674188D01*
X147155820Y-83710498D01*
X147045506Y-83769463D01*
X146948815Y-83848815D01*
X146869463Y-83945506D01*
X146810498Y-84055820D01*
X146774188Y-84175518D01*
X146761928Y-84300000D01*
X139197728Y-84300000D01*
X139170472Y-84210149D01*
X139088405Y-84056613D01*
X138977962Y-83922038D01*
X138843387Y-83811595D01*
X138689851Y-83729528D01*
X138523255Y-83678992D01*
X138350001Y-83661928D01*
X137699999Y-83661928D01*
X137526745Y-83678992D01*
X137360149Y-83729528D01*
X137206613Y-83811595D01*
X137072038Y-83922038D01*
X137066658Y-83928594D01*
X137001185Y-83848815D01*
X136904494Y-83769463D01*
X136794180Y-83710498D01*
X136674482Y-83674188D01*
X136550000Y-83661928D01*
X136260750Y-83665000D01*
X136102000Y-83823750D01*
X136102000Y-84873000D01*
X136122000Y-84873000D01*
X136122000Y-85127000D01*
X136102000Y-85127000D01*
X136102000Y-86176250D01*
X136260750Y-86335000D01*
X136550000Y-86338072D01*
X136674482Y-86325812D01*
X136794180Y-86289502D01*
X136904494Y-86230537D01*
X137001185Y-86151185D01*
X137066658Y-86071406D01*
X137072038Y-86077962D01*
X137206613Y-86188405D01*
X137360149Y-86270472D01*
X137526745Y-86321008D01*
X137699999Y-86338072D01*
X138288271Y-86338072D01*
X141461200Y-89511002D01*
X141484999Y-89540001D01*
X141600724Y-89634974D01*
X141732753Y-89705546D01*
X141876014Y-89749003D01*
X141987667Y-89760000D01*
X141987676Y-89760000D01*
X142024999Y-89763676D01*
X142062322Y-89760000D01*
X153685199Y-89760000D01*
X157188043Y-93262845D01*
X157148986Y-93250997D01*
X157037333Y-93240000D01*
X157037322Y-93240000D01*
X157000000Y-93236324D01*
X156962678Y-93240000D01*
X153154527Y-93240000D01*
X153145472Y-93210149D01*
X153063405Y-93056613D01*
X152952962Y-92922038D01*
X152818387Y-92811595D01*
X152664851Y-92729528D01*
X152498255Y-92678992D01*
X152325001Y-92661928D01*
X151674999Y-92661928D01*
X151501745Y-92678992D01*
X151335149Y-92729528D01*
X151181613Y-92811595D01*
X151047038Y-92922038D01*
X151041658Y-92928594D01*
X150976185Y-92848815D01*
X150879494Y-92769463D01*
X150769180Y-92710498D01*
X150649482Y-92674188D01*
X150525000Y-92661928D01*
X150235750Y-92665000D01*
X150077000Y-92823750D01*
X150077000Y-93873000D01*
X150097000Y-93873000D01*
X150097000Y-94127000D01*
X150077000Y-94127000D01*
X150077000Y-95176250D01*
X150235750Y-95335000D01*
X150525000Y-95338072D01*
X150649482Y-95325812D01*
X150769180Y-95289502D01*
X150879494Y-95230537D01*
X150976185Y-95151185D01*
X151041658Y-95071406D01*
X151047038Y-95077962D01*
X151181613Y-95188405D01*
X151335149Y-95270472D01*
X151501745Y-95321008D01*
X151674999Y-95338072D01*
X152325001Y-95338072D01*
X152498255Y-95321008D01*
X152664851Y-95270472D01*
X152818387Y-95188405D01*
X152952962Y-95077962D01*
X153063405Y-94943387D01*
X153145472Y-94789851D01*
X153154527Y-94760000D01*
X156685199Y-94760000D01*
X161990001Y-100064803D01*
X161990001Y-102915199D01*
X158563804Y-99489003D01*
X158540001Y-99459999D01*
X158424276Y-99365026D01*
X158292247Y-99294454D01*
X158148986Y-99250997D01*
X158037333Y-99240000D01*
X158037322Y-99240000D01*
X158000000Y-99236324D01*
X157962678Y-99240000D01*
X142339803Y-99240000D01*
X137799802Y-94700000D01*
X148736928Y-94700000D01*
X148749188Y-94824482D01*
X148785498Y-94944180D01*
X148844463Y-95054494D01*
X148923815Y-95151185D01*
X149020506Y-95230537D01*
X149130820Y-95289502D01*
X149250518Y-95325812D01*
X149375000Y-95338072D01*
X149664250Y-95335000D01*
X149823000Y-95176250D01*
X149823000Y-94127000D01*
X148898750Y-94127000D01*
X148740000Y-94285750D01*
X148736928Y-94700000D01*
X137799802Y-94700000D01*
X137238072Y-94138271D01*
X137238072Y-93549999D01*
X137221008Y-93376745D01*
X137197728Y-93300000D01*
X148736928Y-93300000D01*
X148740000Y-93714250D01*
X148898750Y-93873000D01*
X149823000Y-93873000D01*
X149823000Y-92823750D01*
X149664250Y-92665000D01*
X149375000Y-92661928D01*
X149250518Y-92674188D01*
X149130820Y-92710498D01*
X149020506Y-92769463D01*
X148923815Y-92848815D01*
X148844463Y-92945506D01*
X148785498Y-93055820D01*
X148749188Y-93175518D01*
X148736928Y-93300000D01*
X137197728Y-93300000D01*
X137170472Y-93210149D01*
X137088405Y-93056613D01*
X136977962Y-92922038D01*
X136843387Y-92811595D01*
X136689851Y-92729528D01*
X136523255Y-92678992D01*
X136350001Y-92661928D01*
X135699999Y-92661928D01*
X135526745Y-92678992D01*
X135360149Y-92729528D01*
X135206613Y-92811595D01*
X135072038Y-92922038D01*
X135066658Y-92928594D01*
X135001185Y-92848815D01*
X134904494Y-92769463D01*
X134794180Y-92710498D01*
X134674482Y-92674188D01*
X134550000Y-92661928D01*
X134260750Y-92665000D01*
X134102000Y-92823750D01*
X134102000Y-93873000D01*
X134122000Y-93873000D01*
X134122000Y-94127000D01*
X134102000Y-94127000D01*
X134102000Y-95176250D01*
X134260750Y-95335000D01*
X134550000Y-95338072D01*
X134674482Y-95325812D01*
X134794180Y-95289502D01*
X134904494Y-95230537D01*
X135001185Y-95151185D01*
X135066658Y-95071406D01*
X135072038Y-95077962D01*
X135206613Y-95188405D01*
X135360149Y-95270472D01*
X135526745Y-95321008D01*
X135699999Y-95338072D01*
X136288271Y-95338072D01*
X141461205Y-100511008D01*
X141484999Y-100540001D01*
X141513992Y-100563795D01*
X141513996Y-100563799D01*
X141584685Y-100621811D01*
X141600724Y-100634974D01*
X141732753Y-100705546D01*
X141876014Y-100749003D01*
X141987667Y-100760000D01*
X141987676Y-100760000D01*
X142024999Y-100763676D01*
X142062322Y-100760000D01*
X157685199Y-100760000D01*
X161490001Y-104564803D01*
X161490001Y-107365199D01*
X159263072Y-105138271D01*
X159263072Y-104549999D01*
X159246008Y-104376745D01*
X159195472Y-104210149D01*
X159113405Y-104056613D01*
X159002962Y-103922038D01*
X158868387Y-103811595D01*
X158714851Y-103729528D01*
X158548255Y-103678992D01*
X158375001Y-103661928D01*
X157724999Y-103661928D01*
X157551745Y-103678992D01*
X157385149Y-103729528D01*
X157231613Y-103811595D01*
X157097038Y-103922038D01*
X157091658Y-103928594D01*
X157026185Y-103848815D01*
X156929494Y-103769463D01*
X156819180Y-103710498D01*
X156699482Y-103674188D01*
X156575000Y-103661928D01*
X156285750Y-103665000D01*
X156127000Y-103823750D01*
X156127000Y-104873000D01*
X156147000Y-104873000D01*
X156147000Y-105127000D01*
X156127000Y-105127000D01*
X156127000Y-106176250D01*
X156285750Y-106335000D01*
X156575000Y-106338072D01*
X156699482Y-106325812D01*
X156819180Y-106289502D01*
X156929494Y-106230537D01*
X157026185Y-106151185D01*
X157091658Y-106071406D01*
X157097038Y-106077962D01*
X157231613Y-106188405D01*
X157385149Y-106270472D01*
X157551745Y-106321008D01*
X157724999Y-106338072D01*
X158313271Y-106338072D01*
X160990001Y-109014803D01*
X160990001Y-111915199D01*
X157563804Y-108489003D01*
X157540001Y-108459999D01*
X157424276Y-108365026D01*
X157292247Y-108294454D01*
X157148986Y-108250997D01*
X157037333Y-108240000D01*
X157037322Y-108240000D01*
X157000000Y-108236324D01*
X156962678Y-108240000D01*
X134339802Y-108240000D01*
X131799802Y-105700000D01*
X154786928Y-105700000D01*
X154799188Y-105824482D01*
X154835498Y-105944180D01*
X154894463Y-106054494D01*
X154973815Y-106151185D01*
X155070506Y-106230537D01*
X155180820Y-106289502D01*
X155300518Y-106325812D01*
X155425000Y-106338072D01*
X155714250Y-106335000D01*
X155873000Y-106176250D01*
X155873000Y-105127000D01*
X154948750Y-105127000D01*
X154790000Y-105285750D01*
X154786928Y-105700000D01*
X131799802Y-105700000D01*
X131238072Y-105138271D01*
X131238072Y-104549999D01*
X131221008Y-104376745D01*
X131197728Y-104300000D01*
X154786928Y-104300000D01*
X154790000Y-104714250D01*
X154948750Y-104873000D01*
X155873000Y-104873000D01*
X155873000Y-103823750D01*
X155714250Y-103665000D01*
X155425000Y-103661928D01*
X155300518Y-103674188D01*
X155180820Y-103710498D01*
X155070506Y-103769463D01*
X154973815Y-103848815D01*
X154894463Y-103945506D01*
X154835498Y-104055820D01*
X154799188Y-104175518D01*
X154786928Y-104300000D01*
X131197728Y-104300000D01*
X131170472Y-104210149D01*
X131088405Y-104056613D01*
X130977962Y-103922038D01*
X130843387Y-103811595D01*
X130689851Y-103729528D01*
X130523255Y-103678992D01*
X130350001Y-103661928D01*
X129699999Y-103661928D01*
X129526745Y-103678992D01*
X129360149Y-103729528D01*
X129206613Y-103811595D01*
X129072038Y-103922038D01*
X129066658Y-103928594D01*
X129001185Y-103848815D01*
X128904494Y-103769463D01*
X128794180Y-103710498D01*
X128674482Y-103674188D01*
X128550000Y-103661928D01*
X128260750Y-103665000D01*
X128102000Y-103823750D01*
X128102000Y-104873000D01*
X128122000Y-104873000D01*
X128122000Y-105127000D01*
X128102000Y-105127000D01*
X128102000Y-106176250D01*
X128260750Y-106335000D01*
X128550000Y-106338072D01*
X128674482Y-106325812D01*
X128794180Y-106289502D01*
X128904494Y-106230537D01*
X129001185Y-106151185D01*
X129066658Y-106071406D01*
X129072038Y-106077962D01*
X129206613Y-106188405D01*
X129360149Y-106270472D01*
X129526745Y-106321008D01*
X129699999Y-106338072D01*
X130288271Y-106338072D01*
X133461200Y-109511002D01*
X133484999Y-109540001D01*
X133600724Y-109634974D01*
X133732753Y-109705546D01*
X133876014Y-109749003D01*
X133987667Y-109760000D01*
X133987676Y-109760000D01*
X134024999Y-109763676D01*
X134062322Y-109760000D01*
X156685199Y-109760000D01*
X160403001Y-113477803D01*
X160403000Y-118427241D01*
X160360998Y-118505820D01*
X160324688Y-118625518D01*
X160312428Y-118750000D01*
X160312428Y-119250000D01*
X160324688Y-119374482D01*
X160360998Y-119494180D01*
X160419963Y-119604494D01*
X160499315Y-119701185D01*
X160546611Y-119740000D01*
X150157325Y-119740000D01*
X150120000Y-119736324D01*
X150082675Y-119740000D01*
X150082667Y-119740000D01*
X149971014Y-119750997D01*
X149827753Y-119794454D01*
X149695724Y-119865026D01*
X149579999Y-119959999D01*
X149556201Y-119988997D01*
X146388271Y-123156928D01*
X145700000Y-123156928D01*
X145546255Y-123172071D01*
X145398418Y-123216916D01*
X145262171Y-123289742D01*
X145142749Y-123387749D01*
X145044742Y-123507171D01*
X144971916Y-123643418D01*
X144927071Y-123791255D01*
X144911928Y-123945000D01*
X144911928Y-124245000D01*
X144927071Y-124398745D01*
X144971916Y-124546582D01*
X145003141Y-124605000D01*
X141329802Y-124605000D01*
X140738072Y-124013271D01*
X140738072Y-123400000D01*
X140725812Y-123275518D01*
X140689502Y-123155820D01*
X140630537Y-123045506D01*
X140551185Y-122948815D01*
X140454494Y-122869463D01*
X140344180Y-122810498D01*
X140224482Y-122774188D01*
X140100000Y-122761928D01*
X139486730Y-122761928D01*
X135213804Y-118489003D01*
X135190001Y-118459999D01*
X135074276Y-118365026D01*
X134942247Y-118294454D01*
X134798986Y-118250997D01*
X134687333Y-118240000D01*
X134687322Y-118240000D01*
X134650000Y-118236324D01*
X134612678Y-118240000D01*
X122488072Y-118240000D01*
X122488072Y-118150000D01*
X122475812Y-118025518D01*
X122439502Y-117905820D01*
X122380537Y-117795506D01*
X122301185Y-117698815D01*
X122204494Y-117619463D01*
X122094180Y-117560498D01*
X121974482Y-117524188D01*
X121850000Y-117511928D01*
X121128940Y-117511928D01*
X121277796Y-117363072D01*
X121375000Y-117363072D01*
X121548254Y-117346008D01*
X121714850Y-117295472D01*
X121868386Y-117213405D01*
X122002962Y-117102962D01*
X122113405Y-116968386D01*
X122195472Y-116814850D01*
X122246008Y-116648254D01*
X122263072Y-116475000D01*
X122263072Y-115525000D01*
X122246008Y-115351746D01*
X122195472Y-115185150D01*
X122113405Y-115031614D01*
X122002962Y-114897038D01*
X121868386Y-114786595D01*
X121714850Y-114704528D01*
X121548254Y-114653992D01*
X121375000Y-114636928D01*
X120700000Y-114636928D01*
X120526746Y-114653992D01*
X120360150Y-114704528D01*
X120206614Y-114786595D01*
X120072038Y-114897038D01*
X120066658Y-114903594D01*
X120001185Y-114823815D01*
X119904494Y-114744463D01*
X119794180Y-114685498D01*
X119674482Y-114649188D01*
X119550000Y-114636928D01*
X119248250Y-114640000D01*
X119089500Y-114798750D01*
X119089500Y-115873000D01*
X119109500Y-115873000D01*
X119109500Y-116127000D01*
X119089500Y-116127000D01*
X119089500Y-116147000D01*
X118835500Y-116147000D01*
X118835500Y-116127000D01*
X117898750Y-116127000D01*
X117740000Y-116285750D01*
X117736928Y-116725000D01*
X117749188Y-116849482D01*
X117785498Y-116969180D01*
X117844463Y-117079494D01*
X117923815Y-117176185D01*
X118020506Y-117255537D01*
X118130820Y-117314502D01*
X118250518Y-117350812D01*
X118375000Y-117363072D01*
X118676750Y-117360000D01*
X118835498Y-117201252D01*
X118835498Y-117360000D01*
X118919133Y-117360000D01*
X118737940Y-117541193D01*
X118606260Y-117515000D01*
X118313740Y-117515000D01*
X118026842Y-117572068D01*
X117756589Y-117684010D01*
X117513368Y-117846525D01*
X117306525Y-118053368D01*
X117144010Y-118296589D01*
X117032068Y-118566842D01*
X116975000Y-118853740D01*
X116975000Y-119146260D01*
X117032068Y-119433158D01*
X117144010Y-119703411D01*
X117306525Y-119946632D01*
X117513368Y-120153475D01*
X117625000Y-120228065D01*
X117625001Y-121194131D01*
X116157205Y-122661928D01*
X115842795Y-122661928D01*
X115699446Y-122518579D01*
X115673291Y-122486709D01*
X115546146Y-122382364D01*
X115401087Y-122304828D01*
X115243689Y-122257082D01*
X115121019Y-122245000D01*
X115121018Y-122245000D01*
X115080000Y-122240960D01*
X115038982Y-122245000D01*
X110748561Y-122245000D01*
X110714775Y-122163434D01*
X110503013Y-121846509D01*
X110233491Y-121576987D01*
X109916566Y-121365225D01*
X109564419Y-121219361D01*
X109190581Y-121145000D01*
X108809419Y-121145000D01*
X108435581Y-121219361D01*
X108083434Y-121365225D01*
X107766509Y-121576987D01*
X107496987Y-121846509D01*
X107285225Y-122163434D01*
X107139361Y-122515581D01*
X107065000Y-122889419D01*
X107065000Y-123270581D01*
X107139361Y-123644419D01*
X107285225Y-123996566D01*
X107496987Y-124313491D01*
X107766509Y-124583013D01*
X108083434Y-124794775D01*
X108435581Y-124940639D01*
X108809419Y-125015000D01*
X109190581Y-125015000D01*
X109564419Y-124940639D01*
X109916566Y-124794775D01*
X110233491Y-124583013D01*
X110503013Y-124313491D01*
X110714775Y-123996566D01*
X110748561Y-123915000D01*
X114734133Y-123915000D01*
X114761928Y-123942795D01*
X114761928Y-124450001D01*
X114778992Y-124623255D01*
X114829528Y-124789851D01*
X114911595Y-124943387D01*
X115022038Y-125077962D01*
X115156613Y-125188405D01*
X115310149Y-125270472D01*
X115476745Y-125321008D01*
X115649999Y-125338072D01*
X116350001Y-125338072D01*
X116523255Y-125321008D01*
X116689851Y-125270472D01*
X116843387Y-125188405D01*
X116977962Y-125077962D01*
X117000000Y-125051109D01*
X117022038Y-125077962D01*
X117156613Y-125188405D01*
X117310149Y-125270472D01*
X117476745Y-125321008D01*
X117649999Y-125338072D01*
X118350001Y-125338072D01*
X118523255Y-125321008D01*
X118689851Y-125270472D01*
X118843387Y-125188405D01*
X118977962Y-125077962D01*
X119088405Y-124943387D01*
X119170472Y-124789851D01*
X119221008Y-124623255D01*
X119238072Y-124450001D01*
X119238072Y-123836729D01*
X119715775Y-123359027D01*
X119699428Y-123525000D01*
X119699428Y-124475000D01*
X119716492Y-124648254D01*
X119767028Y-124814850D01*
X119849095Y-124968386D01*
X119959538Y-125102962D01*
X120094114Y-125213405D01*
X120165001Y-125251295D01*
X120165001Y-125887668D01*
X120161324Y-125925000D01*
X120165001Y-125962333D01*
X120175998Y-126073986D01*
X120188038Y-126113676D01*
X120219454Y-126217246D01*
X120290026Y-126349276D01*
X120349154Y-126421323D01*
X120385000Y-126465001D01*
X120413998Y-126488799D01*
X120592764Y-126667565D01*
X120476745Y-126678992D01*
X120310149Y-126729528D01*
X120156613Y-126811595D01*
X120022038Y-126922038D01*
X119911595Y-127056613D01*
X119829528Y-127210149D01*
X119778992Y-127376745D01*
X119761928Y-127549999D01*
X119761928Y-128450001D01*
X119778992Y-128623255D01*
X119829528Y-128789851D01*
X119911595Y-128943387D01*
X120022038Y-129077962D01*
X120156613Y-129188405D01*
X120240001Y-129232977D01*
X120240000Y-130767023D01*
X120156613Y-130811595D01*
X120022038Y-130922038D01*
X119911595Y-131056613D01*
X119829528Y-131210149D01*
X119778992Y-131376745D01*
X119761928Y-131549999D01*
X119761928Y-132450001D01*
X119778992Y-132623255D01*
X119829528Y-132789851D01*
X119911595Y-132943387D01*
X120022038Y-133077962D01*
X120156613Y-133188405D01*
X120310149Y-133270472D01*
X120476745Y-133321008D01*
X120649999Y-133338072D01*
X121350001Y-133338072D01*
X121523255Y-133321008D01*
X121689851Y-133270472D01*
X121843387Y-133188405D01*
X121977962Y-133077962D01*
X122000000Y-133051109D01*
X122022038Y-133077962D01*
X122156613Y-133188405D01*
X122240001Y-133232977D01*
X122240001Y-133647697D01*
X122150770Y-133736928D01*
X121525000Y-133736928D01*
X121351746Y-133753992D01*
X121185150Y-133804528D01*
X121031614Y-133886595D01*
X120897038Y-133997038D01*
X120786595Y-134131614D01*
X120704528Y-134285150D01*
X120653992Y-134451746D01*
X120636928Y-134625000D01*
X120636928Y-135165000D01*
X119314802Y-135165000D01*
X118797500Y-134647699D01*
X118797500Y-133251294D01*
X118868386Y-133213405D01*
X119002962Y-133102962D01*
X119113405Y-132968386D01*
X119195472Y-132814850D01*
X119246008Y-132648254D01*
X119263072Y-132475000D01*
X119263072Y-131525000D01*
X119246008Y-131351746D01*
X119195472Y-131185150D01*
X119113405Y-131031614D01*
X119002962Y-130897038D01*
X118868386Y-130786595D01*
X118714850Y-130704528D01*
X118548254Y-130653992D01*
X118398099Y-130639203D01*
X118511003Y-130526299D01*
X118540001Y-130502501D01*
X118566488Y-130470226D01*
X118634974Y-130386777D01*
X118705546Y-130254747D01*
X118712745Y-130231014D01*
X118749003Y-130111486D01*
X118760000Y-129999833D01*
X118760000Y-129999824D01*
X118763676Y-129962501D01*
X118760000Y-129925178D01*
X118760000Y-129232976D01*
X118843387Y-129188405D01*
X118977962Y-129077962D01*
X119088405Y-128943387D01*
X119170472Y-128789851D01*
X119221008Y-128623255D01*
X119238072Y-128450001D01*
X119238072Y-127549999D01*
X119221008Y-127376745D01*
X119170472Y-127210149D01*
X119088405Y-127056613D01*
X118977962Y-126922038D01*
X118843387Y-126811595D01*
X118689851Y-126729528D01*
X118523255Y-126678992D01*
X118350001Y-126661928D01*
X117649999Y-126661928D01*
X117476745Y-126678992D01*
X117310149Y-126729528D01*
X117156613Y-126811595D01*
X117075363Y-126878276D01*
X117051185Y-126848815D01*
X116954494Y-126769463D01*
X116844180Y-126710498D01*
X116724482Y-126674188D01*
X116600000Y-126661928D01*
X116285750Y-126665000D01*
X116127000Y-126823750D01*
X116127000Y-127873000D01*
X116147000Y-127873000D01*
X116147000Y-128127000D01*
X116127000Y-128127000D01*
X116127000Y-129176250D01*
X116285750Y-129335000D01*
X116600000Y-129338072D01*
X116724482Y-129325812D01*
X116844180Y-129289502D01*
X116954494Y-129230537D01*
X117051185Y-129151185D01*
X117075363Y-129121724D01*
X117156613Y-129188405D01*
X117240001Y-129232977D01*
X117240001Y-129647697D01*
X116250771Y-130636928D01*
X115625000Y-130636928D01*
X115451746Y-130653992D01*
X115285150Y-130704528D01*
X115131614Y-130786595D01*
X114997038Y-130897038D01*
X114886595Y-131031614D01*
X114804528Y-131185150D01*
X114753992Y-131351746D01*
X114736928Y-131525000D01*
X114736928Y-132150770D01*
X113107699Y-133780000D01*
X112057485Y-133780000D01*
X112010941Y-133710342D01*
X111829658Y-133529059D01*
X111616491Y-133386626D01*
X111379633Y-133288516D01*
X111286547Y-133270000D01*
X111379633Y-133251484D01*
X111616491Y-133153374D01*
X111829658Y-133010941D01*
X112010941Y-132829658D01*
X112153374Y-132616491D01*
X112251484Y-132379633D01*
X112301500Y-132128187D01*
X112301500Y-131871813D01*
X112251484Y-131620367D01*
X112153374Y-131383509D01*
X112010941Y-131170342D01*
X111829658Y-130989059D01*
X111616491Y-130846626D01*
X111379633Y-130748516D01*
X111128187Y-130698500D01*
X110871813Y-130698500D01*
X110620367Y-130748516D01*
X110383509Y-130846626D01*
X110170342Y-130989059D01*
X109989059Y-131170342D01*
X109846626Y-131383509D01*
X109748516Y-131620367D01*
X109698500Y-131871813D01*
X109698500Y-132128187D01*
X109748516Y-132379633D01*
X109846626Y-132616491D01*
X109989059Y-132829658D01*
X110170342Y-133010941D01*
X110383509Y-133153374D01*
X110620367Y-133251484D01*
X110713453Y-133270000D01*
X110620367Y-133288516D01*
X110383509Y-133386626D01*
X110170342Y-133529059D01*
X109989059Y-133710342D01*
X109846626Y-133923509D01*
X109748516Y-134160367D01*
X109698500Y-134411813D01*
X109698500Y-134668187D01*
X109748516Y-134919633D01*
X109846626Y-135156491D01*
X109989059Y-135369658D01*
X110170342Y-135550941D01*
X110383509Y-135693374D01*
X110620367Y-135791484D01*
X110871813Y-135841500D01*
X111128187Y-135841500D01*
X111379633Y-135791484D01*
X111616491Y-135693374D01*
X111829658Y-135550941D01*
X112010941Y-135369658D01*
X112057485Y-135300000D01*
X113385178Y-135300000D01*
X113422500Y-135303676D01*
X113459822Y-135300000D01*
X113459833Y-135300000D01*
X113571486Y-135289003D01*
X113714747Y-135245546D01*
X113846776Y-135174974D01*
X113962501Y-135080001D01*
X113986304Y-135050997D01*
X115674230Y-133363072D01*
X116300000Y-133363072D01*
X116473254Y-133346008D01*
X116639850Y-133295472D01*
X116793386Y-133213405D01*
X116927962Y-133102962D01*
X117000000Y-133015183D01*
X117072038Y-133102962D01*
X117206614Y-133213405D01*
X117277500Y-133251295D01*
X117277501Y-134925168D01*
X117273824Y-134962500D01*
X117277501Y-134999833D01*
X117281195Y-135037333D01*
X117288498Y-135111485D01*
X117331954Y-135254746D01*
X117402526Y-135386776D01*
X117473701Y-135473502D01*
X117497500Y-135502501D01*
X117526498Y-135526299D01*
X118436200Y-136436002D01*
X118459999Y-136465001D01*
X118575724Y-136559974D01*
X118707753Y-136630546D01*
X118851014Y-136674003D01*
X118900866Y-136678913D01*
X119000000Y-136688677D01*
X119009047Y-136687786D01*
X119004774Y-136698102D01*
X118965000Y-136898061D01*
X118965000Y-137101939D01*
X119004774Y-137301898D01*
X119082795Y-137490256D01*
X119196063Y-137659774D01*
X119340226Y-137803937D01*
X119509744Y-137917205D01*
X119698102Y-137995226D01*
X119898061Y-138035000D01*
X120101939Y-138035000D01*
X120301898Y-137995226D01*
X120490256Y-137917205D01*
X120557162Y-137872500D01*
X120789971Y-137872500D01*
X120897038Y-138002962D01*
X121031614Y-138113405D01*
X121185150Y-138195472D01*
X121351746Y-138246008D01*
X121525000Y-138263072D01*
X122475000Y-138263072D01*
X122648254Y-138246008D01*
X122814850Y-138195472D01*
X122968386Y-138113405D01*
X123102962Y-138002962D01*
X123213405Y-137868386D01*
X123295472Y-137714850D01*
X123346008Y-137548254D01*
X123363072Y-137375000D01*
X123363072Y-136700000D01*
X123361595Y-136685000D01*
X124797722Y-136685000D01*
X124829528Y-136789851D01*
X124911595Y-136943387D01*
X125022038Y-137077962D01*
X125156613Y-137188405D01*
X125310149Y-137270472D01*
X125476745Y-137321008D01*
X125649999Y-137338072D01*
X126350001Y-137338072D01*
X126523255Y-137321008D01*
X126689851Y-137270472D01*
X126843387Y-137188405D01*
X126924637Y-137121724D01*
X126948815Y-137151185D01*
X127045506Y-137230537D01*
X127155820Y-137289502D01*
X127275518Y-137325812D01*
X127400000Y-137338072D01*
X127714250Y-137335000D01*
X127873000Y-137176250D01*
X127873000Y-136127000D01*
X128127000Y-136127000D01*
X128127000Y-137176250D01*
X128285750Y-137335000D01*
X128600000Y-137338072D01*
X128724482Y-137325812D01*
X128844180Y-137289502D01*
X128954494Y-137230537D01*
X129051185Y-137151185D01*
X129130537Y-137054494D01*
X129189502Y-136944180D01*
X129225812Y-136824482D01*
X129238072Y-136700000D01*
X129235000Y-136285750D01*
X129076250Y-136127000D01*
X128127000Y-136127000D01*
X127873000Y-136127000D01*
X127853000Y-136127000D01*
X127853000Y-135873000D01*
X127873000Y-135873000D01*
X127873000Y-135853000D01*
X128127000Y-135853000D01*
X128127000Y-135873000D01*
X129076250Y-135873000D01*
X129235000Y-135714250D01*
X129238072Y-135300000D01*
X129225812Y-135175518D01*
X129189502Y-135055820D01*
X129130537Y-134945506D01*
X129051185Y-134848815D01*
X128954494Y-134769463D01*
X128936790Y-134760000D01*
X130685199Y-134760000D01*
X130943245Y-135018047D01*
X130911595Y-135056613D01*
X130829528Y-135210149D01*
X130778992Y-135376745D01*
X130761928Y-135549999D01*
X130761928Y-136450001D01*
X130778992Y-136623255D01*
X130829528Y-136789851D01*
X130911595Y-136943387D01*
X131022038Y-137077962D01*
X131156613Y-137188405D01*
X131310149Y-137270472D01*
X131476745Y-137321008D01*
X131649999Y-137338072D01*
X132350001Y-137338072D01*
X132523255Y-137321008D01*
X132689851Y-137270472D01*
X132843387Y-137188405D01*
X132977962Y-137077962D01*
X133000000Y-137051109D01*
X133022038Y-137077962D01*
X133156613Y-137188405D01*
X133310149Y-137270472D01*
X133476745Y-137321008D01*
X133649999Y-137338072D01*
X134350001Y-137338072D01*
X134523255Y-137321008D01*
X134689851Y-137270472D01*
X134843387Y-137188405D01*
X134977962Y-137077962D01*
X135088405Y-136943387D01*
X135170472Y-136789851D01*
X135221008Y-136623255D01*
X135238072Y-136450001D01*
X135238072Y-135866544D01*
X139645000Y-135866544D01*
X139645000Y-136133456D01*
X139697072Y-136395239D01*
X139799215Y-136641833D01*
X139947503Y-136863762D01*
X140136238Y-137052497D01*
X140358167Y-137200785D01*
X140604761Y-137302928D01*
X140866544Y-137355000D01*
X141133456Y-137355000D01*
X141395239Y-137302928D01*
X141641833Y-137200785D01*
X141863762Y-137052497D01*
X141980699Y-136935560D01*
X142784045Y-136935560D01*
X142845932Y-137171368D01*
X143087790Y-137284266D01*
X143347027Y-137347811D01*
X143613680Y-137359561D01*
X143877501Y-137319063D01*
X144128353Y-137227875D01*
X144234068Y-137171368D01*
X144295955Y-136935560D01*
X143540000Y-136179605D01*
X142784045Y-136935560D01*
X141980699Y-136935560D01*
X142052497Y-136863762D01*
X142200785Y-136641833D01*
X142270438Y-136473676D01*
X142312125Y-136588353D01*
X142368632Y-136694068D01*
X142604440Y-136755955D01*
X143360395Y-136000000D01*
X142604440Y-135244045D01*
X142368632Y-135305932D01*
X142268236Y-135521007D01*
X142200785Y-135358167D01*
X142052497Y-135136238D01*
X141980699Y-135064440D01*
X142784045Y-135064440D01*
X143540000Y-135820395D01*
X144295955Y-135064440D01*
X144234068Y-134828632D01*
X143992210Y-134715734D01*
X143732973Y-134652189D01*
X143466320Y-134640439D01*
X143202499Y-134680937D01*
X142951647Y-134772125D01*
X142845932Y-134828632D01*
X142784045Y-135064440D01*
X141980699Y-135064440D01*
X141863762Y-134947503D01*
X141641833Y-134799215D01*
X141395239Y-134697072D01*
X141133456Y-134645000D01*
X140866544Y-134645000D01*
X140604761Y-134697072D01*
X140358167Y-134799215D01*
X140136238Y-134947503D01*
X139947503Y-135136238D01*
X139799215Y-135358167D01*
X139697072Y-135604761D01*
X139645000Y-135866544D01*
X135238072Y-135866544D01*
X135238072Y-135549999D01*
X135221008Y-135376745D01*
X135170472Y-135210149D01*
X135088405Y-135056613D01*
X134977962Y-134922038D01*
X134843387Y-134811595D01*
X134689851Y-134729528D01*
X134523255Y-134678992D01*
X134350001Y-134661928D01*
X133842797Y-134661928D01*
X132023939Y-132843072D01*
X133300000Y-132843072D01*
X133453745Y-132827929D01*
X133601582Y-132783084D01*
X133737829Y-132710258D01*
X133857251Y-132612251D01*
X133955258Y-132492829D01*
X134028084Y-132356582D01*
X134072929Y-132208745D01*
X134088072Y-132055000D01*
X134088072Y-131755000D01*
X134072929Y-131601255D01*
X134028084Y-131453418D01*
X133955258Y-131317171D01*
X133916546Y-131270000D01*
X133955258Y-131222829D01*
X134028084Y-131086582D01*
X134072929Y-130938745D01*
X134088072Y-130785000D01*
X134088072Y-130485000D01*
X134072929Y-130331255D01*
X134028084Y-130183418D01*
X133955258Y-130047171D01*
X133916546Y-130000000D01*
X133955258Y-129952829D01*
X134028084Y-129816582D01*
X134072929Y-129668745D01*
X134088072Y-129515000D01*
X134088072Y-129215000D01*
X134072929Y-129061255D01*
X134028084Y-128913418D01*
X133956270Y-128779064D01*
X133980537Y-128749494D01*
X134006992Y-128700000D01*
X134761928Y-128700000D01*
X134774188Y-128824482D01*
X134810498Y-128944180D01*
X134869463Y-129054494D01*
X134948815Y-129151185D01*
X135045506Y-129230537D01*
X135155820Y-129289502D01*
X135275518Y-129325812D01*
X135400000Y-129338072D01*
X135714250Y-129335000D01*
X135873000Y-129176250D01*
X135873000Y-128127000D01*
X134923750Y-128127000D01*
X134765000Y-128285750D01*
X134761928Y-128700000D01*
X134006992Y-128700000D01*
X134039502Y-128639180D01*
X134075812Y-128519482D01*
X134088072Y-128395000D01*
X134085000Y-128380750D01*
X133926250Y-128222000D01*
X132602000Y-128222000D01*
X132602000Y-128242000D01*
X132348000Y-128242000D01*
X132348000Y-128222000D01*
X131023750Y-128222000D01*
X130865000Y-128380750D01*
X130861928Y-128395000D01*
X130874188Y-128519482D01*
X130910498Y-128639180D01*
X130969463Y-128749494D01*
X130993730Y-128779064D01*
X130921916Y-128913418D01*
X130877071Y-129061255D01*
X130861928Y-129215000D01*
X130861928Y-129515000D01*
X130877071Y-129668745D01*
X130921916Y-129816582D01*
X130994742Y-129952829D01*
X131033454Y-130000000D01*
X130994742Y-130047171D01*
X130921916Y-130183418D01*
X130877071Y-130331255D01*
X130861928Y-130485000D01*
X130861928Y-130785000D01*
X130877071Y-130938745D01*
X130921916Y-131086582D01*
X130994742Y-131222829D01*
X131033454Y-131270000D01*
X130994742Y-131317171D01*
X130921916Y-131453418D01*
X130877071Y-131601255D01*
X130869201Y-131681159D01*
X130696888Y-131609784D01*
X130496929Y-131570010D01*
X130293051Y-131570010D01*
X130093092Y-131609784D01*
X129904734Y-131687805D01*
X129781705Y-131770010D01*
X129138072Y-131770010D01*
X129138072Y-131755000D01*
X129122929Y-131601255D01*
X129078084Y-131453418D01*
X129005258Y-131317171D01*
X128966546Y-131270000D01*
X129005258Y-131222829D01*
X129078084Y-131086582D01*
X129122929Y-130938745D01*
X129138072Y-130785000D01*
X129138072Y-130485000D01*
X129122929Y-130331255D01*
X129078084Y-130183418D01*
X129005258Y-130047171D01*
X128966546Y-130000000D01*
X129005258Y-129952829D01*
X129078084Y-129816582D01*
X129122929Y-129668745D01*
X129138072Y-129515000D01*
X129138072Y-129215000D01*
X129122929Y-129061255D01*
X129078084Y-128913418D01*
X129005258Y-128777171D01*
X128966546Y-128730000D01*
X129005258Y-128682829D01*
X129078084Y-128546582D01*
X129122929Y-128398745D01*
X129138072Y-128245000D01*
X129138072Y-127945000D01*
X129123298Y-127795000D01*
X130861928Y-127795000D01*
X130865000Y-127809250D01*
X131023750Y-127968000D01*
X132348000Y-127968000D01*
X132348000Y-127318750D01*
X132602000Y-127318750D01*
X132602000Y-127968000D01*
X133926250Y-127968000D01*
X134085000Y-127809250D01*
X134088072Y-127795000D01*
X134075812Y-127670518D01*
X134039502Y-127550820D01*
X133980537Y-127440506D01*
X133901185Y-127343815D01*
X133847797Y-127300000D01*
X134761928Y-127300000D01*
X134765000Y-127714250D01*
X134923750Y-127873000D01*
X135873000Y-127873000D01*
X135873000Y-126823750D01*
X135714250Y-126665000D01*
X135400000Y-126661928D01*
X135275518Y-126674188D01*
X135155820Y-126710498D01*
X135045506Y-126769463D01*
X134948815Y-126848815D01*
X134869463Y-126945506D01*
X134810498Y-127055820D01*
X134774188Y-127175518D01*
X134761928Y-127300000D01*
X133847797Y-127300000D01*
X133804494Y-127264463D01*
X133694180Y-127205498D01*
X133574482Y-127169188D01*
X133450000Y-127156928D01*
X132760750Y-127160000D01*
X132602000Y-127318750D01*
X132348000Y-127318750D01*
X132189250Y-127160000D01*
X131500000Y-127156928D01*
X131375518Y-127169188D01*
X131255820Y-127205498D01*
X131145506Y-127264463D01*
X131048815Y-127343815D01*
X130969463Y-127440506D01*
X130910498Y-127550820D01*
X130874188Y-127670518D01*
X130861928Y-127795000D01*
X129123298Y-127795000D01*
X129122929Y-127791255D01*
X129078084Y-127643418D01*
X129005258Y-127507171D01*
X128907251Y-127387749D01*
X128787829Y-127289742D01*
X128651582Y-127216916D01*
X128503745Y-127172071D01*
X128350000Y-127156928D01*
X126700000Y-127156928D01*
X126546255Y-127172071D01*
X126398418Y-127216916D01*
X126355231Y-127240000D01*
X124179527Y-127240000D01*
X124170472Y-127210149D01*
X124088405Y-127056613D01*
X123977962Y-126922038D01*
X123843387Y-126811595D01*
X123689851Y-126729528D01*
X123523255Y-126678992D01*
X123350001Y-126661928D01*
X122736730Y-126661928D01*
X121685000Y-125610199D01*
X121685000Y-125251294D01*
X121755886Y-125213405D01*
X121890462Y-125102962D01*
X121962500Y-125015183D01*
X122034538Y-125102962D01*
X122169114Y-125213405D01*
X122322650Y-125295472D01*
X122489246Y-125346008D01*
X122662500Y-125363072D01*
X123337500Y-125363072D01*
X123510754Y-125346008D01*
X123677350Y-125295472D01*
X123830886Y-125213405D01*
X123965462Y-125102962D01*
X124075905Y-124968386D01*
X124157972Y-124814850D01*
X124174610Y-124760000D01*
X124820473Y-124760000D01*
X124829528Y-124789851D01*
X124911595Y-124943387D01*
X125022038Y-125077962D01*
X125156613Y-125188405D01*
X125310149Y-125270472D01*
X125476745Y-125321008D01*
X125649999Y-125338072D01*
X126350001Y-125338072D01*
X126523255Y-125321008D01*
X126689851Y-125270472D01*
X126843387Y-125188405D01*
X126977962Y-125077962D01*
X127000000Y-125051109D01*
X127022038Y-125077962D01*
X127156613Y-125188405D01*
X127310149Y-125270472D01*
X127476745Y-125321008D01*
X127649999Y-125338072D01*
X128263270Y-125338072D01*
X128436201Y-125511003D01*
X128459999Y-125540001D01*
X128488997Y-125563799D01*
X128575724Y-125634974D01*
X128707753Y-125705546D01*
X128851014Y-125749003D01*
X129000000Y-125763677D01*
X129037333Y-125760000D01*
X130095680Y-125760000D01*
X130119463Y-125804494D01*
X130198815Y-125901185D01*
X130295506Y-125980537D01*
X130405820Y-126039502D01*
X130525518Y-126075812D01*
X130650000Y-126088072D01*
X131450000Y-126088072D01*
X131574482Y-126075812D01*
X131694180Y-126039502D01*
X131804494Y-125980537D01*
X131901185Y-125901185D01*
X131980537Y-125804494D01*
X132000000Y-125768082D01*
X132019463Y-125804494D01*
X132098815Y-125901185D01*
X132195506Y-125980537D01*
X132305820Y-126039502D01*
X132425518Y-126075812D01*
X132550000Y-126088072D01*
X133350000Y-126088072D01*
X133474482Y-126075812D01*
X133594180Y-126039502D01*
X133704494Y-125980537D01*
X133801185Y-125901185D01*
X133855501Y-125835000D01*
X134386715Y-125835000D01*
X134509744Y-125917205D01*
X134698102Y-125995226D01*
X134898061Y-126035000D01*
X135101939Y-126035000D01*
X135301898Y-125995226D01*
X135490256Y-125917205D01*
X135659774Y-125803937D01*
X135803937Y-125659774D01*
X135917205Y-125490256D01*
X135995226Y-125301898D01*
X136007922Y-125238072D01*
X136513270Y-125238072D01*
X137240001Y-125964804D01*
X137240001Y-126767023D01*
X137156613Y-126811595D01*
X137075363Y-126878276D01*
X137051185Y-126848815D01*
X136954494Y-126769463D01*
X136844180Y-126710498D01*
X136724482Y-126674188D01*
X136600000Y-126661928D01*
X136285750Y-126665000D01*
X136127000Y-126823750D01*
X136127000Y-127873000D01*
X136147000Y-127873000D01*
X136147000Y-128127000D01*
X136127000Y-128127000D01*
X136127000Y-129176250D01*
X136285750Y-129335000D01*
X136600000Y-129338072D01*
X136724482Y-129325812D01*
X136844180Y-129289502D01*
X136954494Y-129230537D01*
X137051185Y-129151185D01*
X137075363Y-129121724D01*
X137156613Y-129188405D01*
X137310149Y-129270472D01*
X137476745Y-129321008D01*
X137649999Y-129338072D01*
X138350001Y-129338072D01*
X138523255Y-129321008D01*
X138689851Y-129270472D01*
X138843387Y-129188405D01*
X138977962Y-129077962D01*
X139088405Y-128943387D01*
X139170472Y-128789851D01*
X139221008Y-128623255D01*
X139238072Y-128450001D01*
X139238072Y-127549999D01*
X139221008Y-127376745D01*
X139170472Y-127210149D01*
X139088405Y-127056613D01*
X138977962Y-126922038D01*
X138843387Y-126811595D01*
X138760000Y-126767024D01*
X138760000Y-125687322D01*
X138763676Y-125649999D01*
X138760000Y-125612676D01*
X138760000Y-125612667D01*
X138749003Y-125501014D01*
X138705546Y-125357753D01*
X138634974Y-125225724D01*
X138614694Y-125201013D01*
X138563799Y-125138996D01*
X138563795Y-125138992D01*
X138540001Y-125109999D01*
X138511008Y-125086205D01*
X137438072Y-124013270D01*
X137438072Y-123400000D01*
X137425812Y-123275518D01*
X137389502Y-123155820D01*
X137330537Y-123045506D01*
X137251185Y-122948815D01*
X137154494Y-122869463D01*
X137044180Y-122810498D01*
X136924482Y-122774188D01*
X136800000Y-122761928D01*
X136186729Y-122761928D01*
X135913804Y-122489002D01*
X135890001Y-122459999D01*
X135774276Y-122365026D01*
X135642247Y-122294454D01*
X135498986Y-122250997D01*
X135387333Y-122240000D01*
X135387322Y-122240000D01*
X135350000Y-122236324D01*
X135312678Y-122240000D01*
X132954320Y-122240000D01*
X132930537Y-122195506D01*
X132851185Y-122098815D01*
X132754494Y-122019463D01*
X132644180Y-121960498D01*
X132524482Y-121924188D01*
X132400000Y-121911928D01*
X131600000Y-121911928D01*
X131475518Y-121924188D01*
X131355820Y-121960498D01*
X131245506Y-122019463D01*
X131148815Y-122098815D01*
X131069463Y-122195506D01*
X131010498Y-122305820D01*
X130974188Y-122425518D01*
X130961928Y-122550000D01*
X130961928Y-123450000D01*
X130974188Y-123574482D01*
X131010498Y-123694180D01*
X131069463Y-123804494D01*
X131148815Y-123901185D01*
X131161905Y-123911928D01*
X130650000Y-123911928D01*
X130525518Y-123924188D01*
X130405820Y-123960498D01*
X130295506Y-124019463D01*
X130198815Y-124098815D01*
X130119463Y-124195506D01*
X130095680Y-124240000D01*
X129314802Y-124240000D01*
X129238072Y-124163270D01*
X129238072Y-123549999D01*
X129221008Y-123376745D01*
X129170472Y-123210149D01*
X129088405Y-123056613D01*
X128977962Y-122922038D01*
X128843387Y-122811595D01*
X128689851Y-122729528D01*
X128523255Y-122678992D01*
X128350001Y-122661928D01*
X127649999Y-122661928D01*
X127476745Y-122678992D01*
X127310149Y-122729528D01*
X127156613Y-122811595D01*
X127022038Y-122922038D01*
X127000000Y-122948891D01*
X126977962Y-122922038D01*
X126843387Y-122811595D01*
X126689851Y-122729528D01*
X126523255Y-122678992D01*
X126350001Y-122661928D01*
X125649999Y-122661928D01*
X125476745Y-122678992D01*
X125310149Y-122729528D01*
X125156613Y-122811595D01*
X125022038Y-122922038D01*
X124911595Y-123056613D01*
X124829528Y-123210149D01*
X124820473Y-123240000D01*
X124174610Y-123240000D01*
X124157972Y-123185150D01*
X124075905Y-123031614D01*
X123965462Y-122897038D01*
X123830886Y-122786595D01*
X123709835Y-122721892D01*
X123705546Y-122707753D01*
X123634974Y-122575724D01*
X123563799Y-122488997D01*
X123540001Y-122459999D01*
X123511003Y-122436201D01*
X122563804Y-121489002D01*
X122540001Y-121459999D01*
X122424276Y-121365026D01*
X122292247Y-121294454D01*
X122148986Y-121250997D01*
X122037333Y-121240000D01*
X122037322Y-121240000D01*
X122000000Y-121236324D01*
X121962678Y-121240000D01*
X120037322Y-121240000D01*
X119999999Y-121236324D01*
X119962676Y-121240000D01*
X119962667Y-121240000D01*
X119851014Y-121250997D01*
X119737614Y-121285396D01*
X119707753Y-121294454D01*
X119575723Y-121365026D01*
X119498191Y-121428656D01*
X119459999Y-121459999D01*
X119436201Y-121488997D01*
X119289627Y-121635571D01*
X119295000Y-121581019D01*
X119295000Y-121581009D01*
X119299039Y-121540001D01*
X119295000Y-121498993D01*
X119295000Y-120228065D01*
X119406632Y-120153475D01*
X119538487Y-120021620D01*
X119560498Y-120094180D01*
X119619463Y-120204494D01*
X119698815Y-120301185D01*
X119795506Y-120380537D01*
X119905820Y-120439502D01*
X120025518Y-120475812D01*
X120150000Y-120488072D01*
X121850000Y-120488072D01*
X121974482Y-120475812D01*
X122094180Y-120439502D01*
X122204494Y-120380537D01*
X122301185Y-120301185D01*
X122380537Y-120204494D01*
X122439502Y-120094180D01*
X122475812Y-119974482D01*
X122488072Y-119850000D01*
X122488072Y-119760000D01*
X134335199Y-119760000D01*
X138561928Y-123986730D01*
X138561928Y-124600000D01*
X138574188Y-124724482D01*
X138610498Y-124844180D01*
X138669463Y-124954494D01*
X138748815Y-125051185D01*
X138845506Y-125130537D01*
X138955820Y-125189502D01*
X139075518Y-125225812D01*
X139200000Y-125238072D01*
X139813270Y-125238072D01*
X140240001Y-125664803D01*
X140240000Y-126767023D01*
X140156613Y-126811595D01*
X140022038Y-126922038D01*
X139911595Y-127056613D01*
X139829528Y-127210149D01*
X139778992Y-127376745D01*
X139761928Y-127549999D01*
X139761928Y-128450001D01*
X139778992Y-128623255D01*
X139829528Y-128789851D01*
X139911595Y-128943387D01*
X140022038Y-129077962D01*
X140156613Y-129188405D01*
X140240001Y-129232977D01*
X140240000Y-130748705D01*
X140169114Y-130786595D01*
X140034538Y-130897038D01*
X139924095Y-131031614D01*
X139842028Y-131185150D01*
X139791492Y-131351746D01*
X139774428Y-131525000D01*
X139774428Y-132475000D01*
X139791492Y-132648254D01*
X139842028Y-132814850D01*
X139924095Y-132968386D01*
X140034538Y-133102962D01*
X140169114Y-133213405D01*
X140322650Y-133295472D01*
X140489246Y-133346008D01*
X140662500Y-133363072D01*
X141337500Y-133363072D01*
X141510754Y-133346008D01*
X141677350Y-133295472D01*
X141830886Y-133213405D01*
X141965462Y-133102962D01*
X142037500Y-133015183D01*
X142109538Y-133102962D01*
X142244114Y-133213405D01*
X142397650Y-133295472D01*
X142564246Y-133346008D01*
X142737500Y-133363072D01*
X143412500Y-133363072D01*
X143585754Y-133346008D01*
X143752350Y-133295472D01*
X143905886Y-133213405D01*
X144040462Y-133102962D01*
X144150905Y-132968386D01*
X144232972Y-132814850D01*
X144283508Y-132648254D01*
X144300572Y-132475000D01*
X144300572Y-131525000D01*
X144283508Y-131351746D01*
X144232972Y-131185150D01*
X144150905Y-131031614D01*
X144040462Y-130897038D01*
X143960000Y-130831005D01*
X143960000Y-129092703D01*
X143977962Y-129077962D01*
X144088405Y-128943387D01*
X144146339Y-128835000D01*
X145618046Y-128835000D01*
X145690001Y-128842087D01*
X145690000Y-130483981D01*
X145685960Y-130525000D01*
X145690000Y-130566018D01*
X145702082Y-130688688D01*
X145749828Y-130846086D01*
X145827364Y-130991145D01*
X145931709Y-131118291D01*
X145963579Y-131144446D01*
X147975908Y-133156776D01*
X148004774Y-133301898D01*
X148082795Y-133490256D01*
X148196063Y-133659774D01*
X148340226Y-133803937D01*
X148509744Y-133917205D01*
X148698102Y-133995226D01*
X148843225Y-134024093D01*
X150761928Y-135942797D01*
X150761928Y-136450001D01*
X150778992Y-136623255D01*
X150829528Y-136789851D01*
X150911595Y-136943387D01*
X151022038Y-137077962D01*
X151156613Y-137188405D01*
X151253140Y-137240000D01*
X148394802Y-137240000D01*
X147410654Y-136255852D01*
X147435000Y-136133456D01*
X147435000Y-135866544D01*
X147382928Y-135604761D01*
X147280785Y-135358167D01*
X147132497Y-135136238D01*
X146943762Y-134947503D01*
X146721833Y-134799215D01*
X146475239Y-134697072D01*
X146213456Y-134645000D01*
X145946544Y-134645000D01*
X145684761Y-134697072D01*
X145438167Y-134799215D01*
X145216238Y-134947503D01*
X145027503Y-135136238D01*
X144879215Y-135358167D01*
X144809562Y-135526324D01*
X144767875Y-135411647D01*
X144711368Y-135305932D01*
X144475560Y-135244045D01*
X143719605Y-136000000D01*
X144475560Y-136755955D01*
X144711368Y-136694068D01*
X144811764Y-136478993D01*
X144879215Y-136641833D01*
X145027503Y-136863762D01*
X145216238Y-137052497D01*
X145438167Y-137200785D01*
X145684761Y-137302928D01*
X145946544Y-137355000D01*
X146213456Y-137355000D01*
X146335852Y-137330654D01*
X147345198Y-138340000D01*
X106032279Y-138340000D01*
X105546106Y-138292330D01*
X105109503Y-138160512D01*
X104706814Y-137946399D01*
X104353387Y-137658150D01*
X104062673Y-137306739D01*
X103845760Y-136905564D01*
X103710894Y-136469886D01*
X103660000Y-135985664D01*
X103660000Y-128700000D01*
X114761928Y-128700000D01*
X114774188Y-128824482D01*
X114810498Y-128944180D01*
X114869463Y-129054494D01*
X114948815Y-129151185D01*
X115045506Y-129230537D01*
X115155820Y-129289502D01*
X115275518Y-129325812D01*
X115400000Y-129338072D01*
X115714250Y-129335000D01*
X115873000Y-129176250D01*
X115873000Y-128127000D01*
X114923750Y-128127000D01*
X114765000Y-128285750D01*
X114761928Y-128700000D01*
X103660000Y-128700000D01*
X103660000Y-127300000D01*
X114761928Y-127300000D01*
X114765000Y-127714250D01*
X114923750Y-127873000D01*
X115873000Y-127873000D01*
X115873000Y-126823750D01*
X115714250Y-126665000D01*
X115400000Y-126661928D01*
X115275518Y-126674188D01*
X115155820Y-126710498D01*
X115045506Y-126769463D01*
X114948815Y-126848815D01*
X114869463Y-126945506D01*
X114810498Y-127055820D01*
X114774188Y-127175518D01*
X114761928Y-127300000D01*
X103660000Y-127300000D01*
X103660000Y-119300000D01*
X107061928Y-119300000D01*
X107074188Y-119424482D01*
X107110498Y-119544180D01*
X107169463Y-119654494D01*
X107248815Y-119751185D01*
X107345506Y-119830537D01*
X107455820Y-119889502D01*
X107575518Y-119925812D01*
X107700000Y-119938072D01*
X108714250Y-119935000D01*
X108873000Y-119776250D01*
X108873000Y-118127000D01*
X109127000Y-118127000D01*
X109127000Y-119776250D01*
X109285750Y-119935000D01*
X110300000Y-119938072D01*
X110424482Y-119925812D01*
X110544180Y-119889502D01*
X110654494Y-119830537D01*
X110751185Y-119751185D01*
X110830537Y-119654494D01*
X110889502Y-119544180D01*
X110925812Y-119424482D01*
X110938072Y-119300000D01*
X110935000Y-118285750D01*
X110776250Y-118127000D01*
X109127000Y-118127000D01*
X108873000Y-118127000D01*
X107223750Y-118127000D01*
X107065000Y-118285750D01*
X107061928Y-119300000D01*
X103660000Y-119300000D01*
X103660000Y-116700000D01*
X107061928Y-116700000D01*
X107065000Y-117714250D01*
X107223750Y-117873000D01*
X108873000Y-117873000D01*
X108873000Y-116223750D01*
X109127000Y-116223750D01*
X109127000Y-117873000D01*
X110776250Y-117873000D01*
X110935000Y-117714250D01*
X110938072Y-116700000D01*
X110925812Y-116575518D01*
X110889502Y-116455820D01*
X110830537Y-116345506D01*
X110751185Y-116248815D01*
X110654494Y-116169463D01*
X110544180Y-116110498D01*
X110424482Y-116074188D01*
X110300000Y-116061928D01*
X109285750Y-116065000D01*
X109127000Y-116223750D01*
X108873000Y-116223750D01*
X108714250Y-116065000D01*
X107700000Y-116061928D01*
X107575518Y-116074188D01*
X107455820Y-116110498D01*
X107345506Y-116169463D01*
X107248815Y-116248815D01*
X107169463Y-116345506D01*
X107110498Y-116455820D01*
X107074188Y-116575518D01*
X107061928Y-116700000D01*
X103660000Y-116700000D01*
X103660000Y-115275000D01*
X117736928Y-115275000D01*
X117740000Y-115714250D01*
X117898750Y-115873000D01*
X118835500Y-115873000D01*
X118835500Y-114798750D01*
X118676750Y-114640000D01*
X118375000Y-114636928D01*
X118250518Y-114649188D01*
X118130820Y-114685498D01*
X118020506Y-114744463D01*
X117923815Y-114823815D01*
X117844463Y-114920506D01*
X117785498Y-115030820D01*
X117749188Y-115150518D01*
X117736928Y-115275000D01*
X103660000Y-115275000D01*
X103660000Y-105700000D01*
X126761928Y-105700000D01*
X126774188Y-105824482D01*
X126810498Y-105944180D01*
X126869463Y-106054494D01*
X126948815Y-106151185D01*
X127045506Y-106230537D01*
X127155820Y-106289502D01*
X127275518Y-106325812D01*
X127400000Y-106338072D01*
X127689250Y-106335000D01*
X127848000Y-106176250D01*
X127848000Y-105127000D01*
X126923750Y-105127000D01*
X126765000Y-105285750D01*
X126761928Y-105700000D01*
X103660000Y-105700000D01*
X103660000Y-104300000D01*
X126761928Y-104300000D01*
X126765000Y-104714250D01*
X126923750Y-104873000D01*
X127848000Y-104873000D01*
X127848000Y-103823750D01*
X127689250Y-103665000D01*
X127400000Y-103661928D01*
X127275518Y-103674188D01*
X127155820Y-103710498D01*
X127045506Y-103769463D01*
X126948815Y-103848815D01*
X126869463Y-103945506D01*
X126810498Y-104055820D01*
X126774188Y-104175518D01*
X126761928Y-104300000D01*
X103660000Y-104300000D01*
X103660000Y-94700000D01*
X132761928Y-94700000D01*
X132774188Y-94824482D01*
X132810498Y-94944180D01*
X132869463Y-95054494D01*
X132948815Y-95151185D01*
X133045506Y-95230537D01*
X133155820Y-95289502D01*
X133275518Y-95325812D01*
X133400000Y-95338072D01*
X133689250Y-95335000D01*
X133848000Y-95176250D01*
X133848000Y-94127000D01*
X132923750Y-94127000D01*
X132765000Y-94285750D01*
X132761928Y-94700000D01*
X103660000Y-94700000D01*
X103660000Y-93300000D01*
X132761928Y-93300000D01*
X132765000Y-93714250D01*
X132923750Y-93873000D01*
X133848000Y-93873000D01*
X133848000Y-92823750D01*
X133689250Y-92665000D01*
X133400000Y-92661928D01*
X133275518Y-92674188D01*
X133155820Y-92710498D01*
X133045506Y-92769463D01*
X132948815Y-92848815D01*
X132869463Y-92945506D01*
X132810498Y-93055820D01*
X132774188Y-93175518D01*
X132761928Y-93300000D01*
X103660000Y-93300000D01*
X103660000Y-85700000D01*
X134761928Y-85700000D01*
X134774188Y-85824482D01*
X134810498Y-85944180D01*
X134869463Y-86054494D01*
X134948815Y-86151185D01*
X135045506Y-86230537D01*
X135155820Y-86289502D01*
X135275518Y-86325812D01*
X135400000Y-86338072D01*
X135689250Y-86335000D01*
X135848000Y-86176250D01*
X135848000Y-85127000D01*
X134923750Y-85127000D01*
X134765000Y-85285750D01*
X134761928Y-85700000D01*
X103660000Y-85700000D01*
X103660000Y-84300000D01*
X134761928Y-84300000D01*
X134765000Y-84714250D01*
X134923750Y-84873000D01*
X135848000Y-84873000D01*
X135848000Y-83823750D01*
X135689250Y-83665000D01*
X135400000Y-83661928D01*
X135275518Y-83674188D01*
X135155820Y-83710498D01*
X135045506Y-83769463D01*
X134948815Y-83848815D01*
X134869463Y-83945506D01*
X134810498Y-84055820D01*
X134774188Y-84175518D01*
X134761928Y-84300000D01*
X103660000Y-84300000D01*
X103660000Y-77700000D01*
X140736928Y-77700000D01*
X140749188Y-77824482D01*
X140785498Y-77944180D01*
X140844463Y-78054494D01*
X140923815Y-78151185D01*
X141020506Y-78230537D01*
X141130820Y-78289502D01*
X141250518Y-78325812D01*
X141375000Y-78338072D01*
X141664250Y-78335000D01*
X141823000Y-78176250D01*
X141823000Y-77127000D01*
X140898750Y-77127000D01*
X140740000Y-77285750D01*
X140736928Y-77700000D01*
X103660000Y-77700000D01*
X103660000Y-76300000D01*
X140736928Y-76300000D01*
X140740000Y-76714250D01*
X140898750Y-76873000D01*
X141823000Y-76873000D01*
X141823000Y-75823750D01*
X141664250Y-75665000D01*
X141375000Y-75661928D01*
X141250518Y-75674188D01*
X141130820Y-75710498D01*
X141020506Y-75769463D01*
X140923815Y-75848815D01*
X140844463Y-75945506D01*
X140785498Y-76055820D01*
X140749188Y-76175518D01*
X140736928Y-76300000D01*
X103660000Y-76300000D01*
X103660000Y-68700000D01*
X140761928Y-68700000D01*
X140774188Y-68824482D01*
X140810498Y-68944180D01*
X140869463Y-69054494D01*
X140948815Y-69151185D01*
X141045506Y-69230537D01*
X141155820Y-69289502D01*
X141275518Y-69325812D01*
X141400000Y-69338072D01*
X141689250Y-69335000D01*
X141848000Y-69176250D01*
X141848000Y-68127000D01*
X140923750Y-68127000D01*
X140765000Y-68285750D01*
X140761928Y-68700000D01*
X103660000Y-68700000D01*
X103660000Y-67300000D01*
X140761928Y-67300000D01*
X140765000Y-67714250D01*
X140923750Y-67873000D01*
X141848000Y-67873000D01*
X141848000Y-66823750D01*
X141689250Y-66665000D01*
X141400000Y-66661928D01*
X141275518Y-66674188D01*
X141155820Y-66710498D01*
X141045506Y-66769463D01*
X140948815Y-66848815D01*
X140869463Y-66945506D01*
X140810498Y-67055820D01*
X140774188Y-67175518D01*
X140761928Y-67300000D01*
X103660000Y-67300000D01*
X103660000Y-42032279D01*
X103707670Y-41546107D01*
X103839489Y-41109502D01*
X104053600Y-40706815D01*
X104341848Y-40353388D01*
X104693261Y-40062673D01*
X105094439Y-39845758D01*
X105530113Y-39710894D01*
X106014344Y-39660000D01*
X179967721Y-39660000D01*
X180453893Y-39707670D01*
G37*
G04 #@! TD.AperFunction*
D24*
X152489002Y-121586198D02*
X152459999Y-121610001D01*
X152405498Y-121676411D01*
X152365026Y-121725726D01*
X152312495Y-121824004D01*
X152294454Y-121857756D01*
X152250997Y-122001017D01*
X152240000Y-122112670D01*
X152240000Y-122112680D01*
X152236324Y-122150002D01*
X152240000Y-122187325D01*
X152240000Y-123157864D01*
X151760750Y-123160000D01*
X151602000Y-123318750D01*
X151602000Y-123968000D01*
X151622000Y-123968000D01*
X151622000Y-124222000D01*
X151602000Y-124222000D01*
X151602000Y-124242000D01*
X151348000Y-124242000D01*
X151348000Y-124222000D01*
X150023750Y-124222000D01*
X149865000Y-124380750D01*
X149861928Y-124395000D01*
X149874188Y-124519482D01*
X149910498Y-124639180D01*
X149969463Y-124749494D01*
X149993730Y-124779064D01*
X149921916Y-124913418D01*
X149877071Y-125061255D01*
X149861928Y-125215000D01*
X149861928Y-125515000D01*
X149877071Y-125668745D01*
X149921916Y-125816582D01*
X149953141Y-125875000D01*
X149084802Y-125875000D01*
X148063804Y-124854003D01*
X148040001Y-124824999D01*
X148023650Y-124811580D01*
X148005258Y-124777171D01*
X147966546Y-124730000D01*
X148005258Y-124682829D01*
X148078084Y-124546582D01*
X148122929Y-124398745D01*
X148138072Y-124245000D01*
X148138072Y-123945000D01*
X148123298Y-123795000D01*
X149861928Y-123795000D01*
X149865000Y-123809250D01*
X150023750Y-123968000D01*
X151348000Y-123968000D01*
X151348000Y-123318750D01*
X151189250Y-123160000D01*
X150500000Y-123156928D01*
X150375518Y-123169188D01*
X150255820Y-123205498D01*
X150145506Y-123264463D01*
X150048815Y-123343815D01*
X149969463Y-123440506D01*
X149910498Y-123550820D01*
X149874188Y-123670518D01*
X149861928Y-123795000D01*
X148123298Y-123795000D01*
X148122929Y-123791255D01*
X148078084Y-123643418D01*
X148068783Y-123626018D01*
X150434802Y-121260000D01*
X152815201Y-121260000D01*
X152489002Y-121586198D01*
G04 #@! TA.AperFunction,Conductor*
D25*
G36*
X152489002Y-121586198D02*
G01*
X152459999Y-121610001D01*
X152405498Y-121676411D01*
X152365026Y-121725726D01*
X152312495Y-121824004D01*
X152294454Y-121857756D01*
X152250997Y-122001017D01*
X152240000Y-122112670D01*
X152240000Y-122112680D01*
X152236324Y-122150002D01*
X152240000Y-122187325D01*
X152240000Y-123157864D01*
X151760750Y-123160000D01*
X151602000Y-123318750D01*
X151602000Y-123968000D01*
X151622000Y-123968000D01*
X151622000Y-124222000D01*
X151602000Y-124222000D01*
X151602000Y-124242000D01*
X151348000Y-124242000D01*
X151348000Y-124222000D01*
X150023750Y-124222000D01*
X149865000Y-124380750D01*
X149861928Y-124395000D01*
X149874188Y-124519482D01*
X149910498Y-124639180D01*
X149969463Y-124749494D01*
X149993730Y-124779064D01*
X149921916Y-124913418D01*
X149877071Y-125061255D01*
X149861928Y-125215000D01*
X149861928Y-125515000D01*
X149877071Y-125668745D01*
X149921916Y-125816582D01*
X149953141Y-125875000D01*
X149084802Y-125875000D01*
X148063804Y-124854003D01*
X148040001Y-124824999D01*
X148023650Y-124811580D01*
X148005258Y-124777171D01*
X147966546Y-124730000D01*
X148005258Y-124682829D01*
X148078084Y-124546582D01*
X148122929Y-124398745D01*
X148138072Y-124245000D01*
X148138072Y-123945000D01*
X148123298Y-123795000D01*
X149861928Y-123795000D01*
X149865000Y-123809250D01*
X150023750Y-123968000D01*
X151348000Y-123968000D01*
X151348000Y-123318750D01*
X151189250Y-123160000D01*
X150500000Y-123156928D01*
X150375518Y-123169188D01*
X150255820Y-123205498D01*
X150145506Y-123264463D01*
X150048815Y-123343815D01*
X149969463Y-123440506D01*
X149910498Y-123550820D01*
X149874188Y-123670518D01*
X149861928Y-123795000D01*
X148123298Y-123795000D01*
X148122929Y-123791255D01*
X148078084Y-123643418D01*
X148068783Y-123626018D01*
X150434802Y-121260000D01*
X152815201Y-121260000D01*
X152489002Y-121586198D01*
G37*
G04 #@! TD.AperFunction*
D24*
X161990001Y-123151964D02*
X161844594Y-123297372D01*
X161804494Y-123264463D01*
X161694180Y-123205498D01*
X161574482Y-123169188D01*
X161450000Y-123156928D01*
X160760750Y-123160000D01*
X160602000Y-123318750D01*
X160602000Y-123968000D01*
X160622000Y-123968000D01*
X160622000Y-124222000D01*
X160602000Y-124222000D01*
X160602000Y-124242000D01*
X160348000Y-124242000D01*
X160348000Y-124222000D01*
X159023750Y-124222000D01*
X158865000Y-124380750D01*
X158861928Y-124395000D01*
X158874188Y-124519482D01*
X158910498Y-124639180D01*
X158969463Y-124749494D01*
X158993730Y-124779064D01*
X158921916Y-124913418D01*
X158877071Y-125061255D01*
X158861928Y-125215000D01*
X158861928Y-125515000D01*
X158877071Y-125668745D01*
X158921916Y-125816582D01*
X158953141Y-125875000D01*
X158084802Y-125875000D01*
X157063804Y-124854003D01*
X157040001Y-124824999D01*
X157023650Y-124811580D01*
X157005258Y-124777171D01*
X156966546Y-124730000D01*
X157005258Y-124682829D01*
X157078084Y-124546582D01*
X157122929Y-124398745D01*
X157138072Y-124245000D01*
X157138072Y-123945000D01*
X157123298Y-123795000D01*
X158861928Y-123795000D01*
X158865000Y-123809250D01*
X159023750Y-123968000D01*
X160348000Y-123968000D01*
X160348000Y-123318750D01*
X160189250Y-123160000D01*
X159500000Y-123156928D01*
X159375518Y-123169188D01*
X159255820Y-123205498D01*
X159145506Y-123264463D01*
X159048815Y-123343815D01*
X158969463Y-123440506D01*
X158910498Y-123550820D01*
X158874188Y-123670518D01*
X158861928Y-123795000D01*
X157123298Y-123795000D01*
X157122929Y-123791255D01*
X157078084Y-123643418D01*
X157068784Y-123626018D01*
X157934803Y-122760000D01*
X161349088Y-122760000D01*
X161386410Y-122763676D01*
X161423732Y-122760000D01*
X161423743Y-122760000D01*
X161535396Y-122749003D01*
X161678657Y-122705546D01*
X161810686Y-122634974D01*
X161926411Y-122540001D01*
X161950213Y-122510998D01*
X161990001Y-122471210D01*
X161990001Y-123151964D01*
G04 #@! TA.AperFunction,Conductor*
D25*
G36*
X161990001Y-123151964D02*
G01*
X161844594Y-123297372D01*
X161804494Y-123264463D01*
X161694180Y-123205498D01*
X161574482Y-123169188D01*
X161450000Y-123156928D01*
X160760750Y-123160000D01*
X160602000Y-123318750D01*
X160602000Y-123968000D01*
X160622000Y-123968000D01*
X160622000Y-124222000D01*
X160602000Y-124222000D01*
X160602000Y-124242000D01*
X160348000Y-124242000D01*
X160348000Y-124222000D01*
X159023750Y-124222000D01*
X158865000Y-124380750D01*
X158861928Y-124395000D01*
X158874188Y-124519482D01*
X158910498Y-124639180D01*
X158969463Y-124749494D01*
X158993730Y-124779064D01*
X158921916Y-124913418D01*
X158877071Y-125061255D01*
X158861928Y-125215000D01*
X158861928Y-125515000D01*
X158877071Y-125668745D01*
X158921916Y-125816582D01*
X158953141Y-125875000D01*
X158084802Y-125875000D01*
X157063804Y-124854003D01*
X157040001Y-124824999D01*
X157023650Y-124811580D01*
X157005258Y-124777171D01*
X156966546Y-124730000D01*
X157005258Y-124682829D01*
X157078084Y-124546582D01*
X157122929Y-124398745D01*
X157138072Y-124245000D01*
X157138072Y-123945000D01*
X157123298Y-123795000D01*
X158861928Y-123795000D01*
X158865000Y-123809250D01*
X159023750Y-123968000D01*
X160348000Y-123968000D01*
X160348000Y-123318750D01*
X160189250Y-123160000D01*
X159500000Y-123156928D01*
X159375518Y-123169188D01*
X159255820Y-123205498D01*
X159145506Y-123264463D01*
X159048815Y-123343815D01*
X158969463Y-123440506D01*
X158910498Y-123550820D01*
X158874188Y-123670518D01*
X158861928Y-123795000D01*
X157123298Y-123795000D01*
X157122929Y-123791255D01*
X157078084Y-123643418D01*
X157068784Y-123626018D01*
X157934803Y-122760000D01*
X161349088Y-122760000D01*
X161386410Y-122763676D01*
X161423732Y-122760000D01*
X161423743Y-122760000D01*
X161535396Y-122749003D01*
X161678657Y-122705546D01*
X161810686Y-122634974D01*
X161926411Y-122540001D01*
X161950213Y-122510998D01*
X161990001Y-122471210D01*
X161990001Y-123151964D01*
G37*
G04 #@! TD.AperFunction*
D24*
X172236230Y-123311031D02*
X172142749Y-123387749D01*
X172044742Y-123507171D01*
X171971916Y-123643418D01*
X171927071Y-123791255D01*
X171911928Y-123945000D01*
X171911928Y-124245000D01*
X171927071Y-124398745D01*
X171971916Y-124546582D01*
X172003141Y-124605000D01*
X171757322Y-124605000D01*
X171719999Y-124601324D01*
X171682676Y-124605000D01*
X171682667Y-124605000D01*
X171571014Y-124615997D01*
X171427753Y-124659454D01*
X171295724Y-124730026D01*
X171179999Y-124824999D01*
X171156201Y-124853997D01*
X171044072Y-124966126D01*
X171028084Y-124913418D01*
X170956270Y-124779064D01*
X170980537Y-124749494D01*
X171039502Y-124639180D01*
X171075812Y-124519482D01*
X171088072Y-124395000D01*
X171085000Y-124380750D01*
X170926250Y-124222000D01*
X169602000Y-124222000D01*
X169602000Y-124242000D01*
X169348000Y-124242000D01*
X169348000Y-124222000D01*
X168023750Y-124222000D01*
X167967071Y-124278679D01*
X167483392Y-123795000D01*
X167861928Y-123795000D01*
X167865000Y-123809250D01*
X168023750Y-123968000D01*
X169348000Y-123968000D01*
X169348000Y-123318750D01*
X169602000Y-123318750D01*
X169602000Y-123968000D01*
X170926250Y-123968000D01*
X171085000Y-123809250D01*
X171088072Y-123795000D01*
X171075812Y-123670518D01*
X171039502Y-123550820D01*
X170980537Y-123440506D01*
X170901185Y-123343815D01*
X170804494Y-123264463D01*
X170694180Y-123205498D01*
X170574482Y-123169188D01*
X170450000Y-123156928D01*
X169760750Y-123160000D01*
X169602000Y-123318750D01*
X169348000Y-123318750D01*
X169189250Y-123160000D01*
X168500000Y-123156928D01*
X168375518Y-123169188D01*
X168255820Y-123205498D01*
X168145506Y-123264463D01*
X168048815Y-123343815D01*
X167969463Y-123440506D01*
X167910498Y-123550820D01*
X167874188Y-123670518D01*
X167861928Y-123795000D01*
X167483392Y-123795000D01*
X165523392Y-121835001D01*
X170760200Y-121835001D01*
X172236230Y-123311031D01*
G04 #@! TA.AperFunction,Conductor*
D25*
G36*
X172236230Y-123311031D02*
G01*
X172142749Y-123387749D01*
X172044742Y-123507171D01*
X171971916Y-123643418D01*
X171927071Y-123791255D01*
X171911928Y-123945000D01*
X171911928Y-124245000D01*
X171927071Y-124398745D01*
X171971916Y-124546582D01*
X172003141Y-124605000D01*
X171757322Y-124605000D01*
X171719999Y-124601324D01*
X171682676Y-124605000D01*
X171682667Y-124605000D01*
X171571014Y-124615997D01*
X171427753Y-124659454D01*
X171295724Y-124730026D01*
X171179999Y-124824999D01*
X171156201Y-124853997D01*
X171044072Y-124966126D01*
X171028084Y-124913418D01*
X170956270Y-124779064D01*
X170980537Y-124749494D01*
X171039502Y-124639180D01*
X171075812Y-124519482D01*
X171088072Y-124395000D01*
X171085000Y-124380750D01*
X170926250Y-124222000D01*
X169602000Y-124222000D01*
X169602000Y-124242000D01*
X169348000Y-124242000D01*
X169348000Y-124222000D01*
X168023750Y-124222000D01*
X167967071Y-124278679D01*
X167483392Y-123795000D01*
X167861928Y-123795000D01*
X167865000Y-123809250D01*
X168023750Y-123968000D01*
X169348000Y-123968000D01*
X169348000Y-123318750D01*
X169602000Y-123318750D01*
X169602000Y-123968000D01*
X170926250Y-123968000D01*
X171085000Y-123809250D01*
X171088072Y-123795000D01*
X171075812Y-123670518D01*
X171039502Y-123550820D01*
X170980537Y-123440506D01*
X170901185Y-123343815D01*
X170804494Y-123264463D01*
X170694180Y-123205498D01*
X170574482Y-123169188D01*
X170450000Y-123156928D01*
X169760750Y-123160000D01*
X169602000Y-123318750D01*
X169348000Y-123318750D01*
X169189250Y-123160000D01*
X168500000Y-123156928D01*
X168375518Y-123169188D01*
X168255820Y-123205498D01*
X168145506Y-123264463D01*
X168048815Y-123343815D01*
X167969463Y-123440506D01*
X167910498Y-123550820D01*
X167874188Y-123670518D01*
X167861928Y-123795000D01*
X167483392Y-123795000D01*
X165523392Y-121835001D01*
X170760200Y-121835001D01*
X172236230Y-123311031D01*
G37*
G04 #@! TD.AperFunction*
G04 #@! TD*
M02*
