G04 #@! TF.GenerationSoftware,KiCad,Pcbnew,(5.1.6)-1*
G04 #@! TF.CreationDate,2021-11-13T21:04:05+01:00*
G04 #@! TF.ProjectId,opamp_vu_meter,6f70616d-705f-4767-955f-6d657465722e,rev?*
G04 #@! TF.SameCoordinates,Original*
G04 #@! TF.FileFunction,Legend,Bot*
G04 #@! TF.FilePolarity,Positive*
%FSLAX46Y46*%
G04 Gerber Fmt 4.6, Leading zero omitted, Abs format (unit mm)*
G04 Created by KiCad (PCBNEW (5.1.6)-1) date 2021-11-13 21:04:05*
%MOMM*%
%LPD*%
G01*
G04 APERTURE LIST*
%ADD10C,0.150000*%
%ADD11C,0.100000*%
%ADD12C,0.200000*%
%ADD13C,0.120000*%
%ADD14C,3.200000*%
%ADD15R,0.900000X1.500000*%
%ADD16R,2.500000X1.600000*%
%ADD17R,2.500000X1.200000*%
%ADD18O,1.700000X1.700000*%
%ADD19R,1.700000X1.700000*%
%ADD20C,1.333000*%
%ADD21R,0.900000X1.200000*%
%ADD22R,0.900000X0.800000*%
%ADD23C,1.500000*%
G04 APERTURE END LIST*
D10*
X192895238Y-45285714D02*
X192933333Y-45323809D01*
X193047619Y-45361904D01*
X193123809Y-45361904D01*
X193238095Y-45323809D01*
X193314285Y-45247619D01*
X193352380Y-45171428D01*
X193390476Y-45019047D01*
X193390476Y-44904761D01*
X193352380Y-44752380D01*
X193314285Y-44676190D01*
X193238095Y-44600000D01*
X193123809Y-44561904D01*
X193047619Y-44561904D01*
X192933333Y-44600000D01*
X192895238Y-44638095D01*
X192590476Y-45133333D02*
X192209523Y-45133333D01*
X192666666Y-45361904D02*
X192400000Y-44561904D01*
X192133333Y-45361904D01*
X191904761Y-45323809D02*
X191790476Y-45361904D01*
X191600000Y-45361904D01*
X191523809Y-45323809D01*
X191485714Y-45285714D01*
X191447619Y-45209523D01*
X191447619Y-45133333D01*
X191485714Y-45057142D01*
X191523809Y-45019047D01*
X191600000Y-44980952D01*
X191752380Y-44942857D01*
X191828571Y-44904761D01*
X191866666Y-44866666D01*
X191904761Y-44790476D01*
X191904761Y-44714285D01*
X191866666Y-44638095D01*
X191828571Y-44600000D01*
X191752380Y-44561904D01*
X191561904Y-44561904D01*
X191447619Y-44600000D01*
X191104761Y-44942857D02*
X190838095Y-44942857D01*
X190723809Y-45361904D02*
X191104761Y-45361904D01*
X191104761Y-44561904D01*
X190723809Y-44561904D01*
X189771428Y-44828571D02*
X189771428Y-45514285D01*
X189809523Y-45590476D01*
X189885714Y-45628571D01*
X189923809Y-45628571D01*
X189771428Y-44561904D02*
X189809523Y-44600000D01*
X189771428Y-44638095D01*
X189733333Y-44600000D01*
X189771428Y-44561904D01*
X189771428Y-44638095D01*
X189047619Y-44828571D02*
X189047619Y-45361904D01*
X189390476Y-44828571D02*
X189390476Y-45247619D01*
X189352380Y-45323809D01*
X189276190Y-45361904D01*
X189161904Y-45361904D01*
X189085714Y-45323809D01*
X189047619Y-45285714D01*
X188552380Y-45361904D02*
X188628571Y-45323809D01*
X188666666Y-45247619D01*
X188666666Y-44561904D01*
X188247619Y-45361904D02*
X188247619Y-44561904D01*
X188171428Y-45057142D02*
X187942857Y-45361904D01*
X187942857Y-44828571D02*
X188247619Y-45133333D01*
X187485714Y-45361904D02*
X187561904Y-45323809D01*
X187600000Y-45285714D01*
X187638095Y-45209523D01*
X187638095Y-44980952D01*
X187600000Y-44904761D01*
X187561904Y-44866666D01*
X187485714Y-44828571D01*
X187371428Y-44828571D01*
X187295238Y-44866666D01*
X187257142Y-44904761D01*
X187219047Y-44980952D01*
X187219047Y-45209523D01*
X187257142Y-45285714D01*
X187295238Y-45323809D01*
X187371428Y-45361904D01*
X187485714Y-45361904D01*
X186876190Y-45361904D02*
X186876190Y-44828571D01*
X186876190Y-44980952D02*
X186838095Y-44904761D01*
X186800000Y-44866666D01*
X186723809Y-44828571D01*
X186647619Y-44828571D01*
X186495238Y-44828571D02*
X186190476Y-44828571D01*
X186380952Y-44561904D02*
X186380952Y-45247619D01*
X186342857Y-45323809D01*
X186266666Y-45361904D01*
X186190476Y-45361904D01*
X185352380Y-44638095D02*
X185314285Y-44600000D01*
X185238095Y-44561904D01*
X185047619Y-44561904D01*
X184971428Y-44600000D01*
X184933333Y-44638095D01*
X184895238Y-44714285D01*
X184895238Y-44790476D01*
X184933333Y-44904761D01*
X185390476Y-45361904D01*
X184895238Y-45361904D01*
X184400000Y-44561904D02*
X184323809Y-44561904D01*
X184247619Y-44600000D01*
X184209523Y-44638095D01*
X184171428Y-44714285D01*
X184133333Y-44866666D01*
X184133333Y-45057142D01*
X184171428Y-45209523D01*
X184209523Y-45285714D01*
X184247619Y-45323809D01*
X184323809Y-45361904D01*
X184400000Y-45361904D01*
X184476190Y-45323809D01*
X184514285Y-45285714D01*
X184552380Y-45209523D01*
X184590476Y-45057142D01*
X184590476Y-44866666D01*
X184552380Y-44714285D01*
X184514285Y-44638095D01*
X184476190Y-44600000D01*
X184400000Y-44561904D01*
X183828571Y-44638095D02*
X183790476Y-44600000D01*
X183714285Y-44561904D01*
X183523809Y-44561904D01*
X183447619Y-44600000D01*
X183409523Y-44638095D01*
X183371428Y-44714285D01*
X183371428Y-44790476D01*
X183409523Y-44904761D01*
X183866666Y-45361904D01*
X183371428Y-45361904D01*
X182609523Y-45361904D02*
X183066666Y-45361904D01*
X182838095Y-45361904D02*
X182838095Y-44561904D01*
X182914285Y-44676190D01*
X182990476Y-44752380D01*
X183066666Y-44790476D01*
X163803147Y-49491709D02*
X163533773Y-49222335D01*
X163695398Y-49707208D02*
X164072521Y-48952961D01*
X163318274Y-49330085D01*
X163183587Y-49087648D02*
X163129712Y-49087648D01*
X163129712Y-49141523D01*
X163183587Y-49141523D01*
X163183587Y-49087648D01*
X163129712Y-49141523D01*
X162617902Y-48306463D02*
X162348528Y-48037089D01*
X162510152Y-48521963D02*
X162887276Y-47767715D01*
X162133028Y-48144839D01*
X162321590Y-47579154D02*
X161944467Y-47956277D01*
X162267715Y-47633028D02*
X162267715Y-47579154D01*
X162240778Y-47498341D01*
X162159966Y-47417529D01*
X162079154Y-47390592D01*
X161998341Y-47417529D01*
X161702030Y-47713841D01*
X161190219Y-47202030D02*
X161755905Y-46636345D01*
X161217157Y-47175093D02*
X161244094Y-47255905D01*
X161351844Y-47363654D01*
X161432656Y-47390592D01*
X161486531Y-47390592D01*
X161567343Y-47363654D01*
X161728967Y-47202030D01*
X161755905Y-47121218D01*
X161755905Y-47067343D01*
X161728967Y-46986531D01*
X161621218Y-46878781D01*
X161540406Y-46851844D01*
X160732284Y-46690219D02*
X160759221Y-46771032D01*
X160866971Y-46878781D01*
X160947783Y-46905719D01*
X161028595Y-46878781D01*
X161244094Y-46663282D01*
X161271032Y-46582470D01*
X161244094Y-46501658D01*
X161136345Y-46393908D01*
X161055532Y-46366971D01*
X160974720Y-46393908D01*
X160920845Y-46447783D01*
X161136345Y-46771032D01*
X160435972Y-46447783D02*
X160813096Y-46070659D01*
X160705346Y-46178409D02*
X160732284Y-46097597D01*
X160732284Y-46043722D01*
X160705346Y-45962910D01*
X160651471Y-45909035D01*
X160139661Y-46097597D02*
X160058849Y-46070659D01*
X159951099Y-45962910D01*
X159924162Y-45882097D01*
X159951099Y-45801285D01*
X159978036Y-45774348D01*
X160058849Y-45747410D01*
X160139661Y-45774348D01*
X160220473Y-45855160D01*
X160301285Y-45882097D01*
X160382097Y-45855160D01*
X160409035Y-45828223D01*
X160435972Y-45747410D01*
X160409035Y-45666598D01*
X160328223Y-45585786D01*
X160247410Y-45558849D01*
X159547038Y-45558849D02*
X159627850Y-45585786D01*
X159681725Y-45585786D01*
X159762537Y-45558849D01*
X159924162Y-45397224D01*
X159951099Y-45316412D01*
X159951099Y-45262537D01*
X159924162Y-45181725D01*
X159843349Y-45100913D01*
X159762537Y-45073975D01*
X159708662Y-45073975D01*
X159627850Y-45100913D01*
X159466226Y-45262537D01*
X159439288Y-45343349D01*
X159439288Y-45397224D01*
X159466226Y-45478036D01*
X159547038Y-45558849D01*
X159493163Y-44750727D02*
X159116039Y-45127850D01*
X159439288Y-44804601D02*
X159439288Y-44750727D01*
X159412351Y-44669914D01*
X159331539Y-44589102D01*
X159250727Y-44562165D01*
X159169914Y-44589102D01*
X158873603Y-44885414D01*
D11*
X155119047Y-120952380D02*
X155119047Y-121666666D01*
X155166666Y-121809523D01*
X155261904Y-121904761D01*
X155404761Y-121952380D01*
X155500000Y-121952380D01*
X154166666Y-121952380D02*
X154642857Y-121952380D01*
X154642857Y-120952380D01*
X153261904Y-121857142D02*
X153309523Y-121904761D01*
X153452380Y-121952380D01*
X153547619Y-121952380D01*
X153690476Y-121904761D01*
X153785714Y-121809523D01*
X153833333Y-121714285D01*
X153880952Y-121523809D01*
X153880952Y-121380952D01*
X153833333Y-121190476D01*
X153785714Y-121095238D01*
X153690476Y-121000000D01*
X153547619Y-120952380D01*
X153452380Y-120952380D01*
X153309523Y-121000000D01*
X153261904Y-121047619D01*
X152547619Y-120952380D02*
X152547619Y-121666666D01*
X152595238Y-121809523D01*
X152690476Y-121904761D01*
X152833333Y-121952380D01*
X152928571Y-121952380D01*
X151595238Y-121952380D02*
X152071428Y-121952380D01*
X152071428Y-120952380D01*
X150690476Y-121857142D02*
X150738095Y-121904761D01*
X150880952Y-121952380D01*
X150976190Y-121952380D01*
X151119047Y-121904761D01*
X151214285Y-121809523D01*
X151261904Y-121714285D01*
X151309523Y-121523809D01*
X151309523Y-121380952D01*
X151261904Y-121190476D01*
X151214285Y-121095238D01*
X151119047Y-121000000D01*
X150976190Y-120952380D01*
X150880952Y-120952380D01*
X150738095Y-121000000D01*
X150690476Y-121047619D01*
X149976190Y-120952380D02*
X149976190Y-121666666D01*
X150023809Y-121809523D01*
X150119047Y-121904761D01*
X150261904Y-121952380D01*
X150357142Y-121952380D01*
X149023809Y-121952380D02*
X149500000Y-121952380D01*
X149500000Y-120952380D01*
X148119047Y-121857142D02*
X148166666Y-121904761D01*
X148309523Y-121952380D01*
X148404761Y-121952380D01*
X148547619Y-121904761D01*
X148642857Y-121809523D01*
X148690476Y-121714285D01*
X148738095Y-121523809D01*
X148738095Y-121380952D01*
X148690476Y-121190476D01*
X148642857Y-121095238D01*
X148547619Y-121000000D01*
X148404761Y-120952380D01*
X148309523Y-120952380D01*
X148166666Y-121000000D01*
X148119047Y-121047619D01*
X147404761Y-120952380D02*
X147404761Y-121666666D01*
X147452380Y-121809523D01*
X147547619Y-121904761D01*
X147690476Y-121952380D01*
X147785714Y-121952380D01*
X146452380Y-121952380D02*
X146928571Y-121952380D01*
X146928571Y-120952380D01*
X145547619Y-121857142D02*
X145595238Y-121904761D01*
X145738095Y-121952380D01*
X145833333Y-121952380D01*
X145976190Y-121904761D01*
X146071428Y-121809523D01*
X146119047Y-121714285D01*
X146166666Y-121523809D01*
X146166666Y-121380952D01*
X146119047Y-121190476D01*
X146071428Y-121095238D01*
X145976190Y-121000000D01*
X145833333Y-120952380D01*
X145738095Y-120952380D01*
X145595238Y-121000000D01*
X145547619Y-121047619D01*
D10*
X118919047Y-88538095D02*
X118919047Y-87728571D01*
X117219047Y-87728571D01*
X117219047Y-89428571D02*
X117219047Y-89752380D01*
X117300000Y-89914285D01*
X117461904Y-90076190D01*
X117785714Y-90157142D01*
X118352380Y-90157142D01*
X118676190Y-90076190D01*
X118838095Y-89914285D01*
X118919047Y-89752380D01*
X118919047Y-89428571D01*
X118838095Y-89266666D01*
X118676190Y-89104761D01*
X118352380Y-89023809D01*
X117785714Y-89023809D01*
X117461904Y-89104761D01*
X117300000Y-89266666D01*
X117219047Y-89428571D01*
X117300000Y-91776190D02*
X117219047Y-91614285D01*
X117219047Y-91371428D01*
X117300000Y-91128571D01*
X117461904Y-90966666D01*
X117623809Y-90885714D01*
X117947619Y-90804761D01*
X118190476Y-90804761D01*
X118514285Y-90885714D01*
X118676190Y-90966666D01*
X118838095Y-91128571D01*
X118919047Y-91371428D01*
X118919047Y-91533333D01*
X118838095Y-91776190D01*
X118757142Y-91857142D01*
X118190476Y-91857142D01*
X118190476Y-91533333D01*
X118433333Y-92504761D02*
X118433333Y-93314285D01*
X118919047Y-92342857D02*
X117219047Y-92909523D01*
X118919047Y-93476190D01*
X118919047Y-95014285D02*
X118109523Y-94447619D01*
X118919047Y-94042857D02*
X117219047Y-94042857D01*
X117219047Y-94690476D01*
X117300000Y-94852380D01*
X117380952Y-94933333D01*
X117542857Y-95014285D01*
X117785714Y-95014285D01*
X117947619Y-94933333D01*
X118028571Y-94852380D01*
X118109523Y-94690476D01*
X118109523Y-94042857D01*
X118919047Y-95742857D02*
X117219047Y-95742857D01*
X117219047Y-96309523D02*
X117219047Y-97280952D01*
X118919047Y-96795238D02*
X117219047Y-96795238D01*
X118919047Y-97847619D02*
X117219047Y-97847619D01*
X118028571Y-97847619D02*
X118028571Y-98819047D01*
X118919047Y-98819047D02*
X117219047Y-98819047D01*
X118919047Y-99628571D02*
X117219047Y-99628571D01*
X118433333Y-100195238D01*
X117219047Y-100761904D01*
X118919047Y-100761904D01*
X118919047Y-101571428D02*
X117219047Y-101571428D01*
X118757142Y-103352380D02*
X118838095Y-103271428D01*
X118919047Y-103028571D01*
X118919047Y-102866666D01*
X118838095Y-102623809D01*
X118676190Y-102461904D01*
X118514285Y-102380952D01*
X118190476Y-102300000D01*
X117947619Y-102300000D01*
X117623809Y-102380952D01*
X117461904Y-102461904D01*
X117300000Y-102623809D01*
X117219047Y-102866666D01*
X117219047Y-103028571D01*
X117300000Y-103271428D01*
X117380952Y-103352380D01*
X121457142Y-87809523D02*
X121538095Y-87728571D01*
X121619047Y-87485714D01*
X121619047Y-87323809D01*
X121538095Y-87080952D01*
X121376190Y-86919047D01*
X121214285Y-86838095D01*
X120890476Y-86757142D01*
X120647619Y-86757142D01*
X120323809Y-86838095D01*
X120161904Y-86919047D01*
X120000000Y-87080952D01*
X119919047Y-87323809D01*
X119919047Y-87485714D01*
X120000000Y-87728571D01*
X120080952Y-87809523D01*
X119919047Y-88861904D02*
X119919047Y-89185714D01*
X120000000Y-89347619D01*
X120161904Y-89509523D01*
X120485714Y-89590476D01*
X121052380Y-89590476D01*
X121376190Y-89509523D01*
X121538095Y-89347619D01*
X121619047Y-89185714D01*
X121619047Y-88861904D01*
X121538095Y-88700000D01*
X121376190Y-88538095D01*
X121052380Y-88457142D01*
X120485714Y-88457142D01*
X120161904Y-88538095D01*
X120000000Y-88700000D01*
X119919047Y-88861904D01*
X121619047Y-90319047D02*
X119919047Y-90319047D01*
X121133333Y-90885714D01*
X119919047Y-91452380D01*
X121619047Y-91452380D01*
X121619047Y-92261904D02*
X119919047Y-92261904D01*
X119919047Y-92909523D01*
X120000000Y-93071428D01*
X120080952Y-93152380D01*
X120242857Y-93233333D01*
X120485714Y-93233333D01*
X120647619Y-93152380D01*
X120728571Y-93071428D01*
X120809523Y-92909523D01*
X120809523Y-92261904D01*
X121133333Y-93880952D02*
X121133333Y-94690476D01*
X121619047Y-93719047D02*
X119919047Y-94285714D01*
X121619047Y-94852380D01*
X121619047Y-96390476D02*
X120809523Y-95823809D01*
X121619047Y-95419047D02*
X119919047Y-95419047D01*
X119919047Y-96066666D01*
X120000000Y-96228571D01*
X120080952Y-96309523D01*
X120242857Y-96390476D01*
X120485714Y-96390476D01*
X120647619Y-96309523D01*
X120728571Y-96228571D01*
X120809523Y-96066666D01*
X120809523Y-95419047D01*
X121133333Y-97038095D02*
X121133333Y-97847619D01*
X121619047Y-96876190D02*
X119919047Y-97442857D01*
X121619047Y-98009523D01*
X119919047Y-98333333D02*
X119919047Y-99304761D01*
X121619047Y-98819047D02*
X119919047Y-98819047D01*
X119919047Y-100195238D02*
X119919047Y-100519047D01*
X120000000Y-100680952D01*
X120161904Y-100842857D01*
X120485714Y-100923809D01*
X121052380Y-100923809D01*
X121376190Y-100842857D01*
X121538095Y-100680952D01*
X121619047Y-100519047D01*
X121619047Y-100195238D01*
X121538095Y-100033333D01*
X121376190Y-99871428D01*
X121052380Y-99790476D01*
X120485714Y-99790476D01*
X120161904Y-99871428D01*
X120000000Y-100033333D01*
X119919047Y-100195238D01*
X121619047Y-102623809D02*
X120809523Y-102057142D01*
X121619047Y-101652380D02*
X119919047Y-101652380D01*
X119919047Y-102300000D01*
X120000000Y-102461904D01*
X120080952Y-102542857D01*
X120242857Y-102623809D01*
X120485714Y-102623809D01*
X120647619Y-102542857D01*
X120728571Y-102461904D01*
X120809523Y-102300000D01*
X120809523Y-101652380D01*
X121538095Y-103271428D02*
X121619047Y-103514285D01*
X121619047Y-103919047D01*
X121538095Y-104080952D01*
X121457142Y-104161904D01*
X121295238Y-104242857D01*
X121133333Y-104242857D01*
X120971428Y-104161904D01*
X120890476Y-104080952D01*
X120809523Y-103919047D01*
X120728571Y-103595238D01*
X120647619Y-103433333D01*
X120566666Y-103352380D01*
X120404761Y-103271428D01*
X120242857Y-103271428D01*
X120080952Y-103352380D01*
X120000000Y-103433333D01*
X119919047Y-103595238D01*
X119919047Y-103999999D01*
X120000000Y-104242857D01*
D12*
X163000000Y-75000000D02*
X138000000Y-75000000D01*
D10*
X155000000Y-76857142D02*
X154714285Y-76952380D01*
X154619047Y-77047619D01*
X154523809Y-77238095D01*
X154523809Y-77523809D01*
X154619047Y-77714285D01*
X154714285Y-77809523D01*
X154904761Y-77904761D01*
X155666666Y-77904761D01*
X155666666Y-75904761D01*
X155000000Y-75904761D01*
X154809523Y-76000000D01*
X154714285Y-76095238D01*
X154619047Y-76285714D01*
X154619047Y-76476190D01*
X154714285Y-76666666D01*
X154809523Y-76761904D01*
X155000000Y-76857142D01*
X155666666Y-76857142D01*
X153761904Y-77333333D02*
X152809523Y-77333333D01*
X153952380Y-77904761D02*
X153285714Y-75904761D01*
X152619047Y-77904761D01*
X152238095Y-75904761D02*
X151095238Y-75904761D01*
X151666666Y-77904761D02*
X151666666Y-75904761D01*
X150714285Y-75904761D02*
X149571428Y-75904761D01*
X150142857Y-77904761D02*
X150142857Y-75904761D01*
X148904761Y-76857142D02*
X148238095Y-76857142D01*
X147952380Y-77904761D02*
X148904761Y-77904761D01*
X148904761Y-75904761D01*
X147952380Y-75904761D01*
X145952380Y-77904761D02*
X146619047Y-76952380D01*
X147095238Y-77904761D02*
X147095238Y-75904761D01*
X146333333Y-75904761D01*
X146142857Y-76000000D01*
X146047619Y-76095238D01*
X145952380Y-76285714D01*
X145952380Y-76571428D01*
X146047619Y-76761904D01*
X146142857Y-76857142D01*
X146333333Y-76952380D01*
X147095238Y-76952380D01*
X144714285Y-76952380D02*
X144714285Y-77904761D01*
X145380952Y-75904761D02*
X144714285Y-76952380D01*
X144047619Y-75904761D01*
X183426309Y-93829761D02*
X183426309Y-91829761D01*
X182664404Y-91829761D01*
X182473928Y-91925000D01*
X182378690Y-92020238D01*
X182283452Y-92210714D01*
X182283452Y-92496428D01*
X182378690Y-92686904D01*
X182473928Y-92782142D01*
X182664404Y-92877380D01*
X183426309Y-92877380D01*
X181426309Y-92782142D02*
X180759642Y-92782142D01*
X180473928Y-93829761D02*
X181426309Y-93829761D01*
X181426309Y-91829761D01*
X180473928Y-91829761D01*
X179712023Y-93258333D02*
X178759642Y-93258333D01*
X179902500Y-93829761D02*
X179235833Y-91829761D01*
X178569166Y-93829761D01*
X177902500Y-93829761D02*
X177902500Y-91829761D01*
X176759642Y-93829761D02*
X177616785Y-92686904D01*
X176759642Y-91829761D02*
X177902500Y-92972619D01*
X183426309Y-96979761D02*
X183426309Y-94979761D01*
X182950119Y-94979761D01*
X182664404Y-95075000D01*
X182473928Y-95265476D01*
X182378690Y-95455952D01*
X182283452Y-95836904D01*
X182283452Y-96122619D01*
X182378690Y-96503571D01*
X182473928Y-96694047D01*
X182664404Y-96884523D01*
X182950119Y-96979761D01*
X183426309Y-96979761D01*
X181426309Y-95932142D02*
X180759642Y-95932142D01*
X180473928Y-96979761D02*
X181426309Y-96979761D01*
X181426309Y-94979761D01*
X180473928Y-94979761D01*
X179902500Y-94979761D02*
X178759642Y-94979761D01*
X179331071Y-96979761D02*
X179331071Y-94979761D01*
X178092976Y-95932142D02*
X177426309Y-95932142D01*
X177140595Y-96979761D02*
X178092976Y-96979761D01*
X178092976Y-94979761D01*
X177140595Y-94979761D01*
X175140595Y-96789285D02*
X175235833Y-96884523D01*
X175521547Y-96979761D01*
X175712023Y-96979761D01*
X175997738Y-96884523D01*
X176188214Y-96694047D01*
X176283452Y-96503571D01*
X176378690Y-96122619D01*
X176378690Y-95836904D01*
X176283452Y-95455952D01*
X176188214Y-95265476D01*
X175997738Y-95075000D01*
X175712023Y-94979761D01*
X175521547Y-94979761D01*
X175235833Y-95075000D01*
X175140595Y-95170238D01*
X174569166Y-94979761D02*
X173426309Y-94979761D01*
X173997738Y-96979761D02*
X173997738Y-94979761D01*
X172378690Y-94979761D02*
X171997738Y-94979761D01*
X171807261Y-95075000D01*
X171616785Y-95265476D01*
X171521547Y-95646428D01*
X171521547Y-96313095D01*
X171616785Y-96694047D01*
X171807261Y-96884523D01*
X171997738Y-96979761D01*
X172378690Y-96979761D01*
X172569166Y-96884523D01*
X172759642Y-96694047D01*
X172854880Y-96313095D01*
X172854880Y-95646428D01*
X172759642Y-95265476D01*
X172569166Y-95075000D01*
X172378690Y-94979761D01*
X169521547Y-96979761D02*
X170188214Y-96027380D01*
X170664404Y-96979761D02*
X170664404Y-94979761D01*
X169902499Y-94979761D01*
X169712023Y-95075000D01*
X169616785Y-95170238D01*
X169521547Y-95360714D01*
X169521547Y-95646428D01*
X169616785Y-95836904D01*
X169712023Y-95932142D01*
X169902499Y-96027380D01*
X170664404Y-96027380D01*
X178142857Y-100333333D02*
X177190476Y-100333333D01*
X178333333Y-100904761D02*
X177666666Y-98904761D01*
X177000000Y-100904761D01*
X176333333Y-100904761D02*
X176333333Y-98904761D01*
X175666666Y-100333333D01*
X175000000Y-98904761D01*
X175000000Y-100904761D01*
X174047619Y-100904761D02*
X174047619Y-98904761D01*
X173285714Y-98904761D01*
X173095238Y-99000000D01*
X173000000Y-99095238D01*
X172904761Y-99285714D01*
X172904761Y-99571428D01*
X173000000Y-99761904D01*
X173095238Y-99857142D01*
X173285714Y-99952380D01*
X174047619Y-99952380D01*
X171095238Y-100904761D02*
X172047619Y-100904761D01*
X172047619Y-98904761D01*
X170428571Y-100904761D02*
X170428571Y-98904761D01*
X168809523Y-99857142D02*
X169476190Y-99857142D01*
X169476190Y-100904761D02*
X169476190Y-98904761D01*
X168523809Y-98904761D01*
X167761904Y-100904761D02*
X167761904Y-98904761D01*
X166809523Y-99857142D02*
X166142857Y-99857142D01*
X165857142Y-100904761D02*
X166809523Y-100904761D01*
X166809523Y-98904761D01*
X165857142Y-98904761D01*
X163857142Y-100904761D02*
X164523809Y-99952380D01*
X165000000Y-100904761D02*
X165000000Y-98904761D01*
X164238095Y-98904761D01*
X164047619Y-99000000D01*
X163952380Y-99095238D01*
X163857142Y-99285714D01*
X163857142Y-99571428D01*
X163952380Y-99761904D01*
X164047619Y-99857142D01*
X164238095Y-99952380D01*
X165000000Y-99952380D01*
D12*
X163000000Y-98000000D02*
X185000000Y-98000000D01*
X163000000Y-129000000D02*
X163000000Y-75000000D01*
X138000000Y-129000000D02*
X163000000Y-129000000D01*
X138000000Y-75000000D02*
X138000000Y-129000000D01*
D10*
X192552380Y-64361904D02*
X192552380Y-63561904D01*
X192361904Y-63561904D01*
X192247619Y-63600000D01*
X192171428Y-63676190D01*
X192133333Y-63752380D01*
X192095238Y-63904761D01*
X192095238Y-64019047D01*
X192133333Y-64171428D01*
X192171428Y-64247619D01*
X192247619Y-64323809D01*
X192361904Y-64361904D01*
X192552380Y-64361904D01*
X191752380Y-64285714D02*
X191714285Y-64323809D01*
X191752380Y-64361904D01*
X191790476Y-64323809D01*
X191752380Y-64285714D01*
X191752380Y-64361904D01*
X190228571Y-64438095D02*
X190304761Y-64400000D01*
X190380952Y-64323809D01*
X190495238Y-64209523D01*
X190571428Y-64171428D01*
X190647619Y-64171428D01*
X190609523Y-64361904D02*
X190685714Y-64323809D01*
X190761904Y-64247619D01*
X190800000Y-64095238D01*
X190800000Y-63828571D01*
X190761904Y-63676190D01*
X190685714Y-63600000D01*
X190609523Y-63561904D01*
X190457142Y-63561904D01*
X190380952Y-63600000D01*
X190304761Y-63676190D01*
X190266666Y-63828571D01*
X190266666Y-64095238D01*
X190304761Y-64247619D01*
X190380952Y-64323809D01*
X190457142Y-64361904D01*
X190609523Y-64361904D01*
X189580952Y-63828571D02*
X189580952Y-64361904D01*
X189923809Y-63828571D02*
X189923809Y-64247619D01*
X189885714Y-64323809D01*
X189809523Y-64361904D01*
X189695238Y-64361904D01*
X189619047Y-64323809D01*
X189580952Y-64285714D01*
X188857142Y-64361904D02*
X188857142Y-63942857D01*
X188895238Y-63866666D01*
X188971428Y-63828571D01*
X189123809Y-63828571D01*
X189200000Y-63866666D01*
X188857142Y-64323809D02*
X188933333Y-64361904D01*
X189123809Y-64361904D01*
X189200000Y-64323809D01*
X189238095Y-64247619D01*
X189238095Y-64171428D01*
X189200000Y-64095238D01*
X189123809Y-64057142D01*
X188933333Y-64057142D01*
X188857142Y-64019047D01*
X188133333Y-64323809D02*
X188209523Y-64361904D01*
X188361904Y-64361904D01*
X188438095Y-64323809D01*
X188476190Y-64285714D01*
X188514285Y-64209523D01*
X188514285Y-63980952D01*
X188476190Y-63904761D01*
X188438095Y-63866666D01*
X188361904Y-63828571D01*
X188209523Y-63828571D01*
X188133333Y-63866666D01*
X187790476Y-64361904D02*
X187790476Y-63561904D01*
X187447619Y-64361904D02*
X187447619Y-63942857D01*
X187485714Y-63866666D01*
X187561904Y-63828571D01*
X187676190Y-63828571D01*
X187752380Y-63866666D01*
X187790476Y-63904761D01*
D13*
G04 #@! TO.C,RN1*
X127670000Y-103150000D02*
X127670000Y-105250000D01*
X122330000Y-103150000D02*
X122330000Y-105250000D01*
G04 #@! TO.C,RN2*
X127670000Y-93650000D02*
X127670000Y-95750000D01*
X122330000Y-93650000D02*
X122330000Y-95750000D01*
G04 #@! TO.C,RV1*
X136100000Y-123800000D02*
X136100000Y-124200000D01*
X135000000Y-122400000D02*
X132100000Y-122400000D01*
X132100000Y-122400000D02*
X132100000Y-123000000D01*
X135000000Y-125600000D02*
X132100000Y-125600000D01*
X132100000Y-125600000D02*
X132100000Y-125000000D01*
X135900000Y-122200000D02*
X136600000Y-122200000D01*
X136600000Y-122200000D02*
X136600000Y-122900000D01*
G04 #@! TO.C,J1*
X147670000Y-115170000D02*
X147670000Y-116500000D01*
X149000000Y-115170000D02*
X147670000Y-115170000D01*
X150270000Y-115170000D02*
X150270000Y-117830000D01*
X150270000Y-117830000D02*
X152870000Y-117830000D01*
X150270000Y-115170000D02*
X152870000Y-115170000D01*
X152870000Y-115170000D02*
X152870000Y-117830000D01*
G04 #@! TO.C,C5*
X165265000Y-121798752D02*
X165265000Y-121276248D01*
X166735000Y-121798752D02*
X166735000Y-121276248D01*
G04 #@! TO.C,C1*
X169265000Y-117261252D02*
X169265000Y-116738748D01*
X170735000Y-117261252D02*
X170735000Y-116738748D01*
G04 #@! TO.C,C2*
X174735000Y-112276248D02*
X174735000Y-112798752D01*
X173265000Y-112276248D02*
X173265000Y-112798752D01*
G04 #@! TO.C,C3*
X178735000Y-103201248D02*
X178735000Y-103723752D01*
X177265000Y-103201248D02*
X177265000Y-103723752D01*
G04 #@! TO.C,C4*
X171235000Y-86776248D02*
X171235000Y-87298752D01*
X169765000Y-86776248D02*
X169765000Y-87298752D01*
G04 #@! TO.C,R1*
X166735000Y-116738748D02*
X166735000Y-117261252D01*
X165265000Y-116738748D02*
X165265000Y-117261252D01*
G04 #@! TO.C,R3*
X166735000Y-112238748D02*
X166735000Y-112761252D01*
X165265000Y-112238748D02*
X165265000Y-112761252D01*
G04 #@! TO.C,R4*
X174735000Y-107738748D02*
X174735000Y-108261252D01*
X173265000Y-107738748D02*
X173265000Y-108261252D01*
G04 #@! TO.C,R5*
X174735000Y-103238748D02*
X174735000Y-103761252D01*
X173265000Y-103238748D02*
X173265000Y-103761252D01*
G04 #@! TO.C,R6*
X165765000Y-91761252D02*
X165765000Y-91238748D01*
X167235000Y-91761252D02*
X167235000Y-91238748D01*
G04 #@! TO.C,R7*
X171235000Y-91238748D02*
X171235000Y-91761252D01*
X169765000Y-91238748D02*
X169765000Y-91761252D01*
G04 #@! TO.C,R8*
X173765000Y-91761252D02*
X173765000Y-91238748D01*
X175235000Y-91761252D02*
X175235000Y-91238748D01*
G04 #@! TO.C,R9*
X167235000Y-86738748D02*
X167235000Y-87261252D01*
X165765000Y-86738748D02*
X165765000Y-87261252D01*
G04 #@! TO.C,R11*
X135765000Y-119761252D02*
X135765000Y-119238748D01*
X137235000Y-119761252D02*
X137235000Y-119238748D01*
G04 #@! TO.C,R12*
X135765000Y-114761252D02*
X135765000Y-114238748D01*
X137235000Y-114761252D02*
X137235000Y-114238748D01*
G04 #@! TO.C,R13*
X135765000Y-109761252D02*
X135765000Y-109238748D01*
X137235000Y-109761252D02*
X137235000Y-109238748D01*
G04 #@! TO.C,R14*
X135765000Y-104761252D02*
X135765000Y-104238748D01*
X137235000Y-104761252D02*
X137235000Y-104238748D01*
G04 #@! TO.C,R15*
X135765000Y-99761252D02*
X135765000Y-99238748D01*
X137235000Y-99761252D02*
X137235000Y-99238748D01*
G04 #@! TO.C,R16*
X135765000Y-94761252D02*
X135765000Y-94238748D01*
X137235000Y-94761252D02*
X137235000Y-94238748D01*
G04 #@! TO.C,R17*
X135765000Y-89761252D02*
X135765000Y-89238748D01*
X137235000Y-89761252D02*
X137235000Y-89238748D01*
G04 #@! TO.C,R18*
X135765000Y-84761252D02*
X135765000Y-84238748D01*
X137235000Y-84761252D02*
X137235000Y-84238748D01*
G04 #@! TO.C,R2*
X169265000Y-112761252D02*
X169265000Y-112238748D01*
X170735000Y-112761252D02*
X170735000Y-112238748D01*
G04 #@! TO.C,D1*
X165900000Y-84000000D02*
X169800000Y-84000000D01*
X165900000Y-82000000D02*
X169800000Y-82000000D01*
X165900000Y-84000000D02*
X165900000Y-82000000D01*
G04 #@! TO.C,Q1*
X175260000Y-85420000D02*
X173800000Y-85420000D01*
X175260000Y-88580000D02*
X173100000Y-88580000D01*
X175260000Y-88580000D02*
X175260000Y-87650000D01*
X175260000Y-85420000D02*
X175260000Y-86350000D01*
G04 #@! TO.C,U1*
X165535000Y-106025000D02*
X165535000Y-102575000D01*
X165535000Y-106025000D02*
X165535000Y-107975000D01*
X170655000Y-106025000D02*
X170655000Y-104075000D01*
X170655000Y-106025000D02*
X170655000Y-107975000D01*
G04 #@! TO.C,U2*
X133695000Y-117975000D02*
X133695000Y-119925000D01*
X133695000Y-117975000D02*
X133695000Y-116025000D01*
X128575000Y-117975000D02*
X128575000Y-119925000D01*
X128575000Y-117975000D02*
X128575000Y-114525000D01*
G04 #@! TO.C,U3*
X128575000Y-108658334D02*
X128575000Y-105208334D01*
X128575000Y-108658334D02*
X128575000Y-110608334D01*
X133695000Y-108658334D02*
X133695000Y-106708334D01*
X133695000Y-108658334D02*
X133695000Y-110608334D01*
G04 #@! TO.C,U4*
X128575000Y-99341668D02*
X128575000Y-95891668D01*
X128575000Y-99341668D02*
X128575000Y-101291668D01*
X133695000Y-99341668D02*
X133695000Y-97391668D01*
X133695000Y-99341668D02*
X133695000Y-101291668D01*
G04 #@! TO.C,U5*
X133695000Y-90025000D02*
X133695000Y-91975000D01*
X133695000Y-90025000D02*
X133695000Y-88075000D01*
X128575000Y-90025000D02*
X128575000Y-91975000D01*
X128575000Y-90025000D02*
X128575000Y-86575000D01*
G04 #@! TO.C,Audiolevel_TP1*
X150950000Y-89500000D02*
G75*
G03*
X150950000Y-89500000I-950000J0D01*
G01*
G04 #@! TO.C,RN1*
D10*
X128952380Y-103509523D02*
X128476190Y-103176190D01*
X128952380Y-102938095D02*
X127952380Y-102938095D01*
X127952380Y-103319047D01*
X128000000Y-103414285D01*
X128047619Y-103461904D01*
X128142857Y-103509523D01*
X128285714Y-103509523D01*
X128380952Y-103461904D01*
X128428571Y-103414285D01*
X128476190Y-103319047D01*
X128476190Y-102938095D01*
X128952380Y-103938095D02*
X127952380Y-103938095D01*
X128952380Y-104509523D01*
X127952380Y-104509523D01*
X128952380Y-105509523D02*
X128952380Y-104938095D01*
X128952380Y-105223809D02*
X127952380Y-105223809D01*
X128095238Y-105128571D01*
X128190476Y-105033333D01*
X128238095Y-104938095D01*
G04 #@! TO.C,RN2*
X128952380Y-94009523D02*
X128476190Y-93676190D01*
X128952380Y-93438095D02*
X127952380Y-93438095D01*
X127952380Y-93819047D01*
X128000000Y-93914285D01*
X128047619Y-93961904D01*
X128142857Y-94009523D01*
X128285714Y-94009523D01*
X128380952Y-93961904D01*
X128428571Y-93914285D01*
X128476190Y-93819047D01*
X128476190Y-93438095D01*
X128952380Y-94438095D02*
X127952380Y-94438095D01*
X128952380Y-95009523D01*
X127952380Y-95009523D01*
X128047619Y-95438095D02*
X128000000Y-95485714D01*
X127952380Y-95580952D01*
X127952380Y-95819047D01*
X128000000Y-95914285D01*
X128047619Y-95961904D01*
X128142857Y-96009523D01*
X128238095Y-96009523D01*
X128380952Y-95961904D01*
X128952380Y-95390476D01*
X128952380Y-96009523D01*
G04 #@! TO.C,RV1*
X134895238Y-126952380D02*
X135228571Y-126476190D01*
X135466666Y-126952380D02*
X135466666Y-125952380D01*
X135085714Y-125952380D01*
X134990476Y-126000000D01*
X134942857Y-126047619D01*
X134895238Y-126142857D01*
X134895238Y-126285714D01*
X134942857Y-126380952D01*
X134990476Y-126428571D01*
X135085714Y-126476190D01*
X135466666Y-126476190D01*
X134609523Y-125952380D02*
X134276190Y-126952380D01*
X133942857Y-125952380D01*
X133085714Y-126952380D02*
X133657142Y-126952380D01*
X133371428Y-126952380D02*
X133371428Y-125952380D01*
X133466666Y-126095238D01*
X133561904Y-126190476D01*
X133657142Y-126238095D01*
G04 #@! TO.C,J1*
X153333333Y-111952380D02*
X153333333Y-112666666D01*
X153380952Y-112809523D01*
X153476190Y-112904761D01*
X153619047Y-112952380D01*
X153714285Y-112952380D01*
X152333333Y-112952380D02*
X152904761Y-112952380D01*
X152619047Y-112952380D02*
X152619047Y-111952380D01*
X152714285Y-112095238D01*
X152809523Y-112190476D01*
X152904761Y-112238095D01*
G04 #@! TO.C,D1*
X164888095Y-83452380D02*
X164888095Y-82452380D01*
X164650000Y-82452380D01*
X164507142Y-82500000D01*
X164411904Y-82595238D01*
X164364285Y-82690476D01*
X164316666Y-82880952D01*
X164316666Y-83023809D01*
X164364285Y-83214285D01*
X164411904Y-83309523D01*
X164507142Y-83404761D01*
X164650000Y-83452380D01*
X164888095Y-83452380D01*
X163364285Y-83452380D02*
X163935714Y-83452380D01*
X163650000Y-83452380D02*
X163650000Y-82452380D01*
X163745238Y-82595238D01*
X163840476Y-82690476D01*
X163935714Y-82738095D01*
G04 #@! TO.C,Q1*
X178047619Y-86904761D02*
X178000000Y-86809523D01*
X177904761Y-86714285D01*
X177761904Y-86571428D01*
X177714285Y-86476190D01*
X177714285Y-86380952D01*
X177952380Y-86428571D02*
X177904761Y-86333333D01*
X177809523Y-86238095D01*
X177619047Y-86190476D01*
X177285714Y-86190476D01*
X177095238Y-86238095D01*
X177000000Y-86333333D01*
X176952380Y-86428571D01*
X176952380Y-86619047D01*
X177000000Y-86714285D01*
X177095238Y-86809523D01*
X177285714Y-86857142D01*
X177619047Y-86857142D01*
X177809523Y-86809523D01*
X177904761Y-86714285D01*
X177952380Y-86619047D01*
X177952380Y-86428571D01*
X177952380Y-87809523D02*
X177952380Y-87238095D01*
X177952380Y-87523809D02*
X176952380Y-87523809D01*
X177095238Y-87428571D01*
X177190476Y-87333333D01*
X177238095Y-87238095D01*
G04 #@! TO.C,U1*
X163952380Y-105238095D02*
X164761904Y-105238095D01*
X164857142Y-105285714D01*
X164904761Y-105333333D01*
X164952380Y-105428571D01*
X164952380Y-105619047D01*
X164904761Y-105714285D01*
X164857142Y-105761904D01*
X164761904Y-105809523D01*
X163952380Y-105809523D01*
X164952380Y-106809523D02*
X164952380Y-106238095D01*
X164952380Y-106523809D02*
X163952380Y-106523809D01*
X164095238Y-106428571D01*
X164190476Y-106333333D01*
X164238095Y-106238095D01*
G04 #@! TO.C,U2*
X127187380Y-117213095D02*
X127996904Y-117213095D01*
X128092142Y-117260714D01*
X128139761Y-117308333D01*
X128187380Y-117403571D01*
X128187380Y-117594047D01*
X128139761Y-117689285D01*
X128092142Y-117736904D01*
X127996904Y-117784523D01*
X127187380Y-117784523D01*
X127282619Y-118213095D02*
X127235000Y-118260714D01*
X127187380Y-118355952D01*
X127187380Y-118594047D01*
X127235000Y-118689285D01*
X127282619Y-118736904D01*
X127377857Y-118784523D01*
X127473095Y-118784523D01*
X127615952Y-118736904D01*
X128187380Y-118165476D01*
X128187380Y-118784523D01*
G04 #@! TO.C,U3*
X127187380Y-107896429D02*
X127996904Y-107896429D01*
X128092142Y-107944048D01*
X128139761Y-107991667D01*
X128187380Y-108086905D01*
X128187380Y-108277381D01*
X128139761Y-108372619D01*
X128092142Y-108420238D01*
X127996904Y-108467857D01*
X127187380Y-108467857D01*
X127187380Y-108848810D02*
X127187380Y-109467857D01*
X127568333Y-109134524D01*
X127568333Y-109277381D01*
X127615952Y-109372619D01*
X127663571Y-109420238D01*
X127758809Y-109467857D01*
X127996904Y-109467857D01*
X128092142Y-109420238D01*
X128139761Y-109372619D01*
X128187380Y-109277381D01*
X128187380Y-108991667D01*
X128139761Y-108896429D01*
X128092142Y-108848810D01*
G04 #@! TO.C,U4*
X127187380Y-98579763D02*
X127996904Y-98579763D01*
X128092142Y-98627382D01*
X128139761Y-98675001D01*
X128187380Y-98770239D01*
X128187380Y-98960715D01*
X128139761Y-99055953D01*
X128092142Y-99103572D01*
X127996904Y-99151191D01*
X127187380Y-99151191D01*
X127520714Y-100055953D02*
X128187380Y-100055953D01*
X127139761Y-99817858D02*
X127854047Y-99579763D01*
X127854047Y-100198810D01*
G04 #@! TO.C,U5*
X127187380Y-89263095D02*
X127996904Y-89263095D01*
X128092142Y-89310714D01*
X128139761Y-89358333D01*
X128187380Y-89453571D01*
X128187380Y-89644047D01*
X128139761Y-89739285D01*
X128092142Y-89786904D01*
X127996904Y-89834523D01*
X127187380Y-89834523D01*
X127187380Y-90786904D02*
X127187380Y-90310714D01*
X127663571Y-90263095D01*
X127615952Y-90310714D01*
X127568333Y-90405952D01*
X127568333Y-90644047D01*
X127615952Y-90739285D01*
X127663571Y-90786904D01*
X127758809Y-90834523D01*
X127996904Y-90834523D01*
X128092142Y-90786904D01*
X128139761Y-90739285D01*
X128187380Y-90644047D01*
X128187380Y-90405952D01*
X128139761Y-90310714D01*
X128092142Y-90263095D01*
G04 #@! TO.C,Audiolevel_TP1*
X155333333Y-91314666D02*
X154857142Y-91314666D01*
X155428571Y-91600380D02*
X155095238Y-90600380D01*
X154761904Y-91600380D01*
X154000000Y-90933714D02*
X154000000Y-91600380D01*
X154428571Y-90933714D02*
X154428571Y-91457523D01*
X154380952Y-91552761D01*
X154285714Y-91600380D01*
X154142857Y-91600380D01*
X154047619Y-91552761D01*
X154000000Y-91505142D01*
X153095238Y-91600380D02*
X153095238Y-90600380D01*
X153095238Y-91552761D02*
X153190476Y-91600380D01*
X153380952Y-91600380D01*
X153476190Y-91552761D01*
X153523809Y-91505142D01*
X153571428Y-91409904D01*
X153571428Y-91124190D01*
X153523809Y-91028952D01*
X153476190Y-90981333D01*
X153380952Y-90933714D01*
X153190476Y-90933714D01*
X153095238Y-90981333D01*
X152619047Y-91600380D02*
X152619047Y-90933714D01*
X152619047Y-90600380D02*
X152666666Y-90648000D01*
X152619047Y-90695619D01*
X152571428Y-90648000D01*
X152619047Y-90600380D01*
X152619047Y-90695619D01*
X152000000Y-91600380D02*
X152095238Y-91552761D01*
X152142857Y-91505142D01*
X152190476Y-91409904D01*
X152190476Y-91124190D01*
X152142857Y-91028952D01*
X152095238Y-90981333D01*
X152000000Y-90933714D01*
X151857142Y-90933714D01*
X151761904Y-90981333D01*
X151714285Y-91028952D01*
X151666666Y-91124190D01*
X151666666Y-91409904D01*
X151714285Y-91505142D01*
X151761904Y-91552761D01*
X151857142Y-91600380D01*
X152000000Y-91600380D01*
X151095238Y-91600380D02*
X151190476Y-91552761D01*
X151238095Y-91457523D01*
X151238095Y-90600380D01*
X150333333Y-91552761D02*
X150428571Y-91600380D01*
X150619047Y-91600380D01*
X150714285Y-91552761D01*
X150761904Y-91457523D01*
X150761904Y-91076571D01*
X150714285Y-90981333D01*
X150619047Y-90933714D01*
X150428571Y-90933714D01*
X150333333Y-90981333D01*
X150285714Y-91076571D01*
X150285714Y-91171809D01*
X150761904Y-91267047D01*
X149952380Y-90933714D02*
X149714285Y-91600380D01*
X149476190Y-90933714D01*
X148714285Y-91552761D02*
X148809523Y-91600380D01*
X149000000Y-91600380D01*
X149095238Y-91552761D01*
X149142857Y-91457523D01*
X149142857Y-91076571D01*
X149095238Y-90981333D01*
X149000000Y-90933714D01*
X148809523Y-90933714D01*
X148714285Y-90981333D01*
X148666666Y-91076571D01*
X148666666Y-91171809D01*
X149142857Y-91267047D01*
X148095238Y-91600380D02*
X148190476Y-91552761D01*
X148238095Y-91457523D01*
X148238095Y-90600380D01*
X147952380Y-91695619D02*
X147190476Y-91695619D01*
X147095238Y-90600380D02*
X146523809Y-90600380D01*
X146809523Y-91600380D02*
X146809523Y-90600380D01*
X146190476Y-91600380D02*
X146190476Y-90600380D01*
X145809523Y-90600380D01*
X145714285Y-90648000D01*
X145666666Y-90695619D01*
X145619047Y-90790857D01*
X145619047Y-90933714D01*
X145666666Y-91028952D01*
X145714285Y-91076571D01*
X145809523Y-91124190D01*
X146190476Y-91124190D01*
X144666666Y-91600380D02*
X145238095Y-91600380D01*
X144952380Y-91600380D02*
X144952380Y-90600380D01*
X145047619Y-90743238D01*
X145142857Y-90838476D01*
X145238095Y-90886095D01*
G04 #@! TD*
%LPC*%
D14*
G04 #@! TO.C,REF\u002A\u002A*
X122500000Y-80000000D03*
G04 #@! TD*
G04 #@! TO.C,REF\u002A\u002A*
X178500000Y-80000000D03*
G04 #@! TD*
D15*
G04 #@! TO.C,RN1*
X127000000Y-106000000D03*
X123000000Y-106000000D03*
X125660000Y-106000000D03*
X124340000Y-106000000D03*
X125660000Y-102400000D03*
X127000000Y-102400000D03*
X123000000Y-102400000D03*
X124340000Y-102400000D03*
G04 #@! TD*
G04 #@! TO.C,RN2*
X127000000Y-96500000D03*
X123000000Y-96500000D03*
X125660000Y-96500000D03*
X124340000Y-96500000D03*
X125660000Y-92900000D03*
X127000000Y-92900000D03*
X123000000Y-92900000D03*
X124340000Y-92900000D03*
G04 #@! TD*
D16*
G04 #@! TO.C,RV1*
X131968000Y-124000000D03*
D17*
X136286000Y-125000000D03*
X136308000Y-123000000D03*
G04 #@! TD*
D18*
G04 #@! TO.C,J1*
X151540000Y-116500000D03*
D19*
X149000000Y-116500000D03*
G04 #@! TD*
G04 #@! TO.C,C5*
G36*
G01*
X166475000Y-121087500D02*
X165525000Y-121087500D01*
G75*
G02*
X165275000Y-120837500I0J250000D01*
G01*
X165275000Y-120162500D01*
G75*
G02*
X165525000Y-119912500I250000J0D01*
G01*
X166475000Y-119912500D01*
G75*
G02*
X166725000Y-120162500I0J-250000D01*
G01*
X166725000Y-120837500D01*
G75*
G02*
X166475000Y-121087500I-250000J0D01*
G01*
G37*
G36*
G01*
X166475000Y-123162500D02*
X165525000Y-123162500D01*
G75*
G02*
X165275000Y-122912500I0J250000D01*
G01*
X165275000Y-122237500D01*
G75*
G02*
X165525000Y-121987500I250000J0D01*
G01*
X166475000Y-121987500D01*
G75*
G02*
X166725000Y-122237500I0J-250000D01*
G01*
X166725000Y-122912500D01*
G75*
G02*
X166475000Y-123162500I-250000J0D01*
G01*
G37*
G04 #@! TD*
G04 #@! TO.C,C1*
G36*
G01*
X170475000Y-116550000D02*
X169525000Y-116550000D01*
G75*
G02*
X169275000Y-116300000I0J250000D01*
G01*
X169275000Y-115625000D01*
G75*
G02*
X169525000Y-115375000I250000J0D01*
G01*
X170475000Y-115375000D01*
G75*
G02*
X170725000Y-115625000I0J-250000D01*
G01*
X170725000Y-116300000D01*
G75*
G02*
X170475000Y-116550000I-250000J0D01*
G01*
G37*
G36*
G01*
X170475000Y-118625000D02*
X169525000Y-118625000D01*
G75*
G02*
X169275000Y-118375000I0J250000D01*
G01*
X169275000Y-117700000D01*
G75*
G02*
X169525000Y-117450000I250000J0D01*
G01*
X170475000Y-117450000D01*
G75*
G02*
X170725000Y-117700000I0J-250000D01*
G01*
X170725000Y-118375000D01*
G75*
G02*
X170475000Y-118625000I-250000J0D01*
G01*
G37*
G04 #@! TD*
G04 #@! TO.C,C2*
G36*
G01*
X173525000Y-112987500D02*
X174475000Y-112987500D01*
G75*
G02*
X174725000Y-113237500I0J-250000D01*
G01*
X174725000Y-113912500D01*
G75*
G02*
X174475000Y-114162500I-250000J0D01*
G01*
X173525000Y-114162500D01*
G75*
G02*
X173275000Y-113912500I0J250000D01*
G01*
X173275000Y-113237500D01*
G75*
G02*
X173525000Y-112987500I250000J0D01*
G01*
G37*
G36*
G01*
X173525000Y-110912500D02*
X174475000Y-110912500D01*
G75*
G02*
X174725000Y-111162500I0J-250000D01*
G01*
X174725000Y-111837500D01*
G75*
G02*
X174475000Y-112087500I-250000J0D01*
G01*
X173525000Y-112087500D01*
G75*
G02*
X173275000Y-111837500I0J250000D01*
G01*
X173275000Y-111162500D01*
G75*
G02*
X173525000Y-110912500I250000J0D01*
G01*
G37*
G04 #@! TD*
G04 #@! TO.C,C3*
G36*
G01*
X177525000Y-103912500D02*
X178475000Y-103912500D01*
G75*
G02*
X178725000Y-104162500I0J-250000D01*
G01*
X178725000Y-104837500D01*
G75*
G02*
X178475000Y-105087500I-250000J0D01*
G01*
X177525000Y-105087500D01*
G75*
G02*
X177275000Y-104837500I0J250000D01*
G01*
X177275000Y-104162500D01*
G75*
G02*
X177525000Y-103912500I250000J0D01*
G01*
G37*
G36*
G01*
X177525000Y-101837500D02*
X178475000Y-101837500D01*
G75*
G02*
X178725000Y-102087500I0J-250000D01*
G01*
X178725000Y-102762500D01*
G75*
G02*
X178475000Y-103012500I-250000J0D01*
G01*
X177525000Y-103012500D01*
G75*
G02*
X177275000Y-102762500I0J250000D01*
G01*
X177275000Y-102087500D01*
G75*
G02*
X177525000Y-101837500I250000J0D01*
G01*
G37*
G04 #@! TD*
G04 #@! TO.C,C4*
G36*
G01*
X170025000Y-87487500D02*
X170975000Y-87487500D01*
G75*
G02*
X171225000Y-87737500I0J-250000D01*
G01*
X171225000Y-88412500D01*
G75*
G02*
X170975000Y-88662500I-250000J0D01*
G01*
X170025000Y-88662500D01*
G75*
G02*
X169775000Y-88412500I0J250000D01*
G01*
X169775000Y-87737500D01*
G75*
G02*
X170025000Y-87487500I250000J0D01*
G01*
G37*
G36*
G01*
X170025000Y-85412500D02*
X170975000Y-85412500D01*
G75*
G02*
X171225000Y-85662500I0J-250000D01*
G01*
X171225000Y-86337500D01*
G75*
G02*
X170975000Y-86587500I-250000J0D01*
G01*
X170025000Y-86587500D01*
G75*
G02*
X169775000Y-86337500I0J250000D01*
G01*
X169775000Y-85662500D01*
G75*
G02*
X170025000Y-85412500I250000J0D01*
G01*
G37*
G04 #@! TD*
G04 #@! TO.C,R1*
G36*
G01*
X165525000Y-117450000D02*
X166475000Y-117450000D01*
G75*
G02*
X166725000Y-117700000I0J-250000D01*
G01*
X166725000Y-118375000D01*
G75*
G02*
X166475000Y-118625000I-250000J0D01*
G01*
X165525000Y-118625000D01*
G75*
G02*
X165275000Y-118375000I0J250000D01*
G01*
X165275000Y-117700000D01*
G75*
G02*
X165525000Y-117450000I250000J0D01*
G01*
G37*
G36*
G01*
X165525000Y-115375000D02*
X166475000Y-115375000D01*
G75*
G02*
X166725000Y-115625000I0J-250000D01*
G01*
X166725000Y-116300000D01*
G75*
G02*
X166475000Y-116550000I-250000J0D01*
G01*
X165525000Y-116550000D01*
G75*
G02*
X165275000Y-116300000I0J250000D01*
G01*
X165275000Y-115625000D01*
G75*
G02*
X165525000Y-115375000I250000J0D01*
G01*
G37*
G04 #@! TD*
G04 #@! TO.C,R3*
G36*
G01*
X165525000Y-112950000D02*
X166475000Y-112950000D01*
G75*
G02*
X166725000Y-113200000I0J-250000D01*
G01*
X166725000Y-113875000D01*
G75*
G02*
X166475000Y-114125000I-250000J0D01*
G01*
X165525000Y-114125000D01*
G75*
G02*
X165275000Y-113875000I0J250000D01*
G01*
X165275000Y-113200000D01*
G75*
G02*
X165525000Y-112950000I250000J0D01*
G01*
G37*
G36*
G01*
X165525000Y-110875000D02*
X166475000Y-110875000D01*
G75*
G02*
X166725000Y-111125000I0J-250000D01*
G01*
X166725000Y-111800000D01*
G75*
G02*
X166475000Y-112050000I-250000J0D01*
G01*
X165525000Y-112050000D01*
G75*
G02*
X165275000Y-111800000I0J250000D01*
G01*
X165275000Y-111125000D01*
G75*
G02*
X165525000Y-110875000I250000J0D01*
G01*
G37*
G04 #@! TD*
G04 #@! TO.C,R4*
G36*
G01*
X173525000Y-108450000D02*
X174475000Y-108450000D01*
G75*
G02*
X174725000Y-108700000I0J-250000D01*
G01*
X174725000Y-109375000D01*
G75*
G02*
X174475000Y-109625000I-250000J0D01*
G01*
X173525000Y-109625000D01*
G75*
G02*
X173275000Y-109375000I0J250000D01*
G01*
X173275000Y-108700000D01*
G75*
G02*
X173525000Y-108450000I250000J0D01*
G01*
G37*
G36*
G01*
X173525000Y-106375000D02*
X174475000Y-106375000D01*
G75*
G02*
X174725000Y-106625000I0J-250000D01*
G01*
X174725000Y-107300000D01*
G75*
G02*
X174475000Y-107550000I-250000J0D01*
G01*
X173525000Y-107550000D01*
G75*
G02*
X173275000Y-107300000I0J250000D01*
G01*
X173275000Y-106625000D01*
G75*
G02*
X173525000Y-106375000I250000J0D01*
G01*
G37*
G04 #@! TD*
G04 #@! TO.C,R5*
G36*
G01*
X173525000Y-103950000D02*
X174475000Y-103950000D01*
G75*
G02*
X174725000Y-104200000I0J-250000D01*
G01*
X174725000Y-104875000D01*
G75*
G02*
X174475000Y-105125000I-250000J0D01*
G01*
X173525000Y-105125000D01*
G75*
G02*
X173275000Y-104875000I0J250000D01*
G01*
X173275000Y-104200000D01*
G75*
G02*
X173525000Y-103950000I250000J0D01*
G01*
G37*
G36*
G01*
X173525000Y-101875000D02*
X174475000Y-101875000D01*
G75*
G02*
X174725000Y-102125000I0J-250000D01*
G01*
X174725000Y-102800000D01*
G75*
G02*
X174475000Y-103050000I-250000J0D01*
G01*
X173525000Y-103050000D01*
G75*
G02*
X173275000Y-102800000I0J250000D01*
G01*
X173275000Y-102125000D01*
G75*
G02*
X173525000Y-101875000I250000J0D01*
G01*
G37*
G04 #@! TD*
G04 #@! TO.C,R6*
G36*
G01*
X166975000Y-91050000D02*
X166025000Y-91050000D01*
G75*
G02*
X165775000Y-90800000I0J250000D01*
G01*
X165775000Y-90125000D01*
G75*
G02*
X166025000Y-89875000I250000J0D01*
G01*
X166975000Y-89875000D01*
G75*
G02*
X167225000Y-90125000I0J-250000D01*
G01*
X167225000Y-90800000D01*
G75*
G02*
X166975000Y-91050000I-250000J0D01*
G01*
G37*
G36*
G01*
X166975000Y-93125000D02*
X166025000Y-93125000D01*
G75*
G02*
X165775000Y-92875000I0J250000D01*
G01*
X165775000Y-92200000D01*
G75*
G02*
X166025000Y-91950000I250000J0D01*
G01*
X166975000Y-91950000D01*
G75*
G02*
X167225000Y-92200000I0J-250000D01*
G01*
X167225000Y-92875000D01*
G75*
G02*
X166975000Y-93125000I-250000J0D01*
G01*
G37*
G04 #@! TD*
G04 #@! TO.C,R7*
G36*
G01*
X170025000Y-91950000D02*
X170975000Y-91950000D01*
G75*
G02*
X171225000Y-92200000I0J-250000D01*
G01*
X171225000Y-92875000D01*
G75*
G02*
X170975000Y-93125000I-250000J0D01*
G01*
X170025000Y-93125000D01*
G75*
G02*
X169775000Y-92875000I0J250000D01*
G01*
X169775000Y-92200000D01*
G75*
G02*
X170025000Y-91950000I250000J0D01*
G01*
G37*
G36*
G01*
X170025000Y-89875000D02*
X170975000Y-89875000D01*
G75*
G02*
X171225000Y-90125000I0J-250000D01*
G01*
X171225000Y-90800000D01*
G75*
G02*
X170975000Y-91050000I-250000J0D01*
G01*
X170025000Y-91050000D01*
G75*
G02*
X169775000Y-90800000I0J250000D01*
G01*
X169775000Y-90125000D01*
G75*
G02*
X170025000Y-89875000I250000J0D01*
G01*
G37*
G04 #@! TD*
G04 #@! TO.C,R8*
G36*
G01*
X174975000Y-91050000D02*
X174025000Y-91050000D01*
G75*
G02*
X173775000Y-90800000I0J250000D01*
G01*
X173775000Y-90125000D01*
G75*
G02*
X174025000Y-89875000I250000J0D01*
G01*
X174975000Y-89875000D01*
G75*
G02*
X175225000Y-90125000I0J-250000D01*
G01*
X175225000Y-90800000D01*
G75*
G02*
X174975000Y-91050000I-250000J0D01*
G01*
G37*
G36*
G01*
X174975000Y-93125000D02*
X174025000Y-93125000D01*
G75*
G02*
X173775000Y-92875000I0J250000D01*
G01*
X173775000Y-92200000D01*
G75*
G02*
X174025000Y-91950000I250000J0D01*
G01*
X174975000Y-91950000D01*
G75*
G02*
X175225000Y-92200000I0J-250000D01*
G01*
X175225000Y-92875000D01*
G75*
G02*
X174975000Y-93125000I-250000J0D01*
G01*
G37*
G04 #@! TD*
G04 #@! TO.C,R9*
G36*
G01*
X166025000Y-87450000D02*
X166975000Y-87450000D01*
G75*
G02*
X167225000Y-87700000I0J-250000D01*
G01*
X167225000Y-88375000D01*
G75*
G02*
X166975000Y-88625000I-250000J0D01*
G01*
X166025000Y-88625000D01*
G75*
G02*
X165775000Y-88375000I0J250000D01*
G01*
X165775000Y-87700000D01*
G75*
G02*
X166025000Y-87450000I250000J0D01*
G01*
G37*
G36*
G01*
X166025000Y-85375000D02*
X166975000Y-85375000D01*
G75*
G02*
X167225000Y-85625000I0J-250000D01*
G01*
X167225000Y-86300000D01*
G75*
G02*
X166975000Y-86550000I-250000J0D01*
G01*
X166025000Y-86550000D01*
G75*
G02*
X165775000Y-86300000I0J250000D01*
G01*
X165775000Y-85625000D01*
G75*
G02*
X166025000Y-85375000I250000J0D01*
G01*
G37*
G04 #@! TD*
G04 #@! TO.C,R11*
G36*
G01*
X136975000Y-119050000D02*
X136025000Y-119050000D01*
G75*
G02*
X135775000Y-118800000I0J250000D01*
G01*
X135775000Y-118125000D01*
G75*
G02*
X136025000Y-117875000I250000J0D01*
G01*
X136975000Y-117875000D01*
G75*
G02*
X137225000Y-118125000I0J-250000D01*
G01*
X137225000Y-118800000D01*
G75*
G02*
X136975000Y-119050000I-250000J0D01*
G01*
G37*
G36*
G01*
X136975000Y-121125000D02*
X136025000Y-121125000D01*
G75*
G02*
X135775000Y-120875000I0J250000D01*
G01*
X135775000Y-120200000D01*
G75*
G02*
X136025000Y-119950000I250000J0D01*
G01*
X136975000Y-119950000D01*
G75*
G02*
X137225000Y-120200000I0J-250000D01*
G01*
X137225000Y-120875000D01*
G75*
G02*
X136975000Y-121125000I-250000J0D01*
G01*
G37*
G04 #@! TD*
G04 #@! TO.C,R12*
G36*
G01*
X136975000Y-114050000D02*
X136025000Y-114050000D01*
G75*
G02*
X135775000Y-113800000I0J250000D01*
G01*
X135775000Y-113125000D01*
G75*
G02*
X136025000Y-112875000I250000J0D01*
G01*
X136975000Y-112875000D01*
G75*
G02*
X137225000Y-113125000I0J-250000D01*
G01*
X137225000Y-113800000D01*
G75*
G02*
X136975000Y-114050000I-250000J0D01*
G01*
G37*
G36*
G01*
X136975000Y-116125000D02*
X136025000Y-116125000D01*
G75*
G02*
X135775000Y-115875000I0J250000D01*
G01*
X135775000Y-115200000D01*
G75*
G02*
X136025000Y-114950000I250000J0D01*
G01*
X136975000Y-114950000D01*
G75*
G02*
X137225000Y-115200000I0J-250000D01*
G01*
X137225000Y-115875000D01*
G75*
G02*
X136975000Y-116125000I-250000J0D01*
G01*
G37*
G04 #@! TD*
G04 #@! TO.C,R13*
G36*
G01*
X136975000Y-109050000D02*
X136025000Y-109050000D01*
G75*
G02*
X135775000Y-108800000I0J250000D01*
G01*
X135775000Y-108125000D01*
G75*
G02*
X136025000Y-107875000I250000J0D01*
G01*
X136975000Y-107875000D01*
G75*
G02*
X137225000Y-108125000I0J-250000D01*
G01*
X137225000Y-108800000D01*
G75*
G02*
X136975000Y-109050000I-250000J0D01*
G01*
G37*
G36*
G01*
X136975000Y-111125000D02*
X136025000Y-111125000D01*
G75*
G02*
X135775000Y-110875000I0J250000D01*
G01*
X135775000Y-110200000D01*
G75*
G02*
X136025000Y-109950000I250000J0D01*
G01*
X136975000Y-109950000D01*
G75*
G02*
X137225000Y-110200000I0J-250000D01*
G01*
X137225000Y-110875000D01*
G75*
G02*
X136975000Y-111125000I-250000J0D01*
G01*
G37*
G04 #@! TD*
G04 #@! TO.C,R14*
G36*
G01*
X136975000Y-104050000D02*
X136025000Y-104050000D01*
G75*
G02*
X135775000Y-103800000I0J250000D01*
G01*
X135775000Y-103125000D01*
G75*
G02*
X136025000Y-102875000I250000J0D01*
G01*
X136975000Y-102875000D01*
G75*
G02*
X137225000Y-103125000I0J-250000D01*
G01*
X137225000Y-103800000D01*
G75*
G02*
X136975000Y-104050000I-250000J0D01*
G01*
G37*
G36*
G01*
X136975000Y-106125000D02*
X136025000Y-106125000D01*
G75*
G02*
X135775000Y-105875000I0J250000D01*
G01*
X135775000Y-105200000D01*
G75*
G02*
X136025000Y-104950000I250000J0D01*
G01*
X136975000Y-104950000D01*
G75*
G02*
X137225000Y-105200000I0J-250000D01*
G01*
X137225000Y-105875000D01*
G75*
G02*
X136975000Y-106125000I-250000J0D01*
G01*
G37*
G04 #@! TD*
G04 #@! TO.C,R15*
G36*
G01*
X136975000Y-99050000D02*
X136025000Y-99050000D01*
G75*
G02*
X135775000Y-98800000I0J250000D01*
G01*
X135775000Y-98125000D01*
G75*
G02*
X136025000Y-97875000I250000J0D01*
G01*
X136975000Y-97875000D01*
G75*
G02*
X137225000Y-98125000I0J-250000D01*
G01*
X137225000Y-98800000D01*
G75*
G02*
X136975000Y-99050000I-250000J0D01*
G01*
G37*
G36*
G01*
X136975000Y-101125000D02*
X136025000Y-101125000D01*
G75*
G02*
X135775000Y-100875000I0J250000D01*
G01*
X135775000Y-100200000D01*
G75*
G02*
X136025000Y-99950000I250000J0D01*
G01*
X136975000Y-99950000D01*
G75*
G02*
X137225000Y-100200000I0J-250000D01*
G01*
X137225000Y-100875000D01*
G75*
G02*
X136975000Y-101125000I-250000J0D01*
G01*
G37*
G04 #@! TD*
G04 #@! TO.C,R16*
G36*
G01*
X136975000Y-94050000D02*
X136025000Y-94050000D01*
G75*
G02*
X135775000Y-93800000I0J250000D01*
G01*
X135775000Y-93125000D01*
G75*
G02*
X136025000Y-92875000I250000J0D01*
G01*
X136975000Y-92875000D01*
G75*
G02*
X137225000Y-93125000I0J-250000D01*
G01*
X137225000Y-93800000D01*
G75*
G02*
X136975000Y-94050000I-250000J0D01*
G01*
G37*
G36*
G01*
X136975000Y-96125000D02*
X136025000Y-96125000D01*
G75*
G02*
X135775000Y-95875000I0J250000D01*
G01*
X135775000Y-95200000D01*
G75*
G02*
X136025000Y-94950000I250000J0D01*
G01*
X136975000Y-94950000D01*
G75*
G02*
X137225000Y-95200000I0J-250000D01*
G01*
X137225000Y-95875000D01*
G75*
G02*
X136975000Y-96125000I-250000J0D01*
G01*
G37*
G04 #@! TD*
G04 #@! TO.C,R17*
G36*
G01*
X136975000Y-89050000D02*
X136025000Y-89050000D01*
G75*
G02*
X135775000Y-88800000I0J250000D01*
G01*
X135775000Y-88125000D01*
G75*
G02*
X136025000Y-87875000I250000J0D01*
G01*
X136975000Y-87875000D01*
G75*
G02*
X137225000Y-88125000I0J-250000D01*
G01*
X137225000Y-88800000D01*
G75*
G02*
X136975000Y-89050000I-250000J0D01*
G01*
G37*
G36*
G01*
X136975000Y-91125000D02*
X136025000Y-91125000D01*
G75*
G02*
X135775000Y-90875000I0J250000D01*
G01*
X135775000Y-90200000D01*
G75*
G02*
X136025000Y-89950000I250000J0D01*
G01*
X136975000Y-89950000D01*
G75*
G02*
X137225000Y-90200000I0J-250000D01*
G01*
X137225000Y-90875000D01*
G75*
G02*
X136975000Y-91125000I-250000J0D01*
G01*
G37*
G04 #@! TD*
G04 #@! TO.C,R18*
G36*
G01*
X136975000Y-84050000D02*
X136025000Y-84050000D01*
G75*
G02*
X135775000Y-83800000I0J250000D01*
G01*
X135775000Y-83125000D01*
G75*
G02*
X136025000Y-82875000I250000J0D01*
G01*
X136975000Y-82875000D01*
G75*
G02*
X137225000Y-83125000I0J-250000D01*
G01*
X137225000Y-83800000D01*
G75*
G02*
X136975000Y-84050000I-250000J0D01*
G01*
G37*
G36*
G01*
X136975000Y-86125000D02*
X136025000Y-86125000D01*
G75*
G02*
X135775000Y-85875000I0J250000D01*
G01*
X135775000Y-85200000D01*
G75*
G02*
X136025000Y-84950000I250000J0D01*
G01*
X136975000Y-84950000D01*
G75*
G02*
X137225000Y-85200000I0J-250000D01*
G01*
X137225000Y-85875000D01*
G75*
G02*
X136975000Y-86125000I-250000J0D01*
G01*
G37*
G04 #@! TD*
G04 #@! TO.C,R2*
G36*
G01*
X170475000Y-112050000D02*
X169525000Y-112050000D01*
G75*
G02*
X169275000Y-111800000I0J250000D01*
G01*
X169275000Y-111125000D01*
G75*
G02*
X169525000Y-110875000I250000J0D01*
G01*
X170475000Y-110875000D01*
G75*
G02*
X170725000Y-111125000I0J-250000D01*
G01*
X170725000Y-111800000D01*
G75*
G02*
X170475000Y-112050000I-250000J0D01*
G01*
G37*
G36*
G01*
X170475000Y-114125000D02*
X169525000Y-114125000D01*
G75*
G02*
X169275000Y-113875000I0J250000D01*
G01*
X169275000Y-113200000D01*
G75*
G02*
X169525000Y-112950000I250000J0D01*
G01*
X170475000Y-112950000D01*
G75*
G02*
X170725000Y-113200000I0J-250000D01*
G01*
X170725000Y-113875000D01*
G75*
G02*
X170475000Y-114125000I-250000J0D01*
G01*
G37*
G04 #@! TD*
D20*
G04 #@! TO.C,MK1*
X149000000Y-113000000D03*
X151540000Y-113000000D03*
G04 #@! TD*
D21*
G04 #@! TO.C,D1*
X166500000Y-83000000D03*
X169800000Y-83000000D03*
G04 #@! TD*
D22*
G04 #@! TO.C,Q1*
X173500000Y-87950000D03*
X173500000Y-86050000D03*
X175500000Y-87000000D03*
G04 #@! TD*
G04 #@! TO.C,U1*
G36*
G01*
X166040000Y-102575000D02*
X166340000Y-102575000D01*
G75*
G02*
X166490000Y-102725000I0J-150000D01*
G01*
X166490000Y-104375000D01*
G75*
G02*
X166340000Y-104525000I-150000J0D01*
G01*
X166040000Y-104525000D01*
G75*
G02*
X165890000Y-104375000I0J150000D01*
G01*
X165890000Y-102725000D01*
G75*
G02*
X166040000Y-102575000I150000J0D01*
G01*
G37*
G36*
G01*
X167310000Y-102575000D02*
X167610000Y-102575000D01*
G75*
G02*
X167760000Y-102725000I0J-150000D01*
G01*
X167760000Y-104375000D01*
G75*
G02*
X167610000Y-104525000I-150000J0D01*
G01*
X167310000Y-104525000D01*
G75*
G02*
X167160000Y-104375000I0J150000D01*
G01*
X167160000Y-102725000D01*
G75*
G02*
X167310000Y-102575000I150000J0D01*
G01*
G37*
G36*
G01*
X168580000Y-102575000D02*
X168880000Y-102575000D01*
G75*
G02*
X169030000Y-102725000I0J-150000D01*
G01*
X169030000Y-104375000D01*
G75*
G02*
X168880000Y-104525000I-150000J0D01*
G01*
X168580000Y-104525000D01*
G75*
G02*
X168430000Y-104375000I0J150000D01*
G01*
X168430000Y-102725000D01*
G75*
G02*
X168580000Y-102575000I150000J0D01*
G01*
G37*
G36*
G01*
X169850000Y-102575000D02*
X170150000Y-102575000D01*
G75*
G02*
X170300000Y-102725000I0J-150000D01*
G01*
X170300000Y-104375000D01*
G75*
G02*
X170150000Y-104525000I-150000J0D01*
G01*
X169850000Y-104525000D01*
G75*
G02*
X169700000Y-104375000I0J150000D01*
G01*
X169700000Y-102725000D01*
G75*
G02*
X169850000Y-102575000I150000J0D01*
G01*
G37*
G36*
G01*
X169850000Y-107525000D02*
X170150000Y-107525000D01*
G75*
G02*
X170300000Y-107675000I0J-150000D01*
G01*
X170300000Y-109325000D01*
G75*
G02*
X170150000Y-109475000I-150000J0D01*
G01*
X169850000Y-109475000D01*
G75*
G02*
X169700000Y-109325000I0J150000D01*
G01*
X169700000Y-107675000D01*
G75*
G02*
X169850000Y-107525000I150000J0D01*
G01*
G37*
G36*
G01*
X168580000Y-107525000D02*
X168880000Y-107525000D01*
G75*
G02*
X169030000Y-107675000I0J-150000D01*
G01*
X169030000Y-109325000D01*
G75*
G02*
X168880000Y-109475000I-150000J0D01*
G01*
X168580000Y-109475000D01*
G75*
G02*
X168430000Y-109325000I0J150000D01*
G01*
X168430000Y-107675000D01*
G75*
G02*
X168580000Y-107525000I150000J0D01*
G01*
G37*
G36*
G01*
X167310000Y-107525000D02*
X167610000Y-107525000D01*
G75*
G02*
X167760000Y-107675000I0J-150000D01*
G01*
X167760000Y-109325000D01*
G75*
G02*
X167610000Y-109475000I-150000J0D01*
G01*
X167310000Y-109475000D01*
G75*
G02*
X167160000Y-109325000I0J150000D01*
G01*
X167160000Y-107675000D01*
G75*
G02*
X167310000Y-107525000I150000J0D01*
G01*
G37*
G36*
G01*
X166040000Y-107525000D02*
X166340000Y-107525000D01*
G75*
G02*
X166490000Y-107675000I0J-150000D01*
G01*
X166490000Y-109325000D01*
G75*
G02*
X166340000Y-109475000I-150000J0D01*
G01*
X166040000Y-109475000D01*
G75*
G02*
X165890000Y-109325000I0J150000D01*
G01*
X165890000Y-107675000D01*
G75*
G02*
X166040000Y-107525000I150000J0D01*
G01*
G37*
G04 #@! TD*
G04 #@! TO.C,U2*
G36*
G01*
X129080000Y-119475000D02*
X129380000Y-119475000D01*
G75*
G02*
X129530000Y-119625000I0J-150000D01*
G01*
X129530000Y-121275000D01*
G75*
G02*
X129380000Y-121425000I-150000J0D01*
G01*
X129080000Y-121425000D01*
G75*
G02*
X128930000Y-121275000I0J150000D01*
G01*
X128930000Y-119625000D01*
G75*
G02*
X129080000Y-119475000I150000J0D01*
G01*
G37*
G36*
G01*
X130350000Y-119475000D02*
X130650000Y-119475000D01*
G75*
G02*
X130800000Y-119625000I0J-150000D01*
G01*
X130800000Y-121275000D01*
G75*
G02*
X130650000Y-121425000I-150000J0D01*
G01*
X130350000Y-121425000D01*
G75*
G02*
X130200000Y-121275000I0J150000D01*
G01*
X130200000Y-119625000D01*
G75*
G02*
X130350000Y-119475000I150000J0D01*
G01*
G37*
G36*
G01*
X131620000Y-119475000D02*
X131920000Y-119475000D01*
G75*
G02*
X132070000Y-119625000I0J-150000D01*
G01*
X132070000Y-121275000D01*
G75*
G02*
X131920000Y-121425000I-150000J0D01*
G01*
X131620000Y-121425000D01*
G75*
G02*
X131470000Y-121275000I0J150000D01*
G01*
X131470000Y-119625000D01*
G75*
G02*
X131620000Y-119475000I150000J0D01*
G01*
G37*
G36*
G01*
X132890000Y-119475000D02*
X133190000Y-119475000D01*
G75*
G02*
X133340000Y-119625000I0J-150000D01*
G01*
X133340000Y-121275000D01*
G75*
G02*
X133190000Y-121425000I-150000J0D01*
G01*
X132890000Y-121425000D01*
G75*
G02*
X132740000Y-121275000I0J150000D01*
G01*
X132740000Y-119625000D01*
G75*
G02*
X132890000Y-119475000I150000J0D01*
G01*
G37*
G36*
G01*
X132890000Y-114525000D02*
X133190000Y-114525000D01*
G75*
G02*
X133340000Y-114675000I0J-150000D01*
G01*
X133340000Y-116325000D01*
G75*
G02*
X133190000Y-116475000I-150000J0D01*
G01*
X132890000Y-116475000D01*
G75*
G02*
X132740000Y-116325000I0J150000D01*
G01*
X132740000Y-114675000D01*
G75*
G02*
X132890000Y-114525000I150000J0D01*
G01*
G37*
G36*
G01*
X131620000Y-114525000D02*
X131920000Y-114525000D01*
G75*
G02*
X132070000Y-114675000I0J-150000D01*
G01*
X132070000Y-116325000D01*
G75*
G02*
X131920000Y-116475000I-150000J0D01*
G01*
X131620000Y-116475000D01*
G75*
G02*
X131470000Y-116325000I0J150000D01*
G01*
X131470000Y-114675000D01*
G75*
G02*
X131620000Y-114525000I150000J0D01*
G01*
G37*
G36*
G01*
X130350000Y-114525000D02*
X130650000Y-114525000D01*
G75*
G02*
X130800000Y-114675000I0J-150000D01*
G01*
X130800000Y-116325000D01*
G75*
G02*
X130650000Y-116475000I-150000J0D01*
G01*
X130350000Y-116475000D01*
G75*
G02*
X130200000Y-116325000I0J150000D01*
G01*
X130200000Y-114675000D01*
G75*
G02*
X130350000Y-114525000I150000J0D01*
G01*
G37*
G36*
G01*
X129080000Y-114525000D02*
X129380000Y-114525000D01*
G75*
G02*
X129530000Y-114675000I0J-150000D01*
G01*
X129530000Y-116325000D01*
G75*
G02*
X129380000Y-116475000I-150000J0D01*
G01*
X129080000Y-116475000D01*
G75*
G02*
X128930000Y-116325000I0J150000D01*
G01*
X128930000Y-114675000D01*
G75*
G02*
X129080000Y-114525000I150000J0D01*
G01*
G37*
G04 #@! TD*
G04 #@! TO.C,U3*
G36*
G01*
X129080000Y-105208334D02*
X129380000Y-105208334D01*
G75*
G02*
X129530000Y-105358334I0J-150000D01*
G01*
X129530000Y-107008334D01*
G75*
G02*
X129380000Y-107158334I-150000J0D01*
G01*
X129080000Y-107158334D01*
G75*
G02*
X128930000Y-107008334I0J150000D01*
G01*
X128930000Y-105358334D01*
G75*
G02*
X129080000Y-105208334I150000J0D01*
G01*
G37*
G36*
G01*
X130350000Y-105208334D02*
X130650000Y-105208334D01*
G75*
G02*
X130800000Y-105358334I0J-150000D01*
G01*
X130800000Y-107008334D01*
G75*
G02*
X130650000Y-107158334I-150000J0D01*
G01*
X130350000Y-107158334D01*
G75*
G02*
X130200000Y-107008334I0J150000D01*
G01*
X130200000Y-105358334D01*
G75*
G02*
X130350000Y-105208334I150000J0D01*
G01*
G37*
G36*
G01*
X131620000Y-105208334D02*
X131920000Y-105208334D01*
G75*
G02*
X132070000Y-105358334I0J-150000D01*
G01*
X132070000Y-107008334D01*
G75*
G02*
X131920000Y-107158334I-150000J0D01*
G01*
X131620000Y-107158334D01*
G75*
G02*
X131470000Y-107008334I0J150000D01*
G01*
X131470000Y-105358334D01*
G75*
G02*
X131620000Y-105208334I150000J0D01*
G01*
G37*
G36*
G01*
X132890000Y-105208334D02*
X133190000Y-105208334D01*
G75*
G02*
X133340000Y-105358334I0J-150000D01*
G01*
X133340000Y-107008334D01*
G75*
G02*
X133190000Y-107158334I-150000J0D01*
G01*
X132890000Y-107158334D01*
G75*
G02*
X132740000Y-107008334I0J150000D01*
G01*
X132740000Y-105358334D01*
G75*
G02*
X132890000Y-105208334I150000J0D01*
G01*
G37*
G36*
G01*
X132890000Y-110158334D02*
X133190000Y-110158334D01*
G75*
G02*
X133340000Y-110308334I0J-150000D01*
G01*
X133340000Y-111958334D01*
G75*
G02*
X133190000Y-112108334I-150000J0D01*
G01*
X132890000Y-112108334D01*
G75*
G02*
X132740000Y-111958334I0J150000D01*
G01*
X132740000Y-110308334D01*
G75*
G02*
X132890000Y-110158334I150000J0D01*
G01*
G37*
G36*
G01*
X131620000Y-110158334D02*
X131920000Y-110158334D01*
G75*
G02*
X132070000Y-110308334I0J-150000D01*
G01*
X132070000Y-111958334D01*
G75*
G02*
X131920000Y-112108334I-150000J0D01*
G01*
X131620000Y-112108334D01*
G75*
G02*
X131470000Y-111958334I0J150000D01*
G01*
X131470000Y-110308334D01*
G75*
G02*
X131620000Y-110158334I150000J0D01*
G01*
G37*
G36*
G01*
X130350000Y-110158334D02*
X130650000Y-110158334D01*
G75*
G02*
X130800000Y-110308334I0J-150000D01*
G01*
X130800000Y-111958334D01*
G75*
G02*
X130650000Y-112108334I-150000J0D01*
G01*
X130350000Y-112108334D01*
G75*
G02*
X130200000Y-111958334I0J150000D01*
G01*
X130200000Y-110308334D01*
G75*
G02*
X130350000Y-110158334I150000J0D01*
G01*
G37*
G36*
G01*
X129080000Y-110158334D02*
X129380000Y-110158334D01*
G75*
G02*
X129530000Y-110308334I0J-150000D01*
G01*
X129530000Y-111958334D01*
G75*
G02*
X129380000Y-112108334I-150000J0D01*
G01*
X129080000Y-112108334D01*
G75*
G02*
X128930000Y-111958334I0J150000D01*
G01*
X128930000Y-110308334D01*
G75*
G02*
X129080000Y-110158334I150000J0D01*
G01*
G37*
G04 #@! TD*
G04 #@! TO.C,U4*
G36*
G01*
X129080000Y-95891668D02*
X129380000Y-95891668D01*
G75*
G02*
X129530000Y-96041668I0J-150000D01*
G01*
X129530000Y-97691668D01*
G75*
G02*
X129380000Y-97841668I-150000J0D01*
G01*
X129080000Y-97841668D01*
G75*
G02*
X128930000Y-97691668I0J150000D01*
G01*
X128930000Y-96041668D01*
G75*
G02*
X129080000Y-95891668I150000J0D01*
G01*
G37*
G36*
G01*
X130350000Y-95891668D02*
X130650000Y-95891668D01*
G75*
G02*
X130800000Y-96041668I0J-150000D01*
G01*
X130800000Y-97691668D01*
G75*
G02*
X130650000Y-97841668I-150000J0D01*
G01*
X130350000Y-97841668D01*
G75*
G02*
X130200000Y-97691668I0J150000D01*
G01*
X130200000Y-96041668D01*
G75*
G02*
X130350000Y-95891668I150000J0D01*
G01*
G37*
G36*
G01*
X131620000Y-95891668D02*
X131920000Y-95891668D01*
G75*
G02*
X132070000Y-96041668I0J-150000D01*
G01*
X132070000Y-97691668D01*
G75*
G02*
X131920000Y-97841668I-150000J0D01*
G01*
X131620000Y-97841668D01*
G75*
G02*
X131470000Y-97691668I0J150000D01*
G01*
X131470000Y-96041668D01*
G75*
G02*
X131620000Y-95891668I150000J0D01*
G01*
G37*
G36*
G01*
X132890000Y-95891668D02*
X133190000Y-95891668D01*
G75*
G02*
X133340000Y-96041668I0J-150000D01*
G01*
X133340000Y-97691668D01*
G75*
G02*
X133190000Y-97841668I-150000J0D01*
G01*
X132890000Y-97841668D01*
G75*
G02*
X132740000Y-97691668I0J150000D01*
G01*
X132740000Y-96041668D01*
G75*
G02*
X132890000Y-95891668I150000J0D01*
G01*
G37*
G36*
G01*
X132890000Y-100841668D02*
X133190000Y-100841668D01*
G75*
G02*
X133340000Y-100991668I0J-150000D01*
G01*
X133340000Y-102641668D01*
G75*
G02*
X133190000Y-102791668I-150000J0D01*
G01*
X132890000Y-102791668D01*
G75*
G02*
X132740000Y-102641668I0J150000D01*
G01*
X132740000Y-100991668D01*
G75*
G02*
X132890000Y-100841668I150000J0D01*
G01*
G37*
G36*
G01*
X131620000Y-100841668D02*
X131920000Y-100841668D01*
G75*
G02*
X132070000Y-100991668I0J-150000D01*
G01*
X132070000Y-102641668D01*
G75*
G02*
X131920000Y-102791668I-150000J0D01*
G01*
X131620000Y-102791668D01*
G75*
G02*
X131470000Y-102641668I0J150000D01*
G01*
X131470000Y-100991668D01*
G75*
G02*
X131620000Y-100841668I150000J0D01*
G01*
G37*
G36*
G01*
X130350000Y-100841668D02*
X130650000Y-100841668D01*
G75*
G02*
X130800000Y-100991668I0J-150000D01*
G01*
X130800000Y-102641668D01*
G75*
G02*
X130650000Y-102791668I-150000J0D01*
G01*
X130350000Y-102791668D01*
G75*
G02*
X130200000Y-102641668I0J150000D01*
G01*
X130200000Y-100991668D01*
G75*
G02*
X130350000Y-100841668I150000J0D01*
G01*
G37*
G36*
G01*
X129080000Y-100841668D02*
X129380000Y-100841668D01*
G75*
G02*
X129530000Y-100991668I0J-150000D01*
G01*
X129530000Y-102641668D01*
G75*
G02*
X129380000Y-102791668I-150000J0D01*
G01*
X129080000Y-102791668D01*
G75*
G02*
X128930000Y-102641668I0J150000D01*
G01*
X128930000Y-100991668D01*
G75*
G02*
X129080000Y-100841668I150000J0D01*
G01*
G37*
G04 #@! TD*
G04 #@! TO.C,U5*
G36*
G01*
X129080000Y-91525000D02*
X129380000Y-91525000D01*
G75*
G02*
X129530000Y-91675000I0J-150000D01*
G01*
X129530000Y-93325000D01*
G75*
G02*
X129380000Y-93475000I-150000J0D01*
G01*
X129080000Y-93475000D01*
G75*
G02*
X128930000Y-93325000I0J150000D01*
G01*
X128930000Y-91675000D01*
G75*
G02*
X129080000Y-91525000I150000J0D01*
G01*
G37*
G36*
G01*
X130350000Y-91525000D02*
X130650000Y-91525000D01*
G75*
G02*
X130800000Y-91675000I0J-150000D01*
G01*
X130800000Y-93325000D01*
G75*
G02*
X130650000Y-93475000I-150000J0D01*
G01*
X130350000Y-93475000D01*
G75*
G02*
X130200000Y-93325000I0J150000D01*
G01*
X130200000Y-91675000D01*
G75*
G02*
X130350000Y-91525000I150000J0D01*
G01*
G37*
G36*
G01*
X131620000Y-91525000D02*
X131920000Y-91525000D01*
G75*
G02*
X132070000Y-91675000I0J-150000D01*
G01*
X132070000Y-93325000D01*
G75*
G02*
X131920000Y-93475000I-150000J0D01*
G01*
X131620000Y-93475000D01*
G75*
G02*
X131470000Y-93325000I0J150000D01*
G01*
X131470000Y-91675000D01*
G75*
G02*
X131620000Y-91525000I150000J0D01*
G01*
G37*
G36*
G01*
X132890000Y-91525000D02*
X133190000Y-91525000D01*
G75*
G02*
X133340000Y-91675000I0J-150000D01*
G01*
X133340000Y-93325000D01*
G75*
G02*
X133190000Y-93475000I-150000J0D01*
G01*
X132890000Y-93475000D01*
G75*
G02*
X132740000Y-93325000I0J150000D01*
G01*
X132740000Y-91675000D01*
G75*
G02*
X132890000Y-91525000I150000J0D01*
G01*
G37*
G36*
G01*
X132890000Y-86575000D02*
X133190000Y-86575000D01*
G75*
G02*
X133340000Y-86725000I0J-150000D01*
G01*
X133340000Y-88375000D01*
G75*
G02*
X133190000Y-88525000I-150000J0D01*
G01*
X132890000Y-88525000D01*
G75*
G02*
X132740000Y-88375000I0J150000D01*
G01*
X132740000Y-86725000D01*
G75*
G02*
X132890000Y-86575000I150000J0D01*
G01*
G37*
G36*
G01*
X131620000Y-86575000D02*
X131920000Y-86575000D01*
G75*
G02*
X132070000Y-86725000I0J-150000D01*
G01*
X132070000Y-88375000D01*
G75*
G02*
X131920000Y-88525000I-150000J0D01*
G01*
X131620000Y-88525000D01*
G75*
G02*
X131470000Y-88375000I0J150000D01*
G01*
X131470000Y-86725000D01*
G75*
G02*
X131620000Y-86575000I150000J0D01*
G01*
G37*
G36*
G01*
X130350000Y-86575000D02*
X130650000Y-86575000D01*
G75*
G02*
X130800000Y-86725000I0J-150000D01*
G01*
X130800000Y-88375000D01*
G75*
G02*
X130650000Y-88525000I-150000J0D01*
G01*
X130350000Y-88525000D01*
G75*
G02*
X130200000Y-88375000I0J150000D01*
G01*
X130200000Y-86725000D01*
G75*
G02*
X130350000Y-86575000I150000J0D01*
G01*
G37*
G36*
G01*
X129080000Y-86575000D02*
X129380000Y-86575000D01*
G75*
G02*
X129530000Y-86725000I0J-150000D01*
G01*
X129530000Y-88375000D01*
G75*
G02*
X129380000Y-88525000I-150000J0D01*
G01*
X129080000Y-88525000D01*
G75*
G02*
X128930000Y-88375000I0J150000D01*
G01*
X128930000Y-86725000D01*
G75*
G02*
X129080000Y-86575000I150000J0D01*
G01*
G37*
G04 #@! TD*
D23*
G04 #@! TO.C,Audiolevel_TP1*
X150000000Y-89500000D03*
G04 #@! TD*
M02*
