G04 #@! TF.GenerationSoftware,KiCad,Pcbnew,(5.1.6)-1*
G04 #@! TF.CreationDate,2021-12-09T10:41:18+01:00*
G04 #@! TF.ProjectId,opamp_vu_meter,6f70616d-705f-4767-955f-6d657465722e,rev?*
G04 #@! TF.SameCoordinates,Original*
G04 #@! TF.FileFunction,Legend,Top*
G04 #@! TF.FilePolarity,Positive*
%FSLAX46Y46*%
G04 Gerber Fmt 4.6, Leading zero omitted, Abs format (unit mm)*
G04 Created by KiCad (PCBNEW (5.1.6)-1) date 2021-12-09 10:41:18*
%MOMM*%
%LPD*%
G01*
G04 APERTURE LIST*
%ADD10C,0.010000*%
%ADD11C,0.200000*%
%ADD12C,0.120000*%
%ADD13C,0.254000*%
%ADD14C,3.200000*%
%ADD15O,1.700000X1.700000*%
%ADD16R,1.700000X1.700000*%
%ADD17C,1.333000*%
G04 APERTURE END LIST*
D10*
G04 #@! TO.C,G\u002A\u002A\u002A*
G36*
X149048712Y-75210608D02*
G01*
X149105216Y-75256872D01*
X149124305Y-75369434D01*
X149106886Y-75569480D01*
X149053866Y-75878192D01*
X148966152Y-76316757D01*
X148883431Y-76718000D01*
X148741673Y-77428620D01*
X148641422Y-77989916D01*
X148581327Y-78416383D01*
X148560039Y-78722516D01*
X148576208Y-78922812D01*
X148628484Y-79031766D01*
X148665736Y-79055772D01*
X148832480Y-79034615D01*
X149063882Y-78864060D01*
X149100581Y-78829257D01*
X149391334Y-78547449D01*
X149391334Y-78769136D01*
X149325298Y-78948071D01*
X149154732Y-79173067D01*
X148920945Y-79404135D01*
X148665247Y-79601290D01*
X148428947Y-79724543D01*
X148393089Y-79735425D01*
X148164471Y-79716509D01*
X147965925Y-79560317D01*
X147835197Y-79298736D01*
X147824344Y-79255014D01*
X147771757Y-79015587D01*
X147470022Y-79349572D01*
X147142002Y-79631853D01*
X146818236Y-79763810D01*
X146519293Y-79746649D01*
X146265742Y-79581572D01*
X146078152Y-79269787D01*
X146077464Y-79267992D01*
X146011419Y-79129567D01*
X145934187Y-79132868D01*
X145835081Y-79215895D01*
X145646923Y-79318780D01*
X145382237Y-79326382D01*
X145338582Y-79321046D01*
X145114367Y-79305860D01*
X144992007Y-79355215D01*
X144915075Y-79479171D01*
X144721271Y-79727490D01*
X144428354Y-79908244D01*
X144092262Y-80002131D01*
X143768932Y-79989847D01*
X143612832Y-79928550D01*
X143388233Y-79706506D01*
X143255235Y-79381705D01*
X143211810Y-78992485D01*
X143255934Y-78577186D01*
X143266963Y-78542897D01*
X143992817Y-78542897D01*
X143993230Y-78764042D01*
X144029687Y-79053547D01*
X144089784Y-79286331D01*
X144136088Y-79377875D01*
X144324606Y-79499733D01*
X144529301Y-79467813D01*
X144694424Y-79309025D01*
X144772824Y-79162840D01*
X144767623Y-79035420D01*
X144672705Y-78852455D01*
X144654359Y-78822192D01*
X144503408Y-78422192D01*
X144512167Y-78004000D01*
X144613266Y-77723173D01*
X144695448Y-77551464D01*
X144686580Y-77487862D01*
X144575170Y-77490997D01*
X144549766Y-77494544D01*
X144349480Y-77602047D01*
X144178344Y-77838952D01*
X144053681Y-78165741D01*
X143992817Y-78542897D01*
X143266963Y-78542897D01*
X143385581Y-78174146D01*
X143598726Y-77821705D01*
X143731594Y-77680403D01*
X144043956Y-77456555D01*
X144391291Y-77301937D01*
X144732546Y-77225378D01*
X145026666Y-77235709D01*
X145232595Y-77341759D01*
X145244366Y-77355046D01*
X145296810Y-77520842D01*
X145311350Y-77834702D01*
X145288225Y-78279708D01*
X145227677Y-78838942D01*
X145222701Y-78876959D01*
X145257195Y-79019732D01*
X145399119Y-79074433D01*
X145630701Y-79028646D01*
X145852924Y-78851767D01*
X146005013Y-78616113D01*
X146857766Y-78616113D01*
X146861476Y-78900884D01*
X146942353Y-79096763D01*
X147099814Y-79173192D01*
X147108344Y-79173333D01*
X147287675Y-79116273D01*
X147408017Y-79027887D01*
X147582612Y-78790602D01*
X147722761Y-78484220D01*
X147820794Y-78149166D01*
X147869043Y-77825862D01*
X147859838Y-77554734D01*
X147785511Y-77376205D01*
X147728825Y-77336868D01*
X147551300Y-77326228D01*
X147376970Y-77445323D01*
X147189723Y-77708279D01*
X147084167Y-77902130D01*
X146931802Y-78273009D01*
X146857766Y-78616113D01*
X146005013Y-78616113D01*
X146028503Y-78579718D01*
X146090035Y-78408729D01*
X146244949Y-78042809D01*
X146494348Y-77666901D01*
X146788417Y-77349181D01*
X146959727Y-77218485D01*
X147231395Y-77098984D01*
X147551232Y-77075894D01*
X147627993Y-77081233D01*
X148023653Y-77115225D01*
X148173969Y-76317140D01*
X148248253Y-75958565D01*
X148323176Y-75656912D01*
X148387354Y-75455599D01*
X148413309Y-75404187D01*
X148551093Y-75314285D01*
X148775414Y-75241157D01*
X148819834Y-75232236D01*
X148953887Y-75209458D01*
X149048712Y-75210608D01*
G37*
X149048712Y-75210608D02*
X149105216Y-75256872D01*
X149124305Y-75369434D01*
X149106886Y-75569480D01*
X149053866Y-75878192D01*
X148966152Y-76316757D01*
X148883431Y-76718000D01*
X148741673Y-77428620D01*
X148641422Y-77989916D01*
X148581327Y-78416383D01*
X148560039Y-78722516D01*
X148576208Y-78922812D01*
X148628484Y-79031766D01*
X148665736Y-79055772D01*
X148832480Y-79034615D01*
X149063882Y-78864060D01*
X149100581Y-78829257D01*
X149391334Y-78547449D01*
X149391334Y-78769136D01*
X149325298Y-78948071D01*
X149154732Y-79173067D01*
X148920945Y-79404135D01*
X148665247Y-79601290D01*
X148428947Y-79724543D01*
X148393089Y-79735425D01*
X148164471Y-79716509D01*
X147965925Y-79560317D01*
X147835197Y-79298736D01*
X147824344Y-79255014D01*
X147771757Y-79015587D01*
X147470022Y-79349572D01*
X147142002Y-79631853D01*
X146818236Y-79763810D01*
X146519293Y-79746649D01*
X146265742Y-79581572D01*
X146078152Y-79269787D01*
X146077464Y-79267992D01*
X146011419Y-79129567D01*
X145934187Y-79132868D01*
X145835081Y-79215895D01*
X145646923Y-79318780D01*
X145382237Y-79326382D01*
X145338582Y-79321046D01*
X145114367Y-79305860D01*
X144992007Y-79355215D01*
X144915075Y-79479171D01*
X144721271Y-79727490D01*
X144428354Y-79908244D01*
X144092262Y-80002131D01*
X143768932Y-79989847D01*
X143612832Y-79928550D01*
X143388233Y-79706506D01*
X143255235Y-79381705D01*
X143211810Y-78992485D01*
X143255934Y-78577186D01*
X143266963Y-78542897D01*
X143992817Y-78542897D01*
X143993230Y-78764042D01*
X144029687Y-79053547D01*
X144089784Y-79286331D01*
X144136088Y-79377875D01*
X144324606Y-79499733D01*
X144529301Y-79467813D01*
X144694424Y-79309025D01*
X144772824Y-79162840D01*
X144767623Y-79035420D01*
X144672705Y-78852455D01*
X144654359Y-78822192D01*
X144503408Y-78422192D01*
X144512167Y-78004000D01*
X144613266Y-77723173D01*
X144695448Y-77551464D01*
X144686580Y-77487862D01*
X144575170Y-77490997D01*
X144549766Y-77494544D01*
X144349480Y-77602047D01*
X144178344Y-77838952D01*
X144053681Y-78165741D01*
X143992817Y-78542897D01*
X143266963Y-78542897D01*
X143385581Y-78174146D01*
X143598726Y-77821705D01*
X143731594Y-77680403D01*
X144043956Y-77456555D01*
X144391291Y-77301937D01*
X144732546Y-77225378D01*
X145026666Y-77235709D01*
X145232595Y-77341759D01*
X145244366Y-77355046D01*
X145296810Y-77520842D01*
X145311350Y-77834702D01*
X145288225Y-78279708D01*
X145227677Y-78838942D01*
X145222701Y-78876959D01*
X145257195Y-79019732D01*
X145399119Y-79074433D01*
X145630701Y-79028646D01*
X145852924Y-78851767D01*
X146005013Y-78616113D01*
X146857766Y-78616113D01*
X146861476Y-78900884D01*
X146942353Y-79096763D01*
X147099814Y-79173192D01*
X147108344Y-79173333D01*
X147287675Y-79116273D01*
X147408017Y-79027887D01*
X147582612Y-78790602D01*
X147722761Y-78484220D01*
X147820794Y-78149166D01*
X147869043Y-77825862D01*
X147859838Y-77554734D01*
X147785511Y-77376205D01*
X147728825Y-77336868D01*
X147551300Y-77326228D01*
X147376970Y-77445323D01*
X147189723Y-77708279D01*
X147084167Y-77902130D01*
X146931802Y-78273009D01*
X146857766Y-78616113D01*
X146005013Y-78616113D01*
X146028503Y-78579718D01*
X146090035Y-78408729D01*
X146244949Y-78042809D01*
X146494348Y-77666901D01*
X146788417Y-77349181D01*
X146959727Y-77218485D01*
X147231395Y-77098984D01*
X147551232Y-77075894D01*
X147627993Y-77081233D01*
X148023653Y-77115225D01*
X148173969Y-76317140D01*
X148248253Y-75958565D01*
X148323176Y-75656912D01*
X148387354Y-75455599D01*
X148413309Y-75404187D01*
X148551093Y-75314285D01*
X148775414Y-75241157D01*
X148819834Y-75232236D01*
X148953887Y-75209458D01*
X149048712Y-75210608D01*
G36*
X163090349Y-77928933D02*
G01*
X163359206Y-77967115D01*
X163491289Y-78022684D01*
X163519028Y-78119644D01*
X163493085Y-78227028D01*
X163310232Y-78590872D01*
X162992973Y-78934033D01*
X162527974Y-79269108D01*
X162180171Y-79467451D01*
X161838405Y-79660830D01*
X161544841Y-79848751D01*
X161338362Y-80005139D01*
X161268362Y-80078895D01*
X161130180Y-80238996D01*
X161030587Y-80257811D01*
X160990721Y-80131869D01*
X160990667Y-80124512D01*
X161068511Y-79845479D01*
X161298305Y-79511920D01*
X161674440Y-79131348D01*
X161837334Y-78990345D01*
X162119280Y-78732873D01*
X162367646Y-78467967D01*
X162536479Y-78245468D01*
X162557000Y-78209797D01*
X162674827Y-78010355D01*
X162790412Y-77925214D01*
X162973629Y-77917578D01*
X163090349Y-77928933D01*
G37*
X163090349Y-77928933D02*
X163359206Y-77967115D01*
X163491289Y-78022684D01*
X163519028Y-78119644D01*
X163493085Y-78227028D01*
X163310232Y-78590872D01*
X162992973Y-78934033D01*
X162527974Y-79269108D01*
X162180171Y-79467451D01*
X161838405Y-79660830D01*
X161544841Y-79848751D01*
X161338362Y-80005139D01*
X161268362Y-80078895D01*
X161130180Y-80238996D01*
X161030587Y-80257811D01*
X160990721Y-80131869D01*
X160990667Y-80124512D01*
X161068511Y-79845479D01*
X161298305Y-79511920D01*
X161674440Y-79131348D01*
X161837334Y-78990345D01*
X162119280Y-78732873D01*
X162367646Y-78467967D01*
X162536479Y-78245468D01*
X162557000Y-78209797D01*
X162674827Y-78010355D01*
X162790412Y-77925214D01*
X162973629Y-77917578D01*
X163090349Y-77928933D01*
G36*
X160519527Y-80517415D02*
G01*
X160667221Y-80706912D01*
X160839109Y-80814974D01*
X160945037Y-80854367D01*
X160945524Y-80905482D01*
X160824822Y-80997076D01*
X160694334Y-81079302D01*
X160469844Y-81215698D01*
X160334735Y-81272932D01*
X160232761Y-81258257D01*
X160107679Y-81178924D01*
X160078827Y-81158657D01*
X159853719Y-80964515D01*
X159790245Y-80795586D01*
X159887734Y-80628810D01*
X160059498Y-80495607D01*
X160393835Y-80274353D01*
X160519527Y-80517415D01*
G37*
X160519527Y-80517415D02*
X160667221Y-80706912D01*
X160839109Y-80814974D01*
X160945037Y-80854367D01*
X160945524Y-80905482D01*
X160824822Y-80997076D01*
X160694334Y-81079302D01*
X160469844Y-81215698D01*
X160334735Y-81272932D01*
X160232761Y-81258257D01*
X160107679Y-81178924D01*
X160078827Y-81158657D01*
X159853719Y-80964515D01*
X159790245Y-80795586D01*
X159887734Y-80628810D01*
X160059498Y-80495607D01*
X160393835Y-80274353D01*
X160519527Y-80517415D01*
G36*
X153394802Y-75364654D02*
G01*
X153589060Y-75421056D01*
X153855938Y-75492861D01*
X154040708Y-75485472D01*
X154136071Y-75446178D01*
X154315815Y-75387457D01*
X154389436Y-75459599D01*
X154356760Y-75661375D01*
X154217614Y-75991552D01*
X154214200Y-75998526D01*
X154088402Y-76310750D01*
X153945655Y-76761040D01*
X153794499Y-77320059D01*
X153643475Y-77958469D01*
X153642982Y-77960695D01*
X153320816Y-79415058D01*
X153597872Y-79299297D01*
X153813000Y-79187542D01*
X154052401Y-79031785D01*
X154271364Y-78865524D01*
X154425177Y-78722256D01*
X154471331Y-78644911D01*
X154503714Y-78542539D01*
X154589395Y-78328742D01*
X154711172Y-78046057D01*
X154736669Y-77988745D01*
X155002005Y-77395333D01*
X155414003Y-77395333D01*
X155651822Y-77403773D01*
X155800660Y-77425295D01*
X155826000Y-77441039D01*
X155790474Y-77537013D01*
X155700340Y-77728551D01*
X155642531Y-77843206D01*
X155492583Y-78163666D01*
X155351049Y-78516289D01*
X155231926Y-78859264D01*
X155149209Y-79150781D01*
X155116896Y-79349029D01*
X155122513Y-79396632D01*
X155234235Y-79495115D01*
X155320562Y-79512000D01*
X155557582Y-79430486D01*
X155812314Y-79193892D01*
X156074460Y-78814137D01*
X156299469Y-78378911D01*
X156628907Y-77662917D01*
X157052954Y-77629814D01*
X157299562Y-77613221D01*
X157463165Y-77607239D01*
X157498930Y-77609674D01*
X157475029Y-77686406D01*
X157392838Y-77881970D01*
X157266994Y-78162379D01*
X157180770Y-78348370D01*
X157023927Y-78698737D01*
X156892585Y-79020935D01*
X156806878Y-79264342D01*
X156788684Y-79334080D01*
X156787253Y-79556772D01*
X156892005Y-79652249D01*
X157095128Y-79618510D01*
X157352097Y-79478328D01*
X157554866Y-79351787D01*
X157655634Y-79318228D01*
X157688744Y-79370208D01*
X157690676Y-79404965D01*
X157719442Y-79413708D01*
X157792726Y-79291116D01*
X157889709Y-79075330D01*
X158098742Y-78612486D01*
X158145364Y-78527723D01*
X159017451Y-78527723D01*
X159024838Y-78580666D01*
X159117554Y-78523177D01*
X159288873Y-78371622D01*
X159503645Y-78157366D01*
X159528472Y-78131255D01*
X159906431Y-77687266D01*
X160140841Y-77307757D01*
X160228143Y-76998599D01*
X160228667Y-76976204D01*
X160200526Y-76831786D01*
X160112496Y-76831326D01*
X159959160Y-76977608D01*
X159783905Y-77204833D01*
X159577622Y-77506337D01*
X159380512Y-77820776D01*
X159209898Y-78116753D01*
X159083104Y-78362867D01*
X159017451Y-78527723D01*
X158145364Y-78527723D01*
X158344014Y-78166561D01*
X158654013Y-77689764D01*
X159005654Y-77203105D01*
X159231430Y-76905470D01*
X159394507Y-76716041D01*
X159532654Y-76606715D01*
X159683640Y-76549388D01*
X159885235Y-76515960D01*
X159938152Y-76509269D01*
X160268832Y-76481983D01*
X160462434Y-76512693D01*
X160545890Y-76617251D01*
X160546127Y-76811511D01*
X160538530Y-76862692D01*
X160438895Y-77237736D01*
X160254455Y-77608173D01*
X159969963Y-77993959D01*
X159570175Y-78415047D01*
X159039845Y-78891393D01*
X158896451Y-79011991D01*
X158651479Y-79318295D01*
X158571959Y-79554979D01*
X158557595Y-79882787D01*
X158657780Y-80087403D01*
X158868676Y-80166703D01*
X159186443Y-80118566D01*
X159426757Y-80027650D01*
X159655548Y-79931379D01*
X159766952Y-79905603D01*
X159796333Y-79947730D01*
X159789951Y-80001035D01*
X159693275Y-80133221D01*
X159476737Y-80280640D01*
X159185643Y-80421214D01*
X158865302Y-80532862D01*
X158577870Y-80591721D01*
X158323016Y-80603626D01*
X158146819Y-80546916D01*
X157963193Y-80392130D01*
X157946709Y-80375734D01*
X157737025Y-80085119D01*
X157688667Y-79863356D01*
X157688667Y-79609020D01*
X157206814Y-79899176D01*
X156796260Y-80100809D01*
X156457458Y-80174544D01*
X156202824Y-80122639D01*
X156044771Y-79947352D01*
X155995334Y-79678782D01*
X155995334Y-79434327D01*
X155593167Y-79680692D01*
X155229100Y-79884322D01*
X154959337Y-79980732D01*
X154750757Y-79974222D01*
X154570239Y-79869092D01*
X154517928Y-79820290D01*
X154370568Y-79615278D01*
X154302535Y-79406944D01*
X154302000Y-79391400D01*
X154302000Y-79178436D01*
X154002855Y-79381441D01*
X153749182Y-79526329D01*
X153501481Y-79627034D01*
X153457413Y-79638543D01*
X153275485Y-79721322D01*
X153105118Y-79905101D01*
X152958936Y-80139480D01*
X152689775Y-80531087D01*
X152375116Y-80854028D01*
X152040029Y-81095920D01*
X151709582Y-81244376D01*
X151408845Y-81287011D01*
X151162885Y-81211441D01*
X151040422Y-81087298D01*
X150948729Y-80808841D01*
X150953360Y-80762629D01*
X151210115Y-80762629D01*
X151221827Y-80883106D01*
X151353625Y-80956349D01*
X151552386Y-80925240D01*
X151765007Y-80804829D01*
X151875623Y-80697790D01*
X152039929Y-80468418D01*
X152149244Y-80251084D01*
X152181592Y-80094249D01*
X152166106Y-80057216D01*
X152077659Y-80071869D01*
X151890212Y-80147605D01*
X151756497Y-80211764D01*
X151500423Y-80379190D01*
X151308158Y-80575541D01*
X151210115Y-80762629D01*
X150953360Y-80762629D01*
X150963426Y-80662198D01*
X151090196Y-80430701D01*
X151333134Y-80187574D01*
X151646547Y-79970927D01*
X151968064Y-79824311D01*
X152307428Y-79711190D01*
X152610341Y-78532095D01*
X152744479Y-78017739D01*
X152854000Y-77631497D01*
X152954691Y-77337040D01*
X153062335Y-77098040D01*
X153192716Y-76878168D01*
X153361619Y-76641094D01*
X153524304Y-76428556D01*
X153714634Y-76175297D01*
X153805252Y-76029828D01*
X153805781Y-75970638D01*
X153726807Y-75975962D01*
X153531031Y-75982716D01*
X153267107Y-75940673D01*
X153180806Y-75917821D01*
X152931250Y-75860848D01*
X152736162Y-75845433D01*
X152693334Y-75852296D01*
X152453936Y-75991033D01*
X152309108Y-76194582D01*
X152276342Y-76416840D01*
X152373129Y-76611701D01*
X152397000Y-76633333D01*
X152512763Y-76796114D01*
X152467891Y-76971940D01*
X152346591Y-77106308D01*
X152215432Y-77210712D01*
X152125668Y-77198699D01*
X152007924Y-77067718D01*
X151864056Y-76770102D01*
X151881019Y-76440672D01*
X152055614Y-76089671D01*
X152384645Y-75727344D01*
X152441889Y-75677121D01*
X152769829Y-75440957D01*
X153069496Y-75340812D01*
X153394802Y-75364654D01*
G37*
X153394802Y-75364654D02*
X153589060Y-75421056D01*
X153855938Y-75492861D01*
X154040708Y-75485472D01*
X154136071Y-75446178D01*
X154315815Y-75387457D01*
X154389436Y-75459599D01*
X154356760Y-75661375D01*
X154217614Y-75991552D01*
X154214200Y-75998526D01*
X154088402Y-76310750D01*
X153945655Y-76761040D01*
X153794499Y-77320059D01*
X153643475Y-77958469D01*
X153642982Y-77960695D01*
X153320816Y-79415058D01*
X153597872Y-79299297D01*
X153813000Y-79187542D01*
X154052401Y-79031785D01*
X154271364Y-78865524D01*
X154425177Y-78722256D01*
X154471331Y-78644911D01*
X154503714Y-78542539D01*
X154589395Y-78328742D01*
X154711172Y-78046057D01*
X154736669Y-77988745D01*
X155002005Y-77395333D01*
X155414003Y-77395333D01*
X155651822Y-77403773D01*
X155800660Y-77425295D01*
X155826000Y-77441039D01*
X155790474Y-77537013D01*
X155700340Y-77728551D01*
X155642531Y-77843206D01*
X155492583Y-78163666D01*
X155351049Y-78516289D01*
X155231926Y-78859264D01*
X155149209Y-79150781D01*
X155116896Y-79349029D01*
X155122513Y-79396632D01*
X155234235Y-79495115D01*
X155320562Y-79512000D01*
X155557582Y-79430486D01*
X155812314Y-79193892D01*
X156074460Y-78814137D01*
X156299469Y-78378911D01*
X156628907Y-77662917D01*
X157052954Y-77629814D01*
X157299562Y-77613221D01*
X157463165Y-77607239D01*
X157498930Y-77609674D01*
X157475029Y-77686406D01*
X157392838Y-77881970D01*
X157266994Y-78162379D01*
X157180770Y-78348370D01*
X157023927Y-78698737D01*
X156892585Y-79020935D01*
X156806878Y-79264342D01*
X156788684Y-79334080D01*
X156787253Y-79556772D01*
X156892005Y-79652249D01*
X157095128Y-79618510D01*
X157352097Y-79478328D01*
X157554866Y-79351787D01*
X157655634Y-79318228D01*
X157688744Y-79370208D01*
X157690676Y-79404965D01*
X157719442Y-79413708D01*
X157792726Y-79291116D01*
X157889709Y-79075330D01*
X158098742Y-78612486D01*
X158145364Y-78527723D01*
X159017451Y-78527723D01*
X159024838Y-78580666D01*
X159117554Y-78523177D01*
X159288873Y-78371622D01*
X159503645Y-78157366D01*
X159528472Y-78131255D01*
X159906431Y-77687266D01*
X160140841Y-77307757D01*
X160228143Y-76998599D01*
X160228667Y-76976204D01*
X160200526Y-76831786D01*
X160112496Y-76831326D01*
X159959160Y-76977608D01*
X159783905Y-77204833D01*
X159577622Y-77506337D01*
X159380512Y-77820776D01*
X159209898Y-78116753D01*
X159083104Y-78362867D01*
X159017451Y-78527723D01*
X158145364Y-78527723D01*
X158344014Y-78166561D01*
X158654013Y-77689764D01*
X159005654Y-77203105D01*
X159231430Y-76905470D01*
X159394507Y-76716041D01*
X159532654Y-76606715D01*
X159683640Y-76549388D01*
X159885235Y-76515960D01*
X159938152Y-76509269D01*
X160268832Y-76481983D01*
X160462434Y-76512693D01*
X160545890Y-76617251D01*
X160546127Y-76811511D01*
X160538530Y-76862692D01*
X160438895Y-77237736D01*
X160254455Y-77608173D01*
X159969963Y-77993959D01*
X159570175Y-78415047D01*
X159039845Y-78891393D01*
X158896451Y-79011991D01*
X158651479Y-79318295D01*
X158571959Y-79554979D01*
X158557595Y-79882787D01*
X158657780Y-80087403D01*
X158868676Y-80166703D01*
X159186443Y-80118566D01*
X159426757Y-80027650D01*
X159655548Y-79931379D01*
X159766952Y-79905603D01*
X159796333Y-79947730D01*
X159789951Y-80001035D01*
X159693275Y-80133221D01*
X159476737Y-80280640D01*
X159185643Y-80421214D01*
X158865302Y-80532862D01*
X158577870Y-80591721D01*
X158323016Y-80603626D01*
X158146819Y-80546916D01*
X157963193Y-80392130D01*
X157946709Y-80375734D01*
X157737025Y-80085119D01*
X157688667Y-79863356D01*
X157688667Y-79609020D01*
X157206814Y-79899176D01*
X156796260Y-80100809D01*
X156457458Y-80174544D01*
X156202824Y-80122639D01*
X156044771Y-79947352D01*
X155995334Y-79678782D01*
X155995334Y-79434327D01*
X155593167Y-79680692D01*
X155229100Y-79884322D01*
X154959337Y-79980732D01*
X154750757Y-79974222D01*
X154570239Y-79869092D01*
X154517928Y-79820290D01*
X154370568Y-79615278D01*
X154302535Y-79406944D01*
X154302000Y-79391400D01*
X154302000Y-79178436D01*
X154002855Y-79381441D01*
X153749182Y-79526329D01*
X153501481Y-79627034D01*
X153457413Y-79638543D01*
X153275485Y-79721322D01*
X153105118Y-79905101D01*
X152958936Y-80139480D01*
X152689775Y-80531087D01*
X152375116Y-80854028D01*
X152040029Y-81095920D01*
X151709582Y-81244376D01*
X151408845Y-81287011D01*
X151162885Y-81211441D01*
X151040422Y-81087298D01*
X150948729Y-80808841D01*
X150953360Y-80762629D01*
X151210115Y-80762629D01*
X151221827Y-80883106D01*
X151353625Y-80956349D01*
X151552386Y-80925240D01*
X151765007Y-80804829D01*
X151875623Y-80697790D01*
X152039929Y-80468418D01*
X152149244Y-80251084D01*
X152181592Y-80094249D01*
X152166106Y-80057216D01*
X152077659Y-80071869D01*
X151890212Y-80147605D01*
X151756497Y-80211764D01*
X151500423Y-80379190D01*
X151308158Y-80575541D01*
X151210115Y-80762629D01*
X150953360Y-80762629D01*
X150963426Y-80662198D01*
X151090196Y-80430701D01*
X151333134Y-80187574D01*
X151646547Y-79970927D01*
X151968064Y-79824311D01*
X152307428Y-79711190D01*
X152610341Y-78532095D01*
X152744479Y-78017739D01*
X152854000Y-77631497D01*
X152954691Y-77337040D01*
X153062335Y-77098040D01*
X153192716Y-76878168D01*
X153361619Y-76641094D01*
X153524304Y-76428556D01*
X153714634Y-76175297D01*
X153805252Y-76029828D01*
X153805781Y-75970638D01*
X153726807Y-75975962D01*
X153531031Y-75982716D01*
X153267107Y-75940673D01*
X153180806Y-75917821D01*
X152931250Y-75860848D01*
X152736162Y-75845433D01*
X152693334Y-75852296D01*
X152453936Y-75991033D01*
X152309108Y-76194582D01*
X152276342Y-76416840D01*
X152373129Y-76611701D01*
X152397000Y-76633333D01*
X152512763Y-76796114D01*
X152467891Y-76971940D01*
X152346591Y-77106308D01*
X152215432Y-77210712D01*
X152125668Y-77198699D01*
X152007924Y-77067718D01*
X151864056Y-76770102D01*
X151881019Y-76440672D01*
X152055614Y-76089671D01*
X152384645Y-75727344D01*
X152441889Y-75677121D01*
X152769829Y-75440957D01*
X153069496Y-75340812D01*
X153394802Y-75364654D01*
G36*
X141953488Y-76023111D02*
G01*
X141984212Y-76041415D01*
X142161155Y-76176310D01*
X142293695Y-76354341D01*
X142412114Y-76623473D01*
X142483886Y-76832900D01*
X142495661Y-77090185D01*
X142411367Y-77408415D01*
X142253052Y-77727199D01*
X142073538Y-77956728D01*
X141722319Y-78220794D01*
X141363810Y-78316607D01*
X141133454Y-78291176D01*
X140930115Y-78177396D01*
X140806272Y-77991578D01*
X140790019Y-77791020D01*
X140839692Y-77692037D01*
X140939468Y-77605091D01*
X141041852Y-77646463D01*
X141091640Y-77689530D01*
X141265732Y-77802401D01*
X141418344Y-77775181D01*
X141592483Y-77599858D01*
X141595855Y-77595581D01*
X141710918Y-77357186D01*
X141769761Y-77046173D01*
X141770243Y-76725473D01*
X141710228Y-76458015D01*
X141638413Y-76343174D01*
X141374656Y-76178162D01*
X141085229Y-76163180D01*
X140789652Y-76285066D01*
X140507444Y-76530660D01*
X140258125Y-76886800D01*
X140061215Y-77340323D01*
X140034883Y-77424383D01*
X139937889Y-77898287D01*
X139912976Y-78387069D01*
X139954426Y-78854541D01*
X140056517Y-79264512D01*
X140213531Y-79580793D01*
X140403903Y-79759168D01*
X140734621Y-79849013D01*
X141071086Y-79787516D01*
X141384561Y-79589117D01*
X141646310Y-79268259D01*
X141739476Y-79087969D01*
X141928839Y-78798491D01*
X142137571Y-78668408D01*
X142345526Y-78604259D01*
X142464096Y-78612674D01*
X142518760Y-78721844D01*
X142534996Y-78959963D01*
X142536512Y-79109833D01*
X142539691Y-79639000D01*
X142831586Y-79300333D01*
X143000253Y-79109582D01*
X143087183Y-79037042D01*
X143119630Y-79071330D01*
X143124741Y-79177891D01*
X143052893Y-79405169D01*
X142851255Y-79660321D01*
X142841156Y-79670197D01*
X142670713Y-79860715D01*
X142572622Y-80058577D01*
X142517369Y-80332647D01*
X142502608Y-80460090D01*
X142439093Y-80809591D01*
X142334248Y-81150584D01*
X142258285Y-81319174D01*
X142023518Y-81640998D01*
X141737922Y-81878860D01*
X141435141Y-82018033D01*
X141148819Y-82043784D01*
X140912600Y-81941385D01*
X140888381Y-81918952D01*
X140787545Y-81735916D01*
X140759041Y-81571975D01*
X141008755Y-81571975D01*
X141065159Y-81740933D01*
X141065778Y-81741555D01*
X141213579Y-81798806D01*
X141364419Y-81701487D01*
X141479320Y-81504386D01*
X141562787Y-81238687D01*
X141599618Y-80990320D01*
X141599709Y-80975219D01*
X141597418Y-80739666D01*
X141303376Y-81055923D01*
X141090536Y-81336785D01*
X141008755Y-81571975D01*
X140759041Y-81571975D01*
X140755334Y-81550655D01*
X140811462Y-81330802D01*
X140955528Y-81053464D01*
X141151054Y-80776022D01*
X141361560Y-80555858D01*
X141413192Y-80515824D01*
X141533675Y-80355786D01*
X141620084Y-80106372D01*
X141629729Y-80054373D01*
X141684444Y-79707746D01*
X141281833Y-80110357D01*
X140883545Y-80421541D01*
X140487752Y-80569352D01*
X140108918Y-80559329D01*
X139761505Y-80397010D01*
X139459976Y-80087933D01*
X139218792Y-79637636D01*
X139102234Y-79275750D01*
X139028623Y-78661943D01*
X139105072Y-78039492D01*
X139316997Y-77439338D01*
X139649815Y-76892425D01*
X140088946Y-76429693D01*
X140603567Y-76090103D01*
X141100155Y-75911442D01*
X141553366Y-75888998D01*
X141953488Y-76023111D01*
G37*
X141953488Y-76023111D02*
X141984212Y-76041415D01*
X142161155Y-76176310D01*
X142293695Y-76354341D01*
X142412114Y-76623473D01*
X142483886Y-76832900D01*
X142495661Y-77090185D01*
X142411367Y-77408415D01*
X142253052Y-77727199D01*
X142073538Y-77956728D01*
X141722319Y-78220794D01*
X141363810Y-78316607D01*
X141133454Y-78291176D01*
X140930115Y-78177396D01*
X140806272Y-77991578D01*
X140790019Y-77791020D01*
X140839692Y-77692037D01*
X140939468Y-77605091D01*
X141041852Y-77646463D01*
X141091640Y-77689530D01*
X141265732Y-77802401D01*
X141418344Y-77775181D01*
X141592483Y-77599858D01*
X141595855Y-77595581D01*
X141710918Y-77357186D01*
X141769761Y-77046173D01*
X141770243Y-76725473D01*
X141710228Y-76458015D01*
X141638413Y-76343174D01*
X141374656Y-76178162D01*
X141085229Y-76163180D01*
X140789652Y-76285066D01*
X140507444Y-76530660D01*
X140258125Y-76886800D01*
X140061215Y-77340323D01*
X140034883Y-77424383D01*
X139937889Y-77898287D01*
X139912976Y-78387069D01*
X139954426Y-78854541D01*
X140056517Y-79264512D01*
X140213531Y-79580793D01*
X140403903Y-79759168D01*
X140734621Y-79849013D01*
X141071086Y-79787516D01*
X141384561Y-79589117D01*
X141646310Y-79268259D01*
X141739476Y-79087969D01*
X141928839Y-78798491D01*
X142137571Y-78668408D01*
X142345526Y-78604259D01*
X142464096Y-78612674D01*
X142518760Y-78721844D01*
X142534996Y-78959963D01*
X142536512Y-79109833D01*
X142539691Y-79639000D01*
X142831586Y-79300333D01*
X143000253Y-79109582D01*
X143087183Y-79037042D01*
X143119630Y-79071330D01*
X143124741Y-79177891D01*
X143052893Y-79405169D01*
X142851255Y-79660321D01*
X142841156Y-79670197D01*
X142670713Y-79860715D01*
X142572622Y-80058577D01*
X142517369Y-80332647D01*
X142502608Y-80460090D01*
X142439093Y-80809591D01*
X142334248Y-81150584D01*
X142258285Y-81319174D01*
X142023518Y-81640998D01*
X141737922Y-81878860D01*
X141435141Y-82018033D01*
X141148819Y-82043784D01*
X140912600Y-81941385D01*
X140888381Y-81918952D01*
X140787545Y-81735916D01*
X140759041Y-81571975D01*
X141008755Y-81571975D01*
X141065159Y-81740933D01*
X141065778Y-81741555D01*
X141213579Y-81798806D01*
X141364419Y-81701487D01*
X141479320Y-81504386D01*
X141562787Y-81238687D01*
X141599618Y-80990320D01*
X141599709Y-80975219D01*
X141597418Y-80739666D01*
X141303376Y-81055923D01*
X141090536Y-81336785D01*
X141008755Y-81571975D01*
X140759041Y-81571975D01*
X140755334Y-81550655D01*
X140811462Y-81330802D01*
X140955528Y-81053464D01*
X141151054Y-80776022D01*
X141361560Y-80555858D01*
X141413192Y-80515824D01*
X141533675Y-80355786D01*
X141620084Y-80106372D01*
X141629729Y-80054373D01*
X141684444Y-79707746D01*
X141281833Y-80110357D01*
X140883545Y-80421541D01*
X140487752Y-80569352D01*
X140108918Y-80559329D01*
X139761505Y-80397010D01*
X139459976Y-80087933D01*
X139218792Y-79637636D01*
X139102234Y-79275750D01*
X139028623Y-78661943D01*
X139105072Y-78039492D01*
X139316997Y-77439338D01*
X139649815Y-76892425D01*
X140088946Y-76429693D01*
X140603567Y-76090103D01*
X141100155Y-75911442D01*
X141553366Y-75888998D01*
X141953488Y-76023111D01*
G36*
X147046750Y-90334447D02*
G01*
X147046750Y-90464750D01*
X146336262Y-90464750D01*
X146095483Y-90465501D01*
X145911039Y-90468036D01*
X145775782Y-90472775D01*
X145682561Y-90480139D01*
X145624228Y-90490548D01*
X145593633Y-90504424D01*
X145589290Y-90508710D01*
X145573415Y-90558867D01*
X145563642Y-90665226D01*
X145559844Y-90830186D01*
X145561590Y-91039627D01*
X145565221Y-91224986D01*
X145569471Y-91356993D01*
X145576037Y-91445786D01*
X145586615Y-91501502D01*
X145602899Y-91534280D01*
X145626587Y-91554258D01*
X145649750Y-91566698D01*
X145705111Y-91582124D01*
X145805251Y-91593631D01*
X145954976Y-91601485D01*
X146159093Y-91605948D01*
X146387937Y-91607281D01*
X147046750Y-91607750D01*
X147046750Y-91830000D01*
X146324437Y-91829302D01*
X146086514Y-91828565D01*
X145902895Y-91826435D01*
X145764386Y-91822259D01*
X145661795Y-91815382D01*
X145585929Y-91805151D01*
X145527597Y-91790912D01*
X145477605Y-91772010D01*
X145469749Y-91768501D01*
X145396409Y-91731802D01*
X145341740Y-91691331D01*
X145303014Y-91637677D01*
X145277503Y-91561429D01*
X145262478Y-91453174D01*
X145255211Y-91303503D01*
X145252974Y-91103002D01*
X145252875Y-91020375D01*
X145253040Y-90805384D01*
X145257799Y-90633505D01*
X145273543Y-90499795D01*
X145306663Y-90399313D01*
X145363550Y-90327118D01*
X145450597Y-90278268D01*
X145574195Y-90247821D01*
X145740736Y-90230836D01*
X145956611Y-90222371D01*
X146228211Y-90217485D01*
X146292687Y-90216455D01*
X147046749Y-90204145D01*
X147046750Y-90334447D01*
G37*
X147046750Y-90334447D02*
X147046750Y-90464750D01*
X146336262Y-90464750D01*
X146095483Y-90465501D01*
X145911039Y-90468036D01*
X145775782Y-90472775D01*
X145682561Y-90480139D01*
X145624228Y-90490548D01*
X145593633Y-90504424D01*
X145589290Y-90508710D01*
X145573415Y-90558867D01*
X145563642Y-90665226D01*
X145559844Y-90830186D01*
X145561590Y-91039627D01*
X145565221Y-91224986D01*
X145569471Y-91356993D01*
X145576037Y-91445786D01*
X145586615Y-91501502D01*
X145602899Y-91534280D01*
X145626587Y-91554258D01*
X145649750Y-91566698D01*
X145705111Y-91582124D01*
X145805251Y-91593631D01*
X145954976Y-91601485D01*
X146159093Y-91605948D01*
X146387937Y-91607281D01*
X147046750Y-91607750D01*
X147046750Y-91830000D01*
X146324437Y-91829302D01*
X146086514Y-91828565D01*
X145902895Y-91826435D01*
X145764386Y-91822259D01*
X145661795Y-91815382D01*
X145585929Y-91805151D01*
X145527597Y-91790912D01*
X145477605Y-91772010D01*
X145469749Y-91768501D01*
X145396409Y-91731802D01*
X145341740Y-91691331D01*
X145303014Y-91637677D01*
X145277503Y-91561429D01*
X145262478Y-91453174D01*
X145255211Y-91303503D01*
X145252974Y-91103002D01*
X145252875Y-91020375D01*
X145253040Y-90805384D01*
X145257799Y-90633505D01*
X145273543Y-90499795D01*
X145306663Y-90399313D01*
X145363550Y-90327118D01*
X145450597Y-90278268D01*
X145574195Y-90247821D01*
X145740736Y-90230836D01*
X145956611Y-90222371D01*
X146228211Y-90217485D01*
X146292687Y-90216455D01*
X147046749Y-90204145D01*
X147046750Y-90334447D01*
G36*
X147618250Y-91830000D02*
G01*
X147269000Y-91830000D01*
X147269000Y-91544250D01*
X147618250Y-91544250D01*
X147618250Y-91830000D01*
G37*
X147618250Y-91830000D02*
X147269000Y-91830000D01*
X147269000Y-91544250D01*
X147618250Y-91544250D01*
X147618250Y-91830000D01*
G36*
X149031487Y-90229693D02*
G01*
X149086402Y-90266312D01*
X149116164Y-90306621D01*
X149175669Y-90392758D01*
X149259975Y-90517367D01*
X149364136Y-90673086D01*
X149483209Y-90852557D01*
X149612250Y-91048420D01*
X149630310Y-91075937D01*
X150124973Y-91830000D01*
X149793125Y-91829876D01*
X149385728Y-91194938D01*
X149270599Y-91016847D01*
X149166303Y-90858062D01*
X149077818Y-90725957D01*
X149010124Y-90627905D01*
X148968201Y-90571280D01*
X148957103Y-90560183D01*
X148934615Y-90585740D01*
X148882863Y-90657410D01*
X148806855Y-90767845D01*
X148711597Y-90909701D01*
X148602099Y-91075631D01*
X148524191Y-91195183D01*
X148112507Y-91830000D01*
X147776388Y-91830000D01*
X148316750Y-91020375D01*
X148470253Y-90790984D01*
X148593182Y-90609218D01*
X148689795Y-90469608D01*
X148764350Y-90366684D01*
X148821106Y-90294978D01*
X148864321Y-90249020D01*
X148898253Y-90223342D01*
X148927160Y-90212474D01*
X148947134Y-90210750D01*
X149031487Y-90229693D01*
G37*
X149031487Y-90229693D02*
X149086402Y-90266312D01*
X149116164Y-90306621D01*
X149175669Y-90392758D01*
X149259975Y-90517367D01*
X149364136Y-90673086D01*
X149483209Y-90852557D01*
X149612250Y-91048420D01*
X149630310Y-91075937D01*
X150124973Y-91830000D01*
X149793125Y-91829876D01*
X149385728Y-91194938D01*
X149270599Y-91016847D01*
X149166303Y-90858062D01*
X149077818Y-90725957D01*
X149010124Y-90627905D01*
X148968201Y-90571280D01*
X148957103Y-90560183D01*
X148934615Y-90585740D01*
X148882863Y-90657410D01*
X148806855Y-90767845D01*
X148711597Y-90909701D01*
X148602099Y-91075631D01*
X148524191Y-91195183D01*
X148112507Y-91830000D01*
X147776388Y-91830000D01*
X148316750Y-91020375D01*
X148470253Y-90790984D01*
X148593182Y-90609218D01*
X148689795Y-90469608D01*
X148764350Y-90366684D01*
X148821106Y-90294978D01*
X148864321Y-90249020D01*
X148898253Y-90223342D01*
X148927160Y-90212474D01*
X148947134Y-90210750D01*
X149031487Y-90229693D01*
G36*
X150634500Y-91830000D02*
G01*
X150285250Y-91830000D01*
X150285250Y-91544250D01*
X150634500Y-91544250D01*
X150634500Y-91830000D01*
G37*
X150634500Y-91830000D02*
X150285250Y-91830000D01*
X150285250Y-91544250D01*
X150634500Y-91544250D01*
X150634500Y-91830000D01*
G36*
X152730000Y-90464750D02*
G01*
X152002017Y-90464750D01*
X151763039Y-90465302D01*
X151579693Y-90467297D01*
X151444118Y-90471239D01*
X151348453Y-90477630D01*
X151284836Y-90486976D01*
X151245407Y-90499782D01*
X151224142Y-90514642D01*
X151181938Y-90597030D01*
X151179681Y-90702712D01*
X151207117Y-90784337D01*
X151223082Y-90806579D01*
X151249742Y-90822708D01*
X151296384Y-90833697D01*
X151372292Y-90840520D01*
X151486753Y-90844150D01*
X151649053Y-90845561D01*
X151792929Y-90845750D01*
X152056256Y-90848009D01*
X152264278Y-90855712D01*
X152425063Y-90870245D01*
X152546676Y-90892994D01*
X152637184Y-90925345D01*
X152704653Y-90968685D01*
X152745132Y-91009407D01*
X152789422Y-91071508D01*
X152813803Y-91138946D01*
X152823817Y-91233412D01*
X152825250Y-91322942D01*
X152816032Y-91495510D01*
X152785169Y-91619053D01*
X152727842Y-91705776D01*
X152652381Y-91760943D01*
X152613609Y-91777704D01*
X152560284Y-91790941D01*
X152484539Y-91801195D01*
X152378508Y-91809009D01*
X152234323Y-91814926D01*
X152044116Y-91819488D01*
X151800021Y-91823237D01*
X151737812Y-91824013D01*
X150920250Y-91833902D01*
X150920250Y-91607750D01*
X151642562Y-91607281D01*
X151900999Y-91606641D01*
X152103027Y-91603805D01*
X152255736Y-91596844D01*
X152366216Y-91583825D01*
X152441558Y-91562818D01*
X152488852Y-91531891D01*
X152515188Y-91489112D01*
X152527656Y-91432551D01*
X152533090Y-91364711D01*
X152536235Y-91275360D01*
X152528497Y-91208751D01*
X152501946Y-91161547D01*
X152448657Y-91130408D01*
X152360701Y-91111998D01*
X152230152Y-91102979D01*
X152049081Y-91100013D01*
X151903794Y-91099750D01*
X151642684Y-91097363D01*
X151436787Y-91089253D01*
X151277961Y-91073995D01*
X151158067Y-91050165D01*
X151068962Y-91016337D01*
X151002505Y-90971087D01*
X150968617Y-90936092D01*
X150920276Y-90865741D01*
X150895998Y-90786973D01*
X150888598Y-90674419D01*
X150888500Y-90653314D01*
X150893177Y-90537674D01*
X150912384Y-90459973D01*
X150953882Y-90395011D01*
X150975812Y-90369848D01*
X151027544Y-90322837D01*
X151092445Y-90285786D01*
X151178080Y-90257592D01*
X151292015Y-90237154D01*
X151441815Y-90223369D01*
X151635045Y-90215135D01*
X151879271Y-90211348D01*
X152067583Y-90210750D01*
X152730000Y-90210750D01*
X152730000Y-90464750D01*
G37*
X152730000Y-90464750D02*
X152002017Y-90464750D01*
X151763039Y-90465302D01*
X151579693Y-90467297D01*
X151444118Y-90471239D01*
X151348453Y-90477630D01*
X151284836Y-90486976D01*
X151245407Y-90499782D01*
X151224142Y-90514642D01*
X151181938Y-90597030D01*
X151179681Y-90702712D01*
X151207117Y-90784337D01*
X151223082Y-90806579D01*
X151249742Y-90822708D01*
X151296384Y-90833697D01*
X151372292Y-90840520D01*
X151486753Y-90844150D01*
X151649053Y-90845561D01*
X151792929Y-90845750D01*
X152056256Y-90848009D01*
X152264278Y-90855712D01*
X152425063Y-90870245D01*
X152546676Y-90892994D01*
X152637184Y-90925345D01*
X152704653Y-90968685D01*
X152745132Y-91009407D01*
X152789422Y-91071508D01*
X152813803Y-91138946D01*
X152823817Y-91233412D01*
X152825250Y-91322942D01*
X152816032Y-91495510D01*
X152785169Y-91619053D01*
X152727842Y-91705776D01*
X152652381Y-91760943D01*
X152613609Y-91777704D01*
X152560284Y-91790941D01*
X152484539Y-91801195D01*
X152378508Y-91809009D01*
X152234323Y-91814926D01*
X152044116Y-91819488D01*
X151800021Y-91823237D01*
X151737812Y-91824013D01*
X150920250Y-91833902D01*
X150920250Y-91607750D01*
X151642562Y-91607281D01*
X151900999Y-91606641D01*
X152103027Y-91603805D01*
X152255736Y-91596844D01*
X152366216Y-91583825D01*
X152441558Y-91562818D01*
X152488852Y-91531891D01*
X152515188Y-91489112D01*
X152527656Y-91432551D01*
X152533090Y-91364711D01*
X152536235Y-91275360D01*
X152528497Y-91208751D01*
X152501946Y-91161547D01*
X152448657Y-91130408D01*
X152360701Y-91111998D01*
X152230152Y-91102979D01*
X152049081Y-91100013D01*
X151903794Y-91099750D01*
X151642684Y-91097363D01*
X151436787Y-91089253D01*
X151277961Y-91073995D01*
X151158067Y-91050165D01*
X151068962Y-91016337D01*
X151002505Y-90971087D01*
X150968617Y-90936092D01*
X150920276Y-90865741D01*
X150895998Y-90786973D01*
X150888598Y-90674419D01*
X150888500Y-90653314D01*
X150893177Y-90537674D01*
X150912384Y-90459973D01*
X150953882Y-90395011D01*
X150975812Y-90369848D01*
X151027544Y-90322837D01*
X151092445Y-90285786D01*
X151178080Y-90257592D01*
X151292015Y-90237154D01*
X151441815Y-90223369D01*
X151635045Y-90215135D01*
X151879271Y-90211348D01*
X152067583Y-90210750D01*
X152730000Y-90210750D01*
X152730000Y-90464750D01*
G36*
X153365000Y-91830000D02*
G01*
X153015750Y-91830000D01*
X153015750Y-91544250D01*
X153365000Y-91544250D01*
X153365000Y-91830000D01*
G37*
X153365000Y-91830000D02*
X153015750Y-91830000D01*
X153015750Y-91544250D01*
X153365000Y-91544250D01*
X153365000Y-91830000D01*
G36*
X154500062Y-90218151D02*
G01*
X155317625Y-90226625D01*
X155327479Y-90345687D01*
X155337333Y-90464750D01*
X153965219Y-90464750D01*
X153974672Y-90663187D01*
X153984125Y-90861625D01*
X154629024Y-90870226D01*
X155273924Y-90878827D01*
X155264024Y-90981351D01*
X155254125Y-91083875D01*
X154611187Y-91092469D01*
X153968250Y-91101064D01*
X153968250Y-91607750D01*
X155333500Y-91607750D01*
X155333500Y-91830000D01*
X153682500Y-91830000D01*
X153682500Y-90209677D01*
X154500062Y-90218151D01*
G37*
X154500062Y-90218151D02*
X155317625Y-90226625D01*
X155327479Y-90345687D01*
X155337333Y-90464750D01*
X153965219Y-90464750D01*
X153974672Y-90663187D01*
X153984125Y-90861625D01*
X154629024Y-90870226D01*
X155273924Y-90878827D01*
X155264024Y-90981351D01*
X155254125Y-91083875D01*
X154611187Y-91092469D01*
X153968250Y-91101064D01*
X153968250Y-91607750D01*
X155333500Y-91607750D01*
X155333500Y-91830000D01*
X153682500Y-91830000D01*
X153682500Y-90209677D01*
X154500062Y-90218151D01*
G36*
X149881000Y-82030505D02*
G01*
X149882062Y-82172326D01*
X149886754Y-82262259D01*
X149897332Y-82311899D01*
X149916055Y-82332845D01*
X149940612Y-82336750D01*
X150005431Y-82354445D01*
X150050275Y-82413934D01*
X150081489Y-82524819D01*
X150087472Y-82559000D01*
X150125826Y-82723949D01*
X150179250Y-82827565D01*
X150250535Y-82870815D01*
X150342473Y-82854668D01*
X150457856Y-82780091D01*
X150533305Y-82713589D01*
X150705559Y-82550678D01*
X150872717Y-82652493D01*
X150980706Y-82721262D01*
X151080922Y-82790006D01*
X151130888Y-82827484D01*
X151221901Y-82900662D01*
X151154700Y-83080272D01*
X151102905Y-83243506D01*
X151090084Y-83359565D01*
X151118616Y-83433167D01*
X151190883Y-83469034D01*
X151309266Y-83471884D01*
X151350031Y-83467532D01*
X151494122Y-83449149D01*
X151589978Y-83442363D01*
X151652692Y-83454074D01*
X151697355Y-83491183D01*
X151739058Y-83560588D01*
X151792894Y-83669191D01*
X151793421Y-83670250D01*
X151848373Y-83786433D01*
X151889936Y-83885346D01*
X151911137Y-83950009D01*
X151912483Y-83960122D01*
X151888867Y-84004187D01*
X151826447Y-84070041D01*
X151738717Y-84143455D01*
X151738375Y-84143713D01*
X151639949Y-84223776D01*
X151585753Y-84285602D01*
X151565062Y-84342774D01*
X151563750Y-84364857D01*
X151576343Y-84437425D01*
X151620642Y-84497753D01*
X151706426Y-84554364D01*
X151843474Y-84615781D01*
X151858545Y-84621792D01*
X152042216Y-84694524D01*
X152021132Y-84880887D01*
X152000047Y-85067250D01*
X152198750Y-85067250D01*
X152198750Y-89163000D01*
X151944750Y-89163000D01*
X151944750Y-85289500D01*
X149627000Y-85289500D01*
X149627000Y-85067250D01*
X149881000Y-85067250D01*
X150210487Y-85067250D01*
X150367148Y-85065320D01*
X150472304Y-85058434D01*
X150537863Y-85044942D01*
X150575736Y-85023197D01*
X150582732Y-85015730D01*
X150610069Y-84949728D01*
X150628848Y-84840100D01*
X150638128Y-84706264D01*
X150636969Y-84567636D01*
X150624432Y-84443631D01*
X150612985Y-84390947D01*
X150529435Y-84201494D01*
X150396149Y-84028325D01*
X150226828Y-83884937D01*
X150035176Y-83784832D01*
X149978925Y-83766267D01*
X149881000Y-83738182D01*
X149881000Y-85067250D01*
X149627000Y-85067250D01*
X149627000Y-81987500D01*
X149441578Y-81987500D01*
X149135395Y-82017157D01*
X148827291Y-82102080D01*
X148531761Y-82236191D01*
X148263303Y-82413416D01*
X148116050Y-82543035D01*
X147983202Y-82686082D01*
X147875486Y-82832073D01*
X147789739Y-82990351D01*
X147722802Y-83170259D01*
X147671511Y-83381139D01*
X147632705Y-83632333D01*
X147603222Y-83933184D01*
X147591846Y-84091948D01*
X147572210Y-84355476D01*
X147549303Y-84570372D01*
X147519666Y-84751507D01*
X147479843Y-84913749D01*
X147426376Y-85071968D01*
X147355807Y-85241033D01*
X147293182Y-85376319D01*
X147227005Y-85519548D01*
X147172359Y-85645455D01*
X147134552Y-85741249D01*
X147118893Y-85794138D01*
X147118750Y-85796608D01*
X147149370Y-85868355D01*
X147240463Y-85954360D01*
X147390877Y-86053562D01*
X147409718Y-86064502D01*
X147516788Y-86135260D01*
X147592145Y-86213030D01*
X147644295Y-86312846D01*
X147681746Y-86449743D01*
X147705528Y-86587278D01*
X147740841Y-86796742D01*
X147778234Y-86956490D01*
X147822577Y-87080243D01*
X147878739Y-87181726D01*
X147947990Y-87270588D01*
X148104508Y-87404555D01*
X148316824Y-87513776D01*
X148585761Y-87598525D01*
X148912142Y-87659077D01*
X149206312Y-87689625D01*
X149500000Y-87711610D01*
X149500000Y-89163000D01*
X149247371Y-89163000D01*
X149230125Y-87942872D01*
X148944375Y-87907356D01*
X148639241Y-87861091D01*
X148387168Y-87803148D01*
X148178229Y-87729898D01*
X148002495Y-87637716D01*
X147850041Y-87522975D01*
X147821627Y-87497147D01*
X147688750Y-87346670D01*
X147592027Y-87172371D01*
X147524749Y-86960075D01*
X147495727Y-86808583D01*
X147467574Y-86633758D01*
X147442871Y-86509014D01*
X147415152Y-86421711D01*
X147377950Y-86359208D01*
X147324797Y-86308865D01*
X147249226Y-86258043D01*
X147198007Y-86226672D01*
X147070650Y-86141085D01*
X146986349Y-86061705D01*
X146928613Y-85972693D01*
X146924167Y-85963690D01*
X146890000Y-85879890D01*
X146875732Y-85799569D01*
X146883697Y-85710777D01*
X146916228Y-85601566D01*
X146975660Y-85459986D01*
X147055274Y-85292568D01*
X147141472Y-85110267D01*
X147206321Y-84954187D01*
X147253754Y-84808232D01*
X147287708Y-84656304D01*
X147312116Y-84482309D01*
X147330912Y-84270149D01*
X147340689Y-84124924D01*
X147369020Y-83765047D01*
X147407075Y-83459732D01*
X147457955Y-83200387D01*
X147524762Y-82978420D01*
X147610598Y-82785239D01*
X147718565Y-82612252D01*
X147851765Y-82450867D01*
X147996796Y-82307510D01*
X148201502Y-82147867D01*
X148445792Y-82001811D01*
X148705757Y-81882243D01*
X148912625Y-81813342D01*
X149022651Y-81791153D01*
X149174663Y-81770151D01*
X149347159Y-81752934D01*
X149492062Y-81743303D01*
X149881000Y-81724261D01*
X149881000Y-82030505D01*
G37*
X149881000Y-82030505D02*
X149882062Y-82172326D01*
X149886754Y-82262259D01*
X149897332Y-82311899D01*
X149916055Y-82332845D01*
X149940612Y-82336750D01*
X150005431Y-82354445D01*
X150050275Y-82413934D01*
X150081489Y-82524819D01*
X150087472Y-82559000D01*
X150125826Y-82723949D01*
X150179250Y-82827565D01*
X150250535Y-82870815D01*
X150342473Y-82854668D01*
X150457856Y-82780091D01*
X150533305Y-82713589D01*
X150705559Y-82550678D01*
X150872717Y-82652493D01*
X150980706Y-82721262D01*
X151080922Y-82790006D01*
X151130888Y-82827484D01*
X151221901Y-82900662D01*
X151154700Y-83080272D01*
X151102905Y-83243506D01*
X151090084Y-83359565D01*
X151118616Y-83433167D01*
X151190883Y-83469034D01*
X151309266Y-83471884D01*
X151350031Y-83467532D01*
X151494122Y-83449149D01*
X151589978Y-83442363D01*
X151652692Y-83454074D01*
X151697355Y-83491183D01*
X151739058Y-83560588D01*
X151792894Y-83669191D01*
X151793421Y-83670250D01*
X151848373Y-83786433D01*
X151889936Y-83885346D01*
X151911137Y-83950009D01*
X151912483Y-83960122D01*
X151888867Y-84004187D01*
X151826447Y-84070041D01*
X151738717Y-84143455D01*
X151738375Y-84143713D01*
X151639949Y-84223776D01*
X151585753Y-84285602D01*
X151565062Y-84342774D01*
X151563750Y-84364857D01*
X151576343Y-84437425D01*
X151620642Y-84497753D01*
X151706426Y-84554364D01*
X151843474Y-84615781D01*
X151858545Y-84621792D01*
X152042216Y-84694524D01*
X152021132Y-84880887D01*
X152000047Y-85067250D01*
X152198750Y-85067250D01*
X152198750Y-89163000D01*
X151944750Y-89163000D01*
X151944750Y-85289500D01*
X149627000Y-85289500D01*
X149627000Y-85067250D01*
X149881000Y-85067250D01*
X150210487Y-85067250D01*
X150367148Y-85065320D01*
X150472304Y-85058434D01*
X150537863Y-85044942D01*
X150575736Y-85023197D01*
X150582732Y-85015730D01*
X150610069Y-84949728D01*
X150628848Y-84840100D01*
X150638128Y-84706264D01*
X150636969Y-84567636D01*
X150624432Y-84443631D01*
X150612985Y-84390947D01*
X150529435Y-84201494D01*
X150396149Y-84028325D01*
X150226828Y-83884937D01*
X150035176Y-83784832D01*
X149978925Y-83766267D01*
X149881000Y-83738182D01*
X149881000Y-85067250D01*
X149627000Y-85067250D01*
X149627000Y-81987500D01*
X149441578Y-81987500D01*
X149135395Y-82017157D01*
X148827291Y-82102080D01*
X148531761Y-82236191D01*
X148263303Y-82413416D01*
X148116050Y-82543035D01*
X147983202Y-82686082D01*
X147875486Y-82832073D01*
X147789739Y-82990351D01*
X147722802Y-83170259D01*
X147671511Y-83381139D01*
X147632705Y-83632333D01*
X147603222Y-83933184D01*
X147591846Y-84091948D01*
X147572210Y-84355476D01*
X147549303Y-84570372D01*
X147519666Y-84751507D01*
X147479843Y-84913749D01*
X147426376Y-85071968D01*
X147355807Y-85241033D01*
X147293182Y-85376319D01*
X147227005Y-85519548D01*
X147172359Y-85645455D01*
X147134552Y-85741249D01*
X147118893Y-85794138D01*
X147118750Y-85796608D01*
X147149370Y-85868355D01*
X147240463Y-85954360D01*
X147390877Y-86053562D01*
X147409718Y-86064502D01*
X147516788Y-86135260D01*
X147592145Y-86213030D01*
X147644295Y-86312846D01*
X147681746Y-86449743D01*
X147705528Y-86587278D01*
X147740841Y-86796742D01*
X147778234Y-86956490D01*
X147822577Y-87080243D01*
X147878739Y-87181726D01*
X147947990Y-87270588D01*
X148104508Y-87404555D01*
X148316824Y-87513776D01*
X148585761Y-87598525D01*
X148912142Y-87659077D01*
X149206312Y-87689625D01*
X149500000Y-87711610D01*
X149500000Y-89163000D01*
X149247371Y-89163000D01*
X149230125Y-87942872D01*
X148944375Y-87907356D01*
X148639241Y-87861091D01*
X148387168Y-87803148D01*
X148178229Y-87729898D01*
X148002495Y-87637716D01*
X147850041Y-87522975D01*
X147821627Y-87497147D01*
X147688750Y-87346670D01*
X147592027Y-87172371D01*
X147524749Y-86960075D01*
X147495727Y-86808583D01*
X147467574Y-86633758D01*
X147442871Y-86509014D01*
X147415152Y-86421711D01*
X147377950Y-86359208D01*
X147324797Y-86308865D01*
X147249226Y-86258043D01*
X147198007Y-86226672D01*
X147070650Y-86141085D01*
X146986349Y-86061705D01*
X146928613Y-85972693D01*
X146924167Y-85963690D01*
X146890000Y-85879890D01*
X146875732Y-85799569D01*
X146883697Y-85710777D01*
X146916228Y-85601566D01*
X146975660Y-85459986D01*
X147055274Y-85292568D01*
X147141472Y-85110267D01*
X147206321Y-84954187D01*
X147253754Y-84808232D01*
X147287708Y-84656304D01*
X147312116Y-84482309D01*
X147330912Y-84270149D01*
X147340689Y-84124924D01*
X147369020Y-83765047D01*
X147407075Y-83459732D01*
X147457955Y-83200387D01*
X147524762Y-82978420D01*
X147610598Y-82785239D01*
X147718565Y-82612252D01*
X147851765Y-82450867D01*
X147996796Y-82307510D01*
X148201502Y-82147867D01*
X148445792Y-82001811D01*
X148705757Y-81882243D01*
X148912625Y-81813342D01*
X149022651Y-81791153D01*
X149174663Y-81770151D01*
X149347159Y-81752934D01*
X149492062Y-81743303D01*
X149881000Y-81724261D01*
X149881000Y-82030505D01*
D11*
G04 #@! TO.C,MK1*
X149200000Y-109600000D02*
X149200000Y-109600000D01*
X149000000Y-109600000D02*
X149000000Y-109600000D01*
X155120000Y-115000000D02*
X155120000Y-115000000D01*
X145420000Y-115000000D02*
X145420000Y-115000000D01*
X155120000Y-115000000D02*
G75*
G02*
X145420000Y-115000000I-4850000J0D01*
G01*
X145420000Y-115000000D02*
G75*
G02*
X155120000Y-115000000I4850000J0D01*
G01*
X149200000Y-109600000D02*
G75*
G02*
X149000000Y-109600000I-100000J0D01*
G01*
X149000000Y-109600000D02*
G75*
G02*
X149200000Y-109600000I100000J0D01*
G01*
D12*
G04 #@! TO.C,D2*
X180643402Y-38558082D02*
X179903180Y-35795534D01*
X178788825Y-39055014D02*
X180643402Y-38558082D01*
X178048602Y-36292466D02*
X178788825Y-39055014D01*
G04 #@! TO.C,D3*
X121939915Y-33481968D02*
X120961738Y-36169489D01*
X120961738Y-36169489D02*
X122765947Y-36826168D01*
X122765947Y-36826168D02*
X123744125Y-34138647D01*
G04 #@! TO.C,D4*
X116946020Y-44383752D02*
X114096903Y-44134486D01*
X116778681Y-46296446D02*
X116946020Y-44383752D01*
X113929564Y-46047180D02*
X116778681Y-46296446D01*
G04 #@! TO.C,D5*
X182358678Y-45058925D02*
X179542127Y-45555559D01*
X179542127Y-45555559D02*
X179875532Y-47446390D01*
X179875532Y-47446390D02*
X182692082Y-46949756D01*
G04 #@! TO.C,D6*
X138003068Y-46614071D02*
X135980743Y-48636396D01*
X135980743Y-48636396D02*
X137338388Y-49994041D01*
X137338388Y-49994041D02*
X139360713Y-47971716D01*
G04 #@! TO.C,D7*
X168511384Y-54630807D02*
X167081384Y-52153975D01*
X166848616Y-55590807D02*
X168511384Y-54630807D01*
X165418616Y-53113975D02*
X166848616Y-55590807D01*
G04 #@! TO.C,D8*
X110240572Y-65032011D02*
X113100572Y-65032011D01*
X113100572Y-65032011D02*
X113100572Y-63112011D01*
X113100572Y-63112011D02*
X110240572Y-63112011D01*
G04 #@! TO.C,D9*
X177501847Y-65279122D02*
X180350964Y-65029856D01*
X177334508Y-63366428D02*
X177501847Y-65279122D01*
X180183625Y-63117162D02*
X177334508Y-63366428D01*
G04 #@! TO.C,MK1*
D13*
X150844523Y-116463095D02*
X149574523Y-116463095D01*
X150481666Y-116039761D01*
X149574523Y-115616428D01*
X150844523Y-115616428D01*
X150844523Y-115011666D02*
X149574523Y-115011666D01*
X150844523Y-114285952D02*
X150118809Y-114830238D01*
X149574523Y-114285952D02*
X150300238Y-115011666D01*
X150844523Y-113076428D02*
X150844523Y-113802142D01*
X150844523Y-113439285D02*
X149574523Y-113439285D01*
X149755952Y-113560238D01*
X149876904Y-113681190D01*
X149937380Y-113802142D01*
G04 #@! TD*
%LPC*%
D10*
G04 #@! TO.C,G\u002A\u002A\u002A*
G36*
X167585374Y-97591206D02*
G01*
X168243912Y-97652426D01*
X168698881Y-97728877D01*
X169453342Y-97917938D01*
X170192185Y-98147930D01*
X170889197Y-98407484D01*
X171518165Y-98685228D01*
X172052874Y-98969794D01*
X172467111Y-99249810D01*
X172692717Y-99461233D01*
X172998773Y-99932635D01*
X173157308Y-100434724D01*
X173179238Y-100943269D01*
X173075483Y-101434041D01*
X172856960Y-101882810D01*
X172534587Y-102265347D01*
X172119282Y-102557421D01*
X171621963Y-102734803D01*
X171198171Y-102778000D01*
X170952060Y-102764235D01*
X170699661Y-102714827D01*
X170399907Y-102617605D01*
X170011728Y-102460399D01*
X169770047Y-102354789D01*
X169055242Y-102054966D01*
X168435660Y-101838183D01*
X167865633Y-101693552D01*
X167299492Y-101610181D01*
X166691569Y-101577180D01*
X166502000Y-101575477D01*
X166006867Y-101582888D01*
X165615917Y-101611521D01*
X165264495Y-101669673D01*
X164887943Y-101765643D01*
X164784255Y-101795936D01*
X163720759Y-102184576D01*
X162761449Y-102692804D01*
X161875323Y-103338237D01*
X161523372Y-103649025D01*
X161227600Y-103903568D01*
X160926204Y-104129825D01*
X160675551Y-104286123D01*
X160634372Y-104306277D01*
X160185911Y-104433544D01*
X159678030Y-104456696D01*
X159186377Y-104373747D01*
X159102833Y-104346469D01*
X158744799Y-104151610D01*
X158391798Y-103847046D01*
X158095726Y-103485792D01*
X157911266Y-103129168D01*
X157789135Y-102609641D01*
X157802153Y-102133023D01*
X157957549Y-101673207D01*
X158262548Y-101204084D01*
X158528906Y-100898209D01*
X159367980Y-100119024D01*
X160339175Y-99411029D01*
X161414697Y-98789721D01*
X162566757Y-98270596D01*
X163767560Y-97869150D01*
X164131333Y-97774423D01*
X164682514Y-97674144D01*
X165351850Y-97605201D01*
X166091001Y-97568075D01*
X166851623Y-97563250D01*
X167585374Y-97591206D01*
G37*
X167585374Y-97591206D02*
X168243912Y-97652426D01*
X168698881Y-97728877D01*
X169453342Y-97917938D01*
X170192185Y-98147930D01*
X170889197Y-98407484D01*
X171518165Y-98685228D01*
X172052874Y-98969794D01*
X172467111Y-99249810D01*
X172692717Y-99461233D01*
X172998773Y-99932635D01*
X173157308Y-100434724D01*
X173179238Y-100943269D01*
X173075483Y-101434041D01*
X172856960Y-101882810D01*
X172534587Y-102265347D01*
X172119282Y-102557421D01*
X171621963Y-102734803D01*
X171198171Y-102778000D01*
X170952060Y-102764235D01*
X170699661Y-102714827D01*
X170399907Y-102617605D01*
X170011728Y-102460399D01*
X169770047Y-102354789D01*
X169055242Y-102054966D01*
X168435660Y-101838183D01*
X167865633Y-101693552D01*
X167299492Y-101610181D01*
X166691569Y-101577180D01*
X166502000Y-101575477D01*
X166006867Y-101582888D01*
X165615917Y-101611521D01*
X165264495Y-101669673D01*
X164887943Y-101765643D01*
X164784255Y-101795936D01*
X163720759Y-102184576D01*
X162761449Y-102692804D01*
X161875323Y-103338237D01*
X161523372Y-103649025D01*
X161227600Y-103903568D01*
X160926204Y-104129825D01*
X160675551Y-104286123D01*
X160634372Y-104306277D01*
X160185911Y-104433544D01*
X159678030Y-104456696D01*
X159186377Y-104373747D01*
X159102833Y-104346469D01*
X158744799Y-104151610D01*
X158391798Y-103847046D01*
X158095726Y-103485792D01*
X157911266Y-103129168D01*
X157789135Y-102609641D01*
X157802153Y-102133023D01*
X157957549Y-101673207D01*
X158262548Y-101204084D01*
X158528906Y-100898209D01*
X159367980Y-100119024D01*
X160339175Y-99411029D01*
X161414697Y-98789721D01*
X162566757Y-98270596D01*
X163767560Y-97869150D01*
X164131333Y-97774423D01*
X164682514Y-97674144D01*
X165351850Y-97605201D01*
X166091001Y-97568075D01*
X166851623Y-97563250D01*
X167585374Y-97591206D01*
G36*
X135204158Y-97572701D02*
G01*
X135785291Y-97595073D01*
X136274135Y-97636443D01*
X136572333Y-97683919D01*
X137847484Y-98023131D01*
X139020163Y-98468353D01*
X140132279Y-99037124D01*
X140800509Y-99453347D01*
X141298847Y-99808993D01*
X141784798Y-100200344D01*
X142235166Y-100604607D01*
X142626755Y-100998992D01*
X142936369Y-101360707D01*
X143140811Y-101666959D01*
X143203215Y-101814156D01*
X143297638Y-102410848D01*
X143228229Y-102966458D01*
X142996428Y-103475711D01*
X142631295Y-103907854D01*
X142158920Y-104245191D01*
X141636306Y-104434749D01*
X141091865Y-104471339D01*
X140554010Y-104349770D01*
X140450294Y-104306277D01*
X140217589Y-104170108D01*
X139922223Y-103955170D01*
X139620563Y-103703134D01*
X139561294Y-103649025D01*
X138696350Y-102941775D01*
X137771029Y-102379008D01*
X136754327Y-101943105D01*
X136300411Y-101795936D01*
X135907804Y-101689413D01*
X135556201Y-101622744D01*
X135180944Y-101587633D01*
X134717377Y-101575781D01*
X134582666Y-101575477D01*
X133954207Y-101595974D01*
X133380701Y-101663700D01*
X132816482Y-101789546D01*
X132215879Y-101984401D01*
X131533224Y-102259157D01*
X131314619Y-102354789D01*
X130866425Y-102546775D01*
X130527318Y-102672653D01*
X130256229Y-102744595D01*
X130012088Y-102774771D01*
X129886495Y-102778000D01*
X129334416Y-102703418D01*
X128856097Y-102495824D01*
X128462454Y-102179449D01*
X128164407Y-101778521D01*
X127972873Y-101317272D01*
X127898769Y-100819930D01*
X127953015Y-100310725D01*
X128146529Y-99813888D01*
X128391948Y-99461233D01*
X128685471Y-99199263D01*
X129119368Y-98922056D01*
X129666824Y-98641240D01*
X130301024Y-98368445D01*
X130995154Y-98115298D01*
X131722397Y-97893428D01*
X132384761Y-97729728D01*
X132797080Y-97664004D01*
X133327196Y-97614979D01*
X133933093Y-97583114D01*
X134572753Y-97568868D01*
X135204158Y-97572701D01*
G37*
X135204158Y-97572701D02*
X135785291Y-97595073D01*
X136274135Y-97636443D01*
X136572333Y-97683919D01*
X137847484Y-98023131D01*
X139020163Y-98468353D01*
X140132279Y-99037124D01*
X140800509Y-99453347D01*
X141298847Y-99808993D01*
X141784798Y-100200344D01*
X142235166Y-100604607D01*
X142626755Y-100998992D01*
X142936369Y-101360707D01*
X143140811Y-101666959D01*
X143203215Y-101814156D01*
X143297638Y-102410848D01*
X143228229Y-102966458D01*
X142996428Y-103475711D01*
X142631295Y-103907854D01*
X142158920Y-104245191D01*
X141636306Y-104434749D01*
X141091865Y-104471339D01*
X140554010Y-104349770D01*
X140450294Y-104306277D01*
X140217589Y-104170108D01*
X139922223Y-103955170D01*
X139620563Y-103703134D01*
X139561294Y-103649025D01*
X138696350Y-102941775D01*
X137771029Y-102379008D01*
X136754327Y-101943105D01*
X136300411Y-101795936D01*
X135907804Y-101689413D01*
X135556201Y-101622744D01*
X135180944Y-101587633D01*
X134717377Y-101575781D01*
X134582666Y-101575477D01*
X133954207Y-101595974D01*
X133380701Y-101663700D01*
X132816482Y-101789546D01*
X132215879Y-101984401D01*
X131533224Y-102259157D01*
X131314619Y-102354789D01*
X130866425Y-102546775D01*
X130527318Y-102672653D01*
X130256229Y-102744595D01*
X130012088Y-102774771D01*
X129886495Y-102778000D01*
X129334416Y-102703418D01*
X128856097Y-102495824D01*
X128462454Y-102179449D01*
X128164407Y-101778521D01*
X127972873Y-101317272D01*
X127898769Y-100819930D01*
X127953015Y-100310725D01*
X128146529Y-99813888D01*
X128391948Y-99461233D01*
X128685471Y-99199263D01*
X129119368Y-98922056D01*
X129666824Y-98641240D01*
X130301024Y-98368445D01*
X130995154Y-98115298D01*
X131722397Y-97893428D01*
X132384761Y-97729728D01*
X132797080Y-97664004D01*
X133327196Y-97614979D01*
X133933093Y-97583114D01*
X134572753Y-97568868D01*
X135204158Y-97572701D01*
G04 #@! TD*
D14*
G04 #@! TO.C,REF\u002A\u002A*
X122500000Y-80000000D03*
G04 #@! TD*
G04 #@! TO.C,REF\u002A\u002A*
X178500000Y-80000000D03*
G04 #@! TD*
D15*
G04 #@! TO.C,J1*
X151540000Y-116500000D03*
D16*
X149000000Y-116500000D03*
G04 #@! TD*
D17*
G04 #@! TO.C,MK1*
X149000000Y-113000000D03*
X151540000Y-113000000D03*
G04 #@! TD*
G04 #@! TO.C,D2*
G36*
G01*
X180083489Y-38438939D02*
X179214154Y-38671876D01*
G75*
G02*
X178907969Y-38495101I-64705J241480D01*
G01*
X178739736Y-37867247D01*
G75*
G02*
X178916511Y-37561062I241480J64705D01*
G01*
X179785846Y-37328124D01*
G75*
G02*
X180092031Y-37504899I64705J-241480D01*
G01*
X180260264Y-38132753D01*
G75*
G02*
X180083489Y-38438938I-241480J-64705D01*
G01*
G37*
G36*
G01*
X179552909Y-36458791D02*
X178683574Y-36691728D01*
G75*
G02*
X178377389Y-36514953I-64705J241480D01*
G01*
X178209156Y-35887099D01*
G75*
G02*
X178385931Y-35580914I241480J64705D01*
G01*
X179255266Y-35347976D01*
G75*
G02*
X179561451Y-35524751I64705J-241480D01*
G01*
X179729684Y-36152605D01*
G75*
G02*
X179552909Y-36458790I-241480J-64705D01*
G01*
G37*
G04 #@! TD*
G04 #@! TO.C,D3*
G36*
G01*
X123076772Y-34481048D02*
X122231046Y-34173229D01*
G75*
G02*
X122081629Y-33852802I85505J234922D01*
G01*
X122303943Y-33242000D01*
G75*
G02*
X122624370Y-33092583I234922J-85505D01*
G01*
X123470096Y-33400401D01*
G75*
G02*
X123619513Y-33720828I-85505J-234922D01*
G01*
X123397199Y-34331630D01*
G75*
G02*
X123076772Y-34481047I-234922J85505D01*
G01*
G37*
G36*
G01*
X122375630Y-36407418D02*
X121529904Y-36099599D01*
G75*
G02*
X121380487Y-35779172I85505J234922D01*
G01*
X121602801Y-35168370D01*
G75*
G02*
X121923228Y-35018953I234922J-85505D01*
G01*
X122768954Y-35326771D01*
G75*
G02*
X122918371Y-35647198I-85505J-234922D01*
G01*
X122696057Y-36258000D01*
G75*
G02*
X122375630Y-36407417I-234922J85505D01*
G01*
G37*
G04 #@! TD*
G04 #@! TO.C,D4*
G36*
G01*
X116642560Y-44869150D02*
X116564120Y-45765727D01*
G75*
G02*
X116293283Y-45992986I-249048J21789D01*
G01*
X115645755Y-45936335D01*
G75*
G02*
X115418496Y-45665498I21789J249048D01*
G01*
X115496936Y-44768921D01*
G75*
G02*
X115767773Y-44541662I249048J-21789D01*
G01*
X116415301Y-44598313D01*
G75*
G02*
X116642560Y-44869150I-21789J-249048D01*
G01*
G37*
G36*
G01*
X114600360Y-44690480D02*
X114521920Y-45587057D01*
G75*
G02*
X114251083Y-45814316I-249048J21789D01*
G01*
X113603555Y-45757665D01*
G75*
G02*
X113376296Y-45486828I21789J249048D01*
G01*
X113454736Y-44590251D01*
G75*
G02*
X113725573Y-44362992I249048J-21789D01*
G01*
X114373101Y-44419643D01*
G75*
G02*
X114600360Y-44690480I-21789J-249048D01*
G01*
G37*
G04 #@! TD*
G04 #@! TO.C,D5*
G36*
G01*
X182061877Y-46543012D02*
X181905594Y-45656683D01*
G75*
G02*
X182108383Y-45367070I246201J43412D01*
G01*
X182748510Y-45254199D01*
G75*
G02*
X183038123Y-45456988I43412J-246201D01*
G01*
X183194406Y-46343317D01*
G75*
G02*
X182991617Y-46632930I-246201J-43412D01*
G01*
X182351490Y-46745801D01*
G75*
G02*
X182061877Y-46543012I-43412J246201D01*
G01*
G37*
G36*
G01*
X180043021Y-46898990D02*
X179886738Y-46012661D01*
G75*
G02*
X180089527Y-45723048I246201J43412D01*
G01*
X180729654Y-45610177D01*
G75*
G02*
X181019267Y-45812966I43412J-246201D01*
G01*
X181175550Y-46699295D01*
G75*
G02*
X180972761Y-46988908I-246201J-43412D01*
G01*
X180332634Y-47101779D01*
G75*
G02*
X180043021Y-46898990I-43412J246201D01*
G01*
G37*
G04 #@! TD*
G04 #@! TO.C,D6*
G36*
G01*
X138611180Y-48000001D02*
X137974783Y-47363604D01*
G75*
G02*
X137974783Y-47010052I176776J176776D01*
G01*
X138434404Y-46550431D01*
G75*
G02*
X138787956Y-46550431I176776J-176776D01*
G01*
X139424353Y-47186828D01*
G75*
G02*
X139424353Y-47540380I-176776J-176776D01*
G01*
X138964732Y-48000001D01*
G75*
G02*
X138611180Y-48000001I-176776J176776D01*
G01*
G37*
G36*
G01*
X137161612Y-49449569D02*
X136525215Y-48813172D01*
G75*
G02*
X136525215Y-48459620I176776J176776D01*
G01*
X136984836Y-47999999D01*
G75*
G02*
X137338388Y-47999999I176776J-176776D01*
G01*
X137974785Y-48636396D01*
G75*
G02*
X137974785Y-48989948I-176776J-176776D01*
G01*
X137515164Y-49449569D01*
G75*
G02*
X137161612Y-49449569I-176776J176776D01*
G01*
G37*
G04 #@! TD*
G04 #@! TO.C,D7*
G36*
G01*
X167939712Y-54660640D02*
X167160288Y-55110641D01*
G75*
G02*
X166818783Y-55019135I-125000J216505D01*
G01*
X166493782Y-54456216D01*
G75*
G02*
X166585288Y-54114712I216505J124999D01*
G01*
X167364713Y-53664711D01*
G75*
G02*
X167706217Y-53756217I124999J-216505D01*
G01*
X168031218Y-54319136D01*
G75*
G02*
X167939713Y-54660640I-216505J-124999D01*
G01*
G37*
G36*
G01*
X166914712Y-52885288D02*
X166135288Y-53335289D01*
G75*
G02*
X165793783Y-53243783I-125000J216505D01*
G01*
X165468782Y-52680864D01*
G75*
G02*
X165560288Y-52339360I216505J124999D01*
G01*
X166339713Y-51889359D01*
G75*
G02*
X166681217Y-51980865I124999J-216505D01*
G01*
X167006218Y-52543784D01*
G75*
G02*
X166914713Y-52885288I-216505J-124999D01*
G01*
G37*
G04 #@! TD*
G04 #@! TO.C,D8*
G36*
G01*
X110790572Y-63622010D02*
X110790572Y-64522012D01*
G75*
G02*
X110540573Y-64772011I-249999J0D01*
G01*
X109890571Y-64772011D01*
G75*
G02*
X109640572Y-64522012I0J249999D01*
G01*
X109640572Y-63622010D01*
G75*
G02*
X109890571Y-63372011I249999J0D01*
G01*
X110540573Y-63372011D01*
G75*
G02*
X110790572Y-63622010I0J-249999D01*
G01*
G37*
G36*
G01*
X112840572Y-63622010D02*
X112840572Y-64522012D01*
G75*
G02*
X112590573Y-64772011I-249999J0D01*
G01*
X111940571Y-64772011D01*
G75*
G02*
X111690572Y-64522012I0J249999D01*
G01*
X111690572Y-63622010D01*
G75*
G02*
X111940571Y-63372011I249999J0D01*
G01*
X112590573Y-63372011D01*
G75*
G02*
X112840572Y-63622010I0J-249999D01*
G01*
G37*
G04 #@! TD*
G04 #@! TO.C,D9*
G36*
G01*
X177716408Y-64748403D02*
X177637968Y-63851826D01*
G75*
G02*
X177865227Y-63580989I249048J21789D01*
G01*
X178512755Y-63524338D01*
G75*
G02*
X178783592Y-63751597I21789J-249048D01*
G01*
X178862032Y-64648174D01*
G75*
G02*
X178634773Y-64919011I-249048J-21789D01*
G01*
X177987245Y-64975662D01*
G75*
G02*
X177716408Y-64748403I-21789J249048D01*
G01*
G37*
G36*
G01*
X179758608Y-64569733D02*
X179680168Y-63673156D01*
G75*
G02*
X179907427Y-63402319I249048J21789D01*
G01*
X180554955Y-63345668D01*
G75*
G02*
X180825792Y-63572927I21789J-249048D01*
G01*
X180904232Y-64469504D01*
G75*
G02*
X180676973Y-64740341I-249048J-21789D01*
G01*
X180029445Y-64796992D01*
G75*
G02*
X179758608Y-64569733I-21789J249048D01*
G01*
G37*
G04 #@! TD*
M02*
