G04 #@! TF.GenerationSoftware,KiCad,Pcbnew,(5.1.9)-1*
G04 #@! TF.CreationDate,2021-10-10T13:31:20+02:00*
G04 #@! TF.ProjectId,opamp_vu_meter,6f70616d-705f-4767-955f-6d657465722e,rev?*
G04 #@! TF.SameCoordinates,Original*
G04 #@! TF.FileFunction,Copper,L2,Bot*
G04 #@! TF.FilePolarity,Positive*
%FSLAX46Y46*%
G04 Gerber Fmt 4.6, Leading zero omitted, Abs format (unit mm)*
G04 Created by KiCad (PCBNEW (5.1.9)-1) date 2021-10-10 13:31:20*
%MOMM*%
%LPD*%
G01*
G04 APERTURE LIST*
G04 #@! TA.AperFunction,ComponentPad*
%ADD10C,1.333000*%
G04 #@! TD*
G04 #@! TA.AperFunction,ComponentPad*
%ADD11C,2.600000*%
G04 #@! TD*
G04 #@! TA.AperFunction,ComponentPad*
%ADD12R,2.600000X2.600000*%
G04 #@! TD*
G04 #@! TA.AperFunction,ComponentPad*
%ADD13R,1.700000X1.700000*%
G04 #@! TD*
G04 #@! TA.AperFunction,ComponentPad*
%ADD14O,1.700000X1.700000*%
G04 #@! TD*
G04 #@! TA.AperFunction,ComponentPad*
%ADD15C,1.440000*%
G04 #@! TD*
G04 #@! TA.AperFunction,ViaPad*
%ADD16C,0.800000*%
G04 #@! TD*
G04 #@! TA.AperFunction,Conductor*
%ADD17C,0.400000*%
G04 #@! TD*
G04 #@! TA.AperFunction,Conductor*
%ADD18C,0.254000*%
G04 #@! TD*
G04 #@! TA.AperFunction,Conductor*
%ADD19C,0.100000*%
G04 #@! TD*
G04 APERTURE END LIST*
D10*
G04 #@! TO.P,MK1,1*
G04 #@! TO.N,GND*
X111000000Y-132000000D03*
G04 #@! TO.P,MK1,2*
G04 #@! TO.N,Net-(C1-Pad1)*
X111000000Y-134540000D03*
G04 #@! TD*
D11*
G04 #@! TO.P,J1,2*
G04 #@! TO.N,GND*
X109000000Y-123080000D03*
D12*
G04 #@! TO.P,J1,1*
G04 #@! TO.N,VCC*
X109000000Y-118000000D03*
G04 #@! TD*
D13*
G04 #@! TO.P,J2,1*
G04 #@! TO.N,AudioLevel*
X121000000Y-119000000D03*
D14*
G04 #@! TO.P,J2,2*
G04 #@! TO.N,GND*
X118460000Y-119000000D03*
G04 #@! TD*
D15*
G04 #@! TO.P,RV1,1*
G04 #@! TO.N,Net-(RV1-Pad1)*
X141000000Y-136000000D03*
G04 #@! TO.P,RV1,2*
G04 #@! TO.N,VCC*
X143540000Y-136000000D03*
G04 #@! TO.P,RV1,3*
G04 #@! TO.N,Net-(R10-Pad1)*
X146080000Y-136000000D03*
G04 #@! TD*
D16*
G04 #@! TO.N,GND*
X164525000Y-129475000D03*
X155525000Y-129525000D03*
X173525000Y-129525000D03*
X135000000Y-125000000D03*
X130394990Y-132605010D03*
X120000000Y-137000000D03*
X149000000Y-133000000D03*
G04 #@! TO.N,VCC*
X158500000Y-123000000D03*
X169475000Y-122475000D03*
X151475000Y-121525000D03*
X151475000Y-119525000D03*
X158500000Y-119500000D03*
X169475000Y-119525000D03*
G04 #@! TD*
D17*
G04 #@! TO.N,VCC*
X151475000Y-121525000D02*
X151475000Y-119525000D01*
X151475000Y-119525000D02*
X151475000Y-119525000D01*
X158500000Y-123000000D02*
X158500000Y-119500000D01*
X158500000Y-119500000D02*
X158500000Y-119500000D01*
X169475000Y-122475000D02*
X169475000Y-119525000D01*
X169475000Y-119525000D02*
X169475000Y-119525000D01*
G04 #@! TD*
D18*
G04 #@! TO.N,GND*
X180453893Y-39707670D02*
X180890498Y-39839489D01*
X181293185Y-40053600D01*
X181646612Y-40341848D01*
X181937327Y-40693261D01*
X182154242Y-41094439D01*
X182289106Y-41530113D01*
X182340001Y-42014353D01*
X182340000Y-135967721D01*
X182292330Y-136453894D01*
X182160512Y-136890497D01*
X181946399Y-137293186D01*
X181658150Y-137646613D01*
X181306739Y-137937327D01*
X180905564Y-138154240D01*
X180469886Y-138289106D01*
X179985664Y-138340000D01*
X106032279Y-138340000D01*
X105546106Y-138292330D01*
X105109503Y-138160512D01*
X104706814Y-137946399D01*
X104353387Y-137658150D01*
X104062673Y-137306739D01*
X103845760Y-136905564D01*
X103710894Y-136469886D01*
X103660000Y-135985664D01*
X103660000Y-135866544D01*
X139645000Y-135866544D01*
X139645000Y-136133456D01*
X139697072Y-136395239D01*
X139799215Y-136641833D01*
X139947503Y-136863762D01*
X140136238Y-137052497D01*
X140358167Y-137200785D01*
X140604761Y-137302928D01*
X140866544Y-137355000D01*
X141133456Y-137355000D01*
X141395239Y-137302928D01*
X141641833Y-137200785D01*
X141863762Y-137052497D01*
X142052497Y-136863762D01*
X142200785Y-136641833D01*
X142270000Y-136474734D01*
X142339215Y-136641833D01*
X142487503Y-136863762D01*
X142676238Y-137052497D01*
X142898167Y-137200785D01*
X143144761Y-137302928D01*
X143406544Y-137355000D01*
X143673456Y-137355000D01*
X143935239Y-137302928D01*
X144181833Y-137200785D01*
X144403762Y-137052497D01*
X144592497Y-136863762D01*
X144740785Y-136641833D01*
X144810000Y-136474734D01*
X144879215Y-136641833D01*
X145027503Y-136863762D01*
X145216238Y-137052497D01*
X145438167Y-137200785D01*
X145684761Y-137302928D01*
X145946544Y-137355000D01*
X146213456Y-137355000D01*
X146475239Y-137302928D01*
X146721833Y-137200785D01*
X146943762Y-137052497D01*
X147132497Y-136863762D01*
X147280785Y-136641833D01*
X147382928Y-136395239D01*
X147435000Y-136133456D01*
X147435000Y-135866544D01*
X147382928Y-135604761D01*
X147280785Y-135358167D01*
X147132497Y-135136238D01*
X146943762Y-134947503D01*
X146721833Y-134799215D01*
X146475239Y-134697072D01*
X146213456Y-134645000D01*
X145946544Y-134645000D01*
X145684761Y-134697072D01*
X145438167Y-134799215D01*
X145216238Y-134947503D01*
X145027503Y-135136238D01*
X144879215Y-135358167D01*
X144810000Y-135525266D01*
X144740785Y-135358167D01*
X144592497Y-135136238D01*
X144403762Y-134947503D01*
X144181833Y-134799215D01*
X143935239Y-134697072D01*
X143673456Y-134645000D01*
X143406544Y-134645000D01*
X143144761Y-134697072D01*
X142898167Y-134799215D01*
X142676238Y-134947503D01*
X142487503Y-135136238D01*
X142339215Y-135358167D01*
X142270000Y-135525266D01*
X142200785Y-135358167D01*
X142052497Y-135136238D01*
X141863762Y-134947503D01*
X141641833Y-134799215D01*
X141395239Y-134697072D01*
X141133456Y-134645000D01*
X140866544Y-134645000D01*
X140604761Y-134697072D01*
X140358167Y-134799215D01*
X140136238Y-134947503D01*
X139947503Y-135136238D01*
X139799215Y-135358167D01*
X139697072Y-135604761D01*
X139645000Y-135866544D01*
X103660000Y-135866544D01*
X103660000Y-134411813D01*
X109698500Y-134411813D01*
X109698500Y-134668187D01*
X109748516Y-134919633D01*
X109846626Y-135156491D01*
X109989059Y-135369658D01*
X110170342Y-135550941D01*
X110383509Y-135693374D01*
X110620367Y-135791484D01*
X110871813Y-135841500D01*
X111128187Y-135841500D01*
X111379633Y-135791484D01*
X111616491Y-135693374D01*
X111829658Y-135550941D01*
X112010941Y-135369658D01*
X112153374Y-135156491D01*
X112251484Y-134919633D01*
X112301500Y-134668187D01*
X112301500Y-134411813D01*
X112251484Y-134160367D01*
X112153374Y-133923509D01*
X112010941Y-133710342D01*
X111829658Y-133529059D01*
X111616491Y-133386626D01*
X111379633Y-133288516D01*
X111293326Y-133271348D01*
X111329054Y-133265723D01*
X111569661Y-133177208D01*
X111662326Y-133127678D01*
X111717718Y-132897323D01*
X111000000Y-132179605D01*
X110282282Y-132897323D01*
X110337674Y-133127678D01*
X110570400Y-133235224D01*
X110714122Y-133269867D01*
X110620367Y-133288516D01*
X110383509Y-133386626D01*
X110170342Y-133529059D01*
X109989059Y-133710342D01*
X109846626Y-133923509D01*
X109748516Y-134160367D01*
X109698500Y-134411813D01*
X103660000Y-134411813D01*
X103660000Y-132075801D01*
X109694402Y-132075801D01*
X109734277Y-132329054D01*
X109822792Y-132569661D01*
X109872322Y-132662326D01*
X110102677Y-132717718D01*
X110820395Y-132000000D01*
X111179605Y-132000000D01*
X111897323Y-132717718D01*
X112127678Y-132662326D01*
X112235224Y-132429600D01*
X112295300Y-132180365D01*
X112305598Y-131924199D01*
X112265723Y-131670946D01*
X112177208Y-131430339D01*
X112127678Y-131337674D01*
X111897323Y-131282282D01*
X111179605Y-132000000D01*
X110820395Y-132000000D01*
X110102677Y-131282282D01*
X109872322Y-131337674D01*
X109764776Y-131570400D01*
X109704700Y-131819635D01*
X109694402Y-132075801D01*
X103660000Y-132075801D01*
X103660000Y-131102677D01*
X110282282Y-131102677D01*
X111000000Y-131820395D01*
X111717718Y-131102677D01*
X111662326Y-130872322D01*
X111429600Y-130764776D01*
X111180365Y-130704700D01*
X110924199Y-130694402D01*
X110670946Y-130734277D01*
X110430339Y-130822792D01*
X110337674Y-130872322D01*
X110282282Y-131102677D01*
X103660000Y-131102677D01*
X103660000Y-124429224D01*
X107830381Y-124429224D01*
X107962317Y-124724312D01*
X108303045Y-124895159D01*
X108670557Y-124996250D01*
X109050729Y-125023701D01*
X109428951Y-124976457D01*
X109790690Y-124856333D01*
X110037683Y-124724312D01*
X110169619Y-124429224D01*
X109000000Y-123259605D01*
X107830381Y-124429224D01*
X103660000Y-124429224D01*
X103660000Y-123130729D01*
X107056299Y-123130729D01*
X107103543Y-123508951D01*
X107223667Y-123870690D01*
X107355688Y-124117683D01*
X107650776Y-124249619D01*
X108820395Y-123080000D01*
X109179605Y-123080000D01*
X110349224Y-124249619D01*
X110644312Y-124117683D01*
X110815159Y-123776955D01*
X110916250Y-123409443D01*
X110943701Y-123029271D01*
X110896457Y-122651049D01*
X110776333Y-122289310D01*
X110644312Y-122042317D01*
X110349224Y-121910381D01*
X109179605Y-123080000D01*
X108820395Y-123080000D01*
X107650776Y-121910381D01*
X107355688Y-122042317D01*
X107184841Y-122383045D01*
X107083750Y-122750557D01*
X107056299Y-123130729D01*
X103660000Y-123130729D01*
X103660000Y-121730776D01*
X107830381Y-121730776D01*
X109000000Y-122900395D01*
X110169619Y-121730776D01*
X110037683Y-121435688D01*
X109696955Y-121264841D01*
X109329443Y-121163750D01*
X108949271Y-121136299D01*
X108571049Y-121183543D01*
X108209310Y-121303667D01*
X107962317Y-121435688D01*
X107830381Y-121730776D01*
X103660000Y-121730776D01*
X103660000Y-116700000D01*
X107061928Y-116700000D01*
X107061928Y-119300000D01*
X107074188Y-119424482D01*
X107110498Y-119544180D01*
X107169463Y-119654494D01*
X107248815Y-119751185D01*
X107345506Y-119830537D01*
X107455820Y-119889502D01*
X107575518Y-119925812D01*
X107700000Y-119938072D01*
X110300000Y-119938072D01*
X110424482Y-119925812D01*
X110544180Y-119889502D01*
X110654494Y-119830537D01*
X110751185Y-119751185D01*
X110830537Y-119654494D01*
X110889502Y-119544180D01*
X110925812Y-119424482D01*
X110932468Y-119356891D01*
X117018519Y-119356891D01*
X117115843Y-119631252D01*
X117264822Y-119881355D01*
X117459731Y-120097588D01*
X117693080Y-120271641D01*
X117955901Y-120396825D01*
X118103110Y-120441476D01*
X118333000Y-120320155D01*
X118333000Y-119127000D01*
X117139186Y-119127000D01*
X117018519Y-119356891D01*
X110932468Y-119356891D01*
X110938072Y-119300000D01*
X110938072Y-118643109D01*
X117018519Y-118643109D01*
X117139186Y-118873000D01*
X118333000Y-118873000D01*
X118333000Y-117679845D01*
X118587000Y-117679845D01*
X118587000Y-118873000D01*
X118607000Y-118873000D01*
X118607000Y-119127000D01*
X118587000Y-119127000D01*
X118587000Y-120320155D01*
X118816890Y-120441476D01*
X118964099Y-120396825D01*
X119226920Y-120271641D01*
X119460269Y-120097588D01*
X119536034Y-120013534D01*
X119560498Y-120094180D01*
X119619463Y-120204494D01*
X119698815Y-120301185D01*
X119795506Y-120380537D01*
X119905820Y-120439502D01*
X120025518Y-120475812D01*
X120150000Y-120488072D01*
X121850000Y-120488072D01*
X121974482Y-120475812D01*
X122094180Y-120439502D01*
X122204494Y-120380537D01*
X122301185Y-120301185D01*
X122380537Y-120204494D01*
X122439502Y-120094180D01*
X122475812Y-119974482D01*
X122488072Y-119850000D01*
X122488072Y-119423061D01*
X150440000Y-119423061D01*
X150440000Y-119626939D01*
X150479774Y-119826898D01*
X150557795Y-120015256D01*
X150640001Y-120138286D01*
X150640000Y-120911715D01*
X150557795Y-121034744D01*
X150479774Y-121223102D01*
X150440000Y-121423061D01*
X150440000Y-121626939D01*
X150479774Y-121826898D01*
X150557795Y-122015256D01*
X150671063Y-122184774D01*
X150815226Y-122328937D01*
X150984744Y-122442205D01*
X151173102Y-122520226D01*
X151373061Y-122560000D01*
X151576939Y-122560000D01*
X151776898Y-122520226D01*
X151965256Y-122442205D01*
X152134774Y-122328937D01*
X152278937Y-122184774D01*
X152392205Y-122015256D01*
X152470226Y-121826898D01*
X152510000Y-121626939D01*
X152510000Y-121423061D01*
X152470226Y-121223102D01*
X152392205Y-121034744D01*
X152310000Y-120911715D01*
X152310000Y-120138285D01*
X152392205Y-120015256D01*
X152470226Y-119826898D01*
X152510000Y-119626939D01*
X152510000Y-119423061D01*
X152505028Y-119398061D01*
X157465000Y-119398061D01*
X157465000Y-119601939D01*
X157504774Y-119801898D01*
X157582795Y-119990256D01*
X157665001Y-120113286D01*
X157665000Y-122386715D01*
X157582795Y-122509744D01*
X157504774Y-122698102D01*
X157465000Y-122898061D01*
X157465000Y-123101939D01*
X157504774Y-123301898D01*
X157582795Y-123490256D01*
X157696063Y-123659774D01*
X157840226Y-123803937D01*
X158009744Y-123917205D01*
X158198102Y-123995226D01*
X158398061Y-124035000D01*
X158601939Y-124035000D01*
X158801898Y-123995226D01*
X158990256Y-123917205D01*
X159159774Y-123803937D01*
X159303937Y-123659774D01*
X159417205Y-123490256D01*
X159495226Y-123301898D01*
X159535000Y-123101939D01*
X159535000Y-122898061D01*
X159495226Y-122698102D01*
X159417205Y-122509744D01*
X159335000Y-122386715D01*
X159335000Y-120113285D01*
X159417205Y-119990256D01*
X159495226Y-119801898D01*
X159535000Y-119601939D01*
X159535000Y-119423061D01*
X168440000Y-119423061D01*
X168440000Y-119626939D01*
X168479774Y-119826898D01*
X168557795Y-120015256D01*
X168640001Y-120138286D01*
X168640000Y-121861715D01*
X168557795Y-121984744D01*
X168479774Y-122173102D01*
X168440000Y-122373061D01*
X168440000Y-122576939D01*
X168479774Y-122776898D01*
X168557795Y-122965256D01*
X168671063Y-123134774D01*
X168815226Y-123278937D01*
X168984744Y-123392205D01*
X169173102Y-123470226D01*
X169373061Y-123510000D01*
X169576939Y-123510000D01*
X169776898Y-123470226D01*
X169965256Y-123392205D01*
X170134774Y-123278937D01*
X170278937Y-123134774D01*
X170392205Y-122965256D01*
X170470226Y-122776898D01*
X170510000Y-122576939D01*
X170510000Y-122373061D01*
X170470226Y-122173102D01*
X170392205Y-121984744D01*
X170310000Y-121861715D01*
X170310000Y-120138285D01*
X170392205Y-120015256D01*
X170470226Y-119826898D01*
X170510000Y-119626939D01*
X170510000Y-119423061D01*
X170470226Y-119223102D01*
X170392205Y-119034744D01*
X170278937Y-118865226D01*
X170134774Y-118721063D01*
X169965256Y-118607795D01*
X169776898Y-118529774D01*
X169576939Y-118490000D01*
X169373061Y-118490000D01*
X169173102Y-118529774D01*
X168984744Y-118607795D01*
X168815226Y-118721063D01*
X168671063Y-118865226D01*
X168557795Y-119034744D01*
X168479774Y-119223102D01*
X168440000Y-119423061D01*
X159535000Y-119423061D01*
X159535000Y-119398061D01*
X159495226Y-119198102D01*
X159417205Y-119009744D01*
X159303937Y-118840226D01*
X159159774Y-118696063D01*
X158990256Y-118582795D01*
X158801898Y-118504774D01*
X158601939Y-118465000D01*
X158398061Y-118465000D01*
X158198102Y-118504774D01*
X158009744Y-118582795D01*
X157840226Y-118696063D01*
X157696063Y-118840226D01*
X157582795Y-119009744D01*
X157504774Y-119198102D01*
X157465000Y-119398061D01*
X152505028Y-119398061D01*
X152470226Y-119223102D01*
X152392205Y-119034744D01*
X152278937Y-118865226D01*
X152134774Y-118721063D01*
X151965256Y-118607795D01*
X151776898Y-118529774D01*
X151576939Y-118490000D01*
X151373061Y-118490000D01*
X151173102Y-118529774D01*
X150984744Y-118607795D01*
X150815226Y-118721063D01*
X150671063Y-118865226D01*
X150557795Y-119034744D01*
X150479774Y-119223102D01*
X150440000Y-119423061D01*
X122488072Y-119423061D01*
X122488072Y-118150000D01*
X122475812Y-118025518D01*
X122439502Y-117905820D01*
X122380537Y-117795506D01*
X122301185Y-117698815D01*
X122204494Y-117619463D01*
X122094180Y-117560498D01*
X121974482Y-117524188D01*
X121850000Y-117511928D01*
X120150000Y-117511928D01*
X120025518Y-117524188D01*
X119905820Y-117560498D01*
X119795506Y-117619463D01*
X119698815Y-117698815D01*
X119619463Y-117795506D01*
X119560498Y-117905820D01*
X119536034Y-117986466D01*
X119460269Y-117902412D01*
X119226920Y-117728359D01*
X118964099Y-117603175D01*
X118816890Y-117558524D01*
X118587000Y-117679845D01*
X118333000Y-117679845D01*
X118103110Y-117558524D01*
X117955901Y-117603175D01*
X117693080Y-117728359D01*
X117459731Y-117902412D01*
X117264822Y-118118645D01*
X117115843Y-118368748D01*
X117018519Y-118643109D01*
X110938072Y-118643109D01*
X110938072Y-116700000D01*
X110925812Y-116575518D01*
X110889502Y-116455820D01*
X110830537Y-116345506D01*
X110751185Y-116248815D01*
X110654494Y-116169463D01*
X110544180Y-116110498D01*
X110424482Y-116074188D01*
X110300000Y-116061928D01*
X107700000Y-116061928D01*
X107575518Y-116074188D01*
X107455820Y-116110498D01*
X107345506Y-116169463D01*
X107248815Y-116248815D01*
X107169463Y-116345506D01*
X107110498Y-116455820D01*
X107074188Y-116575518D01*
X107061928Y-116700000D01*
X103660000Y-116700000D01*
X103660000Y-42032279D01*
X103707670Y-41546107D01*
X103839489Y-41109502D01*
X104053600Y-40706815D01*
X104341848Y-40353388D01*
X104693261Y-40062673D01*
X105094439Y-39845758D01*
X105530113Y-39710894D01*
X106014344Y-39660000D01*
X179967721Y-39660000D01*
X180453893Y-39707670D01*
G04 #@! TA.AperFunction,Conductor*
D19*
G36*
X180453893Y-39707670D02*
G01*
X180890498Y-39839489D01*
X181293185Y-40053600D01*
X181646612Y-40341848D01*
X181937327Y-40693261D01*
X182154242Y-41094439D01*
X182289106Y-41530113D01*
X182340001Y-42014353D01*
X182340000Y-135967721D01*
X182292330Y-136453894D01*
X182160512Y-136890497D01*
X181946399Y-137293186D01*
X181658150Y-137646613D01*
X181306739Y-137937327D01*
X180905564Y-138154240D01*
X180469886Y-138289106D01*
X179985664Y-138340000D01*
X106032279Y-138340000D01*
X105546106Y-138292330D01*
X105109503Y-138160512D01*
X104706814Y-137946399D01*
X104353387Y-137658150D01*
X104062673Y-137306739D01*
X103845760Y-136905564D01*
X103710894Y-136469886D01*
X103660000Y-135985664D01*
X103660000Y-135866544D01*
X139645000Y-135866544D01*
X139645000Y-136133456D01*
X139697072Y-136395239D01*
X139799215Y-136641833D01*
X139947503Y-136863762D01*
X140136238Y-137052497D01*
X140358167Y-137200785D01*
X140604761Y-137302928D01*
X140866544Y-137355000D01*
X141133456Y-137355000D01*
X141395239Y-137302928D01*
X141641833Y-137200785D01*
X141863762Y-137052497D01*
X142052497Y-136863762D01*
X142200785Y-136641833D01*
X142270000Y-136474734D01*
X142339215Y-136641833D01*
X142487503Y-136863762D01*
X142676238Y-137052497D01*
X142898167Y-137200785D01*
X143144761Y-137302928D01*
X143406544Y-137355000D01*
X143673456Y-137355000D01*
X143935239Y-137302928D01*
X144181833Y-137200785D01*
X144403762Y-137052497D01*
X144592497Y-136863762D01*
X144740785Y-136641833D01*
X144810000Y-136474734D01*
X144879215Y-136641833D01*
X145027503Y-136863762D01*
X145216238Y-137052497D01*
X145438167Y-137200785D01*
X145684761Y-137302928D01*
X145946544Y-137355000D01*
X146213456Y-137355000D01*
X146475239Y-137302928D01*
X146721833Y-137200785D01*
X146943762Y-137052497D01*
X147132497Y-136863762D01*
X147280785Y-136641833D01*
X147382928Y-136395239D01*
X147435000Y-136133456D01*
X147435000Y-135866544D01*
X147382928Y-135604761D01*
X147280785Y-135358167D01*
X147132497Y-135136238D01*
X146943762Y-134947503D01*
X146721833Y-134799215D01*
X146475239Y-134697072D01*
X146213456Y-134645000D01*
X145946544Y-134645000D01*
X145684761Y-134697072D01*
X145438167Y-134799215D01*
X145216238Y-134947503D01*
X145027503Y-135136238D01*
X144879215Y-135358167D01*
X144810000Y-135525266D01*
X144740785Y-135358167D01*
X144592497Y-135136238D01*
X144403762Y-134947503D01*
X144181833Y-134799215D01*
X143935239Y-134697072D01*
X143673456Y-134645000D01*
X143406544Y-134645000D01*
X143144761Y-134697072D01*
X142898167Y-134799215D01*
X142676238Y-134947503D01*
X142487503Y-135136238D01*
X142339215Y-135358167D01*
X142270000Y-135525266D01*
X142200785Y-135358167D01*
X142052497Y-135136238D01*
X141863762Y-134947503D01*
X141641833Y-134799215D01*
X141395239Y-134697072D01*
X141133456Y-134645000D01*
X140866544Y-134645000D01*
X140604761Y-134697072D01*
X140358167Y-134799215D01*
X140136238Y-134947503D01*
X139947503Y-135136238D01*
X139799215Y-135358167D01*
X139697072Y-135604761D01*
X139645000Y-135866544D01*
X103660000Y-135866544D01*
X103660000Y-134411813D01*
X109698500Y-134411813D01*
X109698500Y-134668187D01*
X109748516Y-134919633D01*
X109846626Y-135156491D01*
X109989059Y-135369658D01*
X110170342Y-135550941D01*
X110383509Y-135693374D01*
X110620367Y-135791484D01*
X110871813Y-135841500D01*
X111128187Y-135841500D01*
X111379633Y-135791484D01*
X111616491Y-135693374D01*
X111829658Y-135550941D01*
X112010941Y-135369658D01*
X112153374Y-135156491D01*
X112251484Y-134919633D01*
X112301500Y-134668187D01*
X112301500Y-134411813D01*
X112251484Y-134160367D01*
X112153374Y-133923509D01*
X112010941Y-133710342D01*
X111829658Y-133529059D01*
X111616491Y-133386626D01*
X111379633Y-133288516D01*
X111293326Y-133271348D01*
X111329054Y-133265723D01*
X111569661Y-133177208D01*
X111662326Y-133127678D01*
X111717718Y-132897323D01*
X111000000Y-132179605D01*
X110282282Y-132897323D01*
X110337674Y-133127678D01*
X110570400Y-133235224D01*
X110714122Y-133269867D01*
X110620367Y-133288516D01*
X110383509Y-133386626D01*
X110170342Y-133529059D01*
X109989059Y-133710342D01*
X109846626Y-133923509D01*
X109748516Y-134160367D01*
X109698500Y-134411813D01*
X103660000Y-134411813D01*
X103660000Y-132075801D01*
X109694402Y-132075801D01*
X109734277Y-132329054D01*
X109822792Y-132569661D01*
X109872322Y-132662326D01*
X110102677Y-132717718D01*
X110820395Y-132000000D01*
X111179605Y-132000000D01*
X111897323Y-132717718D01*
X112127678Y-132662326D01*
X112235224Y-132429600D01*
X112295300Y-132180365D01*
X112305598Y-131924199D01*
X112265723Y-131670946D01*
X112177208Y-131430339D01*
X112127678Y-131337674D01*
X111897323Y-131282282D01*
X111179605Y-132000000D01*
X110820395Y-132000000D01*
X110102677Y-131282282D01*
X109872322Y-131337674D01*
X109764776Y-131570400D01*
X109704700Y-131819635D01*
X109694402Y-132075801D01*
X103660000Y-132075801D01*
X103660000Y-131102677D01*
X110282282Y-131102677D01*
X111000000Y-131820395D01*
X111717718Y-131102677D01*
X111662326Y-130872322D01*
X111429600Y-130764776D01*
X111180365Y-130704700D01*
X110924199Y-130694402D01*
X110670946Y-130734277D01*
X110430339Y-130822792D01*
X110337674Y-130872322D01*
X110282282Y-131102677D01*
X103660000Y-131102677D01*
X103660000Y-124429224D01*
X107830381Y-124429224D01*
X107962317Y-124724312D01*
X108303045Y-124895159D01*
X108670557Y-124996250D01*
X109050729Y-125023701D01*
X109428951Y-124976457D01*
X109790690Y-124856333D01*
X110037683Y-124724312D01*
X110169619Y-124429224D01*
X109000000Y-123259605D01*
X107830381Y-124429224D01*
X103660000Y-124429224D01*
X103660000Y-123130729D01*
X107056299Y-123130729D01*
X107103543Y-123508951D01*
X107223667Y-123870690D01*
X107355688Y-124117683D01*
X107650776Y-124249619D01*
X108820395Y-123080000D01*
X109179605Y-123080000D01*
X110349224Y-124249619D01*
X110644312Y-124117683D01*
X110815159Y-123776955D01*
X110916250Y-123409443D01*
X110943701Y-123029271D01*
X110896457Y-122651049D01*
X110776333Y-122289310D01*
X110644312Y-122042317D01*
X110349224Y-121910381D01*
X109179605Y-123080000D01*
X108820395Y-123080000D01*
X107650776Y-121910381D01*
X107355688Y-122042317D01*
X107184841Y-122383045D01*
X107083750Y-122750557D01*
X107056299Y-123130729D01*
X103660000Y-123130729D01*
X103660000Y-121730776D01*
X107830381Y-121730776D01*
X109000000Y-122900395D01*
X110169619Y-121730776D01*
X110037683Y-121435688D01*
X109696955Y-121264841D01*
X109329443Y-121163750D01*
X108949271Y-121136299D01*
X108571049Y-121183543D01*
X108209310Y-121303667D01*
X107962317Y-121435688D01*
X107830381Y-121730776D01*
X103660000Y-121730776D01*
X103660000Y-116700000D01*
X107061928Y-116700000D01*
X107061928Y-119300000D01*
X107074188Y-119424482D01*
X107110498Y-119544180D01*
X107169463Y-119654494D01*
X107248815Y-119751185D01*
X107345506Y-119830537D01*
X107455820Y-119889502D01*
X107575518Y-119925812D01*
X107700000Y-119938072D01*
X110300000Y-119938072D01*
X110424482Y-119925812D01*
X110544180Y-119889502D01*
X110654494Y-119830537D01*
X110751185Y-119751185D01*
X110830537Y-119654494D01*
X110889502Y-119544180D01*
X110925812Y-119424482D01*
X110932468Y-119356891D01*
X117018519Y-119356891D01*
X117115843Y-119631252D01*
X117264822Y-119881355D01*
X117459731Y-120097588D01*
X117693080Y-120271641D01*
X117955901Y-120396825D01*
X118103110Y-120441476D01*
X118333000Y-120320155D01*
X118333000Y-119127000D01*
X117139186Y-119127000D01*
X117018519Y-119356891D01*
X110932468Y-119356891D01*
X110938072Y-119300000D01*
X110938072Y-118643109D01*
X117018519Y-118643109D01*
X117139186Y-118873000D01*
X118333000Y-118873000D01*
X118333000Y-117679845D01*
X118587000Y-117679845D01*
X118587000Y-118873000D01*
X118607000Y-118873000D01*
X118607000Y-119127000D01*
X118587000Y-119127000D01*
X118587000Y-120320155D01*
X118816890Y-120441476D01*
X118964099Y-120396825D01*
X119226920Y-120271641D01*
X119460269Y-120097588D01*
X119536034Y-120013534D01*
X119560498Y-120094180D01*
X119619463Y-120204494D01*
X119698815Y-120301185D01*
X119795506Y-120380537D01*
X119905820Y-120439502D01*
X120025518Y-120475812D01*
X120150000Y-120488072D01*
X121850000Y-120488072D01*
X121974482Y-120475812D01*
X122094180Y-120439502D01*
X122204494Y-120380537D01*
X122301185Y-120301185D01*
X122380537Y-120204494D01*
X122439502Y-120094180D01*
X122475812Y-119974482D01*
X122488072Y-119850000D01*
X122488072Y-119423061D01*
X150440000Y-119423061D01*
X150440000Y-119626939D01*
X150479774Y-119826898D01*
X150557795Y-120015256D01*
X150640001Y-120138286D01*
X150640000Y-120911715D01*
X150557795Y-121034744D01*
X150479774Y-121223102D01*
X150440000Y-121423061D01*
X150440000Y-121626939D01*
X150479774Y-121826898D01*
X150557795Y-122015256D01*
X150671063Y-122184774D01*
X150815226Y-122328937D01*
X150984744Y-122442205D01*
X151173102Y-122520226D01*
X151373061Y-122560000D01*
X151576939Y-122560000D01*
X151776898Y-122520226D01*
X151965256Y-122442205D01*
X152134774Y-122328937D01*
X152278937Y-122184774D01*
X152392205Y-122015256D01*
X152470226Y-121826898D01*
X152510000Y-121626939D01*
X152510000Y-121423061D01*
X152470226Y-121223102D01*
X152392205Y-121034744D01*
X152310000Y-120911715D01*
X152310000Y-120138285D01*
X152392205Y-120015256D01*
X152470226Y-119826898D01*
X152510000Y-119626939D01*
X152510000Y-119423061D01*
X152505028Y-119398061D01*
X157465000Y-119398061D01*
X157465000Y-119601939D01*
X157504774Y-119801898D01*
X157582795Y-119990256D01*
X157665001Y-120113286D01*
X157665000Y-122386715D01*
X157582795Y-122509744D01*
X157504774Y-122698102D01*
X157465000Y-122898061D01*
X157465000Y-123101939D01*
X157504774Y-123301898D01*
X157582795Y-123490256D01*
X157696063Y-123659774D01*
X157840226Y-123803937D01*
X158009744Y-123917205D01*
X158198102Y-123995226D01*
X158398061Y-124035000D01*
X158601939Y-124035000D01*
X158801898Y-123995226D01*
X158990256Y-123917205D01*
X159159774Y-123803937D01*
X159303937Y-123659774D01*
X159417205Y-123490256D01*
X159495226Y-123301898D01*
X159535000Y-123101939D01*
X159535000Y-122898061D01*
X159495226Y-122698102D01*
X159417205Y-122509744D01*
X159335000Y-122386715D01*
X159335000Y-120113285D01*
X159417205Y-119990256D01*
X159495226Y-119801898D01*
X159535000Y-119601939D01*
X159535000Y-119423061D01*
X168440000Y-119423061D01*
X168440000Y-119626939D01*
X168479774Y-119826898D01*
X168557795Y-120015256D01*
X168640001Y-120138286D01*
X168640000Y-121861715D01*
X168557795Y-121984744D01*
X168479774Y-122173102D01*
X168440000Y-122373061D01*
X168440000Y-122576939D01*
X168479774Y-122776898D01*
X168557795Y-122965256D01*
X168671063Y-123134774D01*
X168815226Y-123278937D01*
X168984744Y-123392205D01*
X169173102Y-123470226D01*
X169373061Y-123510000D01*
X169576939Y-123510000D01*
X169776898Y-123470226D01*
X169965256Y-123392205D01*
X170134774Y-123278937D01*
X170278937Y-123134774D01*
X170392205Y-122965256D01*
X170470226Y-122776898D01*
X170510000Y-122576939D01*
X170510000Y-122373061D01*
X170470226Y-122173102D01*
X170392205Y-121984744D01*
X170310000Y-121861715D01*
X170310000Y-120138285D01*
X170392205Y-120015256D01*
X170470226Y-119826898D01*
X170510000Y-119626939D01*
X170510000Y-119423061D01*
X170470226Y-119223102D01*
X170392205Y-119034744D01*
X170278937Y-118865226D01*
X170134774Y-118721063D01*
X169965256Y-118607795D01*
X169776898Y-118529774D01*
X169576939Y-118490000D01*
X169373061Y-118490000D01*
X169173102Y-118529774D01*
X168984744Y-118607795D01*
X168815226Y-118721063D01*
X168671063Y-118865226D01*
X168557795Y-119034744D01*
X168479774Y-119223102D01*
X168440000Y-119423061D01*
X159535000Y-119423061D01*
X159535000Y-119398061D01*
X159495226Y-119198102D01*
X159417205Y-119009744D01*
X159303937Y-118840226D01*
X159159774Y-118696063D01*
X158990256Y-118582795D01*
X158801898Y-118504774D01*
X158601939Y-118465000D01*
X158398061Y-118465000D01*
X158198102Y-118504774D01*
X158009744Y-118582795D01*
X157840226Y-118696063D01*
X157696063Y-118840226D01*
X157582795Y-119009744D01*
X157504774Y-119198102D01*
X157465000Y-119398061D01*
X152505028Y-119398061D01*
X152470226Y-119223102D01*
X152392205Y-119034744D01*
X152278937Y-118865226D01*
X152134774Y-118721063D01*
X151965256Y-118607795D01*
X151776898Y-118529774D01*
X151576939Y-118490000D01*
X151373061Y-118490000D01*
X151173102Y-118529774D01*
X150984744Y-118607795D01*
X150815226Y-118721063D01*
X150671063Y-118865226D01*
X150557795Y-119034744D01*
X150479774Y-119223102D01*
X150440000Y-119423061D01*
X122488072Y-119423061D01*
X122488072Y-118150000D01*
X122475812Y-118025518D01*
X122439502Y-117905820D01*
X122380537Y-117795506D01*
X122301185Y-117698815D01*
X122204494Y-117619463D01*
X122094180Y-117560498D01*
X121974482Y-117524188D01*
X121850000Y-117511928D01*
X120150000Y-117511928D01*
X120025518Y-117524188D01*
X119905820Y-117560498D01*
X119795506Y-117619463D01*
X119698815Y-117698815D01*
X119619463Y-117795506D01*
X119560498Y-117905820D01*
X119536034Y-117986466D01*
X119460269Y-117902412D01*
X119226920Y-117728359D01*
X118964099Y-117603175D01*
X118816890Y-117558524D01*
X118587000Y-117679845D01*
X118333000Y-117679845D01*
X118103110Y-117558524D01*
X117955901Y-117603175D01*
X117693080Y-117728359D01*
X117459731Y-117902412D01*
X117264822Y-118118645D01*
X117115843Y-118368748D01*
X117018519Y-118643109D01*
X110938072Y-118643109D01*
X110938072Y-116700000D01*
X110925812Y-116575518D01*
X110889502Y-116455820D01*
X110830537Y-116345506D01*
X110751185Y-116248815D01*
X110654494Y-116169463D01*
X110544180Y-116110498D01*
X110424482Y-116074188D01*
X110300000Y-116061928D01*
X107700000Y-116061928D01*
X107575518Y-116074188D01*
X107455820Y-116110498D01*
X107345506Y-116169463D01*
X107248815Y-116248815D01*
X107169463Y-116345506D01*
X107110498Y-116455820D01*
X107074188Y-116575518D01*
X107061928Y-116700000D01*
X103660000Y-116700000D01*
X103660000Y-42032279D01*
X103707670Y-41546107D01*
X103839489Y-41109502D01*
X104053600Y-40706815D01*
X104341848Y-40353388D01*
X104693261Y-40062673D01*
X105094439Y-39845758D01*
X105530113Y-39710894D01*
X106014344Y-39660000D01*
X179967721Y-39660000D01*
X180453893Y-39707670D01*
G37*
G04 #@! TD.AperFunction*
G04 #@! TD*
M02*
