%TF.GenerationSoftware,KiCad,Pcbnew,7.0.6*%
%TF.CreationDate,2023-11-12T21:40:01+01:00*%
%TF.ProjectId,Julkort,4a756c6b-6f72-4742-9e6b-696361645f70,rev?*%
%TF.SameCoordinates,Original*%
%TF.FileFunction,Soldermask,Top*%
%TF.FilePolarity,Negative*%
%FSLAX46Y46*%
G04 Gerber Fmt 4.6, Leading zero omitted, Abs format (unit mm)*
G04 Created by KiCad (PCBNEW 7.0.6) date 2023-11-12 21:40:01*
%MOMM*%
%LPD*%
G01*
G04 APERTURE LIST*
G04 Aperture macros list*
%AMRoundRect*
0 Rectangle with rounded corners*
0 $1 Rounding radius*
0 $2 $3 $4 $5 $6 $7 $8 $9 X,Y pos of 4 corners*
0 Add a 4 corners polygon primitive as box body*
4,1,4,$2,$3,$4,$5,$6,$7,$8,$9,$2,$3,0*
0 Add four circle primitives for the rounded corners*
1,1,$1+$1,$2,$3*
1,1,$1+$1,$4,$5*
1,1,$1+$1,$6,$7*
1,1,$1+$1,$8,$9*
0 Add four rect primitives between the rounded corners*
20,1,$1+$1,$2,$3,$4,$5,0*
20,1,$1+$1,$4,$5,$6,$7,0*
20,1,$1+$1,$6,$7,$8,$9,0*
20,1,$1+$1,$8,$9,$2,$3,0*%
%AMFreePoly0*
4,1,9,3.862500,-0.866500,0.737500,-0.866500,0.737500,-0.450000,-0.737500,-0.450000,-0.737500,0.450000,0.737500,0.450000,0.737500,0.866500,3.862500,0.866500,3.862500,-0.866500,3.862500,-0.866500,$1*%
G04 Aperture macros list end*
%ADD10R,0.550000X0.550000*%
%ADD11RoundRect,0.200000X0.200000X0.275000X-0.200000X0.275000X-0.200000X-0.275000X0.200000X-0.275000X0*%
%ADD12R,0.900000X1.300000*%
%ADD13FreePoly0,270.000000*%
%ADD14C,0.900000*%
%ADD15R,1.200000X0.900000*%
%ADD16R,0.900000X0.800000*%
%ADD17RoundRect,0.062500X-0.350000X-0.062500X0.350000X-0.062500X0.350000X0.062500X-0.350000X0.062500X0*%
%ADD18RoundRect,0.062500X-0.062500X-0.350000X0.062500X-0.350000X0.062500X0.350000X-0.062500X0.350000X0*%
%ADD19R,2.500000X2.500000*%
%ADD20R,1.000000X0.750000*%
G04 APERTURE END LIST*
D10*
%TO.C,D14*%
X148545075Y-87094201D03*
X149495075Y-87094201D03*
X149495075Y-86144201D03*
X148545075Y-86144201D03*
%TD*%
%TO.C,D12*%
X144063947Y-101264957D03*
X145013947Y-101264957D03*
X145013947Y-100314957D03*
X144063947Y-100314957D03*
%TD*%
D11*
%TO.C,R1*%
X164269654Y-117873176D03*
X162619654Y-117873176D03*
%TD*%
D12*
%TO.C,U2*%
X165054247Y-130104485D03*
D13*
X163554247Y-130191985D03*
D12*
X162054247Y-130104485D03*
%TD*%
D14*
%TO.C,J1*%
X79224644Y-128639317D03*
X79224644Y-131639317D03*
D15*
X81374644Y-127889317D03*
X81357246Y-130844155D03*
X81374644Y-132389317D03*
D16*
X80324644Y-126339317D03*
X80324644Y-133939317D03*
X78124644Y-133939317D03*
X78124644Y-126339317D03*
%TD*%
D10*
%TO.C,D9*%
X113655595Y-93955523D03*
X114605595Y-93955523D03*
X114605595Y-93005523D03*
X113655595Y-93005523D03*
%TD*%
%TO.C,D2*%
X149178278Y-75573155D03*
X150128278Y-75573155D03*
X150128278Y-74623155D03*
X149178278Y-74623155D03*
%TD*%
%TO.C,D15*%
X150389617Y-93081466D03*
X151339617Y-93081466D03*
X151339617Y-92131466D03*
X150389617Y-92131466D03*
%TD*%
%TO.C,D8*%
X101460621Y-85721700D03*
X102410621Y-85721700D03*
X102410621Y-84771700D03*
X101460621Y-84771700D03*
%TD*%
D17*
%TO.C,U1*%
X161572910Y-122922699D03*
X161572910Y-123422699D03*
X161572910Y-123922699D03*
X161572910Y-124422699D03*
X161572910Y-124922699D03*
D18*
X162510410Y-125860199D03*
X163010410Y-125860199D03*
X163510410Y-125860199D03*
X164010410Y-125860199D03*
X164510410Y-125860199D03*
D17*
X165447910Y-124922699D03*
X165447910Y-124422699D03*
X165447910Y-123922699D03*
X165447910Y-123422699D03*
X165447910Y-122922699D03*
D18*
X164510410Y-121985199D03*
X164010410Y-121985199D03*
X163510410Y-121985199D03*
X163010410Y-121985199D03*
X162510410Y-121985199D03*
D19*
X163510410Y-123922699D03*
%TD*%
D10*
%TO.C,D3*%
X133595128Y-81352600D03*
X134545128Y-81352600D03*
X134545128Y-80402600D03*
X133595128Y-80402600D03*
%TD*%
%TO.C,D5*%
X94018551Y-76135598D03*
X94968551Y-76135598D03*
X94968551Y-75185598D03*
X94018551Y-75185598D03*
%TD*%
%TO.C,D10*%
X125554939Y-101446800D03*
X126504939Y-101446800D03*
X126504939Y-100496800D03*
X125554939Y-100496800D03*
%TD*%
%TO.C,D1*%
X165018092Y-76186875D03*
X165968092Y-76186875D03*
X165968092Y-75236875D03*
X165018092Y-75236875D03*
%TD*%
D20*
%TO.C,S1*%
X77499405Y-117249277D03*
X83499405Y-117249277D03*
X77499405Y-120999277D03*
X83499405Y-120999277D03*
%TD*%
D10*
%TO.C,D7*%
X84977863Y-92253432D03*
X85927863Y-92253432D03*
X85927863Y-91303432D03*
X84977863Y-91303432D03*
%TD*%
%TO.C,D13*%
X146580928Y-94068768D03*
X147530928Y-94068768D03*
X147530928Y-93118768D03*
X146580928Y-93118768D03*
%TD*%
%TO.C,D4*%
X117066637Y-78532412D03*
X118016637Y-78532412D03*
X118016637Y-77582412D03*
X117066637Y-77582412D03*
%TD*%
%TO.C,D6*%
X78673571Y-77735787D03*
X79623571Y-77735787D03*
X79623571Y-76785787D03*
X78673571Y-76785787D03*
%TD*%
%TO.C,D16*%
X152500158Y-99108820D03*
X153450158Y-99108820D03*
X153450158Y-98158820D03*
X152500158Y-98158820D03*
%TD*%
%TO.C,D11*%
X135004275Y-101485766D03*
X135954275Y-101485766D03*
X135954275Y-100535766D03*
X135004275Y-100535766D03*
%TD*%
M02*
